<?xml version="1.0" encoding="utf-8"?>
<!-- Generator: Adobe Illustrator 25.2.3, SVG Export Plug-In . SVG Version: 6.00 Build 0)  -->
<svg version="1.1" id="A-AREA-BNDY" xmlns="http://www.w3.org/2000/svg" xmlns:xlink="http://www.w3.org/1999/xlink" x="0px"
	 y="0px" viewBox="0 0 4173.3 5000" style="enable-background:new 0 0 4173.3 5000;" xml:space="preserve">
<style type="text/css">
	.st0{fill:#BA9BC9;stroke:#000000;stroke-width:0.2551;stroke-linecap:round;stroke-linejoin:round;stroke-miterlimit:10;}
	.st1{opacity:0.4;}
	.st2{fill:#65C8D0;stroke:#000000;stroke-width:0.2551;stroke-linecap:round;stroke-linejoin:round;stroke-miterlimit:9.9998;}
	.st3{fill:#65C8D0;stroke:#000000;stroke-width:0.2551;stroke-linecap:round;stroke-linejoin:round;stroke-miterlimit:10;}
	.st4{fill:none;stroke:#000000;stroke-width:0.25;}
	.st5{font-family:'ArialMT';}
	.st6{font-size:11.9974px;}
	
		.st7{fill:none;stroke:#000000;stroke-width:0.2551;stroke-linecap:round;stroke-linejoin:round;stroke-miterlimit:10;stroke-dasharray:5.320000e-02,1.330000e-02,1.330000e-02,1.330000e-02;}
</style>
<polygon id="_x30_1.30.02" class="st0" points="992.3,4717 1061.4,4717 1093.6,4717 1129.1,4717 1129.1,4601.7 1129.1,4581.4 
	992.3,4581.4 "/>
<polygon id="ST02_-_100" class="st0" points="1063.2,4822.7 1121.7,4822.7 1121.7,4768.5 1121.7,4766.8 1121.7,4748.9 
	1132.7,4748.9 1132.7,4766.8 1162.5,4766.8 1162.5,4611.3 1162.5,4603.4 1133.4,4603.4 1132.7,4603.4 1132.7,4720.6 1095.3,4720.6 
	1095.3,4793.4 1091.8,4793.4 1091.8,4720.6 1063.2,4720.6 "/>
<polygon id="_x30_1.27.05" class="st0" points="1549.4,4761.3 1549.4,4771.5 1659.6,4771.5 1659.6,4822.7 1705.9,4822.7 
	1705.9,4771.5 1749.8,4771.5 1749.8,4774.6 1709,4774.6 1709,4822.7 1976.2,4822.7 1976.2,4774.6 1905,4774.6 1905,4771.5 
	1976.2,4771.5 1976.2,4718.3 1905,4718.3 1905,4714.9 1976.2,4714.9 1976.2,4646.9 1905,4646.9 1905,4628 1905,4575.2 1905,4575 
	1863.3,4575 1863.3,4609.7 1814.3,4609.7 1779.5,4609.7 1779.5,4606.5 1812.6,4606.5 1812.6,4558 1655.7,4558 1655.7,4573.4 
	1655.7,4575.2 1655.7,4606.5 1745.6,4606.5 1745.6,4609.7 1652.6,4609.7 1652.6,4575.2 1610.4,4575.2 1610.4,4581.3 1608.2,4585.9 
	1608.2,4604 1610.4,4604 1610.4,4609.7 1549.4,4609.7 1549.4,4651.8 1549.4,4694.3 "/>
<polygon id="_x30_1.47.02" class="st0" points="1306.7,474.2 1306.7,509.5 1338.7,509.5 1344.4,509.5 1363.4,509.5 1363.4,371.4 
	1365.2,371.4 1365.2,358.5 1363.4,358.5 1363.4,357.2 1285.1,357.2 1285.1,376.1 1281.5,376.1 1281.5,357.2 1164.5,357.2 
	1164.5,358.5 1160.9,358.5 1160.9,355.4 1160.9,346.8 1110.1,346.8 1110.1,378.4 1131,378.4 1131,389.8 1127.4,389.8 1127.4,382 
	1108.3,382 1098.9,382 1098.9,513.3 1127.4,513.3 1127.4,472.4 1127.4,462.1 1127.4,427.2 1131,427.2 1131,460.2 1281.5,460.2 
	1281.5,441.4 1285.1,441.4 1285.1,460.2 1331.5,460.2 1331.5,427.2 1335.1,427.2 1335.1,459.2 1335.1,460.2 1335.1,462.1 
	1335.1,474.2 "/>
<polygon id="_x30_1.42.01" class="st0" points="478.5,1336.2 368.6,1336.2 368.6,1441.8 359.3,1441.8 359.3,1485.4 359.6,1485.4 
	359.6,1488.3 359.6,1520.8 359.6,1523.7 359.3,1523.7 359.3,1548 369.5,1548 369.5,1578.6 369.5,1708 369.5,1738.6 359.3,1738.6 
	359.3,1869.6 359.3,1872.4 359.3,1923.1 504,1923.1 504,1911.9 698.4,1911.9 709.7,1911.9 709.7,1920.6 719.4,1920.6 719.4,1932.9 
	823.2,1932.9 823.2,1920.6 832.9,1920.6 832.9,1908.3 834.3,1905.6 834.3,1905.4 834.3,1866.7 834.3,1864.1 836.8,1864.1 
	853.6,1864.1 853.6,1667.6 836.8,1667.6 834.3,1667.6 834.3,1665 834.3,1627.7 834.3,1625.1 836.8,1625.1 853.6,1625.1 
	853.6,1472.1 851.2,1472.1 851.2,1441.8 845.1,1441.8 779.2,1441.8 779.2,1413 748.6,1413 748.6,1440.1 745.2,1440.1 745.2,1413 
	714.7,1413 714.7,1441.8 649.3,1441.8 649.3,1400.1 649.3,1393.6 649.3,1336.2 "/>
<polygon id="_x30_1.40.01" class="st0" points="358.4,1926.5 354.4,1926.5 354.4,1987.3 357.3,1987.3 357.3,1973.5 467.9,1973.5 
	467.9,2009.5 502.1,2009.5 502.1,1986.8 505.5,1986.8 505.5,2011.2 505.5,2012.3 709.2,2012.3 709.2,1974.3 709.2,1963.9 
	712.6,1963.9 712.6,1972.6 725.8,1972.6 761.3,1972.6 796.1,1972.6 831.6,1972.6 851.2,1972.6 851.2,1911 836.8,1911 836.3,1911 
	836.3,1924.1 825.5,1924.1 825.5,1935.2 717.1,1935.2 717.1,1924.1 708,1924.1 706.3,1924.1 699.6,1924.1 699.6,1935.2 
	697.3,1935.2 697.3,1923.1 697.3,1915.4 507.4,1915.4 507.4,1926.5 "/>
<polygon id="_x30_1.38.01" class="st0" points="464.5,2012.9 464.5,1976.9 359.3,1976.9 359.3,1988 359.3,1990.9 359.3,2177.5 
	456,2177.5 464.3,2177.5 464.3,2248.3 464.3,2265.5 464.3,2320.6 503.6,2320.6 547.2,2320.6 547.2,2318.6 578.5,2318.6 
	578.5,2326.8 578.5,2328.4 578.5,2463.9 578.5,2574.4 576.6,2574.4 547.2,2574.4 547.2,2572.4 511,2572.4 509.8,2572.4 
	509.8,2572.4 503.6,2572.4 464.3,2572.4 464.3,2589.9 464.3,2607.4 464.3,2715.7 457.4,2715.7 361.3,2715.7 359.3,2715.7 
	359.3,2889.5 464.5,2889.5 464.5,2841.3 496.1,2841.3 496.1,2838.5 504,2838.5 542.2,2838.5 542.2,2889.5 671.5,2889.5 
	671.5,2838.5 712.6,2838.5 712.6,2889.5 725.3,2889.5 725.3,2876.6 726.1,2876.6 726.1,2889.5 761,2889.5 761,2875.6 761.7,2875.6 
	761.7,2889.5 795.7,2889.5 795.7,2875.6 796.4,2875.6 796.4,2889.5 831.3,2889.5 831.3,2876.6 832,2876.6 832,2889.5 853.6,2889.5 
	853.6,2786.2 836.8,2786.2 834.3,2786.2 834.3,2783.7 834.3,2746.3 834.3,2743.8 836.8,2743.8 853.6,2743.8 853.6,2618.4 
	836.8,2618.4 834.3,2618.4 834.3,2615.8 834.3,2577 834.3,2571.5 851.2,2571.5 851.2,2547.9 849.2,2547.9 849.2,2494.1 
	851.2,2494.1 851.2,2473.4 849.2,2473.4 849.2,2419.6 851.2,2419.6 851.2,2398.8 849.2,2398.8 849.2,2345 851.2,2345 851.2,2321.4 
	834.3,2321.4 834.3,2316 834.3,2277.2 834.3,2274.6 836.8,2274.6 853.6,2274.6 853.6,2149.2 836.8,2149.2 834.3,2149.2 
	834.3,2146.6 834.3,2109.3 834.3,2106.7 836.8,2106.7 853.6,2106.7 853.6,1978.6 851.2,1978.6 851.2,1976 832,1976 832,1988.2 
	831.3,1988.2 831.3,1976 796.4,1976 796.4,1989.2 795.7,1989.2 795.7,1976 761.7,1976 761.7,1989.2 761,1989.2 761,1976 726.1,1976 
	726.1,1988.2 725.4,1988.2 725.4,1976 712.6,1976 712.6,2015.8 503.8,2015.8 503.8,2012.9 "/>
<polygon id="_x30_1.35.01" class="st0" points="478.8,3487.8 649.3,3487.8 649.3,3455.1 649.3,3451.6 652.8,3451.6 714.7,3451.6 
	714.7,3479.9 745.2,3479.9 745.2,3453.3 748.6,3453.3 748.6,3479.9 779.2,3479.9 779.2,3451.6 845.1,3451.6 851.2,3451.6 
	851.2,3420.8 853.6,3420.8 853.6,3267.8 836.8,3267.8 834.3,3267.8 834.3,3265.3 834.3,3227.9 834.3,3225.3 836.8,3225.3 
	853.6,3225.3 853.6,3028.8 836.8,3028.8 834.3,3028.8 834.3,3026.3 834.3,2987.5 834.3,2987.4 833,2984.7 833,2957.1 833,2944.3 
	827.4,2944.3 827.4,2931.4 723.6,2931.4 723.6,2944.3 717.8,2944.3 717.8,2952.2 497.4,2952.2 497.4,2944.3 359.3,2944.3 
	359.3,3020.5 359.3,3023.4 359.3,3154 372.2,3154 372.2,3157.2 356.6,3157.2 356.6,3161.4 354.4,3161.4 354.4,3337.9 359.3,3337.9 
	359.3,3369.3 359.6,3369.3 359.6,3372.1 359.6,3404.6 359.6,3407.5 359.3,3407.5 359.3,3454.7 359.6,3454.7 359.6,3457.5 
	359.6,3558.1 475.4,3558.1 475.4,3489.5 475.4,3453.2 478.8,3453.2 "/>
<polygon id="_x30_1.18.03" class="st0" points="3612.1,3934.8 3580.6,3934.8 3580.6,3966.8 3580.6,3998.3 3580.6,4021.8 
	3664,4021.8 3664,4018 3729.1,4018 3729.1,3401.3 3700.4,3401.3 3700.4,3397.7 3730.9,3397.7 3739.5,3397.7 3739.5,3349.1 
	3707.9,3349.1 3707.9,3366.3 3700.4,3366.3 3700.4,3362.7 3704.3,3362.7 3704.3,3347.2 3704.3,3334.4 3655.3,3334.4 3652.3,3334.4 
	3652.3,3362.7 3672.1,3362.7 3672.1,3366.3 3650.5,3366.3 3625.6,3366.3 3625.6,3650 3654.4,3650 3654.4,3653.6 3623.8,3653.6 
	3613.9,3653.6 3599.5,3653.6 3588.1,3653.6 3588.1,3688.2 3613.9,3688.2 3613.9,3687.6 3623.8,3687.6 3654.4,3687.6 3654.4,3691.2 
	3625.6,3691.2 3625.6,3989.7 3655.3,3989.7 3655.3,3993.3 3623.8,3993.3 3612.1,3993.3 "/>
<polygon id="_x30_1.15.02" class="st0" points="3550.4,2600.3 3613.9,2600.3 3623.8,2600.3 3639.4,2600.3 3639.4,2603.9 
	3625.6,2603.9 3625.6,2964.8 3650.5,2964.8 3672.9,2964.8 3672.9,2968.4 3652.3,2968.4 3652.3,2996.9 3655.3,2996.9 3704.3,2996.9 
	3704.3,2985.3 3704.3,2968.4 3698.9,2968.4 3698.9,2964.8 3707.9,2964.8 3707.9,2983.5 3739.5,2983.5 3739.5,2933.8 3729.1,2933.8 
	3729.1,2570.1 3691.1,2570.1 3691.1,2603.9 3667.7,2603.9 3667.7,2570.1 3569.7,2570.1 3550.4,2570.1 "/>
<polygon id="_x30_1.12.02" class="st0" points="3739.5,1957.2 3739.5,1907.2 3707.9,1907.2 3707.9,1928.1 3698.9,1928.1 
	3698.9,1924.5 3704.3,1924.5 3704.3,1905.4 3704.3,1896.1 3655.3,1896.1 3651.4,1896.1 3651.4,1924.5 3672.9,1924.5 3672.9,1928.1 
	3649.6,1928.1 3626,1928.1 3626,2289 3639.2,2289 3639.2,2292.6 3624.3,2292.6 3613.9,2292.6 3584.3,2292.6 3584.3,2322.8 
	3630.8,2322.8 3635.5,2322.8 3636.6,2322.8 3667.7,2322.8 3667.7,2289 3690,2289 3690,2322.8 3729.1,2322.8 3729.1,1957.2 "/>
<polygon id="_x30_1.05.01" class="st0" points="3211.4,589.4 3211.4,571.1 3210,571.1 3210,533 3210,437.5 3210,404.8 3214.2,404.8 
	3214.2,348.1 2979.4,348.1 2979.4,355.3 2911.2,355.3 2911.2,348.1 2850.7,348.1 2850.7,358.3 2841.3,358.3 2841.3,350.6 
	2841.3,348.8 2788.4,348.8 2788.4,405.9 2788.4,408.7 2788.4,414.3 2826,414.3 2826,590.7 2894.2,590.7 2894.2,596.3 2954.5,596.3 
	2954.5,590.7 2999.9,590.7 2999.9,596.3 3196.2,596.3 3196.2,578.7 3200.9,578.7 3200.9,571.1 3202.9,571.1 3202.9,578.7 
	3198.2,578.7 3198.2,596.3 3211.4,596.3 3211.4,594.5 "/>
<polygon id="_x30_1.49.01A" class="st0" points="1848.6,479.5 1848.6,475.2 1816.6,475.2 1769.1,475.2 1769.1,475.3 1769.1,524 
	1560.2,524 1555.8,524 1555.8,517.3 1476.4,517.3 1476.4,530.3 1476.4,596.3 1657.8,596.3 1657.8,598.2 1667.2,598.2 1667.2,596.3 
	1848.6,596.3 "/>
<polygon id="EL01" class="st0" points="2513.3,4506.3 2513.3,4506.8 2582.2,4506.8 2582.2,4446.2 2582.2,4436 2530.7,4436 
	2513.3,4436 2513.3,4451.5 "/>
<rect id="EL02" x="2585.8" y="4448" class="st0" width="43.6" height="58.7"/>
<polygon id="ST01_-_100" class="st0" points="2733.9,4590.1 2677.2,4590.1 2677.2,4642.4 2677.2,4689.7 2733.9,4689.7 "/>
<rect id="EL03" x="1063.2" y="4466.5" class="st0" width="54.9" height="40.3"/>
<g id="LWPOLYLINE_7_" class="st1">
	
		<rect x="964.5" y="1096.2" transform="matrix(0.7071 -0.7071 0.7071 0.7071 -488.939 1014.7059)" class="st2" width="31.8" height="2.8"/>
</g>
<g id="LWPOLYLINE_8_" class="st1">
	
		<rect x="978.7" y="1110.8" transform="matrix(0.7071 -0.7071 0.7071 0.7071 -495.4445 1028.3794)" class="st2" width="29.9" height="2.8"/>
</g>
<g id="LWPOLYLINE_10_" class="st1">
	<rect x="926.7" y="3183" class="st3" width="2.8" height="42.3"/>
</g>
<g id="LWPOLYLINE_11_" class="st1">
	<rect x="946.5" y="1667.7" class="st3" width="2.8" height="42.3"/>
</g>
<g id="LWPOLYLINE_12_" class="st1">
	<rect x="926.7" y="1667.7" class="st3" width="2.8" height="42.3"/>
</g>
<g id="LWPOLYLINE_13_" class="st1">
	
		<rect x="3158" y="1138.7" transform="matrix(0.7071 -0.7071 0.7071 0.7071 120.21 2577.9731)" class="st2" width="27.9" height="10.3"/>
</g>
<rect id="_x30_1.31.08" x="626.3" y="3815.9" class="st0" width="69.8" height="200.4"/>
<polygon id="_x30_1.31.09" class="st0" points="622.7,4016.3 622.7,3815.9 607.8,3815.9 607.8,3812.3 624.5,3812.3 696.2,3812.3 
	696.2,3786.7 564.7,3786.7 564.7,3815.9 479,3815.9 479,4020.7 479.9,4020.7 479.9,4016.3 572.4,4016.3 "/>
<polygon id="_x30_1.32.01" class="st0" points="479,3782 479,3812.3 561.1,3812.3 561.1,3784.8 561.1,3776.4 561.1,3753.6 
	519.3,3753.6 516.7,3753.6 483.9,3753.6 483.9,3782 "/>
<polygon id="_x30_1.34.03" class="st0" points="652.7,3500.3 652.7,3615.9 711.2,3615.9 711.2,3608.7 714.7,3608.7 714.7,3616.9 
	714.7,3621.6 745.2,3621.6 745.2,3608.8 762.3,3608.8 762.3,3552.2 745.2,3552.2 745.2,3533.6 745.2,3483.3 714.7,3483.3 
	714.7,3492.8 714.7,3499.3 714.7,3500.4 714.7,3552.1 700.4,3552.1 700.4,3500.3 "/>
<polygon id="_x30_1.34.01" class="st0" points="782.6,3621.6 844.1,3621.6 844.1,3455 782.6,3455 782.6,3481.6 782.6,3502.2 
	779.2,3502.2 779.2,3483.3 748.6,3483.3 748.6,3532.4 782.6,3532.4 782.6,3552.2 765.8,3552.2 765.8,3608.8 782.6,3608.8 "/>
<polygon id="_x30_1.34.04" class="st0" points="652.7,3455 652.7,3489.5 652.7,3491.8 711.2,3491.8 711.2,3481.6 711.2,3455 "/>
<polygon id="_x30_1.34.02" class="st0" points="779.2,3534.7 748.6,3534.7 748.6,3549.9 764,3549.9 779.2,3549.9 "/>
<polygon id="EL06" class="st0" points="617.7,3544.1 574.1,3544.1 574.1,3545.9 574.1,3600.3 617.7,3600.3 "/>
<rect id="EL05" x="574.1" y="3600.3" class="st0" width="43.6" height="61.3"/>
<polygon id="EL04" class="st0" points="632.8,3661.3 619.5,3661.3 619.5,3661.6 616.4,3661.6 574.1,3661.6 574.1,3661.9 
	574.1,3709.4 552.3,3709.4 552.3,3716.5 632.8,3716.5 632.8,3708.5 "/>
<polygon id="ST03_-_100" class="st0" points="564.7,3774.9 696.5,3774.9 696.5,3719.6 666.6,3719.6 634.4,3719.6 551.2,3719.6 
	519.3,3719.6 519.3,3750 564.7,3750 "/>
<polygon id="_x30_1.33.02" class="st0" points="649.3,3491.3 478.8,3491.3 478.8,3561.6 359.6,3561.6 359.6,3708.5 366.2,3708.5 
	366.2,3716.4 478.5,3716.4 478.5,3715 478.5,3660.2 570.9,3660.2 570.9,3600.3 570.9,3544.1 563.3,3544.1 563.3,3519.6 
	588.1,3519.6 620.8,3519.6 620.8,3540.3 620.8,3542.7 620.8,3600.3 620.8,3658.2 634.4,3658.2 677,3658.2 677,3656.5 677.3,3656.5 
	677.3,3625 649.3,3625 649.3,3616.9 649.3,3499.3 649.3,3492.8 "/>
<polygon id="_x30_1.39.02" class="st0" points="456,2249.3 427.3,2249.3 427.3,2264.4 460.9,2264.4 460.9,2249.3 "/>
<polygon id="_x30_1.39.01" class="st0" points="424.9,2247 456,2247 456,2247.3 461.2,2247.3 461.2,2180.6 456,2180.6 456,2180.9 
	356.6,2180.9 356.6,2184.6 354.4,2184.6 354.4,2263.3 386.7,2263.3 386.7,2266.7 354.4,2266.7 354.4,2296.4 369.7,2296.4 
	369.7,2319.4 426.4,2319.4 426.4,2294.6 429.8,2294.6 429.8,2320.4 429.8,2326.9 429.8,2337.4 460.9,2337.4 460.9,2322.3 
	460.9,2266.7 424.9,2266.7 "/>
<polygon id="_x30_1.38.05" class="st0" points="369.7,2368.8 426.4,2368.8 426.4,2339 426.4,2327.9 369.7,2327.9 "/>
<polygon id="_x30_1.37.01" class="st0" points="426.4,2524.5 369.3,2524.5 369.3,2555.5 365.6,2555.5 365.6,2568.2 365.6,2568.9 
	365.6,2574.6 365.6,2588.7 391.7,2588.7 391.7,2592.2 364,2592.2 362.9,2592.2 362.9,2712.3 455.9,2712.3 455.9,2608.7 
	424.9,2608.7 424.9,2588.7 460.9,2588.7 460.9,2570.6 460.9,2552.8 429.8,2552.8 429.8,2554.6 426.4,2554.6 426.4,2551 "/>
<polygon id="_x30_1.43.04" class="st0" points="359.6,1332.8 367.5,1332.8 478.5,1332.8 478.5,1331.9 649.3,1331.9 649.3,1274.7 
	649.3,1268 677.3,1268 677.3,1232.9 645.4,1232.9 621,1232.9 621,1242.7 621,1302.4 572.3,1302.4 572.3,1242.7 572.3,1184.5 
	520.7,1184.5 517.7,1184.5 517.7,1184 478.5,1184 478.5,1176.6 366.2,1176.6 366.2,1184.5 359.6,1184.5 "/>
<polygon id="_x30_1.43.03" class="st0" points="652.7,1334 652.7,1392.6 700.4,1392.6 700.4,1340.8 714.7,1340.8 714.7,1392.6 
	714.7,1393.6 714.7,1400.1 714.7,1409.6 745.2,1409.6 745.2,1359.4 745.2,1340.8 762.2,1340.8 762.2,1284.2 745.2,1284.2 
	745.2,1271.4 714.7,1271.4 714.7,1274.7 714.7,1284.2 711.2,1284.2 711.2,1275.7 679.8,1275.7 652.7,1275.7 "/>
<polygon id="_x30_1.43.01" class="st0" points="844.1,1271.4 782.6,1271.4 782.6,1284.2 765.6,1284.2 765.6,1340.8 782.6,1340.8 
	782.6,1360.5 748.6,1360.5 748.6,1409.6 779.2,1409.6 779.2,1390.7 782.6,1390.7 782.6,1411.3 782.6,1438.4 844.1,1438.4 "/>
<polygon id="_x30_1.42.02" class="st0" points="652.7,1401.1 652.7,1438.4 711.2,1438.4 711.2,1411.3 711.2,1401.1 "/>
<polygon id="_x30_1.43.05" class="st0" points="696.5,1181.8 696.5,1176.7 621,1176.7 621,1205.8 647.1,1205.8 647.1,1229.4 
	677.2,1229.4 679.8,1229.4 696.5,1229.4 "/>
<rect id="_x30_1.45.01" x="626.3" y="877" class="st0" width="69.8" height="200"/>
<polygon id="_x30_1.45.02" class="st0" points="622.7,1077 622.7,877 479.9,877 479.9,872.2 479,872.2 479,1077 564.7,1077 
	564.7,1106.3 696.2,1106.3 696.2,1080.6 624.5,1080.6 606.9,1080.6 606.9,1077 "/>
<polygon id="_x30_1.44.02" class="st0" points="479,1080.6 479,1111 483.9,1111 483.9,1139.3 520.7,1139.3 523.2,1139.3 
	561.1,1139.3 561.1,1116.5 561.1,1108.1 561.1,1080.6 "/>
<polygon id="ST05_-_100" class="st0" points="696.5,1173.3 696.5,1118.1 564.7,1118.1 564.7,1142.9 523.2,1142.9 523.2,1163.3 
	522.4,1163.3 522.4,1173.3 570.2,1173.3 617.9,1173.3 619.5,1173.3 "/>
<polygon id="EL08" class="st0" points="523.2,1182.5 575.4,1182.5 575.4,1242.7 617.9,1242.7 617.9,1231.2 617.9,1207.6 
	617.9,1176.4 570.2,1176.4 522.4,1176.4 522.4,1179 523.2,1179 523.2,1182 "/>
<rect id="EL07" x="575.4" y="1242.7" class="st0" width="42.5" height="55.2"/>
<polygon id="ST04_-_100" class="st0" points="575.1,2462 575.1,2329.9 513,2329.9 513,2335.5 513,2341.2 513,2370.4 513,2462 "/>
<polygon id="_x30_1.36.01" class="st0" points="851.2,2956 851.2,2892.9 831.6,2892.9 796.1,2892.9 761.3,2892.9 725.7,2892.9 
	709.2,2892.9 709.2,2841.9 674.9,2841.9 674.9,2892.9 538.8,2892.9 538.8,2841.9 504,2841.9 504,2844.7 496.1,2844.7 467.9,2844.7 
	467.9,2892.9 359.3,2892.9 359.3,2909.4 354.4,2909.4 354.4,2940.9 358.4,2940.9 500.8,2940.9 500.8,2948.8 714.3,2948.8 
	714.3,2940.9 721.3,2940.9 721.3,2929.1 829.7,2929.1 829.7,2940.9 836.4,2940.9 836.4,2956 "/>
<polygon id="_x30_1.38.02" class="st0" points="574.8,2465.8 512.3,2465.8 512.3,2568.6 547.2,2568.6 574.8,2568.6 "/>
<polygon id="_x30_1.33.01" class="st0" points="696.5,3661.6 679.8,3661.6 677,3661.6 635.9,3661.6 635.9,3706.9 696.5,3706.9 
	696.5,3701 696.5,3667 "/>
<polygon id="_x30_1.37.02" class="st0" points="460.9,2606.4 460.9,2591 427.3,2591 427.3,2606.4 457.4,2606.4 "/>
<polygon id="_x30_1.43.02" class="st0" points="748.6,1358.2 779.2,1358.2 779.2,1343.1 763.9,1343.1 748.6,1343.1 "/>
<polygon id="_x30_1.29.01A" class="st0" points="1459.8,4296.6 1151.7,4296.6 1151.7,4347.5 1411.1,4347.5 1411.1,4349.2 
	1430.9,4349.2 1430.9,4347.5 1433.9,4347.5 1459.8,4347.5 "/>
<polygon id="_x30_1.29.06" class="st0" points="1176.1,4422.3 1148.1,4422.3 1148.1,4360.8 1148.1,4360.8 1118.8,4360.8 
	1118.8,4360.8 1118.8,4387.7 1118.8,4462.9 1121.7,4462.9 1121.7,4510.4 1101.7,4510.4 1101.7,4514 1133.3,4514 1133.3,4460.8 
	1165.7,4460.8 1165.7,4464.4 1136.9,4464.4 1136.9,4512.1 1187,4512.1 1187,4489.4 1190.5,4489.4 1190.5,4512.1 1429.1,4512.1 
	1429.1,4489.4 1432.7,4489.4 1432.7,4512.1 1480.7,4512.1 1498.3,4512.1 1498.3,4463 1493.5,4463 1457.2,4463 1457.2,4459.4 
	1491.7,4459.4 1491.7,4360.8 1464.4,4360.8 1463.4,4360.8 1463.4,4422.3 1434.5,4422.3 1432.7,4422.3 1432.7,4441.2 1429.1,4441.2 
	1429.1,4423.3 1429.1,4422.3 1281.4,4422.3 1281.4,4441.2 1277.8,4441.2 1277.8,4422.3 1190.5,4422.3 1190.5,4441.2 1187,4441.2 
	1187,4422.3 1177.7,4422.3 1176.3,4422.3 "/>
<polygon id="_x30_1.27.02" class="st0" points="1495.2,4360.8 1495.2,4459.4 1500.1,4459.4 1530.4,4459.4 1530.4,4463 1501.9,4463 
	1501.9,4512.1 1558.8,4512.1 1558.8,4473.1 1562.4,4473.1 1562.4,4512.1 1887.8,4512.1 1887.8,4473.1 1891.4,4473.1 1891.4,4512.1 
	1957.9,4512.1 1957.9,4463 1955.9,4463 1917.8,4463 1917.8,4459.4 1954.1,4459.4 1954.1,4360.8 1925.8,4360.8 1925.8,4422.3 
	1897.8,4422.3 1819.1,4422.3 1819.1,4441.3 1815.5,4441.3 1815.5,4422.3 1648.5,4422.3 1648.5,4441.2 1644.9,4441.2 1644.9,4422.3 
	1588.8,4422.3 1588.8,4439.1 1558.8,4439.1 1558.8,4422.3 1528.9,4422.3 1523.8,4422.3 1523.8,4360.8 "/>
<polygon id="_x30_1.25.03" class="st0" points="1979.6,4822.7 2432.6,4822.7 2432.6,4693.5 2432.5,4693.5 2432.5,4690.6 
	2432.5,4671 2432.5,4669 2432.6,4669 2432.6,4668.1 2432.6,4656.9 2432.6,4655.2 2449.7,4638.1 2482.8,4605 2435.8,4558 
	1979.6,4558 1979.6,4573.6 1979.6,4645.2 1979.6,4716.6 1979.6,4773.1 "/>
<polygon id="_x30_1.22.07" class="st0" points="2988.8,4649.4 2988.8,4615.8 2918.1,4615.8 2888.8,4586.5 2737.5,4586.5 
	2737.5,4693.3 2675.6,4693.3 2675.6,4789.1 2675.6,4791.9 2675.6,4822.7 2749.7,4822.7 2749.7,4825.1 2910.2,4825.1 2910.2,4764 
	2910.2,4649.4 "/>
<g id="LWPOLYLINE_69_" class="st1">
	<rect x="1783.8" y="4771.5" class="st3" width="87.3" height="3.1"/>
</g>
<polygon id="_x30_1.28.01" class="st0" points="1546,4650.1 1546,4607.9 1546,4558 1482.7,4558 1482.7,4650.1 "/>
<polygon id="_x30_1.22.01A" class="st0" points="2981.2,4296.6 2680.5,4296.6 2680.5,4347.5 2710,4347.5 2840.8,4347.5 
	2840.8,4350.4 2860.6,4350.4 2860.6,4338.8 2864,4338.8 2864,4350.4 2981.2,4350.4 "/>
<polygon id="_x30_1.31.04" class="st0" points="791.3,4542.3 989.6,4542.3 989.6,4492.9 1023.5,4492.9 1023.5,4360.8 993.3,4360.8 
	993.3,4420.5 993.3,4462.9 989.7,4462.9 989.7,4422.3 662.5,4422.3 660.9,4422.3 660.9,4440 660.9,4446.5 660.9,4462.9 
	657.3,4462.9 657.3,4448.3 555.9,4448.3 555.9,4459.6 541,4459.6 541,4456 552.3,4456 552.3,4446.5 552.3,4331.4 535,4331.4 
	535,4327.8 554.1,4327.8 558.7,4327.8 558.7,4296.6 504.8,4296.6 504.8,4331.4 485.9,4331.4 485.9,4448.6 497.3,4448.6 
	497.3,4452.2 484.1,4452.2 479.3,4452.2 479.3,4474.4 483.1,4474.4 483.1,4545.8 479.3,4545.8 479.3,4546.1 715.6,4546.1 
	715.6,4542.3 "/>
<polygon id="_x30_1.27.04" class="st0" points="2988.8,4615.8 2988.8,4549.8 2988.8,4545.4 2962.1,4515.7 2954.4,4515.7 
	2847.1,4515.7 2739.6,4515.7 2631.2,4515.7 2627.3,4515.7 2601,4515.7 2582.2,4515.7 2582.2,4510.4 2517.1,4510.4 2517.1,4515.7 
	2509.7,4515.7 2509.7,4510.4 2509.7,4508.6 2509.7,4432.4 2582.2,4432.4 2582.2,4395.1 2582.2,4296.6 2420.4,4296.6 2420.4,4323.2 
	2437.2,4323.2 2437.2,4357.7 2437.2,4410.1 2437.2,4515.7 2329.6,4515.7 2260.9,4515.7 2018.5,4515.7 1959.7,4515.7 1889.6,4515.7 
	1560.5,4515.7 1500.1,4515.7 1480.7,4515.7 1480.7,4517.2 1133.3,4517.2 1132.3,4517.2 1099.7,4517.2 1099.7,4510.4 1077,4510.4 
	1077,4517.2 1058.1,4517.2 1058.1,4511.4 1058.1,4456 1059.6,4456 1059.6,4437.1 1058.1,4437.1 1058.1,4360.8 1028.6,4360.8 
	1028.6,4546.7 1028.6,4576.4 1134.2,4576.4 1134.2,4600 1162.5,4600 1162.5,4574.1 1162.5,4564.9 1162.5,4555.5 1165.9,4555.5 
	1165.9,4563.4 1195.7,4563.4 1195.7,4554.4 1245.6,4554.4 1245.6,4571.3 1275.5,4571.3 1275.5,4554.4 1309,4554.4 1316.1,4554.4 
	1316.1,4557.8 1310.7,4557.8 1310.7,4584.4 1330.9,4584.4 1351.3,4584.4 1351.3,4557.8 1344.4,4557.8 1344.4,4554.4 1353,4554.4 
	1384.2,4554.4 1424.2,4554.4 1424.2,4571.3 1452.5,4571.3 1452.5,4554.4 1481.6,4554.4 1547.6,4554.4 1610.6,4554.4 1610.6,4571.6 
	1652.1,4571.6 1652.1,4554.4 1814.3,4554.4 1863.5,4554.4 1863.5,4571.4 1905,4571.4 1905,4554.4 1978.1,4554.4 2437.4,4554.4 
	2486.6,4603.7 2495.9,4612.9 2530.1,4612.9 2570,4612.9 2570,4586.5 2612.1,4586.5 2628.3,4586.5 2656.6,4586.5 2672.9,4586.5 
	2675.5,4586.5 2735.7,4586.5 2738.5,4586.5 2888.8,4586.5 2918.1,4615.8 "/>
<rect id="_x30_1.30.03" x="992.3" y="4720.6" class="st0" width="67.3" height="102.2"/>
<polygon id="_x30_1.21.01" class="st0" points="3086.5,4456.4 3216.2,4456.4 3216.2,4404.7 3191.6,4404.7 3191.6,4402.7 
	3216.2,4402.7 3216.2,4355.2 3209.4,4358.9 3209.4,4358.1 3209.4,4313.7 3203.7,4313.7 3203.7,4311.7 3181.1,4311.7 3181.1,4313.7 
	3167.9,4313.7 3167.9,4298.6 3086.5,4298.6 3086.5,4367.6 3086.5,4402.7 3157.7,4402.7 3157.7,4404.7 3086.5,4404.7 "/>
<polygon id="_x30_1.25.02" class="st0" points="1986,4422.3 1986,4399.5 1986,4360.8 1957.7,4360.8 1957.7,4459.4 1959.7,4459.4 
	1990.3,4459.4 1990.3,4463 1961.5,4463 1961.5,4512.1 2016.7,4512.1 2016.7,4489.4 2020.3,4489.4 2020.3,4512.1 2259.2,4512.1 
	2259.2,4489.3 2262.8,4489.3 2262.8,4512.1 2327.9,4512.1 2327.9,4464.9 2289.2,4464.9 2289.2,4461.3 2327.9,4461.3 2327.9,4411.9 
	2327.9,4411.9 2327.9,4410.1 2327.9,4359.6 2297.7,4359.6 2297.7,4422.3 2269.7,4422.3 2268.2,4422.3 2268.1,4422.3 2262.8,4422.3 
	2262.8,4441.2 2259.2,4441.2 2259.2,4422.3 2186.5,4422.3 2186.5,4441.2 2182.9,4441.2 2182.9,4422.3 2020.3,4422.3 2020.3,4441.2 
	2016.7,4441.2 2016.7,4422.3 "/>
<polygon id="_x30_1.23.01A" class="st0" points="2677.1,4296.6 2585.8,4296.6 2585.8,4394 2634.1,4394 2634.1,4418.7 2660.1,4418.7 
	2660.1,4364.6 2677.1,4364.6 2677.1,4357.8 2677.1,4349.2 "/>
<polygon id="_x30_1.22.02" class="st0" points="2956.3,4456.4 3082.9,4456.4 3082.9,4403.7 3082.9,4369.5 3020.5,4369.5 
	2984.6,4369.5 2984.6,4422.3 2956.3,4422.3 "/>
<polygon id="_x30_1.25.01A" class="st0" points="2294.1,4296.6 1989.8,4296.6 1989.8,4347.5 1991.4,4347.5 1995,4347.5 1995,4349.2 
	2014.9,4349.2 2014.9,4347.5 2294.1,4347.5 "/>
<polygon id="_x30_1.24.03" class="st0" points="2331.5,4359.6 2331.5,4408.3 2331.5,4408.3 2433.6,4408.3 2433.6,4359.6 
	2418.6,4359.6 2381.4,4359.6 "/>
<polygon id="_x30_1.21.02" class="st0" points="3082.9,4365.9 3082.9,4297.6 3082.9,4296 3021.7,4296 3021.7,4310 3022.3,4310 
	3022.3,4328.9 3021.7,4328.9 3021.7,4365.9 "/>
<polygon id="_x30_1.21.03" class="st0" points="2989.4,4546.1 3216.2,4546.1 3216.2,4545.8 3212.4,4545.8 3212.4,4470.6 
	3216.2,4470.6 3216.2,4460 3084.7,4460 2956.3,4460 2956.3,4512.1 2958.9,4512.1 2988.8,4545.4 "/>
<polygon id="_x30_1.23.04" class="st0" points="2532,4693.5 2532,4718.2 2578.5,4718.2 2578.5,4704.7 2578.5,4684.2 2581.9,4684.2 
	2581.9,4702.9 2610.2,4702.9 2610.2,4636.1 2566.8,4636.1 2566.8,4654 2564.5,4654 2564.5,4635.1 2564.5,4624.3 2532,4624.3 "/>
<polygon id="_x30_1.22.03" class="st0" points="2848.3,4422.3 2848.3,4512.1 2952.7,4512.1 2952.7,4458.3 2952.7,4422.3 "/>
<rect id="_x30_1.24.02" x="2331.5" y="4314.7" class="st0" width="48.3" height="41.3"/>
<polygon id="_x30_1.29.02" class="st0" points="1114.3,4357.2 1114.3,4316.6 1063,4316.6 1063,4357.2 1097.6,4357.2 "/>
<polygon id="_x30_1.31.02A" class="st0" points="989.7,4349.6 989.7,4296.6 660.9,4296.6 660.9,4328.6 660.9,4347.5 662.5,4347.5 
	864.1,4347.5 864.1,4349.6 883.9,4349.6 883.9,4341.2 886.2,4341.2 886.2,4349.6 "/>
<polygon id="_x30_1.29.07" class="st0" points="1125.1,4822.7 1275.5,4822.7 1275.5,4809.5 1275.5,4761.3 1275.5,4667.9 
	1275.5,4573.6 1245.6,4573.6 1245.6,4611.7 1245.6,4624.1 1242.2,4624.1 1242.2,4612.9 1199.3,4612.9 1198.2,4612.9 1196.5,4612.9 
	1165.9,4612.9 1165.9,4770.2 1131.1,4770.2 1125.1,4770.2 "/>
<polygon id="_x30_1.27.01A" class="st0" points="1922.2,4296.6 1527.4,4296.6 1527.4,4347.5 1528.9,4347.5 1735.2,4347.5 
	1735.2,4349.2 1755.1,4349.2 1755.1,4347.5 1823.8,4347.5 1895.9,4347.5 1922.2,4347.5 "/>
<polygon id="_x30_1.23.05" class="st0" points="2532,4730.4 2532,4814.9 2563.4,4814.9 2563.4,4800.3 2566.8,4800.3 2566.8,4814.9 
	2610.2,4814.9 2610.2,4743.8 2581.9,4743.8 2581.9,4762.1 2578.5,4762.1 2578.5,4742.1 2578.5,4730.4 "/>
<rect id="_x30_1.22.04" x="2740.7" y="4422.3" class="st0" width="105.3" height="89.7"/>
<polygon id="_x30_1.23.02" class="st0" points="2633,4446.2 2633,4508.6 2633,4512.1 2738.4,4512.1 2738.4,4422.3 2709.5,4422.3 
	2678.6,4422.3 2661.2,4422.3 2635.4,4422.3 2635.4,4437.9 2633,4437.9 2633,4444.4 2633,4444.4 "/>
<polygon id="_x30_1.23.03" class="st0" points="2613.7,4822.7 2672.2,4822.7 2672.2,4820.2 2675.6,4817.4 2675.6,4791.9 
	2672.2,4791.9 2672.2,4789.1 2672.2,4693.3 2672.2,4693.3 2672.2,4590.1 2656.6,4590.1 2628.3,4590.1 2613.7,4590.1 2613.7,4628.7 
	2613.7,4635.1 2613.7,4704.1 2619.8,4704.1 2619.8,4706.4 2611.9,4706.4 2581.9,4706.4 2581.9,4719.8 2581.9,4728.9 2581.9,4740.3 
	2611.9,4740.3 2619.8,4740.3 2619.8,4742.6 2613.7,4742.6 2613.7,4815.9 "/>
<polygon id="_x30_1.24.04" class="st0" points="2331.5,4512.1 2433.6,4512.1 2433.6,4411.9 2331.5,4411.9 2331.5,4463.1 "/>
<polygon id="_x30_1.31.06" class="st0" points="916.4,4593.4 987.2,4593.4 987.2,4576.4 1025.2,4576.4 1025.2,4576.3 1025.2,4547.4 
	791.5,4547.4 791.5,4686.4 809.9,4686.4 809.9,4689.8 794,4689.8 794,4761.8 845.7,4761.8 845.7,4745.8 849.2,4745.8 849.2,4761.8 
	881.1,4761.8 913,4761.8 913,4706.8 913,4650.7 913,4594.5 913,4577.4 916.4,4577.4 "/>
<polygon id="_x30_1.31.07" class="st0" points="879.4,4765.3 847.5,4765.3 794,4765.3 794,4784.6 791.5,4784.6 791.5,4822.7 
	792,4822.7 879.4,4822.7 "/>
<rect id="_x30_1.30.04" x="916.4" y="4595.7" class="st0" width="70.8" height="53.9"/>
<rect id="_x30_1.30.06" x="916.4" y="4708" class="st0" width="70.8" height="53.9"/>
<rect id="_x30_1.30.05" x="916.4" y="4651.8" class="st0" width="70.8" height="53.9"/>
<polygon id="_x30_1.30.07" class="st0" points="987,4822.7 987,4765.3 914.7,4765.3 882.8,4765.3 882.8,4822.7 "/>
<polygon id="_x30_1.28.03" class="st0" points="1279,4666.2 1333.1,4666.2 1333.1,4651.8 1333.1,4650.1 1333.1,4620.5 
	1330.9,4620.5 1304.3,4620.5 1304.3,4617.1 1329.2,4617.1 1329.2,4587.8 1307.3,4587.8 1307.3,4557.8 1279,4557.8 1279,4572.5 "/>
<polygon id="_x30_1.28.02" class="st0" points="1354.8,4587.8 1332.6,4587.8 1332.6,4617.1 1334.7,4617.1 1344.8,4617.1 
	1354.8,4617.1 1354.8,4620.5 1346.3,4620.5 1346.3,4650.1 1414.3,4650.1 1414.3,4614.9 1383.1,4614.9 1383.1,4557.8 1354.8,4557.8 
	"/>
<polygon id="_x30_1.28.04" class="st0" points="1546,4760.2 1546,4696 1529.9,4696 1529.9,4692.6 1546,4692.6 1546,4653.5 
	1481.6,4653.5 1480.5,4653.5 1455.9,4653.5 1455.9,4668.6 1452.5,4668.6 1452.5,4652.4 1452.5,4573.6 1424.2,4573.6 1424.2,4595.9 
	1424.2,4596.9 1424.2,4613.7 1424.2,4651.8 1424.2,4668.6 1420.8,4668.6 1420.8,4653.5 1415.3,4653.5 1344.8,4653.5 1336.5,4653.5 
	1336.5,4669.6 1279,4669.6 1279,4760.2 1344.6,4760.2 1411.2,4760.2 1478.7,4760.2 "/>
<polygon id="_x30_1.22.06" class="st0" points="2988.8,4822.7 2988.8,4765.8 2913.8,4765.8 2913.8,4822.6 2913.8,4822.7 "/>
<polygon id="_x30_1.28.05" class="st0" points="1546,4808.6 1546,4773.2 1546,4762.5 1479.8,4762.5 1479.8,4822.7 1517.2,4822.7 
	1517.2,4808.6 "/>
<polygon id="_x30_1.28.08" class="st0" points="1307.7,4822.7 1343.5,4822.7 1343.5,4762.5 1279,4762.5 1279,4808.6 1307.7,4808.6 
	"/>
<polygon id="_x30_1.24.01" class="st0" points="2416.8,4296.6 2383.1,4296.6 2383.1,4304.2 2383.1,4311.6 2383.1,4311.6 
	2383.1,4313.2 2383.1,4355.9 2416.8,4355.9 2416.8,4325 "/>
<polygon id="_x30_1.29.05" class="st0" points="1063.2,4462.9 1115.2,4462.9 1115.2,4389.5 1097.6,4389.5 1063.2,4389.5 
	1063.2,4437.1 1063.2,4456 "/>
<rect id="_x30_1.28.06" x="1412.3" y="4762.5" class="st0" width="65.2" height="60.2"/>
<rect id="_x30_1.28.07" x="1345.8" y="4762.5" class="st0" width="64.2" height="60.2"/>
<polygon id="_x30_1.29.08" class="st0" points="1198,4574.1 1198,4610.6 1243.3,4610.6 1243.3,4572.5 1243.3,4557.6 1198,4557.6 
	1198,4564.9 1198,4572.5 "/>
<polygon id="_x30_1.26.01" class="st0" points="1989.6,4401.3 1989.6,4418.7 2016.7,4418.7 2016.7,4401.3 1991.4,4401.3 "/>
<rect id="_x30_1.31.05" x="485.9" y="4296.6" class="st0" width="15.3" height="31.2"/>
<polygon id="_x30_1.29.03" class="st0" points="1099.4,4386 1115.2,4386 1115.2,4360.8 1114.3,4360.8 1099.4,4360.8 "/>
<rect id="_x30_1.27.03" x="1562.4" y="4422.3" class="st0" width="22.8" height="13.2"/>
<rect id="_x30_1.30.01" x="993.1" y="4496.6" class="st0" width="30.4" height="45.8"/>
<polygon id="_x30_1.27.06" class="st0" points="1549.4,4558 1549.4,4606.2 1607,4606.2 1607,4604 1608.2,4604 1608.2,4585.9 
	1607,4581.3 1607,4575.2 1607,4573.4 1607,4558 "/>
<polygon id="_x30_1.26.02" class="st0" points="1816.1,4609.7 1859.9,4609.7 1859.9,4575.1 1859.9,4573.2 1859.9,4558 1816.1,4558 
	1816.1,4608.1 "/>
<polygon id="_x30_1.26.03" class="st0" points="1976.2,4643.5 1976.2,4575.2 1908.5,4575.2 1908.5,4628 1908.5,4643.5 "/>
<polygon id="_x30_1.27.07" class="st0" points="1549.4,4809.5 1549.4,4822.7 1656.2,4822.7 1656.2,4774.9 1549.4,4774.9 "/>
<polygon id="_x30_1.24.05" class="st0" points="2528.6,4691.8 2528.6,4623.3 2528.6,4622.3 2528.6,4616.5 2494.4,4616.5 
	2485.3,4607.4 2452.1,4640.5 2451.4,4639.8 2436.5,4654.7 2444.3,4662.5 2445.8,4664.1 2445.8,4669.1 2441.6,4669.1 2432.5,4669.1 
	2432.5,4691.8 "/>
<polygon id="_x30_1.24.06" class="st0" points="2436.1,4822.7 2528.6,4822.7 2528.6,4815.9 2528.6,4728.9 2528.6,4719.8 
	2528.6,4695.2 2436.1,4695.2 "/>
<rect id="_x30_1.29.04" x="1063.2" y="4360.8" class="st0" width="32.6" height="25.2"/>
<rect id="_x30_1.22.05" x="2913.8" y="4653" class="st0" width="75" height="109.3"/>
<polygon id="_x30_1.31.03" class="st0" points="562.3,4331.4 562.3,4438.2 657.3,4438.2 657.3,4420.5 657.3,4392.4 608,4392.4 
	608,4390.1 657.3,4390.1 657.3,4349.2 657.3,4330.4 621.6,4330.4 562.3,4330.4 "/>
<polygon id="_x30_1.04.02" class="st0" points="2719.5,456.3 2718.4,456.3 2718.4,515.7 2782.7,515.7 2782.8,515.7 2782.8,456.3 "/>
<polygon id="_x30_1.48.02" class="st0" points="1340.5,513.1 1340.5,529.3 1363.4,529.3 1363.4,513.1 1344.4,513.1 "/>
<polygon id="_x30_1.03.01" class="st0" points="2627.8,532.9 2627.8,576.3 2677.2,576.3 2677.2,532.9 2658.3,532.9 "/>
<polygon id="_x30_1.02.01A" class="st0" points="2590.4,596.3 2590.4,545 2588.8,545 2583.3,545 2583.3,543.3 2563.5,543.3 
	2563.5,545 2323.9,545 2323.9,596.3 "/>
<polygon id="_x30_1.03.02" class="st0" points="2627.8,515.1 2627.8,529.3 2656.5,529.3 2656.5,513.3 2660.1,513.3 2660.1,529.3 
	2677.2,529.3 2677.2,513.3 2680.8,513.3 2680.8,531.1 2680.8,573.7 2714.8,573.7 2714.8,517.1 2714.8,454.5 2714.8,452.6 
	2714.8,451.6 2714.8,408.7 2714.8,346.8 2682.6,346.8 2682.6,350.6 2627.8,350.6 2627.8,355.4 2627.8,397.1 "/>
<polygon id="_x30_1.02.02" class="st0" points="2195.5,382 2195.5,429.8 2195.5,437.8 2225.9,437.8 2225.9,414.2 2229.5,414.2 
	2229.5,439.6 2229.5,460.2 2590.4,460.2 2590.4,427.2 2594,427.2 2594,462.1 2594,472.4 2594,498.7 2594,500.4 2594,513.3 
	2624.2,513.3 2624.2,398.9 2590.4,398.9 2590.4,395.3 2624.2,395.3 2624.2,357.2 2261.4,357.2 2261.4,385.9 2257.8,385.9 
	2257.8,355.4 2257.8,346.8 2208.6,346.8 2208.6,378.4 2229.5,378.4 2229.5,385.9 2225.9,385.9 2225.9,382 2206.9,382 "/>
<polygon id="_x30_1.45.03" class="st0" points="479.3,521.8 479.3,600.1 479.6,600.1 479.6,596.3 562.1,596.3 562.1,549 572.2,549 
	572.2,500 572.2,493.5 526.9,493.5 526.9,521.8 485.8,521.8 "/>
<polygon id="_x30_1.45.06" class="st0" points="608.5,355.4 608.5,346.8 479.1,346.8 479.1,347.2 483.1,347.2 483.1,418.6 
	479.3,418.6 479.3,470.6 485.8,470.6 525.7,470.6 575.8,470.6 575.8,492.4 575.8,498.2 608.5,498.2 608.5,397.1 "/>
<polygon id="_x30_1.45.08" class="st0" points="722.3,535 722.3,474.2 664.5,474.2 664.5,501.8 644,501.8 643.6,501.8 643.6,535 
	693.1,535 "/>
<polygon id="_x30_1.04.01" class="st0" points="2718.4,596.3 2779,596.3 2782.8,596.3 2782.8,594.5 2782.8,518.5 2718.4,518.5 
	2718.4,575.5 "/>
<polygon id="_x30_1.47.01A" class="st0" points="1131,545 1131,596.3 1303.1,596.3 1303.1,545 1302.1,545 1157.4,545 1157.4,543.3 
	1137.6,543.3 1137.6,545 1132.5,545 "/>
<polygon id="_x30_1.49.02" class="st0" points="1848.6,429.8 1848.6,382 1837.3,382 1818.2,382 1818.2,387.4 1814.6,387.4 
	1814.6,378.4 1835.5,378.4 1835.5,346.8 1786.1,346.8 1786.1,355.4 1786.1,387.4 1782.5,387.4 1782.5,357.2 1367,357.2 1367,358.5 
	1365.2,358.5 1365.2,371.4 1367,371.4 1367,509.5 1391.7,509.5 1423.7,509.5 1423.7,474.2 1395.4,474.2 1395.4,462.1 1395.4,427.2 
	1399,427.2 1399,460.2 1814.8,460.2 1814.8,439.6 1814.8,414.2 1818.4,414.2 1818.4,437.8 1848.6,437.8 "/>
<polygon id="_x30_1.48.01" class="st0" points="1389.9,586.9 1389.9,532.9 1365.2,532.9 1340.5,532.9 1340.5,586.9 1342.7,586.9 
	1387.8,586.9 "/>
<polygon id="_x30_1.04.05" class="st0" points="2788.4,451.6 2788.4,452.7 2788.4,590.7 2826,590.7 2826,414.3 2788.4,414.3 "/>
<polygon id="_x30_1.04.03" class="st0" points="2718.4,409.9 2718.4,452.7 2786.1,452.7 2786.1,414.3 2786.1,409.9 2785.8,409.9 
	2719.4,409.9 "/>
<polygon id="_x30_1.46.02" class="st0" points="612.1,357.2 612.1,395.3 645.9,395.3 645.9,398.9 612.1,398.9 612.1,498.2 
	641.8,498.2 642.3,498.2 642.3,472.4 642.3,462.1 642.3,426.3 645.9,426.3 645.9,460.2 1063.4,460.2 1063.4,427.2 1067,427.2 
	1067,462.1 1067,472.4 1067,513.3 1095.3,513.3 1095.3,382 1086,382 1067,382 1067,389.8 1063.4,389.8 1063.4,378.4 1084.2,378.4 
	1084.2,346.8 1035.1,346.8 1035.1,355.4 1035.1,386.5 1031.5,386.5 1031.5,357.2 "/>
<rect id="_x30_1.04.04" x="2720.4" y="348.8" class="st0" width="68" height="58.7"/>
<polygon id="_x30_1.46.01A" class="st0" points="1063.4,596.3 1063.4,545 1062.3,545 1039.2,545 1039.2,543.3 1019.4,543.3 
	1019.4,545 805.2,545 694.9,545 694.9,585.7 694.9,594.3 715.9,594.3 715.9,596.3 "/>
<polygon id="_x30_1.45.07" class="st0" points="643.6,583.9 691.3,583.9 691.3,543.5 691.3,538.6 643.6,538.6 "/>
<polygon id="_x30_1.03.03" class="st0" points="2575.8,496.9 2588.8,496.9 2590.4,496.9 2590.4,474.2 2575.8,474.2 "/>
<rect id="_x30_1.45.09" x="645.9" y="474.2" class="st0" width="15.1" height="24"/>
<rect id="_x30_1.48.03" x="1367" y="513.1" class="st0" width="22.9" height="16.2"/>
<polygon id="_x30_1.45.05" class="st0" points="524.6,474.2 486.8,474.2 486.8,519.6 524.6,519.6 524.6,492.4 "/>
<rect id="_x30_1.45.04" x="526.9" y="474.2" class="st0" width="45.3" height="17"/>
<polygon id="_x30_1.18.01A" class="st0" points="3541.3,3436.8 3490,3436.8 3490,3650 3541.3,3650 3541.3,3648.7 3541.3,3631.5 
	3543,3631.5 3543,3611.7 3541.3,3611.7 "/>
<polygon id="_x30_1.19.02" class="st0" points="3546.8,3968.6 3509,3968.6 3509,4018.1 3546.8,4018.1 3546.8,3998.3 "/>
<polygon id="_x30_1.15.01A" class="st0" points="3544.8,2603.9 3490,2603.9 3490,2945.4 3490,2982.2 3490,2996.9 3541.3,2996.9 
	3541.3,2731.2 3543,2731.2 3543,2711.4 3541.3,2711.4 3541.3,2708.2 3538.4,2708.2 3538.4,2704.7 3543,2704.7 3544.8,2704.7 "/>
<rect id="_x30_1.07.03" x="3510" y="1060" class="st0" width="39.7" height="45.5"/>
<polygon id="_x30_1.12.01A" class="st0" points="3612.1,2289 3612.1,2188.5 3552.6,2188.5 3551.9,2188.5 3541.3,2188.5 
	3541.3,2181.6 3541.3,2161.8 3541.3,1896.1 3490,1896.1 3490,2086.8 3490,2165.2 3490,2289 3582.6,2289 3584.3,2289 "/>
<polygon id="_x30_1.09.02" class="st0" points="3729.1,1109.1 3691,1109.1 3691,1133.5 3687.4,1133.5 3687.4,1109.1 3588.1,1109.1 
	3588.1,1139.3 3613.9,1139.3 3624.3,1139.3 3656.6,1139.3 3656.6,1142.9 3626,1142.9 3626,1524.6 3646.7,1524.6 3672.9,1524.6 
	3672.9,1528.2 3648.5,1528.2 3648.5,1558.5 3655.3,1558.5 3704.3,1558.5 3704.3,1549.2 3704.3,1528.2 3698.9,1528.2 3698.9,1524.6 
	3707.9,1524.6 3707.9,1547.4 3739.5,1547.4 3739.5,1497.2 3729.1,1497.2 "/>
<polygon id="_x30_1.09.01A" class="st0" points="3549.8,1231.9 3549.8,1142.9 3490,1142.9 3490,1444.9 3541.3,1444.9 3541.3,1389.3 
	3541.3,1260.8 3545.5,1260.8 3545.5,1241 3541.3,1241 3541.3,1235.3 3533.7,1235.3 3533.7,1231.9 3543,1231.9 "/>
<polygon id="_x30_1.07.08" class="st0" points="3555.6,985.5 3555.6,1006.8 3584.9,1006.8 3584.9,999.5 3584.9,978.9 3588.3,978.9 
	3588.3,998.3 3729,998.3 3729,985.5 3738,985.5 3738,940.2 3661.7,940.2 3615.8,940.2 3615.8,937.3 3588.3,937.3 3588.3,956.2 
	3541,956.2 3534.2,956.2 3534.2,951 3507.1,951 3507.1,985.5 3526,985.5 3526,986.6 3548.6,986.6 3548.6,985.5 "/>
<polygon id="_x30_1.07.09" class="st0" points="3733.9,1097.6 3733.9,1017.6 3729,1017.6 3729,1000.6 3588.3,1000.6 3588.3,1009.1 
	3555.6,1009.1 3555.6,1055 3555.6,1056.4 3555.6,1057.9 3555.6,1058.3 3555.6,1103.1 3729,1103.1 3729,1097.6 "/>
<polygon id="_x30_1.07.05" class="st0" points="3586,907.1 3565.5,907.1 3542,907.1 3542,953.9 3586,953.9 3586,937.3 "/>
<polygon id="_x30_1.07.01" class="st0" points="3534.2,948.7 3534.2,907.2 3534.2,906 3534.2,876.9 3492,876.9 3492,948.7 
	3506.1,948.7 "/>
<polygon id="_x30_1.07.02" class="st0" points="3553.3,1054 3553.3,1008 3553.3,987.8 3548.6,987.8 3548.6,986.6 3526,986.6 
	3526,987.8 3506.1,987.8 3506.1,990.1 3492.4,990.1 3492.4,1054 3551.4,1054 3551.8,1054 "/>
<polygon id="_x30_1.07.10" class="st0" points="3697.8,875.6 3697.8,873.9 3677,873.9 3677,875.6 3673.3,875.6 3662.8,875.6 
	3662.8,937.9 3738,937.9 3738,875.6 3735.4,875.6 "/>
<polygon id="_x30_1.07.07" class="st0" points="3615.8,937.3 3615.8,936.8 3660.5,936.8 3660.5,874.8 3660.5,871.6 3588.3,871.6 
	3588.3,906 3588.3,937.3 "/>
<polygon id="_x30_1.07.06" class="st0" points="3586,870.2 3566.6,870.2 3566.6,875.9 3566.6,904.9 3586,904.9 3586,870.9 "/>
<polygon id="_x30_1.07.04" class="st0" points="3541,904.9 3564.3,904.9 3564.3,876.9 3551.4,876.9 3536.5,876.9 3536.5,904.9 "/>
<polygon id="_x30_1.19.03" class="st0" points="3550.4,4000.1 3550.4,4017 3550.4,4019.9 3550.4,4021.8 3577,4021.8 3577,4000.1 "/>
<polygon id="_x30_1.18.02" class="st0" points="3553.2,3774.7 3612.1,3774.7 3612.1,3690.5 3586.3,3690.5 3573.2,3690.5 
	3573.2,3691.2 3554.4,3691.2 3553.2,3691.2 3553.2,3743.1 "/>
<polygon id="_x30_1.08.01" class="st0" points="3553.2,1142.9 3553.2,1231.9 3612,1231.9 3612.1,1231.9 3612.1,1161.6 
	3584.5,1161.6 3584.5,1142.9 "/>
<polygon id="_x30_1.08.02" class="st0" points="3612.1,1158 3612.1,1142.9 3588.1,1142.9 3588.1,1158 3612,1158 "/>
<rect id="_x30_1.14.01" x="3671.3" y="2570.1" class="st0" width="16.2" height="30.2"/>
<rect id="_x30_1.13.04" x="3571.5" y="2386.1" class="st0" width="60.4" height="62.5"/>
<rect id="_x30_1.13.01" x="3510" y="2326.4" class="st0" width="39.7" height="45.5"/>
<rect id="_x30_1.13.05" x="3571.5" y="2452.1" class="st0" width="60.4" height="79.4"/>
<rect id="_x30_1.12.03" x="3671.3" y="2292.6" class="st0" width="15.1" height="30.2"/>
<polygon id="_x30_1.13.03" class="st0" points="3573.2,2325.8 3573.2,2326.4 3553.2,2326.4 3553.2,2371.9 3553.2,2371.9 
	3571.5,2371.9 3571.5,2382.5 3631.9,2382.5 3631.9,2326.4 3582.6,2326.4 3582.6,2325.8 "/>
<polygon id="_x30_1.13.06" class="st0" points="3739.5,2393.1 3739.5,2326.4 3730.9,2326.4 3688.2,2326.4 3669.5,2326.4 
	3635.5,2326.4 3635.5,2384.3 3635.5,2450.3 3635.5,2535.2 3571.5,2535.2 3571.5,2566.5 3669.5,2566.5 3689.3,2566.5 3730.9,2566.5 
	3739.5,2566.5 3739.5,2502.2 3735.7,2502.2 3735.7,2393.1 "/>
<polygon id="_x30_1.13.02" class="st0" points="3490,2566.5 3548.6,2566.5 3567.9,2566.5 3567.9,2533.4 3567.9,2450.3 
	3567.9,2384.3 3567.9,2375.5 3551.4,2375.5 3549.6,2375.5 3549.6,2375.5 3508.2,2375.5 3497.6,2375.5 3490,2375.5 "/>
<polygon id="_x30_1.38.04" class="st0" points="360.2,2521 367.8,2521 429.8,2521 429.8,2549.3 460.9,2549.3 460.9,2521 462.7,2521 
	500.8,2521 501.2,2521 501.2,2371.9 460.9,2371.9 460.9,2340.8 429.8,2340.8 429.8,2372.2 368.7,2372.2 360.2,2372.2 "/>
<polygon id="_x30_1.28.09" class="st0" points="1420.8,4557.8 1385.4,4557.8 1385.4,4612.6 1415.1,4612.6 1415.1,4594.9 
	1420.8,4594.9 1420.8,4572.5 "/>
<rect id="_x30_1.34.05" x="589" y="3521.9" class="st0" width="29.5" height="17.7"/>
<rect id="_x30_1.43.06" x="621" y="1209.3" class="st0" width="22.7" height="20.2"/>
<polygon id="_x30_1.33.03" class="st0" points="570.9,3707.4 570.9,3663.6 481.9,3663.6 481.9,3714 550.2,3714 550.2,3707.4 "/>
<polygon id="_x30_1.17.01" class="st0" points="3612.1,3433.3 3612.1,3364.5 3614.9,3364.5 3614.9,3334.4 3541.1,3334.4 
	3541.1,3336.4 3501.5,3336.4 3501.5,3334.4 3490,3334.4 3490,3345.9 3491.9,3345.9 3491.9,3408.2 3490,3408.2 3490,3433.3 
	3543,3433.3 "/>
<polygon id="_x30_1.01.02" class="st0" points="2195.5,475.2 2195.5,479.4 2195.5,596.3 2320.5,596.3 2320.5,543.3 2320.5,474.2 
	2227.8,474.2 2227.8,475.2 "/>
<polygon id="_x30_1.09.03" class="st0" points="3490,1558.5 3611.1,1558.5 3611.1,1526.4 3612.1,1526.4 3612.1,1448.3 3543,1448.3 
	3490,1448.3 "/>
<polygon id="_x30_1.31.02B" class="st0" points="989.7,4359 989.7,4349.6 886.2,4349.6 886.2,4357.2 883.9,4357.2 883.9,4349.6 
	864.1,4349.6 864.1,4350.9 664.1,4350.9 664.1,4418.7 989.7,4418.7 "/>
<polygon id="_x30_1.29.01B" class="st0" points="1151.7,4350.9 1151.7,4356.4 1152.8,4356.4 1177.7,4356.4 1177.7,4418.7 
	1188.7,4418.7 1279.6,4418.7 1430.9,4418.7 1432.9,4418.7 1432.9,4358 1432.9,4356.4 1432.9,4350.9 1430.9,4350.9 1430.9,4349.2 
	1411.1,4349.2 1411.1,4350.9 "/>
<polygon id="_x30_1.27.01B" class="st0" points="1922.2,4356.4 1922.2,4350.9 1895.9,4350.9 1823.8,4350.9 1755.1,4350.9 
	1755.1,4349.2 1735.2,4349.2 1735.2,4350.9 1530.5,4350.9 1530.5,4418.7 1560.5,4418.7 1587,4418.7 1646.6,4418.7 1817.3,4418.7 
	1896.3,4418.7 1896.3,4356.4 "/>
<polygon id="_x30_1.25.01B" class="st0" points="2294.1,4356.4 2294.1,4350.9 2014.9,4350.9 2014.9,4349.2 1995,4349.2 1995,4350.9 
	1993,4350.9 1993,4397.8 2020.3,4397.8 2020.3,4418.7 2184.7,4418.7 2260.9,4418.7 2268.2,4418.7 2268.2,4356.4 "/>
<polygon id="_x30_1.22.01B" class="st0" points="2981.2,4418.7 2981.2,4369.5 2981.2,4367.6 2981.2,4350.4 2864,4350.4 2864,4354.8 
	2860.6,4354.8 2860.6,4350.4 2840.8,4350.4 2840.8,4350.9 2711,4350.9 2711,4356.2 2711,4357.8 2711,4418.7 2739.6,4418.7 
	2847.1,4418.7 2954.4,4418.7 "/>
<polygon id="_x30_1.19.01A" class="st0" points="3490,3931.2 3578.8,3931.2 3612.1,3931.2 3612.1,3778.1 3551.5,3778.1 3550,3778.1 
	3549.7,3778.1 3538.7,3778.1 3538.7,3744.3 3530,3744.3 3530,3742 3540.2,3742 3549.8,3742 3549.8,3691.2 3549.7,3691.2 
	3492.2,3691.2 3492.2,3742 3510.1,3742 3510.1,3744.3 3491.2,3744.3 3490,3744.3 "/>
<polygon id="_x30_1.18.01B" class="st0" points="3609,3492.6 3612.1,3492.6 3612.1,3436.8 3544.7,3436.8 3544.7,3611.7 3543,3611.7 
	3543,3631.5 3544.7,3631.5 3544.7,3647.7 3598.5,3647.7 3598.5,3631.5 3612.1,3631.5 3612.1,3538 3609,3538 "/>
<polygon id="_x30_1.15.01B" class="st0" points="3548.6,2603.9 3544.8,2603.9 3544.8,2704.7 3547.8,2704.7 3547.8,2708.2 
	3544.8,2708.2 3544.7,2708.2 3544.7,2711.4 3543,2711.4 3543,2731.2 3544.7,2731.2 3544.7,2996.9 3614.9,2996.9 3614.9,2969.4 
	3614.9,2968.5 3612.1,2966.6 3612.1,2603.9 "/>
<polygon id="_x30_1.12.01B" class="st0" points="3612.1,2188.5 3612.1,1926.4 3612.1,1896.1 3544.7,1896.1 3544.7,2161.8 
	3544.7,2165.8 3543,2165.8 3551.9,2186.8 3552.6,2188.5 "/>
<polygon id="_x30_1.09.01B" class="st0" points="3544.7,1235.3 3544.7,1241 3545.5,1241 3545.5,1260.8 3544.7,1260.8 3544.7,1388.2 
	3562.5,1388.2 3562.5,1390.2 3544.7,1390.2 3544.7,1444.9 3612.1,1444.9 3612.1,1390.2 3595.1,1390.2 3595.1,1388.2 3612.1,1388.2 
	3612.1,1235.3 3551.5,1235.3 "/>
<polygon id="_x30_1.02.01B" class="st0" points="2323.9,474.2 2323.9,541.6 2563.5,541.6 2563.5,543.3 2583.3,543.3 2583.3,541.6 
	2587.2,541.6 2587.2,500.5 2572.2,500.5 2572.2,474.2 2397.3,474.2 2397.3,499.7 2395.1,499.7 2395.1,474.2 "/>
<polygon id="_x30_1.49.01B" class="st0" points="1427.3,474.2 1427.3,511.3 1427.3,528.6 1472.8,528.6 1472.8,513.7 1555.8,513.7 
	1557.9,513.7 1560.2,513.7 1560.2,523 1768.1,523 1768.1,474.2 "/>
<polygon id="_x30_1.46.01B" class="st0" points="725.9,474.2 725.9,538.6 694.9,538.6 694.9,541.9 805.2,541.9 805.2,541.6 
	1019.4,541.6 1019.4,543.3 1039.2,543.3 1039.2,541.6 1061.4,541.6 1061.4,474.2 "/>
<rect id="_x30_1.19.04" x="3550.4" y="3968.6" class="st0" width="26.6" height="27.9"/>
<polygon id="_x30_1.23.01C" class="st0" points="2585.8,4434.2 2585.8,4444.4 2629.4,4444.4 2629.4,4437.9 2631.8,4437.9 
	2631.8,4420.5 2631.8,4418.7 2631.8,4396.3 2585.8,4396.3 "/>
<rect id="_x30_1.23.01B" x="2662.4" y="4366.8" class="st0" width="14.7" height="51.9"/>
<g id="LWPOLYLINE_222_" class="st1">
	<rect x="1984.4" y="3917.1" class="st3" width="15.1" height="2.8"/>
</g>
<g id="LWPOLYLINE_228_" class="st1">
	<polygon class="st3" points="1279.3,2636.2 1279.3,2639 1241.1,2639 1241.1,2535.2 1279.3,2535.2 1279.3,2538 1243.9,2538 
		1243.9,2636.2 	"/>
</g>
<g id="LWPOLYLINE_229_" class="st1">
	<polygon class="st3" points="1279.3,2253.9 1279.3,2256.8 1243.9,2256.8 1243.9,2354.9 1279.3,2354.9 1279.3,2357.8 1241.1,2357.8 
		1241.1,2253.9 	"/>
</g>
<polygon id="_x30_1.47.01B" class="st0" points="1301.1,474.2 1134.1,474.2 1134.1,541.6 1137.6,541.6 1137.6,543.3 1157.4,543.3 
	1157.4,541.6 1301.1,541.6 "/>
<rect id="_x30_1.48.04" x="1427.3" y="532" class="st0" width="45.5" height="64.4"/>
<rect id="_x30_1.24.07" x="2420.4" y="4326.8" class="st0" width="13.2" height="29.1"/>
<g id="S-GRID-IDEN">
	<g id="Circles">
		<g id="CIRCLE_92_">
			<circle class="st4" cx="3331.1" cy="4439.3" r="11.3"/>
		</g>
		<g id="CIRCLE_91_">
			<circle class="st4" cx="235.9" cy="343.2" r="11.3"/>
		</g>
		<g id="CIRCLE_90_">
			<circle class="st4" cx="2927.8" cy="4019.9" r="11.3"/>
		</g>
		<g id="CIRCLE_89_">
			<circle class="st4" cx="3211.6" cy="3736.2" r="11.3"/>
		</g>
		<g id="CIRCLE_88_">
			<circle class="st4" cx="3174.9" cy="3699.5" r="11.3"/>
		</g>
		<g id="CIRCLE_87_">
			<circle class="st4" cx="2891.1" cy="3983.3" r="11.3"/>
		</g>
		<g id="CIRCLE_86_">
			<circle class="st4" cx="3244.6" cy="3821" r="11.3"/>
		</g>
		<g id="CIRCLE_85_">
			<circle class="st4" cx="3014.4" cy="4051.3" r="11.3"/>
		</g>
		<g id="CIRCLE_84_">
			<circle class="st4" cx="474.7" cy="4904.1" r="11.3"/>
		</g>
		<g id="CIRCLE_83_">
			<circle class="st4" cx="799.9" cy="4904.1" r="11.3"/>
		</g>
		<g id="CIRCLE_82_">
			<circle class="st4" cx="2827.3" cy="3738.7" r="11.3"/>
		</g>
		<g id="CIRCLE_81_">
			<circle class="st4" cx="2783" cy="3622.9" r="11.3"/>
		</g>
		<g id="CIRCLE_80_">
			<circle class="st4" cx="362.4" cy="1052.6" r="11.3"/>
		</g>
		<g id="CIRCLE_79_">
			<circle class="st4" cx="506.8" cy="1052.6" r="11.3"/>
		</g>
		<g id="CIRCLE_78_">
			<circle class="st4" cx="235.9" cy="1356.4" r="11.3"/>
		</g>
		<g id="CIRCLE_77_">
			<circle class="st4" cx="235.9" cy="3536.6" r="11.3"/>
		</g>
		<g id="CIRCLE_76_">
			<circle class="st4" cx="568.6" cy="1052.6" r="11.3"/>
		</g>
		<g id="CIRCLE_75_">
			<circle class="st4" cx="235.9" cy="3779.1" r="11.3"/>
		</g>
		<g id="CIRCLE_74_">
			<circle class="st4" cx="235.9" cy="1113.8" r="11.3"/>
		</g>
		<g id="CIRCLE_73_">
			<circle class="st4" cx="3982.7" cy="4814.9" r="11.3"/>
		</g>
		<g id="CIRCLE_72_">
			<circle class="st4" cx="235.9" cy="4814.9" r="11.3"/>
		</g>
		<g id="CIRCLE_71_">
			<circle class="st4" cx="3982.7" cy="4513.8" r="11.3"/>
		</g>
		<g id="CIRCLE_70_">
			<circle class="st4" cx="235.9" cy="4513.8" r="11.3"/>
		</g>
		<g id="CIRCLE_69_">
			<circle class="st4" cx="2036.8" cy="939.7" r="11.3"/>
		</g>
		<g id="CIRCLE_68_">
			<circle class="st4" cx="2036.8" cy="690.6" r="11.3"/>
		</g>
		<g id="CIRCLE_67_">
			<circle class="st4" cx="2036.8" cy="605.6" r="11.3"/>
		</g>
		<g id="CIRCLE_66_">
			<circle class="st4" cx="235.9" cy="949.6" r="11.3"/>
		</g>
		<g id="CIRCLE_65_">
			<circle class="st4" cx="235.9" cy="1179" r="11.3"/>
		</g>
		<g id="CIRCLE_64_">
			<circle class="st4" cx="1063.2" cy="141" r="11.3"/>
		</g>
		<g id="CIRCLE_63_">
			<circle class="st4" cx="279.8" cy="969.4" r="11.3"/>
		</g>
		<g id="CIRCLE_62_">
			<circle class="st4" cx="251.9" cy="463.6" r="11.3"/>
		</g>
		<g id="CIRCLE_61_">
			<circle class="st4" cx="421.4" cy="294.1" r="11.3"/>
		</g>
		<g id="CIRCLE_60_">
			<circle class="st4" cx="914.5" cy="291.4" r="11.3"/>
		</g>
		<g id="CIRCLE_59_">
			<circle class="st4" cx="235.9" cy="3943.3" r="11.3"/>
		</g>
		<g id="CIRCLE_58_">
			<circle class="st4" cx="235.9" cy="3714" r="11.3"/>
		</g>
		<g id="CIRCLE_57_">
			<circle class="st4" cx="1063.2" cy="4904.1" r="11.3"/>
		</g>
		<g id="CIRCLE_56_">
			<circle class="st4" cx="233.4" cy="3942.8" r="11.3"/>
		</g>
		<g id="CIRCLE_55_">
			<circle class="st4" cx="284.2" cy="4397" r="11.3"/>
		</g>
		<g id="CIRCLE_54_">
			<circle class="st4" cx="453.7" cy="4566.5" r="11.3"/>
		</g>
		<g id="CIRCLE_53_">
			<circle class="st4" cx="787.1" cy="4909.2" r="11.3"/>
		</g>
		<g id="CIRCLE_52_">
			<circle class="st4" cx="3982.7" cy="4027.3" r="11.3"/>
		</g>
		<g id="CIRCLE_51_">
			<circle class="st4" cx="3982.7" cy="3787.6" r="11.3"/>
		</g>
		<g id="CIRCLE_50_">
			<circle class="st4" cx="3220.7" cy="4904.1" r="11.3"/>
		</g>
		<g id="CIRCLE_49_">
			<circle class="st4" cx="2981" cy="4904.1" r="11.3"/>
		</g>
		<g id="CIRCLE_48_">
			<circle class="st4" cx="3836.9" cy="3953.6" r="11.3"/>
		</g>
		<g id="CIRCLE_47_">
			<circle class="st4" cx="3784.1" cy="4374.5" r="11.3"/>
		</g>
		<g id="CIRCLE_46_">
			<circle class="st4" cx="3567.9" cy="4590.8" r="11.3"/>
		</g>
		<g id="CIRCLE_45_">
			<circle class="st4" cx="3254.5" cy="4903.2" r="11.3"/>
		</g>
		<g id="CIRCLE_44_">
			<circle class="st4" cx="3875.6" cy="865.6" r="11.3"/>
		</g>
		<g id="CIRCLE_43_">
			<circle class="st4" cx="3875.6" cy="1105.3" r="11.3"/>
		</g>
		<g id="CIRCLE_42_">
			<circle class="st4" cx="3220.7" cy="141" r="11.3"/>
		</g>
		<g id="CIRCLE_41_">
			<circle class="st4" cx="2981" cy="141" r="11.3"/>
		</g>
		<g id="CIRCLE_40_">
			<circle class="st4" cx="1302.9" cy="141" r="11.3"/>
		</g>
		<g id="CIRCLE_39_">
			<circle class="st4" cx="235.9" cy="3525.2" r="11.3"/>
		</g>
		<g id="CIRCLE_38_">
			<circle class="st4" cx="1302.9" cy="4904.1" r="11.3"/>
		</g>
		<g id="CIRCLE_37_">
			<circle class="st4" cx="2741.3" cy="4904.1" r="11.3"/>
		</g>
		<g id="CIRCLE_36_">
			<circle class="st4" cx="3875.6" cy="1356.4" r="11.3"/>
		</g>
		<g id="CIRCLE_35_">
			<circle class="st4" cx="3835.4" cy="939.9" r="11.3"/>
		</g>
		<g id="CIRCLE_34_">
			<circle class="st4" cx="3815.3" cy="487.2" r="11.3"/>
		</g>
		<g id="CIRCLE_33_">
			<circle class="st4" cx="3599.1" cy="271" r="11.3"/>
		</g>
		<g id="CIRCLE_32_">
			<circle class="st4" cx="3129.6" cy="291.4" r="11.3"/>
		</g>
		<g id="CIRCLE_31_">
			<circle class="st4" cx="2741.3" cy="141" r="11.3"/>
		</g>
		<g id="CIRCLE_30_">
			<circle class="st4" cx="2013.1" cy="1336.1" r="11.3"/>
		</g>
		<g id="CIRCLE_29_">
			<circle class="st4" cx="235.9" cy="1367.7" r="11.3"/>
		</g>
		<g id="CIRCLE_28_">
			<circle class="st4" cx="235.9" cy="1607.4" r="11.3"/>
		</g>
		<g id="CIRCLE_27_">
			<circle class="st4" cx="235.9" cy="1847.1" r="11.3"/>
		</g>
		<g id="CIRCLE_26_">
			<circle class="st4" cx="235.9" cy="2086.9" r="11.3"/>
		</g>
		<g id="CIRCLE_25_">
			<circle class="st4" cx="1542.6" cy="141" r="11.3"/>
		</g>
		<g id="CIRCLE_24_">
			<circle class="st4" cx="1782.3" cy="141" r="11.3"/>
		</g>
		<g id="CIRCLE_23_">
			<circle class="st4" cx="235.9" cy="3285.5" r="11.3"/>
		</g>
		<g id="CIRCLE_22_">
			<circle class="st4" cx="235.9" cy="3045.8" r="11.3"/>
		</g>
		<g id="CIRCLE_21_">
			<circle class="st4" cx="235.9" cy="2806.1" r="11.3"/>
		</g>
		<g id="CIRCLE_20_">
			<circle class="st4" cx="235.9" cy="2566.3" r="11.3"/>
		</g>
		<g id="CIRCLE_19_">
			<circle class="st4" cx="235.9" cy="2326.6" r="11.3"/>
		</g>
		<g id="CIRCLE_18_">
			<circle class="st4" cx="1542.6" cy="4904.1" r="11.3"/>
		</g>
		<g id="CIRCLE_17_">
			<circle class="st4" cx="1782.3" cy="4904.1" r="11.3"/>
		</g>
		<g id="CIRCLE_16_">
			<circle class="st4" cx="3982.7" cy="3536.6" r="11.3"/>
		</g>
		<g id="CIRCLE_15_">
			<circle class="st4" cx="3982.7" cy="3285.5" r="11.3"/>
		</g>
		<g id="CIRCLE_11_">
			<circle class="st4" cx="2261.8" cy="4904.1" r="11.3"/>
		</g>
		<g id="CIRCLE_12_">
			<circle class="st4" cx="2501.5" cy="4904.1" r="11.3"/>
		</g>
		<g id="CIRCLE_13_">
			<circle class="st4" cx="3982.7" cy="2806.1" r="11.3"/>
		</g>
		<g id="CIRCLE_14_">
			<circle class="st4" cx="3982.7" cy="3045.8" r="11.3"/>
		</g>
		<g id="CIRCLE_10_">
			<circle class="st4" cx="2022.1" cy="4904.1" r="11.3"/>
		</g>
		<g id="CIRCLE_9_">
			<circle class="st4" cx="3982.7" cy="1607.4" r="11.3"/>
		</g>
		<g id="CIRCLE_8_">
			<circle class="st4" cx="3982.7" cy="1847.1" r="11.3"/>
		</g>
		<g id="CIRCLE_7_">
			<circle class="st4" cx="3982.7" cy="2086.9" r="11.3"/>
		</g>
		<g id="CIRCLE_6_">
			<circle class="st4" cx="3982.7" cy="2326.6" r="11.3"/>
		</g>
		<g id="CIRCLE_5_">
			<circle class="st4" cx="3982.7" cy="2566.3" r="11.3"/>
		</g>
		<g id="CIRCLE_4_">
			<circle class="st4" cx="2501.5" cy="141" r="11.3"/>
		</g>
		<g id="CIRCLE_3_">
			<circle class="st4" cx="2261.8" cy="141" r="11.3"/>
		</g>
		<g id="CIRCLE_2_">
			<circle class="st4" cx="2022.1" cy="141" r="11.3"/>
		</g>
		<g id="CIRCLE_1_">
			<circle class="st4" cx="2022.1" cy="1506.3" r="11.3"/>
		</g>
		<g id="CIRCLE">
			<circle class="st4" cx="3982.7" cy="2446.5" r="11.3"/>
		</g>
	</g>
	<g id="Numbers">
		<g id="MTEXT_92_">
			<text transform="matrix(1 0 0 1 3326.2573 4443.3408)" class="st5 st6">K</text>
		</g>
		<g id="MTEXT_91_">
			<text transform="matrix(1 0 0 1 230.9503 347.291)" class="st5 st6">K</text>
		</g>
		<g id="MTEXT_90_">
			<text transform="matrix(1 0 0 1 2918.0249 4023.9795)" class="st5 st6">B.4</text>
		</g>
		<g id="MTEXT_89_">
			<text transform="matrix(1 0 0 1 3201.7925 3740.2139)" class="st5 st6">B.4</text>
		</g>
		<g id="MTEXT_88_">
			<text transform="matrix(1 0 0 1 3165.019 3703.5693)" class="st5 st6">B.2</text>
		</g>
		<g id="MTEXT_87_">
			<text transform="matrix(1 0 0 1 2881.2515 3987.3379)" class="st5 st6">B.2</text>
		</g>
		<g id="MTEXT_86_">
			<text transform="matrix(1 0 0 1 3232.6519 3825.0674)" class="st5 st6">20.3</text>
		</g>
		<g id="MTEXT_85_">
			<text transform="matrix(1 0 0 1 3002.4087 4055.3076)" class="st5 st6">20.7</text>
		</g>
		<g id="MTEXT_84_">
			<text transform="matrix(1 0 0 1 464.8219 4908.1133)" class="st5 st6">C.8</text>
		</g>
		<g id="MTEXT_83_">
			<text transform="matrix(1 0 0 1 787.7487 4908.1133)" class="st5 st6">31.1</text>
		</g>
		<g id="MTEXT_82_">
			<text transform="matrix(1 0 0 1 2818.312 3742.8242)" class="st5 st6">A.6</text>
		</g>
		<g id="MTEXT_81_">
			<text transform="matrix(1 0 0 1 2773.9448 3627.0225)" class="st5 st6">A.3</text>
		</g>
		<g id="MTEXT_80_">
			<text transform="matrix(1 0 0 1 357.0655 1056.7002)" class="st5 st6">G</text>
		</g>
		<g id="MTEXT_79_">
			<text transform="matrix(1 0 0 1 502.1236 1056.7002)" class="st5 st6">F</text>
		</g>
		<g id="MTEXT_78_">
			<text transform="matrix(1 0 0 1 224.1529 1360.458)" class="st5 st6">43.1</text>
		</g>
		<g id="MTEXT_77_">
			<text transform="matrix(1 0 0 1 223.8048 3540.6211)" class="st5 st6">33.9</text>
		</g>
		<g id="MTEXT_76_">
			<text transform="matrix(1 0 0 1 563.6827 1056.7002)" class="st5 st6">E</text>
		</g>
		<g id="MTEXT_75_">
			<text transform="matrix(1 0 0 1 223.8048 3783.1758)" class="st5 st6">32.7</text>
		</g>
		<g id="MTEXT_74_">
			<text transform="matrix(1 0 0 1 224.1529 1117.9028)" class="st5 st6">44.3</text>
		</g>
		<g id="MTEXT_73_">
			<text transform="matrix(1 0 0 1 3979.2251 4818.9854)" class="st5 st6">J</text>
		</g>
		<g id="MTEXT_72_">
			<text transform="matrix(1 0 0 1 232.4449 4818.9854)" class="st5 st6">J</text>
		</g>
		<g id="MTEXT_71_">
			<text transform="matrix(1 0 0 1 3977.2905 4517.915)" class="st5 st6">H</text>
		</g>
		<g id="MTEXT_70_">
			<text transform="matrix(1 0 0 1 230.5123 4517.915)" class="st5 st6">H</text>
		</g>
		<g id="MTEXT_69_">
			<text transform="matrix(1 0 0 1 2031.8536 943.7686)" class="st5 st6">B</text>
		</g>
		<g id="MTEXT_68_">
			<text transform="matrix(1 0 0 1 2031.7745 694.6064)" class="st5 st6">C</text>
		</g>
		<g id="MTEXT_67_">
			<text transform="matrix(1 0 0 1 2031.4493 609.6646)" class="st5 st6">D</text>
		</g>
		<g id="MTEXT_66_">
			<text transform="matrix(1 0 0 1 224.1529 953.6812)" class="st5 st6">45.1</text>
		</g>
		<g id="MTEXT_65_">
			<text transform="matrix(1 0 0 1 229.1036 1183.0249)" class="st5 st6">44</text>
		</g>
		<g id="MTEXT_64_">
			<text transform="matrix(1 0 0 1 1056.3615 145.1641)" class="st5 st6">47</text>
		</g>
		<g id="MTEXT_63_">
			<text transform="matrix(1 0 0 1 273.0894 973.4917)" class="st5 st6">45</text>
		</g>
		<g id="MTEXT_62_">
			<text transform="matrix(1 0 0 1 240.1695 467.6743)" class="st5 st6">45.4</text>
		</g>
		<g id="MTEXT_61_">
			<text transform="matrix(1 0 0 1 409.6788 298.1636)" class="st5 st6">45.6</text>
		</g>
		<g id="MTEXT_60_">
			<text transform="matrix(1 0 0 1 907.7511 295.4883)" class="st5 st6">46</text>
		</g>
		<g id="MTEXT_59_">
			<text transform="matrix(1 0 0 1 223.8048 3947.3955)" class="st5 st6">31.9</text>
		</g>
		<g id="MTEXT_58_">
			<text transform="matrix(1 0 0 1 228.755 3718.0537)" class="st5 st6">33</text>
		</g>
		<g id="MTEXT_57_">
			<text transform="matrix(1 0 0 1 1056.0177 4908.1133)" class="st5 st6">30</text>
		</g>
		<g id="MTEXT_56_">
			<text transform="matrix(1 0 0 1 226.2521 3946.8438)" class="st5 st6">32</text>
		</g>
		<g id="MTEXT_55_">
			<text transform="matrix(1 0 0 1 272.1485 4401.0781)" class="st5 st6">31.6</text>
		</g>
		<g id="MTEXT_54_">
			<text transform="matrix(1 0 0 1 441.6593 4570.5889)" class="st5 st6">31.4</text>
		</g>
		<g id="MTEXT_53_">
			<text transform="matrix(1 0 0 1 779.9786 4913.2266)" class="st5 st6">31</text>
		</g>
		<g id="MTEXT_52_">
			<text transform="matrix(1 0 0 1 3975.5923 4031.3887)" class="st5 st6">20</text>
		</g>
		<g id="MTEXT_51_">
			<text transform="matrix(1 0 0 1 3974.647 3791.665)" class="st5 st6">19</text>
		</g>
		<g id="MTEXT_50_">
			<text transform="matrix(1 0 0 1 3213.6821 4908.1133)" class="st5 st6">21</text>
		</g>
		<g id="MTEXT_49_">
			<text transform="matrix(1 0 0 1 2973.9565 4908.1133)" class="st5 st6">22</text>
		</g>
		<g id="MTEXT_48_">
			<text transform="matrix(1 0 0 1 3823.9556 3957.6631)" class="st5 st6">19.5</text>
		</g>
		<g id="MTEXT_47_">
			<text transform="matrix(1 0 0 1 3772.1304 4378.5625)" class="st5 st6">20.4</text>
		</g>
		<g id="MTEXT_46_">
			<text transform="matrix(1 0 0 1 3555.9038 4594.7881)" class="st5 st6">20.6</text>
		</g>
		<g id="MTEXT_45_">
			<text transform="matrix(1 0 0 1 3242.5737 4907.2529)" class="st5 st6">21.5</text>
		</g>
		<g id="MTEXT_44_">
			<text transform="matrix(1 0 0 1 3871.6226 869.6807)" class="st5 st6">7</text>
		</g>
		<g id="MTEXT_43_">
			<text transform="matrix(1 0 0 1 3871.7036 1109.4033)" class="st5 st6">8</text>
		</g>
		<g id="MTEXT_42_">
			<text transform="matrix(1 0 0 1 3216.8882 145.1641)" class="st5 st6">6</text>
		</g>
		<g id="MTEXT_41_">
			<text transform="matrix(1 0 0 1 2977.1167 145.1641)" class="st5 st6">5</text>
		</g>
		<g id="MTEXT_40_">
			<text transform="matrix(1 0 0 1 1296.0851 145.1641)" class="st5 st6">48</text>
		</g>
		<g id="MTEXT_39_">
			<text transform="matrix(1 0 0 1 228.755 3529.2939)" class="st5 st6">34</text>
		</g>
		<g id="MTEXT_38_">
			<text transform="matrix(1 0 0 1 1295.8937 4908.1133)" class="st5 st6">29</text>
		</g>
		<g id="MTEXT_37_">
			<text transform="matrix(1 0 0 1 2734.2339 4908.1133)" class="st5 st6">23</text>
		</g>
		<g id="MTEXT_36_">
			<text transform="matrix(1 0 0 1 3871.6909 1360.4526)" class="st5 st6">9</text>
		</g>
		<g id="MTEXT_35_">
			<text transform="matrix(1 0 0 1 3826.478 944.0303)" class="st5 st6">7.5</text>
		</g>
		<g id="MTEXT_34_">
			<text transform="matrix(1 0 0 1 3806.5405 491.2939)" class="st5 st6">6.6</text>
		</g>
		<g id="MTEXT_33_">
			<text transform="matrix(1 0 0 1 3590.3149 275.0693)" class="st5 st6">6.4</text>
		</g>
		<g id="MTEXT_32_">
			<text transform="matrix(1 0 0 1 3120.769 295.4863)" class="st5 st6">5.5</text>
		</g>
		<g id="MTEXT_31_">
			<text transform="matrix(1 0 0 1 2737.7349 145.1641)" class="st5 st6">4</text>
		</g>
		<g id="MTEXT_30_">
			<text transform="matrix(1 0 0 1 2009.0997 1340.1646)" class="st5 st6">A</text>
		</g>
		<g id="MTEXT_29_">
			<text transform="matrix(1 0 0 1 229.1036 1371.7822)" class="st5 st6">43</text>
		</g>
		<g id="MTEXT_28_">
			<text transform="matrix(1 0 0 1 229.1036 1611.5063)" class="st5 st6">42</text>
		</g>
		<g id="MTEXT_27_">
			<text transform="matrix(1 0 0 1 229.1036 1851.229)" class="st5 st6">41</text>
		</g>
		<g id="MTEXT_26_">
			<text transform="matrix(1 0 0 1 229.1036 2090.9526)" class="st5 st6">40</text>
		</g>
		<g id="MTEXT_25_">
			<text transform="matrix(1 0 0 1 1535.8092 145.1641)" class="st5 st6">49</text>
		</g>
		<g id="MTEXT_24_">
			<text transform="matrix(1 0 0 1 1775.1901 145.1641)" class="st5 st6">50</text>
		</g>
		<g id="MTEXT_23_">
			<text transform="matrix(1 0 0 1 228.755 3289.5703)" class="st5 st6">35</text>
		</g>
		<g id="MTEXT_22_">
			<text transform="matrix(1 0 0 1 228.755 3049.8477)" class="st5 st6">36</text>
		</g>
		<g id="MTEXT_21_">
			<text transform="matrix(1 0 0 1 228.755 2810.124)" class="st5 st6">37</text>
		</g>
		<g id="MTEXT_20_">
			<text transform="matrix(1 0 0 1 228.755 2570.4004)" class="st5 st6">38</text>
		</g>
		<g id="MTEXT_19_">
			<text transform="matrix(1 0 0 1 228.755 2330.6768)" class="st5 st6">39</text>
		</g>
		<g id="MTEXT_18_">
			<text transform="matrix(1 0 0 1 1535.6154 4908.1133)" class="st5 st6">28</text>
		</g>
		<g id="MTEXT_17_">
			<text transform="matrix(1 0 0 1 1775.339 4908.1133)" class="st5 st6">27</text>
		</g>
		<g id="MTEXT_16_">
			<text transform="matrix(1 0 0 1 3974.647 3540.6162)" class="st5 st6">18</text>
		</g>
		<g id="MTEXT_15_">
			<text transform="matrix(1 0 0 1 3974.647 3289.5674)" class="st5 st6">17</text>
		</g>
		<g id="MTEXT_14_">
			<text transform="matrix(1 0 0 1 3974.647 3049.8438)" class="st5 st6">16</text>
		</g>
		<g id="MTEXT_13_">
			<text transform="matrix(1 0 0 1 3974.647 2810.1201)" class="st5 st6">15</text>
		</g>
		<g id="MTEXT_12_">
			<text transform="matrix(1 0 0 1 2494.5093 4908.1133)" class="st5 st6">24</text>
		</g>
		<g id="MTEXT_11_">
			<text transform="matrix(1 0 0 1 2254.7866 4908.1133)" class="st5 st6">25</text>
		</g>
		<g id="MTEXT_10_">
			<text transform="matrix(1 0 0 1 2015.0626 4908.1133)" class="st5 st6">26</text>
		</g>
		<g id="MTEXT_9_">
			<text transform="matrix(1 0 0 1 3974.647 1611.502)" class="st5 st6">10</text>
		</g>
		<g id="MTEXT_8_">
			<text transform="matrix(1 0 0 1 3974.647 1851.2261)" class="st5 st6">11</text>
		</g>
		<g id="MTEXT_7_">
			<text transform="matrix(1 0 0 1 3974.647 2090.9497)" class="st5 st6">12</text>
		</g>
		<g id="MTEXT_6_">
			<text transform="matrix(1 0 0 1 3974.647 2330.6738)" class="st5 st6">13</text>
		</g>
		<g id="MTEXT_5_">
			<text transform="matrix(1 0 0 1 3974.647 2570.3975)" class="st5 st6">14</text>
		</g>
		<g id="MTEXT_4_">
			<text transform="matrix(1 0 0 1 2497.6636 145.1641)" class="st5 st6">3</text>
		</g>
		<g id="MTEXT_3_">
			<text transform="matrix(1 0 0 1 2258.0903 145.1641)" class="st5 st6">2</text>
		</g>
		<g id="MTEXT_2_">
			<text transform="matrix(1 0 0 1 2017.424 145.1641)" class="st5 st6">1</text>
		</g>
		<g id="MTEXT_1_">
			<text transform="matrix(1 0 0 1 2012.8517 1510.4463)" class="st5 st6">NS</text>
		</g>
		<g id="MTEXT">
			<text transform="matrix(1 0 0 1 3971.7026 2450.5352)" class="st5 st6">EW</text>
		</g>
	</g>
</g>
<g id="S-GRID">
	<g id="LINE">
		<line class="st7" x1="247.2" y1="2446.5" x2="3971.3" y2="2446.5"/>
	</g>
	<g id="LINE_1_">
		<line class="st7" x1="2022.1" y1="3365.7" x2="2022.1" y2="1517.6"/>
	</g>
	<g id="LINE_2_">
		<line class="st7" x1="2022.1" y1="1427.2" x2="2022.1" y2="152.4"/>
	</g>
	<g id="LINE_3_">
		<line class="st7" x1="2261.8" y1="1427.2" x2="2261.8" y2="152.4"/>
	</g>
	<g id="LINE_4_">
		<line class="st7" x1="2501.5" y1="1427.2" x2="2501.5" y2="152.4"/>
	</g>
	<g id="LINE_5_">
		<line class="st7" x1="2659.1" y1="2566.3" x2="3971.3" y2="2566.3"/>
	</g>
	<g id="LINE_6_">
		<line class="st7" x1="2659.1" y1="2326.6" x2="3971.3" y2="2326.6"/>
	</g>
	<g id="LINE_7_">
		<line class="st7" x1="2659.1" y1="2086.9" x2="3971.3" y2="2086.9"/>
	</g>
	<g id="LINE_8_">
		<line class="st7" x1="2659.1" y1="1847.1" x2="3971.3" y2="1847.1"/>
	</g>
	<g id="LINE_9_">
		<line class="st7" x1="2659.1" y1="1607.4" x2="3971.3" y2="1607.4"/>
	</g>
	<g id="LINE_10_">
		<line class="st7" x1="2022.1" y1="3465.8" x2="2022.1" y2="4892.8"/>
	</g>
	<g id="LINE_11_">
		<line class="st7" x1="2261.8" y1="3465.8" x2="2261.8" y2="4892.8"/>
	</g>
	<g id="LINE_12_">
		<line class="st7" x1="2501.5" y1="3465.8" x2="2501.5" y2="4892.8"/>
	</g>
	<g id="LINE_13_">
		<line class="st7" x1="2659.1" y1="2806.1" x2="3971.3" y2="2806.1"/>
	</g>
	<g id="LINE_14_">
		<line class="st7" x1="2659.1" y1="3045.8" x2="3971.3" y2="3045.8"/>
	</g>
	<g id="LINE_15_">
		<line class="st7" x1="2659.1" y1="3285.5" x2="3971.3" y2="3285.5"/>
	</g>
	<g id="LINE_16_">
		<line class="st7" x1="2802.7" y1="3536.6" x2="3971.3" y2="3536.6"/>
	</g>
	<g id="LINE_17_">
		<line class="st7" x1="1782.3" y1="3465.8" x2="1782.3" y2="4892.8"/>
	</g>
	<g id="LINE_18_">
		<line class="st7" x1="1542.6" y1="3465.8" x2="1542.6" y2="4892.8"/>
	</g>
	<g id="LINE_19_">
		<line class="st7" x1="1385" y1="2326.6" x2="247.2" y2="2326.6"/>
	</g>
	<g id="LINE_20_">
		<line class="st7" x1="1385" y1="2566.3" x2="247.2" y2="2566.3"/>
	</g>
	<g id="LINE_21_">
		<line class="st7" x1="1385" y1="2806.1" x2="247.2" y2="2806.1"/>
	</g>
	<g id="LINE_22_">
		<line class="st7" x1="1385" y1="3045.8" x2="247.2" y2="3045.8"/>
	</g>
	<g id="LINE_23_">
		<line class="st7" x1="1385" y1="3285.5" x2="247.2" y2="3285.5"/>
	</g>
	<g id="LINE_24_">
		<line class="st7" x1="1782.3" y1="1427.2" x2="1782.3" y2="152.4"/>
	</g>
	<g id="LINE_25_">
		<line class="st7" x1="1542.6" y1="1427.2" x2="1542.6" y2="152.4"/>
	</g>
	<g id="LINE_26_">
		<line class="st7" x1="1385" y1="2086.9" x2="247.2" y2="2086.9"/>
	</g>
	<g id="LINE_27_">
		<line class="st7" x1="1385" y1="1847.1" x2="247.2" y2="1847.1"/>
	</g>
	<g id="LINE_28_">
		<line class="st7" x1="1385" y1="1607.4" x2="247.2" y2="1607.4"/>
	</g>
	<g id="LINE_29_">
		<line class="st7" x1="1243.7" y1="1367.7" x2="247.2" y2="1367.7"/>
	</g>
	<g id="LINE_30_">
		<line class="st7" x1="2023.4" y1="1336.1" x2="1347.3" y2="1336.1"/>
	</g>
	<g id="LINE_31_">
		<line class="st7" x1="1347.3" y1="1336.1" x2="1293.9" y2="1389.4"/>
	</g>
	<g id="LINE_32_">
		<line class="st7" x1="1293.9" y1="1389.4" x2="1293.9" y2="3503.5"/>
	</g>
	<g id="LINE_33_">
		<line class="st7" x1="1293.9" y1="3503.5" x2="1347.3" y2="3556.8"/>
	</g>
	<g id="LINE_34_">
		<line class="st7" x1="1347.3" y1="3556.8" x2="2696.9" y2="3556.8"/>
	</g>
	<g id="LINE_35_">
		<line class="st7" x1="2696.9" y1="3556.8" x2="2750.2" y2="3503.5"/>
	</g>
	<g id="LINE_36_">
		<line class="st7" x1="2750.2" y1="3503.5" x2="2750.2" y2="1389.4"/>
	</g>
	<g id="LINE_37_">
		<line class="st7" x1="2750.2" y1="1389.4" x2="2696.9" y2="1336.1"/>
	</g>
	<g id="LINE_38_">
		<line class="st7" x1="2696.9" y1="1336.1" x2="2024.4" y2="1336.1"/>
	</g>
	<g id="LINE_39_">
		<line class="st7" x1="706.9" y1="3846.1" x2="706.9" y2="1046.9"/>
	</g>
	<g id="LINE_40_">
		<line class="st7" x1="2741.3" y1="1229" x2="2741.3" y2="152.4"/>
	</g>
	<g id="LINE_41_">
		<line class="st7" x1="2659.1" y1="1427.2" x2="3125.3" y2="301.8"/>
	</g>
	<g id="LINE_42_">
		<line class="st7" x1="2812.1" y1="1058" x2="3591.1" y2="279"/>
	</g>
	<g id="LINE_43_">
		<line class="st7" x1="3028.3" y1="1274.3" x2="3807.3" y2="495.2"/>
	</g>
	<g id="LINE_44_">
		<line class="st7" x1="2659.1" y1="1427.2" x2="3825" y2="944.3"/>
	</g>
	<g id="LINE_45_">
		<line class="st7" x1="2802.7" y1="1356.4" x2="3864.3" y2="1356.4"/>
	</g>
	<g id="LINE_46_">
		<line class="st7" x1="2741.3" y1="3664" x2="2741.3" y2="4892.8"/>
	</g>
	<g id="LINE_47_">
		<line class="st7" x1="1302.9" y1="3664" x2="1302.9" y2="4892.8"/>
	</g>
	<g id="LINE_48_">
		<line class="st7" x1="1241.5" y1="3525.2" x2="247.2" y2="3525.2"/>
	</g>
	<g id="LINE_49_">
		<line class="st7" x1="1302.9" y1="1229" x2="1302.9" y2="152.4"/>
	</g>
	<g id="LINE_50_">
		<line class="st7" x1="2981" y1="721.7" x2="2981" y2="152.4"/>
	</g>
	<g id="LINE_51_">
		<line class="st7" x1="3220.7" y1="721.7" x2="3220.7" y2="152.4"/>
	</g>
	<g id="LINE_52_">
		<line class="st7" x1="3364.6" y1="1105.3" x2="3864.3" y2="1105.3"/>
	</g>
	<g id="LINE_53_">
		<line class="st7" x1="3364.6" y1="865.6" x2="3864.3" y2="865.6"/>
	</g>
	<g id="LINE_54_">
		<line class="st7" x1="2659.1" y1="3465.8" x2="3250.2" y2="4892.8"/>
	</g>
	<g id="LINE_55_">
		<line class="st7" x1="2812.1" y1="3834.9" x2="3559.9" y2="4582.7"/>
	</g>
	<g id="LINE_56_">
		<line class="st7" x1="3028.3" y1="3618.7" x2="3776.1" y2="4366.5"/>
	</g>
	<g id="LINE_57_">
		<line class="st7" x1="2659.1" y1="3465.8" x2="3826.5" y2="3949.3"/>
	</g>
	<g id="LINE_58_">
		<line class="st7" x1="2981" y1="4171.3" x2="2981" y2="4892.8"/>
	</g>
	<g id="LINE_59_">
		<line class="st7" x1="3220.7" y1="4171.3" x2="3220.7" y2="4892.8"/>
	</g>
	<g id="LINE_60_">
		<line class="st7" x1="3364.6" y1="3787.6" x2="3971.3" y2="3787.6"/>
	</g>
	<g id="LINE_61_">
		<line class="st7" x1="3364.6" y1="4027.3" x2="3971.3" y2="4027.3"/>
	</g>
	<g id="LINE_62_">
		<line class="st7" x1="1385" y1="3465.8" x2="791.4" y2="4898.7"/>
	</g>
	<g id="LINE_63_">
		<line class="st7" x1="1264.4" y1="3756" x2="461.8" y2="4558.6"/>
	</g>
	<g id="LINE_64_">
		<line class="st7" x1="1094.8" y1="3586.5" x2="292.2" y2="4389"/>
	</g>
	<g id="LINE_65_">
		<line class="st7" x1="1385" y1="3465.8" x2="243.8" y2="3938.5"/>
	</g>
	<g id="LINE_66_">
		<line class="st7" x1="1063.2" y1="4171.3" x2="1063.2" y2="4892.8"/>
	</g>
	<g id="LINE_67_">
		<line class="st7" x1="911.5" y1="3714" x2="247.2" y2="3714"/>
	</g>
	<g id="LINE_68_">
		<line class="st7" x1="804.1" y1="3943.3" x2="247.2" y2="3943.3"/>
	</g>
	<g id="LINE_69_">
		<line class="st7" x1="1385" y1="1427.2" x2="918.9" y2="301.8"/>
	</g>
	<g id="LINE_70_">
		<line class="st7" x1="1264.4" y1="1137" x2="429.4" y2="302.1"/>
	</g>
	<g id="LINE_71_">
		<line class="st7" x1="1094.8" y1="1306.5" x2="259.9" y2="471.6"/>
	</g>
	<g id="LINE_72_">
		<line class="st7" x1="1385" y1="1427.2" x2="290.3" y2="973.8"/>
	</g>
	<g id="LINE_73_">
		<line class="st7" x1="1063.2" y1="721.7" x2="1063.2" y2="152.4"/>
	</g>
	<g id="LINE_74_">
		<line class="st7" x1="817.1" y1="1179" x2="247.2" y2="1179"/>
	</g>
	<g id="LINE_75_">
		<line class="st7" x1="804.1" y1="949.6" x2="247.2" y2="949.6"/>
	</g>
	<g id="LINE_76_">
		<line class="st7" x1="2026.5" y1="605.6" x2="3480.7" y2="605.6"/>
	</g>
	<g id="LINE_77_">
		<line class="st7" x1="3480.7" y1="605.6" x2="3480.7" y2="4287.3"/>
	</g>
	<g id="LINE_78_">
		<line class="st7" x1="3480.7" y1="4287.3" x2="582.8" y2="4287.3"/>
	</g>
	<g id="LINE_79_">
		<line class="st7" x1="582.8" y1="605.6" x2="2025.5" y2="605.6"/>
	</g>
	<g id="LINE_80_">
		<line class="st7" x1="2026.5" y1="690.6" x2="2980.9" y2="690.6"/>
	</g>
	<g id="LINE_81_">
		<line class="st7" x1="2980.9" y1="690.6" x2="3395.8" y2="1105.4"/>
	</g>
	<g id="LINE_82_">
		<line class="st7" x1="3395.8" y1="1105.4" x2="3395.8" y2="3787.6"/>
	</g>
	<g id="LINE_83_">
		<line class="st7" x1="3395.8" y1="3787.6" x2="2980.9" y2="4202.4"/>
	</g>
	<g id="LINE_84_">
		<line class="st7" x1="2980.9" y1="4202.4" x2="1063.2" y2="4202.4"/>
	</g>
	<g id="LINE_85_">
		<line class="st7" x1="1063.2" y1="4202.4" x2="706.9" y2="3846.1"/>
	</g>
	<g id="LINE_86_">
		<line class="st7" x1="706.9" y1="1046.9" x2="1063.2" y2="690.6"/>
	</g>
	<g id="LINE_87_">
		<line class="st7" x1="1063.2" y1="690.6" x2="2025.5" y2="690.6"/>
	</g>
	<g id="LINE_88_">
		<line class="st7" x1="2026.5" y1="939.7" x2="2861.1" y2="939.7"/>
	</g>
	<g id="LINE_89_">
		<line class="st7" x1="2861.1" y1="939.7" x2="3146.6" y2="1225.3"/>
	</g>
	<g id="LINE_90_">
		<line class="st7" x1="3146.6" y1="1225.3" x2="3146.6" y2="3667.7"/>
	</g>
	<g id="LINE_91_">
		<line class="st7" x1="3146.6" y1="3667.7" x2="2861.1" y2="3953.2"/>
	</g>
	<g id="LINE_92_">
		<line class="st7" x1="2861.1" y1="3953.2" x2="1183.1" y2="3953.2"/>
	</g>
	<g id="LINE_93_">
		<line class="st7" x1="1183.1" y1="3953.2" x2="897.6" y2="3667.7"/>
	</g>
	<g id="LINE_94_">
		<line class="st7" x1="897.6" y1="3667.7" x2="897.6" y2="1225.3"/>
	</g>
	<g id="LINE_95_">
		<line class="st7" x1="897.6" y1="1225.3" x2="1183.1" y2="939.7"/>
	</g>
	<g id="LINE_96_">
		<line class="st7" x1="1183.1" y1="939.7" x2="2025.5" y2="939.7"/>
	</g>
	<g id="LINE_97_">
		<line class="st7" x1="247.2" y1="4513.8" x2="3971.3" y2="4513.8"/>
	</g>
	<g id="LINE_98_">
		<line class="st7" x1="247.2" y1="4814.9" x2="3971.3" y2="4814.9"/>
	</g>
	<g id="LINE_99_">
		<line class="st7" x1="817.1" y1="1113.8" x2="247.2" y2="1113.8"/>
	</g>
	<g id="LINE_100_">
		<line class="st7" x1="911.5" y1="3779.1" x2="247.2" y2="3779.1"/>
	</g>
	<g id="LINE_101_">
		<line class="st7" x1="568.6" y1="3831.7" x2="568.6" y2="1063.9"/>
	</g>
	<g id="LINE_102_">
		<line class="st7" x1="907.4" y1="3536.6" x2="247.2" y2="3536.6"/>
	</g>
	<g id="LINE_103_">
		<line class="st7" x1="1243.7" y1="1356.4" x2="247.2" y2="1356.4"/>
	</g>
	<g id="LINE_104_">
		<line class="st7" x1="506.8" y1="3831.7" x2="506.8" y2="1063.9"/>
	</g>
	<g id="LINE_105_">
		<line class="st7" x1="362.4" y1="3831.7" x2="362.4" y2="1063.9"/>
	</g>
	<g id="LINE_106_">
		<line class="st7" x1="582.8" y1="4287.3" x2="582.8" y2="605.6"/>
	</g>
	<g id="LINE_107_">
		<line class="st7" x1="1262.7" y1="3624.4" x2="1302.7" y2="3664.5"/>
	</g>
	<g id="LINE_108_">
		<line class="st7" x1="1302.7" y1="3664.5" x2="2741.4" y2="3664.5"/>
	</g>
	<g id="LINE_109_">
		<line class="st7" x1="2741.4" y1="3664.5" x2="2774.9" y2="3630.9"/>
	</g>
	<g id="LINE_110_">
		<line class="st7" x1="1226.7" y1="3748.5" x2="1255.8" y2="3777.7"/>
	</g>
	<g id="LINE_111_">
		<line class="st7" x1="1255.8" y1="3777.7" x2="2788.4" y2="3777.7"/>
	</g>
	<g id="LINE_112_">
		<line class="st7" x1="2788.4" y1="3777.7" x2="2819.3" y2="3746.7"/>
	</g>
	<g id="LINE_113_">
		<line class="st7" x1="799.9" y1="4520.1" x2="799.9" y2="4892.8"/>
	</g>
	<g id="LINE_114_">
		<line class="st7" x1="474.7" y1="4520.1" x2="474.7" y2="4892.8"/>
	</g>
	<g id="LINE_115_">
		<line class="st7" x1="2899.8" y1="3936.6" x2="3006.4" y2="4043.3"/>
	</g>
	<g id="LINE_116_">
		<line class="st7" x1="3130" y1="3706.4" x2="3236.7" y2="3813"/>
	</g>
	<g id="LINE_117_">
		<line class="st7" x1="2899.1" y1="3975.2" x2="3166.9" y2="3707.5"/>
	</g>
	<g id="LINE_118_">
		<line class="st7" x1="3203.6" y1="3744.2" x2="2935.8" y2="4011.9"/>
	</g>
	<g id="LINE_119_">
		<line class="st7" x1="247.2" y1="343.2" x2="3220.7" y2="343.2"/>
	</g>
	<g id="LINE_120_">
		<line class="st7" x1="3220.7" y1="343.2" x2="3743.1" y2="865.6"/>
	</g>
	<g id="LINE_121_">
		<line class="st7" x1="3743.1" y1="865.6" x2="3743.1" y2="4027.3"/>
	</g>
	<g id="LINE_122_">
		<line class="st7" x1="3743.1" y1="4027.3" x2="3339.1" y2="4431.3"/>
	</g>
</g>
</svg>
