<?xml version="1.0" encoding="utf-8"?>
<!-- Generator: Adobe Illustrator 25.2.3, SVG Export Plug-In . SVG Version: 6.00 Build 0)  -->
<svg version="1.1" id="A-AREA-BNDY" xmlns="http://www.w3.org/2000/svg" xmlns:xlink="http://www.w3.org/1999/xlink" x="0px"
	 y="0px" viewBox="0 0 1920 1080" style="enable-background:new 0 0 1920 1080;" xml:space="preserve">
<style type="text/css">
	.st0{fill:#BA9BC9;stroke:#000000;stroke-width:0.2551;stroke-linecap:round;stroke-linejoin:round;stroke-miterlimit:10;}
	.st1{opacity:0.4;}
	.st2{fill:#65C8D0;stroke:#000000;stroke-width:0.2551;stroke-linecap:round;stroke-linejoin:round;stroke-miterlimit:10;}
	.st3{fill:none;stroke:#000000;stroke-width:0.25;}
	.st4{font-family:'ArialMT';}
	.st5{font-size:2.7046px;}
	
		.st6{fill:none;stroke:#000000;stroke-width:0.2551;stroke-linecap:round;stroke-linejoin:round;stroke-miterlimit:10;stroke-dasharray:0.0532,0.0133,0.0133,0.0133;}
</style>
<polygon id="_x30_1.30.02" class="st0" points="708.18,1034.11 723.75,1034.11 731.01,1034.11 739.01,1034.11 739.01,1008.12 
	739.01,1003.56 708.18,1003.56 "/>
<polygon id="ST02" class="st0" points="724.16,1057.95 737.35,1057.95 737.35,1045.73 737.35,1045.34 737.35,1041.3 739.82,1041.3 
	739.82,1045.34 746.54,1045.34 746.54,1010.3 746.54,1008.51 739.99,1008.51 739.82,1008.51 739.82,1034.92 731.39,1034.92 
	731.39,1051.35 730.62,1051.35 730.62,1034.92 724.16,1034.92 "/>
<polygon id="_x30_1.27.05" class="st0" points="833.76,1044.11 833.76,1046.41 858.62,1046.41 858.62,1057.95 869.05,1057.95 
	869.05,1046.41 878.94,1046.41 878.94,1047.11 869.75,1047.11 869.75,1057.95 929.98,1057.95 929.98,1047.11 913.94,1047.11 
	913.94,1046.41 929.98,1046.41 929.98,1034.41 913.94,1034.41 913.94,1033.64 929.98,1033.64 929.98,1018.32 913.94,1018.32 
	913.94,1014.06 913.94,1002.16 913.94,1002.11 904.54,1002.11 904.54,1009.92 893.49,1009.92 885.65,1009.92 885.65,1009.21 
	893.1,1009.21 893.1,998.28 857.73,998.28 857.73,1001.75 857.73,1002.16 857.73,1009.21 877.99,1009.21 877.99,1009.92 
	857.03,1009.92 857.03,1002.16 847.52,1002.16 847.52,1003.53 847.03,1004.57 847.03,1008.64 847.52,1008.64 847.52,1009.92 
	833.76,1009.92 833.76,1019.43 833.76,1029 "/>
<polygon id="_x30_1.47.02" class="st0" points="779.05,77.66 779.05,85.62 786.27,85.62 787.56,85.62 791.84,85.62 791.84,54.48 
	792.24,54.48 792.24,51.57 791.84,51.57 791.84,51.28 774.18,51.28 774.18,55.54 773.37,55.54 773.37,51.28 746.99,51.28 
	746.99,51.57 746.18,51.57 746.18,50.88 746.18,48.94 734.74,48.94 734.74,56.07 739.44,56.07 739.44,58.62 738.63,58.62 
	738.63,56.88 734.33,56.88 732.22,56.88 732.22,86.47 738.63,86.47 738.63,77.26 738.63,74.92 738.63,67.07 739.44,67.07 
	739.44,74.51 773.37,74.51 773.37,70.26 774.18,70.26 774.18,74.51 784.64,74.51 784.64,67.07 785.45,67.07 785.45,74.28 
	785.45,74.49 785.45,74.92 785.45,77.66 "/>
<polygon id="_x30_1.42.01" class="st0" points="592.35,271.98 567.57,271.98 567.57,295.78 565.49,295.78 565.49,305.62 
	565.55,305.62 565.55,306.26 565.55,313.6 565.55,314.24 565.49,314.24 565.49,319.72 567.78,319.72 567.78,326.62 567.78,355.8 
	567.78,362.7 565.49,362.7 565.49,392.22 565.49,392.86 565.49,404.29 598.1,404.29 598.1,401.77 641.93,401.77 644.48,401.77 
	644.48,403.73 646.66,403.73 646.66,406.5 670.06,406.5 670.06,403.73 672.25,403.73 672.25,400.94 672.55,400.33 672.55,400.3 
	672.55,391.57 672.55,390.99 673.12,390.99 676.91,390.99 676.91,346.69 673.12,346.69 672.55,346.69 672.55,346.11 672.55,337.69 
	672.55,337.11 673.12,337.11 676.91,337.11 676.91,302.62 676.36,302.62 676.36,295.78 674.99,295.78 660.14,295.78 660.14,289.29 
	653.25,289.29 653.25,295.4 652.48,295.4 652.48,289.29 645.59,289.29 645.59,295.78 630.86,295.78 630.86,286.38 630.86,284.92 
	630.86,271.98 "/>
<polygon id="_x30_1.40.01" class="st0" points="565.27,405.06 564.38,405.06 564.38,418.76 565.04,418.76 565.04,415.65 
	589.97,415.65 589.97,423.76 597.67,423.76 597.67,418.65 598.44,418.65 598.44,424.15 598.44,424.4 644.35,424.4 644.35,415.82 
	644.35,413.48 645.12,413.48 645.12,415.44 648.1,415.44 656.11,415.44 663.94,415.44 671.96,415.44 676.36,415.44 676.36,401.55 
	673.12,401.55 673.02,401.55 673.02,404.5 670.58,404.5 670.58,407.02 646.14,407.02 646.14,404.5 644.09,404.5 643.7,404.5 
	642.19,404.5 642.19,407.02 641.67,407.02 641.67,404.28 641.67,402.54 598.87,402.54 598.87,405.06 "/>
<polygon id="_x30_1.38.01" class="st0" points="589.2,424.53 589.2,416.42 565.49,416.42 565.49,418.92 565.49,419.56 
	565.49,461.63 587.28,461.63 589.16,461.63 589.16,477.59 589.16,481.48 589.16,493.89 598.02,493.89 607.85,493.89 607.85,493.44 
	614.89,493.44 614.89,495.28 614.89,495.64 614.89,526.2 614.89,551.1 614.47,551.1 607.85,551.1 607.85,550.65 599.69,550.65 
	599.41,550.65 599.41,550.65 598.02,550.65 589.16,550.65 589.16,554.6 589.16,558.54 589.16,582.97 587.6,582.97 565.94,582.97 
	565.49,582.97 565.49,622.13 589.2,622.13 589.2,611.28 596.32,611.28 596.32,610.64 598.1,610.64 606.71,610.64 606.71,622.13 
	635.86,622.13 635.86,610.64 645.12,610.64 645.12,622.13 648,622.13 648,619.23 648.16,619.23 648.16,622.13 656.03,622.13 
	656.03,619.01 656.19,619.01 656.19,622.13 663.86,622.13 663.86,619.01 664.01,619.01 664.01,622.13 671.88,622.13 671.88,619.23 
	672.04,619.23 672.04,622.13 676.91,622.13 676.91,598.86 673.12,598.86 672.55,598.86 672.55,598.29 672.55,589.87 672.55,589.29 
	673.12,589.29 676.91,589.29 676.91,561.02 673.12,561.02 672.55,561.02 672.55,560.44 672.55,551.69 672.55,550.46 676.36,550.46 
	676.36,545.14 675.91,545.14 675.91,533.01 676.36,533.01 676.36,528.33 675.91,528.33 675.91,516.2 676.36,516.2 676.36,511.52 
	675.91,511.52 675.91,499.4 676.36,499.4 676.36,494.08 672.55,494.08 672.55,492.85 672.55,484.1 672.55,483.52 673.12,483.52 
	676.91,483.52 676.91,455.25 673.12,455.25 672.55,455.25 672.55,454.67 672.55,446.25 672.55,445.67 673.12,445.67 676.91,445.67 
	676.91,416.79 676.36,416.79 676.36,416.21 672.04,416.21 672.04,418.96 671.88,418.96 671.88,416.21 664.01,416.21 664.01,419.19 
	663.86,419.19 663.86,416.21 656.19,416.21 656.19,419.19 656.03,419.19 656.03,416.21 648.18,416.21 648.18,418.96 648.02,418.96 
	648.02,416.21 645.12,416.21 645.12,425.17 598.06,425.17 598.06,424.53 "/>
<polygon id="_x30_1.35.01" class="st0" points="592.43,757.02 630.86,757.02 630.86,749.64 630.86,748.86 631.64,748.86 
	645.59,748.86 645.59,755.24 652.48,755.24 652.48,749.24 653.25,749.24 653.25,755.24 660.14,755.24 660.14,748.86 674.99,748.86 
	676.36,748.86 676.36,741.92 676.91,741.92 676.91,707.42 673.12,707.42 672.55,707.42 672.55,706.85 672.55,698.43 672.55,697.85 
	673.12,697.85 676.91,697.85 676.91,653.54 673.12,653.54 672.55,653.54 672.55,652.97 672.55,644.24 672.55,644.21 672.27,643.6 
	672.27,637.37 672.27,634.5 671.01,634.5 671.01,631.59 647.61,631.59 647.61,634.5 646.29,634.5 646.29,636.28 596.61,636.28 
	596.61,634.5 565.49,634.5 565.49,651.68 565.49,652.32 565.49,681.77 568.38,681.77 568.38,682.48 564.88,682.48 564.88,683.43 
	564.38,683.43 564.38,723.22 565.49,723.22 565.49,730.3 565.55,730.3 565.55,730.94 565.55,738.27 565.55,738.91 565.49,738.91 
	565.49,749.55 565.55,749.55 565.55,750.19 565.55,772.87 591.66,772.87 591.66,757.41 591.66,749.21 592.43,749.21 "/>
<polygon id="_x30_1.18.03" class="st0" points="1298.76,857.79 1291.66,857.79 1291.66,865.01 1291.66,872.11 1291.66,877.4 
	1310.46,877.4 1310.46,876.55 1325.14,876.55 1325.14,737.52 1318.67,737.52 1318.67,736.71 1325.55,736.71 1327.48,736.71 
	1327.48,725.74 1320.36,725.74 1320.36,729.62 1318.67,729.62 1318.67,728.81 1319.55,728.81 1319.55,725.33 1319.55,722.44 
	1308.51,722.44 1307.83,722.44 1307.83,728.82 1312.29,728.82 1312.29,729.63 1307.42,729.63 1301.81,729.63 1301.81,793.58 
	1308.3,793.58 1308.3,794.39 1301.4,794.39 1299.17,794.39 1295.92,794.39 1293.36,794.39 1293.36,802.19 1299.17,802.19 
	1299.17,802.05 1301.4,802.05 1308.3,802.05 1308.3,802.86 1301.81,802.86 1301.81,870.17 1308.51,870.17 1308.51,870.98 
	1301.4,870.98 1298.76,870.98 "/>
<polygon id="_x30_1.15.02" class="st0" points="1284.85,556.95 1299.17,556.95 1301.4,556.95 1304.92,556.95 1304.92,557.76 
	1301.81,557.76 1301.81,639.11 1307.42,639.11 1312.48,639.11 1312.48,639.93 1307.83,639.93 1307.83,646.35 1308.51,646.35 
	1319.55,646.35 1319.55,643.74 1319.55,639.93 1318.34,639.93 1318.34,639.11 1320.36,639.11 1320.36,643.33 1327.48,643.33 
	1327.48,632.13 1325.14,632.13 1325.14,550.14 1316.58,550.14 1316.58,557.76 1311.3,557.76 1311.3,550.14 1289.21,550.14 
	1284.85,550.14 "/>
<polygon id="_x30_1.12.02" class="st0" points="1327.48,411.98 1327.48,400.7 1320.36,400.7 1320.36,405.42 1318.34,405.42 
	1318.34,404.61 1319.55,404.61 1319.55,400.3 1319.55,398.19 1308.51,398.19 1307.62,398.19 1307.62,404.61 1312.48,404.61 
	1312.48,405.42 1307.21,405.42 1301.91,405.42 1301.91,486.78 1304.88,486.78 1304.88,487.59 1301.51,487.59 1299.17,487.59 
	1292.51,487.59 1292.51,494.4 1302.99,494.4 1304.04,494.4 1304.28,494.4 1311.3,494.4 1311.3,486.78 1316.33,486.78 1316.33,494.4 
	1325.14,494.4 1325.14,411.98 "/>
<polygon id="_x30_1.05.01" class="st0" points="1208.44,103.63 1208.44,99.5 1208.11,99.5 1208.11,90.91 1208.11,69.39 
	1208.11,62.02 1209.06,62.02 1209.06,49.22 1156.13,49.22 1156.13,50.86 1140.75,50.86 1140.75,49.22 1127.13,49.22 1127.13,51.52 
	1125.01,51.52 1125.01,49.79 1125.01,49.39 1113.07,49.39 1113.07,62.25 1113.07,62.89 1113.07,64.15 1121.56,64.15 1121.56,103.91 
	1136.92,103.91 1136.92,105.19 1150.53,105.19 1150.53,103.91 1160.75,103.91 1160.75,105.19 1205,105.19 1205,101.22 
	1206.06,101.22 1206.06,99.5 1206.52,99.5 1206.52,101.22 1205.45,101.22 1205.45,105.19 1208.44,105.19 1208.44,104.78 "/>
<polygon id="_x30_1.49.01A" class="st0" points="901.22,78.85 901.22,77.88 894,77.88 883.3,77.88 883.3,77.9 883.3,88.89 
	836.2,88.89 835.22,88.89 835.22,87.37 817.31,87.37 817.31,90.3 817.31,105.19 858.2,105.19 858.2,105.6 860.33,105.6 
	860.33,105.19 901.22,105.19 "/>
<polygon id="EL01" class="st0" points="1051.07,986.63 1051.07,986.73 1066.6,986.73 1066.6,973.08 1066.6,970.77 1054.98,970.77 
	1051.07,970.77 1051.07,974.26 "/>
<rect id="EL02" x="1067.41" y="973.48" class="st0" width="9.83" height="13.24"/>
<polygon id="ST01" class="st0" points="1100.79,1005.52 1088.02,1005.52 1088.02,1017.3 1088.02,1027.96 1100.79,1027.96 "/>
<rect id="EL03" x="724.16" y="977.64" class="st0" width="12.38" height="9.08"/>
<g id="LWPOLYLINE_7_" class="st1">
	
		<rect x="701.91" y="217.86" transform="matrix(0.7071 -0.7071 0.7071 0.7071 52.3578 562.7605)" class="st2" width="7.16" height="0.64"/>
</g>
<g id="LWPOLYLINE_8_" class="st1">
	
		<rect x="705.13" y="221.16" transform="matrix(0.7071 -0.7071 0.7071 0.7071 50.9041 565.8597)" class="st2" width="6.75" height="0.64"/>
</g>
<g id="LWPOLYLINE_10_" class="st1">
	<rect x="693.39" y="688.3" class="st2" width="0.64" height="9.53"/>
</g>
<g id="LWPOLYLINE_11_" class="st1">
	<rect x="697.86" y="346.7" class="st2" width="0.64" height="9.53"/>
</g>
<g id="LWPOLYLINE_12_" class="st1">
	<rect x="693.39" y="346.7" class="st2" width="0.64" height="9.53"/>
</g>
<g id="LWPOLYLINE_13_" class="st1">
	
		<rect x="1196.44" y="227.46" transform="matrix(0.7071 -0.7071 0.7071 0.7071 189.6861 915.1906)" class="st2" width="6.28" height="2.32"/>
</g>
<rect id="_x30_1.31.08" x="625.68" y="830.98" class="st0" width="15.74" height="45.17"/>
<polygon id="_x30_1.31.09" class="st0" points="624.87,876.16 624.87,830.98 621.5,830.98 621.5,830.17 625.27,830.17 
	641.42,830.17 641.42,824.39 611.78,824.39 611.78,830.98 592.46,830.98 592.46,877.15 592.67,877.15 592.67,876.16 613.52,876.16 
	"/>
<polygon id="_x30_1.32.01" class="st0" points="592.46,823.33 592.46,830.17 610.97,830.17 610.97,823.98 610.97,822.08 
	610.97,816.94 601.55,816.94 600.97,816.94 593.58,816.94 593.58,823.33 "/>
<polygon id="_x30_1.34.03" class="st0" points="631.63,759.84 631.63,785.9 644.82,785.9 644.82,784.28 645.59,784.28 
	645.59,786.12 645.59,787.17 652.48,787.17 652.48,784.3 656.34,784.3 656.34,771.53 652.48,771.53 652.48,767.34 652.48,756.01 
	645.59,756.01 645.59,758.15 645.59,759.62 645.59,759.85 645.59,771.52 642.38,771.52 642.38,759.84 "/>
<polygon id="_x30_1.34.01" class="st0" points="660.91,787.17 674.77,787.17 674.77,749.63 660.91,749.63 660.91,755.63 
	660.91,760.27 660.14,760.27 660.14,756.01 653.25,756.01 653.25,767.08 660.91,767.08 660.91,771.53 657.11,771.53 657.11,784.3 
	660.91,784.3 "/>
<polygon id="_x30_1.34.04" class="st0" points="631.63,749.63 631.63,757.41 631.63,757.93 644.82,757.93 644.82,755.63 
	644.82,749.63 "/>
<polygon id="_x30_1.34.02" class="st0" points="660.14,767.6 653.25,767.6 653.25,771.01 656.72,771.01 660.14,771.01 "/>
<polygon id="EL06" class="st0" points="623.74,769.71 613.9,769.71 613.9,770.12 613.9,782.37 623.74,782.37 "/>
<rect id="EL05" x="613.9" y="782.37" class="st0" width="9.84" height="13.83"/>
<polygon id="EL04" class="st0" points="627.14,796.13 624.13,796.13 624.13,796.2 623.45,796.2 613.9,796.2 613.9,796.27 
	613.9,806.97 608.98,806.97 608.98,808.58 627.14,808.58 627.14,806.76 "/>
<polygon id="ST03" class="st0" points="611.78,821.73 641.49,821.73 641.49,809.28 634.75,809.28 627.49,809.28 608.75,809.28 
	601.54,809.28 601.54,816.13 611.78,816.13 "/>
<polygon id="_x30_1.33.02" class="st0" points="630.86,757.8 592.43,757.8 592.43,773.65 565.55,773.65 565.55,806.76 
	567.03,806.76 567.03,808.54 592.35,808.54 592.35,808.23 592.35,795.88 613.19,795.88 613.19,782.37 613.19,769.71 611.48,769.71 
	611.48,764.18 617.05,764.18 624.44,764.18 624.44,768.85 624.44,769.39 624.44,782.37 624.44,795.43 627.49,795.43 637.09,795.43 
	637.09,795.04 637.16,795.04 637.16,787.94 630.86,787.94 630.86,786.12 630.86,759.62 630.86,758.15 "/>
<g id="LWPOLYLINE_27_" class="st1">
	<rect x="642.57" y="710.46" class="st2" width="2.55" height="1.91"/>
</g>
<g id="LWPOLYLINE_28_" class="st1">
	<rect x="642.57" y="656.41" class="st2" width="2.55" height="1.91"/>
</g>
<g id="LWPOLYLINE_29_" class="st1">
	<rect x="597.78" y="656.41" class="st2" width="1.91" height="1.91"/>
</g>
<g id="LWPOLYLINE_30_" class="st1">
	<rect x="614.91" y="710.46" class="st2" width="1.91" height="1.91"/>
</g>
<g id="LWPOLYLINE_32_" class="st1">
	<rect x="620.78" y="559.65" class="st2" width="0.77" height="1.22"/>
</g>
<g id="LWPOLYLINE_33_" class="st1">
	<rect x="613.36" y="559.65" class="st2" width="0.77" height="1.24"/>
</g>
<g id="LWPOLYLINE_34_" class="st1">
	<rect x="611.08" y="430.67" class="st2" width="20.21" height="0.77"/>
</g>
<g id="LWPOLYLINE_35_" class="st1">
	<polygon class="st2" points="612.22,614.5 611.45,614.5 611.45,610.67 631.1,610.67 631.1,614.5 630.33,614.5 630.33,611.44 
		612.22,611.44 	"/>
</g>
<polygon id="_x30_1.39.02" class="st0" points="587.28,477.81 580.8,477.81 580.8,481.22 588.39,481.22 588.39,477.81 "/>
<polygon id="_x30_1.39.01" class="st0" points="580.28,477.3 587.28,477.3 587.28,477.36 588.46,477.36 588.46,462.34 
	587.28,462.34 587.28,462.4 564.88,462.4 564.88,463.23 564.38,463.23 564.38,480.97 571.66,480.97 571.66,481.74 564.38,481.74 
	564.38,488.44 567.83,488.44 567.83,493.63 580.6,493.63 580.6,488.03 581.37,488.03 581.37,493.85 581.37,495.31 581.37,497.67 
	588.39,497.67 588.39,494.28 588.39,481.74 580.28,481.74 "/>
<polygon id="_x30_1.38.05" class="st0" points="567.83,504.76 580.6,504.76 580.6,498.05 580.6,495.54 567.83,495.54 "/>
<polygon id="_x30_1.37.01" class="st0" points="580.6,539.85 567.74,539.85 567.74,546.84 566.89,546.84 566.89,549.71 
	566.89,549.87 566.89,551.15 566.89,554.34 572.78,554.34 572.78,555.11 566.54,555.11 566.29,555.11 566.29,582.2 587.25,582.2 
	587.25,558.84 580.28,558.84 580.28,554.34 588.39,554.34 588.39,550.26 588.39,546.23 581.37,546.23 581.37,546.64 580.6,546.64 
	580.6,545.84 "/>
<g id="LWPOLYLINE_41_" class="st1">
	<rect x="600.44" y="393.44" class="st2" width="41.7" height="0.77"/>
</g>
<polygon id="_x30_1.43.04" class="st0" points="565.55,271.21 567.34,271.21 592.35,271.21 592.35,271 630.86,271 630.86,258.11 
	630.86,256.6 637.16,256.6 637.16,248.68 629.97,248.68 624.48,248.68 624.48,250.89 624.48,264.36 613.5,264.36 613.5,250.89 
	613.5,237.78 601.86,237.78 601.19,237.78 601.19,237.66 592.35,237.66 592.35,236 567.03,236 567.03,237.78 565.55,237.78 "/>
<polygon id="_x30_1.43.03" class="st0" points="631.63,271.49 631.63,284.69 642.38,284.69 642.38,273.02 645.59,273.02 
	645.59,284.69 645.59,284.92 645.59,286.38 645.59,288.52 652.48,288.52 652.48,277.2 652.48,273.02 656.31,273.02 656.31,260.25 
	652.48,260.25 652.48,257.37 645.59,257.37 645.59,258.11 645.59,260.25 644.82,260.25 644.82,258.34 637.73,258.34 631.63,258.34 
	"/>
<polygon id="_x30_1.43.01" class="st0" points="674.77,257.37 660.91,257.37 660.91,260.25 657.08,260.25 657.08,273.02 
	660.91,273.02 660.91,277.46 653.25,277.46 653.25,288.52 660.14,288.52 660.14,284.27 660.91,284.27 660.91,288.91 660.91,295.01 
	674.77,295.01 "/>
<polygon id="_x30_1.42.02" class="st0" points="631.63,286.61 631.63,295.01 644.82,295.01 644.82,288.91 644.82,286.61 "/>
<polygon id="_x30_1.43.05" class="st0" points="641.49,237.17 641.49,236.02 624.48,236.02 624.48,242.59 630.36,242.59 
	630.36,247.91 637.15,247.91 637.73,247.91 641.49,247.91 "/>
<rect id="_x30_1.45.01" x="625.68" y="168.47" class="st0" width="15.74" height="45.08"/>
<polygon id="_x30_1.45.02" class="st0" points="624.87,213.55 624.87,168.47 592.67,168.47 592.67,167.38 592.46,167.38 
	592.46,213.55 611.78,213.55 611.78,220.15 641.42,220.15 641.42,214.36 625.27,214.36 621.29,214.36 621.29,213.55 "/>
<polygon id="_x30_1.44.02" class="st0" points="592.46,214.36 592.46,221.21 593.58,221.21 593.58,227.59 601.86,227.59 
	602.44,227.59 610.97,227.59 610.97,222.45 610.97,220.55 610.97,214.36 "/>
<polygon id="ST05" class="st0" points="641.49,235.25 641.49,222.81 611.78,222.81 611.78,228.4 602.43,228.4 602.43,232.99 
	602.26,232.99 602.26,235.25 613.02,235.25 623.77,235.25 624.13,235.25 "/>
<polygon id="EL08" class="st0" points="602.43,237.33 614.2,237.33 614.2,250.89 623.78,250.89 623.78,248.3 623.78,242.98 
	623.78,235.96 613.02,235.96 602.26,235.96 602.26,236.53 602.43,236.53 602.43,237.21 "/>
<rect id="EL07" x="614.2" y="250.89" class="st0" width="9.57" height="12.45"/>
<g id="LWPOLYLINE_54_" class="st1">
	<rect x="603.25" y="416.21" class="st2" width="36" height="0.77"/>
</g>
<polygon id="ST04" class="st0" points="614.12,525.78 614.12,495.99 600.12,495.99 600.12,497.25 600.12,498.53 600.12,505.11 
	600.12,525.78 "/>
<polygon id="_x30_1.36.01" class="st0" points="676.36,637.14 676.36,622.9 671.96,622.9 663.94,622.9 656.11,622.9 648.08,622.9 
	644.35,622.9 644.35,611.42 636.63,611.42 636.63,622.9 605.94,622.9 605.94,611.42 598.1,611.42 598.1,612.05 596.32,612.05 
	589.97,612.05 589.97,622.9 565.49,622.9 565.49,626.63 564.38,626.63 564.38,633.73 565.27,633.73 597.38,633.73 597.38,635.51 
	645.52,635.51 645.52,633.73 647.09,633.73 647.09,631.07 671.53,631.07 671.53,633.73 673.04,633.73 673.04,637.14 "/>
<polygon id="_x30_1.38.02" class="st0" points="614.06,526.62 599.97,526.62 599.97,549.81 607.85,549.81 614.06,549.81 "/>
<polygon id="_x30_1.33.01" class="st0" points="641.49,796.2 637.73,796.2 637.09,796.2 627.84,796.2 627.84,806.41 641.49,806.41 
	641.49,805.07 641.49,797.41 "/>
<polygon id="_x30_1.37.02" class="st0" points="588.39,558.32 588.39,554.86 580.8,554.86 580.8,558.32 587.6,558.32 "/>
<polygon id="_x30_1.43.02" class="st0" points="653.25,276.94 660.14,276.94 660.14,273.54 656.7,273.54 653.25,273.54 "/>
<polygon id="_x30_1.29.01A" class="st0" points="813.56,939.35 744.12,939.35 744.12,950.81 802.59,950.81 802.59,951.2 
	807.06,951.2 807.06,950.81 807.73,950.81 813.56,950.81 "/>
<polygon id="_x30_1.29.06" class="st0" points="749.62,967.68 743.31,967.68 743.31,953.82 743.31,953.81 736.7,953.81 
	736.7,953.82 736.7,959.89 736.7,976.83 737.35,976.83 737.35,987.54 732.84,987.54 732.84,988.36 739.97,988.36 739.97,976.36 
	747.27,976.36 747.27,977.17 740.78,977.17 740.78,987.92 752.06,987.92 752.06,982.81 752.87,982.81 752.87,987.92 806.64,987.92 
	806.64,982.81 807.46,982.81 807.46,987.92 818.27,987.92 822.24,987.92 822.24,976.85 821.16,976.85 812.99,976.85 812.99,976.04 
	820.75,976.04 820.75,953.81 814.61,953.81 814.37,953.81 814.37,967.68 807.86,967.68 807.46,967.68 807.46,971.94 806.64,971.94 
	806.64,967.92 806.64,967.68 773.36,967.68 773.36,971.94 772.55,971.94 772.55,967.68 752.87,967.68 752.87,971.94 752.06,971.94 
	752.06,967.68 749.98,967.68 749.66,967.68 "/>
<polygon id="_x30_1.27.02" class="st0" points="821.56,953.81 821.56,976.04 822.65,976.04 829.48,976.04 829.48,976.85 
	823.05,976.85 823.05,987.92 835.88,987.92 835.88,979.13 836.69,979.13 836.69,987.92 910.05,987.92 910.05,979.13 910.86,979.13 
	910.86,987.92 925.86,987.92 925.86,976.85 925.41,976.85 916.81,976.85 916.81,976.04 925.01,976.04 925.01,953.81 918.62,953.81 
	918.62,967.68 912.31,967.68 894.57,967.68 894.57,971.96 893.76,971.96 893.76,967.68 856.1,967.68 856.1,971.94 855.29,971.94 
	855.29,967.68 842.65,967.68 842.65,971.47 835.88,971.47 835.88,967.68 829.15,967.68 827.99,967.68 827.99,953.81 "/>
<polygon id="_x30_1.25.03" class="st0" points="930.75,1057.95 1032.88,1057.95 1032.88,1028.81 1032.84,1028.81 1032.84,1028.17 
	1032.84,1023.74 1032.84,1023.3 1032.88,1023.3 1032.88,1023.1 1032.88,1020.58 1032.88,1020.18 1036.72,1016.34 1044.19,1008.87 
	1033.6,998.28 930.75,998.28 930.75,1001.8 930.75,1017.94 930.75,1034.03 930.75,1046.76 "/>
<polygon id="_x30_1.22.07" class="st0" points="1158.26,1018.88 1158.26,1011.3 1142.31,1011.3 1135.72,1004.7 1101.6,1004.7 
	1101.6,1028.77 1087.65,1028.77 1087.65,1050.37 1087.65,1051.01 1087.65,1057.95 1104.36,1057.95 1104.36,1058.49 1140.53,1058.49 
	1140.53,1044.72 1140.53,1018.88 "/>
<g id="LWPOLYLINE_68_" class="st1">
	<rect x="853.73" y="1033.64" class="st2" width="50.74" height="0.77"/>
</g>
<g id="LWPOLYLINE_69_" class="st1">
	<rect x="886.6" y="1046.41" class="st2" width="19.68" height="0.7"/>
</g>
<polygon id="_x30_1.28.01" class="st0" points="832.99,1019.04 832.99,1009.53 832.99,998.28 818.73,998.28 818.73,1019.04 "/>
<polygon id="_x30_1.22.01A" class="st0" points="1156.53,939.35 1088.75,939.35 1088.75,950.81 1095.41,950.81 1124.9,950.81 
	1124.9,951.47 1129.36,951.47 1129.36,948.85 1130.13,948.85 1130.13,951.47 1156.53,951.47 "/>
<polygon id="_x30_1.31.04" class="st0" points="662.86,994.74 707.56,994.74 707.56,983.61 715.22,983.61 715.22,953.81 
	708.41,953.81 708.41,967.28 708.41,976.83 707.6,976.83 707.6,967.68 633.84,967.68 633.48,967.68 633.48,971.68 633.48,973.13 
	633.48,976.83 632.67,976.83 632.67,973.54 609.8,973.54 609.8,976.09 606.44,976.09 606.44,975.28 608.99,975.28 608.99,973.13 
	608.99,947.19 605.08,947.19 605.08,946.38 609.39,946.38 610.44,946.38 610.44,939.35 598.28,939.35 598.28,947.19 594.03,947.19 
	594.03,973.61 596.58,973.61 596.58,974.43 593.62,974.43 592.53,974.43 592.53,979.43 593.38,979.43 593.38,995.52 592.53,995.52 
	592.53,995.6 645.8,995.6 645.8,994.74 "/>
<polygon id="_x30_1.27.04" class="st0" points="1158.26,1011.3 1158.26,996.43 1158.26,995.43 1152.23,988.73 1150.51,988.73 
	1126.32,988.73 1102.07,988.73 1077.64,988.73 1076.75,988.73 1070.83,988.73 1066.6,988.73 1066.6,987.54 1051.92,987.54 
	1051.92,988.73 1050.26,988.73 1050.26,987.55 1050.26,987.13 1050.26,969.96 1066.6,969.96 1066.6,961.56 1066.6,939.35 
	1030.12,939.35 1030.12,945.34 1033.9,945.34 1033.9,953.13 1033.9,964.94 1033.9,988.73 1009.66,988.73 994.17,988.73 
	939.52,988.73 926.26,988.73 910.45,988.73 836.28,988.73 822.65,988.73 818.27,988.73 818.27,989.07 739.97,989.07 739.73,989.07 
	732.39,989.07 732.39,987.54 727.28,987.54 727.28,989.07 723.02,989.07 723.02,987.77 723.02,975.28 723.35,975.28 723.35,971.02 
	723.02,971.02 723.02,953.81 716.37,953.81 716.37,995.72 716.37,1002.42 740.16,1002.42 740.16,1007.74 746.54,1007.74 
	746.54,1001.91 746.54,999.84 746.54,997.7 747.31,997.7 747.31,999.49 754.04,999.49 754.04,997.47 765.29,997.47 765.29,1001.28 
	772.03,1001.28 772.03,997.47 779.57,997.47 781.18,997.47 781.18,998.24 779.96,998.24 779.96,1004.23 784.5,1004.23 
	789.12,1004.23 789.12,998.24 787.56,998.24 787.56,997.47 789.5,997.47 796.53,997.47 805.54,997.47 805.54,1001.28 
	811.92,1001.28 811.92,997.47 818.49,997.47 833.37,997.47 847.56,997.47 847.56,1001.35 856.92,1001.35 856.92,997.47 
	893.49,997.47 904.58,997.47 904.58,1001.3 913.94,1001.3 913.94,997.47 930.4,997.47 1033.94,997.47 1045.04,1008.57 
	1047.13,1010.66 1054.85,1010.66 1063.85,1010.66 1063.85,1004.7 1073.33,1004.7 1076.98,1004.7 1083.37,1004.7 1087.04,1004.7 
	1087.62,1004.7 1101.19,1004.7 1101.83,1004.7 1135.72,1004.7 1142.31,1011.3 "/>
<rect id="_x30_1.30.03" x="708.18" y="1034.92" class="st0" width="15.17" height="23.03"/>
<polygon id="_x30_1.21.01" class="st0" points="1180.28,975.38 1209.51,975.38 1209.51,963.71 1203.98,963.71 1203.98,963.26 
	1209.51,963.26 1209.51,952.56 1207.99,953.39 1207.99,953.2 1207.99,943.2 1206.7,943.2 1206.7,942.75 1201.6,942.75 1201.6,943.2 
	1198.63,943.2 1198.63,939.8 1180.28,939.8 1180.28,955.36 1180.28,963.26 1196.34,963.26 1196.34,963.71 1180.28,963.71 "/>
<polygon id="_x30_1.25.02" class="st0" points="932.2,967.68 932.2,962.55 932.2,953.81 925.82,953.81 925.82,976.04 926.26,976.04 
	933.16,976.04 933.16,976.85 926.67,976.85 926.67,987.92 939.11,987.92 939.11,982.81 939.93,982.81 939.93,987.92 993.77,987.92 
	993.77,982.79 994.58,982.79 994.58,987.92 1009.26,987.92 1009.26,977.28 1000.54,977.28 1000.54,976.47 1009.26,976.47 
	1009.26,965.35 1009.26,965.34 1009.26,964.94 1009.26,953.54 1002.45,953.54 1002.45,967.68 996.15,967.68 995.8,967.68 
	995.79,967.68 994.58,967.68 994.58,971.94 993.77,971.94 993.77,967.68 977.39,967.68 977.39,971.94 976.57,971.94 976.57,967.68 
	939.93,967.68 939.93,971.94 939.11,971.94 939.11,967.68 "/>
<polygon id="_x30_1.23.01A" class="st0" points="1087.98,939.35 1067.41,939.35 1067.41,961.3 1078.29,961.3 1078.29,966.87 
	1084.15,966.87 1084.15,954.67 1087.98,954.67 1087.98,953.14 1087.98,951.2 "/>
<polygon id="_x30_1.22.02" class="st0" points="1150.92,975.38 1179.47,975.38 1179.47,963.48 1179.47,955.77 1165.41,955.77 
	1157.3,955.77 1157.3,967.68 1150.92,967.68 "/>
<polygon id="_x30_1.25.01A" class="st0" points="1001.64,939.35 933.05,939.35 933.05,950.81 933.4,950.81 934.23,950.81 
	934.23,951.2 938.7,951.2 938.7,950.81 1001.64,950.81 "/>
<polygon id="_x30_1.24.03" class="st0" points="1010.07,953.54 1010.07,964.53 1010.08,964.53 1033.09,964.53 1033.09,953.54 
	1029.71,953.54 1021.33,953.54 "/>
<polygon id="_x30_1.21.02" class="st0" points="1179.47,954.96 1179.47,939.57 1179.47,939.21 1165.67,939.21 1165.67,942.37 
	1165.81,942.37 1165.81,946.62 1165.67,946.62 1165.67,954.96 "/>
<polygon id="_x30_1.21.03" class="st0" points="1158.4,995.6 1209.51,995.6 1209.51,995.52 1208.66,995.52 1208.66,978.57 
	1209.51,978.57 1209.51,976.19 1179.87,976.19 1150.92,976.19 1150.92,987.92 1151.51,987.92 1158.25,995.43 "/>
<polygon id="_x30_1.23.04" class="st0" points="1055.27,1028.81 1055.27,1034.38 1065.76,1034.38 1065.76,1031.34 1065.76,1026.73 
	1066.53,1026.73 1066.53,1030.95 1072.91,1030.95 1072.91,1015.87 1063.13,1015.87 1063.13,1019.92 1062.61,1019.92 
	1062.61,1015.65 1062.61,1013.22 1055.27,1013.22 "/>
<polygon id="_x30_1.22.03" class="st0" points="1126.58,967.68 1126.58,987.92 1150.11,987.92 1150.11,975.79 1150.11,967.68 "/>
<rect id="_x30_1.24.02" x="1010.07" y="943.43" class="st0" width="10.88" height="9.3"/>
<polygon id="_x30_1.29.02" class="st0" points="735.69,953 735.69,943.85 724.12,943.85 724.12,953 731.92,953 "/>
<polygon id="_x30_1.31.02A" class="st0" points="707.6,951.3 707.6,939.35 633.48,939.35 633.48,946.56 633.48,950.81 
	633.84,950.81 679.27,950.81 679.27,951.3 683.74,951.3 683.74,949.39 684.26,949.39 684.26,951.3 "/>
<polygon id="_x30_1.29.07" class="st0" points="738.12,1057.95 772.03,1057.95 772.03,1054.98 772.03,1044.11 772.03,1023.04 
	772.03,1001.8 765.29,1001.8 765.29,1010.39 765.29,1013.17 764.52,1013.17 764.52,1010.65 754.85,1010.65 754.6,1010.65 
	754.21,1010.65 747.31,1010.65 747.31,1046.11 739.47,1046.11 738.12,1046.11 "/>
<polygon id="_x30_1.27.01A" class="st0" points="917.81,939.35 828.8,939.35 828.8,950.81 829.15,950.81 875.66,950.81 
	875.66,951.2 880.13,951.2 880.13,950.81 895.62,950.81 911.89,950.81 917.81,950.81 "/>
<polygon id="_x30_1.23.05" class="st0" points="1055.27,1037.15 1055.27,1056.19 1062.36,1056.19 1062.36,1052.9 1063.13,1052.9 
	1063.13,1056.19 1072.91,1056.19 1072.91,1040.16 1066.53,1040.16 1066.53,1044.28 1065.76,1044.28 1065.76,1039.77 
	1065.76,1037.15 "/>
<rect id="_x30_1.22.04" x="1102.33" y="967.68" class="st0" width="23.74" height="20.23"/>
<polygon id="_x30_1.23.02" class="st0" points="1078.05,973.08 1078.05,987.13 1078.05,987.92 1101.81,987.92 1101.81,967.68 
	1095.29,967.68 1088.33,967.68 1084.41,967.68 1078.58,967.68 1078.58,971.2 1078.05,971.2 1078.05,972.66 1078.05,972.67 "/>
<polygon id="_x30_1.23.03" class="st0" points="1073.69,1057.95 1086.88,1057.95 1086.88,1057.39 1087.65,1056.75 1087.65,1051.01 
	1086.88,1051.01 1086.88,1050.37 1086.88,1028.78 1086.88,1028.77 1086.88,1005.52 1083.37,1005.52 1076.98,1005.52 
	1073.69,1005.52 1073.69,1014.21 1073.69,1015.65 1073.69,1031.21 1075.07,1031.21 1075.07,1031.73 1073.3,1031.73 1066.53,1031.73 
	1066.53,1034.74 1066.53,1036.8 1066.53,1039.38 1073.3,1039.38 1075.07,1039.38 1075.07,1039.9 1073.69,1039.9 1073.69,1056.42 "/>
<polygon id="_x30_1.24.04" class="st0" points="1010.07,987.92 1033.09,987.92 1033.09,965.34 1010.07,965.34 1010.07,976.87 "/>
<polygon id="_x30_1.31.06" class="st0" points="691.07,1006.25 707.03,1006.25 707.03,1002.42 715.6,1002.42 715.6,1002.41 
	715.6,995.89 662.92,995.89 662.92,1027.22 667.07,1027.22 667.07,1027.99 663.47,1027.99 663.47,1044.22 675.14,1044.22 
	675.14,1040.62 675.92,1040.62 675.92,1044.22 683.11,1044.22 690.3,1044.22 690.3,1031.83 690.3,1019.17 690.3,1006.51 
	690.3,1002.64 691.07,1002.64 "/>
<polygon id="_x30_1.31.07" class="st0" points="682.72,1045 675.53,1045 663.47,1045 663.47,1049.36 662.92,1049.36 662.92,1057.95 
	663.02,1057.95 682.72,1057.95 "/>
<rect id="_x30_1.30.04" x="691.07" y="1006.77" class="st0" width="15.96" height="12.14"/>
<rect id="_x30_1.30.06" x="691.07" y="1032.08" class="st0" width="15.96" height="12.14"/>
<rect id="_x30_1.30.05" x="691.07" y="1019.43" class="st0" width="15.96" height="12.14"/>
<polygon id="_x30_1.30.07" class="st0" points="706.98,1057.95 706.98,1045 690.69,1045 683.49,1045 683.49,1057.95 "/>
<polygon id="_x30_1.28.03" class="st0" points="772.8,1022.66 785.01,1022.66 785.01,1019.43 785.01,1019.03 785.01,1012.36 
	784.5,1012.36 778.52,1012.36 778.52,1011.59 784.12,1011.59 784.12,1005 779.18,1005 779.18,998.24 772.8,998.24 772.8,1001.54 "/>
<polygon id="_x30_1.28.02" class="st0" points="789.89,1005 784.89,1005 784.89,1011.59 785.36,1011.59 787.64,1011.59 
	789.89,1011.59 789.89,1012.36 787.99,1012.36 787.99,1019.04 803.31,1019.04 803.31,1011.1 796.27,1011.1 796.27,998.24 
	789.89,998.24 "/>
<polygon id="_x30_1.28.04" class="st0" points="832.99,1043.85 832.99,1029.38 829.37,1029.38 829.37,1028.61 832.99,1028.61 
	832.99,1019.81 818.49,1019.81 818.23,1019.81 812.69,1019.81 812.69,1023.2 811.92,1023.2 811.92,1019.56 811.92,1001.8 
	805.54,1001.8 805.54,1006.82 805.54,1007.05 805.54,1010.84 805.54,1019.43 805.54,1023.2 804.77,1023.2 804.77,1019.81 
	803.53,1019.81 787.64,1019.81 785.78,1019.81 785.78,1023.43 772.8,1023.43 772.8,1043.85 787.61,1043.85 802.61,1043.85 
	817.82,1043.85 "/>
<polygon id="_x30_1.22.06" class="st0" points="1158.26,1057.95 1158.26,1045.13 1141.34,1045.13 1141.34,1057.92 1141.34,1057.95 
	"/>
<polygon id="_x30_1.28.05" class="st0" points="832.99,1054.76 832.99,1046.79 832.99,1044.37 818.08,1044.37 818.08,1057.95 
	826.5,1057.95 826.5,1054.76 "/>
<polygon id="_x30_1.28.08" class="st0" points="779.29,1057.95 787.35,1057.95 787.35,1044.37 772.8,1044.37 772.8,1054.76 
	779.29,1054.76 "/>
<polygon id="_x30_1.24.01" class="st0" points="1029.31,939.35 1021.72,939.35 1021.72,941.07 1021.72,942.72 1021.72,942.72 
	1021.72,943.08 1021.72,952.72 1029.31,952.72 1029.31,945.75 "/>
<polygon id="_x30_1.29.05" class="st0" points="724.16,976.83 735.89,976.83 735.89,960.3 731.92,960.3 724.16,960.3 724.16,971.02 
	724.16,975.28 "/>
<rect id="_x30_1.28.06" x="802.87" y="1044.37" class="st0" width="14.69" height="13.58"/>
<rect id="_x30_1.28.07" x="787.87" y="1044.37" class="st0" width="14.48" height="13.58"/>
<polygon id="_x30_1.29.08" class="st0" points="754.56,1001.91 754.56,1010.13 764.77,1010.13 764.77,1001.54 764.77,998.18 
	754.56,998.18 754.56,999.84 754.56,1001.55 "/>
<polygon id="_x30_1.26.01" class="st0" points="933.01,962.96 933.01,966.87 939.11,966.87 939.11,962.96 933.4,962.96 "/>
<rect id="_x30_1.31.05" x="594.03" y="939.35" class="st0" width="3.44" height="7.03"/>
<polygon id="_x30_1.29.03" class="st0" points="732.33,959.49 735.89,959.49 735.89,953.81 735.68,953.81 732.33,953.81 "/>
<rect id="_x30_1.27.03" x="836.69" y="967.68" class="st0" width="5.15" height="2.97"/>
<rect id="_x30_1.30.01" x="708.37" y="984.43" class="st0" width="6.85" height="10.32"/>
<polygon id="_x30_1.27.06" class="st0" points="833.76,998.28 833.76,1009.15 846.75,1009.15 846.75,1008.64 847.03,1008.64 
	847.03,1004.57 846.75,1003.53 846.75,1002.16 846.75,1001.75 846.75,998.28 "/>
<polygon id="_x30_1.26.02" class="st0" points="893.88,1009.92 903.77,1009.92 903.77,1002.12 903.77,1001.71 903.77,998.28 
	893.88,998.28 893.88,1009.56 "/>
<polygon id="_x30_1.26.03" class="st0" points="929.98,1017.55 929.98,1002.15 914.71,1002.15 914.71,1014.06 914.71,1017.55 "/>
<polygon id="_x30_1.27.07" class="st0" points="833.76,1054.98 833.76,1057.95 857.85,1057.95 857.85,1047.18 833.76,1047.18 "/>
<polygon id="_x30_1.24.05" class="st0" points="1054.5,1028.43 1054.5,1012.99 1054.5,1012.76 1054.5,1011.47 1046.79,1011.47 
	1044.74,1009.41 1037.27,1016.88 1037.1,1016.72 1033.74,1020.08 1035.5,1021.84 1035.85,1022.2 1035.85,1023.32 1034.89,1023.32 
	1032.84,1023.32 1032.84,1028.43 "/>
<polygon id="_x30_1.24.06" class="st0" points="1033.65,1057.95 1054.5,1057.95 1054.5,1056.42 1054.5,1036.8 1054.5,1034.74 
	1054.5,1029.2 1033.65,1029.2 "/>
<rect id="_x30_1.29.04" x="724.16" y="953.81" class="st0" width="7.36" height="5.67"/>
<rect id="_x30_1.22.05" x="1141.34" y="1019.69" class="st0" width="16.91" height="24.63"/>
<polygon id="_x30_1.31.03" class="st0" points="611.25,947.2 611.25,971.27 632.67,971.27 632.67,967.28 632.67,960.94 
	621.55,960.94 621.55,960.42 632.67,960.42 632.67,951.2 632.67,946.97 624.61,946.97 611.25,946.97 "/>
<polygon id="_x30_1.04.02" class="st0" points="1097.54,73.62 1097.3,73.62 1097.3,87 1111.8,87 1111.81,87 1111.81,73.62 "/>
<polygon id="_x30_1.48.02" class="st0" points="786.67,86.43 786.67,90.08 791.84,90.08 791.84,86.43 787.56,86.43 "/>
<g id="LWPOLYLINE_130_" class="st1">
	<rect x="1158.05" y="53.32" class="st2" width="48.19" height="0.77"/>
</g>
<polygon id="_x30_1.03.01" class="st0" points="1076.88,90.89 1076.88,100.68 1088.02,100.68 1088.02,90.89 1083.75,90.89 "/>
<polygon id="_x30_1.02.01A" class="st0" points="1068.45,105.19 1068.45,93.62 1068.08,93.62 1066.84,93.62 1066.84,93.24 
	1062.37,93.24 1062.37,93.62 1008.37,93.62 1008.37,105.19 "/>
<polygon id="_x30_1.03.02" class="st0" points="1076.88,86.87 1076.88,90.08 1083.34,90.08 1083.34,86.47 1084.15,86.47 
	1084.15,90.08 1088.02,90.08 1088.02,86.47 1088.83,86.47 1088.83,90.49 1088.83,100.08 1096.49,100.08 1096.49,87.32 
	1096.49,73.22 1096.49,72.79 1096.49,72.57 1096.49,62.89 1096.49,48.94 1089.22,48.94 1089.22,49.79 1076.88,49.79 1076.88,50.88 
	1076.88,60.28 "/>
<polygon id="_x30_1.02.02" class="st0" points="979.43,56.88 979.43,67.65 979.43,69.45 986.28,69.45 986.28,64.13 987.09,64.13 
	987.09,69.85 987.09,74.51 1068.45,74.51 1068.45,67.07 1069.26,67.07 1069.26,74.92 1069.26,77.26 1069.26,83.18 1069.26,83.57 
	1069.26,86.47 1076.07,86.47 1076.07,60.68 1068.45,60.68 1068.45,59.87 1076.07,59.87 1076.07,51.28 994.27,51.28 994.27,57.74 
	993.46,57.74 993.46,50.88 993.46,48.94 982.38,48.94 982.38,56.07 987.09,56.07 987.09,57.74 986.27,57.74 986.27,56.88 
	981.98,56.88 "/>
<g id="LWPOLYLINE_136_" class="st1">
	<rect x="746.18" y="54.48" class="st2" width="0.81" height="3.4"/>
</g>
<g id="LWPOLYLINE_138_" class="st1">
	<polygon class="st2" points="826.39,92.37 827.16,92.37 827.16,97.49 891.36,97.49 891.36,91.12 890.34,91.12 890.34,83.32 
		890.34,82.3 892.13,82.3 892.13,83.58 890.86,83.58 890.86,90.6 892.13,90.6 892.13,98.26 826.39,98.26 	"/>
</g>
<polygon id="_x30_1.45.03" class="st0" points="592.53,88.39 592.53,106.04 592.61,106.04 592.61,105.19 611.2,105.19 611.2,94.52 
	613.47,94.52 613.47,83.47 613.47,82.01 603.26,82.01 603.26,88.39 594,88.39 "/>
<polygon id="_x30_1.45.06" class="st0" points="621.65,50.88 621.65,48.94 592.49,48.94 592.49,49.02 593.38,49.02 593.38,65.11 
	592.53,65.11 592.53,76.85 594,76.85 603,76.85 614.28,76.85 614.28,81.75 614.28,83.06 621.65,83.06 621.65,60.28 "/>
<polygon id="_x30_1.45.08" class="st0" points="647.31,91.36 647.31,77.66 634.29,77.66 634.29,83.87 629.67,83.87 629.56,83.87 
	629.56,91.36 640.74,91.36 "/>
<polygon id="_x30_1.04.01" class="st0" points="1097.3,105.19 1110.96,105.19 1111.81,105.19 1111.81,104.78 1111.81,87.65 
	1097.3,87.65 1097.3,100.49 "/>
<polygon id="_x30_1.47.01A" class="st0" points="739.44,93.62 739.44,105.19 778.24,105.19 778.24,93.62 778.01,93.62 745.4,93.62 
	745.4,93.24 740.93,93.24 740.93,93.62 739.79,93.62 "/>
<polygon id="_x30_1.49.02" class="st0" points="901.22,67.65 901.22,56.88 898.67,56.88 894.37,56.88 894.37,58.09 893.56,58.09 
	893.56,56.07 898.26,56.07 898.26,48.94 887.12,48.94 887.12,50.88 887.12,58.09 886.31,58.09 886.31,51.28 792.65,51.28 
	792.65,51.57 792.24,51.57 792.24,54.48 792.65,54.48 792.65,85.62 798.22,85.62 805.43,85.62 805.43,77.66 799.05,77.66 
	799.05,74.92 799.05,67.07 799.86,67.07 799.86,74.51 893.6,74.51 893.6,69.85 893.6,64.13 894.41,64.13 894.41,69.45 901.22,69.45 
	"/>
<polygon id="_x30_1.48.01" class="st0" points="797.81,103.06 797.81,90.89 792.24,90.89 786.67,90.89 786.67,103.06 787.16,103.06 
	797.33,103.06 "/>
<polygon id="_x30_1.04.05" class="st0" points="1113.07,72.57 1113.07,72.81 1113.07,103.91 1121.56,103.91 1121.56,64.15 
	1113.07,64.15 "/>
<polygon id="_x30_1.04.03" class="st0" points="1097.3,63.15 1097.3,72.81 1112.55,72.81 1112.55,64.15 1112.55,63.15 1112.5,63.15 
	1097.53,63.15 "/>
<polygon id="_x30_1.46.02" class="st0" points="622.46,51.28 622.46,59.87 630.08,59.87 630.08,60.68 622.46,60.68 622.46,83.06 
	629.16,83.06 629.27,83.06 629.27,77.26 629.27,74.92 629.27,66.85 630.08,66.85 630.08,74.51 724.2,74.51 724.2,67.07 
	725.01,67.07 725.01,74.92 725.01,77.26 725.01,86.47 731.41,86.47 731.41,56.88 729.31,56.88 725.01,56.88 725.01,58.62 
	724.2,58.62 724.2,56.07 728.9,56.07 728.9,48.94 717.82,48.94 717.82,50.88 717.82,57.88 717.01,57.88 717.01,51.28 "/>
<rect id="_x30_1.04.04" x="1097.75" y="49.39" class="st0" width="15.32" height="13.24"/>
<polygon id="_x30_1.46.01A" class="st0" points="724.2,105.19 724.2,93.62 723.97,93.62 718.76,93.62 718.76,93.24 714.29,93.24 
	714.29,93.62 665.99,93.62 641.14,93.62 641.14,102.79 641.14,104.74 645.86,104.74 645.86,105.19 "/>
<polygon id="_x30_1.45.07" class="st0" points="629.56,102.38 640.33,102.38 640.33,93.27 640.33,92.17 629.56,92.17 "/>
<polygon id="_x30_1.03.03" class="st0" points="1065.16,82.77 1068.08,82.77 1068.45,82.77 1068.45,77.66 1065.16,77.66 "/>
<rect id="_x30_1.45.09" x="630.08" y="77.66" class="st0" width="3.4" height="5.4"/>
<rect id="_x30_1.48.03" x="792.65" y="86.43" class="st0" width="5.17" height="3.66"/>
<polygon id="_x30_1.45.05" class="st0" points="602.74,77.66 594.23,77.66 594.23,87.88 602.74,87.88 602.74,81.75 "/>
<rect id="_x30_1.45.04" x="603.26" y="77.66" class="st0" width="10.21" height="3.83"/>
<g id="LWPOLYLINE_158_" class="st1">
	<rect x="1315.6" y="792.26" class="st2" width="0.81" height="11.91"/>
</g>
<polygon id="_x30_1.18.01A" class="st0" points="1282.8,745.51 1271.24,745.51 1271.24,793.58 1282.8,793.58 1282.8,793.3 
	1282.8,789.42 1283.19,789.42 1283.19,784.95 1282.8,784.95 "/>
<polygon id="_x30_1.19.02" class="st0" points="1284.04,865.41 1275.53,865.41 1275.53,876.56 1284.04,876.56 1284.04,872.11 "/>
<polygon id="_x30_1.15.01A" class="st0" points="1283.6,557.76 1271.24,557.76 1271.24,634.74 1271.24,643.04 1271.24,646.35 
	1282.8,646.35 1282.8,586.46 1283.19,586.46 1283.19,581.99 1282.8,581.99 1282.8,581.26 1282.15,581.26 1282.15,580.49 
	1283.19,580.49 1283.6,580.49 "/>
<rect id="_x30_1.07.03" x="1275.74" y="209.72" class="st0" width="8.94" height="10.25"/>
<polygon id="_x30_1.12.01A" class="st0" points="1298.76,486.78 1298.76,464.11 1285.36,464.11 1285.19,464.11 1282.8,464.11 
	1282.8,462.56 1282.8,458.09 1282.8,398.19 1271.24,398.19 1271.24,441.18 1271.24,458.85 1271.24,486.78 1292.11,486.78 
	1292.51,486.78 "/>
<g id="LWPOLYLINE_168_" class="st1">
	<polygon class="st2" points="1314.6,452.34 1314.6,435.92 1312.64,435.92 1312.64,435.11 1315,435.11 1317.54,435.11 
		1317.54,453.15 1315,453.15 1312.64,453.15 1312.64,452.34 	"/>
</g>
<g id="LWPOLYLINE_169_" class="st1">
	<polygon class="st2" points="1317.54,479.08 1315,479.08 1312.64,479.08 1312.64,478.27 1314.6,478.27 1314.6,461.84 
		1312.64,461.84 1312.64,461.03 1315,461.03 1317.54,461.03 	"/>
</g>
<polygon id="_x30_1.09.02" class="st0" points="1325.14,220.79 1316.56,220.79 1316.56,226.28 1315.75,226.28 1315.75,220.79 
	1293.36,220.79 1293.36,227.59 1299.17,227.59 1301.51,227.59 1308.8,227.59 1308.8,228.4 1301.91,228.4 1301.91,314.44 
	1306.57,314.44 1312.48,314.44 1312.48,315.25 1306.98,315.25 1306.98,322.1 1308.51,322.1 1319.55,322.1 1319.55,319.99 
	1319.55,315.25 1318.34,315.25 1318.34,314.44 1320.36,314.44 1320.36,319.59 1327.48,319.59 1327.48,308.28 1325.14,308.28 "/>
<polygon id="_x30_1.09.01A" class="st0" points="1284.72,248.47 1284.72,228.4 1271.24,228.4 1271.24,296.48 1282.8,296.48 
	1282.8,283.94 1282.8,254.99 1283.76,254.99 1283.76,250.52 1282.8,250.52 1282.8,249.24 1281.1,249.24 1281.1,248.47 
	1283.19,248.47 "/>
<polygon id="_x30_1.07.08" class="st0" points="1286.04,192.91 1286.04,197.72 1292.63,197.72 1292.63,196.07 1292.63,191.42 
	1293.4,191.42 1293.4,195.81 1325.12,195.81 1325.12,192.91 1327.15,192.91 1327.15,182.7 1309.94,182.7 1299.59,182.7 
	1299.59,182.06 1293.4,182.06 1293.4,186.32 1282.73,186.32 1281.2,186.32 1281.2,185.15 1275.09,185.15 1275.09,192.91 
	1279.35,192.91 1279.35,193.17 1284.45,193.17 1284.45,192.91 "/>
<polygon id="_x30_1.07.09" class="st0" points="1326.23,218.18 1326.23,200.15 1325.12,200.15 1325.12,196.32 1293.4,196.32 
	1293.4,198.24 1286.04,198.24 1286.04,208.59 1286.04,208.91 1286.04,209.23 1286.04,209.32 1286.04,219.43 1325.12,219.43 
	1325.12,218.18 "/>
<polygon id="_x30_1.07.05" class="st0" points="1292.88,175.25 1288.25,175.25 1282.96,175.25 1282.96,185.8 1292.88,185.8 
	1292.88,182.06 "/>
<polygon id="_x30_1.07.01" class="st0" points="1281.2,184.63 1281.2,175.26 1281.2,175 1281.2,168.43 1271.69,168.43 
	1271.69,184.63 1274.87,184.63 "/>
<polygon id="_x30_1.07.02" class="st0" points="1285.52,208.37 1285.52,197.98 1285.52,193.43 1284.45,193.43 1284.45,193.17 
	1279.35,193.17 1279.35,193.43 1274.87,193.43 1274.87,193.96 1271.78,193.96 1271.78,208.37 1285.08,208.37 1285.17,208.37 "/>
<polygon id="_x30_1.07.10" class="st0" points="1318.08,168.14 1318.08,167.77 1313.4,167.77 1313.4,168.14 1312.57,168.14 
	1310.2,168.14 1310.2,182.18 1327.15,182.18 1327.15,168.14 1326.57,168.14 "/>
<polygon id="_x30_1.07.07" class="st0" points="1299.59,182.06 1299.59,181.93 1309.68,181.93 1309.68,167.97 1309.68,167.25 
	1293.4,167.25 1293.4,175 1293.4,182.06 "/>
<polygon id="_x30_1.07.06" class="st0" points="1292.88,166.92 1288.51,166.92 1288.51,168.21 1288.51,174.74 1292.88,174.74 
	1292.88,167.08 "/>
<polygon id="_x30_1.07.04" class="st0" points="1282.73,174.74 1287.99,174.74 1287.99,168.43 1285.09,168.43 1281.72,168.43 
	1281.72,174.74 "/>
<polygon id="_x30_1.19.03" class="st0" points="1284.85,872.51 1284.85,876.32 1284.85,876.96 1284.85,877.4 1290.85,877.4 
	1290.85,872.51 "/>
<polygon id="_x30_1.18.02" class="st0" points="1285.49,821.69 1298.76,821.69 1298.76,802.72 1292.96,802.72 1290,802.72 
	1290,802.86 1285.75,802.86 1285.49,802.86 1285.49,814.58 "/>
<polygon id="_x30_1.08.01" class="st0" points="1285.49,228.4 1285.49,248.47 1298.75,248.47 1298.76,248.47 1298.76,232.62 
	1292.55,232.62 1292.55,228.4 "/>
<polygon id="_x30_1.08.02" class="st0" points="1298.76,231.81 1298.76,228.4 1293.36,228.4 1293.36,231.81 1298.75,231.81 "/>
<rect id="_x30_1.14.01" x="1312.11" y="550.14" class="st0" width="3.66" height="6.81"/>
<rect id="_x30_1.13.04" x="1289.61" y="508.65" class="st0" width="13.62" height="14.08"/>
<rect id="_x30_1.13.01" x="1275.74" y="495.21" class="st0" width="8.94" height="10.25"/>
<rect id="_x30_1.13.05" x="1289.61" y="523.54" class="st0" width="13.62" height="17.91"/>
<rect id="_x30_1.12.03" x="1312.11" y="487.59" class="st0" width="3.4" height="6.81"/>
<polygon id="_x30_1.13.03" class="st0" points="1290,495.07 1290,495.21 1285.49,495.21 1285.49,505.45 1285.49,505.46 
	1289.61,505.46 1289.61,507.84 1303.23,507.84 1303.23,495.21 1292.11,495.21 1292.11,495.07 "/>
<polygon id="_x30_1.13.06" class="st0" points="1327.48,510.23 1327.48,495.21 1325.55,495.21 1315.92,495.21 1311.71,495.21 
	1304.04,495.21 1304.04,508.25 1304.04,523.14 1304.04,542.27 1289.61,542.27 1289.61,549.33 1311.71,549.33 1316.17,549.33 
	1325.55,549.33 1327.48,549.33 1327.48,534.83 1326.63,534.83 1326.63,510.23 "/>
<polygon id="_x30_1.13.02" class="st0" points="1271.24,549.33 1284.45,549.33 1288.8,549.33 1288.8,541.86 1288.8,523.14 
	1288.8,508.25 1288.8,506.27 1285.08,506.27 1284.68,506.27 1284.67,506.27 1275.34,506.27 1272.96,506.27 1271.24,506.27 "/>
<polygon id="_x30_1.38.04" class="st0" points="565.68,539.08 567.39,539.08 581.37,539.08 581.37,545.46 588.39,545.46 
	588.39,539.08 588.78,539.08 597.38,539.08 597.46,539.08 597.46,505.46 588.39,505.46 588.39,498.44 581.37,498.44 581.37,505.53 
	567.61,505.53 565.68,505.53 "/>
<polygon id="_x30_1.28.09" class="st0" points="804.77,998.24 796.79,998.24 796.79,1010.58 803.49,1010.58 803.49,1006.59 
	804.77,1006.59 804.77,1001.54 "/>
<rect id="_x30_1.34.05" x="617.27" y="764.7" class="st0" width="6.65" height="3.99"/>
<rect id="_x30_1.43.06" x="624.48" y="243.36" class="st0" width="5.11" height="4.55"/>
<polygon id="_x30_1.33.03" class="st0" points="613.19,806.52 613.19,796.65 593.12,796.65 593.12,808.01 608.52,808.01 
	608.52,806.52 "/>
<polygon id="_x30_1.17.01" class="st0" points="1298.76,744.74 1298.76,729.23 1299.4,729.23 1299.4,722.44 1282.76,722.44 
	1282.76,722.88 1273.83,722.88 1273.83,722.44 1271.24,722.44 1271.24,725.03 1271.67,725.03 1271.67,739.07 1271.24,739.07 
	1271.24,744.74 1283.19,744.74 "/>
<polygon id="_x30_1.01.02" class="st0" points="979.43,77.88 979.43,78.83 979.43,105.19 1007.6,105.19 1007.6,93.24 1007.6,77.66 
	986.69,77.66 986.69,77.88 "/>
<polygon id="_x30_1.09.03" class="st0" points="1271.24,322.1 1298.55,322.1 1298.55,314.85 1298.76,314.85 1298.76,297.25 
	1283.19,297.25 1271.24,297.25 "/>
<polygon id="_x30_1.31.02B" class="st0" points="707.6,953.41 707.6,951.3 684.26,951.3 684.26,953 683.74,953 683.74,951.3 
	679.27,951.3 679.27,951.58 634.19,951.58 634.19,966.87 707.6,966.87 "/>
<polygon id="_x30_1.29.01B" class="st0" points="744.12,951.58 744.12,952.83 744.35,952.83 749.97,952.83 749.97,966.87 
	752.46,966.87 772.95,966.87 807.05,966.87 807.51,966.87 807.51,953.18 807.51,952.82 807.51,951.58 807.06,951.58 807.06,951.2 
	802.59,951.2 802.59,951.58 "/>
<polygon id="_x30_1.27.01B" class="st0" points="917.81,952.83 917.81,951.58 911.89,951.58 895.62,951.58 880.13,951.58 
	880.13,951.2 875.66,951.2 875.66,951.58 829.5,951.58 829.5,966.87 836.28,966.87 842.24,966.87 855.69,966.87 894.16,966.87 
	911.96,966.87 911.96,952.83 917.81,952.83 "/>
<polygon id="_x30_1.25.01B" class="st0" points="1001.64,952.83 1001.64,951.58 938.7,951.58 938.7,951.2 934.23,951.2 
	934.23,951.58 933.76,951.58 933.76,962.15 939.93,962.15 939.93,966.87 976.98,966.87 994.17,966.87 995.8,966.87 995.8,952.83 "/>
<polygon id="_x30_1.22.01B" class="st0" points="1156.53,966.87 1156.53,955.78 1156.53,955.36 1156.53,951.47 1130.13,951.47 
	1130.13,952.47 1129.36,952.47 1129.36,951.47 1124.9,951.47 1124.9,951.58 1095.64,951.58 1095.64,952.78 1095.64,953.14 
	1095.64,966.87 1102.07,966.87 1126.32,966.87 1150.51,966.87 "/>
<polygon id="_x30_1.19.01A" class="st0" points="1271.24,856.98 1291.25,856.98 1298.76,856.98 1298.76,822.46 1285.1,822.46 
	1284.76,822.46 1284.71,822.46 1282.21,822.46 1282.21,814.84 1280.25,814.84 1280.25,814.32 1282.56,814.32 1284.72,814.32 
	1284.72,802.86 1284.71,802.86 1271.74,802.86 1271.74,814.32 1275.78,814.32 1275.78,814.84 1271.51,814.84 1271.24,814.84 "/>
<polygon id="_x30_1.18.01B" class="st0" points="1298.06,758.11 1298.76,758.11 1298.76,745.51 1283.58,745.51 1283.58,784.95 
	1283.19,784.95 1283.19,789.42 1283.58,789.42 1283.58,793.07 1295.69,793.07 1295.69,789.42 1298.76,789.42 1298.76,768.33 
	1298.06,768.33 "/>
<polygon id="_x30_1.15.01B" class="st0" points="1284.45,557.76 1283.6,557.76 1283.6,580.49 1284.28,580.49 1284.28,581.26 
	1283.6,581.26 1283.58,581.26 1283.58,581.99 1283.19,581.99 1283.19,586.46 1283.58,586.46 1283.58,646.35 1299.4,646.35 
	1299.4,640.16 1299.4,639.95 1298.76,639.52 1298.76,557.76 "/>
<polygon id="_x30_1.12.01B" class="st0" points="1298.76,464.11 1298.76,405.02 1298.76,398.19 1283.58,398.19 1283.58,458.09 
	1283.58,459 1283.19,459 1285.19,463.72 1285.36,464.11 "/>
<polygon id="_x30_1.09.01B" class="st0" points="1283.58,249.24 1283.58,250.52 1283.76,250.52 1283.76,254.99 1283.58,254.99 
	1283.58,283.71 1287.59,283.71 1287.59,284.16 1283.58,284.16 1283.58,296.48 1298.76,296.48 1298.76,284.16 1294.93,284.16 
	1294.93,283.71 1298.76,283.71 1298.76,249.24 1285.1,249.24 "/>
<polygon id="_x30_1.02.01B" class="st0" points="1008.37,77.66 1008.37,92.85 1062.37,92.85 1062.37,93.24 1066.84,93.24 
	1066.84,92.85 1067.73,92.85 1067.73,83.58 1064.35,83.58 1064.35,77.66 1024.92,77.66 1024.92,83.41 1024.41,83.41 1024.41,77.66 
	"/>
<polygon id="_x30_1.49.01B" class="st0" points="806.25,77.66 806.25,86.02 806.25,89.91 816.5,89.91 816.5,86.56 835.21,86.56 
	835.68,86.56 836.2,86.56 836.2,88.65 883.07,88.65 883.07,77.66 "/>
<polygon id="_x30_1.46.01B" class="st0" points="648.12,77.66 648.12,92.17 641.14,92.17 641.14,92.92 665.99,92.92 665.99,92.85 
	714.29,92.85 714.29,93.24 718.76,93.24 718.76,92.85 723.75,92.85 723.75,77.66 "/>
<rect id="_x30_1.19.04" x="1284.85" y="865.41" class="st0" width="6" height="6.29"/>
<polygon id="_x30_1.23.01C" class="st0" points="1067.41,970.36 1067.41,972.67 1077.24,972.67 1077.24,971.2 1077.77,971.2 
	1077.77,967.28 1077.77,966.87 1077.77,961.82 1067.41,961.82 "/>
<rect id="_x30_1.23.01B" x="1084.67" y="955.18" class="st0" width="3.31" height="11.69"/>
<g id="LWPOLYLINE_222_" class="st1">
	<rect x="931.82" y="853.79" class="st2" width="3.4" height="0.64"/>
</g>
<g id="LWPOLYLINE_228_" class="st1">
	<polygon class="st2" points="772.88,565.03 772.88,565.67 764.26,565.67 764.26,542.27 772.88,542.27 772.88,542.91 764.9,542.91 
		764.9,565.03 	"/>
</g>
<g id="LWPOLYLINE_229_" class="st1">
	<polygon class="st2" points="772.88,478.86 772.88,479.5 764.9,479.5 764.9,501.63 772.88,501.63 772.88,502.27 764.26,502.27 
		764.26,478.86 	"/>
</g>
<polygon id="_x30_1.47.01B" class="st0" points="777.79,77.66 740.14,77.66 740.14,92.85 740.93,92.85 740.93,93.24 745.4,93.24 
	745.4,92.85 777.79,92.85 "/>
<rect id="_x30_1.48.04" x="806.25" y="90.68" class="st0" width="10.25" height="14.51"/>
<rect id="_x30_1.24.07" x="1030.12" y="946.16" class="st0" width="2.97" height="6.57"/>
<g id="LWPOLYLINE_164_" class="st1">
	<polygon class="st2" points="1314.56,608.62 1314.56,592.19 1312.64,592.19 1312.64,591.38 1314.96,591.38 1317.28,591.38 
		1317.28,609.43 1314.96,609.43 1312.64,609.43 1312.64,608.62 	"/>
</g>
<g id="LWPOLYLINE_165_" class="st1">
	<polygon class="st2" points="1314.96,565.46 1317.28,565.46 1317.28,583.5 1314.96,583.5 1312.64,583.5 1312.64,582.69 
		1314.56,582.69 1314.56,566.27 1312.64,566.27 1312.64,565.46 	"/>
</g>
<rect id="ST06" x="726.1" y="164.59" transform="matrix(0.7071 -0.7071 0.7071 0.7071 88.1012 569.8104)" class="st0" width="11.54" height="27.94"/>
<g id="S-GRID-IDEN">
	<g id="Circles">
		<g id="CIRCLE_92_">
			<circle class="st3" cx="1235.42" cy="971.52" r="2.55"/>
		</g>
		<g id="CIRCLE_91_">
			<circle class="st3" cx="537.66" cy="48.13" r="2.55"/>
		</g>
		<g id="CIRCLE_90_">
			<circle class="st3" cx="1144.51" cy="876.98" r="2.55"/>
		</g>
		<g id="CIRCLE_89_">
			<circle class="st3" cx="1208.48" cy="813.01" r="2.55"/>
		</g>
		<g id="CIRCLE_88_">
			<circle class="st3" cx="1200.2" cy="804.74" r="2.55"/>
		</g>
		<g id="CIRCLE_87_">
			<circle class="st3" cx="1136.23" cy="868.71" r="2.55"/>
		</g>
		<g id="CIRCLE_86_">
			<circle class="st3" cx="1215.93" cy="832.14" r="2.55"/>
		</g>
		<g id="CIRCLE_85_">
			<circle class="st3" cx="1164.03" cy="884.04" r="2.55"/>
		</g>
		<g id="CIRCLE_84_">
			<circle class="st3" cx="591.5" cy="1076.29" r="2.55"/>
		</g>
		<g id="CIRCLE_83_">
			<circle class="st3" cx="664.8" cy="1076.29" r="2.55"/>
		</g>
		<g id="CIRCLE_82_">
			<circle class="st3" cx="1121.85" cy="813.58" r="2.55"/>
		</g>
		<g id="CIRCLE_81_">
			<circle class="st3" cx="1111.85" cy="787.48" r="2.55"/>
		</g>
		<g id="CIRCLE_80_">
			<circle class="st3" cx="566.18" cy="208.04" r="2.55"/>
		</g>
		<g id="CIRCLE_79_">
			<circle class="st3" cx="598.74" cy="208.04" r="2.55"/>
		</g>
		<g id="CIRCLE_78_">
			<circle class="st3" cx="537.66" cy="276.53" r="2.55"/>
		</g>
		<g id="CIRCLE_77_">
			<circle class="st3" cx="537.66" cy="768.01" r="2.55"/>
		</g>
		<g id="CIRCLE_76_">
			<circle class="st3" cx="612.67" cy="208.04" r="2.55"/>
		</g>
		<g id="CIRCLE_75_">
			<circle class="st3" cx="537.66" cy="822.69" r="2.55"/>
		</g>
		<g id="CIRCLE_74_">
			<circle class="st3" cx="537.66" cy="221.85" r="2.55"/>
		</g>
		<g id="CIRCLE_73_">
			<circle class="st3" cx="1382.3" cy="1056.19" r="2.55"/>
		</g>
		<g id="CIRCLE_72_">
			<circle class="st3" cx="537.66" cy="1056.19" r="2.55"/>
		</g>
		<g id="CIRCLE_71_">
			<circle class="st3" cx="1382.3" cy="988.32" r="2.55"/>
		</g>
		<g id="CIRCLE_70_">
			<circle class="st3" cx="537.66" cy="988.32" r="2.55"/>
		</g>
		<g id="CIRCLE_69_">
			<circle class="st3" cx="943.64" cy="182.59" r="2.55"/>
		</g>
		<g id="CIRCLE_68_">
			<circle class="st3" cx="943.64" cy="126.43" r="2.55"/>
		</g>
		<g id="CIRCLE_67_">
			<circle class="st3" cx="943.64" cy="107.28" r="2.55"/>
		</g>
		<g id="CIRCLE_66_">
			<circle class="st3" cx="537.66" cy="184.83" r="2.55"/>
		</g>
		<g id="CIRCLE_65_">
			<circle class="st3" cx="537.66" cy="236.53" r="2.55"/>
		</g>
		<g id="CIRCLE_64_">
			<circle class="st3" cx="724.16" cy="2.55" r="2.55"/>
		</g>
		<g id="CIRCLE_63_">
			<circle class="st3" cx="547.57" cy="189.29" r="2.55"/>
		</g>
		<g id="CIRCLE_62_">
			<circle class="st3" cx="541.27" cy="75.26" r="2.55"/>
		</g>
		<g id="CIRCLE_61_">
			<circle class="st3" cx="579.48" cy="37.05" r="2.55"/>
		</g>
		<g id="CIRCLE_60_">
			<circle class="st3" cx="690.65" cy="36.44" r="2.55"/>
		</g>
		<g id="CIRCLE_59_">
			<circle class="st3" cx="537.66" cy="859.71" r="2.55"/>
		</g>
		<g id="CIRCLE_58_">
			<circle class="st3" cx="537.66" cy="808.01" r="2.55"/>
		</g>
		<g id="CIRCLE_57_">
			<circle class="st3" cx="724.16" cy="1076.29" r="2.55"/>
		</g>
		<g id="CIRCLE_56_">
			<circle class="st3" cx="537.09" cy="859.59" r="2.55"/>
		</g>
		<g id="CIRCLE_55_">
			<circle class="st3" cx="548.56" cy="961.99" r="2.55"/>
		</g>
		<g id="CIRCLE_54_">
			<circle class="st3" cx="586.77" cy="1000.2" r="2.55"/>
		</g>
		<g id="CIRCLE_53_">
			<circle class="st3" cx="661.93" cy="1077.45" r="2.55"/>
		</g>
		<g id="CIRCLE_52_">
			<circle class="st3" cx="1382.3" cy="878.64" r="2.55"/>
		</g>
		<g id="CIRCLE_51_">
			<circle class="st3" cx="1382.3" cy="824.6" r="2.55"/>
		</g>
		<g id="CIRCLE_50_">
			<circle class="st3" cx="1210.53" cy="1076.29" r="2.55"/>
		</g>
		<g id="CIRCLE_49_">
			<circle class="st3" cx="1156.49" cy="1076.29" r="2.55"/>
		</g>
		<g id="CIRCLE_48_">
			<circle class="st3" cx="1349.45" cy="862.03" r="2.55"/>
		</g>
		<g id="CIRCLE_47_">
			<circle class="st3" cx="1337.55" cy="956.91" r="2.55"/>
		</g>
		<g id="CIRCLE_46_">
			<circle class="st3" cx="1288.8" cy="1005.66" r="2.55"/>
		</g>
		<g id="CIRCLE_45_">
			<circle class="st3" cx="1218.16" cy="1076.1" r="2.55"/>
		</g>
		<g id="CIRCLE_44_">
			<circle class="st3" cx="1358.17" cy="165.89" r="2.55"/>
		</g>
		<g id="CIRCLE_43_">
			<circle class="st3" cx="1358.17" cy="219.93" r="2.55"/>
		</g>
		<g id="CIRCLE_42_">
			<circle class="st3" cx="1210.53" cy="2.55" r="2.55"/>
		</g>
		<g id="CIRCLE_41_">
			<circle class="st3" cx="1156.49" cy="2.55" r="2.55"/>
		</g>
		<g id="CIRCLE_40_">
			<circle class="st3" cx="778.2" cy="2.55" r="2.55"/>
		</g>
		<g id="CIRCLE_39_">
			<circle class="st3" cx="537.66" cy="765.45" r="2.55"/>
		</g>
		<g id="CIRCLE_38_">
			<circle class="st3" cx="778.2" cy="1076.29" r="2.55"/>
		</g>
		<g id="CIRCLE_37_">
			<circle class="st3" cx="1102.45" cy="1076.29" r="2.55"/>
		</g>
		<g id="CIRCLE_36_">
			<circle class="st3" cx="1358.17" cy="276.53" r="2.55"/>
		</g>
		<g id="CIRCLE_35_">
			<circle class="st3" cx="1349.11" cy="182.65" r="2.55"/>
		</g>
		<g id="CIRCLE_34_">
			<circle class="st3" cx="1344.58" cy="80.59" r="2.55"/>
		</g>
		<g id="CIRCLE_33_">
			<circle class="st3" cx="1295.84" cy="31.84" r="2.55"/>
		</g>
		<g id="CIRCLE_32_">
			<circle class="st3" cx="1190" cy="36.44" r="2.55"/>
		</g>
		<g id="CIRCLE_31_">
			<circle class="st3" cx="1102.45" cy="2.55" r="2.55"/>
		</g>
		<g id="CIRCLE_30_">
			<circle class="st3" cx="938.29" cy="271.95" r="2.55"/>
		</g>
		<g id="CIRCLE_29_">
			<circle class="st3" cx="537.66" cy="279.08" r="2.55"/>
		</g>
		<g id="CIRCLE_28_">
			<circle class="st3" cx="537.66" cy="333.12" r="2.55"/>
		</g>
		<g id="CIRCLE_27_">
			<circle class="st3" cx="537.66" cy="387.16" r="2.55"/>
		</g>
		<g id="CIRCLE_26_">
			<circle class="st3" cx="537.66" cy="441.21" r="2.55"/>
		</g>
		<g id="CIRCLE_25_">
			<circle class="st3" cx="832.24" cy="2.55" r="2.55"/>
		</g>
		<g id="CIRCLE_24_">
			<circle class="st3" cx="886.28" cy="2.55" r="2.55"/>
		</g>
		<g id="CIRCLE_23_">
			<circle class="st3" cx="537.66" cy="711.41" r="2.55"/>
		</g>
		<g id="CIRCLE_22_">
			<circle class="st3" cx="537.66" cy="657.37" r="2.55"/>
		</g>
		<g id="CIRCLE_21_">
			<circle class="st3" cx="537.66" cy="603.33" r="2.55"/>
		</g>
		<g id="CIRCLE_20_">
			<circle class="st3" cx="537.66" cy="549.29" r="2.55"/>
		</g>
		<g id="CIRCLE_19_">
			<circle class="st3" cx="537.66" cy="495.25" r="2.55"/>
		</g>
		<g id="CIRCLE_18_">
			<circle class="st3" cx="832.24" cy="1076.29" r="2.55"/>
		</g>
		<g id="CIRCLE_17_">
			<circle class="st3" cx="886.28" cy="1076.29" r="2.55"/>
		</g>
		<g id="CIRCLE_16_">
			<circle class="st3" cx="1382.3" cy="768.01" r="2.55"/>
		</g>
		<g id="CIRCLE_15_">
			<circle class="st3" cx="1382.3" cy="711.41" r="2.55"/>
		</g>
		<g id="CIRCLE_11_">
			<circle class="st3" cx="994.37" cy="1076.29" r="2.55"/>
		</g>
		<g id="CIRCLE_12_">
			<circle class="st3" cx="1048.41" cy="1076.29" r="2.55"/>
		</g>
		<g id="CIRCLE_13_">
			<circle class="st3" cx="1382.3" cy="603.33" r="2.55"/>
		</g>
		<g id="CIRCLE_14_">
			<circle class="st3" cx="1382.3" cy="657.37" r="2.55"/>
		</g>
		<g id="CIRCLE_10_">
			<circle class="st3" cx="940.32" cy="1076.29" r="2.55"/>
		</g>
		<g id="CIRCLE_9_">
			<circle class="st3" cx="1382.3" cy="333.12" r="2.55"/>
		</g>
		<g id="CIRCLE_8_">
			<circle class="st3" cx="1382.3" cy="387.16" r="2.55"/>
		</g>
		<g id="CIRCLE_7_">
			<circle class="st3" cx="1382.3" cy="441.21" r="2.55"/>
		</g>
		<g id="CIRCLE_6_">
			<circle class="st3" cx="1382.3" cy="495.25" r="2.55"/>
		</g>
		<g id="CIRCLE_5_">
			<circle class="st3" cx="1382.3" cy="549.29" r="2.55"/>
		</g>
		<g id="CIRCLE_4_">
			<circle class="st3" cx="1048.41" cy="2.55" r="2.55"/>
		</g>
		<g id="CIRCLE_3_">
			<circle class="st3" cx="994.37" cy="2.55" r="2.55"/>
		</g>
		<g id="CIRCLE_2_">
			<circle class="st3" cx="940.32" cy="2.55" r="2.55"/>
		</g>
		<g id="CIRCLE_1_">
			<circle class="st3" cx="940.32" cy="310.33" r="2.55"/>
		</g>
		<g id="CIRCLE">
			<circle class="st3" cx="1382.3" cy="522.27" r="2.55"/>
		</g>
	</g>
	<g id="Numbers">
		<g id="MTEXT_92_">
			<text transform="matrix(1 0 0 1 1234.3286 972.4264)" class="st4 st5">K</text>
		</g>
		<g id="MTEXT_91_">
			<text transform="matrix(1 0 0 1 536.5468 49.0455)" class="st4 st5">K</text>
		</g>
		<g id="MTEXT_90_">
			<text transform="matrix(1 0 0 1 1142.2996 877.8893)" class="st4 st5">B.4</text>
		</g>
		<g id="MTEXT_89_">
			<text transform="matrix(1 0 0 1 1206.2697 813.9192)" class="st4 st5">B.4</text>
		</g>
		<g id="MTEXT_88_">
			<text transform="matrix(1 0 0 1 1197.9797 805.6587)" class="st4 st5">B.2</text>
		</g>
		<g id="MTEXT_87_">
			<text transform="matrix(1 0 0 1 1134.0098 869.6288)" class="st4 st5">B.2</text>
		</g>
		<g id="MTEXT_86_">
			<text transform="matrix(1 0 0 1 1213.2262 833.0482)" class="st4 st5">20.3</text>
		</g>
		<g id="MTEXT_85_">
			<text transform="matrix(1 0 0 1 1161.3226 884.9517)" class="st4 st5">20.7</text>
		</g>
		<g id="MTEXT_84_">
			<text transform="matrix(1 0 0 1 589.2689 1077.201)" class="st4 st5">C.8</text>
		</g>
		<g id="MTEXT_83_">
			<text transform="matrix(1 0 0 1 662.0674 1077.201)" class="st4 st5">31.1</text>
		</g>
		<g id="MTEXT_82_">
			<text transform="matrix(1 0 0 1 1119.8209 814.5077)" class="st4 st5">A.6</text>
		</g>
		<g id="MTEXT_81_">
			<text transform="matrix(1 0 0 1 1109.8193 788.4025)" class="st4 st5">A.3</text>
		</g>
		<g id="MTEXT_80_">
			<text transform="matrix(1 0 0 1 564.9775 208.9691)" class="st4 st5">G</text>
		</g>
		<g id="MTEXT_79_">
			<text transform="matrix(1 0 0 1 597.6781 208.9691)" class="st4 st5">F</text>
		</g>
		<g id="MTEXT_78_">
			<text transform="matrix(1 0 0 1 535.0146 277.4459)" class="st4 st5">43.1</text>
		</g>
		<g id="MTEXT_77_">
			<text transform="matrix(1 0 0 1 534.9363 768.9246)" class="st4 st5">33.9</text>
		</g>
		<g id="MTEXT_76_">
			<text transform="matrix(1 0 0 1 611.5555 208.9691)" class="st4 st5">E</text>
		</g>
		<g id="MTEXT_75_">
			<text transform="matrix(1 0 0 1 534.9363 823.6042)" class="st4 st5">32.7</text>
		</g>
		<g id="MTEXT_74_">
			<text transform="matrix(1 0 0 1 535.0146 222.7662)" class="st4 st5">44.3</text>
		</g>
		<g id="MTEXT_73_">
			<text transform="matrix(1 0 0 1 1381.5281 1057.1088)" class="st4 st5">J</text>
		</g>
		<g id="MTEXT_72_">
			<text transform="matrix(1 0 0 1 536.8839 1057.1088)" class="st4 st5">J</text>
		</g>
		<g id="MTEXT_71_">
			<text transform="matrix(1 0 0 1 1381.0922 989.2379)" class="st4 st5">H</text>
		</g>
		<g id="MTEXT_70_">
			<text transform="matrix(1 0 0 1 536.4481 989.2379)" class="st4 st5">H</text>
		</g>
		<g id="MTEXT_69_">
			<text transform="matrix(1 0 0 1 942.5279 183.5107)" class="st4 st5">B</text>
		</g>
		<g id="MTEXT_68_">
			<text transform="matrix(1 0 0 1 942.5102 127.3417)" class="st4 st5">C</text>
		</g>
		<g id="MTEXT_67_">
			<text transform="matrix(1 0 0 1 942.437 108.1932)" class="st4 st5">D</text>
		</g>
		<g id="MTEXT_66_">
			<text transform="matrix(1 0 0 1 535.0146 185.7457)" class="st4 st5">45.1</text>
		</g>
		<g id="MTEXT_65_">
			<text transform="matrix(1 0 0 1 536.1304 237.4467)" class="st4 st5">44</text>
		</g>
		<g id="MTEXT_64_">
			<text transform="matrix(1 0 0 1 722.621 3.48)" class="st4 st5">47</text>
		</g>
		<g id="MTEXT_63_">
			<text transform="matrix(1 0 0 1 546.0466 190.2114)" class="st4 st5">45</text>
		</g>
		<g id="MTEXT_62_">
			<text transform="matrix(1 0 0 1 538.6251 76.184)" class="st4 st5">45.4</text>
		</g>
		<g id="MTEXT_61_">
			<text transform="matrix(1 0 0 1 576.8381 37.9709)" class="st4 st5">45.6</text>
		</g>
		<g id="MTEXT_60_">
			<text transform="matrix(1 0 0 1 689.1195 37.3677)" class="st4 st5">46</text>
		</g>
		<g id="MTEXT_59_">
			<text transform="matrix(1 0 0 1 534.9363 860.6246)" class="st4 st5">31.9</text>
		</g>
		<g id="MTEXT_58_">
			<text transform="matrix(1 0 0 1 536.052 808.9237)" class="st4 st5">33</text>
		</g>
		<g id="MTEXT_57_">
			<text transform="matrix(1 0 0 1 722.5436 1077.201)" class="st4 st5">30</text>
		</g>
		<g id="MTEXT_56_">
			<text transform="matrix(1 0 0 1 535.4878 860.5002)" class="st4 st5">32</text>
		</g>
		<g id="MTEXT_55_">
			<text transform="matrix(1 0 0 1 545.8343 962.8993)" class="st4 st5">31.6</text>
		</g>
		<g id="MTEXT_54_">
			<text transform="matrix(1 0 0 1 584.0474 1001.1123)" class="st4 st5">31.4</text>
		</g>
		<g id="MTEXT_53_">
			<text transform="matrix(1 0 0 1 660.3156 1078.3539)" class="st4 st5">31</text>
		</g>
		<g id="MTEXT_52_">
			<text transform="matrix(1 0 0 1 1380.7094 879.5594)" class="st4 st5">20</text>
		</g>
		<g id="MTEXT_51_">
			<text transform="matrix(1 0 0 1 1380.4965 825.5181)" class="st4 st5">19</text>
		</g>
		<g id="MTEXT_50_">
			<text transform="matrix(1 0 0 1 1208.95 1077.201)" class="st4 st5">21</text>
		</g>
		<g id="MTEXT_49_">
			<text transform="matrix(1 0 0 1 1154.9086 1077.201)" class="st4 st5">22</text>
		</g>
		<g id="MTEXT_48_">
			<text transform="matrix(1 0 0 1 1346.5256 862.9392)" class="st4 st5">19.5</text>
		</g>
		<g id="MTEXT_47_">
			<text transform="matrix(1 0 0 1 1334.842 957.8234)" class="st4 st5">20.4</text>
		</g>
		<g id="MTEXT_46_">
			<text transform="matrix(1 0 0 1 1286.0979 1006.5676)" class="st4 st5">20.6</text>
		</g>
		<g id="MTEXT_45_">
			<text transform="matrix(1 0 0 1 1215.4631 1077.0073)" class="st4 st5">21.5</text>
		</g>
		<g id="MTEXT_44_">
			<text transform="matrix(1 0 0 1 1357.271 166.809)" class="st4 st5">7</text>
		</g>
		<g id="MTEXT_43_">
			<text transform="matrix(1 0 0 1 1357.2893 220.8503)" class="st4 st5">8</text>
		</g>
		<g id="MTEXT_42_">
			<text transform="matrix(1 0 0 1 1209.6726 3.48)" class="st4 st5">6</text>
		</g>
		<g id="MTEXT_41_">
			<text transform="matrix(1 0 0 1 1155.6208 3.48)" class="st4 st5">5</text>
		</g>
		<g id="MTEXT_40_">
			<text transform="matrix(1 0 0 1 776.6624 3.48)" class="st4 st5">48</text>
		</g>
		<g id="MTEXT_39_">
			<text transform="matrix(1 0 0 1 536.052 766.3714)" class="st4 st5">34</text>
		</g>
		<g id="MTEXT_38_">
			<text transform="matrix(1 0 0 1 776.619 1077.201)" class="st4 st5">29</text>
		</g>
		<g id="MTEXT_37_">
			<text transform="matrix(1 0 0 1 1100.8672 1077.201)" class="st4 st5">23</text>
		</g>
		<g id="MTEXT_36_">
			<text transform="matrix(1 0 0 1 1357.2866 277.4449)" class="st4 st5">9</text>
		</g>
		<g id="MTEXT_35_">
			<text transform="matrix(1 0 0 1 1347.094 183.5699)" class="st4 st5">7.5</text>
		</g>
		<g id="MTEXT_34_">
			<text transform="matrix(1 0 0 1 1342.5996 81.5087)" class="st4 st5">6.6</text>
		</g>
		<g id="MTEXT_33_">
			<text transform="matrix(1 0 0 1 1293.8555 32.7645)" class="st4 st5">6.4</text>
		</g>
		<g id="MTEXT_32_">
			<text transform="matrix(1 0 0 1 1188.0046 37.3673)" class="st4 st5">5.5</text>
		</g>
		<g id="MTEXT_31_">
			<text transform="matrix(1 0 0 1 1101.6565 3.48)" class="st4 st5">4</text>
		</g>
		<g id="MTEXT_30_">
			<text transform="matrix(1 0 0 1 937.3988 272.8715)" class="st4 st5">A</text>
		</g>
		<g id="MTEXT_29_">
			<text transform="matrix(1 0 0 1 536.1304 279.999)" class="st4 st5">43</text>
		</g>
		<g id="MTEXT_28_">
			<text transform="matrix(1 0 0 1 536.1304 334.0403)" class="st4 st5">42</text>
		</g>
		<g id="MTEXT_27_">
			<text transform="matrix(1 0 0 1 536.1304 388.0817)" class="st4 st5">41</text>
		</g>
		<g id="MTEXT_26_">
			<text transform="matrix(1 0 0 1 536.1304 442.1231)" class="st4 st5">40</text>
		</g>
		<g id="MTEXT_25_">
			<text transform="matrix(1 0 0 1 830.7037 3.48)" class="st4 st5">49</text>
		</g>
		<g id="MTEXT_24_">
			<text transform="matrix(1 0 0 1 884.668 3.48)" class="st4 st5">50</text>
		</g>
		<g id="MTEXT_23_">
			<text transform="matrix(1 0 0 1 536.052 712.33)" class="st4 st5">35</text>
		</g>
		<g id="MTEXT_22_">
			<text transform="matrix(1 0 0 1 536.052 658.2886)" class="st4 st5">36</text>
		</g>
		<g id="MTEXT_21_">
			<text transform="matrix(1 0 0 1 536.052 604.2473)" class="st4 st5">37</text>
		</g>
		<g id="MTEXT_20_">
			<text transform="matrix(1 0 0 1 536.052 550.2059)" class="st4 st5">38</text>
		</g>
		<g id="MTEXT_19_">
			<text transform="matrix(1 0 0 1 536.052 496.1645)" class="st4 st5">39</text>
		</g>
		<g id="MTEXT_18_">
			<text transform="matrix(1 0 0 1 830.6603 1077.201)" class="st4 st5">28</text>
		</g>
		<g id="MTEXT_17_">
			<text transform="matrix(1 0 0 1 884.7017 1077.201)" class="st4 st5">27</text>
		</g>
		<g id="MTEXT_16_">
			<text transform="matrix(1 0 0 1 1380.4965 768.9236)" class="st4 st5">18</text>
		</g>
		<g id="MTEXT_15_">
			<text transform="matrix(1 0 0 1 1380.4965 712.329)" class="st4 st5">17</text>
		</g>
		<g id="MTEXT_14_">
			<text transform="matrix(1 0 0 1 1380.4965 658.2877)" class="st4 st5">16</text>
		</g>
		<g id="MTEXT_13_">
			<text transform="matrix(1 0 0 1 1380.4965 604.2463)" class="st4 st5">15</text>
		</g>
		<g id="MTEXT_12_">
			<text transform="matrix(1 0 0 1 1046.8258 1077.201)" class="st4 st5">24</text>
		</g>
		<g id="MTEXT_11_">
			<text transform="matrix(1 0 0 1 992.7844 1077.201)" class="st4 st5">25</text>
		</g>
		<g id="MTEXT_10_">
			<text transform="matrix(1 0 0 1 938.743 1077.201)" class="st4 st5">26</text>
		</g>
		<g id="MTEXT_9_">
			<text transform="matrix(1 0 0 1 1380.4965 334.0394)" class="st4 st5">10</text>
		</g>
		<g id="MTEXT_8_">
			<text transform="matrix(1 0 0 1 1380.4965 388.0807)" class="st4 st5">11</text>
		</g>
		<g id="MTEXT_7_">
			<text transform="matrix(1 0 0 1 1380.4965 442.1221)" class="st4 st5">12</text>
		</g>
		<g id="MTEXT_6_">
			<text transform="matrix(1 0 0 1 1380.4965 496.1635)" class="st4 st5">13</text>
		</g>
		<g id="MTEXT_5_">
			<text transform="matrix(1 0 0 1 1380.4965 550.2049)" class="st4 st5">14</text>
		</g>
		<g id="MTEXT_4_">
			<text transform="matrix(1 0 0 1 1047.5367 3.48)" class="st4 st5">3</text>
		</g>
		<g id="MTEXT_3_">
			<text transform="matrix(1 0 0 1 993.5293 3.48)" class="st4 st5">2</text>
		</g>
		<g id="MTEXT_2_">
			<text transform="matrix(1 0 0 1 939.275 3.48)" class="st4 st5">1</text>
		</g>
		<g id="MTEXT_1_">
			<text transform="matrix(1 0 0 1 938.2448 311.2581)" class="st4 st5">NS</text>
		</g>
		<g id="MTEXT">
			<text transform="matrix(1 0 0 1 1379.8323 523.1842)" class="st4 st5">EW</text>
		</g>
	</g>
</g>
<g id="S-GRID">
	<g id="LINE">
		<line class="st6" x1="540.21" y1="522.27" x2="1379.75" y2="522.27"/>
	</g>
	<g id="LINE_1_">
		<line class="st6" x1="940.32" y1="729.5" x2="940.32" y2="312.88"/>
	</g>
	<g id="LINE_2_">
		<line class="st6" x1="940.32" y1="292.49" x2="940.32" y2="5.11"/>
	</g>
	<g id="LINE_3_">
		<line class="st6" x1="994.37" y1="292.49" x2="994.37" y2="5.11"/>
	</g>
	<g id="LINE_4_">
		<line class="st6" x1="1048.41" y1="292.49" x2="1048.41" y2="5.11"/>
	</g>
	<g id="LINE_5_">
		<line class="st6" x1="1083.94" y1="549.29" x2="1379.75" y2="549.29"/>
	</g>
	<g id="LINE_6_">
		<line class="st6" x1="1083.94" y1="495.25" x2="1379.75" y2="495.25"/>
	</g>
	<g id="LINE_7_">
		<line class="st6" x1="1083.94" y1="441.21" x2="1379.75" y2="441.21"/>
	</g>
	<g id="LINE_8_">
		<line class="st6" x1="1083.94" y1="387.16" x2="1379.75" y2="387.16"/>
	</g>
	<g id="LINE_9_">
		<line class="st6" x1="1083.94" y1="333.12" x2="1379.75" y2="333.12"/>
	</g>
	<g id="LINE_10_">
		<line class="st6" x1="940.32" y1="752.05" x2="940.32" y2="1073.74"/>
	</g>
	<g id="LINE_11_">
		<line class="st6" x1="994.37" y1="752.05" x2="994.37" y2="1073.74"/>
	</g>
	<g id="LINE_12_">
		<line class="st6" x1="1048.41" y1="752.05" x2="1048.41" y2="1073.74"/>
	</g>
	<g id="LINE_13_">
		<line class="st6" x1="1083.94" y1="603.33" x2="1379.75" y2="603.33"/>
	</g>
	<g id="LINE_14_">
		<line class="st6" x1="1083.94" y1="657.37" x2="1379.75" y2="657.37"/>
	</g>
	<g id="LINE_15_">
		<line class="st6" x1="1083.94" y1="711.41" x2="1379.75" y2="711.41"/>
	</g>
	<g id="LINE_16_">
		<line class="st6" x1="1116.3" y1="768.01" x2="1379.75" y2="768.01"/>
	</g>
	<g id="LINE_17_">
		<line class="st6" x1="886.28" y1="752.05" x2="886.28" y2="1073.74"/>
	</g>
	<g id="LINE_18_">
		<line class="st6" x1="832.24" y1="752.05" x2="832.24" y2="1073.74"/>
	</g>
	<g id="LINE_19_">
		<line class="st6" x1="796.71" y1="495.25" x2="540.21" y2="495.25"/>
	</g>
	<g id="LINE_20_">
		<line class="st6" x1="796.71" y1="549.29" x2="540.21" y2="549.29"/>
	</g>
	<g id="LINE_21_">
		<line class="st6" x1="796.71" y1="603.33" x2="540.21" y2="603.33"/>
	</g>
	<g id="LINE_22_">
		<line class="st6" x1="796.71" y1="657.37" x2="540.21" y2="657.37"/>
	</g>
	<g id="LINE_23_">
		<line class="st6" x1="796.71" y1="711.41" x2="540.21" y2="711.41"/>
	</g>
	<g id="LINE_24_">
		<line class="st6" x1="886.28" y1="292.49" x2="886.28" y2="5.11"/>
	</g>
	<g id="LINE_25_">
		<line class="st6" x1="832.24" y1="292.49" x2="832.24" y2="5.11"/>
	</g>
	<g id="LINE_26_">
		<line class="st6" x1="796.71" y1="441.21" x2="540.21" y2="441.21"/>
	</g>
	<g id="LINE_27_">
		<line class="st6" x1="796.71" y1="387.16" x2="540.21" y2="387.16"/>
	</g>
	<g id="LINE_28_">
		<line class="st6" x1="796.71" y1="333.12" x2="540.21" y2="333.12"/>
	</g>
	<g id="LINE_29_">
		<line class="st6" x1="764.86" y1="279.08" x2="540.21" y2="279.08"/>
	</g>
	<g id="LINE_30_">
		<line class="st6" x1="940.63" y1="271.95" x2="788.21" y2="271.95"/>
	</g>
	<g id="LINE_31_">
		<line class="st6" x1="788.21" y1="271.95" x2="776.18" y2="283.98"/>
	</g>
	<g id="LINE_32_">
		<line class="st6" x1="776.18" y1="283.98" x2="776.18" y2="760.55"/>
	</g>
	<g id="LINE_33_">
		<line class="st6" x1="776.18" y1="760.55" x2="788.21" y2="772.58"/>
	</g>
	<g id="LINE_34_">
		<line class="st6" x1="788.21" y1="772.58" x2="1092.44" y2="772.58"/>
	</g>
	<g id="LINE_35_">
		<line class="st6" x1="1092.44" y1="772.58" x2="1104.47" y2="760.55"/>
	</g>
	<g id="LINE_36_">
		<line class="st6" x1="1104.47" y1="760.55" x2="1104.47" y2="283.98"/>
	</g>
	<g id="LINE_37_">
		<line class="st6" x1="1104.47" y1="283.98" x2="1092.44" y2="271.95"/>
	</g>
	<g id="LINE_38_">
		<line class="st6" x1="1092.44" y1="271.95" x2="940.85" y2="271.95"/>
	</g>
	<g id="LINE_39_">
		<line class="st6" x1="643.84" y1="837.79" x2="643.84" y2="206.75"/>
	</g>
	<g id="LINE_40_">
		<line class="st6" x1="1102.45" y1="247.8" x2="1102.45" y2="5.11"/>
	</g>
	<g id="LINE_41_">
		<line class="st6" x1="1083.94" y1="292.49" x2="1189.02" y2="38.8"/>
	</g>
	<g id="LINE_42_">
		<line class="st6" x1="1118.41" y1="209.27" x2="1294.03" y2="33.65"/>
	</g>
	<g id="LINE_43_">
		<line class="st6" x1="1167.15" y1="258.02" x2="1342.78" y2="82.39"/>
	</g>
	<g id="LINE_44_">
		<line class="st6" x1="1083.94" y1="292.49" x2="1346.75" y2="183.63"/>
	</g>
	<g id="LINE_45_">
		<line class="st6" x1="1116.3" y1="276.53" x2="1355.61" y2="276.53"/>
	</g>
	<g id="LINE_46_">
		<line class="st6" x1="1102.45" y1="796.74" x2="1102.45" y2="1073.74"/>
	</g>
	<g id="LINE_47_">
		<line class="st6" x1="778.2" y1="796.74" x2="778.2" y2="1073.74"/>
	</g>
	<g id="LINE_48_">
		<line class="st6" x1="764.35" y1="765.45" x2="540.21" y2="765.45"/>
	</g>
	<g id="LINE_49_">
		<line class="st6" x1="778.2" y1="247.8" x2="778.2" y2="5.11"/>
	</g>
	<g id="LINE_50_">
		<line class="st6" x1="1156.49" y1="133.45" x2="1156.49" y2="5.11"/>
	</g>
	<g id="LINE_51_">
		<line class="st6" x1="1210.53" y1="133.45" x2="1210.53" y2="5.11"/>
	</g>
	<g id="LINE_52_">
		<line class="st6" x1="1242.98" y1="219.93" x2="1355.61" y2="219.93"/>
	</g>
	<g id="LINE_53_">
		<line class="st6" x1="1242.98" y1="165.89" x2="1355.61" y2="165.89"/>
	</g>
	<g id="LINE_54_">
		<line class="st6" x1="1083.94" y1="752.05" x2="1217.19" y2="1073.74"/>
	</g>
	<g id="LINE_55_">
		<line class="st6" x1="1118.41" y1="835.26" x2="1287" y2="1003.85"/>
	</g>
	<g id="LINE_56_">
		<line class="st6" x1="1167.15" y1="786.52" x2="1335.74" y2="955.11"/>
	</g>
	<g id="LINE_57_">
		<line class="st6" x1="1083.94" y1="752.05" x2="1347.09" y2="861.05"/>
	</g>
	<g id="LINE_58_">
		<line class="st6" x1="1156.49" y1="911.09" x2="1156.49" y2="1073.74"/>
	</g>
	<g id="LINE_59_">
		<line class="st6" x1="1210.53" y1="911.09" x2="1210.53" y2="1073.74"/>
	</g>
	<g id="LINE_60_">
		<line class="st6" x1="1242.98" y1="824.6" x2="1379.75" y2="824.6"/>
	</g>
	<g id="LINE_61_">
		<line class="st6" x1="1242.98" y1="878.64" x2="1379.75" y2="878.64"/>
	</g>
	<g id="LINE_62_">
		<line class="st6" x1="796.71" y1="752.05" x2="662.9" y2="1075.09"/>
	</g>
	<g id="LINE_63_">
		<line class="st6" x1="769.51" y1="817.47" x2="588.58" y2="998.4"/>
	</g>
	<g id="LINE_64_">
		<line class="st6" x1="731.29" y1="779.26" x2="550.36" y2="960.18"/>
	</g>
	<g id="LINE_65_">
		<line class="st6" x1="796.71" y1="752.05" x2="539.45" y2="858.61"/>
	</g>
	<g id="LINE_66_">
		<line class="st6" x1="724.16" y1="911.09" x2="724.16" y2="1073.74"/>
	</g>
	<g id="LINE_67_">
		<line class="st6" x1="689.97" y1="808.01" x2="540.21" y2="808.01"/>
	</g>
	<g id="LINE_68_">
		<line class="st6" x1="665.76" y1="859.71" x2="540.21" y2="859.71"/>
	</g>
	<g id="LINE_69_">
		<line class="st6" x1="796.71" y1="292.49" x2="691.63" y2="38.8"/>
	</g>
	<g id="LINE_70_">
		<line class="st6" x1="769.51" y1="227.07" x2="581.29" y2="38.85"/>
	</g>
	<g id="LINE_71_">
		<line class="st6" x1="731.29" y1="265.28" x2="543.08" y2="77.07"/>
	</g>
	<g id="LINE_72_">
		<line class="st6" x1="796.71" y1="292.49" x2="549.93" y2="190.27"/>
	</g>
	<g id="LINE_73_">
		<line class="st6" x1="724.16" y1="133.45" x2="724.16" y2="5.11"/>
	</g>
	<g id="LINE_74_">
		<line class="st6" x1="668.68" y1="236.53" x2="540.21" y2="236.53"/>
	</g>
	<g id="LINE_75_">
		<line class="st6" x1="665.76" y1="184.83" x2="540.21" y2="184.83"/>
	</g>
	<g id="LINE_76_">
		<line class="st6" x1="941.31" y1="107.28" x2="1269.15" y2="107.28"/>
	</g>
	<g id="LINE_77_">
		<line class="st6" x1="1269.15" y1="107.28" x2="1269.15" y2="937.26"/>
	</g>
	<g id="LINE_78_">
		<line class="st6" x1="1269.15" y1="937.26" x2="615.86" y2="937.26"/>
	</g>
	<g id="LINE_79_">
		<line class="st6" x1="615.86" y1="107.28" x2="941.09" y2="107.28"/>
	</g>
	<g id="LINE_80_">
		<line class="st6" x1="941.31" y1="126.43" x2="1156.48" y2="126.43"/>
	</g>
	<g id="LINE_81_">
		<line class="st6" x1="1156.48" y1="126.43" x2="1250" y2="219.94"/>
	</g>
	<g id="LINE_82_">
		<line class="st6" x1="1250" y1="219.94" x2="1250" y2="824.6"/>
	</g>
	<g id="LINE_83_">
		<line class="st6" x1="1250" y1="824.6" x2="1156.48" y2="918.11"/>
	</g>
	<g id="LINE_84_">
		<line class="st6" x1="1156.48" y1="918.11" x2="724.17" y2="918.11"/>
	</g>
	<g id="LINE_85_">
		<line class="st6" x1="724.17" y1="918.11" x2="643.84" y2="837.79"/>
	</g>
	<g id="LINE_86_">
		<line class="st6" x1="643.84" y1="206.75" x2="724.17" y2="126.43"/>
	</g>
	<g id="LINE_87_">
		<line class="st6" x1="724.17" y1="126.43" x2="941.09" y2="126.43"/>
	</g>
	<g id="LINE_88_">
		<line class="st6" x1="941.31" y1="182.59" x2="1129.46" y2="182.59"/>
	</g>
	<g id="LINE_89_">
		<line class="st6" x1="1129.46" y1="182.59" x2="1193.83" y2="246.97"/>
	</g>
	<g id="LINE_90_">
		<line class="st6" x1="1193.83" y1="246.97" x2="1193.83" y2="797.57"/>
	</g>
	<g id="LINE_91_">
		<line class="st6" x1="1193.83" y1="797.57" x2="1129.46" y2="861.94"/>
	</g>
	<g id="LINE_92_">
		<line class="st6" x1="1129.46" y1="861.94" x2="751.19" y2="861.94"/>
	</g>
	<g id="LINE_93_">
		<line class="st6" x1="751.19" y1="861.94" x2="686.82" y2="797.57"/>
	</g>
	<g id="LINE_94_">
		<line class="st6" x1="686.82" y1="797.57" x2="686.82" y2="246.97"/>
	</g>
	<g id="LINE_95_">
		<line class="st6" x1="686.82" y1="246.97" x2="751.19" y2="182.59"/>
	</g>
	<g id="LINE_96_">
		<line class="st6" x1="751.19" y1="182.59" x2="941.09" y2="182.59"/>
	</g>
	<g id="LINE_97_">
		<line class="st6" x1="540.21" y1="988.32" x2="1379.75" y2="988.32"/>
	</g>
	<g id="LINE_98_">
		<line class="st6" x1="540.21" y1="1056.19" x2="1379.75" y2="1056.19"/>
	</g>
	<g id="LINE_99_">
		<line class="st6" x1="668.68" y1="221.85" x2="540.21" y2="221.85"/>
	</g>
	<g id="LINE_100_">
		<line class="st6" x1="689.97" y1="822.69" x2="540.21" y2="822.69"/>
	</g>
	<g id="LINE_101_">
		<line class="st6" x1="612.67" y1="834.54" x2="612.67" y2="210.6"/>
	</g>
	<g id="LINE_102_">
		<line class="st6" x1="689.05" y1="768.01" x2="540.21" y2="768.01"/>
	</g>
	<g id="LINE_103_">
		<line class="st6" x1="764.86" y1="276.53" x2="540.21" y2="276.53"/>
	</g>
	<g id="LINE_104_">
		<line class="st6" x1="598.74" y1="834.54" x2="598.74" y2="210.6"/>
	</g>
	<g id="LINE_105_">
		<line class="st6" x1="566.18" y1="834.54" x2="566.18" y2="210.6"/>
	</g>
	<g id="LINE_106_">
		<line class="st6" x1="615.86" y1="937.26" x2="615.86" y2="107.28"/>
	</g>
	<g id="LINE_107_">
		<line class="st6" x1="769.13" y1="787.81" x2="778.16" y2="796.84"/>
	</g>
	<g id="LINE_108_">
		<line class="st6" x1="778.16" y1="796.84" x2="1102.49" y2="796.84"/>
	</g>
	<g id="LINE_109_">
		<line class="st6" x1="1102.49" y1="796.84" x2="1110.04" y2="789.28"/>
	</g>
	<g id="LINE_110_">
		<line class="st6" x1="761.01" y1="815.79" x2="767.58" y2="822.37"/>
	</g>
	<g id="LINE_111_">
		<line class="st6" x1="767.58" y1="822.37" x2="1113.07" y2="822.37"/>
	</g>
	<g id="LINE_112_">
		<line class="st6" x1="1113.07" y1="822.37" x2="1120.04" y2="815.39"/>
	</g>
	<g id="LINE_113_">
		<line class="st6" x1="664.8" y1="989.73" x2="664.8" y2="1073.74"/>
	</g>
	<g id="LINE_114_">
		<line class="st6" x1="591.5" y1="989.73" x2="591.5" y2="1073.74"/>
	</g>
	<g id="LINE_115_">
		<line class="st6" x1="1138.18" y1="858.19" x2="1162.22" y2="882.24"/>
	</g>
	<g id="LINE_116_">
		<line class="st6" x1="1190.08" y1="806.29" x2="1214.13" y2="830.33"/>
	</g>
	<g id="LINE_117_">
		<line class="st6" x1="1138.04" y1="866.9" x2="1198.4" y2="806.54"/>
	</g>
	<g id="LINE_118_">
		<line class="st6" x1="1206.67" y1="814.82" x2="1146.31" y2="875.17"/>
	</g>
	<g id="LINE_119_">
		<line class="st6" x1="540.21" y1="48.13" x2="1210.53" y2="48.13"/>
	</g>
	<g id="LINE_120_">
		<line class="st6" x1="1210.53" y1="48.13" x2="1328.3" y2="165.89"/>
	</g>
	<g id="LINE_121_">
		<line class="st6" x1="1328.3" y1="165.89" x2="1328.3" y2="878.64"/>
	</g>
	<g id="LINE_122_">
		<line class="st6" x1="1328.3" y1="878.64" x2="1237.23" y2="969.71"/>
	</g>
</g>
</svg>
