<?xml version="1.0" encoding="utf-8"?>
<!-- Generator: Adobe Illustrator 25.2.3, SVG Export Plug-In . SVG Version: 6.00 Build 0)  -->
<svg version="1.1" id="A-AREA-BNDY" xmlns="http://www.w3.org/2000/svg" xmlns:xlink="http://www.w3.org/1999/xlink" x="0px"
	 y="0px" viewBox="0 0 4195.02 5000" style="enable-background:new 0 0 4195.02 5000;" xml:space="preserve">
<style type="text/css">
	.st0{opacity:0.4;}
	.st1{fill:#BA9BC9;stroke:#000000;stroke-width:0.2551;stroke-linecap:round;stroke-linejoin:round;stroke-miterlimit:10;}
	.st2{fill:#65C8D0;stroke:#000000;stroke-width:0.2551;stroke-linecap:round;stroke-linejoin:round;stroke-miterlimit:10;}
	.st3{fill:none;stroke:#000000;stroke-width:0.25;}
	.st4{font-family:'ArialMT';}
	.st5{font-size:11.975px;}
	
		.st6{fill:none;stroke:#000000;stroke-width:0.2551;stroke-linecap:round;stroke-linejoin:round;stroke-miterlimit:10;stroke-dasharray:0.0532,0.0133,0.0133,0.0133;}
</style>
<g id="_x30_1.30.02" class="st0">
	<polygon class="st1" points="965.02,4698.1 1033.99,4698.1 1066.11,4698.1 1101.56,4698.1 1101.56,4583.06 1101.56,4562.86 
		965.02,4562.86 	"/>
</g>
<g id="ST02" class="st0">
	<polygon class="st1" points="1035.79,4803.67 1094.2,4803.67 1094.2,4749.56 1094.2,4747.82 1094.2,4729.96 1105.15,4729.96 
		1105.15,4747.85 1134.88,4747.85 1134.88,4592.68 1134.88,4584.76 1105.88,4584.76 1105.15,4584.76 1105.15,4701.69 
		1067.82,4701.69 1067.82,4774.47 1064.4,4774.47 1064.4,4701.69 1035.79,4701.69 	"/>
</g>
<g id="_x30_1.27.05" class="st0">
	<polygon class="st1" points="1521.06,4742.41 1521.06,4752.56 1631.16,4752.56 1631.16,4803.67 1677.32,4803.67 1677.32,4752.56 
		1721.12,4752.56 1721.12,4755.69 1680.44,4755.69 1680.44,4803.67 1947.09,4803.67 1947.09,4755.69 1876.09,4755.69 
		1876.09,4752.56 1947.09,4752.56 1947.09,4699.46 1876.09,4699.46 1876.09,4696.04 1947.09,4696.04 1947.09,4628.22 
		1876.09,4628.22 1876.09,4609.35 1876.09,4556.65 1876.09,4556.44 1834.46,4556.44 1834.46,4591 1785.53,4591 1750.8,4591 
		1750.8,4587.88 1783.83,4587.88 1783.83,4539.49 1627.21,4539.49 1627.21,4554.85 1627.21,4556.68 1627.21,4587.88 
		1716.88,4587.88 1716.88,4591 1624.09,4591 1624.09,4556.65 1581.99,4556.65 1581.99,4562.74 1579.82,4567.34 1579.82,4585.35 
		1581.99,4585.35 1581.99,4591 1521.06,4591 1521.06,4633.1 1521.06,4675.49 	"/>
</g>
<g id="_x30_1.47.02" class="st0">
	<polygon class="st1" points="1278.84,463.29 1278.84,498.5 1310.78,498.5 1316.52,498.5 1335.45,498.5 1335.45,360.65 
		1337.24,360.65 1337.24,347.74 1335.45,347.74 1335.45,346.48 1257.29,346.48 1257.29,365.32 1253.69,365.32 1253.69,346.48 
		1136.88,346.48 1136.88,347.74 1133.29,347.74 1133.29,344.68 1133.29,336.12 1082.63,336.12 1082.63,367.68 1103.44,367.68 
		1103.44,378.98 1099.85,378.98 1099.85,371.27 1080.83,371.27 1071.5,371.27 1071.5,502.27 1099.85,502.27 1099.85,461.5 
		1099.85,451.14 1099.85,416.37 1103.44,416.37 1103.44,449.34 1253.69,449.34 1253.69,430.5 1257.29,430.5 1257.29,449.34 
		1303.59,449.34 1303.59,416.37 1307.18,416.37 1307.18,448.3 1307.18,449.25 1307.18,451.14 1307.18,463.29 	"/>
</g>
<g id="_x30_1.42.01" class="st0">
	<polygon class="st1" points="452.2,1323.67 342.45,1323.67 342.45,1429.06 333.27,1429.06 333.27,1472.63 333.5,1472.63 
		333.5,1475.46 333.5,1507.94 333.5,1510.78 333.27,1510.78 333.27,1535.04 343.39,1535.04 343.39,1565.59 343.39,1694.77 
		343.39,1725.33 333.27,1725.33 333.27,1856.04 333.27,1858.87 333.27,1909.5 477.63,1909.5 477.63,1898.31 671.72,1898.31 
		683,1898.31 683,1907.02 692.65,1907.02 692.65,1919.27 796.28,1919.27 796.28,1907.02 805.93,1907.02 805.93,1894.66 
		807.27,1891.95 807.27,1891.82 807.27,1853.17 807.27,1850.62 809.82,1850.62 826.58,1850.62 826.58,1654.44 809.82,1654.44 
		807.27,1654.44 807.27,1651.89 807.27,1614.6 807.27,1612.05 809.82,1612.05 826.58,1612.05 826.58,1459.32 824.16,1459.32 
		824.16,1429.06 818.1,1429.06 752.33,1429.06 752.33,1400.33 721.83,1400.33 721.83,1427.35 718.42,1427.35 718.42,1400.33 
		687.92,1400.33 687.92,1429.06 622.71,1429.06 622.71,1387.43 622.71,1380.95 622.71,1323.67 	"/>
</g>
<g id="_x30_1.40.01" class="st0">
	<polygon class="st1" points="332.26,1912.91 328.32,1912.91 328.32,1973.56 331.26,1973.56 331.26,1959.78 441.66,1959.78 
		441.66,1995.69 475.75,1995.69 475.75,1973.08 479.16,1973.08 479.16,1997.4 479.16,1998.52 682.41,1998.52 682.41,1960.54 
		682.41,1950.18 685.82,1950.18 685.82,1958.84 699.02,1958.84 734.51,1958.84 769.14,1958.84 804.69,1958.84 824.16,1958.84 
		824.16,1897.37 809.82,1897.37 809.35,1897.37 809.35,1910.44 798.57,1910.44 798.57,1921.57 690.36,1921.57 690.36,1910.44 
		681.29,1910.44 679.55,1910.44 672.87,1910.44 672.87,1921.57 670.57,1921.57 670.57,1909.44 670.57,1901.72 481.05,1901.72 
		481.05,1912.91 	"/>
</g>
<g id="_x30_1.38.01" class="st0">
	<polygon class="st1" points="438.24,1999.11 438.24,1963.19 333.27,1963.19 333.27,1974.25 333.27,1977.09 333.27,2163.38 
		429.74,2163.38 438.07,2163.38 438.07,2234.03 438.07,2251.25 438.07,2306.21 477.31,2306.21 520.79,2306.21 520.79,2304.21 
		551.99,2304.21 551.99,2312.36 551.99,2313.95 551.99,2449.25 551.99,2559.5 550.14,2559.5 520.79,2559.5 520.79,2557.5 
		484.7,2557.5 483.46,2557.5 483.43,2557.5 477.31,2557.5 438.07,2557.5 438.07,2575.02 438.07,2592.47 438.07,2700.63 
		431.15,2700.63 335.24,2700.63 333.27,2700.63 333.27,2874.02 438.24,2874.02 438.24,2825.98 469.75,2825.98 469.75,2823.15 
		477.63,2823.15 515.79,2823.15 515.79,2874.02 644.84,2874.02 644.84,2823.15 685.82,2823.15 685.82,2874.02 698.6,2874.02 
		698.6,2861.19 699.31,2861.19 699.31,2874.02 734.16,2874.02 734.16,2860.19 734.86,2860.19 734.86,2874.02 768.78,2874.02 
		768.78,2860.19 769.49,2860.19 769.49,2874.02 804.34,2874.02 804.34,2861.19 805.04,2861.19 805.04,2874.02 826.58,2874.02 
		826.58,2770.99 809.82,2770.99 807.27,2770.99 807.27,2768.43 807.27,2731.15 807.27,2728.6 809.82,2728.6 826.58,2728.6 
		826.58,2603.42 809.82,2603.42 807.27,2603.42 807.27,2600.87 807.27,2562.12 807.27,2556.68 824.16,2556.68 824.16,2533.13 
		822.16,2533.13 822.16,2479.43 824.16,2479.43 824.16,2458.7 822.16,2458.7 822.16,2405.01 824.16,2405.01 824.16,2384.28 
		822.16,2384.28 822.16,2330.59 824.16,2330.59 824.16,2307.04 807.27,2307.04 807.27,2301.59 807.27,2262.84 807.27,2260.29 
		809.82,2260.29 826.58,2260.29 826.58,2135.11 809.82,2135.11 807.27,2135.11 807.27,2132.56 807.27,2095.28 807.27,2092.72 
		809.82,2092.72 826.58,2092.72 826.58,1964.84 824.16,1964.84 824.16,1962.25 805.04,1962.25 805.04,1974.44 804.34,1974.44 
		804.34,1962.25 769.49,1962.25 769.49,1975.44 768.78,1975.44 768.78,1962.25 734.86,1962.25 734.86,1975.44 734.16,1975.44 
		734.16,1962.25 699.37,1962.25 699.37,1974.44 698.67,1974.44 698.67,1962.25 685.82,1962.25 685.82,2001.93 477.46,2001.93 
		477.46,1999.11 	"/>
</g>
<g id="_x30_1.35.01" class="st0">
	<polygon class="st1" points="452.55,3471.28 622.71,3471.28 622.71,3438.57 622.71,3435.13 626.15,3435.13 687.92,3435.13 
		687.92,3463.39 718.42,3463.39 718.42,3436.83 721.83,3436.83 721.83,3463.39 752.33,3463.39 752.33,3435.13 818.1,3435.13 
		824.16,3435.13 824.16,3404.39 826.58,3404.39 826.58,3251.66 809.82,3251.66 807.27,3251.66 807.27,3249.11 807.27,3211.83 
		807.27,3209.27 809.82,3209.27 826.58,3209.27 826.58,3013.09 809.82,3013.09 807.27,3013.09 807.27,3010.54 807.27,2971.89 
		807.27,2971.76 806.05,2969.05 806.05,2941.49 806.05,2928.78 800.47,2928.78 800.47,2915.89 696.84,2915.89 696.84,2928.78 
		691,2928.78 691,2936.67 471.04,2936.67 471.04,2928.78 333.27,2928.78 333.27,3004.84 333.27,3007.68 333.27,3138.09 
		346.07,3138.09 346.07,3141.21 330.56,3141.21 330.56,3145.45 328.32,3145.45 328.32,3321.61 333.27,3321.61 333.27,3352.93 
		333.5,3352.93 333.5,3355.77 333.5,3388.25 333.5,3391.09 333.27,3391.09 333.27,3438.19 333.5,3438.19 333.5,3441.02 
		333.5,3541.46 449.14,3541.46 449.14,3472.98 449.14,3436.69 452.55,3436.69 	"/>
</g>
<g id="_x30_1.18.03" class="st0">
	<polygon class="st1" points="3579.94,3917.45 3548.5,3917.45 3548.5,3949.39 3548.5,3980.83 3548.5,4004.26 3631.75,4004.26 
		3631.75,4000.5 3696.75,4000.5 3696.75,3384.9 3668.11,3384.9 3668.11,3381.31 3698.55,3381.31 3707.11,3381.31 3707.11,3332.76 
		3675.55,3332.76 3675.55,3349.93 3668.11,3349.93 3668.11,3346.34 3671.96,3346.34 3671.96,3330.97 3671.96,3318.14 
		3623.09,3318.14 3620.09,3318.14 3620.09,3346.4 3639.85,3346.4 3639.85,3349.99 3618.3,3349.99 3593.42,3349.99 3593.42,3633.13 
		3622.15,3633.13 3622.15,3636.72 3591.62,3636.72 3581.73,3636.72 3567.35,3636.72 3556.03,3636.72 3556.03,3671.25 
		3581.73,3671.25 3581.73,3670.64 3591.62,3670.64 3622.15,3670.64 3622.15,3674.23 3593.42,3674.23 3593.42,3972.26 
		3623.09,3972.26 3623.09,3975.85 3591.62,3975.85 3579.94,3975.85 	"/>
</g>
<g id="_x30_1.15.02" class="st0">
	<polygon class="st1" points="3518.35,2585.41 3581.73,2585.41 3591.62,2585.41 3607.2,2585.41 3607.2,2589 3593.42,2589 
		3593.42,2949.21 3618.3,2949.21 3640.7,2949.21 3640.7,2952.8 3620.09,2952.8 3620.09,2981.24 3623.09,2981.24 3671.96,2981.24 
		3671.96,2969.67 3671.96,2952.8 3666.6,2952.8 3666.6,2949.21 3675.55,2949.21 3675.55,2967.88 3707.11,2967.88 3707.11,2918.3 
		3696.75,2918.3 3696.75,2555.26 3658.83,2555.26 3658.83,2589 3635.46,2589 3635.46,2555.26 3537.63,2555.26 3518.35,2555.26 	"/>
</g>
<g id="_x30_1.12.02" class="st0">
	<polygon class="st1" points="3707.11,1943.56 3707.11,1893.6 3675.55,1893.6 3675.55,1914.5 3666.6,1914.5 3666.6,1910.91 
		3671.96,1910.91 3671.96,1891.8 3671.96,1882.47 3623.09,1882.47 3619.15,1882.47 3619.15,1910.91 3640.7,1910.91 3640.7,1914.5 
		3617.35,1914.5 3593.89,1914.5 3593.89,2274.71 3607.02,2274.71 3607.02,2278.3 3592.1,2278.3 3581.73,2278.3 3552.27,2278.3 
		3552.27,2308.45 3598.68,2308.45 3603.31,2308.45 3604.35,2308.45 3635.46,2308.45 3635.46,2274.71 3657.71,2274.71 
		3657.71,2308.45 3696.75,2308.45 3696.75,1943.56 	"/>
</g>
<g id="_x30_1.05.01" class="st0">
	<polygon class="st1" points="3180.04,578.26 3180.04,559.97 3178.57,559.97 3178.57,521.95 3178.57,426.64 3178.57,394.05 
		3182.75,394.05 3182.75,337.35 2948.42,337.35 2948.42,344.6 2880.3,344.6 2880.3,337.35 2820.01,337.35 2820.01,347.54 
		2810.65,347.54 2810.65,339.89 2810.65,338.12 2757.77,338.12 2757.77,395.04 2757.77,397.88 2757.77,403.47 2795.34,403.47 
		2795.34,579.52 2863.34,579.52 2863.34,585.17 2923.63,585.17 2923.63,579.52 2968.85,579.52 2968.85,585.17 3164.79,585.17 
		3164.79,567.59 3169.5,567.59 3169.5,559.97 3171.51,559.97 3171.51,567.59 3166.8,567.59 3166.8,585.17 3180.04,585.17 
		3180.04,583.37 	"/>
</g>
<g id="_x30_1.49.01A" class="st0">
	<polygon class="st1" points="1819.74,468.56 1819.74,464.24 1787.8,464.24 1740.43,464.24 1740.43,464.33 1740.43,512.99 
		1531.89,512.99 1527.53,512.99 1527.53,506.27 1448.23,506.27 1448.23,519.23 1448.23,585.17 1629.27,585.17 1629.27,586.96 
		1638.69,586.96 1638.69,585.17 1819.74,585.17 	"/>
</g>
<g id="EL01" class="st0">
	<polygon class="st1" points="2483.23,4487.9 2483.23,4488.32 2552,4488.32 2552,4427.89 2552,4417.67 2500.57,4417.67 
		2483.23,4417.67 2483.23,4433.13 	"/>
</g>
<g id="EL02" class="st0">
	<rect x="2555.59" y="4429.68" class="st1" width="43.51" height="58.64"/>
</g>
<g id="ST01" class="st0">
	<polygon class="st1" points="2703.37,4571.52 2646.85,4571.52 2646.85,4623.71 2646.85,4670.9 2703.37,4670.9 	"/>
</g>
<g id="EL03" class="st0">
	<rect x="1035.79" y="4448.11" class="st1" width="54.81" height="40.21"/>
</g>
<g id="LWPOLYLINE_7_" class="st0">
	
		<rect x="937.28" y="1084.04" transform="matrix(0.7071 -0.7071 0.7071 0.7071 -488.3615 991.8874)" class="st2" width="31.71" height="2.83"/>
</g>
<g id="LWPOLYLINE_8_" class="st0">
	
		<rect x="951.53" y="1098.67" transform="matrix(0.7071 -0.7071 0.7071 0.7071 -494.798 1005.6098)" class="st2" width="29.89" height="2.83"/>
</g>
<g id="LWPOLYLINE_10_" class="st0">
	<rect x="899.55" y="3167" class="st2" width="2.83" height="42.21"/>
</g>
<g id="LWPOLYLINE_11_" class="st0">
	<rect x="919.33" y="1654.5" class="st2" width="2.83" height="42.21"/>
</g>
<g id="LWPOLYLINE_12_" class="st0">
	<rect x="899.55" y="1654.5" class="st2" width="2.83" height="42.21"/>
</g>
<g id="LWPOLYLINE_13_" class="st0">
	
		<rect x="3126.88" y="1126.55" transform="matrix(0.7071 -0.7071 0.7071 0.7071 119.6828 2552.3318)" class="st2" width="27.79" height="10.28"/>
</g>
<g id="_x30_1.31.08" class="st0">
	<rect x="599.74" y="3798.75" class="st1" width="69.71" height="200.01"/>
</g>
<g id="_x30_1.31.09" class="st0">
	<polygon class="st1" points="596.15,3998.76 596.15,3798.75 581.26,3798.75 581.26,3795.16 597.95,3795.16 669.46,3795.16 
		669.46,3769.55 538.22,3769.55 538.22,3798.75 452.67,3798.75 452.67,4003.17 453.61,4003.17 453.61,3998.76 545.93,3998.76 	"/>
</g>
<g id="_x30_1.32.01" class="st0">
	<polygon class="st1" points="452.67,3764.84 452.67,3795.16 534.63,3795.16 534.63,3767.75 534.63,3759.33 534.63,3736.58 
		492.91,3736.58 490.35,3736.58 457.61,3736.58 457.61,3764.84 	"/>
</g>
<g id="_x30_1.34.03" class="st0">
	<polygon class="st1" points="626.12,3483.76 626.12,3599.12 684.51,3599.12 684.51,3591.97 687.92,3591.97 687.92,3600.12 
		687.92,3604.77 718.42,3604.77 718.42,3592.03 735.49,3592.03 735.49,3535.51 718.42,3535.51 718.42,3516.94 718.42,3466.8 
		687.92,3466.8 687.92,3476.28 687.92,3482.76 687.92,3483.79 687.92,3535.45 673.69,3535.45 673.69,3483.76 	"/>
</g>
<g id="_x30_1.34.01" class="st0">
	<polygon class="st1" points="755.75,3604.77 817.1,3604.77 817.1,3438.54 755.75,3438.54 755.75,3465.09 755.75,3485.64 
		752.33,3485.64 752.33,3466.8 721.83,3466.8 721.83,3515.79 755.75,3515.79 755.75,3535.51 738.91,3535.51 738.91,3592.03 
		755.75,3592.03 	"/>
</g>
<g id="_x30_1.34.04" class="st0">
	<polygon class="st1" points="626.12,3438.54 626.12,3472.98 626.12,3475.28 684.51,3475.28 684.51,3465.09 684.51,3438.54 	"/>
</g>
<g id="_x30_1.34.02" class="st0">
	<polygon class="st1" points="752.33,3518.08 721.83,3518.08 721.83,3533.22 737.2,3533.22 752.33,3533.22 	"/>
</g>
<g id="EL06" class="st0">
	<polygon class="st1" points="591.15,3527.45 547.58,3527.45 547.58,3529.28 547.58,3583.5 591.15,3583.5 	"/>
</g>
<g id="EL05" class="st0">
	<rect x="547.58" y="3583.5" class="st1" width="43.57" height="61.23"/>
</g>
<g id="EL04" class="st0">
	<polygon class="st1" points="606.22,3644.43 592.89,3644.43 592.89,3644.73 589.87,3644.73 547.58,3644.73 547.58,3645.02 
		547.58,3692.42 525.79,3692.42 525.79,3699.54 606.22,3699.54 606.22,3691.51 	"/>
</g>
<g id="ST03" class="st0">
	<polygon class="st1" points="538.22,3757.77 669.75,3757.77 669.75,3702.66 639.93,3702.66 607.78,3702.66 524.79,3702.66 
		492.88,3702.66 492.88,3732.99 538.22,3732.99 	"/>
</g>
<g id="_x30_1.33.02" class="st0">
	<polygon class="st1" points="622.71,3474.69 452.55,3474.69 452.55,3544.87 333.5,3544.87 333.5,3691.48 340.1,3691.48 
		340.1,3699.37 452.2,3699.37 452.2,3698.01 452.2,3643.32 544.46,3643.32 544.46,3583.5 544.46,3527.45 536.86,3527.45 
		536.86,3502.95 561.53,3502.95 594.27,3502.95 594.27,3523.65 594.27,3526.03 594.27,3583.5 594.27,3641.31 607.78,3641.31 
		650.27,3641.31 650.27,3639.61 650.57,3639.61 650.57,3608.17 622.71,3608.17 622.71,3600.12 622.71,3482.76 622.71,3476.28 	"/>
</g>
<g id="LWPOLYLINE_27_" class="st0">
	<rect x="674.52" y="3265.09" class="st2" width="11.3" height="8.48"/>
</g>
<g id="LWPOLYLINE_28_" class="st0">
	<rect x="674.52" y="3025.81" class="st2" width="11.3" height="8.48"/>
</g>
<g id="LWPOLYLINE_29_" class="st0">
	<rect x="476.22" y="3025.81" class="st2" width="8.48" height="8.48"/>
</g>
<g id="LWPOLYLINE_30_" class="st0">
	<rect x="552.05" y="3265.09" class="st2" width="8.48" height="8.48"/>
</g>
<g id="LWPOLYLINE_32_" class="st0">
	<rect x="578.08" y="2597.36" class="st2" width="3.41" height="5.42"/>
</g>
<g id="LWPOLYLINE_33_" class="st0">
	<rect x="545.22" y="2597.36" class="st2" width="3.41" height="5.47"/>
</g>
<g id="LWPOLYLINE_34_" class="st0">
	<rect x="535.1" y="2026.31" class="st2" width="89.49" height="3.41"/>
</g>
<g id="LWPOLYLINE_35_" class="st0">
	<polygon class="st2" points="540.16,2840.23 536.75,2840.23 536.75,2823.27 623.77,2823.27 623.77,2840.23 620.35,2840.23 
		620.35,2826.69 540.16,2826.69 	"/>
</g>
<g id="_x30_1.39.02" class="st0">
	<polygon class="st1" points="429.74,2235.03 401.03,2235.03 401.03,2250.1 434.65,2250.1 434.65,2235.03 	"/>
</g>
<g id="_x30_1.39.01" class="st0">
	<polygon class="st1" points="398.74,2232.73 429.74,2232.73 429.74,2233.03 434.95,2233.03 434.95,2166.5 429.74,2166.5 
		429.74,2166.79 330.56,2166.79 330.56,2170.44 328.32,2170.44 328.32,2248.98 360.58,2248.98 360.58,2252.4 328.32,2252.4 
		328.32,2282.07 343.63,2282.07 343.63,2305.03 400.15,2305.03 400.15,2280.25 403.57,2280.25 403.57,2306.04 403.57,2312.51 
		403.57,2322.93 434.65,2322.93 434.65,2307.92 434.65,2252.4 398.74,2252.4 	"/>
</g>
<g id="_x30_1.38.05" class="st0">
	<polygon class="st1" points="343.63,2354.31 400.15,2354.31 400.15,2324.64 400.15,2313.51 343.63,2313.51 	"/>
</g>
<g id="_x30_1.37.01" class="st0">
	<polygon class="st1" points="400.15,2509.69 343.22,2509.69 343.22,2540.66 339.47,2540.66 339.47,2553.38 339.47,2554.07 
		339.47,2559.75 339.47,2573.87 365.53,2573.87 365.53,2577.28 337.91,2577.28 336.8,2577.28 336.8,2697.22 429.59,2697.22 
		429.59,2593.77 398.74,2593.77 398.74,2573.87 434.65,2573.87 434.65,2555.79 434.65,2537.95 403.57,2537.95 403.57,2539.78 
		400.15,2539.78 400.15,2536.25 	"/>
</g>
<g id="LWPOLYLINE_41_" class="st0">
	<rect x="488" y="1861.45" class="st2" width="184.64" height="3.41"/>
</g>
<g id="_x30_1.43.04" class="st0">
	<polygon class="st1" points="333.5,1320.25 341.45,1320.25 452.2,1320.25 452.2,1319.31 622.71,1319.31 622.71,1262.26 
		622.71,1255.55 650.57,1255.55 650.57,1220.51 618.76,1220.51 594.45,1220.51 594.45,1230.29 594.45,1289.93 545.81,1289.93 
		545.81,1230.29 545.81,1172.23 494.3,1172.23 491.32,1172.23 491.32,1171.71 452.2,1171.71 452.2,1164.35 340.1,1164.35 
		340.1,1172.23 333.5,1172.23 	"/>
</g>
<g id="_x30_1.43.03" class="st0">
	<polygon class="st1" points="626.12,1321.49 626.12,1379.95 673.69,1379.95 673.69,1328.26 687.92,1328.26 687.92,1379.92 
		687.92,1380.95 687.92,1387.43 687.92,1396.91 718.42,1396.91 718.42,1346.78 718.42,1328.26 735.38,1328.26 735.38,1271.74 
		718.42,1271.74 718.42,1258.97 687.92,1258.97 687.92,1262.26 687.92,1271.74 684.51,1271.74 684.51,1263.26 653.13,1263.26 
		626.12,1263.26 	"/>
</g>
<g id="_x30_1.43.01" class="st0">
	<polygon class="st1" points="817.1,1258.97 755.75,1258.97 755.75,1271.74 738.79,1271.74 738.79,1328.26 755.75,1328.26 
		755.75,1347.92 721.83,1347.92 721.83,1396.91 752.33,1396.91 752.33,1378.07 755.75,1378.07 755.75,1398.62 755.75,1425.64 
		817.1,1425.64 	"/>
</g>
<g id="_x30_1.42.02" class="st0">
	<polygon class="st1" points="626.12,1388.43 626.12,1425.64 684.51,1425.64 684.51,1398.62 684.51,1388.43 	"/>
</g>
<g id="_x30_1.43.05" class="st0">
	<polygon class="st1" points="669.75,1169.53 669.75,1164.46 594.45,1164.46 594.45,1193.55 620.47,1193.55 620.47,1217.1 
		650.54,1217.1 653.13,1217.1 669.75,1217.1 	"/>
</g>
<g id="_x30_1.45.01" class="st0">
	<rect x="599.74" y="865.37" class="st1" width="69.71" height="199.59"/>
</g>
<g id="_x30_1.45.02" class="st0">
	<polygon class="st1" points="596.15,1064.96 596.15,865.37 453.59,865.37 453.59,860.54 452.67,860.54 452.67,1064.96 
		538.22,1064.96 538.22,1094.16 669.46,1094.16 669.46,1068.55 597.95,1068.55 580.32,1068.55 580.32,1064.96 	"/>
</g>
<g id="_x30_1.44.02" class="st0">
	<polygon class="st1" points="452.67,1068.55 452.67,1098.87 457.61,1098.87 457.61,1127.13 494.3,1127.13 496.86,1127.13 
		534.63,1127.13 534.63,1104.38 534.63,1095.96 534.63,1068.55 	"/>
</g>
<g id="ST05" class="st0">
	<polygon class="st1" points="669.75,1161.05 669.75,1105.94 538.22,1105.94 538.22,1130.73 496.83,1130.73 496.83,1151.04 
		496.06,1151.04 496.06,1161.05 543.72,1161.05 591.3,1161.05 592.89,1161.05 	"/>
</g>
<g id="EL08" class="st0">
	<polygon class="st1" points="496.83,1170.23 548.93,1170.23 548.93,1230.29 591.33,1230.29 591.33,1218.81 591.33,1195.26 
		591.33,1164.17 543.72,1164.17 496.06,1164.17 496.06,1166.7 496.83,1166.7 496.83,1169.7 	"/>
</g>
<g id="EL07" class="st0">
	<rect x="548.93" y="1230.29" class="st1" width="42.39" height="55.11"/>
</g>
<g id="LWPOLYLINE_54_" class="st0">
	<rect x="500.43" y="1962.25" class="st2" width="159.38" height="3.41"/>
</g>
<g id="ST04" class="st0">
	<polygon class="st1" points="548.58,2447.4 548.58,2315.51 486.58,2315.51 486.58,2321.1 486.58,2326.77 486.58,2355.88 
		486.58,2447.4 	"/>
</g>
<g id="_x30_1.36.01" class="st0">
	<polygon class="st1" points="824.16,2940.49 824.16,2877.44 804.69,2877.44 769.14,2877.44 734.51,2877.44 698.95,2877.44 
		682.41,2877.44 682.41,2826.57 648.26,2826.57 648.26,2877.44 512.37,2877.44 512.37,2826.57 477.63,2826.57 477.63,2829.4 
		469.75,2829.4 441.66,2829.4 441.66,2877.44 333.27,2877.44 333.27,2893.93 328.32,2893.93 328.32,2925.37 332.26,2925.37 
		474.45,2925.37 474.45,2933.26 687.59,2933.26 687.59,2925.37 694.54,2925.37 694.54,2913.59 802.76,2913.59 802.76,2925.37 
		809.47,2925.37 809.47,2940.49 	"/>
</g>
<g id="_x30_1.38.02" class="st0">
	<polygon class="st1" points="548.29,2451.11 485.93,2451.11 485.93,2553.79 520.79,2553.79 548.29,2553.79 	"/>
</g>
<g id="_x30_1.33.01" class="st0">
	<polygon class="st1" points="669.75,3644.73 653.13,3644.73 650.27,3644.73 609.34,3644.73 609.34,3689.95 669.75,3689.95 
		669.75,3684.01 669.75,3650.1 	"/>
</g>
<g id="_x30_1.37.02" class="st0">
	<polygon class="st1" points="434.65,2591.47 434.65,2576.16 401.03,2576.16 401.03,2591.47 431.15,2591.47 	"/>
</g>
<g id="_x30_1.43.02" class="st0">
	<polygon class="st1" points="721.83,1345.63 752.33,1345.63 752.33,1330.56 737.08,1330.56 721.83,1330.56 	"/>
</g>
<g id="_x30_1.29.01A" class="st0">
	<polygon class="st1" points="1431.62,4278.54 1124.16,4278.54 1124.16,4329.3 1383.05,4329.3 1383.05,4331 1402.83,4331 
		1402.83,4329.3 1405.83,4329.3 1431.62,4329.3 	"/>
</g>
<g id="_x30_1.29.06" class="st0">
	<polygon class="st1" points="1148.51,4404.01 1120.57,4404.01 1120.57,4342.64 1120.57,4342.6 1091.31,4342.6 1091.31,4342.63 
		1091.31,4369.51 1091.31,4444.52 1094.2,4444.52 1094.2,4491.91 1074.24,4491.91 1074.24,4495.56 1105.8,4495.56 1105.8,4442.43 
		1138.12,4442.43 1138.12,4446.02 1109.39,4446.02 1109.39,4493.59 1159.31,4493.59 1159.31,4470.98 1162.91,4470.98 
		1162.91,4493.59 1401.01,4493.59 1401.01,4470.98 1404.6,4470.98 1404.6,4493.59 1452.46,4493.59 1470.07,4493.59 1470.07,4444.61 
		1465.27,4444.61 1429.09,4444.61 1429.09,4441.02 1463.47,4441.02 1463.47,4342.6 1436.26,4342.6 1435.21,4342.6 1435.21,4404.01 
		1406.39,4404.01 1404.6,4404.01 1404.6,4422.85 1401.01,4422.85 1401.01,4405.05 1401.01,4404.01 1253.64,4404.01 1253.64,4422.85 
		1250.04,4422.85 1250.04,4404.01 1162.91,4404.01 1162.91,4422.85 1159.31,4422.85 1159.31,4404.01 1150.1,4404.01 
		1148.72,4404.01 	"/>
</g>
<g id="_x30_1.27.02" class="st0">
	<polygon class="st1" points="1467.07,4342.6 1467.07,4441.02 1471.86,4441.02 1502.1,4441.02 1502.1,4444.61 1473.66,4444.61 
		1473.66,4493.59 1530.45,4493.59 1530.45,4454.67 1534.04,4454.67 1534.04,4493.59 1858.84,4493.59 1858.84,4454.67 
		1862.43,4454.67 1862.43,4493.59 1928.84,4493.59 1928.84,4444.61 1926.87,4444.61 1888.8,4444.61 1888.8,4441.02 1925.07,4441.02 
		1925.07,4342.6 1896.81,4342.6 1896.81,4404.01 1868.87,4404.01 1790.3,4404.01 1790.3,4422.94 1786.71,4422.94 1786.71,4404.01 
		1619.97,4404.01 1619.97,4422.85 1616.38,4422.85 1616.38,4404.01 1560.42,4404.01 1560.42,4420.76 1530.45,4420.76 
		1530.45,4404.01 1500.66,4404.01 1495.5,4404.01 1495.5,4342.6 	"/>
</g>
<g id="_x30_1.25.03" class="st0">
	<polygon class="st1" points="1950.51,4803.67 2402.69,4803.67 2402.69,4674.67 2402.55,4674.67 2402.55,4671.83 2402.55,4652.19 
		2402.55,4650.28 2402.69,4650.28 2402.69,4649.35 2402.69,4638.21 2402.69,4636.46 2419.72,4619.42 2452.78,4586.36 
		2405.91,4539.49 1950.51,4539.49 1950.51,4555.06 1950.51,4626.51 1950.51,4697.75 1950.51,4754.12 	"/>
</g>
<g id="_x30_1.22.07" class="st0">
	<polygon class="st1" points="2957.84,4630.69 2957.84,4597.13 2887.24,4597.13 2858.04,4567.93 2706.96,4567.93 2706.96,4674.49 
		2645.2,4674.49 2645.2,4770.11 2645.2,4772.94 2645.2,4803.67 2719.21,4803.67 2719.21,4806.08 2879.36,4806.08 2879.36,4745.12 
		2879.36,4630.69 	"/>
</g>
<g id="LWPOLYLINE_68_" class="st0">
	<rect x="1609.49" y="4696.04" class="st2" width="224.68" height="3.41"/>
</g>
<g id="LWPOLYLINE_69_" class="st0">
	<rect x="1755.04" y="4752.56" class="st2" width="87.14" height="3.12"/>
</g>
<g id="_x30_1.28.01" class="st0">
	<polygon class="st1" points="1517.64,4631.4 1517.64,4589.3 1517.64,4539.49 1454.53,4539.49 1454.53,4631.4 	"/>
</g>
<g id="_x30_1.22.01A" class="st0">
	<polygon class="st1" points="2950.19,4278.54 2650.09,4278.54 2650.09,4329.3 2679.59,4329.3 2810.12,4329.3 2810.12,4332.24 
		2829.9,4332.24 2829.9,4320.64 2833.31,4320.64 2833.31,4332.24 2950.19,4332.24 	"/>
</g>
<g id="_x30_1.31.04" class="st0">
	<polygon class="st1" points="764.36,4523.83 962.31,4523.83 962.31,4474.55 996.22,4474.55 996.22,4342.6 966.08,4342.6 
		966.08,4402.21 966.08,4444.52 962.49,4444.52 962.49,4404.01 635.87,4404.01 634.31,4404.01 634.31,4421.7 634.31,4428.12 
		634.31,4444.52 630.71,4444.52 630.71,4429.92 529.45,4429.92 529.45,4441.22 514.55,4441.22 514.55,4437.63 525.85,4437.63 
		525.85,4428.12 525.85,4313.28 508.54,4313.28 508.54,4309.69 527.65,4309.69 532.27,4309.69 532.27,4278.54 478.46,4278.54 
		478.46,4313.28 459.62,4313.28 459.62,4430.27 470.92,4430.27 470.92,4433.86 457.82,4433.86 452.96,4433.86 452.96,4456 
		456.73,4456 456.73,4527.24 452.96,4527.24 452.96,4527.59 688.83,4527.59 688.83,4523.83 	"/>
</g>
<g id="_x30_1.27.04" class="st0">
	<polygon class="st1" points="2957.84,4597.13 2957.84,4531.27 2957.84,4526.88 2931.17,4497.18 2923.54,4497.18 2816.45,4497.18 
		2709.05,4497.18 2600.9,4497.18 2596.95,4497.18 2570.75,4497.18 2552,4497.18 2552,4491.91 2487,4491.91 2487,4497.18 
		2479.64,4497.18 2479.64,4491.97 2479.64,4490.12 2479.64,4414.08 2552,4414.08 2552,4376.9 2552,4278.54 2390.47,4278.54 
		2390.47,4305.1 2407.22,4305.1 2407.22,4339.57 2407.22,4391.85 2407.22,4497.18 2299.92,4497.18 2231.32,4497.18 1989.34,4497.18 
		1930.64,4497.18 1860.63,4497.18 1532.24,4497.18 1471.86,4497.18 1452.46,4497.18 1452.46,4498.69 1105.8,4498.69 
		1104.75,4498.69 1072.23,4498.69 1072.23,4491.91 1049.63,4491.91 1049.63,4498.69 1030.73,4498.69 1030.73,4492.96 
		1030.73,4437.63 1032.2,4437.63 1032.2,4418.79 1030.73,4418.79 1030.73,4342.6 1001.29,4342.6 1001.29,4528.15 1001.29,4557.8 
		1106.62,4557.8 1106.62,4581.35 1134.88,4581.35 1134.88,4555.53 1134.88,4546.41 1134.88,4536.9 1138.3,4536.9 1138.3,4544.85 
		1168.09,4544.85 1168.09,4535.9 1217.9,4535.9 1217.9,4552.76 1247.75,4552.76 1247.75,4535.9 1281.13,4535.9 1288.26,4535.9 
		1288.26,4539.31 1282.84,4539.31 1282.84,4565.81 1302.98,4565.81 1323.41,4565.81 1323.41,4539.31 1316.52,4539.31 
		1316.52,4535.9 1325.11,4535.9 1356.23,4535.9 1396.12,4535.9 1396.12,4552.76 1424.38,4552.76 1424.38,4535.9 1453.44,4535.9 
		1519.35,4535.9 1582.17,4535.9 1582.17,4553.06 1623.62,4553.06 1623.62,4535.9 1785.53,4535.9 1834.64,4535.9 1834.64,4552.85 
		1876.09,4552.85 1876.09,4535.9 1948.95,4535.9 2407.4,4535.9 2456.53,4585.03 2465.8,4594.3 2499.98,4594.3 2539.84,4594.3 
		2539.84,4567.93 2581.82,4567.93 2597.98,4567.93 2626.24,4567.93 2642.52,4567.93 2645.05,4567.93 2705.17,4567.93 
		2708.01,4567.93 2858.04,4567.93 2887.24,4597.13 	"/>
</g>
<g id="_x30_1.30.03" class="st0">
	<rect x="965.02" y="4701.69" class="st1" width="67.18" height="101.98"/>
</g>
<g id="_x30_1.21.01" class="st0">
	<polygon class="st1" points="3055.34,4438.1 3184.75,4438.1 3184.75,4386.41 3160.26,4386.41 3160.26,4384.4 3184.75,4384.4 
		3184.75,4337.04 3178.04,4340.72 3178.04,4339.88 3178.04,4295.62 3172.33,4295.62 3172.33,4293.62 3149.72,4293.62 
		3149.72,4295.62 3136.59,4295.62 3136.59,4280.54 3055.34,4280.54 3055.34,4349.46 3055.34,4384.4 3126.46,4384.4 3126.46,4386.41 
		3055.34,4386.41 	"/>
</g>
<g id="_x30_1.25.02" class="st0">
	<polygon class="st1" points="1956.93,4404.01 1956.93,4381.28 1956.93,4342.6 1928.66,4342.6 1928.66,4441.02 1930.64,4441.02 
		1961.16,4441.02 1961.16,4444.61 1932.43,4444.61 1932.43,4493.59 1987.54,4493.59 1987.54,4470.98 1991.13,4470.98 
		1991.13,4493.59 2229.53,4493.59 2229.53,4470.9 2233.12,4470.9 2233.12,4493.59 2298.12,4493.59 2298.12,4446.49 2259.5,4446.49 
		2259.5,4442.9 2298.12,4442.9 2298.12,4393.68 2298.12,4393.65 2298.12,4391.85 2298.12,4341.37 2267.97,4341.37 2267.97,4404.01 
		2240.09,4404.01 2238.53,4404.01 2238.5,4404.01 2233.12,4404.01 2233.12,4422.85 2229.53,4422.85 2229.53,4404.01 
		2156.99,4404.01 2156.99,4422.85 2153.4,4422.85 2153.4,4404.01 1991.13,4404.01 1991.13,4422.85 1987.54,4422.85 1987.54,4404.01 
			"/>
</g>
<g id="_x30_1.23.01A" class="st0">
	<polygon class="st1" points="2646.67,4278.54 2555.59,4278.54 2555.59,4375.75 2603.75,4375.75 2603.75,4400.42 2629.72,4400.42 
		2629.72,4346.37 2646.67,4346.37 2646.67,4339.63 2646.67,4331 	"/>
</g>
<g id="_x30_1.22.02" class="st0">
	<polygon class="st1" points="2925.34,4438.1 3051.75,4438.1 3051.75,4385.41 3051.75,4351.26 2989.49,4351.26 2953.6,4351.26 
		2953.6,4404.01 2925.34,4404.01 	"/>
</g>
<g id="_x30_1.25.01A" class="st0">
	<polygon class="st1" points="2264.38,4278.54 1960.69,4278.54 1960.69,4329.3 1962.25,4329.3 1965.93,4329.3 1965.93,4331 
		1985.72,4331 1985.72,4329.3 2264.38,4329.3 	"/>
</g>
<g id="_x30_1.24.03" class="st0">
	<polygon class="st1" points="2301.71,4341.37 2301.71,4390.06 2301.74,4390.06 2403.63,4390.06 2403.63,4341.37 2388.67,4341.37 
		2351.58,4341.37 	"/>
</g>
<g id="_x30_1.21.02" class="st0">
	<polygon class="st1" points="3051.75,4347.67 3051.75,4279.54 3051.75,4277.92 2990.66,4277.92 2990.66,4291.91 2991.28,4291.91 
		2991.28,4310.75 2990.66,4310.75 2990.66,4347.67 	"/>
</g>
<g id="_x30_1.21.03" class="st0">
	<polygon class="st1" points="2958.49,4527.59 3184.75,4527.59 3184.75,4527.24 3180.98,4527.24 3180.98,4452.23 3184.75,4452.23 
		3184.75,4441.69 3053.54,4441.69 2925.34,4441.69 2925.34,4493.59 2927.94,4493.59 2957.81,4526.84 	"/>
</g>
<g id="_x30_1.23.04" class="st0">
	<polygon class="st1" points="2501.83,4674.67 2501.83,4699.34 2548.29,4699.34 2548.29,4685.86 2548.29,4665.43 2551.7,4665.43 
		2551.7,4684.15 2579.97,4684.15 2579.97,4617.38 2536.63,4617.38 2536.63,4635.28 2534.34,4635.28 2534.34,4616.38 
		2534.34,4605.61 2501.83,4605.61 	"/>
</g>
<g id="_x30_1.22.03" class="st0">
	<polygon class="st1" points="2817.59,4404.01 2817.59,4493.59 2921.75,4493.59 2921.75,4439.9 2921.75,4404.01 	"/>
</g>
<g id="_x30_1.24.02" class="st0">
	<rect x="2301.71" y="4296.62" class="st1" width="48.16" height="41.16"/>
</g>
<g id="_x30_1.29.02" class="st0">
	<polygon class="st1" points="1086.84,4339.01 1086.84,4298.5 1035.61,4298.5 1035.61,4339.01 1070.17,4339.01 	"/>
</g>
<g id="_x30_1.31.02A" class="st0">
	<polygon class="st1" points="962.49,4331.47 962.49,4278.54 634.31,4278.54 634.31,4310.48 634.31,4329.3 635.87,4329.3 
		837.05,4329.3 837.05,4331.47 856.83,4331.47 856.83,4323 859.13,4323 859.13,4331.47 	"/>
</g>
<g id="_x30_1.29.07" class="st0">
	<polygon class="st1" points="1097.61,4803.67 1247.75,4803.67 1247.75,4790.54 1247.75,4742.41 1247.75,4649.12 1247.75,4555.06 
		1217.9,4555.06 1217.9,4593.1 1217.9,4605.4 1214.48,4605.4 1214.48,4594.24 1171.66,4594.24 1170.59,4594.24 1168.82,4594.24 
		1138.3,4594.24 1138.3,4751.27 1103.59,4751.27 1097.61,4751.27 	"/>
</g>
<g id="_x30_1.27.01A" class="st0">
	<polygon class="st1" points="1893.22,4278.54 1499.1,4278.54 1499.1,4329.3 1500.66,4329.3 1706.58,4329.3 1706.58,4331 
		1726.36,4331 1726.36,4329.3 1794.95,4329.3 1867.02,4329.3 1893.22,4329.3 	"/>
</g>
<g id="_x30_1.23.05" class="st0">
	<polygon class="st1" points="2501.83,4711.59 2501.83,4795.9 2533.22,4795.9 2533.22,4781.3 2536.63,4781.3 2536.63,4795.9 
		2579.97,4795.9 2579.97,4724.89 2551.7,4724.89 2551.7,4743.14 2548.29,4743.14 2548.29,4723.18 2548.29,4711.59 	"/>
</g>
<g id="_x30_1.22.04" class="st0">
	<rect x="2710.2" y="4404.01" class="st1" width="105.1" height="89.58"/>
</g>
<g id="_x30_1.23.02" class="st0">
	<polygon class="st1" points="2602.69,4427.89 2602.69,4490.12 2602.69,4493.59 2707.91,4493.59 2707.91,4404.01 2679.03,4404.01 
		2648.23,4404.01 2630.86,4404.01 2605.05,4404.01 2605.05,4419.58 2602.69,4419.58 2602.69,4426.06 2602.69,4426.09 	"/>
</g>
<g id="_x30_1.23.03" class="st0">
	<polygon class="st1" points="2583.38,4803.67 2641.79,4803.67 2641.79,4801.2 2645.2,4798.37 2645.2,4772.94 2641.79,4772.94 
		2641.79,4770.11 2641.79,4674.52 2641.79,4674.49 2641.79,4571.52 2626.24,4571.52 2597.98,4571.52 2583.38,4571.52 
		2583.38,4609.99 2583.38,4616.38 2583.38,4685.27 2589.5,4685.27 2589.5,4687.56 2581.67,4687.56 2551.7,4687.56 2551.7,4700.9 
		2551.7,4710.03 2551.7,4721.48 2581.67,4721.48 2589.5,4721.48 2589.5,4723.77 2583.38,4723.77 2583.38,4796.9 	"/>
</g>
<g id="_x30_1.24.04" class="st0">
	<polygon class="st1" points="2301.71,4493.59 2403.63,4493.59 2403.63,4393.65 2301.71,4393.65 2301.71,4444.69 	"/>
</g>
<g id="_x30_1.31.06" class="st0">
	<polygon class="st1" points="889.3,4574.75 959.96,4574.75 959.96,4557.8 997.87,4557.8 997.87,4557.77 997.87,4528.89 
		764.66,4528.89 764.66,4667.6 783.03,4667.6 783.03,4671.02 767.07,4671.02 767.07,4742.91 818.77,4742.91 818.77,4726.95 
		822.18,4726.95 822.18,4742.91 854.03,4742.91 885.89,4742.91 885.89,4688.01 885.89,4631.95 885.89,4575.9 885.89,4558.8 
		889.3,4558.8 	"/>
</g>
<g id="_x30_1.31.07" class="st0">
	<polygon class="st1" points="852.33,4746.32 820.48,4746.32 767.07,4746.32 767.07,4765.64 764.66,4765.64 764.66,4803.67 
		765.1,4803.67 852.33,4803.67 	"/>
</g>
<g id="_x30_1.30.04" class="st0">
	<rect x="889.3" y="4577.05" class="st1" width="70.65" height="53.75"/>
</g>
<g id="_x30_1.30.06" class="st0">
	<rect id="_x30_1.30.06_hello" x="889.3" y="4689.15" class="st1" width="70.65" height="53.75"/>
</g>
<g id="_x30_1.30.05" class="st0">
	<rect x="889.3" y="4633.1" class="st1" width="70.65" height="53.75"/>
</g>
<g id="_x30_1.30.07" class="st0">
	<polygon class="st1" points="959.72,4803.67 959.72,4746.32 887.6,4746.32 855.74,4746.32 855.74,4803.67 	"/>
</g>
<g id="_x30_1.28.03" class="st0">
	<polygon class="st1" points="1251.16,4647.41 1305.21,4647.41 1305.21,4633.1 1305.21,4631.37 1305.21,4601.84 1302.98,4601.84 
		1276.48,4601.84 1276.48,4598.42 1301.27,4598.42 1301.27,4569.22 1279.42,4569.22 1279.42,4539.31 1251.16,4539.31 
		1251.16,4553.91 	"/>
</g>
<g id="_x30_1.28.02" class="st0">
	<polygon class="st1" points="1326.82,4569.22 1304.68,4569.22 1304.68,4598.42 1306.77,4598.42 1316.84,4598.42 1326.82,4598.42 
		1326.82,4601.84 1318.4,4601.84 1318.4,4631.4 1386.23,4631.4 1386.23,4596.25 1355.08,4596.25 1355.08,4539.31 1326.82,4539.31 	
		"/>
</g>
<g id="_x30_1.28.04" class="st0">
	<polygon class="st1" points="1517.64,4741.26 1517.64,4677.2 1501.63,4677.2 1501.63,4673.79 1517.64,4673.79 1517.64,4634.81 
		1453.44,4634.81 1452.32,4634.81 1427.8,4634.81 1427.8,4649.82 1424.38,4649.82 1424.38,4633.72 1424.38,4555.06 1396.12,4555.06 
		1396.12,4577.29 1396.12,4578.32 1396.12,4595.1 1396.12,4633.1 1396.12,4649.82 1392.7,4649.82 1392.7,4634.81 1387.23,4634.81 
		1316.84,4634.81 1308.63,4634.81 1308.63,4650.82 1251.16,4650.82 1251.16,4741.26 1316.72,4741.26 1383.14,4741.26 
		1450.49,4741.26 	"/>
</g>
<g id="_x30_1.22.06" class="st0">
	<polygon class="st1" points="2957.84,4803.67 2957.84,4746.91 2882.95,4746.91 2882.95,4803.53 2882.95,4803.67 	"/>
</g>
<g id="_x30_1.28.05" class="st0">
	<polygon class="st1" points="1517.64,4789.54 1517.64,4754.27 1517.64,4743.56 1451.64,4743.56 1451.64,4803.67 1488.91,4803.67 
		1488.91,4789.54 	"/>
</g>
<g id="_x30_1.28.08" class="st0">
	<polygon class="st1" points="1279.9,4803.67 1315.57,4803.67 1315.57,4743.56 1251.16,4743.56 1251.16,4789.54 1279.9,4789.54 	"/>
</g>
<g id="_x30_1.24.01" class="st0">
	<polygon class="st1" points="2386.88,4278.54 2353.29,4278.54 2353.29,4286.17 2353.29,4293.47 2353.29,4293.5 2353.29,4295.06 
		2353.29,4337.77 2386.88,4337.77 2386.88,4306.89 	"/>
</g>
<g id="_x30_1.29.05" class="st0">
	<polygon class="st1" points="1035.79,4444.52 1087.72,4444.52 1087.72,4371.3 1070.17,4371.3 1035.79,4371.3 1035.79,4418.79 
		1035.79,4437.63 	"/>
</g>
<g id="_x30_1.28.06" class="st0">
	<rect x="1384.28" y="4743.56" class="st1" width="65.06" height="60.11"/>
</g>
<g id="_x30_1.28.07" class="st0">
	<rect x="1317.87" y="4743.56" class="st1" width="64.12" height="60.11"/>
</g>
<g id="_x30_1.29.08" class="st0">
	<polygon class="st1" points="1170.38,4555.53 1170.38,4591.95 1215.6,4591.95 1215.6,4553.91 1215.6,4539.02 1170.38,4539.02 
		1170.38,4546.41 1170.38,4553.94 	"/>
</g>
<g id="_x30_1.26.01" class="st0">
	<polygon class="st1" points="1960.52,4383.08 1960.52,4400.42 1987.54,4400.42 1987.54,4383.08 1962.25,4383.08 	"/>
</g>
<g id="_x30_1.31.05" class="st0">
	<rect x="459.62" y="4278.54" class="st1" width="15.25" height="31.15"/>
</g>
<g id="_x30_1.29.03" class="st0">
	<polygon class="st1" points="1071.97,4367.71 1087.72,4367.71 1087.72,4342.6 1086.81,4342.6 1071.97,4342.6 	"/>
</g>
<g id="_x30_1.27.03" class="st0">
	<rect x="1534.04" y="4404.01" class="st1" width="22.79" height="13.16"/>
</g>
<g id="_x30_1.30.01" class="st0">
	<rect x="965.9" y="4478.14" class="st1" width="30.32" height="45.69"/>
</g>
<g id="_x30_1.27.06" class="st0">
	<polygon class="st1" points="1521.06,4539.49 1521.06,4587.59 1578.58,4587.59 1578.58,4585.35 1579.82,4585.35 1579.82,4567.34 
		1578.58,4562.74 1578.58,4556.68 1578.58,4554.85 1578.58,4539.49 	"/>
</g>
<g id="_x30_1.26.02" class="st0">
	<polygon class="st1" points="1787.24,4591 1831.05,4591 1831.05,4556.47 1831.05,4554.65 1831.05,4539.49 1787.24,4539.49 
		1787.24,4589.44 	"/>
</g>
<g id="_x30_1.26.03" class="st0">
	<polygon class="st1" points="1947.09,4624.8 1947.09,4556.62 1879.5,4556.62 1879.5,4609.35 1879.5,4624.8 	"/>
</g>
<g id="_x30_1.27.07" class="st0">
	<polygon class="st1" points="1521.06,4790.54 1521.06,4803.67 1627.74,4803.67 1627.74,4755.98 1521.06,4755.98 	"/>
</g>
<g id="_x30_1.24.05" class="st0">
	<polygon class="st1" points="2498.42,4672.96 2498.42,4604.61 2498.42,4603.58 2498.42,4597.89 2464.31,4597.89 2455.2,4588.78 
		2422.14,4621.84 2421.41,4621.11 2406.51,4636.01 2414.3,4643.8 2415.87,4645.38 2415.87,4650.35 2411.59,4650.35 2402.55,4650.35 
		2402.55,4672.96 	"/>
</g>
<g id="_x30_1.24.06" class="st0">
	<polygon class="st1" points="2406.1,4803.67 2498.42,4803.67 2498.42,4796.9 2498.42,4710.03 2498.42,4700.9 2498.42,4676.38 
		2406.1,4676.38 	"/>
</g>
<g id="_x30_1.29.04" class="st0">
	<rect x="1035.79" y="4342.6" class="st1" width="32.59" height="25.11"/>
</g>
<g id="_x30_1.22.05" class="st0">
	<rect x="2882.95" y="4634.28" class="st1" width="74.89" height="109.04"/>
</g>
<g id="_x30_1.31.03" class="st0">
	<polygon class="st1" points="535.86,4313.31 535.86,4419.91 630.71,4419.91 630.71,4402.21 630.71,4374.16 581.46,4374.16 
		581.46,4371.86 630.71,4371.86 630.71,4331 630.71,4312.28 595,4312.28 535.86,4312.28 	"/>
</g>
<g id="_x30_1.04.02" class="st0">
	<polygon class="st1" points="2688.99,445.39 2687.95,445.39 2687.95,504.63 2752.15,504.63 2752.18,504.63 2752.18,445.39 	"/>
</g>
<g id="_x30_1.48.02" class="st0">
	<polygon class="st1" points="1312.57,502.09 1312.57,518.28 1335.45,518.28 1335.45,502.09 1316.52,502.09 	"/>
</g>
<g id="LWPOLYLINE_130_" class="st0">
	<rect x="2956.9" y="355.52" class="st2" width="213.37" height="3.41"/>
</g>
<g id="_x30_1.03.01" class="st0">
	<polygon class="st1" points="2597.51,521.88 2597.51,565.21 2646.85,565.21 2646.85,521.88 2627.92,521.88 	"/>
</g>
<g id="_x30_1.02.01A" class="st0">
	<polygon class="st1" points="2560.18,585.17 2560.18,533.95 2558.56,533.95 2553.06,533.95 2553.06,532.28 2533.28,532.28 
		2533.28,533.95 2294.17,533.95 2294.17,585.17 	"/>
</g>
<g id="_x30_1.03.02" class="st0">
	<polygon class="st1" points="2597.51,504.07 2597.51,518.28 2626.12,518.28 2626.12,502.3 2629.72,502.3 2629.72,518.28 
		2646.85,518.28 2646.85,502.3 2650.44,502.3 2650.44,520.08 2650.44,562.56 2684.35,562.56 2684.35,506.07 2684.35,443.6 
		2684.35,441.71 2684.35,440.76 2684.35,397.88 2684.35,336.12 2652.15,336.12 2652.15,339.89 2597.51,339.89 2597.51,344.68 
		2597.51,386.31 	"/>
</g>
<g id="_x30_1.02.02" class="st0">
	<polygon class="st1" points="2166.06,371.27 2166.06,418.96 2166.06,426.91 2196.38,426.91 2196.38,403.36 2199.97,403.36 
		2199.97,428.7 2199.97,449.34 2560.18,449.34 2560.18,416.37 2563.77,416.37 2563.77,451.14 2563.77,461.5 2563.77,487.7 
		2563.77,489.43 2563.77,502.27 2593.92,502.27 2593.92,388.11 2560.18,388.11 2560.18,384.52 2593.92,384.52 2593.92,346.48 
		2231.76,346.48 2231.76,375.09 2228.17,375.09 2228.17,344.68 2228.17,336.12 2179.13,336.12 2179.13,367.68 2199.94,367.68 
		2199.94,375.09 2196.35,375.09 2196.35,371.27 2177.33,371.27 	"/>
</g>
<g id="LWPOLYLINE_136_" class="st0">
	<rect x="1133.29" y="360.65" class="st2" width="3.59" height="15.04"/>
</g>
<g id="LWPOLYLINE_138_" class="st0">
	<polygon class="st2" points="1488.44,528.41 1491.85,528.41 1491.85,551.08 1776.11,551.08 1776.11,522.88 1771.58,522.88 
		1771.58,488.35 1771.58,483.84 1779.53,483.84 1779.53,489.49 1773.88,489.49 1773.88,520.58 1779.53,520.58 1779.53,554.49 
		1488.44,554.49 	"/>
</g>
<g id="_x30_1.45.03" class="st0">
	<polygon class="st1" points="452.96,510.81 452.96,588.94 453.32,588.94 453.32,585.17 535.63,585.17 535.63,537.95 545.7,537.95 
		545.7,488.99 545.7,482.55 500.48,482.55 500.48,510.81 459.5,510.81 	"/>
</g>
<g id="_x30_1.45.06" class="st0">
	<polygon class="st1" points="581.9,344.68 581.9,336.12 452.81,336.12 452.81,336.47 456.73,336.47 456.73,407.71 452.96,407.71 
		452.96,459.7 459.5,459.7 499.33,459.7 549.29,459.7 549.29,481.4 549.29,487.2 581.9,487.2 581.9,386.31 	"/>
</g>
<g id="_x30_1.45.08" class="st0">
	<polygon class="st1" points="695.51,523.94 695.51,463.29 637.9,463.29 637.9,490.79 617.44,490.79 616.95,490.79 616.95,523.94 
		666.42,523.94 	"/>
</g>
<g id="_x30_1.04.01" class="st0">
	<polygon class="st1" points="2687.95,585.17 2748.41,585.17 2752.18,585.17 2752.18,583.36 2752.18,507.51 2687.95,507.51 
		2687.95,564.36 	"/>
</g>
<g id="_x30_1.47.01A" class="st0">
	<polygon class="st1" points="1103.44,533.95 1103.44,585.17 1275.24,585.17 1275.24,533.95 1274.24,533.95 1129.82,533.95 
		1129.82,532.24 1110.03,532.24 1110.03,533.95 1105,533.95 	"/>
</g>
<g id="_x30_1.49.02" class="st0">
	<polygon class="st1" points="1819.74,418.96 1819.74,371.27 1808.47,371.27 1789.42,371.27 1789.42,376.63 1785.83,376.63 
		1785.83,367.68 1806.67,367.68 1806.67,336.12 1757.33,336.12 1757.33,344.68 1757.33,376.63 1753.74,376.63 1753.74,346.48 
		1339.04,346.48 1339.04,347.74 1337.24,347.74 1337.24,360.65 1339.04,360.65 1339.04,498.5 1363.71,498.5 1395.65,498.5 
		1395.65,463.29 1367.39,463.29 1367.39,451.14 1367.39,416.37 1370.98,416.37 1370.98,449.34 1786,449.34 1786,428.7 1786,403.36 
		1789.6,403.36 1789.6,426.91 1819.74,426.91 	"/>
</g>
<g id="_x30_1.48.01" class="st0">
	<polygon class="st1" points="1361.91,575.75 1361.91,521.88 1337.24,521.88 1312.57,521.88 1312.57,575.75 1314.72,575.75 
		1359.76,575.75 	"/>
</g>
<g id="_x30_1.04.05" class="st0">
	<polygon class="st1" points="2757.77,440.76 2757.77,441.8 2757.77,579.52 2795.34,579.52 2795.34,403.47 2757.77,403.47 	"/>
</g>
<g id="_x30_1.04.03" class="st0">
	<polygon id="_x30_1.04.03_hello" class="st1" points="2687.95,399.03 2687.95,441.8 2755.48,441.8 2755.48,403.47 2755.48,399.03 
		2755.22,399.03 2688.95,399.03 	"/>
</g>
<g id="_x30_1.46.02" class="st0">
	<polygon class="st1" points="585.5,346.48 585.5,384.52 619.23,384.52 619.23,388.11 585.5,388.11 585.5,487.2 615.15,487.2 
		615.64,487.2 615.64,461.5 615.64,451.14 615.64,415.43 619.23,415.43 619.23,449.34 1035.97,449.34 1035.97,416.37 
		1039.56,416.37 1039.56,451.14 1039.56,461.5 1039.56,502.27 1067.91,502.27 1067.91,371.27 1058.58,371.27 1039.56,371.27 
		1039.56,378.98 1035.97,378.98 1035.97,367.68 1056.78,367.68 1056.78,336.12 1007.71,336.12 1007.71,344.68 1007.71,375.68 
		1004.11,375.68 1004.11,346.48 	"/>
</g>
<g id="_x30_1.04.04" class="st0">
	<rect id="_x30_1.04.04_hello" x="2689.95" y="338.12" class="st1" width="67.83" height="58.61"/>
</g>
<g id="_x30_1.46.01A" class="st0">
	<polygon class="st1" points="1035.97,585.17 1035.97,533.95 1034.97,533.95 1011.89,533.95 1011.89,532.24 992.1,532.24 
		992.1,533.95 778.23,533.95 668.22,533.95 668.22,574.54 668.22,583.17 689.12,583.17 689.12,585.17 	"/>
</g>
<g id="_x30_1.45.07" class="st0">
	<polygon class="st1" points="616.95,572.75 664.63,572.75 664.63,532.39 664.63,527.53 616.95,527.53 	"/>
</g>
<g id="_x30_1.03.03" class="st0">
	<polygon class="st1" points="2545.64,485.9 2558.56,485.9 2560.18,485.9 2560.18,463.29 2545.64,463.29 	"/>
</g>
<g id="_x30_1.45.09" class="st0">
	<rect x="619.23" y="463.29" class="st1" width="15.07" height="23.9"/>
</g>
<g id="_x30_1.48.03" class="st0">
	<rect x="1339.04" y="502.09" class="st1" width="22.87" height="16.19"/>
</g>
<g id="_x30_1.45.05" class="st0">
	<polygon class="st1" points="498.18,463.29 460.5,463.29 460.5,508.51 498.18,508.51 498.18,481.4 	"/>
</g>
<g id="_x30_1.45.04" class="st0">
	<rect x="500.48" y="463.29" class="st1" width="45.22" height="16.96"/>
</g>
<g id="LWPOLYLINE_158_" class="st0">
	<rect x="3654.48" y="3627.3" class="st2" width="3.59" height="52.75"/>
</g>
<g id="_x30_1.18.01A" class="st0">
	<polygon class="st1" points="3509.28,3420.29 3458.06,3420.29 3458.06,3633.13 3509.28,3633.13 3509.28,3631.89 3509.28,3614.7 
		3510.99,3614.7 3510.99,3594.92 3509.28,3594.92 	"/>
</g>
<g id="_x30_1.19.02" class="st0">
	<polygon class="st1" points="3514.76,3951.19 3477.08,3951.19 3477.08,4000.52 3514.76,4000.52 3514.76,3980.83 	"/>
</g>
<g id="_x30_1.15.01A" class="st0">
	<polygon class="st1" points="3512.82,2589 3458.06,2589 3458.06,2929.84 3458.06,2966.58 3458.06,2981.24 3509.28,2981.24 
		3509.28,2716.06 3510.99,2716.06 3510.99,2696.27 3509.28,2696.27 3509.28,2693.07 3506.4,2693.07 3506.4,2689.66 3510.99,2689.66 
		3512.82,2689.66 	"/>
</g>
<g id="_x30_1.07.03" class="st0">
	<rect x="3478.02" y="1048" class="st1" width="39.57" height="45.39"/>
</g>
<g id="_x30_1.12.01A" class="st0">
	<polygon class="st1" points="3579.94,2274.71 3579.94,2174.35 3520.59,2174.35 3519.86,2174.35 3509.28,2174.35 3509.28,2167.5 
		3509.28,2147.71 3509.28,1882.47 3458.06,1882.47 3458.06,2072.84 3458.06,2151.06 3458.06,2274.71 3550.47,2274.71 
		3552.27,2274.71 	"/>
</g>
<g id="LWPOLYLINE_168_" class="st0">
	<polygon class="st2" points="3650.06,2122.25 3650.06,2049.54 3641.41,2049.54 3641.41,2045.94 3651.86,2045.94 3663.07,2045.94 
		3663.07,2125.84 3651.86,2125.84 3641.41,2125.84 3641.41,2122.25 	"/>
</g>
<g id="LWPOLYLINE_169_" class="st0">
	<polygon class="st2" points="3663.07,2240.62 3651.86,2240.62 3641.41,2240.62 3641.41,2237.03 3650.06,2237.03 3650.06,2164.32 
		3641.41,2164.32 3641.41,2160.73 3651.86,2160.73 3663.07,2160.73 	"/>
</g>
<g id="_x30_1.09.02" class="st0">
	<polygon class="st1" points="3696.75,1096.99 3658.74,1096.99 3658.74,1121.34 3655.15,1121.34 3655.15,1096.99 3556.03,1096.99 
		3556.03,1127.13 3581.73,1127.13 3592.1,1127.13 3624.39,1127.13 3624.39,1130.73 3593.89,1130.73 3593.89,1511.66 
		3614.53,1511.66 3640.7,1511.66 3640.7,1515.25 3616.32,1515.25 3616.32,1545.58 3623.09,1545.58 3671.96,1545.58 3671.96,1536.24 
		3671.96,1515.25 3666.6,1515.25 3666.6,1511.66 3675.55,1511.66 3675.55,1534.45 3707.11,1534.45 3707.11,1484.4 3696.75,1484.4 	
		"/>
</g>
<g id="_x30_1.09.01A" class="st0">
	<polygon id="_x30_1.09.01A_hello" class="st1" points="3517.76,1219.57 3517.76,1130.73 3458.06,1130.73 3458.06,1432.12 
		3509.28,1432.12 3509.28,1376.6 3509.28,1248.42 3513.5,1248.42 3513.5,1228.64 3509.28,1228.64 3509.28,1222.99 3501.75,1222.99 
		3501.75,1219.57 3510.99,1219.57 	"/>
</g>
<g id="_x30_1.07.08" class="st0">
	<polygon class="st1" points="3523.59,973.58 3523.59,994.87 3552.8,994.87 3552.8,987.54 3552.8,966.99 3556.21,966.99 
		3556.21,986.39 3696.66,986.39 3696.66,973.58 3705.64,973.58 3705.64,928.37 3629.42,928.37 3583.62,928.37 3583.62,925.51 
		3556.21,925.51 3556.21,944.38 3508.96,944.38 3502.19,944.38 3502.19,939.2 3475.14,939.2 3475.14,973.58 3493.98,973.58 
		3493.98,974.73 3516.59,974.73 3516.59,973.58 	"/>
</g>
<g id="_x30_1.07.09" class="st0">
	<polygon class="st1" points="3701.58,1085.45 3701.58,1005.61 3696.66,1005.61 3696.66,988.68 3556.21,988.68 3556.21,997.16 
		3523.59,997.16 3523.59,1043 3523.59,1044.41 3523.59,1045.84 3523.59,1046.21 3523.59,1090.98 3696.66,1090.98 3696.66,1085.45 	
		"/>
</g>
<g id="_x30_1.07.05" class="st0">
	<polygon class="st1" points="3553.91,895.39 3533.4,895.39 3509.96,895.39 3509.96,942.08 3553.91,942.08 3553.91,925.51 	"/>
</g>
<g id="_x30_1.07.01" class="st0">
	<polygon class="st1" points="3502.19,936.9 3502.19,895.42 3502.19,894.25 3502.19,865.19 3460.06,865.19 3460.06,936.9 
		3474.14,936.9 	"/>
</g>
<g id="_x30_1.07.02" class="st0">
	<polygon class="st1" points="3521.3,1042 3521.3,996.02 3521.3,975.88 3516.59,975.88 3516.59,974.73 3493.98,974.73 
		3493.98,975.88 3474.14,975.88 3474.14,978.23 3460.48,978.23 3460.48,1042 3519.38,1042 3519.75,1042 	"/>
</g>
<g id="_x30_1.07.10" class="st0">
	<polygon class="st1" points="3665.49,863.89 3665.49,862.25 3644.76,862.25 3644.76,863.89 3641.08,863.89 3630.57,863.89 
		3630.57,926.07 3705.64,926.07 3705.64,863.89 3703.08,863.89 	"/>
</g>
<g id="_x30_1.07.07" class="st0">
	<polygon class="st1" points="3583.62,925.51 3583.62,924.95 3628.28,924.95 3628.28,863.16 3628.28,859.95 3556.21,859.95 
		3556.21,894.25 3556.21,925.51 	"/>
</g>
<g id="_x30_1.07.06" class="st0">
	<polygon class="st1" points="3553.91,858.48 3534.54,858.48 3534.54,864.19 3534.54,893.1 3553.91,893.1 3553.91,859.21 	"/>
</g>
<g id="_x30_1.07.04" class="st0">
	<polygon class="st1" points="3508.96,893.1 3532.25,893.1 3532.25,865.19 3519.39,865.19 3504.49,865.19 3504.49,893.1 	"/>
</g>
<g id="_x30_1.19.03" class="st0">
	<polygon class="st1" points="3518.35,3982.63 3518.35,3999.48 3518.35,4002.32 3518.35,4004.26 3544.91,4004.26 3544.91,3982.63 	
		"/>
</g>
<g id="_x30_1.18.02" class="st0">
	<polygon class="st1" points="3521.18,3757.58 3579.94,3757.58 3579.94,3673.61 3554.24,3673.61 3541.15,3673.61 3541.15,3674.23 
		3522.31,3674.23 3521.18,3674.23 3521.18,3726.13 	"/>
</g>
<g id="_x30_1.08.01" class="st0">
	<polygon class="st1" points="3521.18,1130.73 3521.18,1219.57 3579.91,1219.57 3579.94,1219.57 3579.94,1149.39 3552.44,1149.39 
		3552.44,1130.73 	"/>
</g>
<g id="_x30_1.08.02" class="st0">
	<polygon class="st1" points="3579.94,1145.8 3579.94,1130.73 3556.03,1130.73 3556.03,1145.8 3579.91,1145.8 	"/>
</g>
<g id="_x30_1.14.01" class="st0">
	<rect x="3639.05" y="2555.26" class="st1" width="16.19" height="30.15"/>
</g>
<g id="_x30_1.13.04" class="st0">
	<rect x="3539.43" y="2371.57" class="st1" width="60.29" height="62.35"/>
</g>
<g id="_x30_1.13.01" class="st0">
	<rect x="3478.02" y="2312.04" class="st1" width="39.57" height="45.39"/>
</g>
<g id="_x30_1.13.05" class="st0">
	<rect x="3539.43" y="2437.51" class="st1" width="60.29" height="79.31"/>
</g>
<g id="_x30_1.12.03" class="st0">
	<rect x="3639.05" y="2278.3" class="st1" width="15.07" height="30.15"/>
</g>
<g id="_x30_1.13.03" class="st0">
	<polygon class="st1" points="3541.14,2311.42 3541.14,2312.04 3521.18,2312.04 3521.18,2357.41 3521.18,2357.44 3539.43,2357.44 
		3539.43,2367.97 3599.72,2367.97 3599.72,2312.04 3550.47,2312.04 3550.47,2311.42 	"/>
</g>
<g id="_x30_1.13.06" class="st0">
	<polygon id="_x30_1.13.06_hello" class="st1" points="3707.11,2378.57 3707.11,2312.04 3698.55,2312.04 3655.92,2312.04 
		3637.25,2312.04 3603.31,2312.04 3603.31,2369.77 3603.31,2435.71 3603.31,2520.41 3539.43,2520.41 3539.43,2551.67 
		3637.25,2551.67 3657.04,2551.67 3698.55,2551.67 3707.11,2551.67 3707.11,2487.49 3703.34,2487.49 3703.34,2378.57 	"/>
</g>
<g id="_x30_1.13.02" class="st0">
	<polygon class="st1" points="3458.06,2551.67 3516.56,2551.67 3535.84,2551.67 3535.84,2518.61 3535.84,2435.71 3535.84,2369.77 
		3535.84,2361.03 3519.38,2361.03 3517.59,2361.03 3517.56,2361.03 3476.23,2361.03 3465.69,2361.03 3458.06,2361.03 	"/>
</g>
<g id="_x30_1.38.04" class="st0">
	<polygon class="st1" points="334.09,2506.28 341.66,2506.28 403.57,2506.28 403.57,2534.54 434.65,2534.54 434.65,2506.28 
		436.36,2506.28 474.47,2506.28 474.81,2506.28 474.81,2357.44 434.65,2357.44 434.65,2326.35 403.57,2326.35 403.57,2357.73 
		342.63,2357.73 334.09,2357.73 	"/>
</g>
<g id="_x30_1.28.09" class="st0">
	<polygon class="st1" points="1392.7,4539.31 1357.38,4539.31 1357.38,4593.95 1387.05,4593.95 1387.05,4576.29 1392.7,4576.29 
		1392.7,4553.91 	"/>
</g>
<g id="_x30_1.34.05" class="st0">
	<rect x="562.53" y="3505.25" class="st1" width="29.44" height="17.66"/>
</g>
<g id="_x30_1.43.06" class="st0">
	<rect x="594.45" y="1196.96" class="st1" width="22.61" height="20.14"/>
</g>
<g id="_x30_1.33.03" class="st0">
	<polygon class="st1" points="544.46,3690.42 544.46,3646.73 455.61,3646.73 455.61,3697.01 523.79,3697.01 523.79,3690.42 	"/>
</g>
<g id="_x30_1.17.01" class="st0">
	<polygon class="st1" points="3579.94,3416.87 3579.94,3348.19 3582.76,3348.19 3582.76,3318.14 3509.11,3318.14 3509.11,3320.08 
		3469.54,3320.08 3469.54,3318.14 3458.06,3318.14 3458.06,3329.62 3460,3329.62 3460,3391.79 3458.06,3391.79 3458.06,3416.87 
		3510.99,3416.87 	"/>
</g>
<g id="_x30_1.01.02" class="st0">
	<polygon class="st1" points="2166.06,464.24 2166.06,468.45 2166.06,585.17 2290.76,585.17 2290.76,532.24 2290.76,463.29 
		2198.18,463.29 2198.18,464.24 	"/>
</g>
<g id="_x30_1.09.03" class="st0">
	<polygon id="_x30_1.09.03_hello" class="st1" points="3458.06,1545.58 3579,1545.58 3579,1513.46 3579.94,1513.46 3579.94,1435.53 
		3510.99,1435.53 3458.06,1435.53 	"/>
</g>
<g id="_x30_1.31.02B" class="st0">
	<polygon class="st1" points="962.49,4340.81 962.49,4331.47 859.13,4331.47 859.13,4339.01 856.83,4339.01 856.83,4331.47 
		837.05,4331.47 837.05,4332.71 637.43,4332.71 637.43,4400.42 962.49,4400.42 	"/>
</g>
<g id="_x30_1.29.01B" class="st0">
	<polygon class="st1" points="1124.16,4332.71 1124.16,4338.24 1125.21,4338.24 1150.07,4338.24 1150.07,4400.42 1161.11,4400.42 
		1251.84,4400.42 1402.8,4400.42 1404.83,4400.42 1404.83,4339.81 1404.83,4338.22 1404.83,4332.71 1402.83,4332.71 1402.83,4331 
		1383.05,4331 1383.05,4332.71 	"/>
</g>
<g id="_x30_1.27.01B" class="st0">
	<polygon class="st1" points="1893.22,4338.24 1893.22,4332.71 1867.02,4332.71 1794.95,4332.71 1726.36,4332.71 1726.36,4331 
		1706.58,4331 1706.58,4332.71 1502.22,4332.71 1502.22,4400.42 1532.24,4400.42 1558.62,4400.42 1618.17,4400.42 1788.51,4400.42 
		1867.31,4400.42 1867.31,4338.24 1893.19,4338.24 	"/>
</g>
<g id="_x30_1.25.01B" class="st0">
	<polygon class="st1" points="2264.38,4338.24 2264.38,4332.71 1985.72,4332.71 1985.72,4331 1965.93,4331 1965.93,4332.71 
		1963.81,4332.71 1963.81,4379.49 1991.13,4379.49 1991.13,4400.42 2155.19,4400.42 2231.32,4400.42 2238.53,4400.42 
		2238.53,4338.24 	"/>
</g>
<g id="_x30_1.22.01B" class="st0">
	<polygon class="st1" points="2950.19,4400.42 2950.19,4351.29 2950.19,4349.46 2950.19,4332.24 2833.31,4332.24 2833.31,4336.66 
		2829.9,4336.66 2829.9,4332.24 2810.12,4332.24 2810.12,4332.71 2680.59,4332.71 2680.59,4338.04 2680.59,4339.63 2680.59,4400.42 
		2709.05,4400.42 2816.45,4400.42 2923.54,4400.42 	"/>
</g>
<g id="_x30_1.19.01A" class="st0">
	<polygon class="st1" points="3458.06,3913.86 3546.7,3913.86 3579.94,3913.86 3579.94,3761 3519.47,3761 3517.94,3761 
		3517.73,3761 3506.64,3761 3506.64,3727.27 3497.98,3727.27 3497.98,3724.98 3508.2,3724.98 3517.76,3724.98 3517.76,3674.23 
		3517.72,3674.23 3460.3,3674.23 3460.3,3724.98 3478.2,3724.98 3478.2,3727.27 3459.3,3727.27 3458.06,3727.27 	"/>
</g>
<g id="_x30_1.18.01B" class="st0">
	<polygon class="st1" points="3576.82,3476.1 3579.94,3476.1 3579.94,3420.29 3512.7,3420.29 3512.7,3594.92 3510.99,3594.92 
		3510.99,3614.7 3512.7,3614.7 3512.7,3630.89 3566.35,3630.89 3566.35,3614.7 3579.94,3614.7 3579.94,3521.32 3576.82,3521.32 	"/>
</g>
<g id="_x30_1.15.01B" class="st0">
	<polygon class="st1" points="3516.56,2589 3512.82,2589 3512.82,2689.66 3515.82,2689.66 3515.82,2693.07 3512.82,2693.07 
		3512.7,2693.07 3512.7,2696.27 3510.99,2696.27 3510.99,2716.06 3512.7,2716.06 3512.7,2981.24 3582.76,2981.24 3582.76,2953.84 
		3582.76,2952.89 3579.94,2951.01 3579.94,2589 	"/>
</g>
<g id="_x30_1.12.01B" class="st0">
	<polygon class="st1" points="3579.94,2174.35 3579.94,1912.71 3579.94,1882.47 3512.7,1882.47 3512.7,2147.71 3512.7,2151.74 
		3510.99,2151.74 3519.86,2172.64 3520.59,2174.35 	"/>
</g>
<g id="_x30_1.09.01B" class="st0">
	<polygon class="st1" points="3512.7,1222.99 3512.7,1228.64 3513.5,1228.64 3513.5,1248.42 3512.7,1248.42 3512.7,1375.6 
		3530.46,1375.6 3530.46,1377.6 3512.7,1377.6 3512.7,1432.12 3579.94,1432.12 3579.94,1377.6 3562.98,1377.6 3562.98,1375.6 
		3579.94,1375.6 3579.94,1222.99 3519.47,1222.99 	"/>
</g>
<g id="_x30_1.02.01B" class="st0">
	<polygon class="st1" points="2294.17,463.29 2294.17,530.53 2533.28,530.53 2533.28,532.28 2553.06,532.28 2553.06,530.53 
		2557,530.53 2557,489.49 2542.05,489.49 2542.05,463.29 2367.48,463.29 2367.48,488.73 2365.18,488.73 2365.18,463.29 	"/>
</g>
<g id="_x30_1.49.01B" class="st0">
	<polygon class="st1" points="1399.24,463.29 1399.24,500.3 1399.24,517.52 1444.63,517.52 1444.63,502.68 1527.5,502.68 
		1529.56,502.68 1531.89,502.68 1531.89,511.93 1739.37,511.93 1739.37,463.29 	"/>
</g>
<g id="_x30_1.46.01B" class="st0">
	<polygon class="st1" points="699.1,463.29 699.1,527.53 668.22,527.53 668.22,530.83 778.23,530.83 778.23,530.53 992.1,530.53 
		992.1,532.24 1011.89,532.24 1011.89,530.53 1033.96,530.53 1033.96,463.29 	"/>
</g>
<g id="_x30_1.19.04" class="st0">
	<rect x="3518.35" y="3951.19" class="st1" width="26.55" height="27.85"/>
</g>
<g id="_x30_1.23.01C" class="st0">
	<polygon class="st1" points="2555.59,4415.87 2555.59,4426.09 2599.1,4426.09 2599.1,4419.58 2601.46,4419.58 2601.46,4402.21 
		2601.46,4400.39 2601.46,4378.05 2555.59,4378.05 	"/>
</g>
<g id="_x30_1.23.01B" class="st0">
	<rect x="2632.01" y="4348.67" class="st1" width="14.66" height="51.75"/>
</g>
<g id="LWPOLYLINE_222_" class="st0">
	<rect x="1955.25" y="3899.71" class="st2" width="15.04" height="2.83"/>
</g>
<g id="LWPOLYLINE_228_" class="st0">
	<polygon class="st2" points="1251.52,2621.21 1251.52,2624.03 1213.36,2624.03 1213.36,2520.41 1251.52,2520.41 1251.52,2523.23 
		1216.19,2523.23 1216.19,2621.21 	"/>
</g>
<g id="LWPOLYLINE_229_" class="st0">
	<polygon class="st2" points="1251.52,2239.68 1251.52,2242.51 1216.19,2242.51 1216.19,2340.48 1251.52,2340.48 1251.52,2343.3 
		1213.36,2343.3 1213.36,2239.68 	"/>
</g>
<g id="_x30_1.47.01B" class="st0">
	<polygon class="st1" points="1273.24,463.29 1106.56,463.29 1106.56,530.53 1110.03,530.53 1110.03,532.24 1129.82,532.24 
		1129.82,530.53 1273.24,530.53 	"/>
</g>
<g id="_x30_1.48.04" class="st0">
	<rect x="1399.24" y="520.93" class="st1" width="45.39" height="64.24"/>
</g>
<g id="_x30_1.24.07" class="st0">
	<rect x="2390.47" y="4308.69" class="st1" width="13.16" height="29.09"/>
</g>
<g id="LWPOLYLINE_164_" class="st0">
	<polygon class="st2" points="3649.88,2814.18 3649.88,2741.46 3641.41,2741.46 3641.41,2737.87 3651.68,2737.87 3661.95,2737.87 
		3661.95,2817.77 3651.68,2817.77 3641.41,2817.77 3641.41,2814.18 	"/>
</g>
<g id="LWPOLYLINE_165_" class="st0">
	<polygon class="st2" points="3651.68,2623.09 3661.95,2623.09 3661.95,2702.99 3651.68,2702.99 3641.41,2702.99 3641.41,2699.39 
		3649.88,2699.39 3649.88,2626.68 3641.41,2626.68 3641.41,2623.09 	"/>
</g>
<g id="ST06_1_" class="st0">
	
		<rect x="1044.39" y="848.16" transform="matrix(0.7071 -0.7071 0.7071 0.7071 -330.1016 1023.1018)" class="st1" width="51.11" height="123.71"/>
</g>
<g id="S-GRID-IDEN">
	<g id="Circles">
		<g id="CIRCLE_92_">
			<circle class="st3" cx="3299.49" cy="4420.98" r="11.3"/>
		</g>
		<g id="CIRCLE_91_">
			<circle class="st3" cx="210.02" cy="332.53" r="11.3"/>
		</g>
		<g id="CIRCLE_90_">
			<circle class="st3" cx="2896.96" cy="4002.4" r="11.3"/>
		</g>
		<g id="CIRCLE_89_">
			<circle class="st3" cx="3180.2" cy="3719.16" r="11.3"/>
		</g>
		<g id="CIRCLE_88_">
			<circle class="st3" cx="3143.56" cy="3682.53" r="11.3"/>
		</g>
		<g id="CIRCLE_87_">
			<circle class="st3" cx="2860.32" cy="3965.77" r="11.3"/>
		</g>
		<g id="CIRCLE_86_">
			<circle class="st3" cx="3213.19" cy="3803.86" r="11.3"/>
		</g>
		<g id="CIRCLE_85_">
			<circle class="st3" cx="2983.38" cy="4033.68" r="11.3"/>
		</g>
		<g id="CIRCLE_84_">
			<circle class="st3" cx="448.43" cy="4884.9" r="11.3"/>
		</g>
		<g id="CIRCLE_83_">
			<circle class="st3" cx="772.96" cy="4884.9" r="11.3"/>
		</g>
		<g id="CIRCLE_82_">
			<circle class="st3" cx="2796.63" cy="3721.71" r="11.3"/>
		</g>
		<g id="CIRCLE_81_">
			<circle class="st3" cx="2752.35" cy="3606.12" r="11.3"/>
		</g>
		<g id="CIRCLE_80_">
			<circle class="st3" cx="336.33" cy="1040.57" r="11.3"/>
		</g>
		<g id="CIRCLE_79_">
			<circle class="st3" cx="480.46" cy="1040.57" r="11.3"/>
		</g>
		<g id="CIRCLE_78_">
			<circle class="st3" cx="210.02" cy="1343.8" r="11.3"/>
		</g>
		<g id="CIRCLE_77_">
			<circle class="st3" cx="210.02" cy="3519.91" r="11.3"/>
		</g>
		<g id="CIRCLE_76_">
			<circle class="st3" cx="542.16" cy="1040.57" r="11.3"/>
		</g>
		<g id="CIRCLE_75_">
			<circle class="st3" cx="210.02" cy="3762.01" r="11.3"/>
		</g>
		<g id="CIRCLE_74_">
			<circle class="st3" cx="210.02" cy="1101.7" r="11.3"/>
		</g>
		<g id="CIRCLE_73_">
			<circle class="st3" cx="3949.83" cy="4795.9" r="11.3"/>
		</g>
		<g id="CIRCLE_72_">
			<circle class="st3" cx="210.02" cy="4795.9" r="11.3"/>
		</g>
		<g id="CIRCLE_71_">
			<circle class="st3" cx="3949.83" cy="4495.39" r="11.3"/>
		</g>
		<g id="CIRCLE_70_">
			<circle class="st3" cx="210.02" cy="4495.39" r="11.3"/>
		</g>
		<g id="CIRCLE_69_">
			<circle class="st3" cx="2007.57" cy="927.89" r="11.3"/>
		</g>
		<g id="CIRCLE_68_">
			<circle class="st3" cx="2007.57" cy="679.2" r="11.3"/>
		</g>
		<g id="CIRCLE_67_">
			<circle class="st3" cx="2007.57" cy="594.41" r="11.3"/>
		</g>
		<g id="CIRCLE_66_">
			<circle class="st3" cx="210.02" cy="937.79" r="11.3"/>
		</g>
		<g id="CIRCLE_65_">
			<circle class="st3" cx="210.02" cy="1166.7" r="11.3"/>
		</g>
		<g id="CIRCLE_64_">
			<circle class="st3" cx="1035.79" cy="130.73" r="11.3"/>
		</g>
		<g id="CIRCLE_63_">
			<circle class="st3" cx="253.93" cy="957.54" r="11.3"/>
		</g>
		<g id="CIRCLE_62_">
			<circle class="st3" cx="226.02" cy="452.65" r="11.3"/>
		</g>
		<g id="CIRCLE_61_">
			<circle class="st3" cx="395.22" cy="283.46" r="11.3"/>
		</g>
		<g id="CIRCLE_60_">
			<circle class="st3" cx="887.44" cy="280.78" r="11.3"/>
		</g>
		<g id="CIRCLE_59_">
			<circle class="st3" cx="210.02" cy="3925.93" r="11.3"/>
		</g>
		<g id="CIRCLE_58_">
			<circle class="st3" cx="210.02" cy="3697.01" r="11.3"/>
		</g>
		<g id="CIRCLE_57_">
			<circle class="st3" cx="1035.79" cy="4884.9" r="11.3"/>
		</g>
		<g id="CIRCLE_56_">
			<circle class="st3" cx="207.53" cy="3925.39" r="11.3"/>
		</g>
		<g id="CIRCLE_55_">
			<circle class="st3" cx="258.29" cy="4378.8" r="11.3"/>
		</g>
		<g id="CIRCLE_54_">
			<circle class="st3" cx="427.48" cy="4547.99" r="11.3"/>
		</g>
		<g id="CIRCLE_53_">
			<circle class="st3" cx="760.25" cy="4890" r="11.3"/>
		</g>
		<g id="CIRCLE_52_">
			<circle class="st3" cx="3949.83" cy="4009.77" r="11.3"/>
		</g>
		<g id="CIRCLE_51_">
			<circle class="st3" cx="3949.83" cy="3770.49" r="11.3"/>
		</g>
		<g id="CIRCLE_50_">
			<circle class="st3" cx="3189.29" cy="4884.9" r="11.3"/>
		</g>
		<g id="CIRCLE_49_">
			<circle class="st3" cx="2950.01" cy="4884.9" r="11.3"/>
		</g>
		<g id="CIRCLE_48_">
			<circle class="st3" cx="3804.35" cy="3936.2" r="11.3"/>
		</g>
		<g id="CIRCLE_47_">
			<circle class="st3" cx="3751.67" cy="4356.33" r="11.3"/>
		</g>
		<g id="CIRCLE_46_">
			<circle class="st3" cx="3535.85" cy="4572.15" r="11.3"/>
		</g>
		<g id="CIRCLE_45_">
			<circle class="st3" cx="3223.08" cy="4884.04" r="11.3"/>
		</g>
		<g id="CIRCLE_44_">
			<circle class="st3" cx="3842.96" cy="853.94" r="11.3"/>
		</g>
		<g id="CIRCLE_43_">
			<circle class="st3" cx="3842.96" cy="1093.22" r="11.3"/>
		</g>
		<g id="CIRCLE_42_">
			<circle class="st3" cx="3189.29" cy="130.73" r="11.3"/>
		</g>
		<g id="CIRCLE_41_">
			<circle class="st3" cx="2950.01" cy="130.73" r="11.3"/>
		</g>
		<g id="CIRCLE_40_">
			<circle class="st3" cx="1275.07" cy="130.73" r="11.3"/>
		</g>
		<g id="CIRCLE_39_">
			<circle class="st3" cx="210.02" cy="3508.6" r="11.3"/>
		</g>
		<g id="CIRCLE_38_">
			<circle class="st3" cx="1275.07" cy="4884.9" r="11.3"/>
		</g>
		<g id="CIRCLE_37_">
			<circle class="st3" cx="2710.73" cy="4884.9" r="11.3"/>
		</g>
		<g id="CIRCLE_36_">
			<circle class="st3" cx="3842.96" cy="1343.8" r="11.3"/>
		</g>
		<g id="CIRCLE_35_">
			<circle class="st3" cx="3802.85" cy="928.14" r="11.3"/>
		</g>
		<g id="CIRCLE_34_">
			<circle class="st3" cx="3782.82" cy="476.23" r="11.3"/>
		</g>
		<g id="CIRCLE_33_">
			<circle class="st3" cx="3567" cy="260.41" r="11.3"/>
		</g>
		<g id="CIRCLE_32_">
			<circle class="st3" cx="3098.36" cy="280.78" r="11.3"/>
		</g>
		<g id="CIRCLE_31_">
			<circle class="st3" cx="2710.73" cy="130.73" r="11.3"/>
		</g>
		<g id="CIRCLE_30_">
			<circle class="st3" cx="1983.9" cy="1323.55" r="11.3"/>
		</g>
		<g id="CIRCLE_29_">
			<circle class="st3" cx="210.02" cy="1355.11" r="11.3"/>
		</g>
		<g id="CIRCLE_28_">
			<circle class="st3" cx="210.02" cy="1594.39" r="11.3"/>
		</g>
		<g id="CIRCLE_27_">
			<circle class="st3" cx="210.02" cy="1833.66" r="11.3"/>
		</g>
		<g id="CIRCLE_26_">
			<circle class="st3" cx="210.02" cy="2072.94" r="11.3"/>
		</g>
		<g id="CIRCLE_25_">
			<circle class="st3" cx="1514.34" cy="130.73" r="11.3"/>
		</g>
		<g id="CIRCLE_24_">
			<circle class="st3" cx="1753.62" cy="130.73" r="11.3"/>
		</g>
		<g id="CIRCLE_23_">
			<circle class="st3" cx="210.02" cy="3269.33" r="11.3"/>
		</g>
		<g id="CIRCLE_22_">
			<circle class="st3" cx="210.02" cy="3030.05" r="11.3"/>
		</g>
		<g id="CIRCLE_21_">
			<circle class="st3" cx="210.02" cy="2790.77" r="11.3"/>
		</g>
		<g id="CIRCLE_20_">
			<circle class="st3" cx="210.02" cy="2551.49" r="11.3"/>
		</g>
		<g id="CIRCLE_19_">
			<circle class="st3" cx="210.02" cy="2312.22" r="11.3"/>
		</g>
		<g id="CIRCLE_18_">
			<circle class="st3" cx="1514.34" cy="4884.9" r="11.3"/>
		</g>
		<g id="CIRCLE_17_">
			<circle class="st3" cx="1753.62" cy="4884.9" r="11.3"/>
		</g>
		<g id="CIRCLE_16_">
			<circle class="st3" cx="3949.83" cy="3519.91" r="11.3"/>
		</g>
		<g id="CIRCLE_15_">
			<circle class="st3" cx="3949.83" cy="3269.33" r="11.3"/>
		</g>
		<g id="CIRCLE_11_">
			<circle class="st3" cx="2232.18" cy="4884.9" r="11.3"/>
		</g>
		<g id="CIRCLE_12_">
			<circle class="st3" cx="2471.45" cy="4884.9" r="11.3"/>
		</g>
		<g id="CIRCLE_13_">
			<circle class="st3" cx="3949.83" cy="2790.77" r="11.3"/>
		</g>
		<g id="CIRCLE_14_">
			<circle class="st3" cx="3949.83" cy="3030.05" r="11.3"/>
		</g>
		<g id="CIRCLE_10_">
			<circle class="st3" cx="1992.9" cy="4884.9" r="11.3"/>
		</g>
		<g id="CIRCLE_9_">
			<circle class="st3" cx="3949.83" cy="1594.39" r="11.3"/>
		</g>
		<g id="CIRCLE_8_">
			<circle class="st3" cx="3949.83" cy="1833.66" r="11.3"/>
		</g>
		<g id="CIRCLE_7_">
			<circle class="st3" cx="3949.83" cy="2072.94" r="11.3"/>
		</g>
		<g id="CIRCLE_6_">
			<circle class="st3" cx="3949.83" cy="2312.22" r="11.3"/>
		</g>
		<g id="CIRCLE_5_">
			<circle class="st3" cx="3949.83" cy="2551.49" r="11.3"/>
		</g>
		<g id="CIRCLE_4_">
			<circle class="st3" cx="2471.45" cy="130.73" r="11.3"/>
		</g>
		<g id="CIRCLE_3_">
			<circle class="st3" cx="2232.18" cy="130.73" r="11.3"/>
		</g>
		<g id="CIRCLE_2_">
			<circle class="st3" cx="1992.9" cy="130.73" r="11.3"/>
		</g>
		<g id="CIRCLE_1_">
			<circle class="st3" cx="1992.9" cy="1493.47" r="11.3"/>
		</g>
		<g id="CIRCLE">
			<circle class="st3" cx="3949.83" cy="2431.86" r="11.3"/>
		</g>
	</g>
	<g id="Numbers">
		<g id="MTEXT_92_">
			<text transform="matrix(1 0 0 1 3294.6533 4425.0078)" class="st4 st5">K</text>
		</g>
		<g id="MTEXT_91_">
			<text transform="matrix(1 0 0 1 205.1024 336.5835)" class="st4 st5">K</text>
		</g>
		<g id="MTEXT_90_">
			<text transform="matrix(1 0 0 1 2887.1748 4006.4297)" class="st4 st5">B.4</text>
		</g>
		<g id="MTEXT_89_">
			<text transform="matrix(1 0 0 1 3170.416 3723.1914)" class="st4 st5">B.4</text>
		</g>
		<g id="MTEXT_88_">
			<text transform="matrix(1 0 0 1 3133.71 3686.6152)" class="st4 st5">B.2</text>
		</g>
		<g id="MTEXT_87_">
			<text transform="matrix(1 0 0 1 2850.4717 3969.8535)" class="st4 st5">B.2</text>
		</g>
		<g id="MTEXT_86_">
			<text transform="matrix(1 0 0 1 3201.2178 3807.8867)" class="st4 st5">20.3</text>
		</g>
		<g id="MTEXT_85_">
			<text transform="matrix(1 0 0 1 2971.4033 4037.6973)" class="st4 st5">20.7</text>
		</g>
		<g id="MTEXT_84_">
			<text transform="matrix(1 0 0 1 438.5399 4888.916)" class="st4 st5">C.8</text>
		</g>
		<g id="MTEXT_83_">
			<text transform="matrix(1 0 0 1 760.8671 4888.916)" class="st4 st5">31.1</text>
		</g>
		<g id="MTEXT_82_">
			<text transform="matrix(1 0 0 1 2787.6504 3725.7949)" class="st4 st5">A.6</text>
		</g>
		<g id="MTEXT_81_">
			<text transform="matrix(1 0 0 1 2743.3672 3610.2109)" class="st4 st5">A.3</text>
		</g>
		<g id="MTEXT_80_">
			<text transform="matrix(1 0 0 1 330.9853 1044.6694)" class="st4 st5">G</text>
		</g>
		<g id="MTEXT_79_">
			<text transform="matrix(1 0 0 1 475.7724 1044.6694)" class="st4 st5">F</text>
		</g>
		<g id="MTEXT_78_">
			<text transform="matrix(1 0 0 1 198.3192 1347.8628)" class="st4 st5">43.1</text>
		</g>
		<g id="MTEXT_77_">
			<text transform="matrix(1 0 0 1 197.9716 3523.9688)" class="st4 st5">33.9</text>
		</g>
		<g id="MTEXT_76_">
			<text transform="matrix(1 0 0 1 537.2157 1044.6694)" class="st4 st5">E</text>
		</g>
		<g id="MTEXT_75_">
			<text transform="matrix(1 0 0 1 197.9716 3766.0723)" class="st4 st5">32.7</text>
		</g>
		<g id="MTEXT_74_">
			<text transform="matrix(1 0 0 1 198.3192 1105.7603)" class="st4 st5">44.3</text>
		</g>
		<g id="MTEXT_73_">
			<text transform="matrix(1 0 0 1 3946.4014 4799.9551)" class="st4 st5">J</text>
		</g>
		<g id="MTEXT_72_">
			<text transform="matrix(1 0 0 1 206.5966 4799.9551)" class="st4 st5">J</text>
		</g>
		<g id="MTEXT_71_">
			<text transform="matrix(1 0 0 1 3944.4707 4499.4434)" class="st4 st5">H</text>
		</g>
		<g id="MTEXT_70_">
			<text transform="matrix(1 0 0 1 204.6659 4499.4434)" class="st4 st5">H</text>
		</g>
		<g id="MTEXT_69_">
			<text transform="matrix(1 0 0 1 2002.6522 931.9507)" class="st4 st5">B</text>
		</g>
		<g id="MTEXT_68_">
			<text transform="matrix(1 0 0 1 2002.576 683.2515)" class="st4 st5">C</text>
		</g>
		<g id="MTEXT_67_">
			<text transform="matrix(1 0 0 1 2002.2489 598.4692)" class="st4 st5">D</text>
		</g>
		<g id="MTEXT_66_">
			<text transform="matrix(1 0 0 1 198.3192 941.8462)" class="st4 st5">45.1</text>
		</g>
		<g id="MTEXT_65_">
			<text transform="matrix(1 0 0 1 203.2597 1170.7612)" class="st4 st5">44</text>
		</g>
		<g id="MTEXT_64_">
			<text transform="matrix(1 0 0 1 1028.9774 134.8325)" class="st4 st5">47</text>
		</g>
		<g id="MTEXT_63_">
			<text transform="matrix(1 0 0 1 247.1659 961.6187)" class="st4 st5">45</text>
		</g>
		<g id="MTEXT_62_">
			<text transform="matrix(1 0 0 1 214.3056 456.7427)" class="st4 st5">45.4</text>
		</g>
		<g id="MTEXT_61_">
			<text transform="matrix(1 0 0 1 383.5009 287.5474)" class="st4 st5">45.6</text>
		</g>
		<g id="MTEXT_60_">
			<text transform="matrix(1 0 0 1 880.6454 284.8765)" class="st4 st5">46</text>
		</g>
		<g id="MTEXT_59_">
			<text transform="matrix(1 0 0 1 197.9716 3929.9883)" class="st4 st5">31.9</text>
		</g>
		<g id="MTEXT_58_">
			<text transform="matrix(1 0 0 1 202.913 3701.0723)" class="st4 st5">33</text>
		</g>
		<g id="MTEXT_57_">
			<text transform="matrix(1 0 0 1 1028.6356 4888.916)" class="st4 st5">30</text>
		</g>
		<g id="MTEXT_56_">
			<text transform="matrix(1 0 0 1 200.414 3929.4375)" class="st4 st5">32</text>
		</g>
		<g id="MTEXT_55_">
			<text transform="matrix(1 0 0 1 246.2255 4382.8223)" class="st4 st5">31.6</text>
		</g>
		<g id="MTEXT_54_">
			<text transform="matrix(1 0 0 1 415.4198 4552.0195)" class="st4 st5">31.4</text>
		</g>
		<g id="MTEXT_53_">
			<text transform="matrix(1 0 0 1 753.1112 4894.0215)" class="st4 st5">31</text>
		</g>
		<g id="MTEXT_52_">
			<text transform="matrix(1 0 0 1 3942.7773 4013.8242)" class="st4 st5">20</text>
		</g>
		<g id="MTEXT_51_">
			<text transform="matrix(1 0 0 1 3941.835 3774.5449)" class="st4 st5">19</text>
		</g>
		<g id="MTEXT_50_">
			<text transform="matrix(1 0 0 1 3182.2822 4888.916)" class="st4 st5">21</text>
		</g>
		<g id="MTEXT_49_">
			<text transform="matrix(1 0 0 1 2943.0078 4888.916)" class="st4 st5">22</text>
		</g>
		<g id="MTEXT_48_">
			<text transform="matrix(1 0 0 1 3791.4219 3940.2344)" class="st4 st5">19.5</text>
		</g>
		<g id="MTEXT_47_">
			<text transform="matrix(1 0 0 1 3739.6904 4360.3496)" class="st4 st5">20.4</text>
		</g>
		<g id="MTEXT_46_">
			<text transform="matrix(1 0 0 1 3523.8701 4576.1738)" class="st4 st5">20.6</text>
		</g>
		<g id="MTEXT_45_">
			<text transform="matrix(1 0 0 1 3211.1191 4888.0586)" class="st4 st5">21.5</text>
		</g>
		<g id="MTEXT_44_">
			<text transform="matrix(1 0 0 1 3838.998 857.9995)" class="st4 st5">7</text>
		</g>
		<g id="MTEXT_43_">
			<text transform="matrix(1 0 0 1 3839.082 1097.2769)" class="st4 st5">8</text>
		</g>
		<g id="MTEXT_42_">
			<text transform="matrix(1 0 0 1 3185.4824 134.8325)" class="st4 st5">6</text>
		</g>
		<g id="MTEXT_41_">
			<text transform="matrix(1 0 0 1 2946.1592 134.8325)" class="st4 st5">5</text>
		</g>
		<g id="MTEXT_40_">
			<text transform="matrix(1 0 0 1 1268.2567 134.8325)" class="st4 st5">48</text>
		</g>
		<g id="MTEXT_39_">
			<text transform="matrix(1 0 0 1 202.913 3512.6621)" class="st4 st5">34</text>
		</g>
		<g id="MTEXT_38_">
			<text transform="matrix(1 0 0 1 1268.0624 4888.916)" class="st4 st5">29</text>
		</g>
		<g id="MTEXT_37_">
			<text transform="matrix(1 0 0 1 2703.7285 4888.916)" class="st4 st5">23</text>
		</g>
		<g id="MTEXT_36_">
			<text transform="matrix(1 0 0 1 3839.0693 1347.8589)" class="st4 st5">9</text>
		</g>
		<g id="MTEXT_35_">
			<text transform="matrix(1 0 0 1 3793.9375 932.2124)" class="st4 st5">7.5</text>
		</g>
		<g id="MTEXT_34_">
			<text transform="matrix(1 0 0 1 3774.0391 480.3188)" class="st4 st5">6.6</text>
		</g>
		<g id="MTEXT_33_">
			<text transform="matrix(1 0 0 1 3558.2158 264.4946)" class="st4 st5">6.4</text>
		</g>
		<g id="MTEXT_32_">
			<text transform="matrix(1 0 0 1 3089.5439 284.8745)" class="st4 st5">5.5</text>
		</g>
		<g id="MTEXT_31_">
			<text transform="matrix(1 0 0 1 2707.2227 134.8325)" class="st4 st5">4</text>
		</g>
		<g id="MTEXT_30_">
			<text transform="matrix(1 0 0 1 1979.9423 1327.6099)" class="st4 st5">A</text>
		</g>
		<g id="MTEXT_29_">
			<text transform="matrix(1 0 0 1 203.2597 1359.1675)" class="st4 st5">43</text>
		</g>
		<g id="MTEXT_28_">
			<text transform="matrix(1 0 0 1 203.2597 1598.4448)" class="st4 st5">42</text>
		</g>
		<g id="MTEXT_27_">
			<text transform="matrix(1 0 0 1 203.2597 1837.7222)" class="st4 st5">41</text>
		</g>
		<g id="MTEXT_26_">
			<text transform="matrix(1 0 0 1 203.2597 2076.9995)" class="st4 st5">40</text>
		</g>
		<g id="MTEXT_25_">
			<text transform="matrix(1 0 0 1 1507.5341 134.8325)" class="st4 st5">49</text>
		</g>
		<g id="MTEXT_24_">
			<text transform="matrix(1 0 0 1 1746.4686 134.8325)" class="st4 st5">50</text>
		</g>
		<g id="MTEXT_23_">
			<text transform="matrix(1 0 0 1 202.913 3273.3867)" class="st4 st5">35</text>
		</g>
		<g id="MTEXT_22_">
			<text transform="matrix(1 0 0 1 202.913 3034.1113)" class="st4 st5">36</text>
		</g>
		<g id="MTEXT_21_">
			<text transform="matrix(1 0 0 1 202.913 2794.832)" class="st4 st5">37</text>
		</g>
		<g id="MTEXT_20_">
			<text transform="matrix(1 0 0 1 202.913 2555.5547)" class="st4 st5">38</text>
		</g>
		<g id="MTEXT_19_">
			<text transform="matrix(1 0 0 1 202.913 2316.2778)" class="st4 st5">39</text>
		</g>
		<g id="MTEXT_18_">
			<text transform="matrix(1 0 0 1 1507.3417 4888.916)" class="st4 st5">28</text>
		</g>
		<g id="MTEXT_17_">
			<text transform="matrix(1 0 0 1 1746.6161 4888.916)" class="st4 st5">27</text>
		</g>
		<g id="MTEXT_16_">
			<text transform="matrix(1 0 0 1 3941.835 3523.9648)" class="st4 st5">18</text>
		</g>
		<g id="MTEXT_15_">
			<text transform="matrix(1 0 0 1 3941.835 3273.3828)" class="st4 st5">17</text>
		</g>
		<g id="MTEXT_14_">
			<text transform="matrix(1 0 0 1 3941.835 3034.1035)" class="st4 st5">16</text>
		</g>
		<g id="MTEXT_13_">
			<text transform="matrix(1 0 0 1 3941.835 2794.8281)" class="st4 st5">15</text>
		</g>
		<g id="MTEXT_12_">
			<text transform="matrix(1 0 0 1 2464.4492 4888.916)" class="st4 st5">24</text>
		</g>
		<g id="MTEXT_11_">
			<text transform="matrix(1 0 0 1 2225.1729 4888.916)" class="st4 st5">25</text>
		</g>
		<g id="MTEXT_10_">
			<text transform="matrix(1 0 0 1 1985.8954 4888.916)" class="st4 st5">26</text>
		</g>
		<g id="MTEXT_9_">
			<text transform="matrix(1 0 0 1 3941.835 1598.4409)" class="st4 st5">10</text>
		</g>
		<g id="MTEXT_8_">
			<text transform="matrix(1 0 0 1 3941.835 1837.7183)" class="st4 st5">11</text>
		</g>
		<g id="MTEXT_7_">
			<text transform="matrix(1 0 0 1 3941.835 2076.9956)" class="st4 st5">12</text>
		</g>
		<g id="MTEXT_6_">
			<text transform="matrix(1 0 0 1 3941.835 2316.2739)" class="st4 st5">13</text>
		</g>
		<g id="MTEXT_5_">
			<text transform="matrix(1 0 0 1 3941.835 2555.5488)" class="st4 st5">14</text>
		</g>
		<g id="MTEXT_4_">
			<text transform="matrix(1 0 0 1 2467.5986 134.8325)" class="st4 st5">3</text>
		</g>
		<g id="MTEXT_3_">
			<text transform="matrix(1 0 0 1 2228.4697 134.8325)" class="st4 st5">2</text>
		</g>
		<g id="MTEXT_2_">
			<text transform="matrix(1 0 0 1 1988.2528 134.8325)" class="st4 st5">1</text>
		</g>
		<g id="MTEXT_1_">
			<text transform="matrix(1 0 0 1 1983.6913 1497.5728)" class="st4 st5">NS</text>
		</g>
		<g id="MTEXT">
			<text transform="matrix(1 0 0 1 3938.8945 2435.9116)" class="st4 st5">EW</text>
		</g>
	</g>
</g>
<g id="S-GRID">
	<g id="LINE">
		<line class="st6" x1="221.33" y1="2431.86" x2="3938.52" y2="2431.86"/>
	</g>
	<g id="LINE_1_">
		<line class="st6" x1="1992.9" y1="3349.4" x2="1992.9" y2="1504.77"/>
	</g>
	<g id="LINE_2_">
		<line class="st6" x1="1992.9" y1="1414.46" x2="1992.9" y2="142.03"/>
	</g>
	<g id="LINE_3_">
		<line class="st6" x1="2232.18" y1="1414.46" x2="2232.18" y2="142.03"/>
	</g>
	<g id="LINE_4_">
		<line class="st6" x1="2471.45" y1="1414.46" x2="2471.45" y2="142.03"/>
	</g>
	<g id="LINE_5_">
		<line class="st6" x1="2628.77" y1="2551.49" x2="3938.52" y2="2551.49"/>
	</g>
	<g id="LINE_6_">
		<line class="st6" x1="2628.77" y1="2312.22" x2="3938.52" y2="2312.22"/>
	</g>
	<g id="LINE_7_">
		<line class="st6" x1="2628.77" y1="2072.94" x2="3938.52" y2="2072.94"/>
	</g>
	<g id="LINE_8_">
		<line class="st6" x1="2628.77" y1="1833.66" x2="3938.52" y2="1833.66"/>
	</g>
	<g id="LINE_9_">
		<line class="st6" x1="2628.77" y1="1594.39" x2="3938.52" y2="1594.39"/>
	</g>
	<g id="LINE_10_">
		<line class="st6" x1="1992.9" y1="3449.26" x2="1992.9" y2="4873.6"/>
	</g>
	<g id="LINE_11_">
		<line class="st6" x1="2232.18" y1="3449.26" x2="2232.18" y2="4873.6"/>
	</g>
	<g id="LINE_12_">
		<line class="st6" x1="2471.45" y1="3449.26" x2="2471.45" y2="4873.6"/>
	</g>
	<g id="LINE_13_">
		<line class="st6" x1="2628.77" y1="2790.77" x2="3938.52" y2="2790.77"/>
	</g>
	<g id="LINE_14_">
		<line class="st6" x1="2628.77" y1="3030.05" x2="3938.52" y2="3030.05"/>
	</g>
	<g id="LINE_15_">
		<line class="st6" x1="2628.77" y1="3269.33" x2="3938.52" y2="3269.33"/>
	</g>
	<g id="LINE_16_">
		<line class="st6" x1="2772.05" y1="3519.91" x2="3938.52" y2="3519.91"/>
	</g>
	<g id="LINE_17_">
		<line class="st6" x1="1753.62" y1="3449.26" x2="1753.62" y2="4873.6"/>
	</g>
	<g id="LINE_18_">
		<line class="st6" x1="1514.34" y1="3449.26" x2="1514.34" y2="4873.6"/>
	</g>
	<g id="LINE_19_">
		<line class="st6" x1="1357.02" y1="2312.22" x2="221.33" y2="2312.22"/>
	</g>
	<g id="LINE_20_">
		<line class="st6" x1="1357.02" y1="2551.49" x2="221.33" y2="2551.49"/>
	</g>
	<g id="LINE_21_">
		<line class="st6" x1="1357.02" y1="2790.77" x2="221.33" y2="2790.77"/>
	</g>
	<g id="LINE_22_">
		<line class="st6" x1="1357.02" y1="3030.05" x2="221.33" y2="3030.05"/>
	</g>
	<g id="LINE_23_">
		<line class="st6" x1="1357.02" y1="3269.33" x2="221.33" y2="3269.33"/>
	</g>
	<g id="LINE_24_">
		<line class="st6" x1="1753.62" y1="1414.46" x2="1753.62" y2="142.03"/>
	</g>
	<g id="LINE_25_">
		<line class="st6" x1="1514.34" y1="1414.46" x2="1514.34" y2="142.03"/>
	</g>
	<g id="LINE_26_">
		<line class="st6" x1="1357.02" y1="2072.94" x2="221.33" y2="2072.94"/>
	</g>
	<g id="LINE_27_">
		<line class="st6" x1="1357.02" y1="1833.66" x2="221.33" y2="1833.66"/>
	</g>
	<g id="LINE_28_">
		<line class="st6" x1="1357.02" y1="1594.39" x2="221.33" y2="1594.39"/>
	</g>
	<g id="LINE_29_">
		<line class="st6" x1="1216.02" y1="1355.11" x2="221.33" y2="1355.11"/>
	</g>
	<g id="LINE_30_">
		<line class="st6" x1="1994.24" y1="1323.55" x2="1319.37" y2="1323.55"/>
	</g>
	<g id="LINE_31_">
		<line class="st6" x1="1319.37" y1="1323.55" x2="1266.12" y2="1376.8"/>
	</g>
	<g id="LINE_32_">
		<line class="st6" x1="1266.12" y1="1376.8" x2="1266.12" y2="3486.91"/>
	</g>
	<g id="LINE_33_">
		<line class="st6" x1="1266.12" y1="3486.91" x2="1319.37" y2="3540.16"/>
	</g>
	<g id="LINE_34_">
		<line class="st6" x1="1319.37" y1="3540.16" x2="2666.43" y2="3540.16"/>
	</g>
	<g id="LINE_35_">
		<line class="st6" x1="2666.43" y1="3540.16" x2="2719.68" y2="3486.91"/>
	</g>
	<g id="LINE_36_">
		<line class="st6" x1="2719.68" y1="3486.91" x2="2719.68" y2="1376.8"/>
	</g>
	<g id="LINE_37_">
		<line class="st6" x1="2719.68" y1="1376.8" x2="2666.43" y2="1323.55"/>
	</g>
	<g id="LINE_38_">
		<line class="st6" x1="2666.43" y1="1323.55" x2="1995.21" y2="1323.55"/>
	</g>
	<g id="LINE_39_">
		<line class="st6" x1="680.17" y1="3828.87" x2="680.17" y2="1034.84"/>
	</g>
	<g id="LINE_40_">
		<line class="st6" x1="2710.73" y1="1216.59" x2="2710.73" y2="142.03"/>
	</g>
	<g id="LINE_41_">
		<line class="st6" x1="2628.77" y1="1414.46" x2="3094.03" y2="291.22"/>
	</g>
	<g id="LINE_42_">
		<line class="st6" x1="2781.38" y1="1046.02" x2="3559.01" y2="268.4"/>
	</g>
	<g id="LINE_43_">
		<line class="st6" x1="2997.21" y1="1261.85" x2="3774.83" y2="484.22"/>
	</g>
	<g id="LINE_44_">
		<line class="st6" x1="2628.77" y1="1414.46" x2="3792.41" y2="932.46"/>
	</g>
	<g id="LINE_45_">
		<line class="st6" x1="2772.05" y1="1343.8" x2="3831.66" y2="1343.8"/>
	</g>
	<g id="LINE_46_">
		<line class="st6" x1="2710.73" y1="3647.12" x2="2710.73" y2="4873.6"/>
	</g>
	<g id="LINE_47_">
		<line class="st6" x1="1275.07" y1="3647.12" x2="1275.07" y2="4873.6"/>
	</g>
	<g id="LINE_48_">
		<line class="st6" x1="1213.74" y1="3508.6" x2="221.33" y2="3508.6"/>
	</g>
	<g id="LINE_49_">
		<line class="st6" x1="1275.07" y1="1216.59" x2="1275.07" y2="142.03"/>
	</g>
	<g id="LINE_50_">
		<line class="st6" x1="2950.01" y1="710.28" x2="2950.01" y2="142.03"/>
	</g>
	<g id="LINE_51_">
		<line class="st6" x1="3189.29" y1="710.28" x2="3189.29" y2="142.03"/>
	</g>
	<g id="LINE_52_">
		<line class="st6" x1="3332.95" y1="1093.22" x2="3831.66" y2="1093.22"/>
	</g>
	<g id="LINE_53_">
		<line class="st6" x1="3332.95" y1="853.94" x2="3831.66" y2="853.94"/>
	</g>
	<g id="LINE_54_">
		<line class="st6" x1="2628.77" y1="3449.26" x2="3218.76" y2="4873.6"/>
	</g>
	<g id="LINE_55_">
		<line class="st6" x1="2781.38" y1="3817.69" x2="3527.85" y2="4564.16"/>
	</g>
	<g id="LINE_56_">
		<line class="st6" x1="2997.21" y1="3601.87" x2="3743.68" y2="4348.33"/>
	</g>
	<g id="LINE_57_">
		<line class="st6" x1="2628.77" y1="3449.26" x2="3793.91" y2="3931.87"/>
	</g>
	<g id="LINE_58_">
		<line class="st6" x1="2950.01" y1="4153.43" x2="2950.01" y2="4873.6"/>
	</g>
	<g id="LINE_59_">
		<line class="st6" x1="3189.29" y1="4153.43" x2="3189.29" y2="4873.6"/>
	</g>
	<g id="LINE_60_">
		<line class="st6" x1="3332.95" y1="3770.49" x2="3938.52" y2="3770.49"/>
	</g>
	<g id="LINE_61_">
		<line class="st6" x1="3332.95" y1="4009.77" x2="3938.52" y2="4009.77"/>
	</g>
	<g id="LINE_62_">
		<line class="st6" x1="1357.02" y1="3449.26" x2="764.57" y2="4879.56"/>
	</g>
	<g id="LINE_63_">
		<line class="st6" x1="1236.57" y1="3738.91" x2="435.48" y2="4540"/>
	</g>
	<g id="LINE_64_">
		<line class="st6" x1="1067.37" y1="3569.71" x2="266.28" y2="4370.8"/>
	</g>
	<g id="LINE_65_">
		<line class="st6" x1="1357.02" y1="3449.26" x2="217.97" y2="3921.07"/>
	</g>
	<g id="LINE_66_">
		<line class="st6" x1="1035.79" y1="4153.43" x2="1035.79" y2="4873.6"/>
	</g>
	<g id="LINE_67_">
		<line class="st6" x1="884.4" y1="3697.01" x2="221.33" y2="3697.01"/>
	</g>
	<g id="LINE_68_">
		<line class="st6" x1="777.23" y1="3925.93" x2="221.33" y2="3925.93"/>
	</g>
	<g id="LINE_69_">
		<line class="st6" x1="1357.02" y1="1414.46" x2="891.76" y2="291.22"/>
	</g>
	<g id="LINE_70_">
		<line class="st6" x1="1236.57" y1="1124.81" x2="403.21" y2="291.45"/>
	</g>
	<g id="LINE_71_">
		<line class="st6" x1="1067.37" y1="1294" x2="234.02" y2="460.64"/>
	</g>
	<g id="LINE_72_">
		<line class="st6" x1="1357.02" y1="1414.46" x2="264.38" y2="961.87"/>
	</g>
	<g id="LINE_73_">
		<line class="st6" x1="1035.79" y1="710.28" x2="1035.79" y2="142.03"/>
	</g>
	<g id="LINE_74_">
		<line class="st6" x1="790.15" y1="1166.7" x2="221.33" y2="1166.7"/>
	</g>
	<g id="LINE_75_">
		<line class="st6" x1="777.23" y1="937.79" x2="221.33" y2="937.79"/>
	</g>
	<g id="LINE_76_">
		<line class="st6" x1="1997.24" y1="594.41" x2="3448.82" y2="594.41"/>
	</g>
	<g id="LINE_77_">
		<line class="st6" x1="3448.82" y1="594.41" x2="3448.82" y2="4269.3"/>
	</g>
	<g id="LINE_78_">
		<line class="st6" x1="3448.82" y1="4269.3" x2="556.29" y2="4269.3"/>
	</g>
	<g id="LINE_79_">
		<line class="st6" x1="556.29" y1="594.41" x2="1996.27" y2="594.41"/>
	</g>
	<g id="LINE_80_">
		<line class="st6" x1="1997.24" y1="679.2" x2="2949.98" y2="679.2"/>
	</g>
	<g id="LINE_81_">
		<line class="st6" x1="2949.98" y1="679.2" x2="3364.03" y2="1093.25"/>
	</g>
	<g id="LINE_82_">
		<line class="st6" x1="3364.03" y1="1093.25" x2="3364.03" y2="3770.46"/>
	</g>
	<g id="LINE_83_">
		<line class="st6" x1="3364.03" y1="3770.46" x2="2949.98" y2="4184.52"/>
	</g>
	<g id="LINE_84_">
		<line class="st6" x1="2949.98" y1="4184.52" x2="1035.82" y2="4184.52"/>
	</g>
	<g id="LINE_85_">
		<line class="st6" x1="1035.82" y1="4184.52" x2="680.17" y2="3828.87"/>
	</g>
	<g id="LINE_86_">
		<line class="st6" x1="680.17" y1="1034.84" x2="1035.82" y2="679.2"/>
	</g>
	<g id="LINE_87_">
		<line class="st6" x1="1035.82" y1="679.2" x2="1996.27" y2="679.2"/>
	</g>
	<g id="LINE_88_">
		<line class="st6" x1="1997.24" y1="927.89" x2="2830.32" y2="927.89"/>
	</g>
	<g id="LINE_89_">
		<line class="st6" x1="2830.32" y1="927.89" x2="3115.34" y2="1212.92"/>
	</g>
	<g id="LINE_90_">
		<line class="st6" x1="3115.34" y1="1212.92" x2="3115.34" y2="3650.8"/>
	</g>
	<g id="LINE_91_">
		<line class="st6" x1="3115.34" y1="3650.8" x2="2830.32" y2="3935.82"/>
	</g>
	<g id="LINE_92_">
		<line class="st6" x1="2830.32" y1="3935.82" x2="1155.48" y2="3935.82"/>
	</g>
	<g id="LINE_93_">
		<line class="st6" x1="1155.48" y1="3935.82" x2="870.46" y2="3650.8"/>
	</g>
	<g id="LINE_94_">
		<line class="st6" x1="870.46" y1="3650.8" x2="870.46" y2="1212.92"/>
	</g>
	<g id="LINE_95_">
		<line class="st6" x1="870.46" y1="1212.92" x2="1155.48" y2="927.89"/>
	</g>
	<g id="LINE_96_">
		<line class="st6" x1="1155.48" y1="927.89" x2="1996.27" y2="927.89"/>
	</g>
	<g id="LINE_97_">
		<line class="st6" x1="221.33" y1="4495.39" x2="3938.52" y2="4495.39"/>
	</g>
	<g id="LINE_98_">
		<line class="st6" x1="221.33" y1="4795.9" x2="3938.52" y2="4795.9"/>
	</g>
	<g id="LINE_99_">
		<line class="st6" x1="790.15" y1="1101.7" x2="221.33" y2="1101.7"/>
	</g>
	<g id="LINE_100_">
		<line class="st6" x1="884.4" y1="3762.01" x2="221.33" y2="3762.01"/>
	</g>
	<g id="LINE_101_">
		<line class="st6" x1="542.16" y1="3814.5" x2="542.16" y2="1051.87"/>
	</g>
	<g id="LINE_102_">
		<line class="st6" x1="880.36" y1="3519.91" x2="221.33" y2="3519.91"/>
	</g>
	<g id="LINE_103_">
		<line class="st6" x1="1216.02" y1="1343.8" x2="221.33" y2="1343.8"/>
	</g>
	<g id="LINE_104_">
		<line class="st6" x1="480.46" y1="3814.5" x2="480.46" y2="1051.87"/>
	</g>
	<g id="LINE_105_">
		<line class="st6" x1="336.33" y1="3814.5" x2="336.33" y2="1051.87"/>
	</g>
	<g id="LINE_106_">
		<line class="st6" x1="556.29" y1="4269.3" x2="556.29" y2="594.41"/>
	</g>
	<g id="LINE_107_">
		<line class="st6" x1="1234.92" y1="3607.59" x2="1274.89" y2="3647.55"/>
	</g>
	<g id="LINE_108_">
		<line class="st6" x1="1274.89" y1="3647.55" x2="2710.91" y2="3647.55"/>
	</g>
	<g id="LINE_109_">
		<line class="st6" x1="2710.91" y1="3647.55" x2="2744.35" y2="3614.12"/>
	</g>
	<g id="LINE_110_">
		<line class="st6" x1="1198.95" y1="3731.49" x2="1228.06" y2="3760.6"/>
	</g>
	<g id="LINE_111_">
		<line class="st6" x1="1228.06" y1="3760.6" x2="2757.74" y2="3760.6"/>
	</g>
	<g id="LINE_112_">
		<line class="st6" x1="2757.74" y1="3760.6" x2="2788.64" y2="3729.7"/>
	</g>
	<g id="LINE_113_">
		<line class="st6" x1="772.96" y1="4501.64" x2="772.96" y2="4873.6"/>
	</g>
	<g id="LINE_114_">
		<line class="st6" x1="448.43" y1="4501.64" x2="448.43" y2="4873.6"/>
	</g>
	<g id="LINE_115_">
		<line class="st6" x1="2868.93" y1="3919.22" x2="2975.39" y2="4025.68"/>
	</g>
	<g id="LINE_116_">
		<line class="st6" x1="3098.74" y1="3689.41" x2="3205.2" y2="3795.87"/>
	</g>
	<g id="LINE_117_">
		<line class="st6" x1="2868.31" y1="3957.77" x2="3135.56" y2="3690.52"/>
	</g>
	<g id="LINE_118_">
		<line class="st6" x1="3172.2" y1="3727.16" x2="2904.95" y2="3994.41"/>
	</g>
	<g id="LINE_119_">
		<line class="st6" x1="221.33" y1="332.53" x2="3189.29" y2="332.53"/>
	</g>
	<g id="LINE_120_">
		<line class="st6" x1="3189.29" y1="332.53" x2="3710.7" y2="853.94"/>
	</g>
	<g id="LINE_121_">
		<line class="st6" x1="3710.7" y1="853.94" x2="3710.7" y2="4009.77"/>
	</g>
	<g id="LINE_122_">
		<line class="st6" x1="3710.7" y1="4009.77" x2="3307.48" y2="4412.99"/>
	</g>
</g>
</svg>
