<?xml version="1.0" encoding="utf-8"?>
<!-- Generator: Adobe Illustrator 25.2.3, SVG Export Plug-In . SVG Version: 6.00 Build 0)  -->
<svg version="1.1" id="A-AREA-BNDY" xmlns="http://www.w3.org/2000/svg" xmlns:xlink="http://www.w3.org/1999/xlink" x="0px"
	 y="0px" viewBox="0 0 1920 1080" style="enable-background:new 0 0 1920 1080;" xml:space="preserve">
<style type="text/css">
	.st0{fill:#BA9BC9;stroke:#000000;stroke-width:0.25;stroke-linecap:round;stroke-linejoin:round;stroke-miterlimit:10;}
	.st1{fill:#BA9BC9;stroke:#000000;stroke-width:0.25;stroke-miterlimit:10;}
	
		.st2{opacity:0.43;fill:#BA9BC9;stroke:#000000;stroke-width:0.25;stroke-linecap:round;stroke-linejoin:round;stroke-miterlimit:10;enable-background:new    ;}
	.st3{opacity:0.43;}
	.st4{fill:#65C8D0;stroke:#000000;stroke-width:0.25;stroke-linecap:round;stroke-linejoin:round;stroke-miterlimit:10;}
	.st5{fill:none;stroke:#000000;stroke-width:0.25;stroke-linecap:round;stroke-linejoin:round;stroke-miterlimit:10;}
	
		.st6{fill:none;stroke:#000000;stroke-width:0.2551;stroke-linecap:round;stroke-linejoin:round;stroke-miterlimit:10;stroke-dasharray:0.1681,4.200000e-02,4.200000e-02,4.200000e-02;}
	.st7{font-family:'ArialMT';}
	.st8{font-size:8.5484px;}
	.st9{fill:none;stroke:#000000;stroke-width:0.2551;stroke-linecap:round;stroke-linejoin:round;stroke-miterlimit:10;}
	.st10{fill:none;stroke:#000000;stroke-width:0.2551;stroke-linecap:round;stroke-linejoin:round;stroke-miterlimit:10.0002;}
	.st11{fill:none;stroke:#000000;stroke-width:0.2551;stroke-linecap:round;stroke-linejoin:round;stroke-miterlimit:10.0003;}
</style>
<polygon id="_x30_0.27.05" class="st0" points="502.2,656.7 502.2,670.8 552.6,670.8 567.5,670.8 582,670.8 593.7,670.8 
	593.7,662.7 617.4,662.7 617.4,541.7 593.7,541.7 593.7,533.6 587.9,533.6 566.6,533.6 502.2,533.6 502.2,549.8 479.4,549.8 
	479.4,622.4 502.2,622.4 502.2,637.7 502.2,639.7 "/>
<polygon id="_x30_0.27.03" class="st0" points="735.2,670.8 735.2,656.7 735.2,639.7 735.2,637.7 735.2,622.4 757.9,622.4 
	757.9,549.8 735.2,549.8 735.2,533.6 670.7,533.6 649.4,533.6 643.5,533.6 643.5,541.7 619.9,541.7 619.9,662.7 643.5,662.7 
	643.5,670.8 655.5,670.8 670,670.8 684.9,670.8 "/>
<polygon id="_x30_0.26.10" class="st0" points="875.6,541.7 875.6,533.6 871.1,533.6 849.7,533.6 783.3,533.6 783.3,549.8 
	760.5,549.8 760.5,622.4 783.3,622.4 783.3,637.7 783.3,639.7 783.3,656.7 783.3,670.8 800.1,670.8 875.6,670.8 875.6,662.7 
	900.5,662.7 900.5,545.1 900.5,541.7 "/>
<polygon id="_x30_0.25.09" class="st0" points="996.4,916.3 997.4,916.3 997.4,902.8 996.4,902.8 996.4,900.4 898.2,900.4 
	898.2,943.2 996.4,943.2 "/>
<polygon id="_x30_0.26.22" class="st0" points="864.3,896.8 864.3,838.1 740.3,838.1 740.3,855.7 740.3,896.8 745,896.8 "/>
<rect id="_x30_0.27.10" x="597.7" y="838.1" class="st0" width="64" height="42"/>
<polygon id="_x30_0.28.08B" class="st0" points="398.4,499.9 395.9,499.9 395.9,486.8 324.7,486.8 324.7,542 395.9,542 395.9,520.1 
	398.4,520.1 "/>
<polygon id="_x30_0.27.16" class="st0" points="405.4,232.4 398.1,249.9 397.3,252 496.9,252 496.9,382.6 541.4,382.6 541.4,397.8 
	601.9,397.8 601.9,388 601.9,385.7 601.9,232.4 "/>
<polygon id="_x30_0.43.06" class="st0" points="1222.4,789.8 1222.4,750.7 1183.9,750.7 1183.9,796.7 1212.8,796.7 1212.8,789.8 "/>
<rect id="_x30_0.27.07B" x="619.9" y="749.2" class="st0" width="63.7" height="47.5"/>
<rect id="_x30_0.27.08B" x="553.8" y="749.2" class="st0" width="63.5" height="47.5"/>
<rect id="_x30_0.23.19" x="1304.9" y="921.7" class="st0" width="34.2" height="44.3"/>
<polygon id="_x30_0.29.08" class="st0" points="299.8,485.7 299.8,544.7 322.1,544.7 322.1,542.7 322.1,485.7 "/>
<polygon id="_x30_0.29.07" class="st0" points="294.5,771.7 319.5,796.7 329.1,796.7 329.1,790.2 329.1,736.8 315.7,736.8 
	301.2,736.8 297.9,736.8 297.9,754.4 297.9,767.6 297.9,768.2 297.2,769 "/>
<polyline id="_x30_0.29.06" class="st0" points="358.5,1011.8 328.7,1011.8 328.7,1011.7 233.4,1011.7 233.4,964.1 213.3,964.1 
	191.7,964.1 191.7,1011.8 386.8,1011.8 "/>
<polygon id="_x30_0.28.25" class="st0" points="430.8,1010.7 430.8,1002.6 388.4,1002.6 388.4,1003.2 388.4,1010.7 "/>
<polygon id="_x30_0.23.10" class="st0" points="1356.7,742.4 1356.7,796.7 1383.3,796.7 1383.3,788 1393.7,788 1393.7,742.4 "/>
<rect id="_x30_0.23.09" x="1356.7" y="686.3" class="st0" width="37" height="54.5"/>
<polygon id="_x30_0.26.12" class="st0" points="781.7,636.9 781.7,624 760.5,624 760.5,636.9 781.5,636.9 "/>
<polygon id="_x30_0.26.13" class="st0" points="736.8,636.9 737,636.9 757.9,636.9 757.9,624 736.8,624 "/>
<polygon id="_x30_0.28.10" class="st0" points="500.6,624 479.4,624 479.4,636.9 500.4,636.9 500.6,636.9 "/>
<polygon id="_x30_0.28.11" class="st0" points="457.4,624 457.4,637.4 476.8,637.4 476.8,624 476.8,624 "/>
<polygon id="_x30_0.27.14" class="st0" points="597.9,1010.7 597.9,906.6 597.9,906.6 553.5,906.6 553.5,910.6 553.5,999.3 
	553.5,1010.7 "/>
<polygon id="_x30_0.27.11" class="st0" points="595.3,880.2 595.3,838.1 564.1,838.1 564.1,842.1 564.1,862.3 573.8,862.3 
	573.8,864 562.5,864 562.5,842.8 527.6,842.8 527.6,880.2 "/>
<rect id="_x30_0.23.03" x="1238.6" y="597.5" class="st0" width="70.7" height="19"/>
<polygon id="_x30_0.23.08" class="st0" points="1251.5,662.1 1238.6,662.1 1238.6,725.4 1274,725.4 1274,662.1 1254,662.1 
	1254,674.8 1251.5,674.8 "/>
<polygon id="_x30_0.24.06" class="st0" points="1053.1,1011.3 1110.4,1011.3 1110.4,912.1 1079.4,912.1 1032.2,912.1 1032.2,931 
	1032.2,932.9 1032.2,943.2 1053.1,943.2 "/>
<polygon id="_x30_0.23.15" class="st0" points="1339.2,884.2 1339.2,848.2 1289.4,848.2 1289.4,884.2 1303.6,884.2 "/>
<polygon id="_x30_0.26.04" class="st0" points="781.7,492.6 832.5,492.6 841.6,492.6 841.6,432 787.5,432 787.5,474.1 781.7,474.1 
	"/>
<polygon id="_x30_0.28.03" class="st0" points="501.2,531.2 567.6,531.2 567.6,511 554.3,511 551.7,511 551.7,495 503.3,495 
	503.3,511 501.2,511 "/>
<polygon id="_x30_0.26.07" class="st0" points="686,492.6 736.8,492.6 736.8,474.1 731.2,474.1 731.2,432 678.8,432 678.8,492.6 "/>
<polygon id="_x30_0.28.17" class="st0" points="551.4,796.7 551.4,796.7 551.4,748 551.4,736.8 550.6,736.8 502.3,736.8 
	502.2,736.8 502.2,780.5 502.2,781.8 502.2,796.7 "/>
<polygon id="_x30_0.26.05" class="st0" points="780.9,549.8 780.9,532.4 782.1,532.4 782.1,511 780.9,511 780.9,493.8 781.7,493.8 
	781.7,491.8 781.7,475.4 781.7,473.4 780.9,473.4 780.9,448.1 760.5,448.1 760.5,549.8 "/>
<polygon id="_x30_0.26.06" class="st0" points="737.6,532.4 737.6,549.8 757.9,549.8 757.9,448.1 737.6,448.1 737.6,471.1 
	736.8,471.1 736.8,475.4 736.8,491.8 736.8,493.8 737.6,493.8 737.6,511 737.6,530.4 "/>
<polygon id="_x30_0.28.05" class="st0" points="456.5,548.7 476.8,548.7 476.8,448.1 456.5,448.1 456.5,475.7 456.5,527.4 "/>
<polygon id="_x30_0.28.04" class="st0" points="500.8,549.8 500.8,532.4 501.2,532.4 501.2,530.4 501.2,511 501.2,491.8 
	501.2,475.4 501.2,473.4 500.8,473.4 500.8,448.1 480.4,448.1 480.4,548.7 480.4,549.8 "/>
<rect id="_x30_0.23.17" x="1304.9" y="886.8" class="st0" width="34.2" height="32.4"/>
<polygon id="_x30_0.23.16" class="st0" points="1270.7,1011.3 1286.8,1011.3 1286.8,966.1 1302.4,966.1 1302.4,920.5 1302.4,886.8 
	1288.1,886.8 1286.8,886.8 1286.7,886.8 1286.1,886.8 1270.7,886.8 "/>
<polygon id="_x30_0.28.19" class="st0" points="278.3,736.8 278.3,753.2 285.8,753.2 295.5,753.2 295.5,736.8 286.8,736.8 "/>
<polygon id="_x30_0.25.05" class="st0" points="866.8,838.1 866.8,896.8 872.7,896.8 876.9,896.8 897.9,896.8 897.9,838.1 "/>
<polygon id="_x30_0.23.07" class="st0" points="1276.6,737.1 1276.6,744.4 1309.3,744.4 1309.3,662.1 1276.6,662.1 1276.6,726.7 "/>
<polygon id="_x30_0.22.02" class="st0" points="1480.4,597.5 1396.1,597.5 1393.7,597.5 1335.4,597.5 1335.4,659.5 1356.3,659.5 
	1506.1,659.5 "/>
<polygon id="_x30_0.23.01" class="st0" points="1238.6,659.5 1252.7,659.5 1275.3,659.5 1309.3,659.5 1309.3,619 1238.6,619 "/>
<polygon id="_x30_0.23.11" class="st0" points="1310.2,745.7 1310.2,790.1 1310.2,796.7 1355.1,796.7 1355.1,741.6 1355.1,686.3 
	1355.1,685 1355.1,662.1 1334.2,662.1 1311.9,662.1 1311.9,743.7 1311.9,744.4 1310.2,744.4 "/>
<polygon id="_x30_0.26.20" class="st0" points="783.3,744.2 783.3,780.5 783.3,781.8 783.3,796.7 839,796.7 839,744.2 "/>
<polygon id="_x30_0.26.03" class="st0" points="876.3,531.2 900.5,531.2 900.5,432 849.7,432 849.7,468.6 872.3,468.6 872.3,471.1 
	849.7,471.1 849.7,495.7 844.8,495.7 837.1,495.7 837.1,508.6 849.7,508.6 849.7,531.2 869.9,531.2 869.9,491.3 872.3,491.3 
	872.3,531.2 875.6,531.2 875.6,531.2 "/>
<polygon id="_x30_0.26.08" class="st0" points="783.3,511 782.1,511 782.1,531.2 849.7,531.2 849.7,511 836.4,511 831.8,511 
	831.8,495 783.5,495 783.3,495 "/>
<polygon id="_x30_0.26.19" class="st0" points="900.5,726.6 880.3,726.6 880.3,725.4 861.5,725.4 861.5,726.6 846.7,726.6 
	846.7,795.3 866.8,795.3 866.8,791.2 887.7,791.2 887.7,785.4 900.5,785.4 900.5,781.8 900.5,772.5 887.7,772.5 887.7,770.1 
	900.5,770.1 900.5,757.2 887.7,757.2 887.7,754.8 900.5,754.8 900.5,741.9 887.7,741.9 887.7,739.5 900.5,739.5 "/>
<polygon id="_x30_0.26.14" class="st0" points="876.3,673.2 801.4,673.2 801.4,693.6 841.5,693.6 841.5,724.2 845.6,724.2 
	861.5,724.2 861.5,725.4 880.3,725.4 880.3,724.2 900.5,724.2 900.5,683.5 892.4,683.5 892.4,673.2 "/>
<polygon id="_x30_0.26.15" class="st0" points="783.3,696 783.3,741.7 839,741.7 839,725.3 839,696 800.1,696 "/>
<polygon id="_x30_0.26.16" class="st0" points="798.9,673.2 780.9,673.2 780.9,656.7 783.3,656.7 783.3,638.5 760.5,638.5 
	760.5,780.5 780.9,780.5 780.9,742.9 780.9,693.6 798.9,693.6 "/>
<rect id="_x30_0.26.18" x="686.1" y="673.2" class="st0" width="49.1" height="61.1"/>
<polygon id="_x30_0.27.01" class="st0" points="619.9,531.2 642.8,531.2 648.2,531.2 648.2,491.3 650.6,491.3 650.6,531.2 
	670.7,531.2 670.7,508.6 683.3,508.6 683.3,495.7 675.6,495.7 670.7,495.7 670.7,471.1 648.2,471.1 648.2,468.6 670.7,468.6 
	670.7,432 619.9,432 "/>
<polygon id="_x30_0.26.09" class="st0" points="670.7,531.2 737.6,531.2 737.6,511 735.2,511 735.2,495 735,495 686.8,495 
	686.8,511 684,511 670.7,511 "/>
<polygon id="_x30_0.26.17" class="st0" points="735.2,656.7 737.6,656.7 737.6,672 737.6,735.6 737.6,780.5 757.9,780.5 
	757.9,638.5 735.2,638.5 "/>
<polygon id="_x30_0.27.02" class="st0" points="567.6,531.2 587.7,531.2 587.7,491.3 590.1,491.3 590.1,531.2 595.5,531.2 
	618.4,531.2 618.4,432 567.6,432 567.6,468.6 590.1,468.6 590.1,471.1 567.6,471.1 567.6,495.7 562.7,495.7 555,495.7 555,508.6 
	567.6,508.6 "/>
<polygon id="_x30_0.28.02" class="st0" points="501.2,492.6 552.4,492.6 559.5,492.6 559.5,432 507.1,432 507.1,474.1 501.2,474.1 
	"/>
<polygon id="_x30_0.28.13" class="st0" points="499.8,672 499.8,656.7 502.2,656.7 502.2,638.5 479.4,638.5 479.4,657 479.4,780.5 
	499.8,780.5 499.8,735.6 499.8,734.4 499.8,734.4 "/>
<rect id="_x30_0.28.12" x="502.2" y="673.2" class="st0" width="49.1" height="61.1"/>
<polygon id="_x30_0.28.08A" class="st0" points="454.5,546.2 456.5,546.2 456.5,527.4 454.1,527.4 454.1,476.5 421,476.5 421,499.9 
	421,525 435.2,525 435.2,527.4 418.6,527.4 418.6,499.9 398.4,499.9 398.4,499.9 398.4,520.1 398.4,542.7 398.4,546.2 "/>
<polygon id="_x30_0.28.07" class="st0" points="301.2,481.7 396.1,481.7 396.1,466.9 398.5,466.9 398.5,482.4 398.5,485.6 
	398.5,499.9 418.6,499.9 418.6,475.7 418.6,444.5 411.3,444.5 411.3,431.9 398.5,431.9 398.5,446.7 396.1,446.7 396.1,431.9 
	321.7,431.9 "/>
<polygon id="_x30_0.28.14" class="st0" points="456.5,679.4 456.5,726.5 456.5,780.5 476.8,780.5 476.8,657 435.5,657 435.5,679.4 
	"/>
<polygon id="_x30_0.28.06" class="st0" points="421,474.9 454.1,474.9 454.1,448.1 454.1,446.8 454.1,432 421,432 421,443.8 "/>
<polygon id="_x30_0.28.18" class="st0" points="454.1,780.5 454.1,727.7 392,727.7 366.5,727.7 366.5,736.8 345,736.8 343.9,736.8 
	343.9,736.8 331.5,736.8 331.5,789.5 366.5,789.5 366.5,796.7 454.1,796.7 454.1,781.8 "/>
<polygon id="_x30_0.29.02" class="st0" points="346.4,658.2 301.2,658.2 283.8,658.2 283.8,679.4 300,679.4 300,681 283.8,681 
	283.8,703.8 300,703.8 300,705.4 283.1,705.4 278.3,705.4 278.3,721.6 287.5,721.6 287.5,734.4 296.7,734.4 300.4,734.4 
	300.4,721.6 302,721.6 302,734.4 314.9,734.4 314.9,721.6 316.5,721.6 316.5,734.4 329.4,734.4 329.4,721.6 331,721.6 331,734.4 
	343.9,734.4 343.9,726.3 343.9,705.4 341.7,705.4 316.1,705.4 316.1,703.8 341,703.8 341,681 316.1,681 316.1,679.4 341.7,679.4 
	346.4,679.4 "/>
<polygon id="_x30_0.28.16" class="st0" points="433.1,658.2 346.4,658.2 346.4,678.2 346.4,680.2 346.4,704.6 346.4,725.2 
	364.3,725.2 365.4,725.2 390.7,725.2 390.7,679.4 433.1,679.4 433.1,658.8 "/>
<polygon id="_x30_0.28.15" class="st0" points="454.1,725.2 454.1,681.8 434.3,681.8 393.2,681.8 393.2,725.2 "/>
<polygon id="_x30_0.26.23" class="st0" points="875.6,931.3 875.6,913.8 869.9,913.8 869.9,900.4 748.2,900.4 748.2,913.8 
	735.2,913.8 735.2,931.3 739,931.3 740.2,931.3 748.2,931.3 748.2,979.7 742.5,979.7 742.5,996.9 748.2,996.9 748.2,1009.8 
	748.2,1010.7 783.5,1010.7 869.9,1010.7 869.9,996.9 875.6,996.9 875.6,979.7 869.9,979.7 869.9,931.3 "/>
<polygon id="_x30_0.27.09" class="st0" points="664.2,838.1 664.2,880.2 711,880.2 711,857 711,855.7 711,838.1 "/>
<polygon id="_x30_0.27.12" class="st0" points="670.7,977.3 694,977.3 694,979.7 714.2,979.7 714.2,977.3 737.9,977.3 737.9,933.8 
	737,933.8 733.3,933.8 711,933.8 711,919 670.7,919 "/>
<polygon id="_x30_0.27.15" class="st0" points="663.3,996.9 665.7,996.9 665.7,1009.2 699,1009.2 699,1000.6 709.2,1000.6 
	709.2,1009.2 742.5,1009.2 742.5,997.6 742.5,995.6 742.5,979.7 740.2,979.7 739,979.7 714.2,979.7 694,979.7 670,979.7 
	669.2,979.7 663.3,979.7 "/>
<polygon id="_x30_0.27.13" class="st0" points="643.1,1010.6 643.1,1010.7 663.3,1010.7 663.3,1009.2 663.3,996.9 663.3,981 
	663.3,979 663.3,917.6 663.3,906.6 643.1,906.6 643.1,921.4 628.4,921.4 628.4,919 640.7,919 640.7,906.6 600.3,906.6 600.3,1009.2 
	600.3,1009.5 640.7,1009.5 640.7,944 628.4,944 628.4,941.6 643.1,941.6 "/>
<polygon id="_x30_0.28.23" class="st0" points="433.3,906.6 433.3,952 433.3,1001.8 433.3,1010.7 528.1,1010.7 528.1,1002 
	538.5,1002 538.5,1010.7 551,1010.7 551,999.3 551.8,999.3 551.8,910.6 551,910.6 551,906.6 "/>
<polygon id="_x30_0.28.21" class="st0" points="362.2,838.1 362.2,859.7 383.6,859.7 422.1,859.7 433.3,859.7 433.3,868.8 
	433.3,881 433.3,883.1 433.3,904.1 552.2,904.1 599.1,904.1 600.3,904.1 600.3,904.1 641.9,904.1 665.7,904.1 665.7,916.5 
	670,916.5 711,916.5 711,904.1 713.4,904.1 713.4,917.7 713.4,931.3 735.2,931.3 735.2,913.1 736.3,912.7 736.3,900.1 736.3,857 
	713.4,857 713.4,882.6 663,882.6 596.5,882.6 526.4,882.6 454.8,882.6 454.8,838.1 "/>
<polygon id="_x30_0.28.24" class="st0" points="430.8,1001 430.8,953.2 388.4,953.2 388.4,955.1 388.4,1001 "/>
<polygon id="_x30_0.28.22" class="st0" points="421.4,862.1 384.9,862.1 384.9,883.1 384.9,935.8 384.9,950.8 387.7,950.8 
	430.8,950.8 430.8,905.3 430.8,883.9 422.1,883.9 403.7,883.9 403.7,882.3 421.4,882.3 421.4,880.2 430.8,880.2 430.8,869.5 
	421.4,869.5 "/>
<polygon id="_x30_0.29.04" class="st0" points="382.4,862.1 361,862.1 330,862.1 330,882.3 347.1,882.3 347.1,883.9 330,883.9 
	330,935 347.1,935 347.1,936.7 330,936.7 330,950.8 347.1,950.8 347.1,953.2 330,953.2 330,966 342.7,966 342.7,967.7 330,967.7 
	330,980.5 342.7,980.5 342.7,982.2 330,982.2 330,995 342.7,995 342.7,996.7 330,996.7 330,1009.5 357.4,1009.5 357.4,1002.6 
	386.8,1002.6 386.8,1001.8 386.8,955.8 365.3,955.8 365.3,950.8 382.4,950.8 382.4,936.7 365.3,936.7 365.3,935 382.4,935 
	382.4,883.9 365.3,883.9 365.3,882.3 382.4,882.3 "/>
<polygon id="_x30_0.22.04" class="st0" points="1481,796.7 1521.3,796.7 1521.3,790.8 1521.3,756.5 1481,756.5 "/>
<polygon id="_x30_0.26.21" class="st0" points="686.1,796.7 686.1,796.7 735.2,796.7 735.2,781.8 735.2,780.5 735.2,736.8 
	686.1,736.8 686.1,748 "/>
<polygon id="_x30_0.22.01" class="st0" points="1730.4,1016.7 1401,221.3 1368.1,141.9 1363.3,130.3 1303.7,155 1303.6,155 
	1325.4,207.5 1334.7,230.1 1334.8,230.2 1334.5,230.3 1379.9,339.9 1380.2,339.7 1380.9,341.5 1385,351.3 1375.2,355.3 
	1370.4,350.6 1318.5,402.5 1307.4,402.5 1307.4,429.4 1353.7,429.4 1379.1,454.7 1396.1,454.7 1398.8,454.7 1407.2,454.7 
	1407.2,466.2 1398.4,466.2 1398.4,512.9 1449.5,512.9 1449.5,515.5 1398.4,515.5 1398.4,553.2 1465.7,553.2 1465.7,555.8 
	1398.4,555.8 1398.4,592.8 1483.5,592.8 1511.3,659.9 1547.7,747.8 1526,756.8 1526,788.5 1551.8,788.5 1554.2,788.5 1563.5,788.5 
	1563.5,799.2 1554.1,799.2 1554.1,846.9 1554.1,868.4 1567.6,868.4 1567.6,1005 1567.6,1016.7 "/>
<polygon id="_x30_0.26.01" class="st0" points="1329.9,232.4 604.5,232.4 604.5,385.7 644.9,385.7 644.9,397.8 697.4,397.8 
	710.8,397.8 868.2,397.8 881.6,397.8 1039,397.8 1052.4,397.8 1209.8,397.8 1223.3,397.8 1246.2,397.8 1246.2,383.7 1285.2,383.7 
	1285.2,397.8 1305.1,397.8 1305.1,399.9 1317.5,399.9 1369.6,347.9 1375.3,342.1 "/>
<polygon id="_x30_0.26.02" class="st1" points="359.9,331.7 367.8,312.6 369.6,313.4 433.5,153.9 385.1,133.8 381.7,141.9 373,163 
	366.7,178.2 348.8,221.4 308.4,319 277.1,394.4 233.1,500.7 270.7,500.7 270.7,835.6 330,835.6 330,838.7 330,859.7 359.8,859.7 
	359.8,838.9 359.8,835.6 363,835.6 456,835.6 489.1,835.6 526.4,835.6 563.4,835.6 596.5,835.6 663,835.6 713.5,835.6 713.5,854.4 
	737,854.4 737.7,854.4 737.7,835.6 865.6,835.6 899.2,835.6 1000,835.6 1000,898 1000,902.8 1000,916.3 1000,931.1 1029.6,931.1 
	1029.6,912.1 1029.6,912.1 1029.6,910.8 1029.6,835.6 1075.3,835.6 1075.3,835.9 1113,835.9 1286.8,835.9 1286.8,845.7 
	1340.5,845.7 1383.4,845.7 1549.4,845.7 1549.4,798 1549.4,793.2 1523.8,793.2 1523.8,799.2 1479.7,799.2 1395,799.2 1384,799.2 
	1355.9,799.2 1307.7,799.2 1307.7,791.4 1275.3,791.4 1224.9,791.4 1224.9,792.6 1224.9,799.2 1213.6,799.2 1182.6,799.2 
	1137.1,799.2 1021.5,799.2 1021.5,783.1 998.5,783.1 998.5,799.2 926,799.2 926,783.1 903,783.1 903,786.1 903,799.2 867.6,799.2 
	845.6,799.2 840.1,799.2 780.8,799.2 780.8,783.1 759.2,783.1 737.7,783.1 737.7,799.2 684.9,799.2 683.7,799.2 683.6,799.2 
	618.6,799.2 553.8,799.2 553.8,799.2 552.6,799.2 499.7,799.2 499.7,783.1 478.1,783.1 456.6,783.1 456.6,799.2 365.8,799.2 
	330.3,799.2 318.4,799.2 291.8,772.6 279,759.8 275.7,756.5 275.7,754.4 275.7,735.6 275.7,722.3 275.7,704.6 275.7,657.1 
	275.7,648.4 275.7,553.1 297.3,553.1 297.3,546 297.3,484.4 297.3,482.9 297.6,481.9 319.4,429.4 397.2,429.4 412,429.4 
	419.9,429.4 455.4,429.4 501,429.4 505.4,429.4 559.6,429.4 565.5,429.4 618.6,429.4 671.8,429.4 677.7,429.4 731.9,429.4 
	736.5,429.4 782,429.4 786.8,429.4 842.7,429.4 848.6,429.4 901.8,429.4 1110.2,429.4 1237.3,429.4 1302.7,429.4 1302.7,402.5 
	1280.5,402.5 1280.5,388.4 1250.9,388.4 1250.9,402.5 1223.3,402.5 1223.3,404.5 1209.8,404.5 1209.8,402.5 1052.4,402.5 
	1052.4,404.5 1039,404.5 1039,402.5 881.6,402.5 881.6,404.5 868.2,404.5 868.2,402.5 710.8,402.5 710.8,404.5 697.4,404.5 
	697.4,402.5 640.2,402.5 640.2,390.4 606.6,390.4 606.6,402.5 536.7,402.5 536.7,387.4 499,387.4 499,402.5 368.9,402.5 
	368.9,403.7 357.8,403.7 357.8,391.4 360.5,391.4 360.5,386.3 360.5,346.4 357,345 369.6,313.4 355.3,342.9 "/>
<polygon id="_x30_0.24.02" class="st0" points="1222.4,748.2 1222.4,735.8 1236,735.8 1236,726.7 1236,660.8 1236,617.8 1236,596.2 
	1236,546.4 1138.4,546.4 1138.4,796.7 1181.3,796.7 1181.3,748.2 "/>
<polygon id="ST02" class="st0" points="191.7,838.1 191.7,961.7 212.1,961.7 212.1,854.1 212.1,838.1 "/>
<rect id="EL03_1_" x="191.7" y="760.1" class="st0" width="39.1" height="28.7"/>
<polygon id="_x30_0.25.02" class="st0" points="1021.5,546.4 903,546.4 903,663.5 903,672.1 903,682.8 903,725.4 903,740.7 903,756 
	903,771.3 903,780.5 928.6,780.5 928.6,796.7 996,796.7 996,780.5 1021.5,780.5 "/>
<polygon id="_x30_0.28.20" class="st0" points="457.2,838.1 457.2,880.2 525.1,880.2 525.1,842.8 490,842.8 490,864 478.7,864 
	478.7,862.3 488.4,862.3 488.4,842.1 488.4,838.1 "/>
<rect id="_x30_0.25.03" x="900.5" y="838.1" class="st0" width="97" height="58.6"/>
<polygon id="ST01" class="st1" points="1382.1,848.2 1341.7,848.2 1341.7,885.5 1341.7,919.2 1382.1,919.2 "/>
<rect id="EL02_1_" x="1276.6" y="747" class="st0" width="31.1" height="41.9"/>
<polygon id="EL01_1_" class="st0" points="1224.9,788.5 1224.9,788.8 1274,788.8 1274,745.7 1274,738.4 1237.3,738.4 1224.9,738.4 
	1224.9,749.4 "/>
<polygon id="_x30_0.23.18" class="st0" points="1382.1,1011.3 1382.1,1005 1382.1,921.7 1341.7,921.7 1341.7,968.6 1303.6,968.6 
	1289.4,968.6 1289.4,1011.3 "/>
<polygon id="_x30_0.22.05" class="st0" points="1561.1,1003.7 1561.1,873.1 1549.4,873.1 1549.4,848.2 1384.7,848.2 1384.7,920.5 
	1384.7,1003.7 1392.1,1003.7 1392.1,1011.3 1553.4,1011.3 1553.4,1003.7 "/>
<polygon id="_x30_0.24.04" class="st0" points="1268.3,1011.3 1270.7,1011.3 1270.7,886.8 1286.8,886.8 1286.8,846.9 1286.8,844.9 
	1286.8,835.9 1113,835.9 1113,838.1 1080.7,838.1 1080.7,909.5 1113,909.5 1113,1011.3 "/>
<polygon id="_x30_0.25.07" class="st0" points="1044.4,1011.3 1049.5,1011.3 1049.5,946.8 1028.5,946.8 1028.5,934.7 1001,934.7 
	1001,1011.3 1001.3,1011.3 "/>
<polygon id="_x30_0.24.03" class="st0" points="1135.8,546.4 1110.2,546.4 1024.1,546.4 1024.1,781.8 1024.1,796.7 1135.8,796.7 "/>
<polygon id="_x30_0.29.01" class="st1" points="191.3,600.7 191.3,757.6 233,757.6 233,791.4 191.3,791.4 191.3,835.6 212.9,835.6 
	215.5,835.6 215.5,838.1 214.2,838.1 214.2,852.9 237,852.9 237,835.6 270.3,835.6 270.3,500.7 232.7,500.7 "/>
<polygon id="_x30_0.25.01" class="st0" points="1022.8,543.8 1108.9,543.8 1108.9,432 903,432 903,532.3 903,541 903,543.8 "/>
<polygon id="_x30_0.29.05" class="st0" points="239.1,839.2 239.1,855.3 214.5,855.3 214.5,961.7 235.8,961.7 235.8,1009.5 
	327.5,1009.5 327.5,995.8 327.5,981.3 327.5,966.8 327.5,952 327.5,935.8 327.5,883.1 327.5,860.9 327.5,839.2 "/>
<polygon id="_x30_0.27.08A" class="st0" points="553.8,734.2 553.8,735.6 553.8,746.8 617.4,746.8 617.4,673.2 594.8,673.2 
	594.8,679.5 582.8,679.5 582.8,685.8 581.2,685.8 581.2,678.8 581.2,673.2 568.3,673.2 568.3,686 566.7,686 566.7,673.2 
	553.8,673.2 553.8,733.6 "/>
<polygon id="_x30_0.24.01" class="st0" points="1137.1,543.8 1236,543.8 1236,432 1111.5,432 1111.5,543.8 "/>
<polygon id="_x30_0.27.07A" class="st0" points="683.7,746.8 683.7,735.6 683.7,673.2 670.8,673.2 670.8,686 669.2,686 669.2,673.2 
	656.3,673.2 656.3,678.8 656.3,685.8 654.7,685.8 654.7,679.5 642.5,679.5 642.5,673.2 619.9,673.2 619.9,746.8 "/>
<polygon id="_x30_0.25.08" class="st0" points="875.6,930 875.6,933.8 875.6,979 875.6,981 875.6,997.6 877.7,997.6 877.7,1010.3 
	895.8,1010.3 895.8,967.4 898.2,967.4 898.2,1010.3 996.4,1010.3 996.4,943.2 898.3,943.2 895.8,943.2 895.8,900.4 877.7,900.4 
	877.7,913.1 875.6,913.1 "/>
<polygon id="_x30_0.22.03" class="st0" points="1396.3,796.7 1478.5,796.7 1478.5,754 1520.5,754 1541.6,745.2 1507.1,662.1 
	1357.6,662.1 1357.6,683.7 1396.3,683.7 1396.3,741.6 1396.3,788.7 "/>
<polygon id="_x30_0.23.02" class="st0" points="1238.6,595 1311.9,595 1311.9,617.8 1311.9,659.5 1332.9,659.5 1332.9,595 
	1393.7,595 1393.7,554.5 1393.7,514.2 1393.7,464.9 1393.7,459.4 1377.1,459.4 1351.8,434.1 1305.1,434.1 1238.6,434.1 
	1238.6,545.1 "/>
<polygon id="_x30_0.28.09" class="st0" points="279.4,647.7 302,647.7 302,655.8 346.4,655.8 433.1,655.8 433.1,655.2 433.1,623.6 
	435.5,623.6 435.5,657 476.8,657 476.8,639 455.7,639 455.7,622.4 476.8,622.4 476.8,622.4 476.8,549.8 476.8,548.7 458.3,548.7 
	454.5,548.7 397.3,548.7 325.4,548.7 302,548.7 302,556.7 279.4,556.7 "/>
<rect id="_x30_0.26.11" x="812.7" y="567.5" class="st2" width="17.6" height="69.3"/>
<g id="LWPOLYLINE_120_" class="st3">
	<rect x="848" y="368.6" class="st4" width="10.7" height="2"/>
</g>
<g id="LINE_10_" class="st3">
	<line class="st5" x1="326.7" y1="274.7" x2="386.5" y2="130.5"/>
</g>
<g id="LINE_9_" class="st3">
	<line class="st5" x1="285.3" y1="374.6" x2="326.7" y2="274.7"/>
</g>
<g id="LINE_8_" class="st3">
	<line class="st5" x1="280.6" y1="386" x2="285.3" y2="374.6"/>
</g>
<g id="LINE_7_" class="st3">
	<line class="st5" x1="261.4" y1="432.5" x2="280.6" y2="386"/>
</g>
<polygon id="_x30_0.28.01" class="st0" points="396.2,254.6 381.9,289.2 371.5,314.1 369.6,313.4 358,342.6 363,344.7 363,385 
	368.9,385 368.9,397.8 494.3,397.8 494.3,385.7 494.3,382.6 494.3,254.6 "/>
<polygon id="_x30_0.24.05" class="st0" points="1032.2,838.1 1032.2,909.5 1032.2,909.5 1078.1,909.5 1078.1,838.1 1075.3,838.1 "/>
<g id="LWPOLYLINE_6_" class="st3">
	<rect x="358.8" y="568.8" class="st4" width="7.4" height="6.4"/>
</g>
<g id="LWPOLYLINE_5_" class="st3">
	<rect x="358.8" y="629.3" class="st4" width="7.4" height="6.4"/>
</g>
<g id="Layer_98">
	<g id="Layer_53">
		<g id="LINE_30_">
			<line class="st6" x1="874.9" y1="47.1" x2="874.9" y2="1063.9"/>
		</g>
	</g>
</g>
<g id="Layer_97">
	<g id="Layer_52">
		<g id="LINE_31_">
			<line class="st6" x1="1045.7" y1="47.1" x2="1045.7" y2="1063.9"/>
		</g>
	</g>
</g>
<g id="Layer_96">
	<g id="Layer_51">
		<g id="LINE_32_">
			<line class="st6" x1="1216.5" y1="47.1" x2="1216.5" y2="1063.9"/>
		</g>
	</g>
</g>
<g id="Layer_95">
	<g id="Layer_50">
		<g id="LINE_33_">
			<line class="st6" x1="1431.1" y1="97.5" x2="1783.7" y2="97.5"/>
		</g>
	</g>
</g>
<g id="Layer_94">
	<g id="Layer_49">
		<g id="LINE_34_">
			<line class="st6" x1="704.1" y1="47.1" x2="704.1" y2="1063.9"/>
		</g>
	</g>
</g>
<g id="Layer_93">
	<g id="Layer_48">
		<g id="LINE_35_">
			<line class="st6" x1="533.3" y1="47.1" x2="533.3" y2="1063.9"/>
		</g>
	</g>
</g>
<g id="Layer_92">
	<g id="Layer_47">
		<g id="LINE_36_">
			<line class="st6" x1="356.1" y1="16.1" x2="356.1" y2="74"/>
		</g>
	</g>
</g>
<g id="Layer_91">
	<g id="Layer_46">
		<g id="LINE_37_">
			<line class="st6" x1="356.1" y1="74" x2="394.1" y2="112"/>
		</g>
	</g>
</g>
<g id="Layer_90">
	<g id="Layer_45">
		<g id="LINE_38_">
			<line class="st6" x1="394.1" y1="112" x2="1355.7" y2="112"/>
		</g>
	</g>
</g>
<g id="Layer_89">
	<g id="Layer_44">
		<g id="LINE_39_">
			<line class="st6" x1="1355.7" y1="112" x2="1393.7" y2="74"/>
		</g>
	</g>
</g>
<g id="Layer_88">
	<g id="Layer_43">
		<g id="LINE_40_">
			<line class="st6" x1="1393.7" y1="74" x2="1393.7" y2="16.1"/>
		</g>
	</g>
</g>
<g id="Layer_87">
	<g id="Layer_42">
		<g id="LINE_41_">
			<line class="st6" x1="1387.3" y1="188.3" x2="1387.3" y2="1063.9"/>
		</g>
	</g>
</g>
<g id="Layer_86">
	<g id="Layer_41">
		<g id="LINE_42_">
			<line class="st6" x1="362.5" y1="188.3" x2="362.5" y2="1063.9"/>
		</g>
	</g>
</g>
<g id="Layer_85">
	<g id="Layer_40">
		<g id="LINE_43_">
			<line class="st6" x1="318.7" y1="89.5" x2="133.4" y2="89.5"/>
		</g>
	</g>
</g>
<g id="Layer_84">
	<g id="Layer_39">
		<g id="LINE_44_">
			<line class="st6" x1="1328.8" y1="47.1" x2="1743.9" y2="1049.2"/>
		</g>
	</g>
</g>
<g id="Layer_83">
	<g id="Layer_38">
		<g id="LINE_45_">
			<line class="st6" x1="1437.8" y1="310.1" x2="1783.7" y2="656"/>
		</g>
	</g>
</g>
<g id="Layer_82">
	<g id="Layer_37">
		<g id="LINE_46_">
			<line class="st6" x1="1591.8" y1="156" x2="1783.7" y2="347.8"/>
		</g>
	</g>
</g>
<g id="Layer_81">
	<g id="Layer_36">
		<g id="LINE_47_">
			<line class="st6" x1="1328.8" y1="47.1" x2="1783.7" y2="235.5"/>
		</g>
	</g>
</g>
<g id="Layer_80">
	<g id="Layer_35">
		<g id="LINE_48_">
			<line class="st6" x1="1558.2" y1="549.8" x2="1558.2" y2="1063.9"/>
		</g>
	</g>
</g>
<g id="Layer_79">
	<g id="Layer_34">
		<g id="LINE_49_">
			<line class="st6" x1="1729" y1="549.8" x2="1729" y2="1063.9"/>
		</g>
	</g>
</g>
<g id="Layer_78">
	<g id="Layer_33">
		<g id="LINE_50_">
			<line class="st6" x1="421" y1="47.1" x2="133.4" y2="741.5"/>
		</g>
	</g>
</g>
<g id="Layer_77">
	<g id="Layer_32">
		<g id="LINE_51_">
			<line class="st6" x1="335" y1="253.9" x2="133.4" y2="455.5"/>
		</g>
	</g>
</g>
<g id="Layer_76">
	<g id="Layer_31">
		<g id="LINE_52_">
			<line class="st6" x1="214.2" y1="133.1" x2="133.4" y2="213.9"/>
		</g>
	</g>
</g>
<g id="Layer_75">
	<g id="Layer_30">
		<g id="LINE_53_">
			<line class="st6" x1="421" y1="47.1" x2="133.4" y2="166.2"/>
		</g>
	</g>
</g>
<g id="Layer_74">
	<g id="Layer_29">
		<g id="LINE_54_">
			<line class="st6" x1="191.7" y1="549.8" x2="191.7" y2="1063.9"/>
		</g>
	</g>
</g>
<g id="Layer_73">
	<g id="Layer_28">
		<g id="LINE_55_">
			<line class="st6" x1="1783.7" y1="632.5" x2="133.4" y2="632.5"/>
		</g>
	</g>
</g>
<g id="Layer_72">
	<g id="Layer_27">
		<g id="LINE_56_">
			<line class="st6" x1="1783.7" y1="346.4" x2="1558.1" y2="572"/>
		</g>
	</g>
</g>
<g id="Layer_71">
	<g id="Layer_26">
		<g id="LINE_57_">
			<line class="st6" x1="1558.1" y1="572" x2="191.7" y2="572"/>
		</g>
	</g>
</g>
<g id="Layer_70">
	<g id="Layer_25">
		<g id="LINE_58_">
			<line class="st6" x1="191.7" y1="572" x2="133.4" y2="513.6"/>
		</g>
	</g>
</g>
<g id="Layer_69">
	<g id="Layer_24">
		<g id="LINE_59_">
			<line class="st6" x1="1676.2" y1="16.1" x2="1676.2" y2="191"/>
		</g>
	</g>
</g>
<g id="Layer_68">
	<g id="Layer_23">
		<g id="LINE_60_">
			<line class="st6" x1="1676.2" y1="191" x2="1472.7" y2="394.4"/>
		</g>
	</g>
</g>
<g id="Layer_67">
	<g id="Layer_22">
		<g id="LINE_61_">
			<line class="st6" x1="1472.7" y1="394.4" x2="277.1" y2="394.4"/>
		</g>
	</g>
</g>
<g id="Layer_66">
	<g id="Layer_21">
		<g id="LINE_62_">
			<line class="st6" x1="277.1" y1="394.4" x2="133.4" y2="250.7"/>
		</g>
	</g>
</g>
<g id="Layer_65">
	<g id="Layer_20">
		<g id="LINE_63_">
			<line class="st6" x1="133.4" y1="793.9" x2="1783.7" y2="793.9"/>
		</g>
	</g>
</g>
<g id="Layer_64">
	<g id="Layer_19">
		<g id="LINE_64_">
			<line class="st6" x1="133.4" y1="1008.4" x2="1783.7" y2="1008.4"/>
		</g>
	</g>
</g>
<g id="Layer_63">
	<g id="Layer_18">
		<g id="LINE_65_">
			<line class="st6" x1="333.8" y1="160.1" x2="362.4" y2="188.6"/>
		</g>
	</g>
</g>
<g id="Layer_62">
	<g id="Layer_17">
		<g id="LINE_66_">
			<line class="st6" x1="362.4" y1="188.6" x2="1387.5" y2="188.6"/>
		</g>
	</g>
</g>
<g id="Layer_61">
	<g id="Layer_16">
		<g id="LINE_67_">
			<line class="st6" x1="1387.5" y1="188.6" x2="1411.3" y2="164.8"/>
		</g>
	</g>
</g>
<g id="Layer_60">
	<g id="Layer_15">
		<g id="LINE_68_">
			<line class="st6" x1="308.1" y1="248.6" x2="328.9" y2="269.3"/>
		</g>
	</g>
</g>
<g id="Layer_59">
	<g id="Layer_14">
		<g id="LINE_69_">
			<line class="st6" x1="328.9" y1="269.3" x2="1420.9" y2="269.3"/>
		</g>
	</g>
</g>
<g id="Layer_58">
	<g id="Layer_13">
		<g id="LINE_70_">
			<line class="st6" x1="1420.9" y1="269.3" x2="1442.9" y2="247.3"/>
		</g>
	</g>
</g>
<g id="Layer_57">
	<g id="Layer_12">
		<g id="LINE_71_">
			<line class="st6" x1="1500.3" y1="382.6" x2="1576.3" y2="458.6"/>
		</g>
	</g>
</g>
<g id="Layer_56">
	<g id="Layer_11">
		<g id="LINE_72_">
			<line class="st6" x1="1664.3" y1="218.5" x2="1740.3" y2="294.5"/>
		</g>
	</g>
</g>
<g id="Layer_55">
	<g id="Layer_10">
		<g id="LINE_73_">
			<line class="st6" x1="1499.8" y1="410.1" x2="1690.6" y2="219.3"/>
		</g>
	</g>
</g>
<g id="Layer_54">
	<g id="Layer_9">
		<g id="LINE_74_">
			<line class="st6" x1="1716.8" y1="245.5" x2="1526" y2="436.2"/>
		</g>
	</g>
</g>
<g id="Layer_130">
	<g id="MTEXT_26_">
		<text transform="matrix(1 0 0 1 1410.6365 161.987)" class="st7 st8">A.3</text>
	</g>
</g>
<g id="Layer_129">
	<g id="MTEXT_31_">
		<text transform="matrix(1 0 0 1 1513.2969 444.8284)" class="st7 st8">B.4</text>
	</g>
</g>
<g id="Layer_128">
	<g id="MTEXT_30_">
		<text transform="matrix(1 0 0 1 1689.2856 216.5289)" class="st7 st8">B.2</text>
	</g>
</g>
<g id="Layer_127">
	<g id="MTEXT_28_">
		<text transform="matrix(1 0 0 1 1573.4233 467.1507)" class="st7 st8">20.7</text>
	</g>
</g>
<g id="Layer_126">
	<g id="MTEXT_29_">
		<text transform="matrix(1 0 0 1 1737.4751 303.099)" class="st7 st8">20.3</text>
	</g>
</g>
<g id="Layer_125">
	<g id="MTEXT_25_">
		<text transform="matrix(1 0 0 1 1789.2804 1011.2884)" class="st7 st8">J</text>
	</g>
</g>
<g id="Layer_124">
	<g id="MTEXT_27_">
		<text transform="matrix(1 0 0 1 1442.2485 244.4979)" class="st7 st8">A.6</text>
	</g>
</g>
<g id="Layer_123">
	<g id="MTEXT_24_">
		<text transform="matrix(1 0 0 1 1787.9026 796.7687)" class="st7 st8">H</text>
	</g>
</g>
<g id="Layer_122">
	<g id="MTEXT_23_">
		<text transform="matrix(1 0 0 1 124.2056 247.8835)" class="st7 st8">B</text>
	</g>
</g>
<g id="Layer_121">
	<g id="MTEXT_22_">
		<text transform="matrix(1 0 0 1 124.1496 510.8418)" class="st7 st8">C</text>
	</g>
</g>
<g id="Layer_120">
	<g id="MTEXT_21_">
		<text transform="matrix(1 0 0 1 121.5656 635.3776)" class="st7 st8">D</text>
	</g>
</g>
<g id="Layer_119">
	<g id="MTEXT_20_">
		<text transform="matrix(1 0 0 1 186.5722 1074.7941)" class="st7 st8">30</text>
	</g>
</g>
<g id="Layer_118">
	<g id="MTEXT_19_">
		<text transform="matrix(1 0 0 1 120.8358 172.2008)" class="st7 st8">32</text>
	</g>
</g>
<g id="Layer_117">
	<g id="MTEXT_18_">
		<text transform="matrix(1 0 0 1 119.052 222.5143)" class="st7 st8">31.6</text>
	</g>
</g>
<g id="Layer_116">
	<g id="MTEXT_17_">
		<text transform="matrix(1 0 0 1 119.052 464.0745)" class="st7 st8">31.4</text>
	</g>
</g>
<g id="Layer_115">
	<g id="MTEXT_16_">
		<text transform="matrix(1 0 0 1 125.1862 751.7986)" class="st7 st8">31</text>
	</g>
</g>
<g id="Layer_114">
	<g id="MTEXT_15_">
		<text transform="matrix(1 0 0 1 1723.9591 1074.7941)" class="st7 st8">21</text>
	</g>
</g>
<g id="Layer_113">
	<g id="MTEXT_14_">
		<text transform="matrix(1 0 0 1 1553.1503 1074.7941)" class="st7 st8">22</text>
	</g>
</g>
<g id="Layer_112">
	<g id="MTEXT_13_">
		<text transform="matrix(1 0 0 1 1781.882 241.4531)" class="st7 st8">19.5</text>
	</g>
</g>
<g id="Layer_111">
	<g id="MTEXT_12_">
		<text transform="matrix(1 0 0 1 1780.8132 356.423)" class="st7 st8">20.4</text>
	</g>
</g>
<g id="Layer_110">
	<g id="MTEXT_11_">
		<text transform="matrix(1 0 0 1 1780.8132 664.5548)" class="st7 st8">20.6</text>
	</g>
</g>
<g id="Layer_109">
	<g id="MTEXT_10_">
		<text transform="matrix(1 0 0 1 1752.9359 1070.7063)" class="st7 st8">21.5</text>
	</g>
</g>
<g id="Layer_108">
	<g id="MTEXT_9_">
		<text transform="matrix(1 0 0 1 120.2234 92.3533)" class="st7 st8">34</text>
	</g>
</g>
<g id="Layer_107">
	<g id="MTEXT_8_">
		<text transform="matrix(1 0 0 1 357.4884 1074.7941)" class="st7 st8">29</text>
	</g>
</g>
<g id="Layer_106">
	<g id="MTEXT_7_">
		<text transform="matrix(1 0 0 1 1382.3414 1074.7941)" class="st7 st8">23</text>
	</g>
</g>
<g id="Layer_105">
	<g id="MTEXT_6_">
		<text transform="matrix(1 0 0 1 1390.8682 10.999)" class="st7 st8">A</text>
	</g>
</g>
<g id="Layer_104">
	<g id="MTEXT_5_">
		<text transform="matrix(1 0 0 1 528.2972 1074.7941)" class="st7 st8">28</text>
	</g>
</g>
<g id="Layer_103">
	<g id="MTEXT_4_">
		<text transform="matrix(1 0 0 1 699.1061 1074.7941)" class="st7 st8">27</text>
	</g>
</g>
<g id="Layer_102">
	<g id="MTEXT_3_">
		<text transform="matrix(1 0 0 1 1786.0197 100.42)" class="st7 st8">18</text>
	</g>
</g>
<g id="Layer_101">
	<g id="MTEXT_2_">
		<text transform="matrix(1 0 0 1 1211.5326 1074.7941)" class="st7 st8">24</text>
	</g>
</g>
<g id="Layer_100">
	<g id="MTEXT_1_">
		<text transform="matrix(1 0 0 1 1040.7238 1074.7941)" class="st7 st8">25</text>
	</g>
</g>
<g id="Layer_99">
	<g id="MTEXT">
		<text transform="matrix(1 0 0 1 869.9149 1074.7941)" class="st7 st8">26</text>
	</g>
</g>
<g id="Layer_162">
	<g id="CIRCLE_31_">
		<circle class="st9" cx="1520.3" cy="442" r="8.1"/>
	</g>
</g>
<g id="Layer_161">
	<g id="CIRCLE_30_">
		<circle class="st9" cx="1696.3" cy="213.6" r="8.1"/>
	</g>
</g>
<g id="Layer_160">
	<g id="CIRCLE_29_">
		<circle class="st9" cx="1746" cy="300.2" r="8.1"/>
	</g>
</g>
<g id="Layer_159">
	<g id="CIRCLE_28_">
		<circle class="st9" cx="1582" cy="464.3" r="8.1"/>
	</g>
</g>
<g id="Layer_158">
	<g id="CIRCLE_26_">
		<circle class="st9" cx="1417.1" cy="159.1" r="8.1"/>
	</g>
</g>
<g id="Layer_157">
	<g id="CIRCLE_27_">
		<circle class="st9" cx="1448.7" cy="241.6" r="8.1"/>
	</g>
</g>
<g id="Layer_156">
	<g id="CIRCLE_25_">
		<circle class="st9" cx="1791.7" cy="1008.4" r="8.1"/>
	</g>
</g>
<g id="Layer_155">
	<g id="CIRCLE_24_">
		<circle class="st9" cx="1791.7" cy="793.9" r="8.1"/>
	</g>
</g>
<g id="Layer_154">
	<g id="CIRCLE_23_">
		<ellipse class="st10" cx="127.7" cy="244.9" rx="8.1" ry="8.1"/>
	</g>
</g>
<g id="Layer_153">
	<g id="CIRCLE_22_">
		<ellipse class="st11" cx="127.7" cy="507.9" rx="8.1" ry="8.1"/>
	</g>
</g>
<g id="Layer_152">
	<g id="CIRCLE_17_">
		<circle class="st9" cx="127.7" cy="461.2" r="8.1"/>
	</g>
</g>
<g id="Layer_151">
	<g id="CIRCLE_21_">
		
			<ellipse transform="matrix(0.104 -0.9946 0.9946 0.104 -516.7565 691.3242)" class="st10" cx="125.3" cy="632.5" rx="8.1" ry="8.1"/>
	</g>
</g>
<g id="Layer_150">
	<g id="CIRCLE_20_">
		<circle class="st9" cx="191.7" cy="1071.9" r="8.1"/>
	</g>
</g>
<g id="Layer_149">
	<g id="CIRCLE_19_">
		<circle class="st9" cx="125.9" cy="169.3" r="8.1"/>
	</g>
</g>
<g id="Layer_148">
	<g id="CIRCLE_18_">
		<ellipse class="st10" cx="127.6" cy="219.6" rx="8.1" ry="8.1"/>
	</g>
</g>
<g id="Layer_147">
	<g id="CIRCLE_16_">
		
			<ellipse transform="matrix(3.327788e-02 -0.9994 0.9994 3.327788e-02 -622.5214 854.2061)" class="st9" cx="130.3" cy="748.9" rx="8.1" ry="8.1"/>
	</g>
</g>
<g id="Layer_146">
	<g id="CIRCLE_15_">
		<circle class="st9" cx="1729" cy="1071.9" r="8.1"/>
	</g>
</g>
<g id="Layer_145">
	<g id="CIRCLE_14_">
		<circle class="st9" cx="1558.2" cy="1071.9" r="8.1"/>
	</g>
</g>
<g id="Layer_144">
	<g id="CIRCLE_13_">
		<circle class="st9" cx="1791.1" cy="238.6" r="8.1"/>
	</g>
</g>
<g id="Layer_143">
	<g id="CIRCLE_12_">
		<circle class="st9" cx="1789.4" cy="353.5" r="8.1"/>
	</g>
</g>
<g id="Layer_142">
	<g id="CIRCLE_11_">
		<circle class="st9" cx="1789.4" cy="661.7" r="8.1"/>
	</g>
</g>
<g id="Layer_141">
	<g id="CIRCLE_10_">
		<circle class="st9" cx="1761.5" cy="1067.8" r="8.1"/>
	</g>
</g>
<g id="Layer_140">
	<g id="CIRCLE_9_">
		<circle class="st9" cx="125.3" cy="89.5" r="8.1"/>
	</g>
</g>
<g id="Layer_139">
	<g id="CIRCLE_8_">
		<circle class="st9" cx="362.5" cy="1071.9" r="8.1"/>
	</g>
</g>
<g id="Layer_138">
	<g id="CIRCLE_7_">
		<circle class="st9" cx="1387.3" cy="1071.9" r="8.1"/>
	</g>
</g>
<g id="Layer_137">
	<g id="CIRCLE_6_">
		<circle class="st9" cx="1393.7" cy="8.1" r="8.1"/>
	</g>
</g>
<g id="Layer_136">
	<g id="CIRCLE_5_">
		<circle class="st9" cx="533.3" cy="1071.9" r="8.1"/>
	</g>
</g>
<g id="Layer_135">
	<g id="CIRCLE_4_">
		<circle class="st9" cx="704.1" cy="1071.9" r="8.1"/>
	</g>
</g>
<g id="Layer_134">
	<g id="CIRCLE_3_">
		<circle class="st9" cx="1791.7" cy="97.5" r="8.1"/>
	</g>
</g>
<g id="Layer_133">
	<g id="CIRCLE_2_">
		<circle class="st9" cx="1216.5" cy="1071.9" r="8.1"/>
	</g>
</g>
<g id="Layer_132">
	<g id="CIRCLE_1_">
		<circle class="st9" cx="1045.7" cy="1071.9" r="8.1"/>
	</g>
</g>
<g id="Layer_131">
	<g id="CIRCLE">
		<circle class="st9" cx="874.9" cy="1071.9" r="8.1"/>
	</g>
</g>
<g id="Layer_165">
	<g id="LINE_25_" class="st3">
		<line class="st5" x1="1324.3" y1="396.7" x2="1325.2" y2="395.8"/>
	</g>
</g>
<g id="Layer_164">
	<g id="LINE_26_" class="st3">
		<line class="st5" x1="1325.2" y1="395.8" x2="1323.7" y2="394.3"/>
	</g>
</g>
<g id="Layer_163">
	<g id="LINE_27_" class="st3">
		<line class="st5" x1="1323.7" y1="394.3" x2="1324.2" y2="394.8"/>
	</g>
</g>
<polygon id="_x30_0.27.04" class="st0" points="707.8,628.4 707.8,576 700.1,576 700.1,567.5 685.1,567.5 685.1,636.9 700.1,636.9 
	700.1,628.4 "/>
<polygon id="_x30_0.27.06" class="st0" points="529.5,576 529.5,628.4 537.3,628.4 537.3,636.9 552.3,636.9 552.3,567.5 
	537.3,567.5 537.3,576 "/>
</svg>
