<?xml version="1.0" encoding="utf-8"?>
<!-- Generator: Adobe Illustrator 25.2.3, SVG Export Plug-In . SVG Version: 6.00 Build 0)  -->
<svg version="1.1" xmlns="http://www.w3.org/2000/svg" xmlns:xlink="http://www.w3.org/1999/xlink" x="0px" y="0px"
	 viewBox="0 0 1920 1080" style="enable-background:new 0 0 1920 1080;" xml:space="preserve">
<style type="text/css">
	.st0{opacity:0.43;}
	.st1{fill:#BA9BC9;stroke:#000000;stroke-width:0.25;stroke-linecap:round;stroke-linejoin:round;stroke-miterlimit:10;}
	
		.st2{opacity:0.43;fill:#BA9BC9;stroke:#000000;stroke-width:0.25;stroke-linecap:round;stroke-linejoin:round;stroke-miterlimit:10;}
	.st3{fill:#65C8D0;stroke:#000000;stroke-width:0.25;stroke-linecap:round;stroke-linejoin:round;stroke-miterlimit:10;}
	.st4{fill:#BA9BC9;stroke:#000000;stroke-width:0.25;stroke-miterlimit:10;}
	
		.st5{fill:none;stroke:#000000;stroke-width:0.2551;stroke-linecap:round;stroke-linejoin:round;stroke-miterlimit:10;stroke-dasharray:0.1681,0.042,0.042,0.042;}
	.st6{fill:none;stroke:#000000;stroke-width:0.2551;stroke-linecap:round;stroke-linejoin:round;stroke-miterlimit:10;}
	.st7{font-family:'ArialMT';}
	.st8{font-size:8.5484px;}
	.st9{display:none;}
	.st10{display:inline;opacity:0.43;}
</style>
<g id="A-AREA-BNDY">
	<g id="_x30_0.27.03" class="st0">
		<polygon class="st1" points="735.17,670.81 735.17,656.69 735.17,639.74 735.17,637.71 735.17,622.39 757.9,622.39 757.9,549.76 
			735.17,549.76 735.17,533.63 670.69,533.63 649.38,533.63 643.54,533.63 643.54,541.7 619.92,541.7 619.92,662.74 643.54,662.74 
			643.54,670.81 655.48,670.81 669.98,670.81 684.88,670.81 		"/>
	</g>
	<path class="st2" d="M700.53,638.53h0.55h8.47v-9.02v-0.55v-53.5v-9.56h-9.02h-17.17v72.63H700.53z M685,567.54h15v8.45h7.9v52.45
		h-7.9v8.45h-15V567.54z"/>
	<g id="_x30_0.26.22" class="st0">
		<polygon class="st1" points="864.28,896.76 864.28,838.13 740.29,838.13 740.29,855.68 740.29,896.76 745.05,896.76 		"/>
	</g>
	<g id="_x30_0.25.09" class="st0">
		<polygon class="st1" points="996.38,916.26 997.43,916.26 997.43,902.81 996.38,902.81 996.38,900.38 898.24,900.38 
			898.24,943.23 996.38,943.23 		"/>
	</g>
	<g id="_x30_0.28.09" class="st0">
		<polygon class="st1" points="279.35,647.69 301.96,647.69 301.96,655.76 346.35,655.76 433.1,655.76 433.1,655.16 433.1,623.61 
			435.54,623.61 435.54,656.98 476.81,656.98 476.81,639.04 455.71,639.04 455.71,622.39 476.81,622.39 476.81,622.37 
			476.81,549.76 476.81,548.67 458.33,548.67 454.49,548.67 397.27,548.67 325.4,548.67 301.96,548.67 301.96,556.74 279.35,556.74 
					"/>
	</g>
	<g id="_x30_0.26.10" class="st0">
		<polygon class="st1" points="875.59,541.7 875.59,533.63 871.09,533.63 849.7,533.63 783.33,533.63 783.33,549.76 760.47,549.76 
			760.47,622.39 783.33,622.39 783.33,637.71 783.33,639.74 783.33,656.69 783.33,670.81 800.14,670.81 875.59,670.81 
			875.59,662.74 900.47,662.74 900.47,545.12 900.47,541.7 		"/>
	</g>
	<g id="_x30_0.27.05" class="st0">
		<polygon class="st1" points="502.24,656.69 502.24,670.81 552.59,670.81 567.49,670.81 581.99,670.81 593.73,670.81 
			593.73,662.74 617.36,662.74 617.36,541.7 593.73,541.7 593.73,533.63 587.89,533.63 566.58,533.63 502.24,533.63 502.24,549.76 
			479.37,549.76 479.37,622.39 502.24,622.39 502.24,637.71 502.24,639.74 		"/>
	</g>
	<g id="_x30_0.23.02" class="st0">
		<polygon class="st1" points="1238.6,594.95 1311.9,594.95 1311.9,617.75 1311.9,659.5 1332.87,659.5 1332.87,594.95 
			1393.73,594.95 1393.73,554.54 1393.73,514.19 1393.73,464.88 1393.73,459.44 1377.11,459.44 1351.77,434.1 1305.09,434.1 
			1238.6,434.1 1238.6,545.12 		"/>
	</g>
	<g id="_x30_0.22.03" class="st0">
		<polygon class="st1" points="1396.29,796.69 1478.46,796.69 1478.46,753.99 1520.48,753.99 1541.59,745.24 1507.14,662.07 
			1357.63,662.07 1357.63,683.71 1396.29,683.71 1396.29,741.61 1396.29,788.66 		"/>
	</g>
	<g id="_x30_0.25.08" class="st0">
		<polygon class="st1" points="875.63,930 875.63,933.84 875.63,979.01 875.63,981.04 875.63,997.59 877.65,997.59 877.65,1010.28 
			895.8,1010.28 895.8,967.44 898.24,967.44 898.24,1010.28 996.38,1010.28 996.38,943.23 898.26,943.23 895.8,943.23 895.8,900.38 
			877.65,900.38 877.65,913.11 875.63,913.11 		"/>
	</g>
	<g id="LWPOLYLINE_5_" class="st0">
		<rect x="358.79" y="629.29" class="st3" width="7.4" height="6.39"/>
	</g>
	<g id="LWPOLYLINE_6_" class="st0">
		<rect x="358.79" y="568.76" class="st3" width="7.4" height="6.39"/>
	</g>
	<g id="LWPOLYLINE_9_" class="st0">
		<rect x="871.89" y="628.44" class="st3" width="6.05" height="8.07"/>
	</g>
	<g id="LWPOLYLINE_10_" class="st0">
		<rect x="871.89" y="567.92" class="st3" width="6.05" height="8.07"/>
	</g>
	<g id="_x30_0.27.07A" class="st0">
		<polygon class="st1" points="683.66,746.8 683.66,735.6 683.66,673.25 670.8,673.25 670.8,686.03 669.16,686.03 669.16,673.25 
			656.3,673.25 656.3,678.84 656.3,685.82 654.66,685.82 654.66,679.55 642.45,679.55 642.45,673.25 619.92,673.25 619.92,746.8 		
			"/>
	</g>
	<g id="_x30_0.24.01" class="st0">
		<polygon class="st1" points="1137.12,543.84 1236.03,543.84 1236.03,431.96 1111.5,431.96 1111.5,543.84 		"/>
	</g>
	<g id="_x30_0.27.08A" class="st0">
		<polygon class="st1" points="553.81,734.23 553.81,735.6 553.81,746.8 617.36,746.8 617.36,673.25 594.83,673.25 594.83,679.55 
			582.81,679.55 582.81,685.82 581.17,685.82 581.17,678.84 581.17,673.25 568.31,673.25 568.31,686.03 566.67,686.03 
			566.67,673.25 553.81,673.25 553.81,733.57 		"/>
	</g>
	<g id="_x30_0.29.05" class="st0">
		<polygon class="st1" points="239.05,839.18 239.05,855.32 214.54,855.32 214.54,961.66 235.81,961.66 235.81,1009.49 
			327.52,1009.49 327.52,995.85 327.52,981.35 327.52,966.85 327.52,951.99 327.52,935.83 327.52,883.08 327.52,860.87 
			327.52,839.18 		"/>
	</g>
	<g id="_x30_0.25.01" class="st0">
		<polygon class="st1" points="1022.8,543.84 1108.94,543.84 1108.94,431.96 903.03,431.96 903.03,532.3 903.03,540.98 
			903.03,543.84 		"/>
	</g>
	<g id="_x30_0.29.01" class="st0">
		<polygon class="st4" points="191.3,600.7 191.3,757.56 232.99,757.56 232.99,791.39 191.3,791.39 191.3,835.57 212.95,835.57 
			215.51,835.57 215.51,838.13 214.16,838.13 214.16,852.88 237.03,852.88 237.03,835.57 270.32,835.57 270.32,500.67 
			232.73,500.67 		"/>
	</g>
	<g id="_x30_0.24.03" class="st0">
		<polygon class="st1" points="1135.83,546.4 1110.22,546.4 1024.08,546.4 1024.08,781.83 1024.08,796.69 1135.83,796.69 		"/>
	</g>
	<g id="_x30_0.24.04" class="st0">
		<polygon class="st1" points="1268.31,1011.34 1270.67,1011.34 1270.67,886.76 1286.81,886.76 1286.81,846.94 1286.81,844.91 
			1286.81,835.9 1112.97,835.9 1112.97,838.13 1080.69,838.13 1080.69,909.54 1112.97,909.54 1112.97,1011.34 		"/>
	</g>
	<g id="_x30_0.25.07" class="st0">
		<polygon class="st1" points="1044.38,1011.34 1049.51,1011.34 1049.51,946.78 1028.53,946.78 1028.53,934.67 1001.05,934.67 
			1001.05,1011.34 1001.34,1011.34 		"/>
	</g>
	<g id="_x30_0.22.05" class="st0">
		<polygon class="st1" points="1561.09,1003.69 1561.09,873.1 1549.41,873.1 1549.41,848.22 1384.65,848.22 1384.65,920.45 
			1384.65,1003.69 1392.05,1003.69 1392.05,1011.34 1553.44,1011.34 1553.44,1003.69 		"/>
	</g>
	<g id="_x30_0.23.18" class="st0">
		<polygon class="st1" points="1382.09,1011.34 1382.09,1004.97 1382.09,921.73 1341.74,921.73 1341.74,968.63 1303.64,968.63 
			1289.37,968.63 1289.37,1011.34 		"/>
	</g>
	<g id="EL01" class="st0">
		<polygon class="st1" points="1224.94,788.53 1224.94,788.83 1274.03,788.83 1274.03,745.69 1274.03,738.39 1237.32,738.39 
			1224.94,738.39 1224.94,749.43 		"/>
	</g>
	<g id="EL02" class="st0">
		<rect x="1276.59" y="746.97" class="st1" width="31.06" height="41.86"/>
	</g>
	<g id="ST01" class="st0">
		<polygon class="st4" points="1382.09,848.22 1341.74,848.22 1341.74,885.48 1341.74,919.16 1382.09,919.16 		"/>
	</g>
	<g id="_x30_0.25.03" class="st0">
		<rect x="900.47" y="838.13" class="st1" width="96.96" height="58.63"/>
	</g>
	<g id="_x30_0.28.20" class="st0">
		<polygon class="st1" points="457.22,838.13 457.22,880.16 525.14,880.16 525.14,842.84 490.05,842.84 490.05,863.98 
			478.74,863.98 478.74,862.34 488.41,862.34 488.41,842.12 488.41,838.13 		"/>
	</g>
	<g id="_x30_0.25.02" class="st0">
		<polygon class="st1" points="1021.51,546.4 903.03,546.4 903.03,663.46 903.03,672.13 903.03,682.79 903.03,725.41 903.03,740.71 
			903.03,756 903.03,771.3 903.03,780.55 928.59,780.55 928.59,796.69 995.96,796.69 995.96,780.55 1021.51,780.55 		"/>
	</g>
	<g id="EL03" class="st0">
		<rect x="191.68" y="760.12" class="st1" width="39.13" height="28.71"/>
	</g>
	<g id="ST02" class="st0">
		<polygon class="st1" points="191.68,838.13 191.68,961.66 212.1,961.66 212.1,854.1 212.1,838.13 		"/>
	</g>
	<g id="_x30_0.24.02" class="st0">
		<polygon class="st1" points="1222.37,748.15 1222.37,735.83 1236.03,735.83 1236.03,726.69 1236.03,660.79 1236.03,617.75 
			1236.03,596.23 1236.03,546.4 1138.4,546.4 1138.4,796.69 1181.35,796.69 1181.35,748.15 		"/>
	</g>
	<g id="_x30_0.26.02" class="st0">
		<polygon class="st4" points="359.89,331.66 367.79,312.61 369.65,313.38 433.52,153.92 385.06,133.84 381.72,141.9 372.98,163.01 
			366.7,178.16 348.77,221.44 308.37,318.99 277.12,394.42 233.11,500.67 270.69,500.67 270.69,835.57 329.96,835.57 329.96,838.66 
			329.96,859.65 359.8,859.65 359.8,838.87 359.8,835.57 363.04,835.57 456,835.57 489.12,835.57 526.36,835.57 563.39,835.57 
			596.51,835.57 662.96,835.57 713.52,835.57 713.52,854.4 737.01,854.4 737.73,854.4 737.73,835.57 865.56,835.57 899.19,835.57 
			999.99,835.57 999.99,898.04 999.99,902.81 999.99,916.26 999.99,931.06 1029.58,931.06 1029.58,912.12 1029.58,912.1 
			1029.58,910.82 1029.58,835.57 1075.31,835.57 1075.31,835.9 1112.97,835.9 1286.81,835.9 1286.81,845.65 1340.46,845.65 
			1383.37,845.65 1549.41,845.65 1549.41,797.97 1549.41,793.2 1523.85,793.2 1523.85,799.25 1479.74,799.25 1395.01,799.25 
			1384.02,799.25 1355.88,799.25 1307.65,799.25 1307.65,791.39 1275.31,791.39 1224.94,791.39 1224.94,792.58 1224.94,799.25 
			1213.55,799.25 1182.63,799.25 1137.12,799.25 1021.51,799.25 1021.51,783.11 998.52,783.11 998.52,799.25 926.02,799.25 
			926.02,783.11 903.03,783.11 903.03,786.1 903.03,799.25 867.56,799.25 845.56,799.25 840.13,799.25 780.77,799.25 780.77,783.11 
			759.19,783.11 737.73,783.11 737.73,799.25 684.88,799.25 683.66,799.25 683.64,799.25 618.64,799.25 553.83,799.25 
			553.81,799.25 552.59,799.25 499.67,799.25 499.67,783.11 478.09,783.11 456.63,783.11 456.63,799.25 365.81,799.25 
			330.33,799.25 318.44,799.25 291.82,772.63 279.04,759.85 275.74,756.55 275.74,754.37 275.74,735.58 275.74,722.3 275.74,704.62 
			275.74,657.09 275.74,648.41 275.74,553.13 297.26,553.13 297.26,545.96 297.26,484.43 297.26,482.85 297.63,481.94 319.4,429.39 
			397.16,429.39 411.96,429.39 419.88,429.39 455.35,429.39 500.95,429.39 505.35,429.39 559.63,429.39 565.47,429.39 
			618.64,429.39 671.81,429.39 677.65,429.39 731.93,429.39 736.45,429.39 782.05,429.39 786.78,429.39 842.74,429.39 
			848.58,429.39 901.75,429.39 1110.22,429.39 1237.32,429.39 1302.73,429.39 1302.73,402.49 1280.54,402.49 1280.54,388.37 
			1250.95,388.37 1250.95,402.49 1223.26,402.49 1223.26,404.51 1209.81,404.51 1209.81,402.49 1052.45,402.49 1052.45,404.51 
			1039,404.51 1039,402.49 881.64,402.49 881.64,404.51 868.19,404.51 868.19,402.49 710.83,402.49 710.83,404.51 697.38,404.51 
			697.38,402.49 640.22,402.49 640.22,390.39 606.6,390.39 606.6,402.49 536.66,402.49 536.66,387.36 499,387.36 499,402.49 
			368.88,402.49 368.88,403.71 357.78,403.71 357.78,391.4 360.47,391.4 360.47,386.29 360.47,346.39 357,344.95 369.65,313.38 
			355.26,342.85 		"/>
	</g>
	<g id="_x30_0.26.01" class="st0">
		<polygon class="st1" points="1329.88,232.36 604.45,232.36 604.45,385.68 644.93,385.68 644.93,397.79 697.38,397.79 
			710.83,397.79 868.19,397.79 881.64,397.79 1039,397.79 1052.45,397.79 1209.81,397.79 1223.26,397.79 1246.25,397.79 
			1246.25,383.66 1285.25,383.66 1285.25,397.79 1305.09,397.79 1305.09,399.93 1317.47,399.93 1369.55,347.85 1375.32,342.08 		"/>
	</g>
	<g id="_x30_0.24.05" class="st0">
		<polygon class="st1" points="1032.15,838.13                1032.17,909.54 1078.13,909.54 1078.13,838.13 1075.31,838.13 		"/>
	</g>
	<g id="_x30_0.22.01" class="st0">
		<polygon class="st1" points="1730.44,1016.65 1400.98,221.26 1368.11,141.9 1363.29,130.26 1303.66,154.96 1303.64,154.96 
			1325.39,207.47 1334.74,230.05 1334.79,230.17 1334.48,230.3 1379.86,339.86 1380.17,339.73 1380.92,341.53 1384.96,351.29 
			1375.21,355.33 1370.45,350.57 1318.53,402.49 1307.44,402.49 1307.44,429.39 1353.72,429.39 1379.06,454.73 1396.08,454.73 
			1398.81,454.73 1407.18,454.73 1407.18,466.16 1398.44,466.16 1398.44,512.9 1449.54,512.9 1449.54,515.47 1398.44,515.47 
			1398.44,553.25 1465.68,553.25 1465.68,555.82 1398.44,555.82 1398.44,592.8 1483.54,592.8 1511.33,659.89 1547.74,747.79 
			1526,756.8 1526,788.49 1551.76,788.49 1554.2,788.49 1563.53,788.49 1563.53,799.25 1554.11,799.25 1554.11,846.94 
			1554.11,868.39 1567.56,868.39 1567.56,1004.97 1567.56,1016.65 		"/>
	</g>
	<g id="_x30_0.26.21" class="st0">
		<polygon class="st1" points="686.1,796.67 686.1,796.69 735.17,796.69 735.17,781.83 735.17,780.53 735.17,736.82 686.1,736.82 
			686.1,748.02 		"/>
	</g>
	<g id="_x30_0.22.04" class="st0">
		<polygon class="st1" points="1481.02,796.69 1521.29,796.69 1521.29,790.85 1521.29,756.55 1481.02,756.55 		"/>
	</g>
	<g id="LWPOLYLINE_40_" class="st0">
		<rect x="922.21" y="930.76" class="st3" width="48.42" height="2.44"/>
	</g>
	<g id="_x30_0.29.04" class="st0">
		<polygon class="st1" points="382.41,862.09 361.02,862.09 329.96,862.09 329.96,882.26 347.1,882.26 347.1,883.9 329.96,883.9 
			329.96,935.01 347.1,935.01 347.1,936.65 329.96,936.65 329.96,950.77 347.1,950.77 347.1,953.21 329.96,953.21 329.96,966.03 
			342.73,966.03 342.73,967.67 329.96,967.67 329.96,980.53 342.73,980.53 342.73,982.17 329.96,982.17 329.96,995.03 
			342.73,995.03 342.73,996.67 329.96,996.67 329.96,1009.53 357.4,1009.53 357.4,1002.64 386.78,1002.64 386.78,1001.77 
			386.78,955.81 365.26,955.81 365.26,950.77 382.41,950.77 382.41,936.65 365.26,936.65 365.26,935.01 382.41,935.01 382.41,883.9 
			365.26,883.9 365.26,882.26 382.41,882.26 		"/>
	</g>
	<g id="_x30_0.28.22" class="st0">
		<polygon class="st1" points="421.41,862.09 384.85,862.09 384.85,883.08 384.85,935.83 384.85,950.77 387.71,950.77 
			430.83,950.77 430.83,905.34 430.83,883.9 422.13,883.9 403.68,883.9 403.68,882.26 421.41,882.26 421.41,880.24 430.83,880.24 
			430.83,869.49 421.41,869.49 		"/>
	</g>
	<g id="_x30_0.28.24" class="st0">
		<polygon class="st1" points="430.83,1000.95 430.83,953.21 388.42,953.21 388.42,955.1 388.42,1000.95 		"/>
	</g>
	<g id="_x30_0.28.21" class="st0">
		<polygon class="st1" points="362.24,838.13 362.24,859.65 383.63,859.65 422.13,859.65 433.27,859.65 433.27,868.77 
			433.27,880.96 433.27,883.08 433.27,904.12 552.25,904.12 599.11,904.12 600.29,904.12 600.35,904.12 641.9,904.12 665.73,904.12 
			665.73,916.52 669.98,916.52 710.96,916.52 710.96,904.12 713.39,904.12 713.39,917.74 713.39,931.31 735.17,931.31 
			735.17,913.11 736.3,912.71 736.3,900.07 736.3,856.96 713.39,856.96 713.39,882.6 662.96,882.6 596.51,882.6 526.36,882.6 
			454.78,882.6 454.78,838.13 		"/>
	</g>
	<g id="_x30_0.28.23" class="st0">
		<polygon class="st1" points="433.27,906.56 433.27,951.99 433.27,1001.77 433.27,1010.66 528.08,1010.66 528.08,1002 538.51,1002 
			538.51,1010.66 551.03,1010.66 551.03,999.34 551.79,999.34 551.79,910.57 551.03,910.57 551.03,906.56 		"/>
	</g>
	<g id="_x30_0.27.13" class="st0">
		<polygon class="st1" points="643.12,1010.6 643.12,1010.66 663.29,1010.66 663.29,1009.21 663.29,996.88 663.29,981.04 
			663.29,979.01 663.29,917.63 663.29,906.56 643.12,906.56 643.12,921.43 628.41,921.43 628.41,919 640.68,919 640.68,906.56 
			600.33,906.56 600.33,1009.16 600.33,1009.49 640.68,1009.49 640.68,944.05 628.41,944.05 628.41,941.61 643.12,941.61 		"/>
	</g>
	<g id="_x30_0.27.12" class="st0">
		<polygon class="st1" points="670.69,977.29 694.02,977.29 694.02,979.73 714.19,979.73 714.19,977.29 737.94,977.29 
			737.94,933.75 736.99,933.75 733.34,933.75 710.96,933.75 710.96,918.95 670.69,918.95 		"/>
	</g>
	<g id="_x30_0.27.15" class="st0">
		<polygon class="st1" points="663.29,996.88 665.73,996.88 665.73,1009.19 699.02,1009.19 699.02,1000.58 709.19,1000.58 
			709.19,1009.19 742.48,1009.19 742.48,997.59 742.48,995.57 742.48,979.73 740.19,979.73 739.05,979.73 714.19,979.73 
			694.02,979.73 669.98,979.73 669.24,979.73 663.29,979.73 		"/>
	</g>
	<g id="_x30_0.27.09" class="st0">
		<polygon class="st1" points="664.18,838.13 664.18,880.16 710.96,880.16 710.96,856.98 710.96,855.68 710.96,838.13 		"/>
	</g>
	<g id="_x30_0.26.23" class="st0">
		<polygon class="st1" points="875.63,931.31 875.63,913.83 869.91,913.83 869.91,900.38 748.19,900.38 748.19,913.83 
			735.17,913.83 735.17,931.31 739.05,931.31 740.19,931.31 748.19,931.31 748.19,979.73 742.48,979.73 742.48,996.88 
			748.19,996.88 748.19,1009.76 748.19,1010.66 783.46,1010.66 869.91,1010.66 869.91,996.88 875.63,996.88 875.63,979.73 
			869.91,979.73 869.91,931.31 		"/>
	</g>
	<g id="LWPOLYLINE_52_" class="st0">
		<rect x="788.23" y="839.14" class="st3" width="8.28" height="7.4"/>
	</g>
	<g id="LWPOLYLINE_53_" class="st0">
		<rect x="847.36" y="839.14" class="st3" width="8.28" height="7.4"/>
	</g>
	<path class="st2" d="M536.81,565.9h-0.55h-8.47v9.02v0.55v53.5v9.56h9.02h17.17V565.9H536.81z M552.34,636.89h-15v-8.45h-7.9
		v-52.45h7.9v-8.45h15V636.89z"/>
	<g id="_x30_0.28.15" class="st0">
		<polygon class="st1" points="454.07,725.24 454.07,681.82 434.32,681.82 393.17,681.82 393.17,725.24 		"/>
	</g>
	<g id="_x30_0.28.16" class="st0">
		<polygon class="st1" points="433.1,658.2 346.35,658.2 346.35,678.18 346.35,680.2 346.35,704.62 346.35,725.24 364.27,725.24 
			365.41,725.24 390.73,725.24 390.73,679.38 433.1,679.38 433.1,658.81 		"/>
	</g>
	<g id="_x30_0.29.02" class="st0">
		<polygon class="st1" points="346.35,658.2 301.25,658.2 283.81,658.2 283.81,679.38 299.95,679.38 299.95,681.02 283.81,681.02 
			283.81,703.8 299.95,703.8 299.95,705.44 283.09,705.44 278.3,705.44 278.3,721.58 287.55,721.58 287.55,734.36 296.71,734.36 
			300.41,734.36 300.41,721.58 302.05,721.58 302.05,734.36 314.91,734.36 314.91,721.58 316.55,721.58 316.55,734.36 
			329.41,734.36 329.41,721.58 331.05,721.58 331.05,734.36 343.91,734.36 343.91,726.35 343.91,705.44 341.68,705.44 
			316.09,705.44 316.09,703.8 340.97,703.8 340.97,681.02 316.09,681.02 316.09,679.38 341.68,679.38 346.35,679.38 		"/>
	</g>
	<g id="_x30_0.28.18" class="st0">
		<polygon class="st1" points="454.07,780.53 454.07,727.68 391.95,727.68 366.52,727.68 366.52,736.8 345.02,736.8 343.91,736.8 
			343.89,736.8 331.55,736.8 331.55,789.5 366.52,789.5 366.52,796.69 454.07,796.69 454.07,781.83 		"/>
	</g>
	<g id="_x30_0.28.06" class="st0">
		<polygon class="st1" points="420.99,474.91 454.07,474.91 454.07,448.12 454.07,446.81 454.07,431.96 420.99,431.96 
			420.99,443.81 		"/>
	</g>
	<g id="_x30_0.28.14" class="st0">
		<polygon class="st1" points="456.51,679.38 456.51,726.46 456.51,780.55 476.81,780.55 476.81,656.98 435.54,656.98 
			435.54,679.38 		"/>
	</g>
	<g id="_x30_0.28.07" class="st0">
		<polygon class="st1" points="301.17,481.69 396.07,481.69 396.07,466.88 398.5,466.88 398.5,482.41 398.5,485.63 398.5,499.92 
			418.56,499.92 418.56,475.7 418.56,444.45 411.28,444.45 411.28,431.86 398.5,431.86 398.5,446.68 396.07,446.68 396.07,431.86 
			321.67,431.86 		"/>
	</g>
	<g id="_x30_0.28.08A" class="st0">
		<polygon class="st1" points="454.49,546.23 456.51,546.23 456.51,527.41 454.07,527.41 454.07,476.55 420.99,476.55 
			420.99,499.92 420.99,524.97 435.24,524.97 435.24,527.41 418.56,527.41 418.56,499.92 398.4,499.92 398.38,499.92 398.38,520.09 
			398.38,542.66 398.38,546.23 		"/>
	</g>
	<g id="_x30_0.28.13" class="st0">
		<polygon class="st1" points="499.8,672.03 499.8,656.69 502.24,656.69 502.24,638.53 479.37,638.53 479.37,656.98 479.37,780.55 
			499.8,780.55 499.8,735.6 499.8,734.38 499.8,734.36 		"/>
	</g>
	<g id="_x30_0.28.12" class="st0">
		<rect x="502.24" y="673.25" class="st1" width="49.13" height="61.13"/>
	</g>
	<g id="_x30_0.28.02" class="st0">
		<polygon class="st1" points="501.21,492.6 552.4,492.6 559.54,492.6 559.54,431.96 507.09,431.96 507.09,474.11 501.21,474.11 		
			"/>
	</g>
	<g id="_x30_0.27.02" class="st0">
		<polygon class="st1" points="567.61,531.19 587.7,531.19 587.7,491.26 590.14,491.26 590.14,531.19 595.48,531.19 618.39,531.19 
			618.39,431.96 567.61,431.96 567.61,468.65 590.14,468.65 590.14,471.09 567.61,471.09 567.61,495.71 562.68,495.71 
			555.05,495.71 555.05,508.58 567.61,508.58 		"/>
	</g>
	<g id="_x30_0.26.17" class="st0">
		<polygon class="st1" points="735.17,656.69 737.6,656.69 737.6,672.03 737.6,735.6 737.6,780.55 757.9,780.55 757.9,638.53 
			735.17,638.53 		"/>
	</g>
	<g id="_x30_0.26.09" class="st0">
		<polygon class="st1" points="670.69,531.19 737.6,531.19 737.6,511.01 735.17,511.01 735.17,495.04 734.98,495.04 686.75,495.04 
			686.75,511.01 683.97,511.01 670.69,511.01 		"/>
	</g>
	<g id="_x30_0.27.01" class="st0">
		<polygon class="st1" points="619.92,531.19 642.83,531.19 648.16,531.19 648.16,491.26 650.6,491.26 650.6,531.19 670.69,531.19 
			670.69,508.58 683.26,508.58 683.26,495.71 675.62,495.71 670.69,495.71 670.69,471.09 648.16,471.09 648.16,468.65 
			670.69,468.65 670.69,431.96 619.92,431.96 		"/>
	</g>
	<g id="_x30_0.26.18" class="st0">
		<rect x="686.1" y="673.25" class="st1" width="49.07" height="61.13"/>
	</g>
	<path class="st2" d="M811.03,565.9v72.63h20.85V565.9H811.03z M830.24,636.89h-17.57v-69.35h17.57V636.89z"/>
	<g id="_x30_0.26.16" class="st0">
		<polygon class="st1" points="798.92,673.25 780.89,673.25 780.89,656.69 783.33,656.69 783.33,638.53 760.47,638.53 
			760.47,780.55 780.89,780.55 780.89,742.94 780.89,693.59 798.92,693.59 		"/>
	</g>
	<g id="_x30_0.26.15" class="st0">
		<polygon class="st1" points="783.33,696.03 783.33,741.72 839.02,741.72 839.02,725.3 839.02,696.03 800.14,696.03 		"/>
	</g>
	<g id="_x30_0.26.14" class="st0">
		<polygon class="st1" points="876.3,673.25 801.36,673.25 801.36,693.59 841.46,693.59 841.46,724.19 845.56,724.19 861.46,724.19 
			861.46,725.41 880.29,725.41 880.29,724.19 900.47,724.19 900.47,683.5 892.4,683.5 892.4,673.25 		"/>
	</g>
	<g id="_x30_0.26.19" class="st0">
		<polygon class="st1" points="900.47,726.63 880.29,726.63 880.29,725.41 861.46,725.41 861.46,726.63 846.67,726.63 
			846.67,795.26 866.84,795.26 866.84,791.18 887.69,791.18 887.69,785.38 900.47,785.38 900.47,781.83 900.47,772.52 
			887.69,772.52 887.69,770.08 900.47,770.08 900.47,757.22 887.69,757.22 887.69,754.79 900.47,754.79 900.47,741.92 
			887.69,741.92 887.69,739.49 900.47,739.49 		"/>
	</g>
	<g id="_x30_0.26.08" class="st0">
		<polygon class="st1" points="783.33,511.01 782.11,511.01 782.11,531.19 849.7,531.19 849.7,511.01 836.41,511.01 831.75,511.01 
			831.75,495.04 783.52,495.04 783.33,495.04 		"/>
	</g>
	<g id="_x30_0.26.03" class="st0">
		<polygon class="st1" points="876.3,531.19 900.47,531.19 900.47,431.96 849.7,431.96 849.7,468.65 872.31,468.65 872.31,471.09 
			849.7,471.09 849.7,495.71 844.77,495.71 837.13,495.71 837.13,508.58 849.7,508.58 849.7,531.19 869.87,531.19 869.87,491.26 
			872.31,491.26 872.31,531.19 875.57,531.19 875.59,531.19 		"/>
	</g>
	<g id="_x30_0.26.20" class="st0">
		<polygon class="st1" points="783.33,744.16 783.33,780.53 783.33,781.83 783.33,796.69 839.02,796.69 839.02,744.16 		"/>
	</g>
	<g id="_x30_0.23.11" class="st0">
		<polygon class="st1" points="1310.22,745.69 1310.22,790.11 1310.22,796.69 1355.06,796.69 1355.06,741.61 1355.06,686.3 
			1355.06,685 1355.06,662.07 1334.15,662.07 1311.9,662.07 1311.9,743.66 1311.9,744.4 1310.22,744.4 		"/>
	</g>
	<g id="_x30_0.22.02" class="st0">
		<polygon class="st1" points="1480.4,597.51 1396.08,597.51 1393.73,597.51 1335.43,597.51 1335.43,659.5 1356.34,659.5 
			1506.08,659.5 		"/>
	</g>
	<g id="_x30_0.23.01" class="st0">
		<polygon class="st1" points="1238.6,659.5 1252.74,659.5 1275.31,659.5 1309.33,659.5 1309.33,619.03 1238.6,619.03 		"/>
	</g>
	<g id="_x30_0.23.07" class="st0">
		<polygon class="st1" points="1276.59,737.11 1276.59,744.4 1309.33,744.4 1309.33,662.07 1276.59,662.07 1276.59,726.69 		"/>
	</g>
	<g id="_x30_0.25.05" class="st0">
		<polygon class="st1" points="866.84,838.13 866.84,896.76 872.65,896.76 876.93,896.76 897.9,896.76 897.9,838.13 		"/>
	</g>
	<g id="_x30_0.28.19" class="st0">
		<polygon class="st1" points="278.3,736.8 278.3,753.25 285.77,753.25 295.49,753.25 295.49,736.8 286.83,736.8 		"/>
	</g>
	<g id="_x30_0.23.16" class="st0">
		<polygon class="st1" points="1270.67,1011.34 1286.81,1011.34 1286.81,966.07 1302.36,966.07 1302.36,920.45 1302.36,886.76 
			1288.09,886.76 1286.81,886.76 1286.66,886.76 1286.06,886.76 1270.67,886.76 		"/>
	</g>
	<g id="_x30_0.23.17" class="st0">
		<rect x="1304.92" y="886.76" class="st1" width="34.25" height="32.4"/>
	</g>
	<g id="_x30_0.28.04" class="st0">
		<polygon class="st1" points="500.83,549.76 500.83,532.41 501.21,532.41 501.21,530.38 501.21,511.01 501.21,491.8 501.21,475.42 
			501.21,473.4 500.83,473.4 500.83,448.1 480.4,448.1 480.4,548.67 480.4,549.76 		"/>
	</g>
	<g id="_x30_0.28.05" class="st0">
		<polygon class="st1" points="456.51,548.67 476.81,548.67 476.81,448.1 456.51,448.1 456.51,475.73 456.51,527.41 		"/>
	</g>
	<g id="_x30_0.26.06" class="st0">
		<polygon class="st1" points="737.6,532.41 737.6,549.76 757.9,549.76 757.9,448.1 737.6,448.1 737.6,471.09 736.8,471.09 
			736.8,475.42 736.8,491.8 736.8,493.82 737.6,493.82 737.6,511.01 737.6,530.38 		"/>
	</g>
	<g id="_x30_0.26.05" class="st0">
		<polygon class="st1" points="780.89,549.76 780.89,532.41 782.11,532.41 782.11,511.01 780.89,511.01 780.89,493.82 
			781.69,493.82 781.69,491.8 781.69,475.42 781.69,473.4 780.89,473.4 780.89,448.1 760.47,448.1 760.47,549.76 		"/>
	</g>
	<g id="_x30_0.28.17" class="st0">
		<polygon class="st1" points="551.37,796.69 551.37,796.67 551.37,748.02 551.37,736.82 550.56,736.82 502.26,736.82 
			502.24,736.82 502.24,780.53 502.24,781.83 502.24,796.69 		"/>
	</g>
	<g id="_x30_0.26.07" class="st0">
		<polygon class="st1" points="686.03,492.6 736.8,492.6 736.8,474.11 731.21,474.11 731.21,431.96 678.76,431.96 678.76,492.6 		
			"/>
	</g>
	<g id="_x30_0.28.03" class="st0">
		<polygon class="st1" points="501.21,531.19 567.61,531.19 567.61,511.01 554.33,511.01 551.68,511.01 551.68,495.04 
			503.27,495.04 503.27,511.01 501.21,511.01 		"/>
	</g>
	<g id="_x30_0.26.04" class="st0">
		<polygon class="st1" points="781.69,492.6 832.46,492.6 841.63,492.6 841.63,431.96 787.49,431.96 787.49,474.11 781.69,474.11 		
			"/>
	</g>
	<g id="_x30_0.23.15" class="st0">
		<polygon class="st1" points="1339.17,884.2 1339.17,848.22 1289.37,848.22 1289.37,884.2 1303.64,884.2 		"/>
	</g>
	<g id="_x30_0.24.06" class="st0">
		<polygon class="st1" points="1053.12,1011.34 1110.41,1011.34 1110.41,912.1 1079.41,912.1 1032.15,912.1 1032.15,931.04 
			1032.15,932.87 1032.15,943.16 1053.12,943.16 		"/>
	</g>
	<g id="_x30_0.23.08" class="st0">
		<polygon class="st1" points="1251.46,662.07 1238.6,662.07 1238.6,725.41 1274.03,725.41 1274.03,662.07 1254.02,662.07 
			1254.02,674.85 1251.46,674.85 		"/>
	</g>
	<g id="_x30_0.23.03" class="st0">
		<rect x="1238.6" y="597.51" class="st1" width="70.74" height="18.96"/>
	</g>
	<g id="_x30_0.27.11" class="st0">
		<polygon class="st1" points="595.29,880.16 595.29,838.13 564.1,838.13 564.1,842.12 564.1,862.34 573.77,862.34 573.77,863.98 
			562.46,863.98 562.46,842.84 527.58,842.84 527.58,880.16 		"/>
	</g>
	<g id="_x30_0.27.14" class="st0">
		<polygon class="st1" points="597.9,1010.66 597.9,906.58 597.9,906.56 553.47,906.56 553.47,910.57 553.47,999.34 553.47,1010.66 
					"/>
	</g>
	<g id="LWPOLYLINE_104_" class="st0">
		<polygon class="st1" points="457.35,624.03 457.35,637.4 476.81,637.4 476.81,624.05 476.81,624.03 		"/>
	</g>
	<g id="_x30_0.28.10" class="st0">
		<polygon class="st1" points="500.6,624.03 479.37,624.03 479.37,636.89 500.41,636.89 500.6,636.89 		"/>
	</g>
	<g id="_x30_0.26.13" class="st0">
		<polygon class="st1" points="736.8,636.89 736.99,636.89 757.9,636.89 757.9,624.03 736.8,624.03 		"/>
	</g>
	<g id="_x30_0.26.12" class="st0">
		<polygon class="st1" points="781.69,636.89 781.69,624.03 760.47,624.03 760.47,636.89 781.51,636.89 		"/>
	</g>
	<g id="_x30_0.28.01" class="st0">
		<polygon class="st1" points="396.2,254.55 381.85,289.19 371.51,314.15 369.65,313.38 357.96,342.57 363.03,344.68 363.03,385.01 
			368.88,385.01 368.88,397.79 494.29,397.79 494.29,385.68 494.29,382.63 494.29,254.55 		"/>
	</g>
	<g id="_x30_0.23.09" class="st0">
		<rect x="1356.7" y="686.28" class="st1" width="37.03" height="54.51"/>
	</g>
	<g id="_x30_0.23.10" class="st0">
		<polygon class="st1" points="1356.7,742.43 1356.7,796.69 1383.31,796.69 1383.31,787.95 1393.73,787.95 1393.73,742.43 		"/>
	</g>
	<g id="_x30_0.28.25" class="st0">
		<polygon class="st1" points="430.83,1010.66 430.83,1002.59 388.42,1002.59 388.42,1003.16 388.42,1010.66 		"/>
	</g>
	<g id="_x30_0.29.06" class="st0">
		<polygon class="st1" points="191.68,964.09 191.68,1011.76 386.78,1011.76 386.78,1003.69 358.45,1003.69 358.45,1011.76 
			328.74,1011.76 328.74,1011.71 233.37,1011.71 233.37,964.09 213.32,964.09 		"/>
	</g>
	<g id="_x30_0.29.07" class="st0">
		<polygon class="st1" points="294.49,771.68 319.5,796.69 329.12,796.69 329.12,790.22 329.12,736.8 315.73,736.8 301.23,736.8 
			297.93,736.8 297.93,754.37 297.93,767.58 297.93,768.24 297.18,768.99 		"/>
	</g>
	<g id="_x30_0.29.08" class="st0">
		<polygon class="st1" points="299.82,485.71 299.82,544.68 322.1,544.68 322.1,542.66 322.1,485.71 		"/>
	</g>
	<g id="_x30_0.23.19" class="st0">
		<rect x="1304.92" y="921.73" class="st1" width="34.25" height="44.34"/>
	</g>
	<g id="_x30_0.27.08B" class="st0">
		<rect x="553.81" y="749.24" class="st1" width="63.55" height="47.45"/>
	</g>
	<g id="_x30_0.27.07B" class="st0">
		<rect x="619.92" y="749.24" class="st1" width="63.74" height="47.45"/>
	</g>
	<g id="_x30_0.43.06" class="st0">
		<polygon class="st1" points="1222.37,789.84 1222.37,750.71 1183.92,750.71 1183.92,796.69 1212.83,796.69 1212.83,789.84 		"/>
	</g>
	<g id="LINE_7_" class="st0">
		<line class="st3" x1="261.37" y1="432.45" x2="280.6" y2="386.02"/>
	</g>
	<g id="LINE_8_" class="st0">
		<line class="st3" x1="280.6" y1="386.02" x2="285.34" y2="374.58"/>
	</g>
	<g id="LINE_9_" class="st0">
		<line class="st3" x1="285.34" y1="374.58" x2="326.7" y2="274.72"/>
	</g>
	<g id="LINE_10_" class="st0">
		<line class="st3" x1="326.7" y1="274.72" x2="386.45" y2="130.48"/>
	</g>
	<g id="LWPOLYLINE_120_" class="st0">
		<rect x="848.04" y="368.65" class="st3" width="10.74" height="2.02"/>
	</g>
	<g id="_x30_0.27.16" class="st0">
		<polygon class="st1" points="405.39,232.36 398.13,249.9 397.26,251.98 496.86,251.98 496.86,382.65 541.37,382.65 541.37,397.79 
			601.89,397.79 601.89,388.03 601.89,385.66 601.89,232.36 		"/>
	</g>
	<g id="_x30_0.28.08B" class="st0">
		<polygon class="st1" points="398.38,499.92 395.94,499.92 395.94,486.76 324.66,486.76 324.66,541.95 395.94,541.95 
			395.94,520.09 398.38,520.09 		"/>
	</g>
	<g id="_x30_0.27.04" class="st0">
		<polygon class="st1" points="707.85,628.44 707.85,575.99 700.07,575.99 700.07,567.54 685.07,567.54 685.07,636.89 
			700.07,636.89 700.07,628.44 		"/>
	</g>
	<g id="_x30_0.27.06" class="st0">
		<polygon class="st1" points="529.49,575.99 529.49,628.44 537.27,628.44 537.27,636.89 552.27,636.89 552.27,567.54 
			537.27,567.54 537.27,575.99 		"/>
	</g>
	<rect id="_x30_0.26.11" x="812.67" y="567.54" class="st2" width="17.57" height="69.35"/>
	<g id="S-GRID">
		<g id="LINE_30_">
			<line class="st5" x1="874.91" y1="47.09" x2="874.91" y2="1063.86"/>
		</g>
		<g id="LINE_31_">
			<line class="st5" x1="1045.72" y1="47.09" x2="1045.72" y2="1063.86"/>
		</g>
		<g id="LINE_32_">
			<line class="st5" x1="1216.53" y1="47.09" x2="1216.53" y2="1063.86"/>
		</g>
		<g id="LINE_33_">
			<line class="st5" x1="1431.12" y1="97.52" x2="1783.66" y2="97.52"/>
		</g>
		<g id="LINE_34_">
			<line class="st5" x1="704.11" y1="47.09" x2="704.11" y2="1063.86"/>
		</g>
		<g id="LINE_35_">
			<line class="st5" x1="533.3" y1="47.09" x2="533.3" y2="1063.86"/>
		</g>
		<g id="LINE_36_">
			<line class="st5" x1="356.1" y1="16.14" x2="356.1" y2="73.97"/>
		</g>
		<g id="LINE_37_">
			<line class="st5" x1="356.1" y1="73.97" x2="394.11" y2="111.98"/>
		</g>
		<g id="LINE_38_">
			<line class="st5" x1="394.11" y1="111.98" x2="1355.72" y2="111.98"/>
		</g>
		<g id="LINE_39_">
			<line class="st5" x1="1355.72" y1="111.98" x2="1393.73" y2="73.97"/>
		</g>
		<g id="LINE_40_">
			<line class="st5" x1="1393.73" y1="73.97" x2="1393.73" y2="16.14"/>
		</g>
		<g id="LINE_41_">
			<line class="st5" x1="1387.34" y1="188.33" x2="1387.34" y2="1063.86"/>
		</g>
		<g id="LINE_42_">
			<line class="st5" x1="362.49" y1="188.33" x2="362.49" y2="1063.86"/>
		</g>
		<g id="LINE_43_">
			<line class="st5" x1="318.71" y1="89.46" x2="133.37" y2="89.46"/>
		</g>
		<g id="LINE_44_">
			<line class="st5" x1="1328.84" y1="47.09" x2="1743.91" y2="1049.18"/>
		</g>
		<g id="LINE_45_">
			<line class="st5" x1="1437.78" y1="310.1" x2="1783.66" y2="655.98"/>
		</g>
		<g id="LINE_46_">
			<line class="st5" x1="1591.84" y1="156.03" x2="1783.66" y2="347.84"/>
		</g>
		<g id="LINE_47_">
			<line class="st5" x1="1328.84" y1="47.09" x2="1783.66" y2="235.48"/>
		</g>
		<g id="LINE_48_">
			<line class="st5" x1="1558.15" y1="549.76" x2="1558.15" y2="1063.86"/>
		</g>
		<g id="LINE_49_">
			<line class="st5" x1="1728.96" y1="549.76" x2="1728.96" y2="1063.86"/>
		</g>
		<g id="LINE_50_">
			<line class="st5" x1="420.99" y1="47.09" x2="133.37" y2="741.48"/>
		</g>
		<g id="LINE_51_">
			<line class="st5" x1="335.01" y1="253.86" x2="133.37" y2="455.49"/>
		</g>
		<g id="LINE_52_">
			<line class="st5" x1="214.23" y1="133.08" x2="133.37" y2="213.93"/>
		</g>
		<g id="LINE_53_">
			<line class="st5" x1="420.99" y1="47.09" x2="133.37" y2="166.23"/>
		</g>
		<g id="LINE_54_">
			<line class="st5" x1="191.68" y1="549.76" x2="191.68" y2="1063.86"/>
		</g>
		<g id="LINE_55_">
			<line class="st5" x1="1783.66" y1="632.48" x2="133.37" y2="632.48"/>
		</g>
		<g id="LINE_56_">
			<line class="st5" x1="1783.66" y1="346.43" x2="1558.13" y2="571.96"/>
		</g>
		<g id="LINE_57_">
			<line class="st5" x1="1558.13" y1="571.96" x2="191.7" y2="571.96"/>
		</g>
		<g id="LINE_58_">
			<line class="st5" x1="191.7" y1="571.96" x2="133.37" y2="513.63"/>
		</g>
		<g id="LINE_59_">
			<line class="st5" x1="1676.17" y1="16.14" x2="1676.17" y2="190.96"/>
		</g>
		<g id="LINE_60_">
			<line class="st5" x1="1676.17" y1="190.96" x2="1472.71" y2="394.42"/>
		</g>
		<g id="LINE_61_">
			<line class="st5" x1="1472.71" y1="394.42" x2="277.12" y2="394.42"/>
		</g>
		<g id="LINE_62_">
			<line class="st5" x1="277.12" y1="394.42" x2="133.37" y2="250.67"/>
		</g>
		<g id="LINE_63_">
			<line class="st5" x1="133.37" y1="793.87" x2="1783.66" y2="793.87"/>
		</g>
		<g id="LINE_64_">
			<line class="st5" x1="133.37" y1="1008.39" x2="1783.66" y2="1008.39"/>
		</g>
		<g id="LINE_65_">
			<line class="st5" x1="333.83" y1="160.11" x2="362.36" y2="188.65"/>
		</g>
		<g id="LINE_66_">
			<line class="st5" x1="362.36" y1="188.65" x2="1387.47" y2="188.65"/>
		</g>
		<g id="LINE_67_">
			<line class="st5" x1="1387.47" y1="188.65" x2="1411.34" y2="164.77"/>
		</g>
		<g id="LINE_68_">
			<line class="st5" x1="308.15" y1="248.56" x2="328.93" y2="269.34"/>
		</g>
		<g id="LINE_69_">
			<line class="st5" x1="328.93" y1="269.34" x2="1420.9" y2="269.34"/>
		</g>
		<g id="LINE_70_">
			<line class="st5" x1="1420.9" y1="269.34" x2="1442.95" y2="247.29"/>
		</g>
		<g id="LINE_71_">
			<line class="st5" x1="1500.27" y1="382.58" x2="1576.27" y2="458.57"/>
		</g>
		<g id="LINE_72_">
			<line class="st5" x1="1664.32" y1="218.53" x2="1740.32" y2="294.52"/>
		</g>
		<g id="LINE_73_">
			<line class="st5" x1="1499.83" y1="410.09" x2="1690.61" y2="219.32"/>
		</g>
		<g id="LINE_74_">
			<line class="st5" x1="1716.76" y1="245.47" x2="1525.98" y2="436.25"/>
		</g>
	</g>
	<g>
		<g id="Circles">
			<g id="CIRCLE_31_">
				<circle class="st6" cx="1520.28" cy="441.95" r="8.07"/>
			</g>
			<g id="CIRCLE_30_">
				<circle class="st6" cx="1696.32" cy="213.61" r="8.07"/>
			</g>
			<g id="CIRCLE_29_">
				<circle class="st6" cx="1746.02" cy="300.23" r="8.07"/>
			</g>
			<g id="CIRCLE_28_">
				<circle class="st6" cx="1581.97" cy="464.28" r="8.07"/>
			</g>
			<g id="CIRCLE_26_">
				<circle class="st6" cx="1417.05" cy="159.07" r="8.07"/>
			</g>
			<g id="CIRCLE_27_">
				<circle class="st6" cx="1448.66" cy="241.58" r="8.07"/>
			</g>
			<g id="CIRCLE_25_">
				<circle class="st6" cx="1791.73" cy="1008.39" r="8.07"/>
			</g>
			<g id="CIRCLE_24_">
				<circle class="st6" cx="1791.73" cy="793.87" r="8.07"/>
			</g>
			<g id="CIRCLE_23_">
				<circle class="st6" cx="127.66" cy="244.96" r="8.07"/>
			</g>
			<g id="CIRCLE_22_">
				<circle class="st6" cx="127.66" cy="507.92" r="8.07"/>
			</g>
			<g id="CIRCLE_17_">
				<circle class="st6" cx="127.66" cy="461.2" r="8.07"/>
			</g>
			<g id="CIRCLE_21_">
				<circle class="st6" cx="125.3" cy="632.48" r="8.07"/>
			</g>
			<g id="CIRCLE_20_">
				<circle class="st6" cx="191.68" cy="1071.93" r="8.07"/>
			</g>
			<g id="CIRCLE_19_">
				<circle class="st6" cx="125.91" cy="169.32" r="8.07"/>
			</g>
			<g id="CIRCLE_18_">
				<circle class="st6" cx="127.66" cy="219.64" r="8.07"/>
			</g>
			<g id="CIRCLE_16_">
				<circle class="st6" cx="130.28" cy="748.93" r="8.07"/>
			</g>
			<g id="CIRCLE_15_">
				<circle class="st6" cx="1728.96" cy="1071.93" r="8.07"/>
			</g>
			<g id="CIRCLE_14_">
				<circle class="st6" cx="1558.15" cy="1071.93" r="8.07"/>
			</g>
			<g id="CIRCLE_13_">
				<circle class="st6" cx="1791.11" cy="238.57" r="8.07"/>
			</g>
			<g id="CIRCLE_12_">
				<circle class="st6" cx="1789.36" cy="353.55" r="8.07"/>
			</g>
			<g id="CIRCLE_11_">
				<circle class="st6" cx="1789.36" cy="661.68" r="8.07"/>
			</g>
			<g id="CIRCLE_10_">
				<circle class="st6" cx="1761.47" cy="1067.84" r="8.07"/>
			</g>
			<g id="CIRCLE_9_">
				<circle class="st6" cx="125.3" cy="89.46" r="8.07"/>
			</g>
			<g id="CIRCLE_8_">
				<circle class="st6" cx="362.49" cy="1071.93" r="8.07"/>
			</g>
			<g id="CIRCLE_7_">
				<circle class="st6" cx="1387.34" cy="1071.93" r="8.07"/>
			</g>
			<g id="CIRCLE_6_">
				<circle class="st6" cx="1393.73" cy="8.07" r="8.07"/>
			</g>
			<g id="CIRCLE_5_">
				<circle class="st6" cx="533.3" cy="1071.93" r="8.07"/>
			</g>
			<g id="CIRCLE_4_">
				<circle class="st6" cx="704.11" cy="1071.93" r="8.07"/>
			</g>
			<g id="CIRCLE_3_">
				<circle class="st6" cx="1791.73" cy="97.52" r="8.07"/>
			</g>
			<g id="CIRCLE_2_">
				<circle class="st6" cx="1216.53" cy="1071.93" r="8.07"/>
			</g>
			<g id="CIRCLE_1_">
				<circle class="st6" cx="1045.72" cy="1071.93" r="8.07"/>
			</g>
			<g id="CIRCLE">
				<circle class="st6" cx="874.91" cy="1071.93" r="8.07"/>
			</g>
		</g>
		<g id="Numbers">
			<g id="MTEXT_26_">
				<text transform="matrix(1 0 0 1 1410.6365 161.987)" class="st7 st8">A.3</text>
			</g>
			<g id="MTEXT_31_">
				<text transform="matrix(1 0 0 1 1513.2969 444.8284)" class="st7 st8">B.4</text>
			</g>
			<g id="MTEXT_30_">
				<text transform="matrix(1 0 0 1 1689.2856 216.5289)" class="st7 st8">B.2</text>
			</g>
			<g id="MTEXT_28_">
				<text transform="matrix(1 0 0 1 1573.4233 467.1507)" class="st7 st8">20.7</text>
			</g>
			<g id="MTEXT_29_">
				<text transform="matrix(1 0 0 1 1737.4751 303.099)" class="st7 st8">20.3</text>
			</g>
			<g id="MTEXT_25_">
				<text transform="matrix(1 0 0 1 1789.2804 1011.2884)" class="st7 st8">J</text>
			</g>
			<g id="MTEXT_27_">
				<text transform="matrix(1 0 0 1 1442.2485 244.4979)" class="st7 st8">A.6</text>
			</g>
			<g id="MTEXT_24_">
				<text transform="matrix(1 0 0 1 1787.9026 796.7687)" class="st7 st8">H</text>
			</g>
			<g id="MTEXT_23_">
				<text transform="matrix(1 0 0 1 124.2056 247.8835)" class="st7 st8">B</text>
			</g>
			<g id="MTEXT_22_">
				<text transform="matrix(1 0 0 1 124.1496 510.8418)" class="st7 st8">C</text>
			</g>
			<g id="MTEXT_21_">
				<text transform="matrix(1 0 0 1 121.5656 635.3776)" class="st7 st8">D</text>
			</g>
			<g id="MTEXT_20_">
				<text transform="matrix(1 0 0 1 186.5722 1074.7941)" class="st7 st8">30</text>
			</g>
			<g id="MTEXT_19_">
				<text transform="matrix(1 0 0 1 120.8358 172.2008)" class="st7 st8">32</text>
			</g>
			<g id="MTEXT_18_">
				<text transform="matrix(1 0 0 1 119.052 222.5143)" class="st7 st8">31.6</text>
			</g>
			<g id="MTEXT_17_">
				<text transform="matrix(1 0 0 1 119.052 464.0745)" class="st7 st8">31.4</text>
			</g>
			<g id="MTEXT_16_">
				<text transform="matrix(1 0 0 1 125.1862 751.7986)" class="st7 st8">31</text>
			</g>
			<g id="MTEXT_15_">
				<text transform="matrix(1 0 0 1 1723.9591 1074.7941)" class="st7 st8">21</text>
			</g>
			<g id="MTEXT_14_">
				<text transform="matrix(1 0 0 1 1553.1503 1074.7941)" class="st7 st8">22</text>
			</g>
			<g id="MTEXT_13_">
				<text transform="matrix(1 0 0 1 1781.882 241.4531)" class="st7 st8">19.5</text>
			</g>
			<g id="MTEXT_12_">
				<text transform="matrix(1 0 0 1 1780.8132 356.423)" class="st7 st8">20.4</text>
			</g>
			<g id="MTEXT_11_">
				<text transform="matrix(1 0 0 1 1780.8132 664.5548)" class="st7 st8">20.6</text>
			</g>
			<g id="MTEXT_10_">
				<text transform="matrix(1 0 0 1 1752.9359 1070.7063)" class="st7 st8">21.5</text>
			</g>
			<g id="MTEXT_9_">
				<text transform="matrix(1 0 0 1 120.2234 92.3533)" class="st7 st8">34</text>
			</g>
			<g id="MTEXT_8_">
				<text transform="matrix(1 0 0 1 357.4884 1074.7941)" class="st7 st8">29</text>
			</g>
			<g id="MTEXT_7_">
				<text transform="matrix(1 0 0 1 1382.3414 1074.7941)" class="st7 st8">23</text>
			</g>
			<g id="MTEXT_6_">
				<text transform="matrix(1 0 0 1 1390.8682 10.999)" class="st7 st8">A</text>
			</g>
			<g id="MTEXT_5_">
				<text transform="matrix(1 0 0 1 528.2972 1074.7941)" class="st7 st8">28</text>
			</g>
			<g id="MTEXT_4_">
				<text transform="matrix(1 0 0 1 699.1061 1074.7941)" class="st7 st8">27</text>
			</g>
			<g id="MTEXT_3_">
				<text transform="matrix(1 0 0 1 1786.0197 100.42)" class="st7 st8">18</text>
			</g>
			<g id="MTEXT_2_">
				<text transform="matrix(1 0 0 1 1211.5326 1074.7941)" class="st7 st8">24</text>
			</g>
			<g id="MTEXT_1_">
				<text transform="matrix(1 0 0 1 1040.7238 1074.7941)" class="st7 st8">25</text>
			</g>
			<g id="MTEXT">
				<text transform="matrix(1 0 0 1 869.9149 1074.7941)" class="st7 st8">26</text>
			</g>
		</g>
	</g>
	<g id="_x30_" class="st9">
		<g id="LINE_25_" class="st10">
			<line class="st3" x1="1324.35" y1="396.67" x2="1325.22" y2="395.81"/>
		</g>
		<g id="LINE_26_" class="st10">
			<line class="st3" x1="1325.22" y1="395.81" x2="1323.69" y2="394.28"/>
		</g>
		<g id="LINE_27_" class="st10">
			<line class="st3" x1="1323.69" y1="394.28" x2="1324.16" y2="394.75"/>
		</g>
	</g>
</g>
<g id="Layer_7">
	<g id="_x30_0.27.10_2_" class="st0">
		<rect x="597.73" y="838.13" class="st1" width="64.01" height="42.03"/>
	</g>
</g>
</svg>
