<?xml version="1.0" encoding="utf-8"?>
<!-- Generator: Adobe Illustrator 25.2.3, SVG Export Plug-In . SVG Version: 6.00 Build 0)  -->
<svg version="1.1" xmlns="http://www.w3.org/2000/svg" xmlns:xlink="http://www.w3.org/1999/xlink" x="0px" y="0px"
	 viewBox="0 0 1920 1080" style="enable-background:new 0 0 1920 1080;" xml:space="preserve">
<style type="text/css">
	.st0{fill:none;stroke:#FF0000;stroke-width:0.2551;stroke-linecap:round;stroke-linejoin:round;stroke-miterlimit:10;}
	.st1{stroke:#FF0000;stroke-width:0.2551;stroke-linecap:round;stroke-linejoin:round;stroke-miterlimit:10;}
	.st2{display:none;}
	.st3{display:inline;}
	.st4{fill:none;stroke:#00FF00;stroke-width:0.5669;stroke-linecap:round;stroke-linejoin:round;stroke-miterlimit:10;}
	.st5{fill:none;stroke:#000000;stroke-width:0.2551;stroke-linecap:round;stroke-linejoin:round;stroke-miterlimit:10;}
	.st6{fill:#FF0000;}
	.st7{font-family:'ArialMT';}
	.st8{font-size:2.1186px;}
	
		.st9{fill:none;stroke:#FF0000;stroke-width:0.2551;stroke-linecap:round;stroke-linejoin:round;stroke-miterlimit:10;stroke-dasharray:0.0417,0.0104,0.0104,0.0104;}
</style>
<g id="A-AREA-BNDY">
	<g id="LWPOLYLINE">
		<polygon class="st0" points="1029.03,545.66 1047.19,545.66 1047.19,551.31 1047.19,561.66 1052.39,561.66 1052.39,545.66 
			1067.47,545.66 1067.47,535.64 1067.47,525.64 1067.47,513.42 1067.47,512.07 1063.36,512.07 1057.08,505.79 1045.51,505.79 
			1029.03,505.79 1029.03,533.31 		"/>
	</g>
	<g id="LWPOLYLINE_1_">
		<polygon class="st1" points="1068.11,595.66 1088.47,595.66 1088.47,585.08 1098.89,585.08 1104.12,582.91 1095.58,562.29 
			1058.53,562.29 1058.53,567.66 1068.11,567.66 1068.11,582.01 1068.11,593.67 		"/>
	</g>
	<g id="LWPOLYLINE_2_">
		<polygon class="st0" points="939.07,628.7 939.07,629.65 939.07,640.85 939.07,641.35 939.07,645.45 939.57,645.45 939.57,648.6 
			944.07,648.6 944.07,637.98 944.67,637.98 944.67,648.6 969,648.6 969,631.98 944.68,631.98 944.07,631.98 944.07,621.36 
			939.57,621.36 939.57,624.51 939.07,624.51 		"/>
	</g>
	<g id="LWPOLYLINE_3_">
		<polygon class="st0" points="859.35,538.46 859.35,556.46 855.09,556.46 852.86,556.46 852.86,554.09 852.86,540.83 852.86,540.7 
			852.86,538.46 854.96,538.46 855.09,538.46 		"/>
	</g>
	<g id="LWPOLYLINE_4_">
		<polygon class="st0" points="846.53,560.96 846.53,564.46 859.01,564.46 862.7,564.46 866.29,564.46 869.2,564.46 869.2,562.46 
			875.06,562.46 875.06,532.46 869.2,532.46 869.2,530.46 867.76,530.46 862.47,530.46 846.53,530.46 846.53,534.46 840.86,534.46 
			840.86,552.46 846.53,552.46 846.53,556.26 846.53,556.76 		"/>
	</g>
	<g id="LWPOLYLINE_5_">
		<rect x="810.97" y="554.17" class="st0" width="1.83" height="1.58"/>
	</g>
	<g id="LWPOLYLINE_6_">
		<rect x="810.97" y="539.17" class="st0" width="1.83" height="1.58"/>
	</g>
	<g id="LWPOLYLINE_7_">
		<polygon class="st0" points="791.29,558.73 796.89,558.73 796.89,560.73 807.89,560.73 829.39,560.73 829.39,560.58 
			829.39,552.76 830,552.76 830,561.03 840.22,561.03 840.22,556.59 835,556.59 835,552.46 840.22,552.46 840.22,552.46 
			840.22,534.46 840.22,534.19 835.65,534.19 834.69,534.19 820.51,534.19 802.7,534.19 796.89,534.19 796.89,536.19 791.29,536.19 
					"/>
	</g>
	<g id="LWPOLYLINE_8_">
		<rect x="923.06" y="538.46" class="st0" width="5.17" height="18"/>
	</g>
	<g id="LWPOLYLINE_9_">
		<rect x="938.14" y="553.96" class="st0" width="1.5" height="2"/>
	</g>
	<g id="LWPOLYLINE_10_">
		<rect x="938.14" y="538.96" class="st0" width="1.5" height="2"/>
	</g>
	<g id="LWPOLYLINE_11_">
		<polygon class="st0" points="939.06,532.46 939.06,530.46 937.94,530.46 932.64,530.46 916.19,530.46 916.19,534.46 
			910.53,534.46 910.53,552.46 916.19,552.46 916.19,556.26 916.19,556.76 916.19,560.96 916.19,564.46 920.36,564.46 
			939.06,564.46 939.06,562.46 945.22,562.46 945.22,533.31 945.22,532.46 		"/>
	</g>
	<g id="LWPOLYLINE_12_">
		<polygon class="st0" points="897.89,540.83 897.89,554.09 897.89,556.46 895.69,556.46 891.43,556.46 891.43,538.46 
			895.69,538.46 897.89,538.46 		"/>
	</g>
	<g id="LWPOLYLINE_13_">
		<polygon class="st0" points="904.26,564.46 904.26,560.96 904.26,556.76 904.26,556.26 904.26,552.46 909.89,552.46 
			909.89,534.46 904.26,534.46 904.26,530.46 888.28,530.46 883,530.46 881.55,530.46 881.55,532.46 875.69,532.46 875.69,562.46 
			881.55,562.46 881.55,564.46 884.51,564.46 888.1,564.46 891.79,564.46 		"/>
	</g>
	<g id="LWPOLYLINE_14_">
		<polygon class="st0" points="891.49,583.29 891.49,580.52 891.49,565.07 888.3,565.07 888.3,568.23 887.9,568.23 887.9,565.07 
			884.71,565.07 884.71,566.45 884.71,568.18 884.3,568.18 884.3,566.63 881.28,566.63 881.28,565.07 875.69,565.07 875.69,583.29 
					"/>
	</g>
	<g id="LWPOLYLINE_15_">
		<polygon class="st0" points="1003.88,532.99 1028.39,532.99 1028.39,505.26 997.53,505.26 997.53,532.99 		"/>
	</g>
	<g id="LWPOLYLINE_16_">
		<polygon class="st0" points="859.31,580.18 859.31,580.52 859.31,583.29 875.06,583.29 875.06,565.07 869.47,565.07 
			869.47,566.63 866.5,566.63 866.5,568.18 866.09,568.18 866.09,566.45 866.09,565.07 862.9,565.07 862.9,568.23 862.5,568.23 
			862.5,565.07 859.31,565.07 859.31,580.02 		"/>
	</g>
	<g id="LWPOLYLINE_17_">
		<polygon class="st0" points="781.3,606.19 781.3,610.19 775.22,610.19 775.22,636.54 780.5,636.54 780.5,648.4 803.22,648.4 
			803.22,645.02 803.22,641.42 803.22,637.83 803.22,634.15 803.22,630.14 803.22,617.07 803.22,611.57 803.22,606.19 		"/>
	</g>
	<g id="LWPOLYLINE_18_">
		<polygon class="st0" points="975.54,532.99 996.89,532.99 996.89,505.26 945.86,505.26 945.86,530.13 945.86,532.28 
			945.86,532.99 		"/>
	</g>
	<g id="LWPOLYLINE_19_">
		<polygon class="st0" points="769.56,547.09 769.56,585.96 779.89,585.96 779.89,594.35 769.56,594.35 769.56,605.29 
			774.92,605.29 775.56,605.29 775.56,605.93 775.22,605.93 775.22,609.59 780.89,609.59 780.89,605.29 789.14,605.29 
			789.14,522.29 779.83,522.29 		"/>
	</g>
	<g id="LWPOLYLINE_20_">
		<polygon class="st1" points="1003.56,533.63 997.21,533.63 975.86,533.63 975.86,591.98 975.86,595.66 1003.56,595.66 		"/>
	</g>
	<g id="LWPOLYLINE_21_">
		<polygon class="st0" points="1036.39,648.86 1036.97,648.86 1036.97,617.98 1040.97,617.98 1040.97,608.11 1040.97,607.61 
			1040.97,605.38 997.89,605.38 997.89,605.93 989.89,605.93 989.89,623.63 997.89,623.63 997.89,648.86 		"/>
	</g>
	<g id="LWPOLYLINE_22_">
		<polygon class="st0" points="980.89,648.86 982.16,648.86 982.16,632.86 976.96,632.86 976.96,629.86 970.15,629.86 
			970.15,648.86 970.22,648.86 		"/>
	</g>
	<g id="LWPOLYLINE_23_">
		<polygon class="st1" points="1108.95,646.96 1108.95,614.6 1106.06,614.6 1106.06,608.43 1065.22,608.43 1065.22,626.33 
			1065.22,646.96 1067.06,646.96 1067.06,648.86 1107.06,648.86 1107.06,646.96 		"/>
	</g>
	<g id="LWPOLYLINE_24_">
		<polygon class="st0" points="1064.59,648.86 1064.59,647.28 1064.59,626.65 1054.59,626.65 1054.59,638.27 1045.15,638.27 
			1041.61,638.27 1041.61,648.86 		"/>
	</g>
	<g id="LWPOLYLINE_25_">
		<polygon class="st1" points="1025.64,593.64 1025.64,593.71 1037.81,593.71 1037.81,583.02 1037.81,581.21 1028.71,581.21 
			1025.64,581.21 1025.64,583.95 		"/>
	</g>
	<g id="LWPOLYLINE_26_">
		<rect x="1038.44" y="583.34" class="st1" width="7.7" height="10.38"/>
	</g>
	<g id="LWPOLYLINE_27_">
		<polygon class="st0" points="1064.59,608.43 1054.59,608.43 1054.59,617.66 1054.59,626.01 1064.59,626.01 		"/>
	</g>
	<g id="LWPOLYLINE_28_">
		<rect x="945.22" y="605.93" class="st1" width="24.03" height="14.53"/>
	</g>
	<g id="LWPOLYLINE_29_">
		<polygon class="st0" points="835.37,605.93 835.37,616.35 852.2,616.35 852.2,607.1 843.51,607.1 843.51,612.34 840.7,612.34 
			840.7,611.93 843.1,611.93 843.1,606.92 843.1,605.93 		"/>
	</g>
	<g id="LWPOLYLINE_30_">
		<path class="st1" d="M975.22,533.63h-29.36v29.01v2.15v2.64v10.56v3.79v3.79v3.79v2.29h6.33v4h16.7v-4h6.33
			c-0.01-2.73-0.01-7.12-0.02-9.85C975.19,565.75,975.19,549.69,975.22,533.63z"/>
	</g>
	<g id="LWPOLYLINE_31_">
		<rect x="769.56" y="586.6" class="st0" width="9.7" height="7.11"/>
	</g>
	<g id="LWPOLYLINE_32_">
		<polygon class="st0" points="769.56,605.93 769.56,636.54 774.62,636.54 774.62,609.89 774.62,605.93 		"/>
	</g>
	<g id="LWPOLYLINE_33_">
		<polygon class="st1" points="1025.01,583.63 1025.01,580.58 1028.39,580.58 1028.39,578.31 1028.39,561.98 1028.39,551.31 
			1028.39,545.98 1028.39,533.63 1004.19,533.63 1004.19,595.66 1014.84,595.66 1014.84,583.63 		"/>
	</g>
	<g id="LWPOLYLINE_34_">
		<polygon class="st0" points="811.25,480.41 813.2,475.68 813.67,475.88 829.5,436.35 817.49,431.38 816.66,433.38 814.49,438.61 
			812.94,442.36 808.49,453.09 798.48,477.26 790.73,495.96 779.83,522.29 789.14,522.29 789.14,605.29 803.83,605.29 
			803.83,606.06 803.83,611.26 811.22,611.26 811.22,606.11 811.22,605.29 812.03,605.29 835.07,605.29 843.28,605.29 
			852.51,605.29 861.68,605.29 869.89,605.29 886.36,605.29 898.89,605.29 898.89,609.96 904.71,609.96 904.89,609.96 
			904.89,605.29 936.57,605.29 944.91,605.29 969.89,605.29 969.89,620.78 969.89,621.96 969.89,625.29 969.89,628.96 
			977.22,628.96 977.22,624.27 977.22,624.26 977.22,623.95 977.22,605.29 988.56,605.29 988.56,605.38 997.89,605.38 
			1040.97,605.38 1040.97,607.79 1054.27,607.79 1064.91,607.79 1106.06,607.79 1106.06,595.98 1106.06,594.79 1099.72,594.79 
			1099.72,596.29 1088.79,596.29 1067.79,596.29 1065.07,596.29 1058.09,596.29 1046.14,596.29 1046.14,594.35 1038.13,594.35 
			1025.64,594.35 1025.64,594.64 1025.64,596.29 1022.82,596.29 1015.16,596.29 1003.88,596.29 975.22,596.29 975.22,592.29 
			969.53,592.29 969.53,596.29 951.56,596.29 951.56,592.29 945.86,592.29 945.86,593.03 945.86,596.29 937.07,596.29 
			931.62,596.29 930.27,596.29 915.56,596.29 915.56,592.29 910.21,592.29 904.89,592.29 904.89,596.29 891.79,596.29 
			891.49,596.29 891.49,596.29 875.38,596.29 859.31,596.29 859.31,596.29 859.01,596.29 845.89,596.29 845.89,592.29 
			840.54,592.29 835.22,592.29 835.22,596.29 812.71,596.29 803.92,596.29 800.97,596.29 794.38,589.7 791.21,586.53 790.39,585.71 
			790.39,585.17 790.39,580.51 790.39,577.22 790.39,572.84 790.39,561.06 790.39,558.91 790.39,535.29 795.72,535.29 
			795.72,533.52 795.72,518.27 795.72,517.88 795.82,517.65 801.21,504.63 820.49,504.63 824.15,504.63 826.12,504.63 
			834.91,504.63 846.21,504.63 847.3,504.63 860.75,504.63 862.2,504.63 875.38,504.63 888.55,504.63 890,504.63 903.45,504.63 
			904.57,504.63 915.88,504.63 917.05,504.63 930.92,504.63 932.37,504.63 945.54,504.63 997.21,504.63 1028.71,504.63 
			1044.92,504.63 1044.92,497.96 1039.42,497.96 1039.42,494.46 1032.09,494.46 1032.09,497.96 1025.23,497.96 1025.23,498.46 
			1021.89,498.46 1021.89,497.96 982.89,497.96 982.89,498.46 979.56,498.46 979.56,497.96 940.56,497.96 940.56,498.46 
			937.23,498.46 937.23,497.96 898.23,497.96 898.23,498.46 894.89,498.46 894.89,497.96 880.72,497.96 880.72,494.96 
			872.39,494.96 872.39,497.96 855.06,497.96 855.06,494.21 845.72,494.21 845.72,497.96 813.47,497.96 813.47,498.26 
			810.72,498.26 810.72,495.21 811.39,495.21 811.39,493.95 811.39,484.06 810.53,483.7 813.67,475.88 810.1,483.18 		"/>
	</g>
	<g id="LWPOLYLINE_35_">
		<polygon class="st0" points="1051.65,455.79 871.86,455.79 871.86,493.79 881.89,493.79 881.89,496.79 894.89,496.79 
			898.23,496.79 937.23,496.79 940.56,496.79 979.56,496.79 982.89,496.79 1021.89,496.79 1025.23,496.79 1030.92,496.79 
			1030.92,493.29 1040.59,493.29 1040.59,496.79 1045.51,496.79 1045.51,497.33 1048.57,497.33 1061.48,484.42 1062.91,482.99 		"/>
	</g>
	<g id="LWPOLYLINE_36_">
		<polygon class="st0" points="977.86,605.93 977.86,623.63 977.87,623.63 989.26,623.63 989.26,605.93 988.56,605.93 		"/>
	</g>
	<g id="LWPOLYLINE_37_">
		<polygon class="st0" points="1150.93,650.17 1069.27,453.04 1061.12,433.38 1059.93,430.49 1045.15,436.61 1045.15,436.61 
			1050.54,449.63 1052.86,455.22 1052.87,455.25 1052.79,455.29 1064.04,482.44 1064.12,482.41 1064.3,482.85 1065.3,485.27 
			1062.89,486.27 1061.71,485.09 1048.84,497.96 1046.09,497.96 1046.09,504.63 1057.56,504.63 1063.84,510.91 1068.06,510.91 
			1068.73,510.91 1070.81,510.91 1070.81,513.74 1068.64,513.74 1068.64,525.33 1081.31,525.33 1081.31,525.96 1068.64,525.96 
			1068.64,535.33 1085.31,535.33 1085.31,535.96 1068.64,535.96 1068.64,545.13 1089.73,545.13 1096.62,561.75 1105.65,583.54 
			1100.26,585.77 1100.26,593.63 1106.64,593.63 1107.25,593.63 1109.56,593.63 1109.56,596.29 1107.22,596.29 1107.22,608.11 
			1107.22,613.43 1110.56,613.43 1110.56,647.28 1110.56,650.17 		"/>
	</g>
	<g id="LWPOLYLINE_38_">
		<polygon class="st0" points="892.09,595.65 892.09,595.66 904.26,595.66 904.26,591.98 904.26,591.65 904.26,580.82 
			892.09,580.82 892.09,583.6 		"/>
	</g>
	<g id="LWPOLYLINE_39_">
		<polygon class="st0" points="1089.11,595.66 1099.09,595.66 1099.09,594.21 1099.09,585.71 1089.11,585.71 		"/>
	</g>
	<g id="LWPOLYLINE_40_">
		<rect x="950.61" y="628.89" class="st0" width="12" height="0.6"/>
	</g>
	<g id="LWPOLYLINE_41_">
		<polygon class="st0" points="969,625.29 969.26,625.29 969.26,621.96 969,621.96 969,621.36 944.67,621.36 944.67,631.98 
			969,631.98 		"/>
	</g>
	<g id="LWPOLYLINE_42_">
		<polygon class="st0" points="816.83,611.87 811.53,611.87 803.83,611.87 803.83,616.87 808.08,616.87 808.08,617.27 
			803.83,617.27 803.83,629.94 808.08,629.94 808.08,630.35 803.83,630.35 803.83,633.85 808.08,633.85 808.08,634.45 
			803.83,634.45 803.83,637.63 807,637.63 807,638.03 803.83,638.03 803.83,641.22 807,641.22 807,641.63 803.83,641.63 
			803.83,644.82 807,644.82 807,645.22 803.83,645.22 803.83,648.41 810.63,648.41 810.63,646.7 817.91,646.7 817.91,646.49 
			817.91,635.1 812.58,635.1 812.58,633.85 816.83,633.85 816.83,630.35 812.58,630.35 812.58,629.94 816.83,629.94 816.83,617.27 
			812.58,617.27 812.58,616.87 816.83,616.87 		"/>
	</g>
	<g id="LWPOLYLINE_43_">
		<polygon class="st0" points="826.5,611.87 817.43,611.87 817.43,617.07 817.43,630.14 817.43,633.85 818.14,633.85 828.83,633.85 
			828.83,622.59 828.83,617.27 826.67,617.27 822.1,617.27 822.1,616.87 826.5,616.87 826.5,616.37 828.83,616.37 828.83,613.7 
			826.5,613.7 		"/>
	</g>
	<g id="LWPOLYLINE_44_">
		<polygon class="st0" points="828.83,646.28 828.83,634.45 818.32,634.45 818.32,634.92 818.32,646.28 		"/>
	</g>
	<g id="LWPOLYLINE_45_">
		<polygon class="st0" points="811.83,605.93 811.83,611.26 817.13,611.26 826.67,611.26 829.43,611.26 829.43,613.52 
			829.43,616.54 829.43,617.07 829.43,622.28 858.92,622.28 870.54,622.28 870.83,622.28 870.84,622.28 881.14,622.28 
			887.05,622.28 887.05,625.36 888.1,625.36 898.26,625.36 898.26,622.28 898.86,622.28 898.86,625.66 898.86,629.02 904.26,629.02 
			904.26,624.51 904.54,624.41 904.54,621.28 904.54,610.6 898.86,610.6 898.86,616.95 886.36,616.95 869.89,616.95 852.51,616.95 
			834.77,616.95 834.77,605.93 		"/>
	</g>
	<g id="LWPOLYLINE_46_">
		<polygon class="st0" points="829.43,622.89 829.43,634.15 829.43,646.49 829.43,648.69 852.93,648.69 852.93,646.54 
			855.52,646.54 855.52,648.69 858.62,648.69 858.62,645.88 858.81,645.88 858.81,623.88 858.62,623.88 858.62,622.89 		"/>
	</g>
	<g id="LWPOLYLINE_47_">
		<polygon class="st0" points="881.44,648.67 881.44,648.69 886.44,648.69 886.44,648.33 886.44,645.27 886.44,641.35 
			886.44,640.85 886.44,625.63 886.44,622.89 881.44,622.89 881.44,626.58 877.8,626.58 877.8,625.97 880.84,625.97 880.84,622.89 
			870.84,622.89 870.84,648.32 870.84,648.4 880.84,648.4 880.84,632.18 877.8,632.18 877.8,631.58 881.44,631.58 		"/>
	</g>
	<g id="LWPOLYLINE_48_">
		<polygon class="st0" points="888.28,640.42 894.06,640.42 894.06,641.02 899.06,641.02 899.06,640.42 904.94,640.42 
			904.94,629.63 904.71,629.63 903.8,629.63 898.26,629.63 898.26,625.96 888.28,625.96 		"/>
	</g>
	<g id="LWPOLYLINE_49_">
		<polygon class="st0" points="886.44,645.27 887.05,645.27 887.05,648.33 895.3,648.33 895.3,646.19 897.82,646.19 897.82,648.33 
			906.07,648.33 906.07,645.45 906.07,644.95 906.07,641.02 905.5,641.02 905.22,641.02 899.06,641.02 894.06,641.02 888.1,641.02 
			887.92,641.02 886.44,641.02 		"/>
	</g>
	<g id="LWPOLYLINE_50_">
		<polygon class="st0" points="886.66,605.93 886.66,616.35 898.26,616.35 898.26,610.6 898.26,610.28 898.26,605.93 		"/>
	</g>
	<g id="LWPOLYLINE_51_">
		<polygon class="st0" points="939.07,629.02 939.07,624.69 937.65,624.69 937.65,621.36 907.49,621.36 907.49,624.69 
			904.26,624.69 904.26,629.02 905.22,629.02 905.5,629.02 907.49,629.02 907.49,641.02 906.07,641.02 906.07,645.27 907.49,645.27 
			907.49,648.47 907.49,648.69 916.22,648.69 937.65,648.69 937.65,645.27 939.07,645.27 939.07,641.02 937.65,641.02 
			937.65,629.02 		"/>
	</g>
	<g id="LWPOLYLINE_52_">
		<rect x="917.41" y="606.18" class="st0" width="2.05" height="1.83"/>
	</g>
	<g id="LWPOLYLINE_53_">
		<rect x="932.06" y="606.18" class="st0" width="2.05" height="1.83"/>
	</g>
	<g id="LWPOLYLINE_54_">
		<polygon class="st0" points="936.26,620.46 936.26,605.93 905.53,605.93 905.53,610.28 905.53,620.46 906.71,620.46 		"/>
	</g>
	<g id="LWPOLYLINE_55_">
		<rect x="870.19" y="605.93" class="st0" width="15.86" height="10.42"/>
	</g>
	<g id="LWPOLYLINE_56_">
		<polygon class="st0" points="858.94,556.05 858.94,538.87 855.22,538.87 855.22,540.96 853.27,540.96 853.27,553.96 
			855.22,553.96 855.22,556.05 		"/>
	</g>
	<g id="LWPOLYLINE_57_">
		<polygon class="st0" points="834.59,577.95 834.59,567.19 829.69,567.19 819.5,567.19 819.5,577.95 		"/>
	</g>
	<g id="LWPOLYLINE_58_">
		<polygon class="st0" points="829.39,561.34 807.89,561.34 807.89,566.29 807.89,566.79 807.89,572.84 807.89,577.95 
			812.33,577.95 812.62,577.95 818.89,577.95 818.89,566.59 829.39,566.59 829.39,561.49 		"/>
	</g>
	<g id="LWPOLYLINE_59_">
		<polygon class="st0" points="807.89,561.34 796.71,561.34 792.39,561.34 792.39,566.59 796.39,566.59 796.39,566.99 
			792.39,566.99 792.39,572.64 796.39,572.64 796.39,573.04 792.21,573.04 791.03,573.04 791.03,577.04 793.32,577.04 
			793.32,580.21 795.59,580.21 796.51,580.21 796.51,577.04 796.91,577.04 796.91,580.21 800.1,580.21 800.1,577.04 800.51,577.04 
			800.51,580.21 803.69,580.21 803.69,577.04 804.1,577.04 804.1,580.21 807.29,580.21 807.29,578.23 807.29,573.04 806.74,573.04 
			800.39,573.04 800.39,572.64 806.56,572.64 806.56,566.99 800.39,566.99 800.39,566.59 806.74,566.59 807.89,566.59 		"/>
	</g>
	<g id="LWPOLYLINE_60_">
		<polygon class="st0" points="834.59,591.65 834.59,578.55 819.19,578.55 812.89,578.55 812.89,580.82 807.56,580.82 
			807.29,580.82 807.28,580.82 804.22,580.82 804.22,593.88 812.89,593.88 812.89,595.66 834.59,595.66 834.59,591.98 		"/>
	</g>
	<g id="LWPOLYLINE_61_">
		<polygon class="st0" points="826.39,515.91 834.59,515.91 834.59,509.27 834.59,508.95 834.59,505.26 826.39,505.26 826.39,508.2 
					"/>
	</g>
	<g id="LWPOLYLINE_62_">
		<polygon class="st0" points="835.19,566.59 835.19,578.25 835.19,591.66 840.22,591.66 840.22,561.03 830,561.03 830,566.59 		"/>
	</g>
	<g id="LWPOLYLINE_63_">
		<polygon class="st0" points="796.53,517.6 820.18,517.6 820.18,513.93 820.79,513.93 820.79,517.77 820.79,518.57 820.79,522.11 
			825.79,522.11 825.79,516.11 825.79,508.38 823.97,508.38 823.97,505.26 820.79,505.26 820.79,508.93 820.18,508.93 
			820.18,505.26 801.64,505.26 		"/>
	</g>
	<g id="LWPOLYLINE_64_">
		<polygon class="st0" points="834.69,533.59 835.19,533.59 835.19,528.92 834.59,528.92 834.59,516.32 826.39,516.32 
			826.39,522.11 826.39,528.32 829.92,528.32 829.92,528.92 825.79,528.92 825.79,522.11 820.79,522.11 820.79,522.11 
			820.79,527.11 820.79,532.7 820.79,533.59 		"/>
	</g>
	<g id="LWPOLYLINE_65_">
		<polygon class="st0" points="845.92,564.76 845.92,560.96 846.53,560.96 846.53,556.46 840.86,556.46 840.86,561.03 
			840.86,591.66 845.92,591.66 845.92,580.52 845.92,580.22 845.92,580.21 		"/>
	</g>
	<g id="LWPOLYLINE_66_">
		<rect x="846.53" y="565.07" class="st0" width="12.18" height="15.15"/>
	</g>
	<g id="LWPOLYLINE_67_">
		<polygon class="st0" points="846.02,520.29 858.7,520.29 860.47,520.29 860.47,505.26 847.47,505.26 847.47,515.71 846.02,515.71 
					"/>
	</g>
	<g id="LWPOLYLINE_68_">
		<polygon class="st0" points="862.47,529.86 867.45,529.86 867.45,519.96 868.06,519.96 868.06,529.86 869.38,529.86 
			875.06,529.86 875.06,505.26 862.47,505.26 862.47,514.36 868.06,514.36 868.06,514.96 862.47,514.96 862.47,521.07 
			861.25,521.07 859.36,521.07 859.36,524.25 862.47,524.25 		"/>
	</g>
	<g id="LWPOLYLINE_69_">
		<polygon class="st0" points="904.26,560.96 904.86,560.96 904.86,564.76 904.86,580.52 904.86,591.66 909.89,591.66 
			909.89,556.46 904.26,556.46 		"/>
	</g>
	<g id="LWPOLYLINE_70_">
		<polygon class="st0" points="888.28,529.86 904.86,529.86 904.86,524.86 904.26,524.86 904.26,520.9 904.21,520.9 892.26,520.9 
			892.26,524.86 891.57,524.86 888.28,524.86 		"/>
	</g>
	<g id="LWPOLYLINE_71_">
		<polygon class="st0" points="875.69,529.86 881.37,529.86 882.69,529.86 882.69,519.96 883.3,519.96 883.3,529.86 888.28,529.86 
			888.28,524.25 891.39,524.25 891.39,521.07 889.5,521.07 888.28,521.07 888.28,514.96 882.69,514.96 882.69,514.36 888.28,514.36 
			888.28,505.26 875.69,505.26 		"/>
	</g>
	<g id="LWPOLYLINE_72_">
		<rect x="892.09" y="565.07" class="st0" width="12.16" height="15.15"/>
	</g>
	<g id="LWPOLYLINE_73_">
		<rect x="923.46" y="538.87" class="st0" width="4.35" height="17.19"/>
	</g>
	<g id="LWPOLYLINE_74_">
		<polygon class="st0" points="920.06,565.07 915.59,565.07 915.59,560.96 916.19,560.96 916.19,556.46 910.53,556.46 
			910.53,591.66 915.59,591.66 915.59,582.34 915.59,570.11 920.06,570.11 		"/>
	</g>
	<g id="LWPOLYLINE_75_">
		<polygon class="st0" points="916.19,570.71 916.19,582.03 930,582.03 930,577.97 930,570.71 920.36,570.71 		"/>
	</g>
	<g id="LWPOLYLINE_76_">
		<polygon class="st0" points="939.24,565.07 920.66,565.07 920.66,570.11 930.6,570.11 930.6,577.69 931.62,577.69 935.56,577.69 
			935.56,577.99 940.22,577.99 940.22,577.69 945.22,577.69 945.22,567.61 943.22,567.61 943.22,565.07 		"/>
	</g>
	<g id="LWPOLYLINE_77_">
		<polygon class="st0" points="945.22,578.29 940.22,578.29 940.22,577.99 935.56,577.99 935.56,578.29 931.89,578.29 931.89,595.3 
			936.89,595.3 936.89,594.29 942.06,594.29 942.06,592.86 945.22,592.86 945.22,591.98 945.22,589.67 942.06,589.67 942.06,589.07 
			945.22,589.07 945.22,585.88 942.06,585.88 942.06,585.27 945.22,585.27 945.22,582.09 942.06,582.09 942.06,581.48 
			945.22,581.48 		"/>
	</g>
	<g id="LWPOLYLINE_78_">
		<polygon class="st0" points="916.19,524.86 915.89,524.86 915.89,529.86 932.64,529.86 932.64,524.86 929.35,524.86 
			928.19,524.86 928.19,520.9 916.24,520.9 916.19,520.9 		"/>
	</g>
	<g id="LWPOLYLINE_79_">
		<polygon class="st0" points="939.24,529.86 945.22,529.86 945.22,505.26 932.64,505.26 932.64,514.36 938.25,514.36 
			938.25,514.96 932.64,514.96 932.64,521.07 931.42,521.07 929.53,521.07 929.53,524.25 932.64,524.25 932.64,529.86 
			937.64,529.86 937.64,519.96 938.25,519.96 938.25,529.86 939.05,529.86 939.06,529.86 		"/>
	</g>
	<g id="LWPOLYLINE_80_">
		<polygon class="st0" points="916.19,582.64 916.19,591.65 916.19,591.98 916.19,595.66 930,595.66 930,582.64 		"/>
	</g>
	<g id="LWPOLYLINE_81_">
		<polygon class="st1" points="1046.78,583.02 1046.78,594.03 1046.78,595.66 1057.89,595.66 1057.89,582.01 1057.89,568.3 
			1057.89,567.98 1057.89,562.29 1052.71,562.29 1047.19,562.29 1047.19,582.52 1047.19,582.7 1046.78,582.7 		"/>
	</g>
	<g id="LWPOLYLINE_82_">
		<polygon class="st0" points="1088.96,546.29 1068.06,546.29 1067.47,546.29 1053.03,546.29 1053.03,561.66 1058.21,561.66 
			1095.32,561.66 		"/>
	</g>
	<g id="LWPOLYLINE_83_">
		<polygon class="st1" points="1029.03,561.66 1032.53,561.66 1038.13,561.66 1046.56,561.66 1046.56,551.63 1029.03,551.63 		"/>
	</g>
	<g id="LWPOLYLINE_84_">
		<polygon class="st1" points="1038.44,580.89 1038.44,582.7 1046.56,582.7 1046.56,562.29 1038.44,562.29 1038.44,578.31 		"/>
	</g>
	<g id="LWPOLYLINE_85_">
		<polygon class="st1" points="936.89,605.93 936.89,620.46 938.33,620.46 939.39,620.46 944.59,620.46 944.59,605.93 		"/>
	</g>
	<g id="LWPOLYLINE_86_">
		<polygon class="st0" points="791.03,580.82 791.03,584.89 792.88,584.89 795.29,584.89 795.29,580.82 793.14,580.82 		"/>
	</g>
	<g id="LWPOLYLINE_87_">
		<polygon class="st0" points="1036.97,648.86 1040.97,648.86 1040.97,637.64 1044.83,637.64 1044.83,626.33 1044.83,617.98 
			1041.29,617.98 1040.97,617.98 1040.94,617.98 1040.79,617.98 1036.97,617.98 		"/>
	</g>
	<g id="LWPOLYLINE_88_">
		<rect x="1045.46" y="617.98" class="st0" width="8.49" height="8.03"/>
	</g>
	<g id="LWPOLYLINE_89_">
		<polygon class="st0" points="845.92,534.46 845.92,530.16 846.02,530.16 846.02,529.66 846.02,524.86 846.02,520.09 
			846.02,516.04 846.02,515.53 845.92,515.53 845.92,509.26 840.86,509.26 840.86,534.19 840.86,534.46 		"/>
	</g>
	<g id="LWPOLYLINE_90_">
		<polygon class="st0" points="835.19,534.19 840.22,534.19 840.22,509.26 835.19,509.26 835.19,516.11 835.19,528.92 		"/>
	</g>
	<g id="LWPOLYLINE_91_">
		<polygon class="st0" points="904.86,530.16 904.86,534.46 909.89,534.46 909.89,509.26 904.86,509.26 904.86,514.96 
			904.66,514.96 904.66,516.04 904.66,520.09 904.66,520.6 904.86,520.6 904.86,524.86 904.86,529.66 		"/>
	</g>
	<g id="LWPOLYLINE_92_">
		<polygon class="st0" points="915.59,534.46 915.59,530.16 915.89,530.16 915.89,524.86 915.59,524.86 915.59,520.6 915.79,520.6 
			915.79,520.09 915.79,516.04 915.79,515.53 915.59,515.53 915.59,509.26 910.53,509.26 910.53,534.46 		"/>
	</g>
	<g id="LWPOLYLINE_93_">
		<polygon class="st0" points="858.7,595.66 858.7,595.65 858.7,583.6 858.7,580.82 858.5,580.82 846.53,580.82 846.53,580.82 
			846.53,591.65 846.53,591.98 846.53,595.66 		"/>
	</g>
	<g id="LWPOLYLINE_94_">
		<polygon class="st0" points="897.49,553.96 897.49,540.96 895.56,540.96 895.56,538.87 891.84,538.87 891.84,556.05 
			895.56,556.05 895.56,553.96 		"/>
	</g>
	<g id="LWPOLYLINE_95_">
		<polygon class="st0" points="892.08,520.29 904.66,520.29 904.66,515.71 903.28,515.71 903.28,505.26 890.28,505.26 
			890.28,520.29 		"/>
	</g>
	<g id="LWPOLYLINE_96_">
		<polygon class="st0" points="846.02,529.86 862.47,529.86 862.47,524.86 859.18,524.86 858.53,524.86 858.53,520.9 846.53,520.9 
			846.53,524.86 846.02,524.86 		"/>
	</g>
	<g id="LWPOLYLINE_97_">
		<polygon class="st0" points="915.79,520.29 928.37,520.29 930.64,520.29 930.64,505.26 917.22,505.26 917.22,515.71 
			915.79,515.71 		"/>
	</g>
	<g id="LWPOLYLINE_98_">
		<polygon class="st0" points="1053.95,617.35 1053.95,608.43 1041.61,608.43 1041.61,617.35 1045.15,617.35 		"/>
	</g>
	<g id="LWPOLYLINE_99_">
		<polygon class="st0" points="983.06,648.86 997.26,648.86 997.26,624.26 989.57,624.26 977.86,624.26 977.86,628.96 
			977.86,629.41 977.86,631.96 983.06,631.96 		"/>
	</g>
	<g id="LWPOLYLINE_100_">
		<polygon class="st1" points="1032.21,562.29 1029.03,562.29 1029.03,577.99 1037.81,577.99 1037.81,562.29 1032.85,562.29 
			1032.85,565.46 1032.21,565.46 		"/>
	</g>
	<g id="LWPOLYLINE_101_">
		<rect x="1029.03" y="546.29" class="st1" width="17.53" height="4.7"/>
	</g>
	<g id="LWPOLYLINE_102_">
		<polygon class="st0" points="869.59,616.35 869.59,605.93 861.86,605.93 861.86,606.92 861.86,611.93 864.26,611.93 
			864.26,612.34 861.45,612.34 861.45,607.1 852.81,607.1 852.81,616.35 		"/>
	</g>
	<g id="LWPOLYLINE_103_">
		<polygon class="st0" points="870.24,648.69 870.24,622.89 870.24,622.89 859.22,622.89 859.22,623.88 859.22,645.88 
			859.22,648.69 		"/>
	</g>
	<g id="LWPOLYLINE_104_">
		<polygon class="st0" points="835.4,552.87 835.4,556.18 840.22,556.18 840.22,552.87 840.22,552.87 		"/>
	</g>
	<g id="LWPOLYLINE_105_">
		<polygon class="st0" points="846.12,552.87 840.86,552.87 840.86,556.05 846.07,556.05 846.12,556.05 		"/>
	</g>
	<g id="LWPOLYLINE_106_">
		<polygon class="st0" points="904.66,556.05 904.71,556.05 909.89,556.05 909.89,552.87 904.66,552.87 		"/>
	</g>
	<g id="LWPOLYLINE_107_">
		<polygon class="st0" points="915.79,556.05 915.79,552.87 910.53,552.87 910.53,556.05 915.74,556.05 		"/>
	</g>
	<g id="LWPOLYLINE_108_">
		<polygon class="st0" points="820.25,461.29 816.69,469.88 814.13,476.07 813.67,475.88 810.77,483.11 812.03,483.63 
			812.03,493.63 813.47,493.63 813.47,496.79 844.56,496.79 844.56,493.79 844.56,493.04 844.56,461.29 		"/>
	</g>
	<g id="LWPOLYLINE_109_">
		<rect x="1058.3" y="568.29" class="st0" width="9.18" height="13.51"/>
	</g>
	<g id="LWPOLYLINE_110_">
		<polygon class="st0" points="1058.3,582.21 1058.3,595.66 1064.89,595.66 1064.89,593.49 1067.47,593.49 1067.47,582.21 		"/>
	</g>
	<g id="LWPOLYLINE_111_">
		<polygon class="st0" points="828.83,648.69 828.83,646.69 818.32,646.69 818.32,646.83 818.32,648.69 		"/>
	</g>
	<g id="LWPOLYLINE_112_">
		<polygon class="st0" points="769.56,637.15 769.56,648.96 817.91,648.96 817.91,646.96 810.89,646.96 810.89,648.96 
			803.53,648.96 803.53,648.95 779.89,648.95 779.89,637.15 774.92,637.15 		"/>
	</g>
	<g id="LWPOLYLINE_113_">
		<polygon class="st0" points="795.04,589.46 801.24,595.66 803.62,595.66 803.62,594.05 803.62,580.82 800.3,580.82 796.71,580.82 
			795.89,580.82 795.89,585.17 795.89,588.45 795.89,588.61 795.71,588.79 		"/>
	</g>
	<g id="LWPOLYLINE_114_">
		<polygon class="st0" points="796.36,518.59 796.36,533.2 801.88,533.2 801.88,532.7 801.88,518.59 		"/>
	</g>
	<g id="LWPOLYLINE_115_">
		<rect x="1045.46" y="626.65" class="st0" width="8.49" height="10.99"/>
	</g>
	<g id="LWPOLYLINE_116_">
		<rect x="859.31" y="583.9" class="st0" width="15.75" height="11.76"/>
	</g>
	<g id="LWPOLYLINE_117_">
		<rect x="875.69" y="583.9" class="st0" width="15.8" height="11.76"/>
	</g>
	<g id="LWPOLYLINE_118_">
		<polygon class="st1" points="1025.01,593.96 1025.01,584.26 1015.47,584.26 1015.47,595.66 1022.64,595.66 1022.64,593.96 		"/>
	</g>
	<g id="LINE">
		<line class="st0" x1="1141.69" y1="459.06" x2="1143.07" y2="457.68"/>
	</g>
	<g id="LINE_1_">
		<line class="st0" x1="1143.07" y1="457.68" x2="1143.07" y2="448.39"/>
	</g>
	<g id="LINE_2_">
		<line class="st0" x1="1143.07" y1="448.39" x2="1132.56" y2="444.04"/>
	</g>
	<g id="LINE_3_">
		<line class="st0" x1="1132.56" y1="444.04" x2="1082.08" y2="423.13"/>
	</g>
	<g id="LINE_4_">
		<line class="st0" x1="1082.08" y1="423.13" x2="1067.37" y2="423.13"/>
	</g>
	<g id="LINE_5_">
		<line class="st0" x1="1067.37" y1="423.13" x2="1059.95" y2="430.54"/>
	</g>
	<g id="LINE_6_">
		<line class="st0" x1="1059.95" y1="430.54" x2="1079.32" y2="477.29"/>
	</g>
	<g id="LINE_7_">
		<line class="st0" x1="1079.32" y1="477.29" x2="1086.19" y2="493.88"/>
	</g>
	<g id="LINE_8_">
		<line class="st0" x1="1086.19" y1="493.88" x2="1089.42" y2="501.69"/>
	</g>
	<g id="LINE_9_">
		<line class="st0" x1="1089.42" y1="501.69" x2="1099.06" y2="501.69"/>
	</g>
	<g id="LINE_10_">
		<line class="st0" x1="1099.06" y1="501.69" x2="1141.23" y2="459.52"/>
	</g>
	<g id="LINE_11_">
		<line class="st0" x1="1141.23" y1="459.52" x2="1140.02" y2="458.32"/>
	</g>
	<g id="LINE_12_">
		<line class="st0" x1="1140.02" y1="458.32" x2="1140.49" y2="457.86"/>
	</g>
	<g id="LINE_13_">
		<line class="st0" x1="1140.49" y1="457.86" x2="1141.69" y2="459.06"/>
	</g>
	<g id="LINE_14_">
		<line class="st0" x1="1132.56" y1="444.04" x2="1132.56" y2="423.13"/>
	</g>
	<g id="LINE_15_">
		<line class="st0" x1="1132.56" y1="423.13" x2="1082.08" y2="423.13"/>
	</g>
	<g id="LINE_16_">
		<line class="st0" x1="1082.08" y1="423.13" x2="1132.56" y2="444.04"/>
	</g>
	<g id="LINE_17_">
		<line class="st0" x1="764.38" y1="489.16" x2="780.6" y2="505.39"/>
	</g>
	<g id="LINE_18_">
		<line class="st0" x1="780.6" y1="505.39" x2="786.83" y2="505.39"/>
	</g>
	<g id="LINE_19_">
		<line class="st0" x1="786.83" y1="505.39" x2="791.6" y2="493.88"/>
	</g>
	<g id="LINE_20_">
		<line class="st0" x1="791.6" y1="493.88" x2="792.77" y2="491.04"/>
	</g>
	<g id="LINE_21_">
		<line class="st0" x1="792.77" y1="491.04" x2="803.02" y2="466.29"/>
	</g>
	<g id="LINE_22_">
		<line class="st0" x1="803.02" y1="466.29" x2="817.83" y2="430.54"/>
	</g>
	<g id="LINE_23_">
		<line class="st0" x1="817.83" y1="430.54" x2="810.42" y2="423.13"/>
	</g>
	<g id="LINE_24_">
		<line class="st0" x1="810.42" y1="423.13" x2="795.71" y2="423.13"/>
	</g>
	<g id="LINE_25_">
		<line class="st0" x1="795.71" y1="423.13" x2="764.38" y2="436.1"/>
	</g>
	<g id="LINE_26_">
		<line class="st0" x1="764.38" y1="436.1" x2="764.38" y2="489.16"/>
	</g>
	<g id="LWPOLYLINE_119_">
		<rect x="932.23" y="489.57" class="st0" width="2.66" height="0.5"/>
	</g>
	<g id="LWPOLYLINE_120_">
		<polygon class="st0" points="934.89,493.57 934.89,493.88 1086.19,493.88 1079.32,477.29 1062,477.29 1041.25,427.21 
			1010.93,427.21 1010.93,430.54 1002.93,430.54 1002.93,427.21 874.85,427.21 874.85,430.54 866.85,430.54 866.85,427.21 
			833.29,427.21 817.1,466.29 803.02,466.29 792.77,491.04 791.6,493.88 932.23,493.88 932.23,493.57 		"/>
	</g>
	<g id="LINE_27_">
		<line class="st0" x1="764.38" y1="436.1" x2="795.71" y2="423.13"/>
	</g>
	<g id="LINE_28_">
		<line class="st0" x1="795.71" y1="423.13" x2="764.38" y2="423.13"/>
	</g>
	<g id="LINE_29_">
		<line class="st0" x1="764.38" y1="423.13" x2="764.38" y2="436.1"/>
	</g>
	<g id="LWPOLYLINE_121_">
		<polygon class="st0" points="822.53,455.79 820.73,460.14 820.51,460.66 845.19,460.66 845.19,493.04 856.22,493.04 
			856.22,496.79 871.22,496.79 871.22,494.38 871.22,493.79 871.22,455.79 		"/>
	</g>
	<g id="LWPOLYLINE_122_">
		<polygon class="st0" points="820.79,522.11 820.18,522.11 820.18,518.85 802.52,518.85 802.52,532.52 820.18,532.52 
			820.18,527.11 820.79,527.11 		"/>
	</g>
</g>
<g id="_x30_" class="st2">
	<g id="LINE_30_" class="st3">
		<line class="st4" x1="1050.28" y1="496.52" x2="1050.49" y2="496.3"/>
	</g>
	<g id="LINE_31_" class="st3">
		<line class="st4" x1="1050.49" y1="496.3" x2="1050.12" y2="495.93"/>
	</g>
	<g id="LINE_32_" class="st3">
		<line class="st4" x1="1050.12" y1="495.93" x2="1050.23" y2="496.04"/>
	</g>
	<g id="LINE_33_" class="st3">
		<line class="st5" x1="1156.34" y1="657.37" x2="1157.85" y2="661.01"/>
	</g>
	<g id="LINE_34_" class="st3">
		<line class="st5" x1="1154.26" y1="658.24" x2="1156.34" y2="657.37"/>
	</g>
</g>
<g id="S-GRID-IDEN">
	<g id="CIRCLE">
		<circle class="st0" cx="938.89" cy="663.87" r="2"/>
	</g>
	<g id="MTEXT">
		<text transform="matrix(1 0 0 1 937.6526 664.5844)" class="st6 st7 st8">26</text>
	</g>
	<g id="CIRCLE_1_">
		<circle class="st0" cx="981.22" cy="663.87" r="2"/>
	</g>
	<g id="MTEXT_1_">
		<text transform="matrix(1 0 0 1 979.9859 664.5844)" class="st6 st7 st8">25</text>
	</g>
	<g id="CIRCLE_2_">
		<circle class="st0" cx="1023.56" cy="663.87" r="2"/>
	</g>
	<g id="MTEXT_2_">
		<text transform="matrix(1 0 0 1 1022.3192 664.5844)" class="st6 st7 st8">24</text>
	</g>
	<g id="CIRCLE_3_">
		<circle class="st0" cx="896.56" cy="663.87" r="2"/>
	</g>
	<g id="MTEXT_3_">
		<text transform="matrix(1 0 0 1 895.3192 664.5844)" class="st6 st7 st8">27</text>
	</g>
	<g id="CIRCLE_4_">
		<circle class="st0" cx="854.22" cy="663.87" r="2"/>
	</g>
	<g id="MTEXT_4_">
		<text transform="matrix(1 0 0 1 852.9859 664.5844)" class="st6 st7 st8">28</text>
	</g>
	<g id="CIRCLE_5_">
		<circle class="st0" cx="1068.89" cy="415.13" r="2"/>
	</g>
	<g id="MTEXT_5_">
		<text transform="matrix(1 0 0 1 1068.1744 415.8487)" class="st6 st7 st8">A</text>
	</g>
	<g id="CIRCLE_6_">
		<circle class="st0" cx="1065.89" cy="663.87" r="2"/>
	</g>
	<g id="MTEXT_6_">
		<text transform="matrix(1 0 0 1 1064.6526 664.5844)" class="st6 st7 st8">23</text>
	</g>
	<g id="CIRCLE_7_">
		<circle class="st0" cx="811.89" cy="663.87" r="2"/>
	</g>
	<g id="MTEXT_7_">
		<text transform="matrix(1 0 0 1 810.6526 664.5844)" class="st6 st7 st8">29</text>
	</g>
	<g id="CIRCLE_8_">
		<circle class="st0" cx="1158.62" cy="662.86" r="2"/>
	</g>
	<g id="MTEXT_8_">
		<text transform="matrix(1 0 0 1 1156.5009 663.5713)" class="st6 st7 st8">21.5</text>
	</g>
	<g id="CIRCLE_9_">
		<circle class="st0" cx="1165.36" cy="562.03" r="2"/>
	</g>
	<g id="MTEXT_9_">
		<text transform="matrix(1 0 0 1 1163.2401 562.7407)" class="st6 st7 st8">20.6</text>
	</g>
	<g id="CIRCLE_10_">
		<circle class="st0" cx="1165.36" cy="485.66" r="2"/>
	</g>
	<g id="MTEXT_10_">
		<text transform="matrix(1 0 0 1 1163.2401 486.3732)" class="st6 st7 st8">20.4</text>
	</g>
	<g id="CIRCLE_11_">
		<circle class="st0" cx="1165.79" cy="457.26" r="2"/>
	</g>
	<g id="MTEXT_11_">
		<text transform="matrix(1 0 0 1 1163.505 457.9785)" class="st6 st7 st8">19.5</text>
	</g>
	<g id="CIRCLE_12_">
		<circle class="st0" cx="1108.22" cy="663.87" r="2"/>
	</g>
	<g id="MTEXT_12_">
		<text transform="matrix(1 0 0 1 1106.9858 664.5844)" class="st6 st7 st8">22</text>
	</g>
	<g id="CIRCLE_13_">
		<circle class="st0" cx="1150.56" cy="663.87" r="2"/>
	</g>
	<g id="MTEXT_13_">
		<text transform="matrix(1 0 0 1 1149.3192 664.5844)" class="st6 st7 st8">21</text>
	</g>
	<g id="CIRCLE_14_">
		<circle class="st0" cx="755.55" cy="580.9" r="2"/>
	</g>
	<g id="MTEXT_14_">
		<text transform="matrix(1 0 0 1 754.2899 581.6089)" class="st6 st7 st8">31</text>
	</g>
	<g id="CIRCLE_15_">
		<circle class="st0" cx="754.9" cy="511.3" r="2"/>
	</g>
	<g id="MTEXT_15_">
		<text transform="matrix(1 0 0 1 752.7697 512.0122)" class="st6 st7 st8">31.4</text>
	</g>
	<g id="CIRCLE_16_">
		<circle class="st0" cx="754.9" cy="451.43" r="2"/>
	</g>
	<g id="MTEXT_16_">
		<text transform="matrix(1 0 0 1 752.7697 452.1438)" class="st6 st7 st8">31.6</text>
	</g>
	<g id="CIRCLE_17_">
		<circle class="st0" cx="754.47" cy="439.67" r="2"/>
	</g>
	<g id="MTEXT_17_">
		<text transform="matrix(1 0 0 1 753.2117 440.3836)" class="st6 st7 st8">32</text>
	</g>
	<g id="CIRCLE_18_">
		<circle class="st0" cx="769.56" cy="663.87" r="2"/>
	</g>
	<g id="MTEXT_18_">
		<text transform="matrix(1 0 0 1 768.2926 664.5844)" class="st6 st7 st8">30</text>
	</g>
	<g id="CIRCLE_19_">
		<circle class="st0" cx="754.32" cy="554.96" r="2"/>
	</g>
	<g id="MTEXT_19_">
		<text transform="matrix(1 0 0 1 753.3926 555.6793)" class="st6 st7 st8">D</text>
	</g>
	<g id="CIRCLE_20_">
		<circle class="st0" cx="754.9" cy="525.3" r="2"/>
	</g>
	<g id="MTEXT_20_">
		<text transform="matrix(1 0 0 1 754.033 526.0255)" class="st6 st7 st8">C</text>
	</g>
	<g id="CIRCLE_21_">
		<circle class="st0" cx="754.9" cy="460.13" r="2"/>
	</g>
	<g id="MTEXT_21_">
		<text transform="matrix(1 0 0 1 754.0469 460.8538)" class="st6 st7 st8">B</text>
	</g>
	<g id="CIRCLE_22_">
		<circle class="st0" cx="1165.94" cy="594.96" r="2"/>
	</g>
	<g id="MTEXT_22_">
		<text transform="matrix(1 0 0 1 1164.9972 595.6785)" class="st6 st7 st8">H</text>
	</g>
	<g id="CIRCLE_23_">
		<circle class="st0" cx="1165.94" cy="648.13" r="2"/>
	</g>
	<g id="MTEXT_23_">
		<text transform="matrix(1 0 0 1 1165.3386 648.8451)" class="st6 st7 st8">J</text>
	</g>
	<g id="CIRCLE_24_">
		<circle class="st0" cx="1073.25" cy="437.63" r="2"/>
	</g>
	<g id="MTEXT_24_">
		<text transform="matrix(1 0 0 1 1071.6637 438.3539)" class="st6 st7 st8">A.3</text>
	</g>
	<g id="CIRCLE_25_">
		<circle class="st0" cx="1081.09" cy="458.08" r="2"/>
	</g>
	<g id="MTEXT_25_">
		<text transform="matrix(1 0 0 1 1079.4984 458.8035)" class="st6 st7 st8">A.6</text>
	</g>
	<g id="CIRCLE_26_">
		<circle class="st0" cx="1114.13" cy="513.27" r="2"/>
	</g>
	<g id="MTEXT_26_">
		<text transform="matrix(1 0 0 1 1112.0104 513.9858)" class="st6 st7 st8">20.7</text>
	</g>
	<g id="CIRCLE_27_">
		<circle class="st0" cx="1154.79" cy="472.62" r="2"/>
	</g>
	<g id="MTEXT_27_">
		<text transform="matrix(1 0 0 1 1152.6691 473.3272)" class="st6 st7 st8">20.3</text>
	</g>
	<g id="CIRCLE_28_">
		<circle class="st0" cx="1142.47" cy="451.15" r="2"/>
	</g>
	<g id="MTEXT_28_">
		<text transform="matrix(1 0 0 1 1140.7241 451.8716)" class="st6 st7 st8">B.2</text>
	</g>
	<g id="CIRCLE_29_">
		<circle class="st0" cx="1098.84" cy="507.74" r="2"/>
	</g>
	<g id="MTEXT_29_">
		<text transform="matrix(1 0 0 1 1097.1071 508.4535)" class="st6 st7 st8">B.4</text>
	</g>
</g>
<g id="S-GRID">
	<g id="LINE_35_">
		<line class="st9" x1="938.89" y1="415.07" x2="938.89" y2="661.87"/>
	</g>
	<g id="LINE_36_">
		<line class="st9" x1="981.22" y1="415.07" x2="981.22" y2="661.87"/>
	</g>
	<g id="LINE_37_">
		<line class="st9" x1="1023.56" y1="415.07" x2="1023.56" y2="661.87"/>
	</g>
	<g id="LINE_38_">
		<line class="st9" x1="896.56" y1="415.07" x2="896.56" y2="661.87"/>
	</g>
	<g id="LINE_39_">
		<line class="st9" x1="854.22" y1="415.07" x2="854.22" y2="661.87"/>
	</g>
	<g id="LINE_40_">
		<line class="st9" x1="810.31" y1="416.54" x2="819.73" y2="425.96"/>
	</g>
	<g id="LINE_41_">
		<line class="st9" x1="819.73" y1="425.96" x2="1058.05" y2="425.96"/>
	</g>
	<g id="LINE_42_">
		<line class="st9" x1="1058.05" y1="425.96" x2="1067.47" y2="416.54"/>
	</g>
	<g id="LINE_43_">
		<line class="st9" x1="1065.89" y1="444.88" x2="1065.89" y2="661.87"/>
	</g>
	<g id="LINE_44_">
		<line class="st9" x1="811.89" y1="444.88" x2="811.89" y2="661.87"/>
	</g>
	<g id="LINE_45_">
		<line class="st9" x1="1053.54" y1="415.07" x2="1154.26" y2="658.24"/>
	</g>
	<g id="LINE_46_">
		<line class="st9" x1="1078.39" y1="475.06" x2="1163.94" y2="560.61"/>
	</g>
	<g id="LINE_47_">
		<line class="st9" x1="1116.58" y1="436.88" x2="1163.94" y2="484.25"/>
	</g>
	<g id="LINE_48_">
		<line class="st9" x1="1063.92" y1="415.07" x2="1163.94" y2="456.5"/>
	</g>
	<g id="LINE_49_">
		<line class="st9" x1="1108.22" y1="534.46" x2="1108.22" y2="661.87"/>
	</g>
	<g id="LINE_50_">
		<line class="st9" x1="1150.56" y1="534.46" x2="1150.56" y2="661.87"/>
	</g>
	<g id="LINE_51_">
		<line class="st9" x1="824.24" y1="415.07" x2="756.32" y2="579.05"/>
	</g>
	<g id="LINE_52_">
		<line class="st9" x1="805.08" y1="461.12" x2="756.32" y2="509.89"/>
	</g>
	<g id="LINE_53_">
		<line class="st9" x1="775.15" y1="431.19" x2="756.32" y2="450.02"/>
	</g>
	<g id="LINE_54_">
		<line class="st9" x1="813.86" y1="415.07" x2="756.32" y2="438.9"/>
	</g>
	<g id="LINE_55_">
		<line class="st9" x1="769.56" y1="534.46" x2="769.56" y2="661.87"/>
	</g>
	<g id="LINE_56_">
		<line class="st9" x1="1163.94" y1="554.96" x2="756.32" y2="554.96"/>
	</g>
	<g id="LINE_57_">
		<line class="st9" x1="1163.94" y1="484.24" x2="1108.22" y2="539.96"/>
	</g>
	<g id="LINE_58_">
		<line class="st9" x1="1108.22" y1="539.96" x2="769.56" y2="539.96"/>
	</g>
	<g id="LINE_59_">
		<line class="st9" x1="769.56" y1="539.96" x2="756.32" y2="526.72"/>
	</g>
	<g id="LINE_60_">
		<line class="st9" x1="1137.47" y1="415.07" x2="1137.47" y2="445.53"/>
	</g>
	<g id="LINE_61_">
		<line class="st9" x1="1137.47" y1="445.53" x2="1087.05" y2="495.96"/>
	</g>
	<g id="LINE_62_">
		<line class="st9" x1="1087.05" y1="495.96" x2="790.73" y2="495.96"/>
	</g>
	<g id="LINE_63_">
		<line class="st9" x1="790.73" y1="495.96" x2="756.32" y2="461.54"/>
	</g>
	<g id="LINE_64_">
		<line class="st9" x1="756.32" y1="594.96" x2="1163.94" y2="594.96"/>
	</g>
	<g id="LINE_65_">
		<line class="st9" x1="756.32" y1="648.13" x2="1163.94" y2="648.13"/>
	</g>
	<g id="LINE_66_">
		<line class="st9" x1="804.79" y1="437.89" x2="811.86" y2="444.96"/>
	</g>
	<g id="LINE_67_">
		<line class="st9" x1="811.86" y1="444.96" x2="1065.92" y2="444.96"/>
	</g>
	<g id="LINE_68_">
		<line class="st9" x1="1065.92" y1="444.96" x2="1071.84" y2="439.04"/>
	</g>
	<g id="LINE_69_">
		<line class="st9" x1="798.42" y1="459.81" x2="803.58" y2="464.96"/>
	</g>
	<g id="LINE_70_">
		<line class="st9" x1="803.58" y1="464.96" x2="1074.21" y2="464.96"/>
	</g>
	<g id="LINE_71_">
		<line class="st9" x1="1074.21" y1="464.96" x2="1079.67" y2="459.49"/>
	</g>
	<g id="LINE_72_">
		<line class="st9" x1="1093.88" y1="493.03" x2="1112.71" y2="511.86"/>
	</g>
	<g id="LINE_73_">
		<line class="st9" x1="1134.54" y1="452.37" x2="1153.37" y2="471.2"/>
	</g>
	<g id="LINE_74_">
		<line class="st9" x1="1093.77" y1="499.85" x2="1141.05" y2="452.56"/>
	</g>
	<g id="LINE_75_">
		<line class="st9" x1="1147.54" y1="459.04" x2="1100.25" y2="506.33"/>
	</g>
</g>
</svg>
