<?xml version="1.0" encoding="utf-8"?>
<!-- Generator: Adobe Illustrator 25.2.3, SVG Export Plug-In . SVG Version: 6.00 Build 0)  -->
<svg version="1.1" id="A-AREA-BNDY" xmlns="http://www.w3.org/2000/svg" xmlns:xlink="http://www.w3.org/1999/xlink" x="0px"
	 y="0px" viewBox="0 0 1920 1080" style="enable-background:new 0 0 1920 1080;" xml:space="preserve">
<style type="text/css">
	.st0{stroke:#FF0000;stroke-width:0.2551;stroke-linecap:round;stroke-linejoin:round;stroke-miterlimit:10;}
	.st1{fill:none;stroke:#FF0000;stroke-width:0.2551;stroke-linecap:round;stroke-linejoin:round;stroke-miterlimit:10;}
	.st2{fill:none;stroke:#00FF00;stroke-width:0.5669;stroke-linecap:round;stroke-linejoin:round;stroke-miterlimit:10;}
	.st3{fill:none;stroke:#000000;stroke-width:0.2551;stroke-linecap:round;stroke-linejoin:round;stroke-miterlimit:10;}
	.st4{fill:#FF0000;}
	.st5{font-family:'ArialMT';}
	.st6{font-size:9.053px;}
	
		.st7{stroke:#FF0000;stroke-width:0.2551;stroke-linecap:round;stroke-linejoin:round;stroke-miterlimit:10;stroke-dasharray:0.178,0.0445,0.0445,0.0445;}
	
		.st8{fill:none;stroke:#FF0000;stroke-width:0.2551;stroke-linecap:round;stroke-linejoin:round;stroke-miterlimit:10;stroke-dasharray:0.178,0.0445,0.0445,0.0445;}
</style>
<g id="LWPOLYLINE">
	<polygon class="st0" points="1252.82,566.32 1330.44,566.32 1330.44,590.46 1330.44,634.69 1352.65,634.69 1352.65,566.32 
		1417.1,566.32 1417.1,523.52 1417.1,480.79 1417.1,428.58 1417.1,422.81 1399.51,422.81 1372.67,395.98 1323.23,395.98 
		1252.82,395.98 1252.82,513.55 	"/>
</g>
<g id="LWPOLYLINE_1_">
	<polygon class="st1" points="1419.82,779.97 1506.84,779.97 1506.84,734.74 1551.33,734.74 1573.69,725.48 1537.21,637.4 
		1378.87,637.4 1378.87,660.32 1419.82,660.32 1419.82,721.64 1419.82,771.47 	"/>
</g>
<g id="LWPOLYLINE_2_">
	<polygon class="st1" points="868.42,921.15 868.42,925.21 868.42,973.05 868.42,975.2 868.42,992.73 870.56,992.73 870.56,1006.17 
		889.79,1006.17 889.79,960.79 892.37,960.79 892.37,1006.17 996.3,1006.17 996.3,935.15 892.39,935.15 889.79,935.15 
		889.79,889.77 870.56,889.77 870.56,903.26 868.42,903.26 	"/>
</g>
<g id="LWPOLYLINE_3_">
	<polygon class="st1" points="527.78,535.56 527.78,612.47 509.6,612.47 500.05,612.47 500.05,602.35 500.05,545.69 500.05,545.11 
		500.05,535.56 509.02,535.56 509.6,535.56 	"/>
</g>
<g id="LWPOLYLINE_4_">
	<polygon class="st0" points="472.99,631.7 472.99,646.66 526.32,646.66 542.09,646.66 557.45,646.66 569.89,646.66 569.89,638.11 
		594.91,638.11 594.91,509.92 569.89,509.92 569.89,501.38 563.7,501.38 541.14,501.38 472.99,501.38 472.99,518.47 448.78,518.47 
		448.78,595.38 472.99,595.38 472.99,611.61 472.99,613.75 	"/>
</g>
<g id="LWPOLYLINE_5_">
	<rect x="321.08" y="602.68" class="st1" width="7.83" height="6.77"/>
</g>
<g id="LWPOLYLINE_6_">
	<rect x="321.08" y="538.59" class="st1" width="7.83" height="6.77"/>
</g>
<g id="LWPOLYLINE_7_">
	<polygon class="st1" points="236.95,622.18 260.9,622.18 260.9,630.72 307.9,630.72 399.77,630.72 399.77,630.08 399.77,596.67 
		402.35,596.67 402.35,632.01 446.06,632.01 446.06,613.01 423.72,613.01 423.72,595.38 446.06,595.38 446.06,595.36 446.06,518.47 
		446.06,517.31 426.5,517.31 422.43,517.31 361.83,517.31 285.72,517.31 260.9,517.31 260.9,525.86 236.95,525.86 	"/>
</g>
<g id="LWPOLYLINE_8_">
	<rect x="800.01" y="535.56" class="st0" width="22.08" height="76.91"/>
</g>
<g id="LWPOLYLINE_9_">
	<rect x="864.46" y="601.79" class="st0" width="6.41" height="8.55"/>
</g>
<g id="LWPOLYLINE_10_">
	<rect x="864.46" y="537.7" class="st0" width="6.41" height="8.55"/>
</g>
<g id="LWPOLYLINE_11_">
	<polygon class="st0" points="868.38,509.92 868.38,501.38 863.62,501.38 840.96,501.38 770.68,501.38 770.68,518.47 746.46,518.47 
		746.46,595.38 770.68,595.38 770.68,611.61 770.68,613.75 770.68,631.7 770.68,646.66 788.48,646.66 868.38,646.66 868.38,638.11 
		894.73,638.11 894.73,513.55 894.73,509.92 	"/>
</g>
<g id="LWPOLYLINE_12_">
	<polygon class="st0" points="692.47,545.69 692.47,602.35 692.47,612.47 683.06,612.47 664.88,612.47 664.88,535.56 683.06,535.56 
		692.47,535.56 	"/>
</g>
<g id="LWPOLYLINE_13_">
	<polygon class="st0" points="719.67,646.66 719.67,631.7 719.67,613.75 719.67,611.61 719.67,595.38 743.75,595.38 743.75,518.47 
		719.67,518.47 719.67,501.38 651.39,501.38 628.82,501.38 622.64,501.38 622.64,509.92 597.62,509.92 597.62,638.11 622.64,638.11 
		622.64,646.66 635.28,646.66 650.63,646.66 666.41,646.66 	"/>
</g>
<g id="LWPOLYLINE_14_">
	<polygon class="st0" points="665.12,727.13 665.12,715.27 665.12,649.24 651.5,649.24 651.5,662.77 649.77,662.77 649.77,649.24 
		636.15,649.24 636.15,655.16 636.15,662.55 634.41,662.55 634.41,655.92 621.48,655.92 621.48,649.24 597.62,649.24 597.62,727.13 
			"/>
</g>
<g id="LWPOLYLINE_15_">
	<polygon class="st0" points="1145.35,512.19 1250.1,512.19 1250.1,393.71 1118.22,393.71 1118.22,512.19 	"/>
</g>
<g id="LWPOLYLINE_16_">
	<polygon class="st0" points="527.61,713.82 527.61,715.27 527.61,727.13 594.91,727.13 594.91,649.24 571.05,649.24 571.05,655.92 
		558.32,655.92 558.32,662.55 556.58,662.55 556.58,655.16 556.58,649.24 542.96,649.24 542.96,662.77 541.23,662.77 541.23,649.24 
		527.61,649.24 527.61,713.13 	"/>
</g>
<g id="LWPOLYLINE_17_">
	<polygon class="st1" points="194.27,824.97 194.27,842.06 168.32,842.06 168.32,954.67 190.84,954.67 190.84,1005.32 
		287.96,1005.32 287.96,990.88 287.96,975.52 287.96,960.17 287.96,944.43 287.96,927.32 287.96,871.46 287.96,847.93 
		287.96,824.97 	"/>
</g>
<g id="LWPOLYLINE_18_">
	<polygon class="st0" points="1024.28,512.19 1115.5,512.19 1115.5,393.71 897.44,393.71 897.44,499.97 897.44,509.17 
		897.44,512.19 	"/>
</g>
<g id="LWPOLYLINE_19_">
	<polygon class="st1" points="144.1,572.41 144.1,738.53 188.26,738.53 188.26,774.36 144.1,774.36 144.1,821.14 167.03,821.14 
		169.74,821.14 169.74,823.85 168.32,823.85 168.32,839.48 192.53,839.48 192.53,821.14 227.78,821.14 227.78,466.48 187.98,466.48 
			"/>
</g>
<g id="_x30_0.24.03">
	<polygon class="st0" points="1143.99,514.91 1116.86,514.91 1025.63,514.91 1025.63,764.23 1025.63,779.97 1143.99,779.97 	"/>
</g>
<g id="LWPOLYLINE_21_">
	<polygon class="st0" points="1284.29,1007.28 1286.78,1007.28 1286.78,875.35 1303.87,875.35 1303.87,833.18 1303.87,831.03 
		1303.87,821.5 1119.77,821.5 1119.77,823.85 1085.59,823.85 1085.59,899.48 1119.77,899.48 1119.77,1007.28 	"/>
</g>
<g id="LWPOLYLINE_22_">
	<polygon class="st1" points="1047.13,1007.28 1052.56,1007.28 1052.56,938.91 1030.35,938.91 1030.35,926.1 1001.24,926.1 
		1001.24,1007.28 1001.55,1007.28 	"/>
</g>
<g id="LWPOLYLINE_23_">
	<polygon class="st1" points="1594.35,999.18 1594.35,860.89 1581.97,860.89 1581.97,834.54 1407.49,834.54 1407.49,911.03 
		1407.49,999.18 1415.32,999.18 1415.32,1007.28 1586.24,1007.28 1586.24,999.18 	"/>
</g>
<g id="LWPOLYLINE_24_">
	<polygon class="st1" points="1404.78,1007.28 1404.78,1000.54 1404.78,912.39 1362.05,912.39 1362.05,962.06 1321.7,962.06 
		1306.58,962.06 1306.58,1007.28 	"/>
</g>
<g id="LWPOLYLINE_25_">
	<polygon class="st0" points="1238.35,771.32 1238.35,771.64 1290.34,771.64 1290.34,725.95 1290.34,718.23 1251.46,718.23 
		1238.35,718.23 1238.35,729.92 	"/>
</g>
<g id="LWPOLYLINE_26_">
	<rect x="1293.05" y="727.31" class="st0" width="32.89" height="44.33"/>
</g>
<g id="LWPOLYLINE_27_">
	<polygon class="st1" points="1404.78,834.54 1362.05,834.54 1362.05,874 1362.05,909.67 1404.78,909.67 	"/>
</g>
<g id="LWPOLYLINE_28_">
	<rect x="894.73" y="823.85" class="st0" width="102.69" height="62.09"/>
</g>
<g id="LWPOLYLINE_29_">
	<polygon class="st1" points="425.32,823.85 425.32,868.37 497.25,868.37 497.25,828.84 460.08,828.84 460.08,851.23 448.11,851.23 
		448.11,849.49 458.35,849.49 458.35,828.08 458.35,823.85 	"/>
</g>
<g id="LWPOLYLINE_30_">
	<polygon class="st0" points="1022.92,514.91 897.44,514.91 897.44,638.87 897.44,648.06 897.44,659.34 897.44,704.48 
		897.44,720.68 897.44,736.88 897.44,753.08 897.44,762.88 924.51,762.88 924.51,779.97 995.86,779.97 995.86,762.88 
		1022.92,762.88 	"/>
</g>
<g id="LWPOLYLINE_31_">
	<rect x="144.1" y="741.24" class="st1" width="41.44" height="30.4"/>
</g>
<g id="LWPOLYLINE_32_">
	<polygon class="st1" points="144.1,823.85 144.1,954.67 165.74,954.67 165.74,840.77 165.74,823.85 	"/>
</g>
<g id="LWPOLYLINE_33_">
	<polygon class="st0" points="1235.64,728.56 1235.64,715.52 1250.1,715.52 1250.1,705.84 1250.1,636.04 1250.1,590.46 
		1250.1,567.67 1250.1,514.91 1146.7,514.91 1146.7,779.97 1192.19,779.97 1192.19,728.56 	"/>
</g>
<g id="LWPOLYLINE_34_">
	<polygon class="st0" points="322.25,287.49 330.61,267.32 332.58,268.13 400.22,99.25 348.9,78 345.36,86.53 336.1,108.88 
		329.46,124.93 310.47,170.77 267.68,274.07 234.59,353.96 187.98,466.48 227.78,466.48 227.78,821.14 290.54,821.14 290.54,824.41 
		290.54,846.64 322.15,846.64 322.15,824.64 322.15,821.14 325.58,821.14 424.03,821.14 459.1,821.14 498.54,821.14 537.75,821.14 
		572.83,821.14 643.2,821.14 696.75,821.14 696.75,841.08 721.63,841.08 722.38,841.08 722.38,821.14 857.76,821.14 893.37,821.14 
		1000.13,821.14 1000.13,887.3 1000.13,892.36 1000.13,906.6 1000.13,922.27 1031.47,922.27 1031.47,902.22 1031.47,902.19 
		1031.47,900.84 1031.47,821.14 1079.89,821.14 1079.89,821.5 1119.77,821.5 1303.87,821.5 1303.87,831.82 1360.69,831.82 
		1406.13,831.82 1581.97,831.82 1581.97,781.33 1581.97,776.27 1554.91,776.27 1554.91,782.68 1508.2,782.68 1418.46,782.68 
		1406.82,782.68 1377.02,782.68 1325.95,782.68 1325.95,774.36 1291.7,774.36 1238.35,774.36 1238.35,775.61 1238.35,782.68 
		1226.29,782.68 1193.55,782.68 1145.35,782.68 1022.92,782.68 1022.92,765.59 998.57,765.59 998.57,782.68 921.79,782.68 
		921.79,765.59 897.44,765.59 897.44,768.75 897.44,782.68 859.88,782.68 836.58,782.68 830.83,782.68 767.96,782.68 767.96,765.59 
		745.11,765.59 722.38,765.59 722.38,782.68 666.41,782.68 665.12,782.68 665.1,782.68 596.26,782.68 527.63,782.68 527.61,782.68 
		526.32,782.68 470.28,782.68 470.28,765.59 447.42,765.59 424.7,765.59 424.7,782.68 328.51,782.68 290.94,782.68 278.35,782.68 
		250.15,754.49 236.62,740.95 233.12,737.46 233.12,735.15 233.12,715.25 233.12,701.18 233.12,682.47 233.12,632.13 233.12,622.93 
		233.12,522.03 255.91,522.03 255.91,514.44 255.91,449.28 255.91,447.61 256.31,446.64 279.37,390.99 361.72,390.99 377.38,390.99 
		385.77,390.99 423.34,390.99 471.63,390.99 476.29,390.99 533.77,390.99 539.96,390.99 596.26,390.99 652.57,390.99 658.76,390.99 
		716.24,390.99 721.03,390.99 769.32,390.99 774.33,390.99 833.59,390.99 839.78,390.99 896.09,390.99 1116.86,390.99 
		1251.46,390.99 1320.74,390.99 1320.74,362.5 1297.24,362.5 1297.24,347.55 1265.9,347.55 1265.9,362.5 1236.57,362.5 
		1236.57,364.64 1222.33,364.64 1222.33,362.5 1055.68,362.5 1055.68,364.64 1041.44,364.64 1041.44,362.5 874.79,362.5 
		874.79,364.64 860.55,364.64 860.55,362.5 693.9,362.5 693.9,364.64 679.66,364.64 679.66,362.5 619.12,362.5 619.12,349.68 
		583.51,349.68 583.51,362.5 509.45,362.5 509.45,346.48 469.56,346.48 469.56,362.5 331.76,362.5 331.76,363.79 320.01,363.79 
		320.01,350.75 322.86,350.75 322.86,345.34 322.86,303.09 319.19,301.57 332.58,268.13 317.34,299.34 	"/>
</g>
<g id="LWPOLYLINE_35_">
	<polygon class="st0" points="1349.48,182.32 581.24,182.32 581.24,344.7 624.11,344.7 624.11,357.52 679.66,357.52 693.9,357.52 
		860.55,357.52 874.79,357.52 1041.44,357.52 1055.68,357.52 1222.33,357.52 1236.57,357.52 1260.92,357.52 1260.92,342.56 
		1302.22,342.56 1302.22,357.52 1323.23,357.52 1323.23,359.79 1336.35,359.79 1391.49,304.64 1397.61,298.52 	"/>
</g>
<g id="LWPOLYLINE_36_">
	<polygon class="st0" points="1034.18,823.85 1034.18,899.48 1034.2,899.48 1082.88,899.48 1082.88,823.85 1079.89,823.85 	"/>
</g>
<g id="LWPOLYLINE_37_">
	<polygon class="st1" points="1773.69,1012.91 1424.78,170.57 1389.97,86.53 1384.86,74.2 1321.72,100.36 1321.7,100.37 
		1344.73,155.97 1354.64,179.88 1354.69,180.01 1354.36,180.15 1402.42,296.17 1402.75,296.04 1403.54,297.95 1407.82,308.28 
		1397.49,312.56 1392.45,307.52 1337.47,362.5 1325.72,362.5 1325.72,390.99 1374.74,390.99 1401.57,417.83 1419.6,417.83 
		1422.48,417.83 1431.35,417.83 1431.35,429.93 1422.09,429.93 1422.09,479.43 1476.21,479.43 1476.21,482.15 1422.09,482.15 
		1422.09,522.16 1493.31,522.16 1493.31,524.88 1422.09,524.88 1422.09,564.05 1512.22,564.05 1541.65,635.09 1580.21,728.18 
		1557.18,737.72 1557.18,771.29 1584.46,771.29 1587.05,771.29 1596.93,771.29 1596.93,782.68 1586.96,782.68 1586.96,833.18 
		1586.96,855.9 1601.2,855.9 1601.2,1000.54 1601.2,1012.91 	"/>
</g>
<g id="LWPOLYLINE_38_">
	<polygon class="st0" points="667.7,779.95 667.7,779.97 719.67,779.97 719.67,764.23 719.67,762.85 719.67,716.56 667.7,716.56 
		667.7,728.42 	"/>
</g>
<g id="LWPOLYLINE_39_">
	<polygon class="st1" points="1509.55,779.97 1552.19,779.97 1552.19,773.78 1552.19,737.46 1509.55,737.46 	"/>
</g>
<g id="LWPOLYLINE_40_">
	<rect x="917.76" y="921.96" class="st1" width="51.28" height="2.58"/>
</g>
<g id="LWPOLYLINE_41_">
	<polygon class="st1" points="996.3,906.6 997.41,906.6 997.41,892.36 996.3,892.36 996.3,889.77 892.37,889.77 892.37,935.15 
		996.3,935.15 	"/>
</g>
<g id="LWPOLYLINE_42_">
	<polygon class="st1" points="346.09,849.23 323.44,849.23 290.54,849.23 290.54,870.59 308.7,870.59 308.7,872.33 290.54,872.33 
		290.54,926.45 308.7,926.45 308.7,928.19 290.54,928.19 290.54,943.14 308.7,943.14 308.7,945.72 290.54,945.72 290.54,959.3 
		304.07,959.3 304.07,961.04 290.54,961.04 290.54,974.66 304.07,974.66 304.07,976.39 290.54,976.39 290.54,990.01 304.07,990.01 
		304.07,991.75 290.54,991.75 290.54,1005.37 319.61,1005.37 319.61,998.07 350.72,998.07 350.72,997.16 350.72,948.48 
		327.93,948.48 327.93,943.14 346.09,943.14 346.09,928.19 327.93,928.19 327.93,926.45 346.09,926.45 346.09,872.33 327.93,872.33 
		327.93,870.59 346.09,870.59 	"/>
</g>
<g id="LWPOLYLINE_43_">
	<polygon class="st1" points="387.4,849.23 348.67,849.23 348.67,871.46 348.67,927.32 348.67,943.14 351.7,943.14 397.37,943.14 
		397.37,895.03 397.37,872.33 388.15,872.33 368.61,872.33 368.61,870.59 387.4,870.59 387.4,868.45 397.37,868.45 397.37,857.06 
		387.4,857.06 	"/>
</g>
<g id="LWPOLYLINE_44_">
	<polygon class="st1" points="397.37,996.29 397.37,945.72 352.46,945.72 352.46,947.73 352.46,996.29 	"/>
</g>
<g id="LWPOLYLINE_45_">
	<polygon class="st1" points="324.73,823.85 324.73,846.64 347.38,846.64 388.15,846.64 399.95,846.64 399.95,856.3 399.95,869.21 
		399.95,871.46 399.95,893.74 525.96,893.74 575.59,893.74 576.84,893.74 576.9,893.74 620.9,893.74 646.14,893.74 646.14,906.87 
		650.63,906.87 694.03,906.87 694.03,893.74 696.61,893.74 696.61,908.16 696.61,922.53 719.67,922.53 719.67,903.26 720.87,902.84 
		720.87,889.45 720.87,843.8 696.61,843.8 696.61,870.95 643.2,870.95 572.83,870.95 498.54,870.95 422.74,870.95 422.74,823.85 	
		"/>
</g>
<g id="LWPOLYLINE_46_">
	<polygon class="st1" points="399.95,896.32 399.95,944.43 399.95,997.16 399.95,1006.57 500.37,1006.57 500.37,997.4 511.4,997.4 
		511.4,1006.57 524.67,1006.57 524.67,994.57 525.47,994.57 525.47,900.57 524.67,900.57 524.67,896.32 	"/>
</g>
<g id="LWPOLYLINE_47_">
	<polygon class="st1" points="622.19,1006.5 622.19,1006.57 643.56,1006.57 643.56,1005.03 643.56,991.97 643.56,975.2 
		643.56,973.05 643.56,908.05 643.56,896.32 622.19,896.32 622.19,912.07 606.61,912.07 606.61,909.49 619.61,909.49 619.61,896.32 
		576.88,896.32 576.88,1004.98 576.88,1005.32 619.61,1005.32 619.61,936.02 606.61,936.02 606.61,933.44 622.19,933.44 	"/>
</g>
<g id="LWPOLYLINE_48_">
	<polygon class="st1" points="651.39,971.23 676.09,971.23 676.09,973.81 697.46,973.81 697.46,971.23 722.61,971.23 722.61,925.12 
		721.6,925.12 717.74,925.12 694.03,925.12 694.03,909.45 651.39,909.45 	"/>
</g>
<g id="LWPOLYLINE_49_">
	<polygon class="st1" points="643.56,991.97 646.14,991.97 646.14,1005.01 681.39,1005.01 681.39,995.89 692.16,995.89 
		692.16,1005.01 727.41,1005.01 727.41,992.73 727.41,990.58 727.41,973.81 724.99,973.81 723.79,973.81 697.46,973.81 
		676.09,973.81 650.63,973.81 649.85,973.81 643.56,973.81 	"/>
</g>
<g id="LWPOLYLINE_50_">
	<polygon class="st0" points="644.49,823.85 644.49,868.37 694.03,868.37 694.03,843.82 694.03,842.44 694.03,823.85 	"/>
</g>
<g id="LWPOLYLINE_51_">
	<polygon class="st1" points="868.42,922.53 868.42,904.02 862.37,904.02 862.37,889.77 733.47,889.77 733.47,904.02 719.67,904.02 
		719.67,922.53 723.79,922.53 724.99,922.53 733.47,922.53 733.47,973.81 727.41,973.81 727.41,991.97 733.47,991.97 
		733.47,1005.61 733.47,1006.57 770.81,1006.57 862.37,1006.57 862.37,991.97 868.42,991.97 868.42,973.81 862.37,973.81 
		862.37,922.53 	"/>
</g>
<g id="LWPOLYLINE_52_">
	<rect x="775.86" y="824.92" class="st0" width="8.77" height="7.83"/>
</g>
<g id="LWPOLYLINE_53_">
	<rect x="838.49" y="824.92" class="st0" width="8.77" height="7.83"/>
</g>
<g id="LWPOLYLINE_54_">
	<polygon class="st0" points="856.41,885.95 856.41,823.85 725.1,823.85 725.1,842.44 725.1,885.95 730.14,885.95 	"/>
</g>
<g id="LWPOLYLINE_55_">
	<rect x="574.12" y="823.85" class="st0" width="67.79" height="44.51"/>
</g>
<g id="LWPOLYLINE_56_">
	<polygon class="st1" points="526.05,610.74 526.05,537.3 510.16,537.3 510.16,546.24 501.79,546.24 501.79,601.79 510.16,601.79 
		510.16,610.74 	"/>
</g>
<g id="LWPOLYLINE_57_">
	<polygon class="st1" points="421.98,704.3 421.98,658.32 401.06,658.32 357.49,658.32 357.49,704.3 	"/>
</g>
<g id="LWPOLYLINE_58_">
	<polygon class="st1" points="399.77,633.31 307.9,633.31 307.9,654.46 307.9,656.61 307.9,682.47 307.9,704.3 326.89,704.3 
		328.09,704.3 354.91,704.3 354.91,655.74 399.77,655.74 399.77,633.95 	"/>
</g>
<g id="LWPOLYLINE_59_">
	<polygon class="st1" points="307.9,633.31 260.14,633.31 241.67,633.31 241.67,655.74 258.76,655.74 258.76,657.47 241.67,657.47 
		241.67,681.6 258.76,681.6 258.76,683.34 240.91,683.34 235.84,683.34 235.84,700.43 245.63,700.43 245.63,713.96 255.34,713.96 
		259.25,713.96 259.25,700.43 260.99,700.43 260.99,713.96 274.61,713.96 274.61,700.43 276.34,700.43 276.34,713.96 289.96,713.96 
		289.96,700.43 291.7,700.43 291.7,713.96 305.32,713.96 305.32,705.48 305.32,683.34 302.96,683.34 275.86,683.34 275.86,681.6 
		302.21,681.6 302.21,657.47 275.86,657.47 275.86,655.74 302.96,655.74 307.9,655.74 	"/>
</g>
<g id="LWPOLYLINE_60_">
	<polygon class="st1" points="421.98,762.85 421.98,706.88 356.2,706.88 329.27,706.88 329.27,716.54 306.5,716.54 305.32,716.54 
		305.3,716.54 292.23,716.54 292.23,772.36 329.27,772.36 329.27,779.97 421.98,779.97 421.98,764.23 	"/>
</g>
<g id="LWPOLYLINE_61_">
	<polygon class="st1" points="386.95,439.19 421.98,439.19 421.98,410.82 421.98,409.44 421.98,393.71 386.95,393.71 386.95,406.26 
			"/>
</g>
<g id="LWPOLYLINE_62_">
	<polygon class="st1" points="424.56,655.74 424.56,705.59 424.56,762.88 446.06,762.88 446.06,632.01 402.35,632.01 402.35,655.74 
			"/>
</g>
<g id="LWPOLYLINE_63_">
	<polygon class="st1" points="259.35,446.41 360.42,446.41 360.42,430.74 363.01,430.74 363.01,447.16 363.01,450.57 363.01,465.68 
		384.37,465.68 384.37,440.06 384.37,407.01 376.63,407.01 376.63,393.71 363.01,393.71 363.01,409.37 360.42,409.37 360.42,393.71 
		281.18,393.71 	"/>
</g>
<g id="LWPOLYLINE_64_">
	<polygon class="st1" points="422.43,514.73 424.56,514.73 424.56,494.79 421.98,494.79 421.98,440.93 386.95,440.93 386.95,465.68 
		386.95,492.21 402.04,492.21 402.04,494.79 384.37,494.79 384.37,465.68 363.03,465.68 363.01,465.68 363.01,487.04 363.01,510.95 
		363.01,514.73 	"/>
</g>
<g id="LWPOLYLINE_65_">
	<polygon class="st1" points="470.41,647.95 470.41,631.7 472.99,631.7 472.99,612.47 448.78,612.47 448.78,632.01 448.78,762.88 
		470.41,762.88 470.41,715.27 470.41,713.98 470.41,713.96 	"/>
</g>
<g id="LWPOLYLINE_66_">
	<rect x="472.99" y="649.24" class="st0" width="52.03" height="64.74"/>
</g>
<g id="LWPOLYLINE_67_">
	<polygon class="st1" points="470.81,457.93 525.02,457.93 532.59,457.93 532.59,393.71 477.04,393.71 477.04,438.35 470.81,438.35 
			"/>
</g>
<g id="LWPOLYLINE_68_">
	<polygon class="st0" points="541.14,498.79 562.41,498.79 562.41,456.51 565,456.51 565,498.79 570.65,498.79 594.91,498.79 
		594.91,393.71 541.14,393.71 541.14,432.56 565,432.56 565,435.14 541.14,435.14 541.14,461.23 535.92,461.23 527.83,461.23 
		527.83,474.85 541.14,474.85 	"/>
</g>
<g id="LWPOLYLINE_69_">
	<polygon class="st0" points="719.67,631.7 722.25,631.7 722.25,647.95 722.25,715.27 722.25,762.88 743.75,762.88 743.75,612.47 
		719.67,612.47 	"/>
</g>
<g id="LWPOLYLINE_70_">
	<polygon class="st0" points="651.39,498.79 722.25,498.79 722.25,477.43 719.67,477.43 719.67,460.52 719.47,460.52 668.39,460.52 
		668.39,477.43 665.46,477.43 651.39,477.43 	"/>
</g>
<g id="LWPOLYLINE_71_">
	<polygon class="st0" points="597.62,498.79 621.88,498.79 627.53,498.79 627.53,456.51 630.11,456.51 630.11,498.79 651.39,498.79 
		651.39,474.85 664.7,474.85 664.7,461.23 656.61,461.23 651.39,461.23 651.39,435.14 627.53,435.14 627.53,432.56 651.39,432.56 
		651.39,393.71 597.62,393.71 	"/>
</g>
<g id="LWPOLYLINE_72_">
	<rect x="667.7" y="649.24" class="st0" width="51.97" height="64.74"/>
</g>
<g id="LWPOLYLINE_73_">
	<rect x="801.75" y="537.3" class="st0" width="18.61" height="73.44"/>
</g>
<g id="LWPOLYLINE_74_">
	<polygon class="st0" points="787.19,649.24 768.1,649.24 768.1,631.7 770.68,631.7 770.68,612.47 746.46,612.47 746.46,762.88 
		768.1,762.88 768.1,723.04 768.1,670.78 787.19,670.78 	"/>
</g>
<g id="LWPOLYLINE_75_">
	<polygon class="st0" points="770.68,673.36 770.68,721.75 829.65,721.75 829.65,704.37 829.65,673.36 788.48,673.36 	"/>
</g>
<g id="LWPOLYLINE_76_">
	<polygon class="st0" points="869.14,649.24 789.77,649.24 789.77,670.78 832.24,670.78 832.24,703.19 836.58,703.19 853.42,703.19 
		853.42,704.48 873.36,704.48 873.36,703.19 894.73,703.19 894.73,660.1 886.18,660.1 886.18,649.24 	"/>
</g>
<g id="LWPOLYLINE_77_">
	<polygon class="st0" points="894.73,705.77 873.36,705.77 873.36,704.48 853.42,704.48 853.42,705.77 837.76,705.77 837.76,778.45 
		859.12,778.45 859.12,774.14 881.2,774.14 881.2,767.99 894.73,767.99 894.73,764.23 894.73,754.37 881.2,754.37 881.2,751.79 
		894.73,751.79 894.73,738.17 881.2,738.17 881.2,735.59 894.73,735.59 894.73,721.97 881.2,721.97 881.2,719.39 894.73,719.39 	"/>
</g>
<g id="LWPOLYLINE_78_">
	<polygon class="st0" points="770.68,477.43 769.39,477.43 769.39,498.79 840.96,498.79 840.96,477.43 826.9,477.43 821.95,477.43 
		821.95,460.52 770.87,460.52 770.68,460.52 	"/>
</g>
<g id="LWPOLYLINE_79_">
	<polygon class="st0" points="869.14,498.79 894.73,498.79 894.73,393.71 840.96,393.71 840.96,432.56 864.91,432.56 864.91,435.14 
		840.96,435.14 840.96,461.23 835.74,461.23 827.65,461.23 827.65,474.85 840.96,474.85 840.96,498.79 862.33,498.79 862.33,456.51 
		864.91,456.51 864.91,498.79 868.36,498.79 868.38,498.79 	"/>
</g>
<g id="LWPOLYLINE_80_">
	<polygon class="st0" points="770.68,724.33 770.68,762.85 770.68,764.23 770.68,779.97 829.65,779.97 829.65,724.33 	"/>
</g>
<g id="LWPOLYLINE_81_">
	<polygon class="st1" points="1328.66,725.95 1328.66,773 1328.66,779.97 1376.15,779.97 1376.15,721.64 1376.15,663.06 
		1376.15,661.68 1376.15,637.4 1354.01,637.4 1330.44,637.4 1330.44,723.81 1330.44,724.6 1328.66,724.6 	"/>
</g>
<g id="LWPOLYLINE_82_">
	<polygon class="st1" points="1508.89,569.03 1419.6,569.03 1417.1,569.03 1355.37,569.03 1355.37,634.69 1377.51,634.69 
		1536.08,634.69 	"/>
</g>
<g id="LWPOLYLINE_83_">
	<polygon class="st0" points="1252.82,634.69 1267.79,634.69 1291.7,634.69 1327.73,634.69 1327.73,591.82 1252.82,591.82 	"/>
</g>
<g id="LWPOLYLINE_84_">
	<polygon class="st0" points="1293.05,716.87 1293.05,724.6 1327.73,724.6 1327.73,637.4 1293.05,637.4 1293.05,705.84 	"/>
</g>
<g id="LWPOLYLINE_85_">
	<polygon class="st0" points="859.12,823.85 859.12,885.95 865.27,885.95 869.8,885.95 892.01,885.95 892.01,823.85 	"/>
</g>
<g id="LWPOLYLINE_86_">
	<polygon class="st1" points="235.84,716.54 235.84,733.97 243.75,733.97 254.04,733.97 254.04,716.54 244.88,716.54 	"/>
</g>
<g id="LWPOLYLINE_87_">
	<polygon class="st1" points="1286.78,1007.28 1303.87,1007.28 1303.87,959.34 1320.34,959.34 1320.34,911.03 1320.34,875.35 
		1305.23,875.35 1303.87,875.35 1303.71,875.35 1303.08,875.35 1286.78,875.35 	"/>
</g>
<g id="LWPOLYLINE_88_">
	<rect x="1323.05" y="875.35" class="st1" width="36.28" height="34.32"/>
</g>
<g id="LWPOLYLINE_89_">
	<polygon class="st1" points="470.41,518.47 470.41,500.09 470.81,500.09 470.81,497.94 470.81,477.43 470.81,457.08 470.81,439.74 
		470.81,437.59 470.41,437.59 470.41,410.8 448.78,410.8 448.78,517.31 448.78,518.47 	"/>
</g>
<g id="LWPOLYLINE_90_">
	<polygon class="st1" points="424.56,517.31 446.06,517.31 446.06,410.8 424.56,410.8 424.56,440.06 424.56,494.79 	"/>
</g>
<g id="LWPOLYLINE_91_">
	<polygon class="st0" points="722.25,500.09 722.25,518.47 743.75,518.47 743.75,410.8 722.25,410.8 722.25,435.14 721.41,435.14 
		721.41,439.74 721.41,457.08 721.41,459.22 722.25,459.22 722.25,477.43 722.25,497.94 	"/>
</g>
<g id="LWPOLYLINE_92_">
	<polygon class="st0" points="768.1,518.47 768.1,500.09 769.39,500.09 769.39,477.43 768.1,477.43 768.1,459.22 768.94,459.22 
		768.94,457.08 768.94,439.74 768.94,437.59 768.1,437.59 768.1,410.8 746.46,410.8 746.46,518.47 	"/>
</g>
<g id="LWPOLYLINE_93_">
	<polygon class="st0" points="525.02,779.97 525.02,779.95 525.02,728.42 525.02,716.56 524.17,716.56 473.01,716.56 472.99,716.56 
		472.99,762.85 472.99,764.23 472.99,779.97 	"/>
</g>
<g id="LWPOLYLINE_94_">
	<polygon class="st0" points="690.74,601.79 690.74,546.24 682.5,546.24 682.5,537.3 666.61,537.3 666.61,610.74 682.5,610.74 
		682.5,601.79 	"/>
</g>
<g id="LWPOLYLINE_95_">
	<polygon class="st0" points="667.64,457.93 721.41,457.93 721.41,438.35 715.49,438.35 715.49,393.71 659.94,393.71 659.94,457.93 
			"/>
</g>
<g id="LWPOLYLINE_96_">
	<polygon class="st0" points="470.81,498.79 541.14,498.79 541.14,477.43 527.07,477.43 524.27,477.43 524.27,460.52 472.99,460.52 
		472.99,477.43 470.81,477.43 	"/>
</g>
<g id="LWPOLYLINE_97_">
	<polygon class="st0" points="768.94,457.93 822.71,457.93 832.41,457.93 832.41,393.71 775.08,393.71 775.08,438.35 768.94,438.35 
			"/>
</g>
<g id="LWPOLYLINE_98_">
	<polygon class="st0" points="1359.33,872.64 1359.33,834.54 1306.58,834.54 1306.58,872.64 1321.7,872.64 	"/>
</g>
<g id="LWPOLYLINE_99_">
	<polygon class="st1" points="1056.39,1007.28 1117.06,1007.28 1117.06,902.19 1084.23,902.19 1034.18,902.19 1034.18,922.25 
		1034.18,924.18 1034.18,935.09 1056.39,935.09 	"/>
</g>
<g id="LWPOLYLINE_100_">
	<polygon class="st0" points="1266.44,637.4 1252.82,637.4 1252.82,704.48 1290.34,704.48 1290.34,637.4 1269.15,637.4 
		1269.15,650.93 1266.44,650.93 	"/>
</g>
<g id="LWPOLYLINE_101_">
	<rect x="1252.82" y="569.03" class="st0" width="74.91" height="20.07"/>
</g>
<g id="LWPOLYLINE_102_">
	<polygon class="st0" points="571.54,868.37 571.54,823.85 538.51,823.85 538.51,828.08 538.51,849.49 548.75,849.49 548.75,851.23 
		536.78,851.23 536.78,828.84 499.83,828.84 499.83,868.37 	"/>
</g>
<g id="LWPOLYLINE_103_">
	<polygon class="st1" points="574.3,1006.57 574.3,896.34 574.3,896.32 527.25,896.32 527.25,900.57 527.25,994.57 527.25,1006.57 	
		"/>
</g>
<g id="LWPOLYLINE_104_">
	<polygon class="st1" points="425.45,597.12 425.45,611.27 446.06,611.27 446.06,597.14 446.06,597.12 	"/>
</g>
<g id="LWPOLYLINE_105_">
	<polygon class="st1" points="471.26,597.12 448.78,597.12 448.78,610.74 471.06,610.74 471.26,610.74 	"/>
</g>
<g id="LWPOLYLINE_106_">
	<polygon class="st0" points="721.41,610.74 721.6,610.74 743.75,610.74 743.75,597.12 721.41,597.12 	"/>
</g>
<g id="LWPOLYLINE_107_">
	<polygon class="st0" points="768.94,610.74 768.94,597.12 746.46,597.12 746.46,610.74 768.75,610.74 	"/>
</g>
<g id="LWPOLYLINE_108_">
	<polygon class="st1" points="360.7,205.83 345.5,242.51 334.55,268.95 332.58,268.13 320.2,299.05 325.57,301.28 325.57,343.99 
		331.76,343.99 331.76,357.52 464.58,357.52 464.58,344.7 464.58,341.47 464.58,205.83 	"/>
</g>
<g id="LWPOLYLINE_109_">
	<rect x="1377.89" y="663.04" class="st1" width="39.21" height="57.73"/>
</g>
<g id="LWPOLYLINE_110_">
	<polygon class="st1" points="1377.89,722.5 1377.89,779.97 1406.07,779.97 1406.07,770.71 1417.1,770.71 1417.1,722.5 	"/>
</g>
<g id="LWPOLYLINE_111_">
	<polygon class="st1" points="397.37,1006.57 397.37,998.02 352.46,998.02 352.46,998.63 352.46,1006.57 	"/>
</g>
<g id="LWPOLYLINE_112_">
	<polygon class="st1" points="144.1,957.25 144.1,1007.73 350.72,1007.73 350.72,999.18 320.72,999.18 320.72,1007.73 
		289.25,1007.73 289.25,1007.68 188.26,1007.68 188.26,957.25 167.03,957.25 	"/>
</g>
<g id="LWPOLYLINE_113_">
	<polygon class="st1" points="252.98,753.48 279.47,779.97 289.65,779.97 289.65,773.11 289.65,716.54 275.48,716.54 260.12,716.54 
		256.63,716.54 256.63,735.15 256.63,749.14 256.63,749.84 255.83,750.63 	"/>
</g>
<g id="LWPOLYLINE_114_">
	<polygon class="st1" points="258.63,450.63 258.63,513.08 282.22,513.08 282.22,510.95 282.22,450.63 	"/>
</g>
<g id="LWPOLYLINE_115_">
	<rect x="1323.05" y="912.39" class="st1" width="36.28" height="46.96"/>
</g>
<g id="LWPOLYLINE_116_">
	<rect x="527.61" y="729.72" class="st0" width="67.3" height="50.25"/>
</g>
<g id="LWPOLYLINE_117_">
	<rect x="597.62" y="729.72" class="st0" width="67.5" height="50.25"/>
</g>
<g id="LWPOLYLINE_118_">
	<polygon class="st0" points="1235.64,772.71 1235.64,731.27 1194.91,731.27 1194.91,779.97 1225.53,779.97 1225.53,772.71 	"/>
</g>
<g id="LINE">
	<line class="st1" x1="1734.22" y1="196.29" x2="1740.13" y2="190.37"/>
</g>
<g id="LINE_1_">
	<line class="st1" x1="1740.13" y1="190.37" x2="1740.13" y2="150.7"/>
</g>
<g id="LINE_2_">
	<line class="st1" x1="1740.13" y1="150.7" x2="1695.21" y2="132.09"/>
</g>
<g id="LINE_3_">
	<line class="st1" x1="1695.21" y1="132.09" x2="1479.5" y2="42.75"/>
</g>
<g id="LINE_4_">
	<line class="st1" x1="1479.5" y1="42.75" x2="1416.64" y2="42.75"/>
</g>
<g id="LINE_5_">
	<line class="st1" x1="1416.64" y1="42.75" x2="1384.96" y2="74.43"/>
</g>
<g id="LINE_6_">
	<line class="st1" x1="1384.96" y1="74.43" x2="1467.7" y2="274.19"/>
</g>
<g id="LINE_7_">
	<line class="st1" x1="1467.7" y1="274.19" x2="1497.06" y2="345.06"/>
</g>
<g id="LINE_8_">
	<line class="st1" x1="1497.06" y1="345.06" x2="1510.89" y2="378.45"/>
</g>
<g id="LINE_9_">
	<line class="st1" x1="1510.89" y1="378.45" x2="1552.06" y2="378.45"/>
</g>
<g id="LINE_10_">
	<line class="st1" x1="1552.06" y1="378.45" x2="1732.24" y2="198.26"/>
</g>
<g id="LINE_11_">
	<line class="st1" x1="1732.24" y1="198.26" x2="1727.11" y2="193.13"/>
</g>
<g id="LINE_12_">
	<line class="st1" x1="1727.11" y1="193.13" x2="1729.08" y2="191.15"/>
</g>
<g id="LINE_13_">
	<line class="st1" x1="1729.08" y1="191.15" x2="1734.22" y2="196.29"/>
</g>
<g id="LINE_14_">
	<line class="st1" x1="1695.21" y1="132.09" x2="1695.21" y2="42.75"/>
</g>
<g id="LINE_15_">
	<line class="st1" x1="1695.21" y1="42.75" x2="1479.5" y2="42.75"/>
</g>
<g id="LINE_16_">
	<line class="st1" x1="1479.5" y1="42.75" x2="1695.21" y2="132.09"/>
</g>
<g id="LINE_17_">
	<line class="st1" x1="121.98" y1="324.9" x2="191.31" y2="394.23"/>
</g>
<g id="LINE_18_">
	<line class="st1" x1="191.31" y1="394.23" x2="217.91" y2="394.23"/>
</g>
<g id="LINE_19_">
	<line class="st1" x1="217.91" y1="394.23" x2="238.28" y2="345.06"/>
</g>
<g id="LINE_20_">
	<line class="st1" x1="238.28" y1="345.06" x2="243.29" y2="332.95"/>
</g>
<g id="LINE_21_">
	<line class="st1" x1="243.29" y1="332.95" x2="287.1" y2="227.19"/>
</g>
<g id="LINE_22_">
	<line class="st1" x1="287.1" y1="227.19" x2="350.37" y2="74.43"/>
</g>
<g id="LINE_23_">
	<line class="st1" x1="350.37" y1="74.43" x2="318.69" y2="42.75"/>
</g>
<g id="LINE_24_">
	<line class="st1" x1="318.69" y1="42.75" x2="255.83" y2="42.75"/>
</g>
<g id="LINE_25_">
	<line class="st1" x1="255.83" y1="42.75" x2="121.98" y2="98.19"/>
</g>
<g id="LINE_26_">
	<line class="st1" x1="121.98" y1="98.19" x2="121.98" y2="324.9"/>
</g>
<g id="LWPOLYLINE_119_">
	<rect x="839.2" y="326.66" class="st0" width="11.37" height="2.14"/>
</g>
<g id="LWPOLYLINE_120_">
	<polygon class="st0" points="850.57,343.75 850.57,345.06 1497.06,345.06 1467.7,274.19 1393.7,274.19 1305.06,60.19 1175.5,60.19 
		1175.5,74.43 1141.32,74.43 1141.32,60.19 594.02,60.19 594.02,74.43 559.83,74.43 559.83,60.19 416.41,60.19 347.23,227.19 
		287.1,227.19 243.29,332.95 238.28,345.06 839.2,345.06 839.2,343.75 	"/>
</g>
<g id="LINE_27_">
	<line class="st1" x1="121.98" y1="98.19" x2="255.83" y2="42.75"/>
</g>
<g id="LINE_28_">
	<line class="st1" x1="255.83" y1="42.75" x2="121.98" y2="42.75"/>
</g>
<g id="LINE_29_">
	<line class="st1" x1="121.98" y1="42.75" x2="121.98" y2="98.19"/>
</g>
<g id="LWPOLYLINE_121_">
	<polygon class="st0" points="370.43,182.32 362.74,200.9 361.82,203.11 467.29,203.11 467.29,341.49 514.43,341.49 514.43,357.52 
		578.53,357.52 578.53,347.19 578.53,344.68 578.53,182.32 	"/>
</g>
<g id="LWPOLYLINE_122_">
	<polygon class="st1" points="363.01,465.68 360.42,465.68 360.42,451.75 284.94,451.75 284.94,510.19 360.42,510.19 360.42,487.04 
		363.01,487.04 	"/>
</g>
<g id="_x30_">
	<g id="LINE_30_">
		<line class="st2" x1="1343.64" y1="356.34" x2="1344.55" y2="355.42"/>
	</g>
	<g id="LINE_31_">
		<line class="st2" x1="1344.55" y1="355.42" x2="1342.93" y2="353.8"/>
	</g>
	<g id="LINE_32_">
		<line class="st2" x1="1342.93" y1="353.8" x2="1343.43" y2="354.31"/>
	</g>
	<g id="LINE_33_">
		<line class="st3" x1="1796.84" y1="1043.68" x2="1803.29" y2="1059.23"/>
	</g>
	<g id="LINE_34_">
		<line class="st3" x1="1787.96" y1="1047.36" x2="1796.84" y2="1043.68"/>
	</g>
</g>
<g id="S-GRID-IDEN">
	<g id="CIRCLE">
		<circle class="st1" cx="867.67" cy="1071.45" r="8.55"/>
	</g>
	<g id="MTEXT">
		<text transform="matrix(1 0 0 1 862.3727 1074.4868)" class="st4 st5 st6">26</text>
	</g>
	<g id="CIRCLE_1_">
		<circle class="st1" cx="1048.56" cy="1071.45" r="8.55"/>
	</g>
	<g id="MTEXT_1_">
		<text transform="matrix(1 0 0 1 1043.2634 1074.4868)" class="st4 st5 st6">25</text>
	</g>
	<g id="CIRCLE_2_">
		<circle class="st1" cx="1229.45" cy="1071.45" r="8.55"/>
	</g>
	<g id="MTEXT_2_">
		<text transform="matrix(1 0 0 1 1224.1542 1074.4868)" class="st4 st5 st6">24</text>
	</g>
	<g id="CIRCLE_3_">
		<circle class="st1" cx="686.78" cy="1071.45" r="8.55"/>
	</g>
	<g id="MTEXT_3_">
		<text transform="matrix(1 0 0 1 681.482 1074.4868)" class="st4 st5 st6">27</text>
	</g>
	<g id="CIRCLE_4_">
		<circle class="st1" cx="505.89" cy="1071.45" r="8.55"/>
	</g>
	<g id="MTEXT_4_">
		<text transform="matrix(1 0 0 1 500.5912 1074.4868)" class="st4 st5 st6">28</text>
	</g>
	<g id="CIRCLE_5_">
		<circle class="st1" cx="1423.15" cy="8.55" r="8.55"/>
	</g>
	<g id="MTEXT_5_">
		<text transform="matrix(1 0 0 1 1420.0936 11.637)" class="st4 st5 st6">A</text>
	</g>
	<g id="CIRCLE_6_">
		<circle class="st1" cx="1410.34" cy="1071.45" r="8.55"/>
	</g>
	<g id="MTEXT_6_">
		<text transform="matrix(1 0 0 1 1405.0449 1074.4868)" class="st4 st5 st6">23</text>
	</g>
	<g id="CIRCLE_7_">
		<circle class="st1" cx="324.99" cy="1071.45" r="8.55"/>
	</g>
	<g id="MTEXT_7_">
		<text transform="matrix(1 0 0 1 319.7005 1074.4868)" class="st4 st5 st6">29</text>
	</g>
	<g id="CIRCLE_8_">
		<circle class="st1" cx="1806.56" cy="1067.12" r="8.55"/>
	</g>
	<g id="MTEXT_8_">
		<text transform="matrix(1 0 0 1 1797.5133 1070.1577)" class="st4 st5 st6">21.5</text>
	</g>
	<g id="CIRCLE_9_">
		<circle class="st1" cx="1835.36" cy="636.27" r="8.55"/>
	</g>
	<g id="MTEXT_9_">
		<text transform="matrix(1 0 0 1 1826.3105 639.3079)" class="st4 st5 st6">20.6</text>
	</g>
	<g id="CIRCLE_10_">
		<circle class="st1" cx="1835.36" cy="309.95" r="8.55"/>
	</g>
	<g id="MTEXT_10_">
		<text transform="matrix(1 0 0 1 1826.3105 312.9887)" class="st4 st5 st6">20.4</text>
	</g>
	<g id="CIRCLE_11_">
		<circle class="st1" cx="1837.22" cy="188.61" r="8.55"/>
	</g>
	<g id="MTEXT_11_">
		<text transform="matrix(1 0 0 1 1827.4424 191.6579)" class="st4 st5 st6">19.5</text>
	</g>
	<g id="CIRCLE_12_">
		<circle class="st1" cx="1591.23" cy="1071.45" r="8.55"/>
	</g>
	<g id="MTEXT_12_">
		<text transform="matrix(1 0 0 1 1585.9355 1074.4868)" class="st4 st5 st6">22</text>
	</g>
	<g id="CIRCLE_13_">
		<circle class="st1" cx="1772.12" cy="1071.45" r="8.55"/>
	</g>
	<g id="MTEXT_13_">
		<text transform="matrix(1 0 0 1 1766.8263 1074.4868)" class="st4 st5 st6">21</text>
	</g>
	<g id="CIRCLE_14_">
		<circle class="st1" cx="84.26" cy="716.9" r="8.55"/>
	</g>
	<g id="MTEXT_14_">
		<text transform="matrix(1 0 0 1 78.8625 719.9317)" class="st4 st5 st6">31</text>
	</g>
	<g id="CIRCLE_15_">
		<circle class="st1" cx="81.48" cy="419.5" r="8.55"/>
	</g>
	<g id="MTEXT_15_">
		<text transform="matrix(1 0 0 1 72.3662 422.5443)" class="st4 st5 st6">31.4</text>
	</g>
	<g id="CIRCLE_16_">
		<circle class="st1" cx="81.48" cy="163.68" r="8.55"/>
	</g>
	<g id="MTEXT_16_">
		<text transform="matrix(1 0 0 1 72.3662 166.7262)" class="st4 st5 st6">31.6</text>
	</g>
	<g id="CIRCLE_17_">
		<circle class="st1" cx="79.63" cy="113.42" r="8.55"/>
	</g>
	<g id="MTEXT_17_">
		<text transform="matrix(1 0 0 1 74.2553 116.4748)" class="st4 st5 st6">32</text>
	</g>
	<g id="CIRCLE_18_">
		<circle class="st1" cx="144.1" cy="1071.45" r="8.55"/>
	</g>
	<g id="MTEXT_18_">
		<text transform="matrix(1 0 0 1 138.6961 1074.4868)" class="st4 st5 st6">30</text>
	</g>
	<g id="CIRCLE_19_">
		<circle class="st1" cx="78.98" cy="606.06" r="8.55"/>
	</g>
	<g id="MTEXT_19_">
		<text transform="matrix(1 0 0 1 75.0281 609.134)" class="st4 st5 st6">D</text>
	</g>
	<g id="CIRCLE_20_">
		<circle class="st1" cx="81.48" cy="479.33" r="8.55"/>
	</g>
	<g id="MTEXT_20_">
		<text transform="matrix(1 0 0 1 77.7647 482.4232)" class="st4 st5 st6">C</text>
	</g>
	<g id="CIRCLE_21_">
		<circle class="st1" cx="81.48" cy="200.85" r="8.55"/>
	</g>
	<g id="MTEXT_21_">
		<text transform="matrix(1 0 0 1 77.824 203.944)" class="st4 st5 st6">B</text>
	</g>
	<g id="CIRCLE_22_">
		<circle class="st1" cx="1837.87" cy="776.99" r="8.55"/>
	</g>
	<g id="MTEXT_22_">
		<text transform="matrix(1 0 0 1 1833.8185 780.0511)" class="st4 st5 st6">H</text>
	</g>
	<g id="CIRCLE_23_">
		<circle class="st1" cx="1837.87" cy="1004.17" r="8.55"/>
	</g>
	<g id="MTEXT_23_">
		<text transform="matrix(1 0 0 1 1835.2775 1007.2328)" class="st4 st5 st6">J</text>
	</g>
	<g id="CIRCLE_24_">
		<circle class="st1" cx="1441.8" cy="104.71" r="8.55"/>
	</g>
	<g id="MTEXT_24_">
		<text transform="matrix(1 0 0 1 1435.0033 107.8019)" class="st4 st5 st6">A.3</text>
	</g>
	<g id="CIRCLE_25_">
		<circle class="st1" cx="1475.28" cy="192.09" r="8.55"/>
	</g>
	<g id="MTEXT_25_">
		<text transform="matrix(1 0 0 1 1468.4811 195.183)" class="st4 st5 st6">A.6</text>
	</g>
	<g id="CIRCLE_26_">
		<circle class="st1" cx="1616.46" cy="427.94" r="8.55"/>
	</g>
	<g id="MTEXT_26_">
		<text transform="matrix(1 0 0 1 1607.4053 430.9777)" class="st4 st5 st6">20.7</text>
	</g>
	<g id="CIRCLE_27_">
		<circle class="st1" cx="1790.19" cy="254.2" r="8.55"/>
	</g>
	<g id="MTEXT_27_">
		<text transform="matrix(1 0 0 1 1781.14 257.243)" class="st4 st5 st6">20.3</text>
	</g>
	<g id="CIRCLE_28_">
		<circle class="st1" cx="1737.55" cy="162.47" r="8.55"/>
	</g>
	<g id="MTEXT_28_">
		<text transform="matrix(1 0 0 1 1730.0995 165.5632)" class="st4 st5 st6">B.2</text>
	</g>
	<g id="CIRCLE_29_">
		<circle class="st1" cx="1551.12" cy="404.29" r="8.55"/>
	</g>
	<g id="MTEXT_29_">
		<text transform="matrix(1 0 0 1 1543.723 407.3379)" class="st4 st5 st6">B.4</text>
	</g>
</g>
<g id="S-GRID">
	<g id="LINE_35_">
		<line class="st7" x1="867.67" y1="8.3" x2="867.67" y2="1062.91"/>
	</g>
	<g id="LINE_36_">
		<line class="st7" x1="1048.56" y1="8.3" x2="1048.56" y2="1062.91"/>
	</g>
	<g id="LINE_37_">
		<line class="st7" x1="1229.45" y1="8.3" x2="1229.45" y2="1062.91"/>
	</g>
	<g id="LINE_38_">
		<line class="st7" x1="686.78" y1="8.3" x2="686.78" y2="1062.91"/>
	</g>
	<g id="LINE_39_">
		<line class="st7" x1="505.89" y1="8.3" x2="505.89" y2="1062.91"/>
	</g>
	<g id="LINE_40_">
		<line class="st8" x1="318.23" y1="14.59" x2="358.49" y2="54.85"/>
	</g>
	<g id="LINE_41_">
		<line class="st8" x1="358.49" y1="54.85" x2="1376.85" y2="54.85"/>
	</g>
	<g id="LINE_42_">
		<line class="st8" x1="1376.85" y1="54.85" x2="1417.1" y2="14.59"/>
	</g>
	<g id="LINE_43_">
		<line class="st8" x1="1410.34" y1="135.7" x2="1410.34" y2="1062.91"/>
	</g>
	<g id="LINE_44_">
		<line class="st8" x1="324.99" y1="135.7" x2="324.99" y2="1062.91"/>
	</g>
	<g id="LINE_45_">
		<line class="st8" x1="1357.56" y1="8.3" x2="1787.96" y2="1047.36"/>
	</g>
	<g id="LINE_46_">
		<line class="st8" x1="1463.75" y1="264.65" x2="1829.32" y2="630.22"/>
	</g>
	<g id="LINE_47_">
		<line class="st8" x1="1626.91" y1="101.49" x2="1829.32" y2="303.9"/>
	</g>
	<g id="LINE_48_">
		<line class="st8" x1="1401.91" y1="8.3" x2="1829.32" y2="185.33"/>
	</g>
	<g id="LINE_49_">
		<line class="st8" x1="1591.23" y1="518.47" x2="1591.23" y2="1062.91"/>
	</g>
	<g id="LINE_50_">
		<line class="st8" x1="1772.12" y1="518.47" x2="1772.12" y2="1062.91"/>
	</g>
	<g id="LINE_51_">
		<line class="st8" x1="377.77" y1="8.3" x2="87.53" y2="709"/>
	</g>
	<g id="LINE_52_">
		<line class="st8" x1="295.89" y1="205.09" x2="87.53" y2="413.46"/>
	</g>
	<g id="LINE_53_">
		<line class="st8" x1="167.98" y1="77.19" x2="87.53" y2="157.64"/>
	</g>
	<g id="LINE_54_">
		<line class="st8" x1="333.42" y1="8.3" x2="87.53" y2="110.15"/>
	</g>
	<g id="LINE_55_">
		<line class="st8" x1="144.1" y1="518.47" x2="144.1" y2="1062.91"/>
	</g>
	<g id="LINE_56_">
		<line class="st7" x1="1829.32" y1="606.06" x2="87.53" y2="606.06"/>
	</g>
	<g id="LINE_57_">
		<line class="st8" x1="1829.32" y1="303.86" x2="1591.21" y2="541.97"/>
	</g>
	<g id="LINE_58_">
		<line class="st7" x1="1591.21" y1="541.97" x2="144.12" y2="541.97"/>
	</g>
	<g id="LINE_59_">
		<line class="st8" x1="144.12" y1="541.97" x2="87.53" y2="485.37"/>
	</g>
	<g id="LINE_60_">
		<line class="st8" x1="1716.22" y1="8.3" x2="1716.22" y2="138.48"/>
	</g>
	<g id="LINE_61_">
		<line class="st8" x1="1716.22" y1="138.48" x2="1500.74" y2="353.96"/>
	</g>
	<g id="LINE_62_">
		<line class="st7" x1="1500.74" y1="353.96" x2="234.59" y2="353.96"/>
	</g>
	<g id="LINE_63_">
		<line class="st8" x1="234.59" y1="353.96" x2="87.53" y2="206.89"/>
	</g>
	<g id="LINE_64_">
		<line class="st7" x1="87.53" y1="776.99" x2="1829.32" y2="776.99"/>
	</g>
	<g id="LINE_65_">
		<line class="st8" x1="87.53" y1="1004.17" x2="1829.32" y2="1004.17"/>
	</g>
	<g id="LINE_66_">
		<line class="st8" x1="294.64" y1="105.82" x2="324.86" y2="136.03"/>
	</g>
	<g id="LINE_67_">
		<line class="st8" x1="324.86" y1="136.03" x2="1410.48" y2="136.03"/>
	</g>
	<g id="LINE_68_">
		<line class="st8" x1="1410.48" y1="136.03" x2="1435.76" y2="110.75"/>
	</g>
	<g id="LINE_69_">
		<line class="st8" x1="267.45" y1="199.48" x2="289.46" y2="221.49"/>
	</g>
	<g id="LINE_70_">
		<line class="st8" x1="289.46" y1="221.49" x2="1445.87" y2="221.49"/>
	</g>
	<g id="LINE_71_">
		<line class="st8" x1="1445.87" y1="221.49" x2="1469.23" y2="198.14"/>
	</g>
	<g id="LINE_72_">
		<line class="st8" x1="1529.94" y1="341.41" x2="1610.42" y2="421.89"/>
	</g>
	<g id="LINE_73_">
		<line class="st8" x1="1703.67" y1="167.68" x2="1784.15" y2="248.16"/>
	</g>
	<g id="LINE_74_">
		<line class="st8" x1="1529.47" y1="370.55" x2="1731.51" y2="168.52"/>
	</g>
	<g id="LINE_75_">
		<line class="st8" x1="1759.2" y1="196.21" x2="1557.17" y2="398.25"/>
	</g>
</g>
</svg>
