<?xml version="1.0" encoding="utf-8"?>
<!-- Generator: Adobe Illustrator 25.2.3, SVG Export Plug-In . SVG Version: 6.00 Build 0)  -->
<svg version="1.1" id="A-AREA-BNDY" xmlns="http://www.w3.org/2000/svg" xmlns:xlink="http://www.w3.org/1999/xlink" x="0px"
	 y="0px" viewBox="0 0 7640.15 5000" style="enable-background:new 0 0 7640.15 5000;" xml:space="preserve">
<style type="text/css">
	.st0{opacity:0.43;}
	.st1{fill:#BA9BC9;stroke:#000000;stroke-width:0.25;stroke-linecap:round;stroke-linejoin:round;stroke-miterlimit:10;}
	.st2{fill:#65C8D0;stroke:#000000;stroke-width:0.25;stroke-linecap:round;stroke-linejoin:round;stroke-miterlimit:10;}
	.st3{fill:none;stroke:#000000;stroke-width:0.25;stroke-linecap:round;stroke-linejoin:round;stroke-miterlimit:10;}
	.st4{fill:#BA9BC9;stroke:#000000;stroke-width:0.25;stroke-miterlimit:10;}
	
		.st5{fill:none;stroke:#000000;stroke-width:0.2551;stroke-linecap:round;stroke-linejoin:round;stroke-miterlimit:10;stroke-dasharray:0.1681,0.042,0.042,0.042;}
	.st6{font-family:'ArialMT';}
	.st7{font-size:37.3021px;}
	.st8{fill:none;stroke:#000000;stroke-width:0.2551;stroke-linecap:round;stroke-linejoin:round;stroke-miterlimit:10;}
	
		.st9{opacity:0.43;fill:#BA9BC9;stroke:#000000;stroke-width:0.25;stroke-linecap:round;stroke-linejoin:round;stroke-miterlimit:10;enable-background:new    ;}
</style>
<g id="_x30_0.27.10_2_" class="st0">
	<rect x="2248.88" y="3855.71" class="st1" width="279.32" height="183.4"/>
</g>
<g id="_x30_0.28.08B" class="st0">
	<polygon class="st1" points="1378.99,2379.88 1368.34,2379.88 1368.34,2322.46 1057.3,2322.46 1057.3,2563.29 1368.34,2563.29 
		1368.34,2467.9 1378.99,2467.9 	"/>
</g>
<g id="_x30_0.27.16" class="st0">
	<polygon class="st1" points="1409.58,1212.35 1377.9,1288.89 1374.1,1297.96 1808.72,1297.96 1808.72,1868.16 2002.94,1868.16 
		2002.94,1934.23 2267.03,1934.23 2267.03,1891.64 2267.03,1881.29 2267.03,1212.35 	"/>
</g>
<g id="LWPOLYLINE_120_" class="st0">
	<rect x="3341.14" y="1807.07" class="st2" width="46.87" height="8.81"/>
</g>
<g id="LINE_10_" class="st0">
	<line class="st3" x1="1066.2" y1="1397.19" x2="1326.93" y2="767.78"/>
</g>
<g id="LINE_9_" class="st0">
	<line class="st3" x1="885.72" y1="1832.95" x2="1066.2" y2="1397.19"/>
</g>
<g id="LINE_8_" class="st0">
	<line class="st3" x1="865.04" y1="1882.87" x2="885.72" y2="1832.95"/>
</g>
<g id="LINE_7_" class="st0">
	<line class="st3" x1="781.13" y1="2085.47" x2="865.04" y2="1882.87"/>
</g>
<g id="_x30_0.43.06" class="st0">
	<polygon class="st1" points="4974.58,3644.99 4974.58,3474.24 4806.8,3474.24 4806.8,3674.88 4932.95,3674.88 4932.95,3644.99 	"/>
</g>
<g id="_x30_0.27.07B" class="st0">
	<rect x="2345.71" y="3467.83" class="st1" width="278.14" height="207.05"/>
</g>
<g id="_x30_0.27.08B" class="st0">
	<rect x="2057.23" y="3467.83" class="st1" width="277.31" height="207.05"/>
</g>
<g id="_x30_0.23.19" class="st0">
	<rect x="5334.8" y="4220.51" class="st1" width="149.45" height="193.48"/>
</g>
<g id="_x30_0.29.08" class="st0">
	<polygon class="st1" points="948.91,2317.88 948.91,2575.2 1046.13,2575.2 1046.13,2566.39 1046.13,2317.88 	"/>
</g>
<g id="_x30_0.29.07" class="st0">
	<polygon class="st1" points="925.65,3565.75 1034.78,3674.88 1076.76,3674.88 1076.76,3646.65 1076.76,3413.54 1018.33,3413.54 
		955.06,3413.54 940.66,3413.54 940.66,3490.21 940.66,3547.85 940.66,3550.73 937.39,3554.01 	"/>
</g>
<g id="_x30_0.29.06" class="st0">
	<polygon class="st1" points="477.02,4405.35 477.02,4613.37 1328.37,4613.37 1328.37,4578.15 1204.75,4578.15 1204.75,4613.37 
		1075.1,4613.37 1075.1,4613.15 658.94,4613.15 658.94,4405.35 571.45,4405.35 	"/>
</g>
<g id="_x30_0.28.25" class="st0">
	<polygon class="st1" points="1520.59,4608.57 1520.59,4573.35 1335.53,4573.35 1335.53,4575.84 1335.53,4608.57 	"/>
</g>
<g id="_x30_0.23.10" class="st0">
	<polygon class="st1" points="5560.75,3438.11 5560.75,3674.88 5676.86,3674.88 5676.86,3636.74 5722.33,3636.74 5722.33,3438.11 	
		"/>
</g>
<g id="_x30_0.23.09" class="st0">
	<rect x="5560.75" y="3193.09" class="st1" width="161.59" height="237.86"/>
</g>
<g id="_x30_0.28.01" class="st0">
	<polygon class="st1" points="1369.47,1309.18 1306.86,1460.33 1261.74,1569.25 1253.62,1565.89 1202.61,1693.27 1224.73,1702.47 
		1224.73,1878.46 1250.26,1878.46 1250.26,1934.23 1797.5,1934.23 1797.5,1881.38 1797.5,1868.07 1797.5,1309.18 	"/>
</g>
<g id="_x30_0.26.12" class="st0">
	<polygon class="st1" points="3051.61,2977.57 3051.61,2921.45 2959.02,2921.45 2959.02,2977.57 3050.83,2977.57 	"/>
</g>
<g id="_x30_0.26.13" class="st0">
	<polygon class="st1" points="2855.73,2977.57 2856.56,2977.57 2947.8,2977.57 2947.8,2921.45 2855.73,2921.45 	"/>
</g>
<g id="_x30_0.28.10" class="st0">
	<polygon class="st1" points="1825.04,2921.45 1732.4,2921.45 1732.4,2977.57 1824.21,2977.57 1825.04,2977.57 	"/>
</g>
<g id="LWPOLYLINE_104_" class="st0">
	<polygon class="st1" points="1636.31,2921.45 1636.31,2979.8 1721.23,2979.8 1721.23,2921.54 1721.23,2921.45 	"/>
</g>
<g id="_x30_0.27.14" class="st0">
	<polygon class="st1" points="2249.62,4608.57 2249.62,4154.4 2249.62,4154.31 2055.74,4154.31 2055.74,4171.81 2055.74,4559.17 
		2055.74,4608.57 	"/>
</g>
<g id="_x30_0.27.11" class="st0">
	<polygon class="st1" points="2238.23,4039.11 2238.23,3855.71 2102.13,3855.71 2102.13,3873.12 2102.13,3961.35 2144.33,3961.35 
		2144.33,3968.51 2094.97,3968.51 2094.97,3876.26 1942.77,3876.26 1942.77,4039.11 	"/>
</g>
<g id="_x30_0.23.03" class="st0">
	<rect x="5045.4" y="2805.73" class="st1" width="308.68" height="82.73"/>
</g>
<g id="_x30_0.23.08" class="st0">
	<polygon class="st1" points="5101.52,3087.45 5045.4,3087.45 5045.4,3363.84 5200,3363.84 5200,3087.45 5112.69,3087.45 
		5112.69,3143.21 5101.52,3143.21 	"/>
</g>
<g id="_x30_0.24.06" class="st0">
	<polygon class="st1" points="4236.03,4611.53 4486.03,4611.53 4486.03,4178.49 4350.75,4178.49 4144.53,4178.49 4144.53,4261.13 
		4144.53,4269.12 4144.53,4314.02 4236.03,4314.02 	"/>
</g>
<g id="_x30_0.23.15" class="st0">
	<polygon class="st1" points="5484.25,4056.74 5484.25,3899.74 5266.94,3899.74 5266.94,4056.74 5329.21,4056.74 	"/>
</g>
<g id="_x30_0.26.04" class="st0">
	<polygon class="st1" points="3051.61,2347.94 3273.15,2347.94 3313.17,2347.94 3313.17,2083.33 3076.92,2083.33 3076.92,2267.26 
		3051.61,2267.26 	"/>
</g>
<g id="_x30_0.28.03" class="st0">
	<polygon class="st1" points="1827.7,2516.33 2117.45,2516.33 2117.45,2428.28 2059.5,2428.28 2047.93,2428.28 2047.93,2358.59 
		1836.69,2358.59 1836.69,2428.28 1827.7,2428.28 	"/>
</g>
<g id="_x30_0.26.07" class="st0">
	<polygon class="st1" points="2634.19,2347.94 2855.73,2347.94 2855.73,2267.26 2831.34,2267.26 2831.34,2083.33 2602.46,2083.33 
		2602.46,2347.94 	"/>
</g>
<g id="_x30_0.28.17" class="st0">
	<polygon class="st1" points="2046.58,3674.88 2046.58,3674.79 2046.58,3462.5 2046.58,3413.63 2043.05,3413.63 1832.28,3413.63 
		1832.19,3413.63 1832.19,3604.36 1832.19,3610.04 1832.19,3674.88 	"/>
</g>
<g id="_x30_0.26.05" class="st0">
	<polygon class="st1" points="3048.12,2597.37 3048.12,2521.66 3053.44,2521.66 3053.44,2428.28 3048.12,2428.28 3048.12,2353.27 
		3051.61,2353.27 3051.61,2344.45 3051.61,2272.97 3051.61,2264.16 3048.12,2264.16 3048.12,2153.76 2959.02,2153.76 
		2959.02,2597.37 	"/>
</g>
<g id="_x30_0.26.06" class="st0">
	<polygon class="st1" points="2859.22,2521.66 2859.22,2597.37 2947.8,2597.37 2947.8,2153.76 2859.22,2153.76 2859.22,2254.08 
		2855.73,2254.08 2855.73,2272.97 2855.73,2344.45 2855.73,2353.27 2859.22,2353.27 2859.22,2428.28 2859.22,2512.8 	"/>
</g>
<g id="_x30_0.28.05" class="st0">
	<polygon class="st1" points="1632.65,2592.61 1721.23,2592.61 1721.23,2153.76 1632.65,2153.76 1632.65,2274.33 1632.65,2499.84 	
		"/>
</g>
<g id="_x30_0.28.04" class="st0">
	<polygon class="st1" points="1826.04,2597.37 1826.04,2521.66 1827.7,2521.66 1827.7,2512.8 1827.7,2428.28 1827.7,2344.45 
		1827.7,2272.97 1827.7,2264.16 1826.04,2264.16 1826.04,2153.76 1736.89,2153.76 1736.89,2592.61 1736.89,2597.37 	"/>
</g>
<g id="_x30_0.23.17" class="st0">
	<rect x="5334.8" y="4067.91" class="st1" width="149.45" height="141.38"/>
</g>
<g id="_x30_0.23.16" class="st0">
	<polygon class="st1" points="5185.34,4611.53 5255.77,4611.53 5255.77,4413.99 5323.63,4413.99 5323.63,4214.92 5323.63,4067.91 
		5261.36,4067.91 5255.77,4067.91 5255.12,4067.91 5252.5,4067.91 5185.34,4067.91 	"/>
</g>
<g id="_x30_0.28.19" class="st0">
	<polygon class="st1" points="855,3413.54 855,3485.32 887.6,3485.32 930.01,3485.32 930.01,3413.54 892.22,3413.54 	"/>
</g>
<g id="_x30_0.25.05" class="st0">
	<polygon class="st1" points="3423.18,3855.71 3423.18,4111.55 3448.53,4111.55 3467.2,4111.55 3558.71,4111.55 3558.71,3855.71 	
		"/>
</g>
<g id="_x30_0.23.07" class="st0">
	<polygon class="st1" points="5211.18,3414.89 5211.18,3446.71 5354.04,3446.71 5354.04,3087.45 5211.18,3087.45 5211.18,3369.43 	
		"/>
</g>
<g id="_x30_0.22.02" class="st0">
	<polygon class="st1" points="6100.53,2805.73 5732.59,2805.73 5722.33,2805.73 5467.93,2805.73 5467.93,3076.23 5559.18,3076.23 
		6212.59,3076.23 	"/>
</g>
<g id="_x30_0.23.01" class="st0">
	<polygon class="st1" points="5045.4,3076.23 5107.1,3076.23 5205.59,3076.23 5354.04,3076.23 5354.04,2899.64 5045.4,2899.64 	"/>
</g>
<g id="_x30_0.23.11" class="st0">
	<polygon class="st1" points="5357.92,3452.33 5357.92,3646.17 5357.92,3674.88 5553.59,3674.88 5553.59,3434.53 5553.59,3193.18 
		5553.59,3187.51 5553.59,3087.45 5462.35,3087.45 5365.26,3087.45 5365.26,3443.48 5365.26,3446.71 5357.92,3446.71 	"/>
</g>
<g id="_x30_0.26.20" class="st0">
	<polygon class="st1" points="3058.77,3445.66 3058.77,3604.36 3058.77,3610.04 3058.77,3674.88 3301.78,3674.88 3301.78,3445.66 	
		"/>
</g>
<g id="_x30_0.26.03" class="st0">
	<polygon class="st1" points="3464.46,2516.33 3569.92,2516.33 3569.92,2083.33 3348.38,2083.33 3348.38,2243.43 3447.04,2243.43 
		3447.04,2254.08 3348.38,2254.08 3348.38,2361.51 3326.87,2361.51 3293.53,2361.51 3293.53,2417.67 3348.38,2417.67 
		3348.38,2516.33 3436.4,2516.33 3436.4,2342.09 3447.04,2342.09 3447.04,2516.33 3461.27,2516.33 3461.36,2516.33 	"/>
</g>
<g id="_x30_0.26.08" class="st0">
	<polygon class="st1" points="3058.77,2428.28 3053.44,2428.28 3053.44,2516.33 3348.38,2516.33 3348.38,2428.28 3290.39,2428.28 
		3270.06,2428.28 3270.06,2358.59 3059.6,2358.59 3058.77,2358.59 	"/>
</g>
<g id="_x30_0.26.19" class="st0">
	<polygon class="st1" points="3569.92,3369.16 3481.87,3369.16 3481.87,3363.84 3399.7,3363.84 3399.7,3369.16 3335.16,3369.16 
		3335.16,3668.64 3423.18,3668.64 3423.18,3650.84 3514.16,3650.84 3514.16,3625.53 3569.92,3625.53 3569.92,3610.04 
		3569.92,3569.41 3514.16,3569.41 3514.16,3558.76 3569.92,3558.76 3569.92,3502.65 3514.16,3502.65 3514.16,3492.04 
		3569.92,3492.04 3569.92,3435.88 3514.16,3435.88 3514.16,3425.28 3569.92,3425.28 	"/>
</g>
<g id="_x30_0.26.14" class="st0">
	<polygon class="st1" points="3464.46,3136.23 3137.44,3136.23 3137.44,3224.99 3312.43,3224.99 3312.43,3358.52 3330.32,3358.52 
		3399.7,3358.52 3399.7,3363.84 3481.87,3363.84 3481.87,3358.52 3569.92,3358.52 3569.92,3180.96 3534.71,3180.96 3534.71,3136.23 
			"/>
</g>
<g id="_x30_0.26.15" class="st0">
	<polygon class="st1" points="3058.77,3235.64 3058.77,3435.01 3301.78,3435.01 3301.78,3363.36 3301.78,3235.64 3132.12,3235.64 	
		"/>
</g>
<g id="_x30_0.26.16" class="st0">
	<polygon class="st1" points="3126.8,3136.23 3048.12,3136.23 3048.12,3063.97 3058.77,3063.97 3058.77,2984.73 2959.02,2984.73 
		2959.02,3604.45 3048.12,3604.45 3048.12,3440.33 3048.12,3224.99 3126.8,3224.99 	"/>
</g>
<g id="_x30_0.26.18" class="st0">
	<rect x="2634.49" y="3136.23" class="st1" width="214.12" height="266.75"/>
</g>
<g id="_x30_0.27.01" class="st0">
	<polygon class="st1" points="2345.71,2516.33 2445.68,2516.33 2468.94,2516.33 2468.94,2342.09 2479.58,2342.09 2479.58,2516.33 
		2567.25,2516.33 2567.25,2417.67 2622.1,2417.67 2622.1,2361.51 2588.76,2361.51 2567.25,2361.51 2567.25,2254.08 2468.94,2254.08 
		2468.94,2243.43 2567.25,2243.43 2567.25,2083.33 2345.71,2083.33 	"/>
</g>
<g id="_x30_0.26.09" class="st0">
	<polygon class="st1" points="2567.25,2516.33 2859.22,2516.33 2859.22,2428.28 2848.62,2428.28 2848.62,2358.59 2847.79,2358.59 
		2637.33,2358.59 2637.33,2428.28 2625.2,2428.28 2567.25,2428.28 	"/>
</g>
<g id="_x30_0.26.17" class="st0">
	<polygon class="st1" points="2848.62,3063.97 2859.22,3063.97 2859.22,3130.91 2859.22,3408.31 2859.22,3604.45 2947.8,3604.45 
		2947.8,2984.73 2848.62,2984.73 	"/>
</g>
<g id="_x30_0.27.02" class="st0">
	<polygon class="st1" points="2117.45,2516.33 2205.11,2516.33 2205.11,2342.09 2215.76,2342.09 2215.76,2516.33 2239.06,2516.33 
		2339.03,2516.33 2339.03,2083.33 2117.45,2083.33 2117.45,2243.43 2215.76,2243.43 2215.76,2254.08 2117.45,2254.08 
		2117.45,2361.51 2095.93,2361.51 2062.64,2361.51 2062.64,2417.67 2117.45,2417.67 	"/>
</g>
<g id="_x30_0.28.02" class="st0">
	<polygon class="st1" points="1827.7,2347.94 2051.07,2347.94 2082.23,2347.94 2082.23,2083.33 1853.36,2083.33 1853.36,2267.26 
		1827.7,2267.26 	"/>
</g>
<g id="_x30_0.28.13" class="st0">
	<polygon class="st1" points="1821.55,3130.91 1821.55,3063.97 1832.19,3063.97 1832.19,2984.73 1732.4,2984.73 1732.4,3065.24 
		1732.4,3604.45 1821.55,3604.45 1821.55,3408.31 1821.55,3402.98 1821.55,3402.89 	"/>
</g>
<g id="_x30_0.28.12" class="st0">
	<rect x="1832.19" y="3136.23" class="st1" width="214.39" height="266.75"/>
</g>
<g id="_x30_0.28.08A" class="st0">
	<polygon class="st1" points="1623.83,2581.96 1632.65,2581.96 1632.65,2499.84 1622,2499.84 1622,2277.91 1477.65,2277.91 
		1477.65,2379.88 1477.65,2489.19 1539.83,2489.19 1539.83,2499.84 1467.05,2499.84 1467.05,2379.88 1379.07,2379.88 
		1378.99,2379.88 1378.99,2467.9 1378.99,2566.39 1378.99,2581.96 	"/>
</g>
<g id="_x30_0.28.07" class="st0">
	<polygon class="st1" points="954.8,2300.33 1368.91,2300.33 1368.91,2235.71 1379.51,2235.71 1379.51,2303.48 1379.51,2317.53 
		1379.51,2379.88 1467.05,2379.88 1467.05,2274.2 1467.05,2137.83 1435.28,2137.83 1435.28,2082.89 1379.51,2082.89 
		1379.51,2147.56 1368.91,2147.56 1368.91,2082.89 1044.25,2082.89 	"/>
</g>
<g id="_x30_0.28.14" class="st0">
	<polygon class="st1" points="1632.65,3162.98 1632.65,3368.42 1632.65,3604.45 1721.23,3604.45 1721.23,3065.24 1541.14,3065.24 
		1541.14,3162.98 	"/>
</g>
<g id="_x30_0.28.06" class="st0">
	<polygon class="st1" points="1477.65,2270.75 1622,2270.75 1622,2153.85 1622,2148.13 1622,2083.33 1477.65,2083.33 
		1477.65,2135.04 	"/>
</g>
<g id="_x30_0.28.18" class="st0">
	<polygon class="st1" points="1622,3604.36 1622,3373.75 1350.93,3373.75 1239.96,3373.75 1239.96,3413.54 1146.14,3413.54 
		1141.3,3413.54 1141.21,3413.54 1087.37,3413.54 1087.37,3643.51 1239.96,3643.51 1239.96,3674.88 1622,3674.88 1622,3610.04 	"/>
</g>
<g id="_x30_0.29.02" class="st0">
	<polygon class="st1" points="1151.95,3070.56 955.15,3070.56 879.05,3070.56 879.05,3162.98 949.47,3162.98 949.47,3170.14 
		879.05,3170.14 879.05,3269.54 949.47,3269.54 949.47,3276.7 875.9,3276.7 855,3276.7 855,3347.13 895.37,3347.13 895.37,3402.89 
		935.34,3402.89 951.48,3402.89 951.48,3347.13 958.64,3347.13 958.64,3402.89 1014.75,3402.89 1014.75,3347.13 1021.91,3347.13 
		1021.91,3402.89 1078.03,3402.89 1078.03,3347.13 1085.18,3347.13 1085.18,3402.89 1141.3,3402.89 1141.3,3367.94 1141.3,3276.7 
		1131.57,3276.7 1019.9,3276.7 1019.9,3269.54 1128.47,3269.54 1128.47,3170.14 1019.9,3170.14 1019.9,3162.98 1131.57,3162.98 
		1151.95,3162.98 	"/>
</g>
<g id="_x30_0.28.16" class="st0">
	<polygon class="st1" points="1530.49,3070.56 1151.95,3070.56 1151.95,3157.75 1151.95,3166.56 1151.95,3273.12 1151.95,3363.1 
		1230.14,3363.1 1235.12,3363.1 1345.61,3363.1 1345.61,3162.98 1530.49,3162.98 1530.49,3073.22 	"/>
</g>
<g id="_x30_0.28.15" class="st0">
	<polygon class="st1" points="1622,3363.1 1622,3173.63 1535.82,3173.63 1356.25,3173.63 1356.25,3363.1 	"/>
</g>
<g id="LWPOLYLINE_53_" class="st0">
	<rect x="3338.17" y="3860.12" class="st2" width="36.13" height="32.29"/>
</g>
<g id="LWPOLYLINE_52_" class="st0">
	<rect x="3080.15" y="3860.12" class="st2" width="36.13" height="32.29"/>
</g>
<g id="_x30_0.26.23" class="st0">
	<polygon class="st1" points="3461.53,4262.31 3461.53,4186.04 3436.57,4186.04 3436.57,4127.35 2905.43,4127.35 2905.43,4186.04 
		2848.62,4186.04 2848.62,4262.31 2865.55,4262.31 2870.52,4262.31 2905.43,4262.31 2905.43,4473.6 2880.51,4473.6 2880.51,4548.44 
		2905.43,4548.44 2905.43,4604.64 2905.43,4608.57 3059.34,4608.57 3436.57,4608.57 3436.57,4548.44 3461.53,4548.44 
		3461.53,4473.6 3436.57,4473.6 3436.57,4262.31 	"/>
</g>
<g id="_x30_0.27.09" class="st0">
	<polygon class="st1" points="2538.84,3855.71 2538.84,4039.11 2742.97,4039.11 2742.97,3937.96 2742.97,3932.29 2742.97,3855.71 	
		"/>
</g>
<g id="_x30_0.27.12" class="st0">
	<polygon class="st1" points="2567.25,4462.95 2669.05,4462.95 2669.05,4473.6 2757.07,4473.6 2757.07,4462.95 2860.7,4462.95 
		2860.7,4272.96 2856.56,4272.96 2840.63,4272.96 2742.97,4272.96 2742.97,4208.38 2567.25,4208.38 	"/>
</g>
<g id="_x30_0.27.15" class="st0">
	<polygon class="st1" points="2534.96,4548.44 2545.6,4548.44 2545.6,4602.15 2690.87,4602.15 2690.87,4564.58 2735.25,4564.58 
		2735.25,4602.15 2880.51,4602.15 2880.51,4551.53 2880.51,4542.72 2880.51,4473.6 2870.52,4473.6 2865.55,4473.6 2757.07,4473.6 
		2669.05,4473.6 2564.15,4473.6 2560.92,4473.6 2534.96,4473.6 	"/>
</g>
<g id="_x30_0.27.13" class="st0">
	<polygon class="st1" points="2446.94,4608.31 2446.94,4608.57 2534.96,4608.57 2534.96,4602.24 2534.96,4548.44 2534.96,4479.32 
		2534.96,4470.46 2534.96,4202.62 2534.96,4154.31 2446.94,4154.31 2446.94,4219.2 2382.75,4219.2 2382.75,4208.6 2436.3,4208.6 
		2436.3,4154.31 2260.22,4154.31 2260.22,4602.02 2260.22,4603.46 2436.3,4603.46 2436.3,4317.91 2382.75,4317.91 2382.75,4307.26 
		2446.94,4307.26 	"/>
</g>
<g id="_x30_0.28.23" class="st0">
	<polygon class="st1" points="1531.23,4154.31 1531.23,4352.55 1531.23,4569.77 1531.23,4608.57 1944.95,4608.57 1944.95,4570.78 
		1990.46,4570.78 1990.46,4608.57 2045.1,4608.57 2045.1,4559.17 2048.41,4559.17 2048.41,4171.81 2045.1,4171.81 2045.1,4154.31 	
		"/>
</g>
<g id="_x30_0.28.21" class="st0">
	<polygon class="st1" points="1221.29,3855.71 1221.29,3949.61 1314.62,3949.61 1482.62,3949.61 1531.23,3949.61 1531.23,3989.41 
		1531.23,4042.6 1531.23,4051.85 1531.23,4143.67 2050.42,4143.67 2254.9,4143.67 2260.05,4143.67 2260.31,4143.67 2441.62,4143.67 
		2545.6,4143.67 2545.6,4197.77 2564.15,4197.77 2742.97,4197.77 2742.97,4143.67 2753.58,4143.67 2753.58,4203.1 2753.58,4262.31 
		2848.62,4262.31 2848.62,4182.89 2853.55,4181.15 2853.55,4125.99 2853.55,3937.88 2753.58,3937.88 2753.58,4049.76 
		2533.52,4049.76 2243.55,4049.76 1937.45,4049.76 1625.1,4049.76 1625.1,3855.71 	"/>
</g>
<g id="_x30_0.28.24" class="st0">
	<polygon class="st1" points="1520.59,4566.2 1520.59,4357.88 1335.53,4357.88 1335.53,4366.12 1335.53,4566.2 	"/>
</g>
<g id="_x30_0.28.22" class="st0">
	<polygon class="st1" points="1479.48,3960.26 1319.95,3960.26 1319.95,4051.85 1319.95,4282.04 1319.95,4347.23 1332.43,4347.23 
		1520.59,4347.23 1520.59,4148.99 1520.59,4055.43 1482.62,4055.43 1402.11,4055.43 1402.11,4048.28 1479.48,4048.28 
		1479.48,4039.46 1520.59,4039.46 1520.59,3992.55 1479.48,3992.55 	"/>
</g>
<g id="_x30_0.29.04" class="st0">
	<polygon class="st1" points="1309.3,3960.26 1215.96,3960.26 1080.43,3960.26 1080.43,4048.28 1155.22,4048.28 1155.22,4055.43 
		1080.43,4055.43 1080.43,4278.46 1155.22,4278.46 1155.22,4285.61 1080.43,4285.61 1080.43,4347.23 1155.22,4347.23 
		1155.22,4357.88 1080.43,4357.88 1080.43,4413.82 1136.15,4413.82 1136.15,4420.97 1080.43,4420.97 1080.43,4477.09 
		1136.15,4477.09 1136.15,4484.25 1080.43,4484.25 1080.43,4540.36 1136.15,4540.36 1136.15,4547.52 1080.43,4547.52 
		1080.43,4603.64 1200.17,4603.64 1200.17,4573.57 1328.37,4573.57 1328.37,4569.77 1328.37,4369.22 1234.46,4369.22 
		1234.46,4347.23 1309.3,4347.23 1309.3,4285.61 1234.46,4285.61 1234.46,4278.46 1309.3,4278.46 1309.3,4055.43 1234.46,4055.43 
		1234.46,4048.28 1309.3,4048.28 	"/>
</g>
<g id="LWPOLYLINE_40_" class="st0">
	<rect x="3664.79" y="4259.91" class="st2" width="211.29" height="10.65"/>
</g>
<g id="_x30_0.22.04" class="st0">
	<polygon class="st1" points="6103.23,3674.88 6278.96,3674.88 6278.96,3649.4 6278.96,3499.72 6103.23,3499.72 	"/>
</g>
<g id="_x30_0.26.21" class="st0">
	<polygon class="st1" points="2634.49,3674.79 2634.49,3674.88 2848.62,3674.88 2848.62,3610.04 2848.62,3604.36 2848.62,3413.63 
		2634.49,3413.63 2634.49,3462.5 	"/>
</g>
<g id="_x30_0.22.01" class="st0">
	<polygon class="st1" points="7191.61,4634.71 5753.97,1163.91 5610.54,817.61 5589.5,766.82 5329.3,874.6 5329.21,874.6 
		5424.12,1103.74 5464.92,1202.27 5465.14,1202.79 5463.79,1203.36 5661.81,1681.44 5663.16,1680.87 5666.43,1688.73 
		5684.06,1731.32 5641.52,1748.95 5620.75,1728.17 5394.19,1954.73 5345.79,1954.73 5345.79,2072.12 5547.74,2072.12 
		5658.32,2182.69 5732.59,2182.69 5744.5,2182.69 5781.02,2182.69 5781.02,2232.57 5742.88,2232.57 5742.88,2436.52 
		5965.87,2436.52 5965.87,2447.74 5742.88,2447.74 5742.88,2612.6 6036.3,2612.6 6036.3,2623.81 5742.88,2623.81 5742.88,2785.18 
		6114.23,2785.18 6235.49,3077.93 6394.38,3461.5 6299.51,3500.81 6299.51,3639.1 6411.92,3639.1 6422.56,3639.1 6463.28,3639.1 
		6463.28,3686.05 6422.17,3686.05 6422.17,3894.15 6422.17,3987.75 6480.86,3987.75 6480.86,4583.74 6480.86,4634.71 	"/>
</g>
<g id="_x30_0.24.05" class="st0">
	<polygon class="st1" points="4144.53,3855.71 4144.53,4167.32 4144.62,4167.32 4345.17,4167.32 4345.17,3855.71 4332.86,3855.71 	
		"/>
</g>
<g id="_x30_0.26.01" class="st0">
	<polygon class="st1" points="5443.71,1212.35 2278.2,1212.35 2278.2,1881.38 2454.84,1881.38 2454.84,1934.23 2683.71,1934.23 
		2742.41,1934.23 3429.07,1934.23 3487.76,1934.23 4174.42,1934.23 4233.11,1934.23 4919.77,1934.23 4978.46,1934.23 
		5078.78,1934.23 5078.78,1872.57 5248.96,1872.57 5248.96,1934.23 5335.54,1934.23 5335.54,1943.56 5389.56,1943.56 
		5616.82,1716.31 5642,1691.13 	"/>
</g>
<g id="_x30_0.26.02" class="st0">
	<polygon class="st4" points="1211.03,1645.66 1245.5,1562.53 1253.62,1565.89 1532.33,870.07 1320.86,782.44 1306.29,817.61 
		1268.15,909.73 1240.75,975.84 1162.51,1164.7 986.22,1590.37 849.85,1919.52 657.81,2383.16 821.79,2383.16 821.79,3844.54 
		1080.43,3844.54 1080.43,3858.02 1080.43,3949.61 1210.64,3949.61 1210.64,3858.94 1210.64,3844.54 1224.78,3844.54 
		1630.42,3844.54 1774.94,3844.54 1937.45,3844.54 2099.03,3844.54 2243.55,3844.54 2533.52,3844.54 2754.14,3844.54 
		2754.14,3926.71 2856.65,3926.71 2859.79,3926.71 2859.79,3844.54 3417.59,3844.54 3564.34,3844.54 4004.19,3844.54 
		4004.19,4117.13 4004.19,4137.95 4004.19,4196.64 4004.19,4261.22 4133.31,4261.22 4133.31,4178.57 4133.31,4178.49 
		4133.31,4172.9 4133.31,3844.54 4332.86,3844.54 4332.86,3845.98 4497.2,3845.98 5255.77,3845.98 5255.77,3888.52 5489.88,3888.52 
		5677.12,3888.52 6401.66,3888.52 6401.66,3680.47 6401.66,3659.65 6290.13,3659.65 6290.13,3686.05 6097.65,3686.05 
		5727.92,3686.05 5679.96,3686.05 5557.17,3686.05 5346.71,3686.05 5346.71,3651.75 5205.59,3651.75 4985.79,3651.75 
		4985.79,3656.95 4985.79,3686.05 4936.09,3686.05 4801.17,3686.05 4602.58,3686.05 4098.1,3686.05 4098.1,3615.62 3997.78,3615.62 
		3997.78,3686.05 3681.42,3686.05 3681.42,3615.62 3581.1,3615.62 3581.1,3628.67 3581.1,3686.05 3426.32,3686.05 3330.32,3686.05 
		3306.62,3686.05 3047.6,3686.05 3047.6,3615.62 2953.43,3615.62 2859.79,3615.62 2859.79,3686.05 2629.17,3686.05 2623.84,3686.05 
		2623.76,3686.05 2340.12,3686.05 2057.31,3686.05 2057.23,3686.05 2051.9,3686.05 1820.98,3686.05 1820.98,3615.62 
		1726.81,3615.62 1633.17,3615.62 1633.17,3686.05 1236.86,3686.05 1082.04,3686.05 1030.16,3686.05 914,3569.89 858.23,3514.12 
		843.83,3499.72 843.83,3490.21 843.83,3408.22 843.83,3350.27 843.83,3273.12 843.83,3065.72 843.83,3027.84 843.83,2612.07 
		937.74,2612.07 937.74,2580.79 937.74,2312.29 937.74,2305.4 939.35,2301.43 1034.35,2072.12 1373.66,2072.12 1438.25,2072.12 
		1472.81,2072.12 1627.58,2072.12 1826.57,2072.12 1845.77,2072.12 2082.62,2072.12 2108.11,2072.12 2340.12,2072.12 
		2572.14,2072.12 2597.62,2072.12 2834.48,2072.12 2854.2,2072.12 3053.18,2072.12 3073.82,2072.12 3318.01,2072.12 3343.5,2072.12 
		3575.51,2072.12 4485.2,2072.12 5039.81,2072.12 5325.24,2072.12 5325.24,1954.73 5228.41,1954.73 5228.41,1893.12 
		5099.29,1893.12 5099.29,1954.73 4978.46,1954.73 4978.46,1963.55 4919.77,1963.55 4919.77,1954.73 4233.11,1954.73 
		4233.11,1963.55 4174.42,1963.55 4174.42,1954.73 3487.76,1954.73 3487.76,1963.55 3429.07,1963.55 3429.07,1954.73 
		2742.41,1954.73 2742.41,1963.55 2683.71,1963.55 2683.71,1954.73 2434.29,1954.73 2434.29,1901.93 2287.58,1901.93 
		2287.58,1954.73 1982.39,1954.73 1982.39,1888.71 1818.06,1888.71 1818.06,1954.73 1250.26,1954.73 1250.26,1960.06 
		1201.82,1960.06 1201.82,1906.34 1213.56,1906.34 1213.56,1884.04 1213.56,1709.93 1198.42,1703.65 1253.62,1565.89 
		1190.83,1694.49 	"/>
</g>
<g id="_x30_0.24.02" class="st0">
	<polygon class="st1" points="4974.58,3463.07 4974.58,3409.31 5034.19,3409.31 5034.19,3369.43 5034.19,3081.86 5034.19,2894.05 
		5034.19,2800.15 5034.19,2582.71 4608.16,2582.71 4608.16,3674.88 4795.58,3674.88 4795.58,3463.07 	"/>
</g>
<g id="ST02" class="st0">
	<polygon class="st1" points="477.02,3855.71 477.02,4394.75 566.13,4394.75 566.13,3925.4 566.13,3855.71 	"/>
</g>
<g id="EL03" class="st0">
	<rect x="477.02" y="3515.3" class="st1" width="170.75" height="125.28"/>
</g>
<g id="_x30_0.25.02" class="st0">
	<polygon class="st1" points="4098.1,2582.71 3581.1,2582.71 3581.1,3093.51 3581.1,3131.35 3581.1,3177.86 3581.1,3363.84 
		3581.1,3430.6 3581.1,3497.32 3581.1,3564.09 3581.1,3604.45 3692.63,3604.45 3692.63,3674.88 3986.61,3674.88 3986.61,3604.45 
		4098.1,3604.45 	"/>
</g>
<g id="_x30_0.28.20" class="st0">
	<polygon class="st1" points="1635.74,3855.71 1635.74,4039.11 1932.12,4039.11 1932.12,3876.26 1779,3876.26 1779,3968.51 
		1729.65,3968.51 1729.65,3961.35 1771.85,3961.35 1771.85,3873.12 1771.85,3855.71 	"/>
</g>
<g id="_x30_0.25.03" class="st0">
	<rect x="3569.92" y="3855.71" class="st1" width="423.1" height="255.84"/>
</g>
<g id="ST01" class="st0">
	<polygon class="st4" points="5671.54,3899.74 5495.47,3899.74 5495.47,4062.33 5495.47,4209.29 5671.54,4209.29 	"/>
</g>
<g id="EL02" class="st0">
	<rect x="5211.18" y="3457.92" class="st1" width="135.53" height="182.66"/>
</g>
<g id="EL01" class="st0">
	<polygon class="st1" points="4985.79,3639.27 4985.79,3640.58 5200,3640.58 5200,3452.33 5200,3420.48 5039.81,3420.48 
		4985.79,3420.48 4985.79,3468.65 	"/>
</g>
<g id="_x30_0.23.18" class="st0">
	<polygon class="st1" points="5671.54,4611.53 5671.54,4583.74 5671.54,4220.51 5495.47,4220.51 5495.47,4425.16 5329.21,4425.16 
		5266.94,4425.16 5266.94,4611.53 	"/>
</g>
<g id="_x30_0.22.05" class="st0">
	<polygon class="st1" points="6452.63,4578.15 6452.63,4008.31 6401.66,4008.31 6401.66,3899.74 5682.71,3899.74 5682.71,4214.92 
		5682.71,4578.15 5715,4578.15 5715,4611.53 6419.25,4611.53 6419.25,4578.15 	"/>
</g>
<g id="_x30_0.24.04" class="st0">
	<polygon class="st1" points="5175.04,4611.53 5185.34,4611.53 5185.34,4067.91 5255.77,4067.91 5255.77,3894.15 5255.77,3885.29 
		5255.77,3845.98 4497.2,3845.98 4497.2,3855.71 4356.34,3855.71 4356.34,4167.32 4497.2,4167.32 4497.2,4611.53 	"/>
</g>
<g id="_x30_0.25.07" class="st0">
	<polygon class="st1" points="4197.9,4611.53 4220.28,4611.53 4220.28,4329.82 4128.73,4329.82 4128.73,4276.97 4008.82,4276.97 
		4008.82,4611.53 4010.08,4611.53 	"/>
</g>
<g id="_x30_0.24.03" class="st0">
	<polygon class="st1" points="4596.95,2582.71 4485.2,2582.71 4109.31,2582.71 4109.31,3610.04 4109.31,3674.88 4596.95,3674.88 	
		"/>
</g>
<g id="_x30_0.29.01" class="st0">
	<polygon class="st4" points="475.37,2819.65 475.37,3504.13 657.29,3504.13 657.29,3651.75 475.37,3651.75 475.37,3844.54 
		569.84,3844.54 581.01,3844.54 581.01,3855.71 575.12,3855.71 575.12,3920.07 674.91,3920.07 674.91,3844.54 820.18,3844.54 
		820.18,2383.16 656.15,2383.16 	"/>
</g>
<g id="_x30_0.25.01" class="st0">
	<polygon class="st1" points="4103.73,2571.53 4479.61,2571.53 4479.61,2083.33 3581.1,2083.33 3581.1,2521.18 3581.1,2559.05 
		3581.1,2571.53 	"/>
</g>
<g id="_x30_0.29.05" class="st0">
	<polygon class="st1" points="683.73,3860.29 683.73,3930.72 576.78,3930.72 576.78,4394.75 669.59,4394.75 669.59,4603.46 
		1069.78,4603.46 1069.78,4543.94 1069.78,4480.67 1069.78,4417.4 1069.78,4352.55 1069.78,4282.04 1069.78,4051.85 
		1069.78,3954.94 1069.78,3860.29 	"/>
</g>
<g id="_x30_0.27.08A" class="st0">
	<polygon class="st1" points="2057.23,3402.33 2057.23,3408.31 2057.23,3457.18 2334.54,3457.18 2334.54,3136.23 2236.22,3136.23 
		2236.22,3163.72 2183.77,3163.72 2183.77,3191.08 2176.62,3191.08 2176.62,3160.63 2176.62,3136.23 2120.5,3136.23 2120.5,3192 
		2113.34,3192 2113.34,3136.23 2057.23,3136.23 2057.23,3399.45 	"/>
</g>
<g id="_x30_0.24.01" class="st0">
	<polygon class="st1" points="4602.58,2571.53 5034.19,2571.53 5034.19,2083.33 4490.78,2083.33 4490.78,2571.53 	"/>
</g>
<g id="_x30_0.27.07A" class="st0">
	<polygon class="st1" points="2623.84,3457.18 2623.84,3408.31 2623.84,3136.23 2567.73,3136.23 2567.73,3192 2560.57,3192 
		2560.57,3136.23 2504.46,3136.23 2504.46,3160.63 2504.46,3191.08 2497.3,3191.08 2497.3,3163.72 2444.02,3163.72 2444.02,3136.23 
		2345.71,3136.23 2345.71,3457.18 	"/>
</g>
<g id="LWPOLYLINE_10_" class="st0">
	<rect x="3445.21" y="2676.61" class="st2" width="26.4" height="35.21"/>
</g>
<g id="LWPOLYLINE_9_" class="st0">
	<rect x="3445.21" y="2940.7" class="st2" width="26.4" height="35.21"/>
</g>
<g id="LWPOLYLINE_6_" class="st0">
	<rect x="1206.23" y="2680.28" class="st2" width="32.29" height="27.88"/>
</g>
<g id="LWPOLYLINE_5_" class="st0">
	<rect x="1206.23" y="2944.41" class="st2" width="32.29" height="27.88"/>
</g>
<g id="_x30_0.25.08" class="st0">
	<polygon class="st1" points="3461.53,4256.6 3461.53,4273.35 3461.53,4470.46 3461.53,4479.32 3461.53,4551.53 3470.35,4551.53 
		3470.35,4606.91 3549.55,4606.91 3549.55,4419.97 3560.19,4419.97 3560.19,4606.91 3988.44,4606.91 3988.44,4314.33 
		3560.28,4314.33 3549.55,4314.33 3549.55,4127.35 3470.35,4127.35 3470.35,4182.89 3461.53,4182.89 	"/>
</g>
<g id="_x30_0.22.03" class="st0">
	<polygon class="st1" points="5733.5,3674.88 6092.06,3674.88 6092.06,3488.55 6275.42,3488.55 6367.54,3450.37 6217.21,3087.45 
		5564.8,3087.45 5564.8,3181.88 5733.5,3181.88 5733.5,3434.53 5733.5,3639.84 	"/>
</g>
<g id="_x30_0.23.02" class="st0">
	<polygon class="st1" points="5045.4,2794.56 5365.26,2794.56 5365.26,2894.05 5365.26,3076.23 5456.76,3076.23 5456.76,2794.56 
		5722.33,2794.56 5722.33,2618.23 5722.33,2442.15 5722.33,2226.98 5722.33,2203.24 5649.81,2203.24 5539.23,2092.67 
		5335.54,2092.67 5045.4,2092.67 5045.4,2577.12 	"/>
</g>
<polygon id="_x30_0.27.05" class="st1" points="1832.19,3063.97 1832.19,3125.59 2051.9,3125.59 2116.92,3125.59 2180.19,3125.59 
	2231.42,3125.59 2231.42,3090.37 2334.54,3090.37 2334.54,2562.2 2231.42,2562.2 2231.42,2526.98 2205.94,2526.98 2112.95,2526.98 
	1832.19,2526.98 1832.19,2597.37 1732.4,2597.37 1732.4,2914.3 1832.19,2914.3 1832.19,2981.15 1832.19,2990.01 "/>
<g id="_x30_0.26.10" class="st0">
	<polygon class="st1" points="3461.36,2562.2 3461.36,2526.98 3441.72,2526.98 3348.38,2526.98 3058.77,2526.98 3058.77,2597.37 
		2959.02,2597.37 2959.02,2914.3 3058.77,2914.3 3058.77,2981.15 3058.77,2990.01 3058.77,3063.97 3058.77,3125.59 3132.12,3125.59 
		3461.36,3125.59 3461.36,3090.37 3569.92,3090.37 3569.92,2577.12 3569.92,2562.2 	"/>
</g>
<g id="_x30_0.28.09" class="st0">
	<polygon class="st1" points="859.58,3024.7 958.25,3024.7 958.25,3059.91 1151.95,3059.91 1530.49,3059.91 1530.49,3057.29 
		1530.49,2919.62 1541.14,2919.62 1541.14,3065.24 1721.23,3065.24 1721.23,2986.95 1629.15,2986.95 1629.15,2914.3 1721.23,2914.3 
		1721.23,2914.21 1721.23,2597.37 1721.23,2592.61 1640.59,2592.61 1623.83,2592.61 1374.14,2592.61 1060.53,2592.61 
		958.25,2592.61 958.25,2627.83 859.58,2627.83 	"/>
</g>
<g id="_x30_0.25.09" class="st0">
	<polygon class="st1" points="3988.44,4196.64 3993.02,4196.64 3993.02,4137.95 3988.44,4137.95 3988.44,4127.35 3560.19,4127.35 
		3560.19,4314.33 3988.44,4314.33 	"/>
</g>
<g id="_x30_0.26.22" class="st0">
	<polygon class="st1" points="3412,4111.55 3412,3855.71 2870.96,3855.71 2870.96,3932.29 2870.96,4111.55 2891.73,4111.55 	"/>
</g>
<polygon id="_x30_0.27.03" class="st1" points="2848.62,3125.59 2848.62,3063.97 2848.62,2990.01 2848.62,2981.15 2848.62,2914.3 
	2947.8,2914.3 2947.8,2597.37 2848.62,2597.37 2848.62,2526.98 2567.25,2526.98 2474.26,2526.98 2448.78,2526.98 2448.78,2562.2 
	2345.71,2562.2 2345.71,3090.37 2448.78,3090.37 2448.78,3125.59 2500.88,3125.59 2564.15,3125.59 2629.17,3125.59 "/>
<g id="Layer_98">
	<g id="Layer_53">
		<g id="LINE_30_">
			<line class="st5" x1="3458.39" y1="403.9" x2="3458.39" y2="4840.71"/>
		</g>
	</g>
</g>
<g id="Layer_97">
	<g id="Layer_52">
		<g id="LINE_31_">
			<line class="st5" x1="4203.74" y1="403.9" x2="4203.74" y2="4840.71"/>
		</g>
	</g>
</g>
<g id="Layer_96">
	<g id="Layer_51">
		<g id="LINE_32_">
			<line class="st5" x1="4949.1" y1="403.9" x2="4949.1" y2="4840.71"/>
		</g>
	</g>
</g>
<g id="Layer_95">
	<g id="Layer_50">
		<g id="LINE_33_">
			<line class="st5" x1="5885.49" y1="623.96" x2="7423.84" y2="623.96"/>
		</g>
	</g>
</g>
<g id="Layer_94">
	<g id="Layer_49">
		<g id="LINE_34_">
			<line class="st5" x1="2713.08" y1="403.9" x2="2713.08" y2="4840.71"/>
		</g>
	</g>
</g>
<g id="Layer_93">
	<g id="Layer_48">
		<g id="LINE_35_">
			<line class="st5" x1="1967.73" y1="403.9" x2="1967.73" y2="4840.71"/>
		</g>
	</g>
</g>
<g id="Layer_92">
	<g id="Layer_47">
		<g id="LINE_36_">
			<line class="st5" x1="1194.49" y1="268.84" x2="1194.49" y2="521.19"/>
		</g>
	</g>
</g>
<g id="Layer_91">
	<g id="Layer_46">
		<g id="LINE_37_">
			<line class="st5" x1="1194.49" y1="521.19" x2="1360.35" y2="687.05"/>
		</g>
	</g>
</g>
<g id="Layer_90">
	<g id="Layer_45">
		<g id="LINE_38_">
			<line class="st5" x1="1360.35" y1="687.05" x2="5556.47" y2="687.05"/>
		</g>
	</g>
</g>
<g id="Layer_89">
	<g id="Layer_44">
		<g id="LINE_39_">
			<line class="st5" x1="5556.47" y1="687.05" x2="5722.33" y2="521.19"/>
		</g>
	</g>
</g>
<g id="Layer_88">
	<g id="Layer_43">
		<g id="LINE_40_">
			<line class="st5" x1="5722.33" y1="521.19" x2="5722.33" y2="268.84"/>
		</g>
	</g>
</g>
<g id="Layer_87">
	<g id="Layer_42">
		<g id="LINE_41_">
			<line class="st5" x1="5694.45" y1="1020.22" x2="5694.45" y2="4840.71"/>
		</g>
	</g>
</g>
<g id="Layer_86">
	<g id="Layer_41">
		<g id="LINE_42_">
			<line class="st5" x1="1222.38" y1="1020.22" x2="1222.38" y2="4840.71"/>
		</g>
	</g>
</g>
<g id="Layer_85">
	<g id="Layer_40">
		<g id="LINE_43_">
			<line class="st5" x1="1031.34" y1="588.79" x2="222.58" y2="588.79"/>
		</g>
	</g>
</g>
<g id="Layer_84">
	<g id="Layer_39">
		<g id="LINE_44_">
			<line class="st5" x1="5439.18" y1="403.9" x2="7250.39" y2="4776.65"/>
		</g>
	</g>
</g>
<g id="Layer_83">
	<g id="Layer_38">
		<g id="LINE_45_">
			<line class="st5" x1="5914.55" y1="1551.58" x2="7423.84" y2="3060.87"/>
		</g>
	</g>
</g>
<g id="Layer_82">
	<g id="Layer_37">
		<g id="LINE_46_">
			<line class="st5" x1="6586.81" y1="879.27" x2="7423.84" y2="1716.26"/>
		</g>
	</g>
</g>
<g id="Layer_81">
	<g id="Layer_36">
		<g id="LINE_47_">
			<line class="st5" x1="5439.18" y1="403.9" x2="7423.84" y2="1225.96"/>
		</g>
	</g>
</g>
<g id="Layer_80">
	<g id="Layer_35">
		<g id="LINE_48_">
			<line class="st5" x1="6439.8" y1="2597.37" x2="6439.8" y2="4840.71"/>
		</g>
	</g>
</g>
<g id="Layer_79">
	<g id="Layer_34">
		<g id="LINE_49_">
			<line class="st5" x1="7185.15" y1="2597.37" x2="7185.15" y2="4840.71"/>
		</g>
	</g>
</g>
<g id="Layer_78">
	<g id="Layer_33">
		<g id="LINE_50_">
			<line class="st5" x1="1477.65" y1="403.9" x2="222.58" y2="3433.96"/>
		</g>
	</g>
</g>
<g id="Layer_77">
	<g id="Layer_32">
		<g id="LINE_51_">
			<line class="st5" x1="1102.46" y1="1306.17" x2="222.58" y2="2186.01"/>
		</g>
	</g>
</g>
<g id="Layer_76">
	<g id="Layer_31">
		<g id="LINE_52_">
			<line class="st5" x1="575.42" y1="779.13" x2="222.58" y2="1131.93"/>
		</g>
	</g>
</g>
<g id="Layer_75">
	<g id="Layer_30">
		<g id="LINE_53_">
			<line class="st5" x1="1477.65" y1="403.9" x2="222.58" y2="923.78"/>
		</g>
	</g>
</g>
<g id="Layer_74">
	<g id="Layer_29">
		<g id="LINE_54_">
			<line class="st5" x1="477.02" y1="2597.37" x2="477.02" y2="4840.71"/>
		</g>
	</g>
</g>
<g id="Layer_73">
	<g id="Layer_28">
		<g id="LINE_55_">
			<line class="st5" x1="7423.84" y1="2958.33" x2="222.58" y2="2958.33"/>
		</g>
	</g>
</g>
<g id="Layer_72">
	<g id="Layer_27">
		<g id="LINE_56_">
			<line class="st5" x1="7423.84" y1="1710.11" x2="6439.71" y2="2694.24"/>
		</g>
	</g>
</g>
<g id="Layer_71">
	<g id="Layer_26">
		<g id="LINE_57_">
			<line class="st5" x1="6439.71" y1="2694.24" x2="477.11" y2="2694.24"/>
		</g>
	</g>
</g>
<g id="Layer_70">
	<g id="Layer_25">
		<g id="LINE_58_">
			<line class="st5" x1="477.11" y1="2694.24" x2="222.58" y2="2439.71"/>
		</g>
	</g>
</g>
<g id="Layer_69">
	<g id="Layer_24">
		<g id="LINE_59_">
			<line class="st5" x1="6954.8" y1="268.84" x2="6954.8" y2="1031.69"/>
		</g>
	</g>
</g>
<g id="Layer_68">
	<g id="Layer_23">
		<g id="LINE_60_">
			<line class="st5" x1="6954.8" y1="1031.69" x2="6066.97" y2="1919.52"/>
		</g>
	</g>
</g>
<g id="Layer_67">
	<g id="Layer_22">
		<g id="LINE_61_">
			<line class="st5" x1="6066.97" y1="1919.52" x2="849.85" y2="1919.52"/>
		</g>
	</g>
</g>
<g id="Layer_66">
	<g id="Layer_21">
		<g id="LINE_62_">
			<line class="st5" x1="849.85" y1="1919.52" x2="222.58" y2="1292.25"/>
		</g>
	</g>
</g>
<g id="Layer_65">
	<g id="Layer_20">
		<g id="LINE_63_">
			<line class="st5" x1="222.58" y1="3662.57" x2="7423.84" y2="3662.57"/>
		</g>
	</g>
</g>
<g id="Layer_64">
	<g id="Layer_19">
		<g id="LINE_64_">
			<line class="st5" x1="222.58" y1="4598.66" x2="7423.84" y2="4598.66"/>
		</g>
	</g>
</g>
<g id="Layer_63">
	<g id="Layer_18">
		<g id="LINE_65_">
			<line class="st5" x1="1097.31" y1="897.08" x2="1221.81" y2="1021.61"/>
		</g>
	</g>
</g>
<g id="Layer_62">
	<g id="Layer_17">
		<g id="LINE_66_">
			<line class="st5" x1="1221.81" y1="1021.61" x2="5695.02" y2="1021.61"/>
		</g>
	</g>
</g>
<g id="Layer_61">
	<g id="Layer_16">
		<g id="LINE_67_">
			<line class="st5" x1="5695.02" y1="1021.61" x2="5799.17" y2="917.41"/>
		</g>
	</g>
</g>
<g id="Layer_60">
	<g id="Layer_15">
		<g id="LINE_68_">
			<line class="st5" x1="985.26" y1="1283.04" x2="1075.93" y2="1373.72"/>
		</g>
	</g>
</g>
<g id="Layer_59">
	<g id="Layer_14">
		<g id="LINE_69_">
			<line class="st5" x1="1075.93" y1="1373.72" x2="5840.89" y2="1373.72"/>
		</g>
	</g>
</g>
<g id="Layer_58">
	<g id="Layer_13">
		<g id="LINE_70_">
			<line class="st5" x1="5840.89" y1="1373.72" x2="5937.11" y2="1277.5"/>
		</g>
	</g>
</g>
<g id="Layer_57">
	<g id="Layer_12">
		<g id="LINE_71_">
			<line class="st5" x1="6187.23" y1="1867.85" x2="6518.87" y2="2199.45"/>
		</g>
	</g>
</g>
<g id="Layer_56">
	<g id="Layer_11">
		<g id="LINE_72_">
			<line class="st5" x1="6903.09" y1="1152" x2="7234.72" y2="1483.59"/>
		</g>
	</g>
</g>
<g id="Layer_55">
	<g id="Layer_10">
		<g id="LINE_73_">
			<line class="st5" x1="6185.31" y1="1987.9" x2="7017.81" y2="1155.45"/>
		</g>
	</g>
</g>
<g id="Layer_54">
	<g id="Layer_9">
		<g id="LINE_74_">
			<line class="st5" x1="7131.92" y1="1269.56" x2="6299.42" y2="2102.05"/>
		</g>
	</g>
</g>
<g id="Layer_130">
	<g id="MTEXT_26_">
		<text transform="matrix(1 0 0 1 5796.104 905.2681)" class="st6 st7">A.3</text>
	</g>
</g>
<g id="Layer_129">
	<g id="MTEXT_31_">
		<text transform="matrix(1 0 0 1 6244.0767 2139.4839)" class="st6 st7">B.4</text>
	</g>
</g>
<g id="Layer_128">
	<g id="MTEXT_30_">
		<text transform="matrix(1 0 0 1 7012.0278 1143.2671)" class="st6 st7">B.2</text>
	</g>
</g>
<g id="Layer_127">
	<g id="MTEXT_28_">
		<text transform="matrix(1 0 0 1 6506.4458 2236.8901)" class="st6 st7">20.7</text>
	</g>
</g>
<g id="Layer_126">
	<g id="MTEXT_29_">
		<text transform="matrix(1 0 0 1 7222.3091 1521.0288)" class="st6 st7">20.3</text>
	</g>
</g>
<g id="Layer_125">
	<g id="MTEXT_25_">
		<text transform="matrix(1 0 0 1 7448.3677 4611.3086)" class="st6 st7">J</text>
	</g>
</g>
<g id="Layer_124">
	<g id="MTEXT_27_">
		<text transform="matrix(1 0 0 1 5934.0474 1265.3149)" class="st6 st7">A.6</text>
	</g>
</g>
<g id="Layer_123">
	<g id="MTEXT_24_">
		<text transform="matrix(1 0 0 1 7442.356 3675.2227)" class="st6 st7">H</text>
	</g>
</g>
<g id="Layer_122">
	<g id="MTEXT_23_">
		<text transform="matrix(1 0 0 1 182.589 1280.0884)" class="st6 st7">B</text>
	</g>
</g>
<g id="Layer_121">
	<g id="MTEXT_22_">
		<text transform="matrix(1 0 0 1 182.3449 2427.5415)" class="st6 st7">C</text>
	</g>
</g>
<g id="Layer_120">
	<g id="MTEXT_21_">
		<text transform="matrix(1 0 0 1 171.0685 2970.9707)" class="st6 st7">D</text>
	</g>
</g>
<g id="Layer_119">
	<g id="MTEXT_20_">
		<text transform="matrix(1 0 0 1 454.7345 4888.4238)" class="st6 st7">30</text>
	</g>
</g>
<g id="Layer_118">
	<g id="MTEXT_19_">
		<text transform="matrix(1 0 0 1 167.8849 949.8364)" class="st6 st7">32</text>
	</g>
</g>
<g id="Layer_117">
	<g id="MTEXT_18_">
		<text transform="matrix(1 0 0 1 160.1007 1169.3853)" class="st6 st7">31.6</text>
	</g>
</g>
<g id="Layer_116">
	<g id="MTEXT_17_">
		<text transform="matrix(1 0 0 1 160.1007 2223.4673)" class="st6 st7">31.4</text>
	</g>
</g>
<g id="Layer_115">
	<g id="MTEXT_16_">
		<text transform="matrix(1 0 0 1 186.8683 3478.9902)" class="st6 st7">31</text>
	</g>
</g>
<g id="Layer_114">
	<g id="MTEXT_15_">
		<text transform="matrix(1 0 0 1 7163.3286 4888.4238)" class="st6 st7">21</text>
	</g>
</g>
<g id="Layer_113">
	<g id="MTEXT_14_">
		<text transform="matrix(1 0 0 1 6417.9829 4888.4238)" class="st6 st7">22</text>
	</g>
</g>
<g id="Layer_112">
	<g id="MTEXT_13_">
		<text transform="matrix(1 0 0 1 7416.0825 1252.0278)" class="st6 st7">19.5</text>
	</g>
</g>
<g id="Layer_111">
	<g id="MTEXT_12_">
		<text transform="matrix(1 0 0 1 7411.4204 1753.7144)" class="st6 st7">20.4</text>
	</g>
</g>
<g id="Layer_110">
	<g id="MTEXT_11_">
		<text transform="matrix(1 0 0 1 7411.4204 3098.291)" class="st6 st7">20.6</text>
	</g>
</g>
<g id="Layer_109">
	<g id="MTEXT_10_">
		<text transform="matrix(1 0 0 1 7289.772 4870.5879)" class="st6 st7">21.5</text>
	</g>
</g>
<g id="Layer_108">
	<g id="MTEXT_9_">
		<text transform="matrix(1 0 0 1 165.2121 601.4126)" class="st6 st7">34</text>
	</g>
</g>
<g id="Layer_107">
	<g id="MTEXT_8_">
		<text transform="matrix(1 0 0 1 1200.549 4888.4238)" class="st6 st7">29</text>
	</g>
</g>
<g id="Layer_106">
	<g id="MTEXT_7_">
		<text transform="matrix(1 0 0 1 5672.6353 4888.4238)" class="st6 st7">23</text>
	</g>
</g>
<g id="Layer_105">
	<g id="MTEXT_6_">
		<text transform="matrix(1 0 0 1 5709.8423 246.4116)" class="st6 st7">A</text>
	</g>
</g>
<g id="Layer_104">
	<g id="MTEXT_5_">
		<text transform="matrix(1 0 0 1 1945.8966 4888.4238)" class="st6 st7">28</text>
	</g>
</g>
<g id="Layer_103">
	<g id="MTEXT_4_">
		<text transform="matrix(1 0 0 1 2691.2454 4888.4238)" class="st6 st7">27</text>
	</g>
</g>
<g id="Layer_102">
	<g id="MTEXT_3_">
		<text transform="matrix(1 0 0 1 7434.1392 636.6099)" class="st6 st7">18</text>
	</g>
</g>
<g id="Layer_101">
	<g id="MTEXT_2_">
		<text transform="matrix(1 0 0 1 4927.2876 4888.4238)" class="st6 st7">24</text>
	</g>
</g>
<g id="Layer_100">
	<g id="MTEXT_1_">
		<text transform="matrix(1 0 0 1 4181.9399 4888.4238)" class="st6 st7">25</text>
	</g>
</g>
<g id="Layer_99">
	<g id="MTEXT">
		<text transform="matrix(1 0 0 1 3436.592 4888.4238)" class="st6 st7">26</text>
	</g>
</g>
<g id="Layer_162">
	<g id="CIRCLE_31_">
		<circle class="st8" cx="6274.55" cy="2126.92" r="35.21"/>
	</g>
</g>
<g id="Layer_161">
	<g id="CIRCLE_30_">
		<circle class="st8" cx="7042.72" cy="1130.53" r="35.21"/>
	</g>
</g>
<g id="Layer_160">
	<g id="CIRCLE_29_">
		<circle class="st8" cx="7259.6" cy="1508.51" r="35.21"/>
	</g>
</g>
<g id="Layer_159">
	<g id="CIRCLE_28_">
		<circle class="st8" cx="6543.74" cy="2224.36" r="35.21"/>
	</g>
</g>
<g id="Layer_158">
	<g id="CIRCLE_26_">
		<circle class="st8" cx="5824.09" cy="892.54" r="35.21"/>
	</g>
</g>
<g id="Layer_157">
	<g id="CIRCLE_27_">
		<circle class="st8" cx="5962.03" cy="1252.58" r="35.21"/>
	</g>
</g>
<g id="Layer_156">
	<g id="CIRCLE_25_">
		<circle class="st8" cx="7459.06" cy="4598.66" r="35.21"/>
	</g>
</g>
<g id="Layer_155">
	<g id="CIRCLE_24_">
		<circle class="st8" cx="7459.06" cy="3662.57" r="35.21"/>
	</g>
</g>
<g id="Layer_154">
	<g id="CIRCLE_23_">
		
			<ellipse transform="matrix(0.0709 -0.9975 0.9975 0.0709 -1080.4915 1374.6578)" class="st8" cx="197.66" cy="1267.33" rx="35.21" ry="35.21"/>
	</g>
</g>
<g id="Layer_153">
	<g id="CIRCLE_22_">
		
			<ellipse transform="matrix(0.0453 -0.999 0.999 0.0453 -2223.6057 2502.8289)" class="st8" cx="197.66" cy="2414.79" rx="35.21" ry="35.21"/>
	</g>
</g>
<g id="Layer_152">
	<g id="CIRCLE_17_">
		
			<ellipse transform="matrix(0.9239 -0.3827 0.3827 0.9239 -831.0375 243.9391)" class="st8" cx="197.66" cy="2210.92" rx="35.21" ry="35.21"/>
	</g>
</g>
<g id="Layer_151">
	<g id="CIRCLE_21_">
		
			<ellipse transform="matrix(0.0709 -0.9975 0.9975 0.0709 -2776.8013 2935.5081)" class="st8" cx="187.37" cy="2958.33" rx="35.21" ry="35.21"/>
	</g>
</g>
<g id="Layer_150">
	<g id="CIRCLE_20_">
		<circle class="st8" cx="477.02" cy="4875.93" r="35.21"/>
	</g>
</g>
<g id="Layer_149">
	<g id="CIRCLE_19_">
		
			<ellipse transform="matrix(0.9239 -0.3827 0.3827 0.9239 -344.2111 144.0654)" class="st8" cx="190.03" cy="937.27" rx="35.21" ry="35.21"/>
	</g>
</g>
<g id="Layer_148">
	<g id="CIRCLE_18_">
		
			<ellipse transform="matrix(0.0709 -0.9975 0.9975 0.0709 -970.2821 1272.0029)" class="st8" cx="197.66" cy="1156.84" rx="35.21" ry="35.21"/>
	</g>
</g>
<g id="Layer_147">
	<g id="CIRCLE_16_">
		
			<ellipse transform="matrix(0.9239 -0.3827 0.3827 0.9239 -1310.6448 343.8871)" class="st8" cx="209.1" cy="3466.47" rx="35.21" ry="35.21"/>
	</g>
</g>
<g id="Layer_146">
	<g id="CIRCLE_15_">
		<circle class="st8" cx="7185.15" cy="4875.93" r="35.21"/>
	</g>
</g>
<g id="Layer_145">
	<g id="CIRCLE_14_">
		<circle class="st8" cx="6439.8" cy="4875.93" r="35.21"/>
	</g>
</g>
<g id="Layer_144">
	<g id="CIRCLE_13_">
		<circle class="st8" cx="7456.35" cy="1239.45" r="35.21"/>
	</g>
</g>
<g id="Layer_143">
	<g id="CIRCLE_12_">
		<circle class="st8" cx="7448.72" cy="1741.18" r="35.21"/>
	</g>
</g>
<g id="Layer_142">
	<g id="CIRCLE_11_">
		<circle class="st8" cx="7448.72" cy="3085.75" r="35.21"/>
	</g>
</g>
<g id="Layer_141">
	<g id="CIRCLE_10_">
		<circle class="st8" cx="7327.01" cy="4858.08" r="35.21"/>
	</g>
</g>
<g id="Layer_140">
	<g id="CIRCLE_9_">
		
			<ellipse transform="matrix(0.1602 -0.9871 0.9871 0.1602 -423.8304 679.4189)" class="st8" cx="187.37" cy="588.79" rx="35.21" ry="35.21"/>
	</g>
</g>
<g id="Layer_139">
	<g id="CIRCLE_8_">
		<circle class="st8" cx="1222.38" cy="4875.93" r="35.21"/>
	</g>
</g>
<g id="Layer_138">
	<g id="CIRCLE_7_">
		<circle class="st8" cx="5694.45" cy="4875.93" r="35.21"/>
	</g>
</g>
<g id="Layer_137">
	<g id="CIRCLE_6_">
		<circle class="st8" cx="5722.33" cy="233.63" r="35.21"/>
	</g>
</g>
<g id="Layer_136">
	<g id="CIRCLE_5_">
		<circle class="st8" cx="1967.73" cy="4875.93" r="35.21"/>
	</g>
</g>
<g id="Layer_135">
	<g id="CIRCLE_4_">
		<circle class="st8" cx="2713.08" cy="4875.93" r="35.21"/>
	</g>
</g>
<g id="Layer_134">
	<g id="CIRCLE_3_">
		<circle class="st8" cx="7459.06" cy="623.96" r="35.21"/>
	</g>
</g>
<g id="Layer_133">
	<g id="CIRCLE_2_">
		<circle class="st8" cx="4949.1" cy="4875.93" r="35.21"/>
	</g>
</g>
<g id="Layer_132">
	<g id="CIRCLE_1_">
		<circle class="st8" cx="4203.74" cy="4875.93" r="35.21"/>
	</g>
</g>
<g id="Layer_131">
	<g id="CIRCLE">
		<circle class="st8" cx="3458.39" cy="4875.93" r="35.21"/>
	</g>
</g>
<g id="Layer_165">
	<g id="LINE_25_" class="st0">
		<line class="st3" x1="5419.58" y1="1929.34" x2="5423.38" y2="1925.59"/>
	</g>
</g>
<g id="Layer_164">
	<g id="LINE_26_" class="st0">
		<line class="st3" x1="5423.38" y1="1925.59" x2="5416.7" y2="1918.91"/>
	</g>
</g>
<g id="Layer_163">
	<g id="LINE_27_" class="st0">
		<line class="st3" x1="5416.7" y1="1918.91" x2="5418.75" y2="1920.96"/>
	</g>
</g>
<rect id="_x30_0.26.11" x="3186.8" y="2674.95" class="st9" width="76.67" height="302.62"/>
<g id="_x30_0.27.06" class="st0">
	<polygon class="st1" points="1951.1,2711.83 1951.1,2940.7 1985.05,2940.7 1985.05,2977.57 2050.51,2977.57 2050.51,2674.95 
		1985.05,2674.95 1985.05,2711.83 	"/>
</g>
<g id="_x30_0.27.04" class="st0">
	<polygon class="st1" points="2729.4,2940.7 2729.4,2711.83 2695.45,2711.83 2695.45,2674.95 2630,2674.95 2630,2977.57 
		2695.45,2977.57 2695.45,2940.7 	"/>
</g>
</svg>
