<?xml version="1.0" encoding="utf-8"?>
<!-- Generator: Adobe Illustrator 25.2.3, SVG Export Plug-In . SVG Version: 6.00 Build 0)  -->
<svg version="1.1" id="A-AREA-BNDY" xmlns="http://www.w3.org/2000/svg" xmlns:xlink="http://www.w3.org/1999/xlink" x="0px"
	 y="0px" viewBox="0 0 2094.11 5000" style="enable-background:new 0 0 2094.11 5000;" xml:space="preserve">
<style type="text/css">
	.st0{opacity:0.4;}
	.st1{fill:#BA9BC9;stroke:#000000;stroke-width:0.2551;stroke-linecap:round;stroke-linejoin:round;stroke-miterlimit:10;}
	.st2{fill:#65C8D0;stroke:#000000;stroke-width:0.2551;stroke-linecap:round;stroke-linejoin:round;stroke-miterlimit:10;}
	.st3{fill:#BA9BC9;stroke:#000000;stroke-width:0.2551;stroke-linecap:round;stroke-linejoin:round;stroke-miterlimit:9.9999;}
	
		.st4{opacity:0.42;fill:#BA9BC9;stroke:#000000;stroke-width:0.2551;stroke-linecap:round;stroke-linejoin:round;stroke-miterlimit:10;enable-background:new    ;}
	.st5{fill:none;stroke:#000000;stroke-width:0.25;stroke-linecap:round;stroke-linejoin:round;stroke-miterlimit:10;}
	.st6{font-family:'ArialMT';}
	.st7{font-size:18.2855px;}
	
		.st8{fill:none;stroke:#000000;stroke-width:0.2551;stroke-linecap:round;stroke-linejoin:round;stroke-miterlimit:10;stroke-dasharray:0.0793,0.0198,0.0198,0.0198;}
</style>
<g id="_x30_3.45.01" class="st0">
	<polygon class="st1" points="1465.94,253.26 1056.16,663.18 904.22,663.18 904.22,773.49 904.22,783.47 973.89,783.47 
		992.22,783.47 1038.43,783.47 1053.37,783.47 1107.04,783.47 1107.04,881.82 1057.96,881.82 1057.96,902.96 1057.96,912.84 
		1057.96,933.61 1107.04,933.61 1107.04,1025.57 1107.04,1031.6 1190.71,1031.6 1192.22,1031.6 1192.22,1039.49 1210.16,1039.49 
		1210.16,823.07 1559,474.22 1541.69,456.91 1541.2,456.44 1535.31,462.33 1505.3,432.33 1511.2,426.44 1444.54,359.76 
		1451.14,353.17 1505.59,298.72 1508.48,295.82 	"/>
</g>
<g id="_x30_3.35.02" class="st0">
	<polygon class="st1" points="1155.99,3753 1161.07,3753 1161.07,4167.27 1155.86,4167.27 1155.86,4216.17 1319.84,4216.17 
		1319.84,3703.81 1155.99,3703.81 	"/>
</g>
<g id="_x30_3.34.01" class="st0">
	<polygon class="st1" points="1155.86,4221.38 1072.16,4221.38 1072.16,4415.05 1191.81,4415.05 1319.84,4415.05 1319.84,4335.58 
		1319.84,4330.26 1319.84,4221.38 	"/>
</g>
<g id="LWPOLYLINE" class="st0">
	<polygon class="st2" points="1182.71,659.55 1283.79,558.47 1248.5,523.2 1251.86,519.81 1290.52,558.47 1182.71,666.28 
		1144.05,627.62 1147.44,624.26 	"/>
</g>
<g id="LWPOLYLINE_2_" class="st0">
	<polygon class="st2" points="1064.42,1808.19 1064.42,2033.32 1025.58,2033.32 1025.58,2029.8 1059.21,2029.8 1059.21,1813.4 
		1034.21,1813.4 1034.21,1808.19 	"/>
</g>
<g id="_x30_3.40.01" class="st0">
	<polygon class="st1" points="1203.04,2597.63 1203.04,2505.85 1191.36,2505.85 1191.36,2492.9 1205.65,2492.9 1205.65,2139.75 
		1191.36,2139.75 1191.36,2127.53 1205.65,2127.53 1205.65,1774.38 1191.78,1774.38 1191.78,1762.16 1205.65,1762.16 
		1205.65,1409.04 1191.78,1409.04 1191.78,1396.81 1205.65,1396.81 1205.65,1176 976.5,1176 976.5,1340.17 1006.71,1340.17 
		1006.71,1414.43 976.5,1414.43 976.5,1476.63 996.62,1476.63 996.62,1480.95 976.5,1480.95 976.5,1615.46 995.11,1615.46 
		995.11,1616.52 976.5,1616.52 976.5,1643.84 995.11,1643.84 995.11,1644.94 976.5,1644.94 976.5,1705.54 1006.71,1705.54 
		1006.71,1779.78 976.05,1779.78 976.05,2070.89 1006.71,2070.89 1006.71,2145.15 976.5,2145.15 976.5,2207.37 995.11,2207.37 
		995.11,2208.44 976.5,2208.44 976.5,2235.78 995.11,2235.78 995.11,2236.85 976.5,2236.85 976.5,2371.35 996.62,2371.35 
		996.62,2375.68 976.5,2375.68 976.5,2436.26 1006.71,2436.26 1006.71,2510.52 976.5,2510.52 976.5,2663.63 1065.28,2663.63 
		1077.77,2663.63 1189.2,2663.63 1203.04,2663.63 1203.04,2610.17 	"/>
</g>
<g id="_x30_3.38.05A" class="st0">
	<polygon class="st1" points="971.28,4216.17 1001.5,4216.17 1001.5,4155.77 971.28,4155.77 971.28,3703.81 971.28,3430.79 
		1001.5,3430.79 1001.5,3370.37 971.28,3370.37 971.28,3361.11 971.28,3225.7 971.28,3214.02 971.28,3078.63 971.28,3071.26 
		971.28,2980.94 971.28,2978.7 971.28,2900.31 971.28,2807.83 1001.5,2807.83 1001.5,2743.11 971.28,2743.11 971.28,2666.24 
		971.28,2505.31 1001.5,2505.31 1001.5,2441.47 971.28,2441.47 971.28,2375.13 971.28,2371.9 971.28,2236.33 971.28,2207.92 
		971.28,2139.93 1001.5,2139.93 1001.5,2076.1 971.28,2076.1 971.28,1774.56 1001.5,1774.56 1001.5,1710.75 971.28,1710.75 
		971.28,1644.39 971.28,1615.98 971.28,1480.41 971.28,1477.17 971.28,1409.19 1001.5,1409.19 1001.5,1345.38 971.28,1345.38 
		971.28,1173.4 971.28,1037.49 971.28,1037.17 971.28,1035.06 971.28,1019.92 923.82,1019.92 923.82,1067.39 905.02,1067.39 
		905.02,1345.02 923.82,1345.02 923.82,1409.74 905.02,1409.74 905.02,1411.36 905.02,1415.5 905.02,1710.39 923.82,1710.39 
		923.82,1775.11 905.02,1775.11 905.02,2075.76 923.82,2075.76 923.82,2140.48 905.02,2140.48 905.02,2277.15 923.82,2277.15 
		923.82,2354.8 905.02,2354.8 905.02,2461.25 923.82,2461.25 923.82,2513.05 905.02,2513.05 905.02,2599.74 905.02,2656.18 
		905.02,2706.51 905.02,2762.92 905.02,2849.64 923.82,2849.64 923.82,2901.44 905.02,2901.44 905.02,3007.86 923.82,3007.86 
		923.82,3085.54 905.02,3085.54 905.02,3220.77 923.82,3220.77 923.82,3238.03 905.02,3238.03 905.02,3578.22 923.82,3578.22 
		923.82,3611.3 905.02,3611.3 905.02,3951.49 923.82,3951.49 923.82,3968.77 905.02,3968.77 905.02,4311.13 923.82,4311.13 
		923.82,4324.66 971.28,4324.66 	"/>
</g>
<g id="_x30_3.35.03" class="st0">
	<polygon class="st1" points="1155.86,4167.27 1155.86,3753 1155.99,3753 1155.99,3703.81 1055.17,3703.81 1050.81,3703.81 
		974.78,3703.81 974.78,4152.25 1004.99,4152.25 1004.99,4216.17 1069.55,4216.17 1155.86,4216.17 	"/>
</g>
<g id="LWPOLYLINE_6_" class="st0">
	<rect x="1189.2" y="4317.59" class="st2" width="27.34" height="33.08"/>
</g>
<g id="_x30_3.33.01" class="st0">
	<polygon class="st1" points="1319.84,4508.68 1319.84,4420.27 1194.41,4420.27 1194.41,4534.38 1216.28,4534.38 1222.36,4549.06 	
		"/>
</g>
<g id="_x30_3.36.01" class="st0">
	<polygon class="st1" points="1191.81,3238.03 1191.81,3318.31 1319.84,3318.31 1319.84,3232.01 1216.54,3232.01 1216.54,3238.03 	
		"/>
</g>
<g id="_x30_3.36.04" class="st0">
	<polygon class="st1" points="1189.2,3506.56 1121.06,3506.56 1121.06,3589.01 1244.49,3589.01 1244.49,3592.17 1319.84,3592.17 
		1319.84,3506.56 	"/>
</g>
<g id="_x30_3.36.02" class="st0">
	<rect x="1191.81" y="3323.53" class="st1" width="128.01" height="86.31"/>
</g>
<g id="_x30_3.38.01" class="st0">
	<polygon class="st1" points="1191.81,2740.5 1191.81,2855.4 1216.72,2855.4 1216.72,2861.42 1319.84,2861.42 1319.84,2795.68 
		1243.63,2668.85 1205.65,2668.85 1191.81,2668.85 	"/>
</g>
<g id="_x30_3.35.01" class="st0">
	<polygon class="st1" points="1057.77,3698.6 1155.99,3698.6 1319.84,3698.6 1319.84,3597.38 1244.49,3597.38 1244.49,3600.51 
		1118.46,3600.51 1057.77,3600.51 	"/>
</g>
<g id="_x30_3.37.01" class="st0">
	<polygon class="st1" points="1191.81,2872.66 1191.81,3044.1 1319.84,3044.1 1319.84,2866.64 1216.72,2866.64 1216.72,2872.66 	"/>
</g>
<g id="_x30_3.37.02" class="st0">
	<polygon class="st1" points="1191.81,3049.31 1191.81,3220.77 1216.54,3220.77 1216.54,3226.8 1319.84,3226.8 1319.84,3049.31 	"/>
</g>
<g id="_x30_3.36.06" class="st0">
	<polygon class="st1" points="1115.85,3590.55 1115.85,3501.35 1021.54,3501.35 1021.54,3595.29 1052.51,3595.29 1055.17,3595.29 
		1115.85,3595.29 	"/>
</g>
<g id="LWPOLYLINE_18_" class="st0">
	<rect x="1189.2" y="3951.49" class="st2" width="27.34" height="17.26"/>
</g>
<g id="_x30_3.38.06" class="st0">
	<polygon class="st1" points="716.59,2510.96 716.59,2641.42 814.39,2641.42 814.39,2629.75 814.39,2599.74 814.39,2580.74 
		819.61,2580.74 819.61,2598 850.73,2598 850.73,2580.74 855.94,2580.74 855.94,2598 899.81,2598 899.81,2511.51 899.81,2503.51 
		819.61,2503.51 819.61,2507.86 819.61,2509.45 819.61,2525.09 814.39,2525.09 814.39,2510.96 	"/>
</g>
<g id="_x30_3.38.08" class="st0">
	<polygon class="st1" points="899.81,2851.18 899.81,2764.69 855.65,2764.69 855.65,2780.59 852.16,2780.59 852.16,2762.92 
		852.16,2718.74 803.97,2718.74 803.97,2791.93 787.88,2791.93 741.74,2791.93 741.74,2788.41 786.34,2788.41 786.34,2710.03 
		757.12,2710.03 626.22,2710.03 626.22,2869.14 744.64,2869.14 744.64,2835.07 803.97,2835.07 803.97,2855.58 899.81,2855.58 	"/>
</g>
<g id="_x30_3.43.01" class="st0">
	<polygon class="st1" points="1098.75,873.56 1098.75,791.73 1054.88,791.73 1054.88,810.45 1036.92,810.45 1036.92,791.73 
		993.75,791.73 993.75,810.45 976.5,810.45 976.5,901.42 1049.67,901.42 1049.67,877.7 1049.67,873.5 1049.67,856.3 1054.88,856.3 
		1054.88,873.56 	"/>
</g>
<g id="_x30_3.43.02" class="st0">
	<polygon class="st1" points="1098.75,1024.06 1098.75,941.88 1054.88,941.88 1054.88,959.16 1049.67,959.16 1049.67,941.93 
		1049.67,937.76 1049.67,914.38 976.5,914.38 976.5,1005.35 993.75,1005.35 993.75,1024.06 1036.92,1024.06 1036.92,1005.35 
		1054.88,1005.35 1054.88,1024.06 	"/>
</g>
<g id="_x30_3.37.05" class="st0">
	<rect x="975.69" y="2983.15" class="st1" width="154.73" height="86.23"/>
</g>
<g id="_x30_3.37.06" class="st0">
	<rect x="974.78" y="2902.06" class="st1" width="156.53" height="76.69"/>
</g>
<g id="_x30_3.36.07" class="st0">
	<polygon class="st1" points="1131.31,3359.58 1131.31,3273.17 1130.91,3273.17 1089.42,3273.17 1078.7,3273.17 1078.7,3307.71 
		1075.21,3307.71 1075.21,3271.42 1075.21,3241 1075.21,3227.24 974.78,3227.24 974.78,3359.58 1026.65,3359.58 1026.65,3340.89 
		1030.17,3340.89 1030.17,3359.58 	"/>
</g>
<g id="_x30_3.37.04" class="st0">
	<polygon class="st1" points="1131.31,3166.92 1131.31,3080.15 1030.17,3080.15 1030.17,3098.86 1026.65,3098.86 1026.65,3080.15 
		974.78,3080.15 974.78,3212.48 1075.21,3212.48 1075.21,3199.09 1075.21,3168.67 1075.21,3132.38 1078.7,3132.38 1078.7,3166.92 
		1089.42,3166.92 1130.91,3166.92 	"/>
</g>
<g id="_x30_3.33.04" class="st0">
	<polygon class="st1" points="799.33,4528.15 801.78,4528.15 809.44,4528.15 809.44,4532.95 809.44,4586.67 845.51,4586.67 
		850.86,4586.67 896.4,4586.67 896.4,4570.93 971.28,4570.93 971.28,4417.66 971.28,4324.66 923.82,4324.66 923.82,4358.59 
		786.42,4358.59 786.42,4528.15 	"/>
</g>
<g id="_x30_3.38.03" class="st0">
	<polygon class="st1" points="974.78,2811.35 974.78,2898.54 1131.31,2898.54 1131.31,2811.35 1003.24,2811.35 	"/>
</g>
<g id="_x30_3.33.03" class="st0">
	<polygon class="st1" points="1003.24,4221.38 976.5,4221.38 976.5,4324.66 976.5,4415.05 1066.95,4415.05 1066.95,4221.38 	"/>
</g>
<g id="_x30_3.43.03" class="st0">
	<polygon class="st1" points="786.71,1019.27 896.4,1019.27 896.4,1004.1 923.82,1004.1 923.82,1019.92 971.28,1019.92 
		971.28,1008.45 971.28,1005.32 971.28,914.43 971.28,911.27 971.28,904.52 971.28,901.4 971.28,810.5 971.28,807.35 971.28,791.73 
		896.4,791.73 896.4,775.39 851.35,775.39 849.42,775.39 813.22,775.39 786.71,775.39 786.71,930.69 786.71,932.88 786.71,936.53 	
		"/>
</g>
<g id="_x30_3.38.04" class="st0">
	<polygon class="st1" points="1062.88,2668.85 976.5,2668.85 976.5,2737.9 1003.24,2737.9 1062.88,2737.9 	"/>
</g>
<g id="_x30_3.43.04" class="st0">
	<rect x="814.76" y="746.07" class="st1" width="34.69" height="25.81"/>
</g>
<g id="_x30_3.42.01" class="st0">
	<polygon class="st1" points="976.5,1039.89 976.5,1170.79 1201.76,1170.79 1203.04,1170.79 1203.04,1044.24 1192.22,1044.24 
		1190.71,1044.24 1190.71,1039.89 1102.89,1039.89 1098.72,1039.89 976.55,1039.89 	"/>
</g>
<g id="_x30_3.33.02" class="st0">
	<polygon class="st1" points="1072.16,4420.27 1072.16,4572.39 1189.2,4572.39 1189.2,4535.92 1189.2,4420.27 	"/>
</g>
<g id="_x30_3.38.02" class="st0">
	<rect x="1080.16" y="2668.85" class="st1" width="106.45" height="69.05"/>
</g>
<g id="EL06" class="st0">
	<polygon class="st1" points="776.36,4354.27 709.84,4354.27 709.84,4357.08 709.84,4439.87 776.36,4439.87 	"/>
</g>
<g id="EL05" class="st0">
	<rect x="709.84" y="4439.87" class="st1" width="66.52" height="93.5"/>
</g>
<g id="EL04" class="st0">
	<polygon class="st1" points="799.38,4532.9 779.02,4532.9 779.02,4533.37 774.41,4533.37 709.84,4533.37 709.84,4533.81 
		709.84,4606.17 676.58,4606.17 676.58,4617.07 799.38,4617.07 799.38,4604.79 	"/>
</g>
<g id="ST03" class="st0">
	<polygon class="st1" points="695.56,4705.98 896.4,4705.98 896.4,4621.84 850.86,4621.84 801.78,4621.84 675.04,4621.84 
		626.32,4621.84 626.32,4668.13 695.56,4668.13 	"/>
</g>
<g id="ST05" class="st0">
	<polygon class="st1" points="896.4,740.85 896.4,656.71 695.56,656.71 695.56,694.56 632.34,694.56 632.34,725.58 631.17,725.58 
		631.17,740.85 703.95,740.85 776.6,740.85 779.02,740.85 	"/>
</g>
<g id="EL08" class="st0">
	<polygon class="st1" points="632.34,754.88 711.9,754.88 711.9,846.58 776.65,846.58 776.65,829.06 776.65,793.09 776.65,745.62 
		703.95,745.62 631.17,745.62 631.17,749.48 632.34,749.48 632.34,754.07 	"/>
</g>
<g id="EL07" class="st0">
	<rect x="711.9" y="846.58" class="st1" width="64.72" height="84.14"/>
</g>
<g id="ST04" class="st0">
	<polygon class="st1" points="711.38,2705.08 711.38,2503.69 616.7,2503.69 616.7,2512.21 616.7,2520.89 616.7,2565.31 
		616.7,2705.08 	"/>
</g>
<g id="ST06" class="st0">
	
		<rect x="1468.43" y="263.1" transform="matrix(0.7071 -0.7071 0.7071 0.7071 188.6974 1170.6493)" class="st3" width="78.04" height="188.9"/>
</g>
<g id="_x30_3.36.03" class="st0">
	<rect x="1191.81" y="3415.05" class="st1" width="128.01" height="86.31"/>
</g>
<g id="_x30_3.38.07" class="st0">
	<rect x="817.91" y="2601.52" class="st1" width="32.82" height="26.69"/>
</g>
<g id="_x30_3.33.05" class="st0">
	<polygon class="st1" points="838.22,4613.18 838.22,4605.99 843.98,4605.99 843.98,4590.17 809.44,4590.17 809.44,4613.18 	"/>
</g>
<polygon id="_x30_3.37.03A" class="st4" points="1077.77,2743.11 1065.28,2743.11 1004.99,2743.11 1004.99,2807.83 1134.82,2807.83 
	1134.82,2900.31 1134.82,2978.7 1134.82,2980.94 1134.82,3071.26 1134.82,3078.63 1134.82,3168.56 1134.82,3170.41 1090.93,3170.41 
	1090.93,3200.62 1078.7,3200.62 1078.7,3214.02 1078.7,3225.7 1078.7,3239.46 1090.93,3239.46 1090.93,3269.67 1134.82,3269.67 
	1134.82,3271.32 1134.82,3271.42 1134.82,3361.11 1134.82,3370.37 1004.99,3370.37 1004.99,3430.79 1064.05,3430.79 
	1064.05,3434.28 1003.24,3434.28 974.78,3434.28 974.78,3703.81 1052.56,3703.81 1052.56,3598.81 1018.02,3598.81 1018.02,3501.35 
	1114.13,3501.35 1118.46,3501.35 1186.59,3501.35 1186.59,3412.44 1186.59,3320.92 1186.59,3236.49 1186.59,3222.29 1186.59,3046.7 
	1186.59,2871.12 1186.59,2856.91 1186.59,2743.11 "/>
<g id="_x30_3.38.05B" class="st0">
	<polygon class="st1" points="905.02,2656.18 899.81,2656.18 899.81,2601.52 855.94,2601.52 855.94,2629.75 855.94,2643.41 
		855.94,2656.18 850.73,2656.18 850.73,2644.94 820.49,2644.94 814.94,2644.94 814.94,2656.18 759.73,2656.18 759.73,2706.51 
		787.88,2706.51 855.65,2706.51 855.65,2717.23 855.65,2761.17 899.81,2761.17 899.81,2706.51 905.02,2706.51 	"/>
</g>
<g id="_x30_3.33.06" class="st0">
	<polygon class="st1" points="1066.95,4572.39 1066.95,4420.27 976.5,4420.27 976.5,4570.9 976.5,4572.39 	"/>
</g>
<g id="_x30_3.43.05" class="st0">
	<polygon class="st1" points="718.29,1019.27 781.5,1019.27 781.5,937.65 696.44,937.65 696.44,1004.02 710.91,1004.02 
		710.91,1019.27 713.44,1019.27 	"/>
</g>
<g id="S-GRID-IDEN">
	<g id="Circles">
		<g id="CIRCLE_19_">
			<circle class="st5" cx="1505.54" cy="64.82" r="17.26"/>
		</g>
		<g id="CIRCLE_20_">
			<circle class="st5" cx="1144.94" cy="68.58" r="17.26"/>
		</g>
		<g id="CIRCLE_21_">
			<circle class="st5" cx="628.23" cy="68.58" r="17.26"/>
		</g>
		<g id="CIRCLE_22_">
			<circle class="st5" cx="194.4" cy="749.48" r="17.26"/>
		</g>
		<g id="CIRCLE_23_">
			<circle class="st5" cx="194.4" cy="399.96" r="17.26"/>
		</g>
		<g id="CIRCLE_24_">
			<circle class="st5" cx="1391.89" cy="68.58" r="17.26"/>
		</g>
		<g id="CIRCLE_25_">
			<circle class="st5" cx="1933.08" cy="384.84" r="17.26"/>
		</g>
		<g id="CIRCLE_26_">
			<circle class="st5" cx="194.4" cy="650.25" r="17.26"/>
		</g>
		<g id="CIRCLE_27_">
			<circle class="st5" cx="194.4" cy="4712.44" r="17.26"/>
		</g>
		<g id="CIRCLE_28_">
			<circle class="st5" cx="701.58" cy="556.88" r="17.26"/>
		</g>
		<g id="CIRCLE_29_">
			<circle class="st5" cx="194.4" cy="4342.77" r="17.26"/>
		</g>
		<g id="CIRCLE_30_">
			<circle class="st5" cx="194.4" cy="1019.92" r="17.26"/>
		</g>
		<g id="CIRCLE_31_">
			<circle class="st5" cx="607.35" cy="556.88" r="17.26"/>
		</g>
		<g id="CIRCLE_32_">
			<circle class="st5" cx="387.27" cy="556.88" r="17.26"/>
		</g>
		<g id="CIRCLE_33_">
			<circle class="st5" cx="723.13" cy="63.52" r="17.26"/>
		</g>
		<g id="CIRCLE_34_">
			<circle class="st5" cx="1933.08" cy="4537.67" r="17.26"/>
		</g>
		<g id="CIRCLE_35_">
			<circle class="st5" cx="1933.08" cy="4710.28" r="17.26"/>
		</g>
		<g id="CIRCLE_3_">
			<circle class="st5" cx="194.4" cy="3229.4" r="17.26"/>
		</g>
		<g id="CIRCLE_4_">
			<circle class="st5" cx="194.4" cy="3594.77" r="17.26"/>
		</g>
		<g id="CIRCLE_5_">
			<circle class="st5" cx="194.4" cy="3960.14" r="17.26"/>
		</g>
		<g id="CIRCLE_6_">
			<circle class="st5" cx="194.4" cy="2133.29" r="17.26"/>
		</g>
		<g id="CIRCLE_7_">
			<circle class="st5" cx="194.4" cy="1767.92" r="17.26"/>
		</g>
		<g id="CIRCLE_8_">
			<circle class="st5" cx="194.4" cy="1402.55" r="17.26"/>
		</g>
		<g id="CIRCLE_9_">
			<circle class="st5" cx="194.4" cy="1037.17" r="17.26"/>
		</g>
		<g id="CIRCLE_10_">
			<circle class="st5" cx="1900.55" cy="4385.89" r="17.26"/>
		</g>
		<g id="CIRCLE_11_">
			<circle class="st5" cx="1820.68" cy="4927.73" r="17.26"/>
		</g>
		<g id="CIRCLE_12_">
			<circle class="st5" cx="194.4" cy="4325.49" r="17.26"/>
		</g>
		<g id="CIRCLE_13_">
			<circle class="st5" cx="1820.68" cy="63.52" r="17.26"/>
		</g>
		<g id="CIRCLE_14_">
			<circle class="st5" cx="1659.38" cy="4926.42" r="17.26"/>
		</g>
		<g id="CIRCLE_15_">
			<circle class="st5" cx="1516.38" cy="4922.67" r="17.26"/>
		</g>
		<g id="CIRCLE_16_">
			<circle class="st5" cx="999.67" cy="4922.67" r="17.26"/>
		</g>
		<g id="CIRCLE_17_">
			<circle class="st5" cx="298.85" cy="4917.06" r="17.26"/>
		</g>
		<g id="CIRCLE_18_">
			<circle class="st5" cx="194.4" cy="4613.18" r="17.26"/>
		</g>
		<g id="CIRCLE_2_">
			<circle class="st5" cx="194.4" cy="2864.03" r="17.26"/>
		</g>
		<g id="CIRCLE_1_">
			<circle class="st5" cx="194.4" cy="2498.66" r="17.26"/>
		</g>
		<g id="CIRCLE">
			<circle class="st5" cx="1933.08" cy="2681.33" r="17.26"/>
		</g>
	</g>
	<g id="Numbers">
		<g id="MTEXT_35_">
			<text transform="matrix(1 0 0 1 1919.3457 4716.4824)" class="st6 st7">A.6</text>
		</g>
		<g id="MTEXT_34_">
			<text transform="matrix(1 0 0 1 1919.3457 4543.8652)" class="st6 st7">A.3</text>
		</g>
		<g id="MTEXT_33_">
			<text transform="matrix(1 0 0 1 715.082 69.7729)" class="st6 st7">D</text>
		</g>
		<g id="MTEXT_32_">
			<text transform="matrix(1 0 0 1 379.104 563.1538)" class="st6 st7">G</text>
		</g>
		<g id="MTEXT_31_">
			<text transform="matrix(1 0 0 1 600.1895 563.1538)" class="st6 st7">F</text>
		</g>
		<g id="MTEXT_30_">
			<text transform="matrix(1 0 0 1 176.5288 1026.1182)" class="st6 st7">43.1</text>
		</g>
		<g id="MTEXT_29_">
			<text transform="matrix(1 0 0 1 175.9985 4348.958)" class="st6 st7">33.9</text>
		</g>
		<g id="MTEXT_28_">
			<text transform="matrix(1 0 0 1 694.0156 563.1538)" class="st6 st7">E</text>
		</g>
		<g id="MTEXT_27_">
			<text transform="matrix(1 0 0 1 175.9985 4718.6455)" class="st6 st7">32.7</text>
		</g>
		<g id="MTEXT_26_">
			<text transform="matrix(1 0 0 1 176.5288 656.4346)" class="st6 st7">44.3</text>
		</g>
		<g id="MTEXT_25_">
			<text transform="matrix(1 0 0 1 1925.5674 391.0312)" class="st6 st7">B</text>
		</g>
		<g id="MTEXT_24_">
			<text transform="matrix(1 0 0 1 1384.2686 74.8052)" class="st6 st7">C</text>
		</g>
		<g id="MTEXT_23_">
			<text transform="matrix(1 0 0 1 176.5288 406.1421)" class="st6 st7">45.1</text>
		</g>
		<g id="MTEXT_22_">
			<text transform="matrix(1 0 0 1 184.0708 755.6885)" class="st6 st7">44</text>
		</g>
		<g id="MTEXT_21_">
			<text transform="matrix(1 0 0 1 610.3438 74.8101)" class="st6 st7">45.4</text>
		</g>
		<g id="MTEXT_20_">
			<text transform="matrix(1 0 0 1 1127.0537 74.8101)" class="st6 st7">45.6</text>
		</g>
		<g id="MTEXT_19_">
			<text transform="matrix(1 0 0 1 1495.1572 71.0811)" class="st6 st7">46</text>
		</g>
		<g id="MTEXT_18_">
			<text transform="matrix(1 0 0 1 183.5405 4619.3906)" class="st6 st7">33</text>
		</g>
		<g id="MTEXT_17_">
			<text transform="matrix(1 0 0 1 288.002 4923.2461)" class="st6 st7">32</text>
		</g>
		<g id="MTEXT_16_">
			<text transform="matrix(1 0 0 1 981.2617 4928.8203)" class="st6 st7">31.6</text>
		</g>
		<g id="MTEXT_15_">
			<text transform="matrix(1 0 0 1 1497.9736 4928.8203)" class="st6 st7">31.4</text>
		</g>
		<g id="MTEXT_14_">
			<text transform="matrix(1 0 0 1 1648.4912 4932.5469)" class="st6 st7">31</text>
		</g>
		<g id="MTEXT_13_">
			<text transform="matrix(1 0 0 1 1810.2861 69.7729)" class="st6 st7">48</text>
		</g>
		<g id="MTEXT_12_">
			<text transform="matrix(1 0 0 1 183.5405 4331.6992)" class="st6 st7">34</text>
		</g>
		<g id="MTEXT_11_">
			<text transform="matrix(1 0 0 1 1809.9893 4933.8555)" class="st6 st7">29</text>
		</g>
		<g id="MTEXT_10_">
			<text transform="matrix(1 0 0 1 1894.375 4392.0381)" class="st6 st7">A</text>
		</g>
		<g id="MTEXT_9_">
			<text transform="matrix(1 0 0 1 184.0708 1043.3799)" class="st6 st7">43</text>
		</g>
		<g id="MTEXT_8_">
			<text transform="matrix(1 0 0 1 184.0708 1408.748)" class="st6 st7">42</text>
		</g>
		<g id="MTEXT_7_">
			<text transform="matrix(1 0 0 1 184.0708 1774.1167)" class="st6 st7">41</text>
		</g>
		<g id="MTEXT_6_">
			<text transform="matrix(1 0 0 1 184.0708 2139.4873)" class="st6 st7">40</text>
		</g>
		<g id="MTEXT_5_">
			<text transform="matrix(1 0 0 1 183.5405 3966.3281)" class="st6 st7">35</text>
		</g>
		<g id="MTEXT_4_">
			<text transform="matrix(1 0 0 1 183.5405 3600.9619)" class="st6 st7">36</text>
		</g>
		<g id="MTEXT_3_">
			<text transform="matrix(1 0 0 1 183.5405 3235.5908)" class="st6 st7">37</text>
		</g>
		<g id="MTEXT_2_">
			<text transform="matrix(1 0 0 1 183.5405 2870.2256)" class="st6 st7">38</text>
		</g>
		<g id="MTEXT_1_">
			<text transform="matrix(1 0 0 1 183.5405 2504.8555)" class="st6 st7">39</text>
		</g>
		<g id="MTEXT">
			<text transform="matrix(1 0 0 1 1916.3838 2687.5312)" class="st6 st7">EW</text>
		</g>
	</g>
</g>
<g id="S-GRID">
	<g id="LINE">
		<line class="st8" x1="211.66" y1="2681.33" x2="1915.82" y2="2681.33"/>
	</g>
	<g id="LINE_1_">
		<line class="st8" x1="1915.82" y1="2498.66" x2="211.66" y2="2498.66"/>
	</g>
	<g id="LINE_2_">
		<line class="st8" x1="1915.82" y1="2864.03" x2="211.66" y2="2864.03"/>
	</g>
	<g id="LINE_3_">
		<line class="st8" x1="1915.82" y1="3229.4" x2="211.66" y2="3229.4"/>
	</g>
	<g id="LINE_4_">
		<line class="st8" x1="1915.82" y1="3594.77" x2="211.66" y2="3594.77"/>
	</g>
	<g id="LINE_5_">
		<line class="st8" x1="1915.82" y1="3960.14" x2="211.66" y2="3960.14"/>
	</g>
	<g id="LINE_6_">
		<line class="st8" x1="1915.82" y1="2133.29" x2="211.66" y2="2133.29"/>
	</g>
	<g id="LINE_7_">
		<line class="st8" x1="1915.82" y1="1767.92" x2="211.66" y2="1767.92"/>
	</g>
	<g id="LINE_8_">
		<line class="st8" x1="1915.82" y1="1402.55" x2="211.66" y2="1402.55"/>
	</g>
	<g id="LINE_9_">
		<line class="st8" x1="1730.52" y1="1037.17" x2="211.66" y2="1037.17"/>
	</g>
	<g id="LINE_10_">
		<line class="st8" x1="1888.35" y1="989" x2="1807.02" y2="1070.3"/>
	</g>
	<g id="LINE_11_">
		<line class="st8" x1="1807.02" y1="1070.3" x2="1807.02" y2="4292.39"/>
	</g>
	<g id="LINE_12_">
		<line class="st8" x1="1807.02" y1="4292.39" x2="1888.35" y2="4373.69"/>
	</g>
	<g id="LINE_13_">
		<line class="st8" x1="912.3" y1="4814.55" x2="912.3" y2="548.14"/>
	</g>
	<g id="LINE_14_">
		<line class="st8" x1="1820.68" y1="4537.02" x2="1820.68" y2="4910.47"/>
	</g>
	<g id="LINE_15_">
		<line class="st8" x1="1727.05" y1="4325.49" x2="211.66" y2="4325.49"/>
	</g>
	<g id="LINE_16_">
		<line class="st8" x1="1820.68" y1="825.67" x2="1820.68" y2="80.78"/>
	</g>
	<g id="LINE_17_">
		<line class="st8" x1="1915.82" y1="4307.35" x2="1666" y2="4910.47"/>
	</g>
	<g id="LINE_18_">
		<line class="st8" x1="1761.9" y1="4677.18" x2="1528.61" y2="4910.47"/>
	</g>
	<g id="LINE_19_">
		<line class="st8" x1="1503.56" y1="4418.81" x2="1011.9" y2="4910.47"/>
	</g>
	<g id="LINE_20_">
		<line class="st8" x1="1915.82" y1="4247.32" x2="314.81" y2="4910.47"/>
	</g>
	<g id="LINE_21_">
		<line class="st8" x1="1224.15" y1="4613.18" x2="211.66" y2="4613.18"/>
	</g>
	<g id="LINE_22_">
		<line class="st8" x1="1915.82" y1="1055.34" x2="1512.13" y2="80.78"/>
	</g>
	<g id="LINE_23_">
		<line class="st8" x1="1761.9" y1="685.51" x2="1157.16" y2="80.78"/>
	</g>
	<g id="LINE_24_">
		<line class="st8" x1="1503.56" y1="943.88" x2="640.45" y2="80.78"/>
	</g>
	<g id="LINE_25_">
		<line class="st8" x1="1915.82" y1="1115.37" x2="277.4" y2="436.71"/>
	</g>
	<g id="LINE_26_">
		<line class="st8" x1="1080.24" y1="749.48" x2="211.66" y2="749.48"/>
	</g>
	<g id="LINE_27_">
		<line class="st8" x1="1060.51" y1="399.96" x2="211.66" y2="399.96"/>
	</g>
	<g id="LINE_28_">
		<line class="st8" x1="1008.25" y1="4910.47" x2="912.3" y2="4814.55"/>
	</g>
	<g id="LINE_29_">
		<line class="st8" x1="912.3" y1="548.14" x2="1379.67" y2="80.78"/>
	</g>
	<g id="LINE_30_">
		<line class="st8" x1="1570.71" y1="4910.47" x2="1202.86" y2="4542.62"/>
	</g>
	<g id="LINE_31_">
		<line class="st8" x1="1202.86" y1="4542.62" x2="1202.86" y2="820.07"/>
	</g>
	<g id="LINE_32_">
		<line class="st8" x1="1202.86" y1="820.07" x2="1638.09" y2="384.84"/>
	</g>
	<g id="LINE_33_">
		<line class="st8" x1="1638.09" y1="384.84" x2="1915.82" y2="384.84"/>
	</g>
	<g id="LINE_34_">
		<line class="st8" x1="1080.24" y1="650.25" x2="211.66" y2="650.25"/>
	</g>
	<g id="LINE_35_">
		<line class="st8" x1="1224.15" y1="4712.44" x2="211.66" y2="4712.44"/>
	</g>
	<g id="LINE_36_">
		<line class="st8" x1="701.58" y1="4792.6" x2="701.58" y2="574.16"/>
	</g>
	<g id="LINE_37_">
		<line class="st8" x1="1217.98" y1="4342.77" x2="211.66" y2="4342.77"/>
	</g>
	<g id="LINE_38_">
		<line class="st8" x1="1730.52" y1="1019.92" x2="211.66" y2="1019.92"/>
	</g>
	<g id="LINE_39_">
		<line class="st8" x1="607.35" y1="4792.6" x2="607.35" y2="574.16"/>
	</g>
	<g id="LINE_40_">
		<line class="st8" x1="387.27" y1="4792.6" x2="387.27" y2="574.16"/>
	</g>
	<g id="LINE_41_">
		<line class="st8" x1="723.13" y1="4910.47" x2="723.13" y2="80.78"/>
	</g>
	<g id="LINE_42_">
		<line class="st8" x1="1759.37" y1="4476.65" x2="1820.42" y2="4537.67"/>
	</g>
	<g id="LINE_43_">
		<line class="st8" x1="1820.42" y1="4537.67" x2="1915.82" y2="4537.67"/>
	</g>
	<g id="LINE_44_">
		<line class="st8" x1="1704.45" y1="4665.84" x2="1748.92" y2="4710.28"/>
	</g>
	<g id="LINE_45_">
		<line class="st8" x1="1748.92" y1="4710.28" x2="1915.82" y2="4710.28"/>
	</g>
</g>
</svg>
