<?xml version="1.0" encoding="utf-8"?>
<!-- Generator: Adobe Illustrator 25.2.3, SVG Export Plug-In . SVG Version: 6.00 Build 0)  -->
<svg version="1.1" id="A-AREA-BNDY" xmlns="http://www.w3.org/2000/svg" xmlns:xlink="http://www.w3.org/1999/xlink" x="0px"
	 y="0px" viewBox="0 0 804.14 1920" style="enable-background:new 0 0 804.14 1920;" xml:space="preserve">
<style type="text/css">
	.st0{fill:#BA9BC9;stroke:#000000;stroke-width:0.2551;stroke-linecap:round;stroke-linejoin:round;stroke-miterlimit:10;}
	.st1{opacity:0.4;}
	.st2{fill:#65C8D0;stroke:#000000;stroke-width:0.2551;stroke-linecap:round;stroke-linejoin:round;stroke-miterlimit:10;}
	.st3{fill:none;stroke:#000000;stroke-width:0.25;stroke-linecap:round;stroke-linejoin:round;stroke-miterlimit:10;}
	.st4{font-family:'ArialMT';}
	.st5{font-size:7.015px;}
	
		.st6{fill:none;stroke:#000000;stroke-width:0.2551;stroke-linecap:round;stroke-linejoin:round;stroke-miterlimit:10;stroke-dasharray:0.0793,0.0198,0.0198,0.0198;}
</style>
<polygon id="_x30_3.45.01_1_" class="st0" points="571.66,98.24 414.45,255.5 356.16,255.5 356.16,297.82 356.16,301.65 
	382.89,301.65 389.92,301.65 407.65,301.65 413.38,301.65 433.97,301.65 433.97,339.38 415.14,339.38 415.14,347.49 415.14,351.28 
	415.14,359.25 433.97,359.25 433.97,394.53 433.97,396.84 466.07,396.84 466.65,396.84 466.65,399.87 473.53,399.87 473.53,316.84 
	607.36,183.01 600.72,176.37 600.53,176.19 598.27,178.45 586.76,166.94 589.02,164.68 563.45,139.1 565.98,136.57 586.87,115.68 
	587.98,114.57 "/>
<polygon id="_x30_3.35.02_1_" class="st0" points="452.75,1440.87 454.7,1440.87 454.7,1599.8 452.7,1599.8 452.7,1618.56 
	515.61,1618.56 515.61,1422 452.75,1422 "/>
<polygon id="_x30_3.34.01_1_" class="st0" points="452.7,1620.56 420.59,1620.56 420.59,1694.86 466.49,1694.86 515.61,1694.86 
	515.61,1664.37 515.61,1662.33 515.61,1620.56 "/>
<g id="LWPOLYLINE" class="st1">
	<polygon class="st2" points="463,254.11 501.78,215.33 488.24,201.8 489.53,200.5 504.36,215.33 463,256.69 448.17,241.86 
		449.47,240.57 	"/>
</g>
<g id="LWPOLYLINE_2_" class="st1">
	<polygon class="st2" points="417.62,694.77 417.62,781.14 402.72,781.14 402.72,779.79 415.62,779.79 415.62,696.77 406.03,696.77 
		406.03,694.77 	"/>
</g>
<polygon id="_x30_3.40.01_1_" class="st0" points="470.8,997.63 470.8,962.42 466.32,962.42 466.32,957.45 471.8,957.45 
	471.8,821.97 466.32,821.97 466.32,817.28 471.8,817.28 471.8,681.8 466.48,681.8 466.48,677.11 471.8,677.11 471.8,541.64 
	466.48,541.64 466.48,536.95 471.8,536.95 471.8,452.24 383.89,452.24 383.89,515.22 395.48,515.22 395.48,543.71 383.89,543.71 
	383.89,567.57 391.61,567.57 391.61,569.23 383.89,569.23 383.89,620.83 391.03,620.83 391.03,621.24 383.89,621.24 383.89,631.72 
	391.03,631.72 391.03,632.14 383.89,632.14 383.89,655.39 395.48,655.39 395.48,683.87 383.72,683.87 383.72,795.55 395.48,795.55 
	395.48,824.04 383.89,824.04 383.89,847.91 391.03,847.91 391.03,848.32 383.89,848.32 383.89,858.81 391.03,858.81 391.03,859.22 
	383.89,859.22 383.89,910.82 391.61,910.82 391.61,912.48 383.89,912.48 383.89,935.72 395.48,935.72 395.48,964.21 383.89,964.21 
	383.89,1022.95 417.95,1022.95 422.74,1022.95 465.49,1022.95 470.8,1022.95 470.8,1002.44 "/>
<polygon id="_x30_3.38.05A_1_" class="st0" points="381.89,1618.56 393.48,1618.56 393.48,1595.39 381.89,1595.39 381.89,1422 
	381.89,1317.26 393.48,1317.26 393.48,1294.08 381.89,1294.08 381.89,1290.53 381.89,1238.58 381.89,1234.1 381.89,1182.16 
	381.89,1179.33 381.89,1144.68 381.89,1143.82 381.89,1113.75 381.89,1078.27 393.48,1078.27 393.48,1053.44 381.89,1053.44 
	381.89,1023.95 381.89,962.21 393.48,962.21 393.48,937.72 381.89,937.72 381.89,912.27 381.89,911.03 381.89,859.02 381.89,848.12 
	381.89,822.04 393.48,822.04 393.48,797.55 381.89,797.55 381.89,681.87 393.48,681.87 393.48,657.39 381.89,657.39 381.89,631.93 
	381.89,621.03 381.89,569.02 381.89,567.78 381.89,541.7 393.48,541.7 393.48,517.22 381.89,517.22 381.89,451.24 381.89,399.1 
	381.89,398.98 381.89,398.17 381.89,392.36 363.68,392.36 363.68,410.57 356.47,410.57 356.47,517.08 363.68,517.08 363.68,541.91 
	356.47,541.91 356.47,542.53 356.47,544.12 356.47,657.25 363.68,657.25 363.68,682.08 356.47,682.08 356.47,797.42 363.68,797.42 
	363.68,822.25 356.47,822.25 356.47,874.68 363.68,874.68 363.68,904.47 356.47,904.47 356.47,945.31 363.68,945.31 363.68,965.18 
	356.47,965.18 356.47,998.44 356.47,1020.09 356.47,1039.4 356.47,1061.04 356.47,1094.31 363.68,1094.31 363.68,1114.18 
	356.47,1114.18 356.47,1155.01 363.68,1155.01 363.68,1184.81 356.47,1184.81 356.47,1236.69 363.68,1236.69 363.68,1243.31 
	356.47,1243.31 356.47,1373.82 363.68,1373.82 363.68,1386.51 356.47,1386.51 356.47,1517.02 363.68,1517.02 363.68,1523.65 
	356.47,1523.65 356.47,1654.99 363.68,1654.99 363.68,1660.18 381.89,1660.18 "/>
<polygon id="_x30_3.35.03_1_" class="st0" points="452.7,1599.8 452.7,1440.87 452.75,1440.87 452.75,1422 414.07,1422 412.4,1422 
	383.23,1422 383.23,1594.04 394.82,1594.04 394.82,1618.56 419.59,1618.56 452.7,1618.56 "/>
<g id="LWPOLYLINE_6_" class="st1">
	<rect x="465.49" y="1657.47" class="st2" width="10.49" height="12.69"/>
</g>
<polygon id="_x30_3.33.01_1_" class="st0" points="515.61,1730.78 515.61,1696.86 467.49,1696.86 467.49,1740.64 475.88,1740.64 
	478.21,1746.27 "/>
<polygon id="_x30_3.36.01_1_" class="st0" points="466.49,1243.31 466.49,1274.11 515.61,1274.11 515.61,1241 475.98,1241 
	475.98,1243.31 "/>
<polygon id="_x30_3.36.04_1_" class="st0" points="465.49,1346.33 439.35,1346.33 439.35,1377.96 486.7,1377.96 486.7,1379.17 
	515.61,1379.17 515.61,1346.33 "/>
<rect id="_x30_3.36.02_1_" x="466.49" y="1276.11" class="st0" width="49.11" height="33.11"/>
<polygon id="_x30_3.38.01_1_" class="st0" points="466.49,1052.44 466.49,1096.52 476.05,1096.52 476.05,1098.83 515.61,1098.83 
	515.61,1073.61 486.37,1024.95 471.8,1024.95 466.49,1024.95 "/>
<polygon id="_x30_3.35.01_1_" class="st0" points="415.07,1420 452.75,1420 515.61,1420 515.61,1381.17 486.7,1381.17 
	486.7,1382.37 438.35,1382.37 415.07,1382.37 "/>
<polygon id="_x30_3.37.01_1_" class="st0" points="466.49,1103.14 466.49,1168.91 515.61,1168.91 515.61,1100.83 476.05,1100.83 
	476.05,1103.14 "/>
<polygon id="_x30_3.37.02_1_" class="st0" points="466.49,1170.91 466.49,1236.69 475.98,1236.69 475.98,1239 515.61,1239 
	515.61,1170.91 "/>
<polygon id="_x30_3.36.06_1_" class="st0" points="437.35,1378.55 437.35,1344.33 401.17,1344.33 401.17,1380.37 413.05,1380.37 
	414.07,1380.37 437.35,1380.37 "/>
<g id="LWPOLYLINE_18_" class="st1">
	<rect x="465.49" y="1517.02" class="st2" width="10.49" height="6.62"/>
</g>
<polygon id="_x30_3.38.06_1_" class="st0" points="284.18,964.38 284.18,1014.43 321.7,1014.43 321.7,1009.95 321.7,998.44 
	321.7,991.15 323.7,991.15 323.7,997.77 335.64,997.77 335.64,991.15 337.64,991.15 337.64,997.77 354.47,997.77 354.47,964.59 
	354.47,961.52 323.7,961.52 323.7,963.19 323.7,963.8 323.7,969.8 321.7,969.8 321.7,964.38 "/>
<polygon id="_x30_3.38.08_1_" class="st0" points="354.47,1094.9 354.47,1061.72 337.53,1061.72 337.53,1067.82 336.19,1067.82 
	336.19,1061.04 336.19,1044.09 317.7,1044.09 317.7,1072.17 311.53,1072.17 293.83,1072.17 293.83,1070.82 310.94,1070.82 
	310.94,1040.75 299.73,1040.75 249.51,1040.75 249.51,1101.79 294.94,1101.79 294.94,1088.72 317.7,1088.72 317.7,1096.59 
	354.47,1096.59 "/>
<polygon id="_x30_3.43.01_1_" class="st0" points="430.79,336.21 430.79,304.82 413.96,304.82 413.96,312 407.07,312 407.07,304.82 
	390.51,304.82 390.51,312 383.89,312 383.89,346.9 411.96,346.9 411.96,337.8 411.96,336.19 411.96,329.59 413.96,329.59 
	413.96,336.21 "/>
<polygon id="_x30_3.43.02_1_" class="st0" points="430.79,393.95 430.79,362.42 413.96,362.42 413.96,369.05 411.96,369.05 
	411.96,362.44 411.96,360.84 411.96,351.87 383.89,351.87 383.89,386.77 390.51,386.77 390.51,393.95 407.07,393.95 407.07,386.77 
	413.96,386.77 413.96,393.95 "/>
<rect id="_x30_3.37.05_1_" x="383.58" y="1145.53" class="st0" width="59.36" height="33.08"/>
<rect id="_x30_3.37.06_1_" x="383.23" y="1114.42" class="st0" width="60.05" height="29.42"/>
<polygon id="_x30_3.36.07_1_" class="st0" points="443.28,1289.94 443.28,1256.79 443.13,1256.79 427.21,1256.79 423.1,1256.79 
	423.1,1270.04 421.76,1270.04 421.76,1256.12 421.76,1244.45 421.76,1239.17 383.23,1239.17 383.23,1289.94 403.13,1289.94 
	403.13,1282.77 404.48,1282.77 404.48,1289.94 "/>
<polygon id="_x30_3.37.04_1_" class="st0" points="443.28,1216.03 443.28,1182.74 404.48,1182.74 404.48,1189.92 403.13,1189.92 
	403.13,1182.74 383.23,1182.74 383.23,1233.51 421.76,1233.51 421.76,1228.37 421.76,1216.7 421.76,1202.78 423.1,1202.78 
	423.1,1216.03 427.21,1216.03 443.13,1216.03 "/>
<polygon id="_x30_3.33.04_1_" class="st0" points="315.92,1738.25 316.86,1738.25 319.8,1738.25 319.8,1740.09 319.8,1760.7 
	333.64,1760.7 335.69,1760.7 353.16,1760.7 353.16,1754.66 381.89,1754.66 381.89,1695.86 381.89,1660.18 363.68,1660.18 
	363.68,1673.2 310.97,1673.2 310.97,1738.25 "/>
<polygon id="_x30_3.38.03_1_" class="st0" points="383.23,1079.62 383.23,1113.07 443.28,1113.07 443.28,1079.62 394.15,1079.62 "/>
<polygon id="_x30_3.33.03_1_" class="st0" points="394.15,1620.56 383.89,1620.56 383.89,1660.18 383.89,1694.86 418.59,1694.86 
	418.59,1620.56 "/>
<polygon id="_x30_3.43.03_1_" class="st0" points="311.08,392.11 353.16,392.11 353.16,386.29 363.68,386.29 363.68,392.36 
	381.89,392.36 381.89,387.96 381.89,386.76 381.89,351.89 381.89,350.68 381.89,348.09 381.89,346.89 381.89,312.02 381.89,310.81 
	381.89,304.82 353.16,304.82 353.16,298.55 335.88,298.55 335.14,298.55 321.25,298.55 311.08,298.55 311.08,358.13 311.08,358.97 
	311.08,360.37 "/>
<polygon id="_x30_3.38.04_1_" class="st0" points="417.03,1024.95 383.89,1024.95 383.89,1051.44 394.15,1051.44 417.03,1051.44 "/>
<rect id="_x30_3.43.04_1_" x="321.84" y="287.3" class="st0" width="13.31" height="9.9"/>
<polygon id="_x30_3.42.01_1_" class="st0" points="383.89,400.02 383.89,450.24 470.31,450.24 470.8,450.24 470.8,401.69 
	466.65,401.69 466.07,401.69 466.07,400.02 432.38,400.02 430.78,400.02 383.91,400.02 "/>
<polygon id="_x30_3.33.02_1_" class="st0" points="420.59,1696.86 420.59,1755.22 465.49,1755.22 465.49,1741.23 465.49,1696.86 "/>
<rect id="_x30_3.38.02_1_" x="423.66" y="1024.95" class="st0" width="40.84" height="26.49"/>
<polygon id="EL06_1_" class="st0" points="307.11,1671.54 281.59,1671.54 281.59,1672.62 281.59,1704.38 307.11,1704.38 "/>
<rect id="EL05_1_" x="281.59" y="1704.38" class="st0" width="25.52" height="35.87"/>
<polygon id="EL04_1_" class="st0" points="315.94,1740.07 308.13,1740.07 308.13,1740.25 306.36,1740.25 281.59,1740.25 
	281.59,1740.42 281.59,1768.18 268.83,1768.18 268.83,1772.36 315.94,1772.36 315.94,1767.65 "/>
<polygon id="ST03_1_" class="st0" points="276.11,1806.47 353.16,1806.47 353.16,1774.19 335.69,1774.19 316.86,1774.19 
	268.24,1774.19 249.55,1774.19 249.55,1791.95 276.11,1791.95 "/>
<polygon id="ST05_1_" class="st0" points="353.16,285.3 353.16,253.02 276.11,253.02 276.11,267.54 251.86,267.54 251.86,279.44 
	251.41,279.44 251.41,285.3 279.33,285.3 307.2,285.3 308.13,285.3 "/>
<polygon id="EL08_1_" class="st0" points="251.86,290.68 282.38,290.68 282.38,325.86 307.22,325.86 307.22,319.14 307.22,305.34 
	307.22,287.13 279.33,287.13 251.41,287.13 251.41,288.61 251.86,288.61 251.86,290.37 "/>
<rect id="EL07_1_" x="282.38" y="325.86" class="st0" width="24.83" height="32.28"/>
<polygon id="ST04_1_" class="st0" points="282.18,1038.85 282.18,961.59 245.86,961.59 245.86,964.86 245.86,968.19 245.86,985.23 
	245.86,1038.85 "/>
<rect id="ST06_1_" x="572.62" y="102.01" transform="matrix(0.7071 -0.7071 0.7071 0.7071 74.344 455.9814)" class="st0" width="29.94" height="72.47"/>
<rect id="_x30_3.36.03_1_" x="466.49" y="1311.22" class="st0" width="49.11" height="33.11"/>
<rect id="_x30_3.38.07_1_" x="323.05" y="999.12" class="st0" width="12.59" height="10.24"/>
<polygon id="_x30_3.33.05_1_" class="st0" points="330.84,1770.87 330.84,1768.11 333.05,1768.11 333.05,1762.04 319.8,1762.04 
	319.8,1770.87 "/>
<polygon id="_x30_3.37.03A" class="st0" points="422.74,1053.44 417.95,1053.44 394.82,1053.44 394.82,1078.27 444.63,1078.27 
	444.63,1113.75 444.63,1143.82 444.63,1144.68 444.63,1179.33 444.63,1182.16 444.63,1216.66 444.63,1217.37 427.79,1217.37 
	427.79,1228.96 423.1,1228.96 423.1,1234.1 423.1,1238.58 423.1,1243.86 427.79,1243.86 427.79,1255.45 444.63,1255.45 
	444.63,1256.08 444.63,1256.12 444.63,1290.53 444.63,1294.08 394.82,1294.08 394.82,1317.26 417.48,1317.26 417.48,1318.6 
	394.15,1318.6 383.23,1318.6 383.23,1422 413.07,1422 413.07,1381.72 399.82,1381.72 399.82,1344.33 436.69,1344.33 438.35,1344.33 
	464.49,1344.33 464.49,1310.22 464.49,1275.11 464.49,1242.72 464.49,1237.27 464.49,1169.91 464.49,1102.55 464.49,1097.1 
	464.49,1053.44 "/>
<polygon id="_x30_3.38.05B_1_" class="st0" points="356.47,1020.09 354.47,1020.09 354.47,999.12 337.64,999.12 337.64,1009.95 
	337.64,1015.19 337.64,1020.09 335.64,1020.09 335.64,1015.78 324.04,1015.78 321.91,1015.78 321.91,1020.09 300.73,1020.09 
	300.73,1039.4 311.53,1039.4 337.53,1039.4 337.53,1043.51 337.53,1060.37 354.47,1060.37 354.47,1039.4 356.47,1039.4 "/>
<polygon id="_x30_3.33.06_1_" class="st0" points="418.59,1755.22 418.59,1696.86 383.89,1696.86 383.89,1754.65 383.89,1755.22 "/>
<polygon id="_x30_3.43.05_1_" class="st0" points="284.83,392.11 309.08,392.11 309.08,360.8 276.45,360.8 276.45,386.26 
	282,386.26 282,392.11 282.97,392.11 "/>
<g id="S-GRID-IDEN">
	<g id="Circles">
		<g id="CIRCLE_19_">
			<circle class="st3" cx="586.85" cy="25.95" r="6.62"/>
		</g>
		<g id="CIRCLE_20_">
			<circle class="st3" cx="448.51" cy="27.39" r="6.62"/>
		</g>
		<g id="CIRCLE_21_">
			<circle class="st3" cx="250.28" cy="27.39" r="6.62"/>
		</g>
		<g id="CIRCLE_22_">
			<circle class="st3" cx="83.85" cy="288.61" r="6.62"/>
		</g>
		<g id="CIRCLE_23_">
			<circle class="st3" cx="83.85" cy="154.52" r="6.62"/>
		</g>
		<g id="CIRCLE_24_">
			<circle class="st3" cx="543.25" cy="27.39" r="6.62"/>
		</g>
		<g id="CIRCLE_25_">
			<circle class="st3" cx="750.87" cy="148.72" r="6.62"/>
		</g>
		<g id="CIRCLE_26_">
			<circle class="st3" cx="83.85" cy="250.54" r="6.62"/>
		</g>
		<g id="CIRCLE_27_">
			<circle class="st3" cx="83.85" cy="1808.95" r="6.62"/>
		</g>
		<g id="CIRCLE_28_">
			<circle class="st3" cx="278.42" cy="214.72" r="6.62"/>
		</g>
		<g id="CIRCLE_29_">
			<circle class="st3" cx="83.85" cy="1667.13" r="6.62"/>
		</g>
		<g id="CIRCLE_30_">
			<circle class="st3" cx="83.85" cy="392.36" r="6.62"/>
		</g>
		<g id="CIRCLE_31_">
			<circle class="st3" cx="242.27" cy="214.72" r="6.62"/>
		</g>
		<g id="CIRCLE_32_">
			<circle class="st3" cx="157.84" cy="214.72" r="6.62"/>
		</g>
		<g id="CIRCLE_33_">
			<circle class="st3" cx="286.69" cy="25.45" r="6.62"/>
		</g>
		<g id="CIRCLE_34_">
			<circle class="st3" cx="750.87" cy="1741.9" r="6.62"/>
		</g>
		<g id="CIRCLE_35_">
			<circle class="st3" cx="750.87" cy="1808.12" r="6.62"/>
		</g>
		<g id="CIRCLE_3_">
			<circle class="st3" cx="83.85" cy="1240" r="6.62"/>
		</g>
		<g id="CIRCLE_4_">
			<circle class="st3" cx="83.85" cy="1380.17" r="6.62"/>
		</g>
		<g id="CIRCLE_5_">
			<circle class="st3" cx="83.85" cy="1520.34" r="6.62"/>
		</g>
		<g id="CIRCLE_6_">
			<circle class="st3" cx="83.85" cy="819.49" r="6.62"/>
		</g>
		<g id="CIRCLE_7_">
			<circle class="st3" cx="83.85" cy="679.32" r="6.62"/>
		</g>
		<g id="CIRCLE_8_">
			<circle class="st3" cx="83.85" cy="539.15" r="6.62"/>
		</g>
		<g id="CIRCLE_9_">
			<circle class="st3" cx="83.85" cy="398.98" r="6.62"/>
		</g>
		<g id="CIRCLE_10_">
			<circle class="st3" cx="738.39" cy="1683.67" r="6.62"/>
		</g>
		<g id="CIRCLE_11_">
			<circle class="st3" cx="707.75" cy="1891.54" r="6.62"/>
		</g>
		<g id="CIRCLE_12_">
			<circle class="st3" cx="83.85" cy="1660.5" r="6.62"/>
		</g>
		<g id="CIRCLE_13_">
			<circle class="st3" cx="707.75" cy="25.45" r="6.62"/>
		</g>
		<g id="CIRCLE_14_">
			<circle class="st3" cx="645.87" cy="1891.04" r="6.62"/>
		</g>
		<g id="CIRCLE_15_">
			<circle class="st3" cx="591.01" cy="1889.6" r="6.62"/>
		</g>
		<g id="CIRCLE_16_">
			<circle class="st3" cx="392.78" cy="1889.6" r="6.62"/>
		</g>
		<g id="CIRCLE_17_">
			<circle class="st3" cx="123.92" cy="1887.45" r="6.62"/>
		</g>
		<g id="CIRCLE_18_">
			<circle class="st3" cx="83.85" cy="1770.87" r="6.62"/>
		</g>
		<g id="CIRCLE_2_">
			<circle class="st3" cx="83.85" cy="1099.83" r="6.62"/>
		</g>
		<g id="CIRCLE_1_">
			<circle class="st3" cx="83.85" cy="959.66" r="6.62"/>
		</g>
		<g id="CIRCLE">
			<circle class="st3" cx="750.87" cy="1029.74" r="6.62"/>
		</g>
	</g>
	<g id="Numbers">
		<g id="MTEXT_35_">
			<text transform="matrix(1 0 0 1 745.6021 1810.5)" class="st4 st5">A.6</text>
		</g>
		<g id="MTEXT_34_">
			<text transform="matrix(1 0 0 1 745.6021 1744.2773)" class="st4 st5">A.3</text>
		</g>
		<g id="MTEXT_33_">
			<text transform="matrix(1 0 0 1 283.6016 27.8491)" class="st4 st5">D</text>
		</g>
		<g id="MTEXT_32_">
			<text transform="matrix(1 0 0 1 154.708 217.1284)" class="st4 st5">G</text>
		</g>
		<g id="MTEXT_31_">
			<text transform="matrix(1 0 0 1 239.5244 217.1284)" class="st4 st5">F</text>
		</g>
		<g id="MTEXT_30_">
			<text transform="matrix(1 0 0 1 76.9922 394.7388)" class="st4 st5">43.1</text>
		</g>
		<g id="MTEXT_29_">
			<text transform="matrix(1 0 0 1 76.7891 1669.5039)" class="st4 st5">33.9</text>
		</g>
		<g id="MTEXT_28_">
			<text transform="matrix(1 0 0 1 275.5196 217.1284)" class="st4 st5">E</text>
		</g>
		<g id="MTEXT_27_">
			<text transform="matrix(1 0 0 1 76.7891 1811.3301)" class="st4 st5">32.7</text>
		</g>
		<g id="MTEXT_26_">
			<text transform="matrix(1 0 0 1 76.9922 252.9146)" class="st4 st5">44.3</text>
		</g>
		<g id="MTEXT_25_">
			<text transform="matrix(1 0 0 1 747.9888 151.0962)" class="st4 st5">B</text>
		</g>
		<g id="MTEXT_24_">
			<text transform="matrix(1 0 0 1 540.3267 29.7798)" class="st4 st5">C</text>
		</g>
		<g id="MTEXT_23_">
			<text transform="matrix(1 0 0 1 76.9922 156.8931)" class="st4 st5">45.1</text>
		</g>
		<g id="MTEXT_22_">
			<text transform="matrix(1 0 0 1 79.8858 290.9917)" class="st4 st5">44</text>
		</g>
		<g id="MTEXT_21_">
			<text transform="matrix(1 0 0 1 243.4199 29.7817)" class="st4 st5">45.4</text>
		</g>
		<g id="MTEXT_20_">
			<text transform="matrix(1 0 0 1 441.649 29.7817)" class="st4 st5">45.6</text>
		</g>
		<g id="MTEXT_19_">
			<text transform="matrix(1 0 0 1 582.8677 28.3511)" class="st4 st5">46</text>
		</g>
		<g id="MTEXT_18_">
			<text transform="matrix(1 0 0 1 79.6826 1773.252)" class="st4 st5">33</text>
		</g>
		<g id="MTEXT_17_">
			<text transform="matrix(1 0 0 1 119.7578 1889.8223)" class="st4 st5">32</text>
		</g>
		<g id="MTEXT_16_">
			<text transform="matrix(1 0 0 1 385.7178 1891.9609)" class="st4 st5">31.6</text>
		</g>
		<g id="MTEXT_15_">
			<text transform="matrix(1 0 0 1 583.9478 1891.9609)" class="st4 st5">31.4</text>
		</g>
		<g id="MTEXT_14_">
			<text transform="matrix(1 0 0 1 641.6919 1893.3906)" class="st4 st5">31</text>
		</g>
		<g id="MTEXT_13_">
			<text transform="matrix(1 0 0 1 703.7622 27.8491)" class="st4 st5">48</text>
		</g>
		<g id="MTEXT_12_">
			<text transform="matrix(1 0 0 1 79.6826 1662.8828)" class="st4 st5">34</text>
		</g>
		<g id="MTEXT_11_">
			<text transform="matrix(1 0 0 1 703.6489 1893.8926)" class="st4 st5">29</text>
		</g>
		<g id="MTEXT_10_">
			<text transform="matrix(1 0 0 1 736.022 1686.0312)" class="st4 st5">A</text>
		</g>
		<g id="MTEXT_9_">
			<text transform="matrix(1 0 0 1 79.8858 401.3608)" class="st4 st5">43</text>
		</g>
		<g id="MTEXT_8_">
			<text transform="matrix(1 0 0 1 79.8858 541.5298)" class="st4 st5">42</text>
		</g>
		<g id="MTEXT_7_">
			<text transform="matrix(1 0 0 1 79.8858 681.6987)" class="st4 st5">41</text>
		</g>
		<g id="MTEXT_6_">
			<text transform="matrix(1 0 0 1 79.8858 821.8687)" class="st4 st5">40</text>
		</g>
		<g id="MTEXT_5_">
			<text transform="matrix(1 0 0 1 79.6826 1522.7129)" class="st4 st5">35</text>
		</g>
		<g id="MTEXT_4_">
			<text transform="matrix(1 0 0 1 79.6826 1382.5449)" class="st4 st5">36</text>
		</g>
		<g id="MTEXT_3_">
			<text transform="matrix(1 0 0 1 79.6826 1242.375)" class="st4 st5">37</text>
		</g>
		<g id="MTEXT_2_">
			<text transform="matrix(1 0 0 1 79.6826 1102.207)" class="st4 st5">38</text>
		</g>
		<g id="MTEXT_1_">
			<text transform="matrix(1 0 0 1 79.6826 962.0371)" class="st4 st5">39</text>
		</g>
		<g id="MTEXT">
			<text transform="matrix(1 0 0 1 744.4653 1032.1191)" class="st4 st5">EW</text>
		</g>
	</g>
</g>
<g id="S-GRID">
	<g id="LINE">
		<line class="st6" x1="90.47" y1="1029.74" x2="744.25" y2="1029.74"/>
	</g>
	<g id="LINE_1_">
		<line class="st6" x1="744.25" y1="959.66" x2="90.47" y2="959.66"/>
	</g>
	<g id="LINE_2_">
		<line class="st6" x1="744.25" y1="1099.83" x2="90.47" y2="1099.83"/>
	</g>
	<g id="LINE_3_">
		<line class="st6" x1="744.25" y1="1240" x2="90.47" y2="1240"/>
	</g>
	<g id="LINE_4_">
		<line class="st6" x1="744.25" y1="1380.17" x2="90.47" y2="1380.17"/>
	</g>
	<g id="LINE_5_">
		<line class="st6" x1="744.25" y1="1520.34" x2="90.47" y2="1520.34"/>
	</g>
	<g id="LINE_6_">
		<line class="st6" x1="744.25" y1="819.49" x2="90.47" y2="819.49"/>
	</g>
	<g id="LINE_7_">
		<line class="st6" x1="744.25" y1="679.32" x2="90.47" y2="679.32"/>
	</g>
	<g id="LINE_8_">
		<line class="st6" x1="744.25" y1="539.15" x2="90.47" y2="539.15"/>
	</g>
	<g id="LINE_9_">
		<line class="st6" x1="673.16" y1="398.98" x2="90.47" y2="398.98"/>
	</g>
	<g id="LINE_10_">
		<line class="st6" x1="733.71" y1="380.5" x2="702.51" y2="411.69"/>
	</g>
	<g id="LINE_11_">
		<line class="st6" x1="702.51" y1="411.69" x2="702.51" y2="1647.8"/>
	</g>
	<g id="LINE_12_">
		<line class="st6" x1="702.51" y1="1647.8" x2="733.71" y2="1678.99"/>
	</g>
	<g id="LINE_13_">
		<line class="st6" x1="359.26" y1="1848.12" x2="359.26" y2="211.37"/>
	</g>
	<g id="LINE_14_">
		<line class="st6" x1="707.75" y1="1741.65" x2="707.75" y2="1884.92"/>
	</g>
	<g id="LINE_15_">
		<line class="st6" x1="671.83" y1="1660.5" x2="90.47" y2="1660.5"/>
	</g>
	<g id="LINE_16_">
		<line class="st6" x1="707.75" y1="317.84" x2="707.75" y2="32.07"/>
	</g>
	<g id="LINE_17_">
		<line class="st6" x1="744.25" y1="1653.54" x2="648.41" y2="1884.92"/>
	</g>
	<g id="LINE_18_">
		<line class="st6" x1="685.2" y1="1795.42" x2="595.7" y2="1884.92"/>
	</g>
	<g id="LINE_19_">
		<line class="st6" x1="586.09" y1="1696.3" x2="397.47" y2="1884.92"/>
	</g>
	<g id="LINE_20_">
		<line class="st6" x1="744.25" y1="1630.51" x2="130.04" y2="1884.92"/>
	</g>
	<g id="LINE_21_">
		<line class="st6" x1="478.9" y1="1770.87" x2="90.47" y2="1770.87"/>
	</g>
	<g id="LINE_22_">
		<line class="st6" x1="744.25" y1="405.95" x2="589.38" y2="32.07"/>
	</g>
	<g id="LINE_23_">
		<line class="st6" x1="685.2" y1="264.07" x2="453.2" y2="32.07"/>
	</g>
	<g id="LINE_24_">
		<line class="st6" x1="586.09" y1="363.19" x2="254.97" y2="32.07"/>
	</g>
	<g id="LINE_25_">
		<line class="st6" x1="744.25" y1="428.98" x2="115.69" y2="168.62"/>
	</g>
	<g id="LINE_26_">
		<line class="st6" x1="423.69" y1="288.61" x2="90.47" y2="288.61"/>
	</g>
	<g id="LINE_27_">
		<line class="st6" x1="416.12" y1="154.52" x2="90.47" y2="154.52"/>
	</g>
	<g id="LINE_28_">
		<line class="st6" x1="396.07" y1="1884.92" x2="359.26" y2="1848.12"/>
	</g>
	<g id="LINE_29_">
		<line class="st6" x1="359.26" y1="211.37" x2="538.56" y2="32.07"/>
	</g>
	<g id="LINE_30_">
		<line class="st6" x1="611.85" y1="1884.92" x2="470.73" y2="1743.8"/>
	</g>
	<g id="LINE_31_">
		<line class="st6" x1="470.73" y1="1743.8" x2="470.73" y2="315.69"/>
	</g>
	<g id="LINE_32_">
		<line class="st6" x1="470.73" y1="315.69" x2="637.7" y2="148.72"/>
	</g>
	<g id="LINE_33_">
		<line class="st6" x1="637.7" y1="148.72" x2="744.25" y2="148.72"/>
	</g>
	<g id="LINE_34_">
		<line class="st6" x1="423.69" y1="250.54" x2="90.47" y2="250.54"/>
	</g>
	<g id="LINE_35_">
		<line class="st6" x1="478.9" y1="1808.95" x2="90.47" y2="1808.95"/>
	</g>
	<g id="LINE_36_">
		<line class="st6" x1="278.42" y1="1839.7" x2="278.42" y2="221.35"/>
	</g>
	<g id="LINE_37_">
		<line class="st6" x1="476.53" y1="1667.13" x2="90.47" y2="1667.13"/>
	</g>
	<g id="LINE_38_">
		<line class="st6" x1="673.16" y1="392.36" x2="90.47" y2="392.36"/>
	</g>
	<g id="LINE_39_">
		<line class="st6" x1="242.27" y1="1839.7" x2="242.27" y2="221.35"/>
	</g>
	<g id="LINE_40_">
		<line class="st6" x1="157.84" y1="1839.7" x2="157.84" y2="221.35"/>
	</g>
	<g id="LINE_41_">
		<line class="st6" x1="286.69" y1="1884.92" x2="286.69" y2="32.07"/>
	</g>
	<g id="LINE_42_">
		<line class="st6" x1="684.23" y1="1718.49" x2="707.65" y2="1741.9"/>
	</g>
	<g id="LINE_43_">
		<line class="st6" x1="707.65" y1="1741.9" x2="744.25" y2="1741.9"/>
	</g>
	<g id="LINE_44_">
		<line class="st6" x1="663.16" y1="1791.07" x2="680.22" y2="1808.12"/>
	</g>
	<g id="LINE_45_">
		<line class="st6" x1="680.22" y1="1808.12" x2="744.25" y2="1808.12"/>
	</g>
</g>
</svg>
