<?xml version="1.0" encoding="utf-8"?>
<!-- Generator: Adobe Illustrator 25.2.3, SVG Export Plug-In . SVG Version: 6.00 Build 0)  -->
<svg version="1.1" id="A-AREA-BNDY" xmlns="http://www.w3.org/2000/svg" xmlns:xlink="http://www.w3.org/1999/xlink" x="0px"
	 y="0px" viewBox="0 0 2094.1 5000" style="enable-background:new 0 0 2094.1 5000;" xml:space="preserve">
<style type="text/css">
	.st0{fill:#BA9BC9;stroke:#000000;stroke-width:0.2551;stroke-linecap:round;stroke-linejoin:round;stroke-miterlimit:10;}
	.st1{opacity:0.4;}
	.st2{fill:#65C8D0;stroke:#000000;stroke-width:0.2551;stroke-linecap:round;stroke-linejoin:round;stroke-miterlimit:10;}
	.st3{fill:none;stroke:#000000;stroke-width:0.25;stroke-linecap:round;stroke-linejoin:round;stroke-miterlimit:10;}
	.st4{font-family:'ArialMT';}
	.st5{font-size:18.3743px;}
	
		.st6{fill:none;stroke:#000000;stroke-width:0.2551;stroke-linecap:round;stroke-linejoin:round;stroke-miterlimit:10;stroke-dasharray:7.930000e-02,1.980000e-02,1.980000e-02,1.980000e-02;}
</style>
<polygon id="_x30_3.45.01" class="st0" points="1463.6,254.3 1051.8,666.2 899.1,666.2 899.1,777 899.1,787.1 969.2,787.1 
	987.6,787.1 1034,787.1 1049,787.1 1102.9,787.1 1102.9,885.9 1053.6,885.9 1053.6,907.1 1053.6,917 1053.6,937.9 1102.9,937.9 
	1102.9,1030.3 1102.9,1036.4 1187,1036.4 1188.5,1036.4 1188.5,1044.3 1206.6,1044.3 1206.6,826.8 1557.1,476.3 1539.7,458.9 
	1539.2,458.4 1533.3,464.4 1503.1,434.2 1509.1,428.3 1442.1,361.3 1448.7,354.7 1503.4,299.9 1506.3,297 "/>
<polygon id="_x30_3.35.02" class="st0" points="1152.1,3771 1157.2,3771 1157.2,4187.3 1152,4187.3 1152,4236.4 1316.8,4236.4 
	1316.8,3721.6 1152.1,3721.6 "/>
<polygon id="_x30_3.34.01" class="st0" points="1152,4241.7 1067.9,4241.7 1067.9,4436.3 1188.1,4436.3 1316.8,4436.3 
	1316.8,4356.4 1316.8,4351.1 1316.8,4241.7 "/>
<polygon id="_x30_3.40.01" class="st0" points="1199.4,2610 1199.4,2517.8 1187.7,2517.8 1187.7,2504.8 1202,2504.8 1202,2149.9 
	1187.7,2149.9 1187.7,2137.6 1202,2137.6 1202,1782.8 1188.1,1782.8 1188.1,1770.5 1202,1770.5 1202,1415.7 1188.1,1415.7 
	1188.1,1403.4 1202,1403.4 1202,1181.5 971.8,1181.5 971.8,1346.5 1002.1,1346.5 1002.1,1421.1 971.8,1421.1 971.8,1483.6 
	992,1483.6 992,1487.9 971.8,1487.9 971.8,1623.1 990.5,1623.1 990.5,1624.1 971.8,1624.1 971.8,1651.6 990.5,1651.6 990.5,1652.7 
	971.8,1652.7 971.8,1713.6 1002.1,1713.6 1002.1,1788.2 971.3,1788.2 971.3,2080.7 1002.1,2080.7 1002.1,2155.3 971.8,2155.3 
	971.8,2217.9 990.5,2217.9 990.5,2218.9 971.8,2218.9 971.8,2246.4 990.5,2246.4 990.5,2247.5 971.8,2247.5 971.8,2382.6 
	992,2382.6 992,2387 971.8,2387 971.8,2447.9 1002.1,2447.9 1002.1,2522.5 971.8,2522.5 971.8,2676.3 1061,2676.3 1073.5,2676.3 
	1185.5,2676.3 1199.4,2676.3 1199.4,2622.6 "/>
<polygon id="_x30_3.38.05A" class="st0" points="966.5,4236.4 996.9,4236.4 996.9,4175.7 966.5,4175.7 966.5,3721.6 966.5,3447.2 
	996.9,3447.2 996.9,3386.5 966.5,3386.5 966.5,3377.2 966.5,3241.1 966.5,3229.4 966.5,3093.4 966.5,3085.9 966.5,2995.2 
	966.5,2992.9 966.5,2914.2 966.5,2821.2 996.9,2821.2 996.9,2756.2 966.5,2756.2 966.5,2679 966.5,2517.2 996.9,2517.2 
	996.9,2453.1 966.5,2453.1 966.5,2386.4 966.5,2383.2 966.5,2247 966.5,2218.4 966.5,2150.1 996.9,2150.1 996.9,2086 966.5,2086 
	966.5,1783 996.9,1783 996.9,1718.8 966.5,1718.8 966.5,1652.1 966.5,1623.6 966.5,1487.4 966.5,1484.1 966.5,1415.8 996.9,1415.8 
	996.9,1351.7 966.5,1351.7 966.5,1178.9 966.5,1042.3 966.5,1042 966.5,1039.9 966.5,1024.6 918.8,1024.6 918.8,1072.3 
	899.9,1072.3 899.9,1351.3 918.8,1351.3 918.8,1416.4 899.9,1416.4 899.9,1418 899.9,1422.1 899.9,1718.5 918.8,1718.5 
	918.8,1783.5 899.9,1783.5 899.9,2085.6 918.8,2085.6 918.8,2150.7 899.9,2150.7 899.9,2288 918.8,2288 918.8,2366 899.9,2366 
	899.9,2473 918.8,2473 918.8,2525 899.9,2525 899.9,2612.1 899.9,2668.9 899.9,2719.4 899.9,2776.1 899.9,2863.3 918.8,2863.3 
	918.8,2915.3 899.9,2915.3 899.9,3022.2 918.8,3022.2 918.8,3100.3 899.9,3100.3 899.9,3236.2 918.8,3236.2 918.8,3253.5 
	899.9,3253.5 899.9,3595.4 918.8,3595.4 918.8,3628.6 899.9,3628.6 899.9,3970.5 918.8,3970.5 918.8,3987.8 899.9,3987.8 
	899.9,4331.8 918.8,4331.8 918.8,4345.4 966.5,4345.4 "/>
<polygon id="_x30_3.35.03" class="st0" points="1152,4187.3 1152,3771 1152.1,3771 1152.1,3721.6 1050.8,3721.6 1046.4,3721.6 
	970,3721.6 970,4172.2 1000.4,4172.2 1000.4,4236.4 1065.3,4236.4 1152,4236.4 "/>
<polygon id="_x30_3.33.01" class="st0" points="1316.8,4530.4 1316.8,4441.5 1190.7,4441.5 1190.7,4556.2 1212.7,4556.2 
	1218.8,4570.9 "/>
<polygon id="_x30_3.36.01" class="st0" points="1188.1,3253.5 1188.1,3334.2 1316.8,3334.2 1316.8,3247.5 1213,3247.5 1213,3253.5 
	"/>
<polygon id="_x30_3.36.04" class="st0" points="1185.5,3523.4 1117,3523.4 1117,3606.2 1241.1,3606.2 1241.1,3609.4 1316.8,3609.4 
	1316.8,3523.4 "/>
<rect id="_x30_3.36.02" x="1188.1" y="3339.4" class="st0" width="128.6" height="86.7"/>
<polygon id="_x30_3.38.01" class="st0" points="1188.1,2753.6 1188.1,2869 1213.2,2869 1213.2,2875.1 1316.8,2875.1 1316.8,2809 
	1240.2,2681.6 1202,2681.6 1188.1,2681.6 "/>
<polygon id="_x30_3.35.01" class="st0" points="1053.4,3716.3 1152.1,3716.3 1316.8,3716.3 1316.8,3614.6 1241.1,3614.6 
	1241.1,3617.8 1114.4,3617.8 1053.4,3617.8 "/>
<polygon id="_x30_3.37.01" class="st0" points="1188.1,2886.4 1188.1,3058.7 1316.8,3058.7 1316.8,2880.3 1213.2,2880.3 
	1213.2,2886.4 "/>
<polygon id="_x30_3.37.02" class="st0" points="1188.1,3063.9 1188.1,3236.2 1213,3236.2 1213,3242.2 1316.8,3242.2 1316.8,3063.9 
	"/>
<polygon id="_x30_3.36.06" class="st0" points="1111.8,3607.8 1111.8,3518.1 1017,3518.1 1017,3612.5 1048.1,3612.5 1050.8,3612.5 
	1111.8,3612.5 "/>
<g id="LWPOLYLINE_18_" class="st1">
	<rect x="1185.5" y="3970.5" class="st2" width="27.5" height="17.3"/>
</g>
<polygon id="_x30_3.38.06" class="st0" points="710.6,2522.9 710.6,2654 808.9,2654 808.9,2642.3 808.9,2612.1 808.9,2593 
	814.1,2593 814.1,2610.4 845.4,2610.4 845.4,2593 850.6,2593 850.6,2610.4 894.7,2610.4 894.7,2523.5 894.7,2515.4 814.1,2515.4 
	814.1,2519.8 814.1,2521.4 814.1,2537.1 808.9,2537.1 808.9,2522.9 "/>
<polygon id="_x30_3.38.08" class="st0" points="894.7,2864.8 894.7,2777.9 850.3,2777.9 850.3,2793.9 846.8,2793.9 846.8,2776.1 
	846.8,2731.7 798.4,2731.7 798.4,2805.3 782.2,2805.3 735.9,2805.3 735.9,2801.7 780.7,2801.7 780.7,2723 751.3,2723 619.8,2723 
	619.8,2882.8 738.8,2882.8 738.8,2848.6 798.4,2848.6 798.4,2869.2 894.7,2869.2 "/>
<polygon id="_x30_3.43.01" class="st0" points="1094.6,877.6 1094.6,795.4 1050.5,795.4 1050.5,814.2 1032.5,814.2 1032.5,795.4 
	989.1,795.4 989.1,814.2 971.8,814.2 971.8,905.6 1045.3,905.6 1045.3,881.7 1045.3,877.5 1045.3,860.2 1050.5,860.2 1050.5,877.6 
	"/>
<polygon id="_x30_3.43.02" class="st0" points="1094.6,1028.8 1094.6,946.2 1050.5,946.2 1050.5,963.6 1045.3,963.6 1045.3,946.3 
	1045.3,942.1 1045.3,918.6 971.8,918.6 971.8,1010 989.1,1010 989.1,1028.8 1032.5,1028.8 1032.5,1010 1050.5,1010 1050.5,1028.8 
	"/>
<rect id="_x30_3.37.05" x="971" y="2997.4" class="st0" width="155.5" height="86.6"/>
<rect id="_x30_3.37.06" x="970" y="2915.9" class="st0" width="157.3" height="77.1"/>
<polygon id="_x30_3.36.07" class="st0" points="1127.3,3375.7 1127.3,3288.8 1126.9,3288.8 1085.2,3288.8 1074.5,3288.8 
	1074.5,3323.5 1071,3323.5 1071,3287.1 1071,3256.5 1071,3242.7 970,3242.7 970,3375.7 1022.2,3375.7 1022.2,3356.9 1025.7,3356.9 
	1025.7,3375.7 "/>
<polygon id="_x30_3.37.04" class="st0" points="1127.3,3182.1 1127.3,3094.9 1025.7,3094.9 1025.7,3113.7 1022.2,3113.7 
	1022.2,3094.9 970,3094.9 970,3227.9 1071,3227.9 1071,3214.4 1071,3183.8 1071,3147.4 1074.5,3147.4 1074.5,3182.1 1085.2,3182.1 
	1126.9,3182.1 "/>
<polygon id="_x30_3.33.04" class="st0" points="793.7,4549.9 796.2,4549.9 803.9,4549.9 803.9,4554.7 803.9,4608.7 840.2,4608.7 
	845.5,4608.7 891.3,4608.7 891.3,4592.9 966.5,4592.9 966.5,4438.9 966.5,4345.4 918.8,4345.4 918.8,4379.5 780.8,4379.5 
	780.8,4549.9 "/>
<polygon id="_x30_3.38.03" class="st0" points="970,2824.8 970,2912.4 1127.3,2912.4 1127.3,2824.8 998.6,2824.8 "/>
<polygon id="_x30_3.33.03" class="st0" points="998.6,4241.7 971.8,4241.7 971.8,4345.4 971.8,4436.3 1062.7,4436.3 1062.7,4241.7 
	"/>
<polygon id="_x30_3.43.03" class="st0" points="781.1,1024 891.3,1024 891.3,1008.7 918.8,1008.7 918.8,1024.6 966.5,1024.6 
	966.5,1013.1 966.5,1010 966.5,918.6 966.5,915.5 966.5,908.7 966.5,905.5 966.5,814.2 966.5,811 966.5,795.4 891.3,795.4 
	891.3,778.9 846,778.9 844.1,778.9 807.7,778.9 781.1,778.9 781.1,935 781.1,937.2 781.1,940.9 "/>
<polygon id="_x30_3.38.04" class="st0" points="1058.6,2681.6 971.8,2681.6 971.8,2751 998.6,2751 1058.6,2751 "/>
<rect id="_x30_3.43.04" x="809.2" y="749.5" class="st0" width="34.9" height="25.9"/>
<polygon id="_x30_3.42.01" class="st0" points="971.8,1044.7 971.8,1176.3 1198.1,1176.3 1199.4,1176.3 1199.4,1049.1 
	1188.5,1049.1 1187,1049.1 1187,1044.7 1098.8,1044.7 1094.6,1044.7 "/>
<polygon id="_x30_3.33.02" class="st0" points="1067.9,4441.5 1067.9,4594.4 1185.5,4594.4 1185.5,4557.7 1185.5,4441.5 "/>
<rect id="_x30_3.38.02" x="1075.9" y="2681.6" class="st0" width="107" height="69.4"/>
<polygon id="EL06" class="st0" points="770.7,4375.2 703.8,4375.2 703.8,4378 703.8,4461.2 770.7,4461.2 "/>
<rect id="EL05" x="703.8" y="4461.2" class="st0" width="66.8" height="94"/>
<polygon id="EL04" class="st0" points="793.8,4554.7 773.3,4554.7 773.3,4555.2 768.7,4555.2 703.8,4555.2 703.8,4555.6 
	703.8,4628.3 670.4,4628.3 670.4,4639.3 793.8,4639.3 793.8,4626.9 "/>
<polygon id="ST03_-_300" class="st0" points="689.5,4728.6 891.3,4728.6 891.3,4644.1 845.5,4644.1 796.2,4644.1 668.8,4644.1 
	619.9,4644.1 619.9,4690.6 689.5,4690.6 "/>
<polygon id="ST05_-_300" class="st0" points="891.3,744.2 891.3,659.7 689.5,659.7 689.5,697.7 625.9,697.7 625.9,728.9 
	624.8,728.9 624.8,744.2 697.9,744.2 770.9,744.2 773.3,744.2 "/>
<polygon id="EL08" class="st0" points="625.9,758.3 705.9,758.3 705.9,850.5 770.9,850.5 770.9,832.9 770.9,796.7 770.9,749 
	697.9,749 624.8,749 624.8,752.9 625.9,752.9 625.9,757.5 "/>
<rect id="EL07" x="705.9" y="850.5" class="st0" width="65" height="84.6"/>
<polygon id="ST04_-_300" class="st0" points="705.4,2718 705.4,2515.6 610.2,2515.6 610.2,2524.2 610.2,2532.9 610.2,2577.5 
	610.2,2718 "/>
<rect id="_x30_3.36.03" x="1188.1" y="3431.4" class="st0" width="128.6" height="86.7"/>
<rect id="_x30_3.38.07" x="812.4" y="2613.9" class="st0" width="33" height="26.8"/>
<polygon id="_x30_3.33.05" class="st0" points="832.8,4635.4 832.8,4628.1 838.6,4628.1 838.6,4612.2 803.9,4612.2 803.9,4635.4 "/>
<polygon id="_x30_3.37.03A" class="st0" points="1073.5,2756.2 1061,2756.2 1000.4,2756.2 1000.4,2821.2 1130.9,2821.2 
	1130.9,2914.2 1130.9,2992.9 1130.9,2995.2 1130.9,3085.9 1130.9,3093.4 1130.9,3183.7 1130.9,3185.6 1086.8,3185.6 1086.8,3215.9 
	1074.5,3215.9 1074.5,3229.4 1074.5,3241.1 1074.5,3255 1086.8,3255 1086.8,3285.3 1130.9,3285.3 1130.9,3287 1130.9,3287.1 
	1130.9,3377.2 1130.9,3386.5 1000.4,3386.5 1000.4,3447.2 1059.8,3447.2 1059.8,3450.7 998.6,3450.7 970,3450.7 970,3721.6 
	1048.2,3721.6 1048.2,3616.1 1013.5,3616.1 1013.5,3518.1 1110.1,3518.1 1114.4,3518.1 1182.9,3518.1 1182.9,3428.8 1182.9,3336.8 
	1182.9,3252 1182.9,3237.7 1182.9,3061.3 1182.9,2884.8 1182.9,2870.6 1182.9,2756.2 "/>
<polygon id="_x30_3.38.05B" class="st0" points="899.9,2668.9 894.7,2668.9 894.7,2613.9 850.6,2613.9 850.6,2642.3 850.6,2656 
	850.6,2668.9 845.4,2668.9 845.4,2657.6 815,2657.6 809.4,2657.6 809.4,2668.9 753.9,2668.9 753.9,2719.4 782.2,2719.4 
	850.3,2719.4 850.3,2730.2 850.3,2774.4 894.7,2774.4 894.7,2719.4 899.9,2719.4 "/>
<polygon id="_x30_3.33.06" class="st0" points="1062.7,4594.4 1062.7,4441.5 971.8,4441.5 971.8,4592.9 971.8,4594.4 "/>
<polygon id="_x30_3.43.05" class="st0" points="712.3,1024 775.8,1024 775.8,942 690.4,942 690.4,1008.7 704.9,1008.7 704.9,1024 
	707.4,1024 "/>
<g id="S-GRID-IDEN">
	<g id="Circles">
		<g id="CIRCLE_19_">
			<circle class="st3" cx="1503.4" cy="64.9" r="17.3"/>
		</g>
		<g id="CIRCLE_20_">
			<circle class="st3" cx="1141" cy="68.7" r="17.3"/>
		</g>
		<g id="CIRCLE_21_">
			<circle class="st3" cx="621.8" cy="68.7" r="17.3"/>
		</g>
		<g id="CIRCLE_22_">
			<circle class="st3" cx="185.9" cy="752.9" r="17.3"/>
		</g>
		<g id="CIRCLE_23_">
			<circle class="st3" cx="185.9" cy="401.7" r="17.3"/>
		</g>
		<g id="CIRCLE_24_">
			<circle class="st3" cx="1389.2" cy="68.7" r="17.3"/>
		</g>
		<g id="CIRCLE_25_">
			<circle class="st3" cx="1933" cy="386.5" r="17.3"/>
		</g>
		<g id="CIRCLE_26_">
			<circle class="st3" cx="185.9" cy="653.2" r="17.3"/>
		</g>
		<g id="CIRCLE_27_">
			<circle class="st3" cx="185.9" cy="4735.1" r="17.3"/>
		</g>
		<g id="CIRCLE_28_">
			<circle class="st3" cx="695.5" cy="559.4" r="17.3"/>
		</g>
		<g id="CIRCLE_29_">
			<circle class="st3" cx="185.9" cy="4363.6" r="17.3"/>
		</g>
		<g id="CIRCLE_30_">
			<circle class="st3" cx="185.9" cy="1024.6" r="17.3"/>
		</g>
		<g id="CIRCLE_31_">
			<circle class="st3" cx="600.8" cy="559.4" r="17.3"/>
		</g>
		<g id="CIRCLE_32_">
			<circle class="st3" cx="379.7" cy="559.4" r="17.3"/>
		</g>
		<g id="CIRCLE_33_">
			<circle class="st3" cx="717.2" cy="63.6" r="17.3"/>
		</g>
		<g id="CIRCLE_34_">
			<circle class="st3" cx="1933" cy="4559.5" r="17.3"/>
		</g>
		<g id="CIRCLE_35_">
			<circle class="st3" cx="1933" cy="4732.9" r="17.3"/>
		</g>
		<g id="CIRCLE_3_">
			<circle class="st3" cx="185.9" cy="3244.9" r="17.3"/>
		</g>
		<g id="CIRCLE_4_">
			<circle class="st3" cx="185.9" cy="3612" r="17.3"/>
		</g>
		<g id="CIRCLE_5_">
			<circle class="st3" cx="185.9" cy="3979.1" r="17.3"/>
		</g>
		<g id="CIRCLE_6_">
			<circle class="st3" cx="185.9" cy="2143.4" r="17.3"/>
		</g>
		<g id="CIRCLE_7_">
			<circle class="st3" cx="185.9" cy="1776.3" r="17.3"/>
		</g>
		<g id="CIRCLE_8_">
			<circle class="st3" cx="185.9" cy="1409.1" r="17.3"/>
		</g>
		<g id="CIRCLE_9_">
			<circle class="st3" cx="185.9" cy="1042" r="17.3"/>
		</g>
		<g id="CIRCLE_10_">
			<circle class="st3" cx="1900.3" cy="4407" r="17.3"/>
		</g>
		<g id="CIRCLE_11_">
			<circle class="st3" cx="1820.1" cy="4951.4" r="17.3"/>
		</g>
		<g id="CIRCLE_12_">
			<circle class="st3" cx="185.9" cy="4346.3" r="17.3"/>
		</g>
		<g id="CIRCLE_13_">
			<circle class="st3" cx="1820.1" cy="63.6" r="17.3"/>
		</g>
		<g id="CIRCLE_14_">
			<circle class="st3" cx="1658" cy="4950.1" r="17.3"/>
		</g>
		<g id="CIRCLE_15_">
			<circle class="st3" cx="1514.3" cy="4946.3" r="17.3"/>
		</g>
		<g id="CIRCLE_16_">
			<circle class="st3" cx="995.1" cy="4946.3" r="17.3"/>
		</g>
		<g id="CIRCLE_17_">
			<circle class="st3" cx="290.8" cy="4940.7" r="17.3"/>
		</g>
		<g id="CIRCLE_18_">
			<circle class="st3" cx="185.9" cy="4635.4" r="17.3"/>
		</g>
		<g id="CIRCLE_2_">
			<circle class="st3" cx="185.9" cy="2877.7" r="17.3"/>
		</g>
		<g id="CIRCLE_1_">
			<circle class="st3" cx="185.9" cy="2510.6" r="17.3"/>
		</g>
		<g id="CIRCLE">
			<circle class="st3" cx="1933" cy="2694.1" r="17.3"/>
		</g>
	</g>
	<g id="Numbers">
		<g id="MTEXT_35_">
			<text transform="matrix(1 0 0 1 1919.1963 4739.1602)" class="st4 st5">A.6</text>
		</g>
		<g id="MTEXT_34_">
			<text transform="matrix(1 0 0 1 1919.1963 4565.7041)" class="st4 st5">A.3</text>
		</g>
		<g id="MTEXT_33_">
			<text transform="matrix(1 0 0 1 709.085 69.8877)" class="st4 st5">D</text>
		</g>
		<g id="MTEXT_32_">
			<text transform="matrix(1 0 0 1 371.4756 565.6641)" class="st4 st5">G</text>
		</g>
		<g id="MTEXT_31_">
			<text transform="matrix(1 0 0 1 593.6348 565.6641)" class="st4 st5">F</text>
		</g>
		<g id="MTEXT_30_">
			<text transform="matrix(1 0 0 1 167.916 1030.876)" class="st4 st5">43.1</text>
		</g>
		<g id="MTEXT_29_">
			<text transform="matrix(1 0 0 1 167.3838 4369.8506)" class="st4 st5">33.9</text>
		</g>
		<g id="MTEXT_28_">
			<text transform="matrix(1 0 0 1 687.916 565.6641)" class="st4 st5">E</text>
		</g>
		<g id="MTEXT_27_">
			<text transform="matrix(1 0 0 1 167.3838 4741.335)" class="st4 st5">32.7</text>
		</g>
		<g id="MTEXT_26_">
			<text transform="matrix(1 0 0 1 167.916 659.3984)" class="st4 st5">44.3</text>
		</g>
		<g id="MTEXT_25_">
			<text transform="matrix(1 0 0 1 1925.4492 392.7061)" class="st4 st5">B</text>
		</g>
		<g id="MTEXT_24_">
			<text transform="matrix(1 0 0 1 1381.5215 74.9443)" class="st4 st5">C</text>
		</g>
		<g id="MTEXT_23_">
			<text transform="matrix(1 0 0 1 167.916 407.8906)" class="st4 st5">45.1</text>
		</g>
		<g id="MTEXT_22_">
			<text transform="matrix(1 0 0 1 175.4961 759.1328)" class="st4 st5">44</text>
		</g>
		<g id="MTEXT_21_">
			<text transform="matrix(1 0 0 1 603.8379 74.9502)" class="st4 st5">45.4</text>
		</g>
		<g id="MTEXT_20_">
			<text transform="matrix(1 0 0 1 1123.0566 74.9502)" class="st4 st5">45.6</text>
		</g>
		<g id="MTEXT_19_">
			<text transform="matrix(1 0 0 1 1492.9492 71.2012)" class="st4 st5">46</text>
		</g>
		<g id="MTEXT_18_">
			<text transform="matrix(1 0 0 1 174.9639 4641.5977)" class="st4 st5">33</text>
		</g>
		<g id="MTEXT_17_">
			<text transform="matrix(1 0 0 1 279.9316 4946.9277)" class="st4 st5">32</text>
		</g>
		<g id="MTEXT_16_">
			<text transform="matrix(1 0 0 1 976.5566 4952.5293)" class="st4 st5">31.6</text>
		</g>
		<g id="MTEXT_15_">
			<text transform="matrix(1 0 0 1 1495.7783 4952.5293)" class="st4 st5">31.4</text>
		</g>
		<g id="MTEXT_14_">
			<text transform="matrix(1 0 0 1 1647.0264 4956.2734)" class="st4 st5">31</text>
		</g>
		<g id="MTEXT_13_">
			<text transform="matrix(1 0 0 1 1809.6064 69.8877)" class="st4 st5">48</text>
		</g>
		<g id="MTEXT_12_">
			<text transform="matrix(1 0 0 1 174.9639 4352.5088)" class="st4 st5">34</text>
		</g>
		<g id="MTEXT_11_">
			<text transform="matrix(1 0 0 1 1809.3086 4957.5889)" class="st4 st5">29</text>
		</g>
		<g id="MTEXT_10_">
			<text transform="matrix(1 0 0 1 1894.1035 4413.1416)" class="st4 st5">A</text>
		</g>
		<g id="MTEXT_9_">
			<text transform="matrix(1 0 0 1 175.4961 1048.2217)" class="st4 st5">43</text>
		</g>
		<g id="MTEXT_8_">
			<text transform="matrix(1 0 0 1 175.4961 1415.3633)" class="st4 st5">42</text>
		</g>
		<g id="MTEXT_7_">
			<text transform="matrix(1 0 0 1 175.4961 1782.5068)" class="st4 st5">41</text>
		</g>
		<g id="MTEXT_6_">
			<text transform="matrix(1 0 0 1 175.4961 2149.6514)" class="st4 st5">40</text>
		</g>
		<g id="MTEXT_5_">
			<text transform="matrix(1 0 0 1 174.9639 3985.3633)" class="st4 st5">35</text>
		</g>
		<g id="MTEXT_4_">
			<text transform="matrix(1 0 0 1 174.9639 3618.2227)" class="st4 st5">36</text>
		</g>
		<g id="MTEXT_3_">
			<text transform="matrix(1 0 0 1 174.9639 3251.0781)" class="st4 st5">37</text>
		</g>
		<g id="MTEXT_2_">
			<text transform="matrix(1 0 0 1 174.9639 2883.9385)" class="st4 st5">38</text>
		</g>
		<g id="MTEXT_1_">
			<text transform="matrix(1 0 0 1 174.9639 2516.793)" class="st4 st5">39</text>
		</g>
		<g id="MTEXT">
			<text transform="matrix(1 0 0 1 1916.2197 2700.3584)" class="st4 st5">EW</text>
		</g>
	</g>
</g>
<g id="S-GRID">
	<g id="LINE">
		<line class="st6" x1="203.2" y1="2694.1" x2="1915.7" y2="2694.1"/>
	</g>
	<g id="LINE_1_">
		<line class="st6" x1="1915.7" y1="2510.6" x2="203.2" y2="2510.6"/>
	</g>
	<g id="LINE_2_">
		<line class="st6" x1="1915.7" y1="2877.7" x2="203.2" y2="2877.7"/>
	</g>
	<g id="LINE_3_">
		<line class="st6" x1="1915.7" y1="3244.9" x2="203.2" y2="3244.9"/>
	</g>
	<g id="LINE_4_">
		<line class="st6" x1="1915.7" y1="3612" x2="203.2" y2="3612"/>
	</g>
	<g id="LINE_5_">
		<line class="st6" x1="1915.7" y1="3979.1" x2="203.2" y2="3979.1"/>
	</g>
	<g id="LINE_6_">
		<line class="st6" x1="1915.7" y1="2143.4" x2="203.2" y2="2143.4"/>
	</g>
	<g id="LINE_7_">
		<line class="st6" x1="1915.7" y1="1776.3" x2="203.2" y2="1776.3"/>
	</g>
	<g id="LINE_8_">
		<line class="st6" x1="1915.7" y1="1409.1" x2="203.2" y2="1409.1"/>
	</g>
	<g id="LINE_9_">
		<line class="st6" x1="1729.5" y1="1042" x2="203.2" y2="1042"/>
	</g>
	<g id="LINE_10_">
		<line class="st6" x1="1888" y1="993.6" x2="1806.3" y2="1075.3"/>
	</g>
	<g id="LINE_11_">
		<line class="st6" x1="1806.3" y1="1075.3" x2="1806.3" y2="4313"/>
	</g>
	<g id="LINE_12_">
		<line class="st6" x1="1806.3" y1="4313" x2="1888" y2="4394.7"/>
	</g>
	<g id="LINE_13_">
		<line class="st6" x1="907.3" y1="4837.7" x2="907.3" y2="550.6"/>
	</g>
	<g id="LINE_14_">
		<line class="st6" x1="1820.1" y1="4558.8" x2="1820.1" y2="4934.1"/>
	</g>
	<g id="LINE_15_">
		<line class="st6" x1="1726" y1="4346.3" x2="203.2" y2="4346.3"/>
	</g>
	<g id="LINE_16_">
		<line class="st6" x1="1820.1" y1="829.5" x2="1820.1" y2="80.9"/>
	</g>
	<g id="LINE_17_">
		<line class="st6" x1="1915.7" y1="4328" x2="1664.6" y2="4934.1"/>
	</g>
	<g id="LINE_18_">
		<line class="st6" x1="1761" y1="4699.7" x2="1526.6" y2="4934.1"/>
	</g>
	<g id="LINE_19_">
		<line class="st6" x1="1501.4" y1="4440" x2="1007.3" y2="4934.1"/>
	</g>
	<g id="LINE_20_">
		<line class="st6" x1="1915.7" y1="4267.7" x2="306.9" y2="4934.1"/>
	</g>
	<g id="LINE_21_">
		<line class="st6" x1="1220.6" y1="4635.4" x2="203.2" y2="4635.4"/>
	</g>
	<g id="LINE_22_">
		<line class="st6" x1="1915.7" y1="1060.2" x2="1510" y2="80.9"/>
	</g>
	<g id="LINE_23_">
		<line class="st6" x1="1761" y1="688.6" x2="1153.3" y2="80.9"/>
	</g>
	<g id="LINE_24_">
		<line class="st6" x1="1501.4" y1="948.2" x2="634.1" y2="80.9"/>
	</g>
	<g id="LINE_25_">
		<line class="st6" x1="1915.7" y1="1120.6" x2="269.3" y2="438.6"/>
	</g>
	<g id="LINE_26_">
		<line class="st6" x1="1076" y1="752.9" x2="203.2" y2="752.9"/>
	</g>
	<g id="LINE_27_">
		<line class="st6" x1="1056.2" y1="401.7" x2="203.2" y2="401.7"/>
	</g>
	<g id="LINE_28_">
		<line class="st6" x1="1003.7" y1="4934.1" x2="907.3" y2="4837.7"/>
	</g>
	<g id="LINE_29_">
		<line class="st6" x1="907.3" y1="550.6" x2="1376.9" y2="80.9"/>
	</g>
	<g id="LINE_30_">
		<line class="st6" x1="1568.9" y1="4934.1" x2="1199.2" y2="4564.5"/>
	</g>
	<g id="LINE_31_">
		<line class="st6" x1="1199.2" y1="4564.5" x2="1199.2" y2="823.8"/>
	</g>
	<g id="LINE_32_">
		<line class="st6" x1="1199.2" y1="823.8" x2="1636.6" y2="386.5"/>
	</g>
	<g id="LINE_33_">
		<line class="st6" x1="1636.6" y1="386.5" x2="1915.7" y2="386.5"/>
	</g>
	<g id="LINE_34_">
		<line class="st6" x1="1076" y1="653.2" x2="203.2" y2="653.2"/>
	</g>
	<g id="LINE_35_">
		<line class="st6" x1="1220.6" y1="4735.1" x2="203.2" y2="4735.1"/>
	</g>
	<g id="LINE_36_">
		<line class="st6" x1="695.5" y1="4815.6" x2="695.5" y2="576.7"/>
	</g>
	<g id="LINE_37_">
		<line class="st6" x1="1214.4" y1="4363.6" x2="203.2" y2="4363.6"/>
	</g>
	<g id="LINE_38_">
		<line class="st6" x1="1729.5" y1="1024.6" x2="203.2" y2="1024.6"/>
	</g>
	<g id="LINE_39_">
		<line class="st6" x1="600.8" y1="4815.6" x2="600.8" y2="576.7"/>
	</g>
	<g id="LINE_40_">
		<line class="st6" x1="379.7" y1="4815.6" x2="379.7" y2="576.7"/>
	</g>
	<g id="LINE_41_">
		<line class="st6" x1="717.2" y1="4934.1" x2="717.2" y2="80.9"/>
	</g>
	<g id="LINE_42_">
		<line class="st6" x1="1758.4" y1="4498.2" x2="1819.8" y2="4559.5"/>
	</g>
	<g id="LINE_43_">
		<line class="st6" x1="1819.8" y1="4559.5" x2="1915.7" y2="4559.5"/>
	</g>
	<g id="LINE_44_">
		<line class="st6" x1="1703.3" y1="4688.3" x2="1747.9" y2="4732.9"/>
	</g>
	<g id="LINE_45_">
		<line class="st6" x1="1747.9" y1="4732.9" x2="1915.7" y2="4732.9"/>
	</g>
</g>
</svg>
