<?xml version="1.0" encoding="utf-8"?>
<!-- Generator: Adobe Illustrator 25.2.3, SVG Export Plug-In . SVG Version: 6.00 Build 0)  -->
<svg version="1.1" id="A-AREA-BNDY" xmlns="http://www.w3.org/2000/svg" xmlns:xlink="http://www.w3.org/1999/xlink" x="0px"
	 y="0px" viewBox="0 0 1920 1080" style="enable-background:new 0 0 1920 1080;" xml:space="preserve">
<style type="text/css">
	.st0{opacity:0.4;}
	.st1{fill:#BA9BC9;stroke:#000000;stroke-width:0.2551;stroke-linecap:round;stroke-linejoin:round;stroke-miterlimit:10;}
	.st2{fill:#65C8D0;stroke:#000000;stroke-width:0.2551;stroke-linecap:round;stroke-linejoin:round;stroke-miterlimit:10;}
	.st3{fill:none;stroke:#000000;stroke-width:0.25;stroke-linecap:round;stroke-linejoin:round;stroke-miterlimit:10;}
	.st4{font-family:'ArialMT';}
	.st5{font-size:4.0313px;}
	
		.st6{fill:none;stroke:#000000;stroke-width:0.2551;stroke-linecap:round;stroke-linejoin:round;stroke-miterlimit:10;stroke-dasharray:0.0793,0.0198,0.0198,0.0198;}
</style>
<g id="_x30_3.45.01" class="st0">
	<polygon class="st1" points="1048.26,45.64 957.92,136.01 924.42,136.01 924.42,160.33 924.42,162.53 939.78,162.53 943.83,162.53 
		954.01,162.53 957.3,162.53 969.14,162.53 969.14,184.22 958.31,184.22 958.31,188.87 958.31,191.05 958.31,195.63 969.14,195.63 
		969.14,215.91 969.14,217.24 987.58,217.24 987.92,217.24 987.92,218.97 991.87,218.97 991.87,171.26 1068.78,94.35 1064.96,90.54 
		1064.86,90.43 1063.55,91.73 1056.94,85.12 1058.24,83.82 1043.55,69.12 1045,67.67 1057.01,55.66 1057.64,55.02 	"/>
</g>
<g id="_x30_3.35.02" class="st0">
	<polygon class="st1" points="979.93,817.21 981.05,817.21 981.05,908.54 979.9,908.54 979.9,919.32 1016.05,919.32 1016.05,806.36 
		979.93,806.36 	"/>
</g>
<g id="_x30_3.34.01" class="st0">
	<polygon class="st1" points="979.9,920.47 961.45,920.47 961.45,963.17 987.83,963.17 1016.05,963.17 1016.05,945.64 
		1016.05,944.47 1016.05,920.47 	"/>
</g>
<g id="LWPOLYLINE" class="st0">
	<polygon class="st2" points="985.82,135.21 1008.1,112.93 1000.33,105.15 1001.07,104.41 1009.59,112.93 985.82,136.7 
		977.3,128.17 978.04,127.43 	"/>
</g>
<g id="LWPOLYLINE_2_" class="st0">
	<polygon class="st2" points="959.74,388.45 959.74,438.08 951.18,438.08 951.18,437.31 958.59,437.31 958.59,389.6 953.08,389.6 
		953.08,388.45 	"/>
</g>
<g id="_x30_3.40.01" class="st0">
	<polygon class="st1" points="990.3,562.49 990.3,542.26 987.73,542.26 987.73,539.4 990.88,539.4 990.88,461.55 987.73,461.55 
		987.73,458.85 990.88,458.85 990.88,381 987.82,381 987.82,378.3 990.88,378.3 990.88,300.44 987.82,300.44 987.82,297.75 
		990.88,297.75 990.88,249.07 940.36,249.07 940.36,285.26 947.02,285.26 947.02,301.63 940.36,301.63 940.36,315.35 944.8,315.35 
		944.8,316.3 940.36,316.3 940.36,345.95 944.46,345.95 944.46,346.19 940.36,346.19 940.36,352.22 944.46,352.22 944.46,352.45 
		940.36,352.45 940.36,365.81 947.02,365.81 947.02,382.18 940.26,382.18 940.26,446.36 947.02,446.36 947.02,462.74 940.36,462.74 
		940.36,476.45 944.46,476.45 944.46,476.69 940.36,476.69 940.36,482.71 944.46,482.71 944.46,482.95 940.36,482.95 940.36,512.6 
		944.8,512.6 944.8,513.56 940.36,513.56 940.36,526.91 947.02,526.91 947.02,543.29 940.36,543.29 940.36,577.04 959.93,577.04 
		962.68,577.04 987.25,577.04 990.3,577.04 990.3,565.25 	"/>
</g>
<g id="_x30_3.38.05A" class="st0">
	<polygon class="st1" points="939.21,919.32 945.87,919.32 945.87,906 939.21,906 939.21,806.36 939.21,746.17 945.87,746.17 
		945.87,732.85 939.21,732.85 939.21,730.81 939.21,700.96 939.21,698.38 939.21,668.53 939.21,666.91 939.21,647 939.21,646.5 
		939.21,629.22 939.21,608.83 945.87,608.83 945.87,594.56 939.21,594.56 939.21,577.62 939.21,542.14 945.87,542.14 945.87,528.06 
		939.21,528.06 939.21,513.44 939.21,512.72 939.21,482.83 939.21,476.57 939.21,461.59 945.87,461.59 945.87,447.51 939.21,447.51 
		939.21,381.03 945.87,381.03 945.87,366.96 939.21,366.96 939.21,352.33 939.21,346.07 939.21,316.18 939.21,315.47 939.21,300.48 
		945.87,300.48 945.87,286.41 939.21,286.41 939.21,248.49 939.21,218.54 939.21,218.47 939.21,218 939.21,214.66 928.74,214.66 
		928.74,225.13 924.6,225.13 924.6,286.33 928.74,286.33 928.74,300.6 924.6,300.6 924.6,300.96 924.6,301.87 924.6,366.88 
		928.74,366.88 928.74,381.15 924.6,381.15 924.6,447.43 928.74,447.43 928.74,461.7 924.6,461.7 924.6,491.83 928.74,491.83 
		928.74,508.96 924.6,508.96 924.6,532.42 928.74,532.42 928.74,543.84 924.6,543.84 924.6,562.96 924.6,575.4 924.6,586.49 
		924.6,598.93 924.6,618.05 928.74,618.05 928.74,629.47 924.6,629.47 924.6,652.93 928.74,652.93 928.74,670.06 924.6,670.06 
		924.6,699.87 928.74,699.87 928.74,703.67 924.6,703.67 924.6,778.68 928.74,778.68 928.74,785.97 924.6,785.97 924.6,860.97 
		928.74,860.97 928.74,864.78 924.6,864.78 924.6,940.25 928.74,940.25 928.74,943.24 939.21,943.24 	"/>
</g>
<g id="_x30_3.35.03" class="st0">
	<polygon class="st1" points="979.9,908.54 979.9,817.21 979.93,817.21 979.93,806.36 957.7,806.36 956.74,806.36 939.98,806.36 
		939.98,905.23 946.64,905.23 946.64,919.32 960.87,919.32 979.9,919.32 	"/>
</g>
<g id="LWPOLYLINE_6_" class="st0">
	<rect x="987.25" y="941.68" class="st2" width="6.03" height="7.29"/>
</g>
<g id="_x30_3.33.01" class="st0">
	<polygon class="st1" points="1016.05,983.81 1016.05,964.32 988.4,964.32 988.4,989.48 993.22,989.48 994.56,992.71 	"/>
</g>
<g id="_x30_3.36.01" class="st0">
	<polygon class="st1" points="987.83,703.67 987.83,721.37 1016.05,721.37 1016.05,702.35 993.28,702.35 993.28,703.67 	"/>
</g>
<g id="_x30_3.36.04" class="st0">
	<polygon class="st1" points="987.25,762.88 972.23,762.88 972.23,781.05 999.44,781.05 999.44,781.75 1016.05,781.75 
		1016.05,762.88 	"/>
</g>
<g id="_x30_3.36.02" class="st0">
	<rect x="987.83" y="722.52" class="st1" width="28.22" height="19.03"/>
</g>
<g id="_x30_3.38.01" class="st0">
	<polygon class="st1" points="987.83,593.99 987.83,619.32 993.32,619.32 993.32,620.65 1016.05,620.65 1016.05,606.15 
		999.25,578.19 990.88,578.19 987.83,578.19 	"/>
</g>
<g id="_x30_3.35.01" class="st0">
	<polygon class="st1" points="958.27,805.22 979.93,805.22 1016.05,805.22 1016.05,782.9 999.44,782.9 999.44,783.59 971.65,783.59 
		958.27,783.59 	"/>
</g>
<g id="_x30_3.37.01" class="st0">
	<polygon class="st1" points="987.83,623.12 987.83,660.92 1016.05,660.92 1016.05,621.8 993.32,621.8 993.32,623.12 	"/>
</g>
<g id="_x30_3.37.02" class="st0">
	<polygon class="st1" points="987.83,662.07 987.83,699.87 993.28,699.87 993.28,701.2 1016.05,701.2 1016.05,662.07 	"/>
</g>
<g id="_x30_3.36.06" class="st0">
	<polygon class="st1" points="971.08,781.39 971.08,761.73 950.29,761.73 950.29,782.44 957.11,782.44 957.7,782.44 971.08,782.44 	
		"/>
</g>
<g id="_x30_3.37.03A" class="st0">
	<polygon class="st1" points="986.68,761.73 986.68,742.13 986.68,721.95 986.68,703.34 986.68,700.21 986.68,661.5 986.68,622.79 
		986.68,619.65 986.68,594.56 962.68,594.56 959.93,594.56 946.64,594.56 946.64,608.83 975.26,608.83 975.26,629.22 975.26,646.5 
		975.26,647 975.26,666.91 975.26,668.53 975.26,688.36 975.26,689.34 975.26,710.08 975.26,711.01 975.26,711.04 975.26,730.81 
		975.26,732.85 946.64,732.85 946.64,746.17 959.66,746.17 959.66,746.94 946.25,746.94 939.98,746.94 939.98,806.36 957.12,806.36 
		957.12,783.21 949.51,783.21 949.51,761.73 970.7,761.73 971.65,761.73 	"/>
</g>
<g id="LWPOLYLINE_18_" class="st0">
	<rect x="987.25" y="860.97" class="st2" width="6.03" height="3.81"/>
</g>
<g id="_x30_3.38.06" class="st0">
	<polygon class="st1" points="883.06,543.39 883.06,572.14 904.62,572.14 904.62,569.57 904.62,562.96 904.62,558.77 905.77,558.77 
		905.77,562.57 912.63,562.57 912.63,558.77 913.78,558.77 913.78,562.57 923.45,562.57 923.45,543.5 923.45,541.74 905.77,541.74 
		905.77,542.7 905.77,543.05 905.77,546.5 904.62,546.5 904.62,543.39 	"/>
</g>
<g id="_x30_3.38.08" class="st0">
	<polygon class="st1" points="923.45,618.39 923.45,599.32 913.72,599.32 913.72,602.83 912.94,602.83 912.94,598.93 912.94,589.19 
		902.32,589.19 902.32,605.32 898.77,605.32 888.6,605.32 888.6,604.55 898.44,604.55 898.44,587.27 891.99,587.27 863.14,587.27 
		863.14,622.35 889.24,622.35 889.24,614.84 902.32,614.84 902.32,619.36 923.45,619.36 	"/>
</g>
<g id="_x30_3.43.01" class="st0">
	<polygon class="st1" points="967.31,182.39 967.31,164.36 957.64,164.36 957.64,168.48 953.68,168.48 953.68,164.36 944.16,164.36 
		944.16,168.48 940.36,168.48 940.36,188.54 956.49,188.54 956.49,183.3 956.49,182.38 956.49,178.59 957.64,178.59 957.64,182.39 	
		"/>
</g>
<g id="_x30_3.43.02" class="st0">
	<polygon class="st1" points="967.31,215.57 967.31,197.46 957.64,197.46 957.64,201.26 956.49,201.26 956.49,197.47 956.49,196.54 
		956.49,191.39 940.36,191.39 940.36,211.45 944.16,211.45 944.16,215.57 953.68,215.57 953.68,211.45 957.64,211.45 957.64,215.57 
			"/>
</g>
<g id="_x30_3.37.05" class="st0">
	<rect x="940.18" y="647.48" class="st1" width="34.11" height="19.01"/>
</g>
<g id="_x30_3.37.06" class="st0">
	<rect x="939.98" y="629.6" class="st1" width="34.51" height="16.91"/>
</g>
<g id="_x30_3.36.07" class="st0">
	<polygon class="st1" points="974.49,730.47 974.49,711.42 974.4,711.42 965.25,711.42 962.89,711.42 962.89,719.04 962.12,719.04 
		962.12,711.04 962.12,704.33 962.12,701.3 939.98,701.3 939.98,730.47 951.42,730.47 951.42,726.35 952.19,726.35 952.19,730.47 	
		"/>
</g>
<g id="_x30_3.37.04" class="st0">
	<polygon class="st1" points="974.49,688 974.49,668.87 952.19,668.87 952.19,672.99 951.42,672.99 951.42,668.87 939.98,668.87 
		939.98,698.05 962.12,698.05 962.12,695.09 962.12,688.38 962.12,680.39 962.89,680.39 962.89,688 965.25,688 974.4,688 	"/>
</g>
<g id="_x30_3.33.04" class="st0">
	<polygon class="st1" points="901.3,988.1 901.84,988.1 903.53,988.1 903.53,989.16 903.53,1001 911.48,1001 912.66,1001 
		922.7,1001 922.7,997.53 939.21,997.53 939.21,963.74 939.21,943.24 928.74,943.24 928.74,950.72 898.46,950.72 898.46,988.1 	"/>
</g>
<g id="_x30_3.38.03" class="st0">
	<polygon class="st1" points="939.98,609.61 939.98,628.83 974.49,628.83 974.49,609.61 946.25,609.61 	"/>
</g>
<g id="_x30_3.33.03" class="st0">
	<polygon class="st1" points="946.25,920.47 940.36,920.47 940.36,943.24 940.36,963.17 960.3,963.17 960.3,920.47 	"/>
</g>
<g id="_x30_3.43.03" class="st0">
	<polygon class="st1" points="898.52,214.51 922.7,214.51 922.7,211.17 928.74,211.17 928.74,214.66 939.21,214.66 939.21,212.13 
		939.21,211.44 939.21,191.4 939.21,190.71 939.21,189.22 939.21,188.53 939.21,168.49 939.21,167.79 939.21,164.36 922.7,164.36 
		922.7,160.75 912.77,160.75 912.34,160.75 904.36,160.75 898.52,160.75 898.52,194.99 898.52,195.47 898.52,196.28 	"/>
</g>
<g id="_x30_3.38.04" class="st0">
	<polygon class="st1" points="959.4,578.19 940.36,578.19 940.36,593.41 946.25,593.41 959.4,593.41 	"/>
</g>
<g id="_x30_3.43.04" class="st0">
	<rect x="904.7" y="154.29" class="st1" width="7.65" height="5.69"/>
</g>
<g id="_x30_3.42.01" class="st0">
	<polygon class="st1" points="940.36,219.06 940.36,247.92 990.02,247.92 990.3,247.92 990.3,220.02 987.92,220.02 987.58,220.02 
		987.58,219.06 968.22,219.06 967.3,219.06 940.37,219.06 	"/>
</g>
<g id="_x30_3.33.02" class="st0">
	<polygon class="st1" points="961.45,964.32 961.45,997.85 987.25,997.85 987.25,989.81 987.25,964.32 	"/>
</g>
<g id="_x30_3.38.02" class="st0">
	<rect x="963.21" y="578.19" class="st1" width="23.47" height="15.22"/>
</g>
<g id="EL06" class="st0">
	<polygon class="st1" points="896.24,949.77 881.57,949.77 881.57,950.38 881.57,968.64 896.24,968.64 	"/>
</g>
<g id="EL05" class="st0">
	<rect x="881.57" y="968.64" class="st1" width="14.67" height="20.61"/>
</g>
<g id="EL04" class="st0">
	<polygon class="st1" points="901.31,989.15 896.82,989.15 896.82,989.25 895.81,989.25 881.57,989.25 881.57,989.35 881.57,1005.3 
		874.23,1005.3 874.23,1007.7 901.31,1007.7 901.31,1005 	"/>
</g>
<g id="ST03" class="st0">
	<polygon class="st1" points="878.42,1027.3 922.7,1027.3 922.7,1008.75 912.66,1008.75 901.84,1008.75 873.9,1008.75 
		863.16,1008.75 863.16,1018.96 878.42,1018.96 	"/>
</g>
<g id="ST05" class="st0">
	<polygon class="st1" points="922.7,153.14 922.7,134.59 878.42,134.59 878.42,142.93 864.48,142.93 864.48,149.77 864.23,149.77 
		864.23,153.14 880.27,153.14 896.29,153.14 896.82,153.14 	"/>
</g>
<g id="EL08" class="st0">
	<polygon class="st1" points="864.48,156.23 882.02,156.23 882.02,176.45 896.3,176.45 896.3,172.58 896.3,164.65 896.3,154.19 
		880.27,154.19 864.23,154.19 864.23,155.04 864.48,155.04 864.48,156.05 	"/>
</g>
<g id="EL07" class="st0">
	<rect x="882.02" y="176.45" class="st1" width="14.27" height="18.55"/>
</g>
<g id="ST04" class="st0">
	<polygon class="st1" points="881.91,586.18 881.91,541.78 861.03,541.78 861.03,543.66 861.03,545.57 861.03,555.37 861.03,586.18 
			"/>
</g>
<g id="ST06" class="st0">
	
		<rect x="1048.82" y="47.81" transform="matrix(0.7071 -0.7071 0.7071 0.7071 261.1815 767.8089)" class="st1" width="17.2" height="41.65"/>
</g>
<g id="_x30_3.36.03" class="st0">
	<rect x="987.83" y="742.7" class="st1" width="28.22" height="19.03"/>
</g>
<g id="_x30_3.38.07" class="st0">
	<rect x="905.39" y="563.34" class="st1" width="7.23" height="5.89"/>
</g>
<g id="_x30_3.33.05" class="st0">
	<polygon class="st1" points="909.87,1006.85 909.87,1005.26 911.14,1005.26 911.14,1001.78 903.53,1001.78 903.53,1006.85 	"/>
</g>
<g id="_x30_3.37.03A_1_" class="st0">
	<polygon class="st2" points="965.59,710.65 975.26,710.65 975.26,688.77 965.59,688.77 965.59,695.43 962.89,695.43 962.89,698.38 
		962.89,700.96 962.89,703.99 965.59,703.99 	"/>
</g>
<g id="_x30_3.38.05B" class="st0">
	<polygon class="st1" points="924.6,575.4 923.45,575.4 923.45,563.34 913.78,563.34 913.78,569.57 913.78,572.58 913.78,575.4 
		912.63,575.4 912.63,572.92 905.96,572.92 904.74,572.92 904.74,575.4 892.57,575.4 892.57,586.49 898.77,586.49 913.72,586.49 
		913.72,588.85 913.72,598.55 923.45,598.55 923.45,586.49 924.6,586.49 	"/>
</g>
<g id="_x30_3.33.06" class="st0">
	<polygon class="st1" points="960.3,997.85 960.3,964.32 940.36,964.32 940.36,997.52 940.36,997.85 	"/>
</g>
<g id="_x30_3.43.05" class="st0">
	<polygon class="st1" points="883.43,214.51 897.37,214.51 897.37,196.52 878.62,196.52 878.62,211.15 881.81,211.15 881.81,214.51 
		882.36,214.51 	"/>
</g>
<g id="S-GRID-IDEN">
	<g id="Circles">
		<g id="CIRCLE_19_">
			<circle class="st3" cx="1056.99" cy="4.1" r="3.81"/>
		</g>
		<g id="CIRCLE_20_">
			<circle class="st3" cx="977.49" cy="4.92" r="3.81"/>
		</g>
		<g id="CIRCLE_21_">
			<circle class="st3" cx="863.58" cy="4.92" r="3.81"/>
		</g>
		<g id="CIRCLE_22_">
			<circle class="st3" cx="767.93" cy="155.04" r="3.81"/>
		</g>
		<g id="CIRCLE_23_">
			<circle class="st3" cx="767.93" cy="77.98" r="3.81"/>
		</g>
		<g id="CIRCLE_24_">
			<circle class="st3" cx="1031.94" cy="4.92" r="3.81"/>
		</g>
		<g id="CIRCLE_25_">
			<circle class="st3" cx="1151.25" cy="74.65" r="3.81"/>
		</g>
		<g id="CIRCLE_26_">
			<circle class="st3" cx="767.93" cy="133.16" r="3.81"/>
		</g>
		<g id="CIRCLE_27_">
			<circle class="st3" cx="767.93" cy="1028.73" r="3.81"/>
		</g>
		<g id="CIRCLE_28_">
			<circle class="st3" cx="879.75" cy="112.58" r="3.81"/>
		</g>
		<g id="CIRCLE_29_">
			<circle class="st3" cx="767.93" cy="947.23" r="3.81"/>
		</g>
		<g id="CIRCLE_30_">
			<circle class="st3" cx="767.93" cy="214.66" r="3.81"/>
		</g>
		<g id="CIRCLE_31_">
			<circle class="st3" cx="858.97" cy="112.58" r="3.81"/>
		</g>
		<g id="CIRCLE_32_">
			<circle class="st3" cx="810.45" cy="112.58" r="3.81"/>
		</g>
		<g id="CIRCLE_33_">
			<circle class="st3" cx="884.5" cy="3.81" r="3.81"/>
		</g>
		<g id="CIRCLE_34_">
			<circle class="st3" cx="1151.25" cy="990.2" r="3.81"/>
		</g>
		<g id="CIRCLE_35_">
			<circle class="st3" cx="1151.25" cy="1028.26" r="3.81"/>
		</g>
		<g id="CIRCLE_3_">
			<circle class="st3" cx="767.93" cy="701.77" r="3.81"/>
		</g>
		<g id="CIRCLE_4_">
			<circle class="st3" cx="767.93" cy="782.32" r="3.81"/>
		</g>
		<g id="CIRCLE_5_">
			<circle class="st3" cx="767.93" cy="862.87" r="3.81"/>
		</g>
		<g id="CIRCLE_6_">
			<circle class="st3" cx="767.93" cy="460.12" r="3.81"/>
		</g>
		<g id="CIRCLE_7_">
			<circle class="st3" cx="767.93" cy="379.57" r="3.81"/>
		</g>
		<g id="CIRCLE_8_">
			<circle class="st3" cx="767.93" cy="299.02" r="3.81"/>
		</g>
		<g id="CIRCLE_9_">
			<circle class="st3" cx="767.93" cy="218.47" r="3.81"/>
		</g>
		<g id="CIRCLE_10_">
			<circle class="st3" cx="1144.08" cy="956.74" r="3.81"/>
		</g>
		<g id="CIRCLE_11_">
			<circle class="st3" cx="1126.47" cy="1076.19" r="3.81"/>
		</g>
		<g id="CIRCLE_12_">
			<circle class="st3" cx="767.93" cy="943.42" r="3.81"/>
		</g>
		<g id="CIRCLE_13_">
			<circle class="st3" cx="1126.47" cy="3.81" r="3.81"/>
		</g>
		<g id="CIRCLE_14_">
			<circle class="st3" cx="1090.91" cy="1075.9" r="3.81"/>
		</g>
		<g id="CIRCLE_15_">
			<circle class="st3" cx="1059.39" cy="1075.08" r="3.81"/>
		</g>
		<g id="CIRCLE_16_">
			<circle class="st3" cx="945.47" cy="1075.08" r="3.81"/>
		</g>
		<g id="CIRCLE_17_">
			<circle class="st3" cx="790.96" cy="1073.85" r="3.81"/>
		</g>
		<g id="CIRCLE_18_">
			<circle class="st3" cx="767.93" cy="1006.85" r="3.81"/>
		</g>
		<g id="CIRCLE_2_">
			<circle class="st3" cx="767.93" cy="621.22" r="3.81"/>
		</g>
		<g id="CIRCLE_1_">
			<circle class="st3" cx="767.93" cy="540.67" r="3.81"/>
		</g>
		<g id="CIRCLE">
			<circle class="st3" cx="1151.25" cy="580.95" r="3.81"/>
		</g>
	</g>
	<g id="Numbers">
		<g id="MTEXT_35_">
			<text transform="matrix(1 0 0 1 1148.2231 1029.6215)" class="st4 st5">A.6</text>
		</g>
		<g id="MTEXT_34_">
			<text transform="matrix(1 0 0 1 1148.2231 991.5659)" class="st4 st5">A.3</text>
		</g>
		<g id="MTEXT_33_">
			<text transform="matrix(1 0 0 1 882.7254 5.187)" class="st4 st5">D</text>
		</g>
		<g id="MTEXT_32_">
			<text transform="matrix(1 0 0 1 808.6542 113.96)" class="st4 st5">G</text>
		</g>
		<g id="MTEXT_31_">
			<text transform="matrix(1 0 0 1 857.3958 113.96)" class="st4 st5">F</text>
		</g>
		<g id="MTEXT_30_">
			<text transform="matrix(1 0 0 1 763.9933 216.0273)" class="st4 st5">43.1</text>
		</g>
		<g id="MTEXT_29_">
			<text transform="matrix(1 0 0 1 763.8765 948.5963)" class="st4 st5">33.9</text>
		</g>
		<g id="MTEXT_28_">
			<text transform="matrix(1 0 0 1 878.0805 113.96)" class="st4 st5">E</text>
		</g>
		<g id="MTEXT_27_">
			<text transform="matrix(1 0 0 1 763.8765 1030.0986)" class="st4 st5">32.7</text>
		</g>
		<g id="MTEXT_26_">
			<text transform="matrix(1 0 0 1 763.9933 134.5251)" class="st4 st5">44.3</text>
		</g>
		<g id="MTEXT_25_">
			<text transform="matrix(1 0 0 1 1149.5941 76.0132)" class="st4 st5">B</text>
		</g>
		<g id="MTEXT_24_">
			<text transform="matrix(1 0 0 1 1030.2573 6.2965)" class="st4 st5">C</text>
		</g>
		<g id="MTEXT_23_">
			<text transform="matrix(1 0 0 1 763.9933 79.3446)" class="st4 st5">45.1</text>
		</g>
		<g id="MTEXT_22_">
			<text transform="matrix(1 0 0 1 765.6563 156.407)" class="st4 st5">44</text>
		</g>
		<g id="MTEXT_21_">
			<text transform="matrix(1 0 0 1 859.6341 6.2976)" class="st4 st5">45.4</text>
		</g>
		<g id="MTEXT_20_">
			<text transform="matrix(1 0 0 1 973.5502 6.2976)" class="st4 st5">45.6</text>
		</g>
		<g id="MTEXT_19_">
			<text transform="matrix(1 0 0 1 1054.7042 5.4757)" class="st4 st5">46</text>
		</g>
		<g id="MTEXT_18_">
			<text transform="matrix(1 0 0 1 765.5395 1008.2167)" class="st4 st5">33</text>
		</g>
		<g id="MTEXT_17_">
			<text transform="matrix(1 0 0 1 788.5694 1075.2059)" class="st4 st5">32</text>
		</g>
		<g id="MTEXT_16_">
			<text transform="matrix(1 0 0 1 941.4086 1076.4354)" class="st4 st5">31.6</text>
		</g>
		<g id="MTEXT_15_">
			<text transform="matrix(1 0 0 1 1055.3248 1076.4354)" class="st4 st5">31.4</text>
		</g>
		<g id="MTEXT_14_">
			<text transform="matrix(1 0 0 1 1088.5089 1077.2567)" class="st4 st5">31</text>
		</g>
		<g id="MTEXT_13_">
			<text transform="matrix(1 0 0 1 1124.1791 5.187)" class="st4 st5">48</text>
		</g>
		<g id="MTEXT_12_">
			<text transform="matrix(1 0 0 1 765.5395 944.7908)" class="st4 st5">34</text>
		</g>
		<g id="MTEXT_11_">
			<text transform="matrix(1 0 0 1 1124.1143 1077.5449)" class="st4 st5">29</text>
		</g>
		<g id="MTEXT_10_">
			<text transform="matrix(1 0 0 1 1142.718 958.0934)" class="st4 st5">A</text>
		</g>
		<g id="MTEXT_9_">
			<text transform="matrix(1 0 0 1 765.6563 219.8329)" class="st4 st5">43</text>
		</g>
		<g id="MTEXT_8_">
			<text transform="matrix(1 0 0 1 765.6563 300.3838)" class="st4 st5">42</text>
		</g>
		<g id="MTEXT_7_">
			<text transform="matrix(1 0 0 1 765.6563 380.9347)" class="st4 st5">41</text>
		</g>
		<g id="MTEXT_6_">
			<text transform="matrix(1 0 0 1 765.6563 461.4855)" class="st4 st5">40</text>
		</g>
		<g id="MTEXT_5_">
			<text transform="matrix(1 0 0 1 765.5395 864.2399)" class="st4 st5">35</text>
		</g>
		<g id="MTEXT_4_">
			<text transform="matrix(1 0 0 1 765.5395 783.689)" class="st4 st5">36</text>
		</g>
		<g id="MTEXT_3_">
			<text transform="matrix(1 0 0 1 765.5395 703.1382)" class="st4 st5">37</text>
		</g>
		<g id="MTEXT_2_">
			<text transform="matrix(1 0 0 1 765.5395 622.5873)" class="st4 st5">38</text>
		</g>
		<g id="MTEXT_1_">
			<text transform="matrix(1 0 0 1 765.5395 542.0364)" class="st4 st5">39</text>
		</g>
		<g id="MTEXT">
			<text transform="matrix(1 0 0 1 1147.5691 582.3104)" class="st4 st5">EW</text>
		</g>
	</g>
</g>
<g id="S-GRID">
	<g id="LINE">
		<line class="st6" x1="771.74" y1="580.95" x2="1147.44" y2="580.95"/>
	</g>
	<g id="LINE_1_">
		<line class="st6" x1="1147.44" y1="540.67" x2="771.74" y2="540.67"/>
	</g>
	<g id="LINE_2_">
		<line class="st6" x1="1147.44" y1="621.22" x2="771.74" y2="621.22"/>
	</g>
	<g id="LINE_3_">
		<line class="st6" x1="1147.44" y1="701.77" x2="771.74" y2="701.77"/>
	</g>
	<g id="LINE_4_">
		<line class="st6" x1="1147.44" y1="782.32" x2="771.74" y2="782.32"/>
	</g>
	<g id="LINE_5_">
		<line class="st6" x1="1147.44" y1="862.87" x2="771.74" y2="862.87"/>
	</g>
	<g id="LINE_6_">
		<line class="st6" x1="1147.44" y1="460.12" x2="771.74" y2="460.12"/>
	</g>
	<g id="LINE_7_">
		<line class="st6" x1="1147.44" y1="379.57" x2="771.74" y2="379.57"/>
	</g>
	<g id="LINE_8_">
		<line class="st6" x1="1147.44" y1="299.02" x2="771.74" y2="299.02"/>
	</g>
	<g id="LINE_9_">
		<line class="st6" x1="1106.59" y1="218.47" x2="771.74" y2="218.47"/>
	</g>
	<g id="LINE_10_">
		<line class="st6" x1="1141.39" y1="207.84" x2="1123.46" y2="225.77"/>
	</g>
	<g id="LINE_11_">
		<line class="st6" x1="1123.46" y1="225.77" x2="1123.46" y2="936.12"/>
	</g>
	<g id="LINE_12_">
		<line class="st6" x1="1123.46" y1="936.12" x2="1141.39" y2="954.05"/>
	</g>
	<g id="LINE_13_">
		<line class="st6" x1="926.2" y1="1051.24" x2="926.2" y2="110.65"/>
	</g>
	<g id="LINE_14_">
		<line class="st6" x1="1126.47" y1="990.05" x2="1126.47" y2="1072.39"/>
	</g>
	<g id="LINE_15_">
		<line class="st6" x1="1105.83" y1="943.42" x2="771.74" y2="943.42"/>
	</g>
	<g id="LINE_16_">
		<line class="st6" x1="1126.47" y1="171.84" x2="1126.47" y2="7.61"/>
	</g>
	<g id="LINE_17_">
		<line class="st6" x1="1147.44" y1="939.42" x2="1092.37" y2="1072.39"/>
	</g>
	<g id="LINE_18_">
		<line class="st6" x1="1113.51" y1="1020.95" x2="1062.08" y2="1072.39"/>
	</g>
	<g id="LINE_19_">
		<line class="st6" x1="1056.55" y1="964" x2="948.16" y2="1072.39"/>
	</g>
	<g id="LINE_20_">
		<line class="st6" x1="1147.44" y1="926.19" x2="794.48" y2="1072.39"/>
	</g>
	<g id="LINE_21_">
		<line class="st6" x1="994.96" y1="1006.85" x2="771.74" y2="1006.85"/>
	</g>
	<g id="LINE_22_">
		<line class="st6" x1="1147.44" y1="222.47" x2="1058.45" y2="7.61"/>
	</g>
	<g id="LINE_23_">
		<line class="st6" x1="1113.51" y1="140.94" x2="980.19" y2="7.61"/>
	</g>
	<g id="LINE_24_">
		<line class="st6" x1="1056.55" y1="197.9" x2="866.27" y2="7.61"/>
	</g>
	<g id="LINE_25_">
		<line class="st6" x1="1147.44" y1="235.7" x2="786.23" y2="86.08"/>
	</g>
	<g id="LINE_26_">
		<line class="st6" x1="963.23" y1="155.04" x2="771.74" y2="155.04"/>
	</g>
	<g id="LINE_27_">
		<line class="st6" x1="958.88" y1="77.98" x2="771.74" y2="77.98"/>
	</g>
	<g id="LINE_28_">
		<line class="st6" x1="947.35" y1="1072.39" x2="926.2" y2="1051.24"/>
	</g>
	<g id="LINE_29_">
		<line class="st6" x1="926.2" y1="110.65" x2="1029.24" y2="7.61"/>
	</g>
	<g id="LINE_30_">
		<line class="st6" x1="1071.36" y1="1072.39" x2="990.26" y2="991.29"/>
	</g>
	<g id="LINE_31_">
		<line class="st6" x1="990.26" y1="991.29" x2="990.26" y2="170.6"/>
	</g>
	<g id="LINE_32_">
		<line class="st6" x1="990.26" y1="170.6" x2="1086.21" y2="74.65"/>
	</g>
	<g id="LINE_33_">
		<line class="st6" x1="1086.21" y1="74.65" x2="1147.44" y2="74.65"/>
	</g>
	<g id="LINE_34_">
		<line class="st6" x1="963.23" y1="133.16" x2="771.74" y2="133.16"/>
	</g>
	<g id="LINE_35_">
		<line class="st6" x1="994.96" y1="1028.73" x2="771.74" y2="1028.73"/>
	</g>
	<g id="LINE_36_">
		<line class="st6" x1="879.75" y1="1046.4" x2="879.75" y2="116.38"/>
	</g>
	<g id="LINE_37_">
		<line class="st6" x1="993.6" y1="947.23" x2="771.74" y2="947.23"/>
	</g>
	<g id="LINE_38_">
		<line class="st6" x1="1106.59" y1="214.66" x2="771.74" y2="214.66"/>
	</g>
	<g id="LINE_39_">
		<line class="st6" x1="858.97" y1="1046.4" x2="858.97" y2="116.38"/>
	</g>
	<g id="LINE_40_">
		<line class="st6" x1="810.45" y1="1046.4" x2="810.45" y2="116.38"/>
	</g>
	<g id="LINE_41_">
		<line class="st6" x1="884.5" y1="1072.39" x2="884.5" y2="7.61"/>
	</g>
	<g id="LINE_42_">
		<line class="st6" x1="1112.96" y1="976.75" x2="1126.41" y2="990.2"/>
	</g>
	<g id="LINE_43_">
		<line class="st6" x1="1126.41" y1="990.2" x2="1147.44" y2="990.2"/>
	</g>
	<g id="LINE_44_">
		<line class="st6" x1="1100.85" y1="1018.46" x2="1110.65" y2="1028.26"/>
	</g>
	<g id="LINE_45_">
		<line class="st6" x1="1110.65" y1="1028.26" x2="1147.44" y2="1028.26"/>
	</g>
</g>
</svg>
