<?xml version="1.0" encoding="utf-8"?>
<!-- Generator: Adobe Illustrator 25.2.3, SVG Export Plug-In . SVG Version: 6.00 Build 0)  -->
<svg version="1.1" id="A-AREA-BNDY" xmlns="http://www.w3.org/2000/svg" xmlns:xlink="http://www.w3.org/1999/xlink" x="0px"
	 y="0px" viewBox="0 0 1920 1080" style="enable-background:new 0 0 1920 1080;" xml:space="preserve">
<style type="text/css">
	.st0{opacity:0.4;}
	.st1{fill:#BA9BC9;stroke:#000000;stroke-width:0.2551;stroke-linecap:round;stroke-linejoin:round;stroke-miterlimit:10;}
	.st2{fill:#65C8D0;stroke:#000000;stroke-width:0.2551;stroke-linecap:round;stroke-linejoin:round;stroke-miterlimit:10;}
	.st3{fill:none;stroke:#000000;stroke-width:0.2551;stroke-linecap:round;stroke-linejoin:round;stroke-miterlimit:10;}
	.st4{font-family:'ArialMT';}
	.st5{font-size:3.9206px;}
	
		.st6{fill:none;stroke:#000000;stroke-width:0.2551;stroke-linecap:round;stroke-linejoin:round;stroke-miterlimit:10;stroke-dasharray:0.0771,0.0193,0.0193,0.0193;}
</style>
<g id="_x30_2.45.01" class="st0">
	<polygon class="st1" points="975.83,184.27 1050.58,109.52 1048.07,107.01 1025.94,84.88 1026.76,84.05 1039.03,71.79 
		1039.65,71.17 1030.53,62.04 973.71,118.86 975.01,120.17 962.5,132.69 961.19,131.38 942.6,149.97 910.09,149.97 910.09,173.58 
		910.09,175.72 925.33,175.72 928.96,175.72 938.86,175.72 942.06,175.72 953.57,175.72 953.57,196.81 943.05,196.81 943.05,201.34 
		943.05,203.46 943.05,207.92 953.57,207.92 953.57,227.64 953.57,228.93 962.92,228.93 971.84,228.93 971.84,230.95 975.83,230.95 
		975.83,229.29 	"/>
</g>
<g id="_x30_2.38.02" class="st0">
	<polygon class="st1" points="926.2,570.16 926.2,585.11 929.96,585.11 929.96,585.27 926.2,585.27 926.2,594.52 929.96,594.52 
		929.96,594.67 926.2,594.67 926.2,605.7 927.38,605.7 943.16,605.7 943.16,620.43 962.92,620.43 975.04,620.43 975.04,570.77 
		974.16,570.77 974.16,570.16 962.59,570.16 937.3,570.16 	"/>
</g>
<g id="_x30_2.41.03" class="st0">
	<polygon class="st1" points="937.3,386.24 962.59,386.24 962.59,385.41 974.72,385.41 974.72,361.67 974.16,361.67 974.16,361.25 
		962.59,361.25 962.59,361.81 937.3,361.81 937.3,361.25 926.2,361.25 926.2,371.69 926.2,385.41 937.3,385.41 	"/>
</g>
<g id="LWPOLYLINE_1_" class="st0">
	<polygon class="st2" points="961.33,582.02 961.64,582.02 961.64,584.58 961.64,587.58 961.33,587.58 961.33,584.95 937.91,584.95 
		937.91,587.58 937.6,587.58 937.6,584.58 937.6,582.02 937.91,582.02 937.91,584.2 961.33,584.2 	"/>
</g>
<g id="LWPOLYLINE_2_" class="st0">
	<rect x="947.75" y="615.42" class="st2" width="17.73" height="1.31"/>
</g>
<g id="_x30_2.36.03" class="st0">
	<polygon class="st1" points="937.3,777.94 962.59,777.94 962.59,777.11 974.72,777.11 974.72,753.37 974.16,753.37 974.16,752.94 
		962.59,752.94 962.59,753.5 937.3,753.5 937.3,752.94 926.2,752.94 926.2,763.38 926.2,777.11 937.3,777.11 	"/>
</g>
<g id="_x30_2.34.06" class="st0">
	<polygon class="st1" points="870.26,908.36 870.26,932.05 872.9,932.05 887.61,932.05 887.61,908.36 	"/>
</g>
<g id="_x30_2.34.04" class="st0">
	<polygon class="st1" points="893.55,855.83 870.26,855.83 870.26,907.42 888.08,907.42 888.56,907.42 894.86,907.42 894.86,903.71 
		895.97,903.71 895.97,907.42 901.49,907.42 901.49,903.71 902.61,903.71 902.61,907.42 909.16,907.42 909.16,858.36 909.16,855.83 
		894.66,855.83 894.66,873.18 893.55,873.18 	"/>
</g>
<g id="_x30_2.34.05" class="st0">
	<polygon class="st1" points="888.55,932.15 903.18,932.15 903.18,929.93 909.16,929.93 909.16,908.17 902.05,908.17 895.42,908.17 
		888.55,908.17 	"/>
</g>
<g id="_x30_2.38.05" class="st0">
	<polygon class="st1" points="909.14,619.06 909.14,600.52 899.68,600.52 899.68,603.93 898.92,603.93 898.92,600.14 898.92,590.67 
		888.59,590.67 888.59,606.36 885.14,606.36 875.25,606.36 875.25,605.61 884.81,605.61 884.81,588.8 878.55,588.8 850.48,588.8 
		850.48,622.92 875.87,622.92 875.87,615.61 888.59,615.61 888.59,620.01 909.14,620.01 	"/>
</g>
<g id="_x30_2.42.04" class="st0">
	<polygon class="st1" points="894.32,309.46 909.14,309.46 909.14,306.94 909.14,293.66 894.32,293.66 	"/>
</g>
<g id="_x30_2.38.04" class="st0">
	<polygon class="st1" points="869.86,546.12 869.86,574.09 890.83,574.09 890.83,571.58 890.83,565.15 890.83,561.08 891.95,561.08 
		891.95,564.78 898.62,564.78 898.62,561.08 899.73,561.08 899.73,564.78 909.14,564.78 909.14,546.23 909.14,544.52 891.95,544.52 
		891.95,545.45 891.95,545.79 891.95,549.15 890.83,549.15 890.83,546.12 	"/>
</g>
<g id="LWPOLYLINE_11_" class="st0">
	<polygon class="st2" points="969.8,149.15 991.47,127.48 983.91,119.92 984.63,119.19 992.92,127.48 969.8,150.6 961.51,142.31 
		962.23,141.59 	"/>
</g>
<g id="_x30_2.33.01" class="st0">
	<polygon class="st1" points="974.16,963.56 974.72,963.56 974.72,940.34 967.07,940.34 967.07,938.35 963.03,938.35 938.85,938.35 
		938.85,940.26 931.44,940.26 931.44,941.76 931.44,953.29 925.89,953.29 925.89,977.08 931.44,977.08 931.44,988.11 971.09,988.11 
		971.09,980.22 974.16,980.22 	"/>
</g>
<g id="_x30_2.43.02" class="st0">
	<polygon class="st1" points="925.89,203.79 925.89,223.3 929.28,223.3 929.28,227.31 938.54,227.31 938.54,223.3 942.39,223.3 
		942.39,227.31 951.8,227.31 951.8,209.69 942.39,209.69 942.39,213.39 941.27,213.39 941.27,209.7 941.27,208.8 941.27,203.79 	"/>
</g>
<g id="_x30_2.43.01" class="st0">
	<polygon class="st1" points="925.89,181.51 925.89,201.01 941.27,201.01 941.27,195.93 941.27,195.03 941.27,191.34 942.39,191.34 
		942.39,195.04 951.8,195.04 951.8,177.5 942.39,177.5 942.39,181.51 938.54,181.51 938.54,177.5 929.28,177.5 929.28,181.51 	"/>
</g>
<g id="_x30_2.42.05" class="st0">
	<polygon class="st1" points="870.26,309.46 893.57,309.46 893.57,293.33 893.57,291.19 909.14,291.19 909.14,261.58 902.61,261.58 
		902.61,265.45 901.49,265.45 901.49,261.58 895.98,261.58 895.98,265.45 894.86,265.45 894.86,261.58 886.69,261.58 886.21,261.58 
		870.26,261.58 	"/>
</g>
<g id="_x30_2.42.06" class="st0">
	<polygon class="st1" points="909.14,236.27 909.14,235.31 903.17,235.31 903.17,230.84 886.68,230.84 886.68,260.83 895.42,260.83 
		902.05,260.83 909.14,260.83 	"/>
</g>
<g id="_x30_2.42.07" class="st0">
	<polygon class="st1" points="870.26,232.17 870.26,260.64 885.74,260.64 885.74,230.93 873.42,230.93 873.42,232.17 	"/>
</g>
<g id="_x30_2.33.02" class="st0">
	<polygon class="st1" points="883.7,978.62 888.63,978.62 888.63,991.17 897.5,991.17 898.64,991.17 908.41,991.17 908.41,987.8 
		924.56,987.8 924.56,988.11 930.33,988.11 930.33,978.2 924.77,978.2 924.77,952.18 930.33,952.18 930.33,942.27 924.77,942.27 
		924.77,940.92 914.29,940.92 914.29,942.27 883.7,942.27 	"/>
</g>
<g id="_x30_2.43.03" class="st0">
	<polygon class="st1" points="924.77,181.18 924.77,177.5 908.41,177.5 908.41,173.99 898.75,173.99 898.34,173.99 890.58,173.99 
		883.75,173.99 883.75,207.76 883.75,208.88 883.75,209.47 883.75,226.4 908.41,226.4 908.41,223.03 914.29,223.03 914.29,228.04 
		924.77,228.04 924.77,223.63 924.77,203.46 924.77,201.34 	"/>
</g>
<g id="_x30_2.36.02" class="st0">
	<polygon class="st1" points="937.3,751.26 937.3,751.82 962.59,751.82 962.59,751.26 974.72,751.26 974.72,727.45 974.16,727.45 
		974.16,726.83 962.59,726.83 962.59,727.39 937.3,727.39 937.3,726.83 926.2,726.83 926.2,751.26 	"/>
</g>
<g id="_x30_2.36.01" class="st0">
	<polygon class="st1" points="962.59,700.72 937.3,700.72 937.3,701.54 926.2,701.54 926.2,715.27 926.2,725.71 937.3,725.71 
		937.3,725.15 962.59,725.15 962.59,725.71 974.16,725.71 974.16,725.29 974.72,725.29 974.72,701.54 962.59,701.54 	"/>
</g>
<g id="_x30_2.37.03" class="st0">
	<polygon class="st1" points="937.3,699.6 962.59,699.6 962.59,698.77 974.72,698.77 974.72,675.03 974.16,675.03 974.16,674.6 
		962.59,674.6 962.59,675.16 937.3,675.16 937.3,674.6 926.2,674.6 926.2,685.04 926.2,698.77 937.3,698.77 	"/>
</g>
<g id="_x30_2.37.02" class="st0">
	<polygon class="st1" points="937.3,672.93 937.3,673.48 962.59,673.48 962.59,672.93 974.72,672.93 974.72,649.11 974.16,649.11 
		974.16,648.49 962.59,648.49 962.59,649.05 937.3,649.05 937.3,648.49 926.2,648.49 926.2,672.93 	"/>
</g>
<g id="_x30_2.37.01" class="st0">
	<polygon class="st1" points="926.2,647.37 937.3,647.37 937.3,646.81 962.59,646.81 962.59,647.37 974.16,647.37 974.16,646.95 
		974.72,646.95 974.72,623.21 962.59,623.21 962.59,622.38 942.79,622.38 937.3,622.38 937.3,623.21 927.04,623.21 926.2,623.21 
		926.2,636.93 	"/>
</g>
<g id="_x30_2.35.01" class="st0">
	<polygon class="st1" points="962.59,779.05 937.3,779.05 937.3,779.88 926.2,779.88 926.2,793.61 926.2,804.05 937.3,804.05 
		937.3,803.49 962.59,803.49 962.59,804.05 974.16,804.05 974.16,803.63 974.72,803.63 974.72,779.88 962.59,779.88 	"/>
</g>
<g id="_x30_2.35.02" class="st0">
	<polygon class="st1" points="937.3,829.6 937.3,830.16 962.59,830.16 962.59,829.6 974.72,829.6 974.72,805.79 974.16,805.79 
		974.16,805.17 962.59,805.17 962.59,805.73 937.3,805.73 937.3,805.17 926.2,805.17 926.2,829.6 	"/>
</g>
<g id="_x30_2.35.03" class="st0">
	<polygon class="st1" points="937.3,856.28 962.59,856.28 962.59,855.45 974.72,855.45 974.72,831.7 974.16,831.7 974.16,831.28 
		962.59,831.28 962.59,831.84 937.3,831.84 937.3,831.28 926.2,831.28 926.2,841.72 926.2,855.45 937.3,855.45 	"/>
</g>
<g id="_x30_2.34.01" class="st0">
	<polygon class="st1" points="962.59,857.39 937.3,857.39 937.3,858.22 926.2,858.22 926.2,871.95 926.2,882.39 937.3,882.39 
		937.3,881.83 962.59,881.83 962.59,882.39 974.16,882.39 974.16,881.96 974.72,881.96 974.72,858.22 962.59,858.22 	"/>
</g>
<g id="_x30_2.34.02" class="st0">
	<polygon class="st1" points="937.3,907.94 937.3,908.5 962.59,908.5 962.59,907.94 974.72,907.94 974.72,884.13 974.16,884.13 
		974.16,883.51 962.59,883.51 962.59,884.07 937.3,884.07 937.3,883.51 926.2,883.51 926.2,907.94 	"/>
</g>
<g id="_x30_2.34.03" class="st0">
	<polygon class="st1" points="937.26,935.69 938.52,935.69 962.71,935.69 962.71,933.79 974.72,933.79 974.72,910.04 974.16,910.04 
		974.16,909.62 962.59,909.62 962.59,910.18 937.3,910.18 937.3,909.62 926.2,909.62 926.2,920.06 926.2,933.79 937.26,933.79 	"/>
</g>
<g id="_x30_2.40.01" class="st0">
	<polygon class="st1" points="962.59,387.36 937.3,387.36 937.3,388.19 926.2,388.19 926.2,401.91 926.2,412.35 937.3,412.35 
		937.3,411.8 962.59,411.8 962.59,412.35 974.16,412.35 974.16,411.93 974.72,411.93 974.72,388.19 962.59,388.19 	"/>
</g>
<g id="_x30_2.40.02" class="st0">
	<polygon class="st1" points="926.2,438.47 937.3,438.47 937.3,437.91 962.59,437.91 962.59,438.47 974.16,438.47 974.16,437.84 
		974.72,437.84 974.72,414.03 962.59,414.03 962.59,413.47 937.3,413.47 937.3,414.03 926.2,414.03 	"/>
</g>
<g id="_x30_2.40.03" class="st0">
	<polygon class="st1" points="937.3,464.58 962.59,464.58 962.59,463.75 974.72,463.75 974.72,440.01 974.16,440.01 974.16,439.59 
		962.59,439.59 962.59,440.14 937.3,440.14 937.3,439.59 926.2,439.59 926.2,450.03 926.2,463.75 937.3,463.75 	"/>
</g>
<g id="_x30_2.39.01" class="st0">
	<polygon class="st1" points="962.59,465.7 937.3,465.7 937.3,466.53 926.2,466.53 926.2,480.25 926.2,490.69 937.3,490.69 
		937.3,490.13 962.59,490.13 962.59,490.69 974.16,490.69 974.16,490.27 974.72,490.27 974.72,466.53 962.59,466.53 	"/>
</g>
<g id="_x30_2.39.02" class="st0">
	<polygon class="st1" points="926.2,516.81 937.3,516.81 937.3,516.25 962.59,516.25 962.59,516.81 974.16,516.81 974.16,516.18 
		974.72,516.18 974.72,492.37 962.59,492.37 962.59,491.81 937.3,491.81 937.3,492.37 926.2,492.37 	"/>
</g>
<g id="_x30_2.39.03" class="st0">
	<polygon class="st1" points="937.3,542.92 962.59,542.92 962.59,542.09 974.72,542.09 974.72,518.35 974.16,518.35 974.16,517.92 
		962.59,517.92 962.59,518.48 937.3,518.48 937.3,517.92 926.2,517.92 926.2,528.37 926.2,542.09 937.3,542.09 	"/>
</g>
<g id="_x30_2.38.01" class="st0">
	<polygon class="st1" points="962.59,544.04 937.3,544.04 937.3,544.87 926.2,544.87 926.2,558.59 926.2,558.59 926.2,569.04 
		937.3,569.04 937.3,568.48 962.59,568.48 962.59,569.04 974.16,569.04 974.16,568.61 974.72,568.61 974.72,544.87 962.59,544.87 	
		"/>
</g>
<g id="_x30_2.41.02" class="st0">
	<polygon class="st1" points="926.2,360.13 937.3,360.13 937.3,359.57 962.59,359.57 962.59,360.13 974.16,360.13 974.16,359.51 
		974.72,359.51 974.72,335.69 962.59,335.69 962.59,335.13 937.3,335.13 937.3,335.69 926.2,335.69 	"/>
</g>
<g id="_x30_2.41.01" class="st0">
	<polygon class="st1" points="962.59,309.02 937.3,309.02 937.3,309.85 926.2,309.85 926.2,323.57 926.2,334.02 937.3,334.02 
		937.3,333.46 962.59,333.46 962.59,334.02 974.16,334.02 974.16,333.59 974.72,333.59 974.72,309.85 962.59,309.85 	"/>
</g>
<g id="_x30_2.42.03" class="st0">
	<polygon class="st1" points="937.3,307.9 962.59,307.9 962.59,307.07 974.72,307.07 974.72,283.33 974.16,283.33 974.16,282.91 
		962.59,282.91 962.59,283.47 937.3,283.47 937.3,282.91 926.2,282.91 926.2,293.35 926.2,307.07 937.3,307.07 	"/>
</g>
<g id="_x30_2.42.02" class="st0">
	<polygon class="st1" points="926.2,281.79 937.3,281.79 937.3,281.23 962.59,281.23 962.59,281.79 974.16,281.79 974.16,281.17 
		974.72,281.17 974.72,257.35 962.59,257.35 962.59,256.79 937.3,256.79 937.3,257.35 926.2,257.35 	"/>
</g>
<g id="_x30_2.42.01" class="st0">
	<polygon class="st1" points="926.2,255.68 937.3,255.68 937.3,255.12 962.59,255.12 962.59,255.68 974.16,255.68 974.16,255.25 
		974.72,255.25 974.72,231.51 962.59,231.51 962.59,230.7 952.69,230.7 951.79,230.7 937.3,230.7 937.3,231.51 926.2,231.51 
		926.2,245.23 	"/>
</g>
<g id="_x30_2.43.04" class="st0">
	<rect x="890.91" y="167.71" class="st1" width="7.44" height="5.53"/>
</g>
<g id="_x30_2.38.03A" class="st0">
	<polygon class="st1" points="924.77,230.85 924.77,228.04 914.29,228.04 914.29,236.6 910.26,236.6 910.26,261.21 910.26,291.52 
		910.26,293.33 910.26,306.61 914.29,306.61 914.29,311.55 910.26,311.55 910.26,383.72 914.29,383.72 914.29,388.65 910.26,388.65 
		910.26,462.06 914.29,462.06 914.29,473.16 910.26,473.16 910.26,535.46 914.29,535.46 914.29,546.56 910.26,546.56 910.26,565.15 
		910.26,577.25 910.26,588.05 910.26,600.14 910.26,618.73 914.29,618.73 914.29,629.84 910.26,629.84 910.26,692.14 914.29,692.14 
		914.29,703.24 910.26,703.24 910.26,774.95 914.29,774.95 914.29,782.04 910.3,782.04 910.3,854.98 914.29,854.98 914.29,858.69 
		910.28,858.69 910.28,907.79 910.28,930.29 910.28,931.47 911.78,931.47 912.4,931.47 913.03,931.47 913.34,931.47 914.29,931.47 
		914.29,932.73 914.29,940.92 924.77,940.92 924.77,934.11 924.77,920.06 925.45,920.06 925.45,909.06 925.45,908.27 925.45,882.95 
		925.45,871.95 924.77,871.95 924.77,857.89 924.77,855.77 924.77,841.72 925.45,841.72 925.45,830.72 925.45,829.93 925.45,804.61 
		925.45,793.61 924.77,793.61 924.77,779.56 924.77,777.44 924.77,763.38 925.45,763.38 925.45,752.38 925.45,751.59 925.45,726.27 
		925.45,715.27 924.77,715.27 924.77,701.22 924.77,699.1 924.77,685.04 925.45,685.04 925.45,674.04 925.45,673.25 925.45,647.93 
		925.45,636.93 924.77,636.93 924.77,622.88 924.77,622.54 924.77,606.08 925.45,606.08 925.45,594.59 925.45,585.19 925.45,570.17 
		925.45,569.03 925.45,558.59 924.77,558.59 924.77,544.54 924.77,542.42 924.77,528.37 925.45,528.37 925.45,517.37 925.45,492.04 
		925.45,491.25 925.45,480.25 924.77,480.25 924.77,466.2 924.77,464.08 924.77,450.03 925.45,450.03 925.45,439.03 925.45,413.7 
		925.45,412.91 925.45,401.91 924.77,401.91 924.77,387.86 924.77,385.74 924.77,371.69 925.45,371.69 925.45,360.69 925.45,335.36 
		925.45,334.57 925.45,323.57 924.77,323.57 924.77,309.52 924.77,307.4 924.77,293.35 925.45,293.35 925.45,282.35 925.45,257.03 
		925.45,256.24 925.45,245.23 924.77,245.23 924.77,231.18 	"/>
</g>
<g id="EL06" class="st0">
	<polygon class="st1" points="882.67,941.34 868.41,941.34 868.41,941.94 868.41,959.69 882.67,959.69 	"/>
</g>
<g id="EL05" class="st0">
	<rect x="868.41" y="959.69" class="st1" width="14.26" height="20.05"/>
</g>
<g id="EL04" class="st0">
	<polygon class="st1" points="887.61,979.64 883.24,979.64 883.24,979.74 882.26,979.74 868.41,979.74 868.41,979.84 868.41,995.35 
		861.28,995.35 861.28,997.69 887.61,997.69 887.61,995.06 	"/>
</g>
<g id="ST03" class="st0">
	<polygon class="st1" points="865.34,1016.75 908.41,1016.75 908.41,998.71 898.64,998.71 888.12,998.71 860.95,998.71 
		850.5,998.71 850.5,1008.64 865.34,1008.64 	"/>
</g>
<g id="ST05" class="st0">
	<polygon class="st1" points="908.41,166.59 908.41,148.54 865.34,148.54 865.34,156.66 851.79,156.66 851.79,163.31 851.54,163.31 
		851.54,166.59 867.15,166.59 882.72,166.59 883.24,166.59 	"/>
</g>
<g id="EL08" class="st0">
	<polygon class="st1" points="851.79,169.59 868.85,169.59 868.85,189.26 882.73,189.26 882.73,185.5 882.73,177.79 882.73,167.61 
		867.15,167.61 851.54,167.61 851.54,168.44 851.79,168.44 851.79,169.42 	"/>
</g>
<g id="EL07" class="st0">
	<rect x="868.85" y="189.26" class="st1" width="13.88" height="18.04"/>
</g>
<g id="ST04" class="st0">
	<polygon class="st1" points="868.74,587.74 868.74,544.56 848.44,544.56 848.44,546.39 848.44,548.24 848.44,557.77 848.44,587.74 
			"/>
</g>
<g id="ST06" class="st0">
	
		<rect x="1031.06" y="64.15" transform="matrix(0.7071 -0.7071 0.7071 0.7071 244.7619 759.7089)" class="st1" width="16.73" height="40.5"/>
</g>
<g id="_x30_2.38.06" class="st0">
	<rect x="891.58" y="565.53" class="st1" width="7.04" height="5.73"/>
</g>
<g id="_x30_2.33.03" class="st0">
	<polygon class="st1" points="888.63,991.92 888.63,996.86 895.94,996.86 895.94,995.32 897.17,995.32 897.17,991.92 	"/>
</g>
<g id="_x30_2.28.11" class="st0">
	<polygon class="st1" points="927.7,621.26 936.97,621.26 942.41,621.26 942.41,620.67 942.41,606.45 927.7,606.45 	"/>
</g>
<g id="_x30_2.38.03B" class="st0">
	<polygon class="st1" points="910.26,577.25 909.14,577.25 909.14,565.53 899.73,565.53 899.73,571.58 899.73,574.51 899.73,577.25 
		898.62,577.25 898.62,574.84 892.13,574.84 890.94,574.84 890.94,577.25 879.11,577.25 879.11,588.05 885.14,588.05 899.68,588.05 
		899.68,590.34 899.68,599.77 909.14,599.77 909.14,588.05 910.26,588.05 	"/>
</g>
<g id="_x30_2.43.05" class="st0">
	<polygon class="st1" points="882.64,226.4 882.64,208.78 865.54,208.78 865.54,223.01 868.64,223.01 868.64,226.29 869.17,226.29 
		869.37,226.29 869.37,226.4 	"/>
</g>
<g id="S-GRID-IDEN">
	<g id="Circles">
		<g id="CIRCLE_23_">
			<circle class="st3" cx="772.27" cy="99.96" r="3.7"/>
		</g>
		<g id="CIRCLE_24_">
			<circle class="st3" cx="757.89" cy="168.44" r="3.7"/>
		</g>
		<g id="CIRCLE_25_">
			<circle class="st3" cx="757.89" cy="93.49" r="3.7"/>
		</g>
		<g id="CIRCLE_26_">
			<circle class="st3" cx="1030.88" cy="6.21" r="3.7"/>
		</g>
		<g id="CIRCLE_27_">
			<circle class="st3" cx="1162.05" cy="90.25" r="3.7"/>
		</g>
		<g id="CIRCLE_28_">
			<circle class="st3" cx="757.89" cy="147.16" r="3.7"/>
		</g>
		<g id="CIRCLE_29_">
			<circle class="st3" cx="757.89" cy="1018.14" r="3.7"/>
		</g>
		<g id="CIRCLE_30_">
			<circle class="st3" cx="866.64" cy="127.14" r="3.7"/>
		</g>
		<g id="CIRCLE_31_">
			<circle class="st3" cx="757.89" cy="938.87" r="3.7"/>
		</g>
		<g id="CIRCLE_32_">
			<circle class="st3" cx="757.89" cy="226.42" r="3.7"/>
		</g>
		<g id="CIRCLE_33_">
			<circle class="st3" cx="846.43" cy="127.14" r="3.7"/>
		</g>
		<g id="CIRCLE_34_">
			<circle class="st3" cx="799.25" cy="127.14" r="3.7"/>
		</g>
		<g id="CIRCLE_35_">
			<circle class="st3" cx="871.26" cy="3.7" r="3.7"/>
		</g>
		<g id="CIRCLE_36_">
			<circle class="st3" cx="1162.05" cy="980.67" r="3.7"/>
		</g>
		<g id="CIRCLE_37_">
			<circle class="st3" cx="1162.05" cy="1017.68" r="3.7"/>
		</g>
		<g id="CIRCLE">
			<circle class="st3" cx="1162.05" cy="582.65" r="3.7"/>
		</g>
		<g id="CIRCLE_1_">
			<circle class="st3" cx="757.89" cy="543.48" r="3.7"/>
		</g>
		<g id="CIRCLE_2_">
			<circle class="st3" cx="757.89" cy="621.82" r="3.7"/>
		</g>
		<g id="CIRCLE_3_">
			<circle class="st3" cx="757.89" cy="700.16" r="3.7"/>
		</g>
		<g id="CIRCLE_4_">
			<circle class="st3" cx="757.89" cy="778.5" r="3.7"/>
		</g>
		<g id="CIRCLE_5_">
			<circle class="st3" cx="757.89" cy="856.83" r="3.7"/>
		</g>
		<g id="CIRCLE_6_">
			<circle class="st3" cx="757.89" cy="465.14" r="3.7"/>
		</g>
		<g id="CIRCLE_7_">
			<circle class="st3" cx="757.89" cy="386.8" r="3.7"/>
		</g>
		<g id="CIRCLE_8_">
			<circle class="st3" cx="757.89" cy="308.46" r="3.7"/>
		</g>
		<g id="CIRCLE_9_">
			<circle class="st3" cx="757.89" cy="230.12" r="3.7"/>
		</g>
		<g id="CIRCLE_10_">
			<circle class="st3" cx="1162.05" cy="219.79" r="3.7"/>
		</g>
		<g id="CIRCLE_11_">
			<circle class="st3" cx="1162.05" cy="945.51" r="3.7"/>
		</g>
		<g id="CIRCLE_12_">
			<circle class="st3" cx="1106.59" cy="1076.3" r="3.7"/>
		</g>
		<g id="CIRCLE_13_">
			<circle class="st3" cx="757.89" cy="935.17" r="3.7"/>
		</g>
		<g id="CIRCLE_14_">
			<circle class="st3" cx="1106.59" cy="3.7" r="3.7"/>
		</g>
		<g id="CIRCLE_15_">
			<circle class="st3" cx="1067.03" cy="1076.02" r="3.7"/>
		</g>
		<g id="CIRCLE_16_">
			<circle class="st3" cx="1029.34" cy="1075.21" r="3.7"/>
		</g>
		<g id="CIRCLE_17_">
			<circle class="st3" cx="918.56" cy="1075.21" r="3.7"/>
		</g>
		<g id="CIRCLE_18_">
			<circle class="st3" cx="757.08" cy="1071.63" r="3.7"/>
		</g>
		<g id="CIRCLE_19_">
			<circle class="st3" cx="757.89" cy="996.86" r="3.7"/>
		</g>
		<g id="CIRCLE_20_">
			<circle class="st3" cx="1031.7" cy="3.98" r="3.7"/>
		</g>
		<g id="CIRCLE_21_">
			<circle class="st3" cx="944.05" cy="4.79" r="3.7"/>
		</g>
		<g id="CIRCLE_22_">
			<circle class="st3" cx="833.26" cy="4.79" r="3.7"/>
		</g>
	</g>
	<g id="Numbers">
		<g id="MTEXT_37_">
			<text transform="matrix(1 0 0 1 1159.103 1019.0044)" class="st4 st5">A.6</text>
		</g>
		<g id="MTEXT_36_">
			<text transform="matrix(1 0 0 1 1159.103 981.9938)" class="st4 st5">A.3</text>
		</g>
		<g id="MTEXT_35_">
			<text transform="matrix(1 0 0 1 869.5349 5.0446)" class="st4 st5">D</text>
		</g>
		<g id="MTEXT_34_">
			<text transform="matrix(1 0 0 1 797.4976 128.4855)" class="st4 st5">G</text>
		</g>
		<g id="MTEXT_33_">
			<text transform="matrix(1 0 0 1 844.9008 128.4855)" class="st4 st5">F</text>
		</g>
		<g id="MTEXT_32_">
			<text transform="matrix(1 0 0 1 754.0629 227.7503)" class="st4 st5">43.1</text>
		</g>
		<g id="MTEXT_31_">
			<text transform="matrix(1 0 0 1 753.9493 940.2041)" class="st4 st5">33.9</text>
		</g>
		<g id="MTEXT_30_">
			<text transform="matrix(1 0 0 1 865.0175 128.4855)" class="st4 st5">E</text>
		</g>
		<g id="MTEXT_29_">
			<text transform="matrix(1 0 0 1 753.9493 1019.4684)" class="st4 st5">32.7</text>
		</g>
		<g id="MTEXT_28_">
			<text transform="matrix(1 0 0 1 754.0629 148.486)" class="st4 st5">44.3</text>
		</g>
		<g id="MTEXT_27_">
			<text transform="matrix(1 0 0 1 1160.4364 91.5807)" class="st4 st5">B</text>
		</g>
		<g id="MTEXT_26_">
			<text transform="matrix(1 0 0 1 1029.2429 7.5513)" class="st4 st5">C</text>
		</g>
		<g id="MTEXT_25_">
			<text transform="matrix(1 0 0 1 754.0629 94.8206)" class="st4 st5">45.1</text>
		</g>
		<g id="MTEXT_24_">
			<text transform="matrix(1 0 0 1 755.6803 169.767)" class="st4 st5">44</text>
		</g>
		<g id="MTEXT_23_">
			<text transform="matrix(1 0 0 1 770.0551 101.2942)" class="st4 st5">45</text>
		</g>
		<g id="MTEXT">
			<text transform="matrix(1 0 0 1 1158.467 583.9758)" class="st4 st5">EW</text>
		</g>
		<g id="MTEXT_1_">
			<text transform="matrix(1 0 0 1 755.5667 544.8077)" class="st4 st5">39</text>
		</g>
		<g id="MTEXT_2_">
			<text transform="matrix(1 0 0 1 755.5667 623.1467)" class="st4 st5">38</text>
		</g>
		<g id="MTEXT_3_">
			<text transform="matrix(1 0 0 1 755.5667 701.4858)" class="st4 st5">37</text>
		</g>
		<g id="MTEXT_4_">
			<text transform="matrix(1 0 0 1 755.5667 779.8249)" class="st4 st5">36</text>
		</g>
		<g id="MTEXT_5_">
			<text transform="matrix(1 0 0 1 755.5667 858.1639)" class="st4 st5">35</text>
		</g>
		<g id="MTEXT_6_">
			<text transform="matrix(1 0 0 1 755.6803 466.4686)" class="st4 st5">40</text>
		</g>
		<g id="MTEXT_22_">
			<text transform="matrix(1 0 0 1 829.423 6.1246)" class="st4 st5">45.4</text>
		</g>
		<g id="MTEXT_21_">
			<text transform="matrix(1 0 0 1 940.2111 6.1246)" class="st4 st5">45.6</text>
		</g>
		<g id="MTEXT_20_">
			<text transform="matrix(1 0 0 1 1029.4786 5.3254)" class="st4 st5">46</text>
		</g>
		<g id="MTEXT_19_">
			<text transform="matrix(1 0 0 1 755.5667 998.1873)" class="st4 st5">33</text>
		</g>
		<g id="MTEXT_18_">
			<text transform="matrix(1 0 0 1 754.7488 1072.9534)" class="st4 st5">32</text>
		</g>
		<g id="MTEXT_17_">
			<text transform="matrix(1 0 0 1 914.6064 1076.5332)" class="st4 st5">31.6</text>
		</g>
		<g id="MTEXT_16_">
			<text transform="matrix(1 0 0 1 1025.3945 1076.5332)" class="st4 st5">31.4</text>
		</g>
		<g id="MTEXT_15_">
			<text transform="matrix(1 0 0 1 1064.6971 1077.332)" class="st4 st5">31</text>
		</g>
		<g id="MTEXT_14_">
			<text transform="matrix(1 0 0 1 1104.3585 5.0446)" class="st4 st5">48</text>
		</g>
		<g id="MTEXT_13_">
			<text transform="matrix(1 0 0 1 755.5667 936.5031)" class="st4 st5">34</text>
		</g>
		<g id="MTEXT_12_">
			<text transform="matrix(1 0 0 1 1104.2957 1077.6123)" class="st4 st5">29</text>
		</g>
		<g id="MTEXT_11_">
			<text transform="matrix(1 0 0 1 1160.7205 946.8337)" class="st4 st5">A</text>
		</g>
		<g id="MTEXT_10_">
			<text transform="matrix(1 0 0 1 1160.7505 221.1192)" class="st4 st5">A</text>
		</g>
		<g id="MTEXT_9_">
			<text transform="matrix(1 0 0 1 755.6803 231.4514)" class="st4 st5">43</text>
		</g>
		<g id="MTEXT_8_">
			<text transform="matrix(1 0 0 1 755.6803 309.7904)" class="st4 st5">42</text>
		</g>
		<g id="MTEXT_7_">
			<text transform="matrix(1 0 0 1 755.6803 388.1295)" class="st4 st5">41</text>
		</g>
	</g>
</g>
<g id="S-GRID">
	<g id="LINE">
		<line class="st6" x1="761.6" y1="582.65" x2="1158.35" y2="582.65"/>
	</g>
	<g id="LINE_1_">
		<line class="st6" x1="1133.42" y1="543.48" x2="761.6" y2="543.48"/>
	</g>
	<g id="LINE_2_">
		<line class="st6" x1="1133.42" y1="621.82" x2="761.6" y2="621.82"/>
	</g>
	<g id="LINE_3_">
		<line class="st6" x1="1133.42" y1="700.16" x2="761.6" y2="700.16"/>
	</g>
	<g id="LINE_4_">
		<line class="st6" x1="1133.42" y1="778.5" x2="761.6" y2="778.5"/>
	</g>
	<g id="LINE_5_">
		<line class="st6" x1="1133.42" y1="856.83" x2="761.6" y2="856.83"/>
	</g>
	<g id="LINE_6_">
		<line class="st6" x1="1133.42" y1="465.14" x2="761.6" y2="465.14"/>
	</g>
	<g id="LINE_7_">
		<line class="st6" x1="1133.42" y1="386.8" x2="761.6" y2="386.8"/>
	</g>
	<g id="LINE_8_">
		<line class="st6" x1="1133.42" y1="308.46" x2="761.6" y2="308.46"/>
	</g>
	<g id="LINE_9_">
		<line class="st6" x1="1087.26" y1="230.12" x2="761.6" y2="230.12"/>
	</g>
	<g id="LINE_10_">
		<line class="st6" x1="1158.35" y1="219.79" x2="1121.09" y2="219.79"/>
	</g>
	<g id="LINE_11_">
		<line class="st6" x1="1121.09" y1="219.79" x2="1103.66" y2="237.22"/>
	</g>
	<g id="LINE_12_">
		<line class="st6" x1="1103.66" y1="237.22" x2="1103.66" y2="928.07"/>
	</g>
	<g id="LINE_13_">
		<line class="st6" x1="1103.66" y1="928.07" x2="1121.09" y2="945.51"/>
	</g>
	<g id="LINE_14_">
		<line class="st6" x1="1121.09" y1="945.51" x2="1158.35" y2="945.51"/>
	</g>
	<g id="LINE_15_">
		<line class="st6" x1="911.82" y1="1040.03" x2="911.82" y2="125.27"/>
	</g>
	<g id="LINE_16_">
		<line class="st6" x1="1106.59" y1="980.52" x2="1106.59" y2="1072.6"/>
	</g>
	<g id="LINE_17_">
		<line class="st6" x1="1086.51" y1="935.17" x2="761.6" y2="935.17"/>
	</g>
	<g id="LINE_18_">
		<line class="st6" x1="1106.59" y1="184.77" x2="1106.59" y2="7.4"/>
	</g>
	<g id="LINE_19_">
		<line class="st6" x1="1133.42" y1="915.74" x2="1068.45" y2="1072.6"/>
	</g>
	<g id="LINE_20_">
		<line class="st6" x1="1093.98" y1="1010.57" x2="1031.96" y2="1072.6"/>
	</g>
	<g id="LINE_21_">
		<line class="st6" x1="1038.59" y1="955.18" x2="921.17" y2="1072.6"/>
	</g>
	<g id="LINE_22_">
		<line class="st6" x1="1133.42" y1="915.74" x2="760.5" y2="1070.21"/>
	</g>
	<g id="LINE_23_">
		<line class="st6" x1="978.68" y1="996.86" x2="761.6" y2="996.86"/>
	</g>
	<g id="LINE_24_">
		<line class="st6" x1="1133.42" y1="249.55" x2="1033.12" y2="7.4"/>
	</g>
	<g id="LINE_25_">
		<line class="st6" x1="1093.98" y1="154.72" x2="946.66" y2="7.4"/>
	</g>
	<g id="LINE_26_">
		<line class="st6" x1="1038.59" y1="210.12" x2="835.88" y2="7.4"/>
	</g>
	<g id="LINE_27_">
		<line class="st6" x1="1133.42" y1="249.55" x2="775.69" y2="101.38"/>
	</g>
	<g id="LINE_28_">
		<line class="st6" x1="947.83" y1="168.44" x2="761.6" y2="168.44"/>
	</g>
	<g id="LINE_29_">
		<line class="st6" x1="943.6" y1="93.49" x2="761.6" y2="93.49"/>
	</g>
	<g id="LINE_30_">
		<line class="st6" x1="944.39" y1="1072.6" x2="911.82" y2="1040.03"/>
	</g>
	<g id="LINE_31_">
		<line class="st6" x1="911.82" y1="125.27" x2="1028.26" y2="8.83"/>
	</g>
	<g id="LINE_32_">
		<line class="st6" x1="1064.99" y1="1072.6" x2="974.12" y2="981.73"/>
	</g>
	<g id="LINE_33_">
		<line class="st6" x1="974.12" y1="981.73" x2="974.12" y2="183.57"/>
	</g>
	<g id="LINE_34_">
		<line class="st6" x1="974.12" y1="183.57" x2="1067.44" y2="90.25"/>
	</g>
	<g id="LINE_35_">
		<line class="st6" x1="1067.44" y1="90.25" x2="1158.35" y2="90.25"/>
	</g>
	<g id="LINE_36_">
		<line class="st6" x1="947.83" y1="147.16" x2="761.6" y2="147.16"/>
	</g>
	<g id="LINE_37_">
		<line class="st6" x1="978.68" y1="1018.14" x2="761.6" y2="1018.14"/>
	</g>
	<g id="LINE_38_">
		<line class="st6" x1="866.64" y1="1035.32" x2="866.64" y2="130.84"/>
	</g>
	<g id="LINE_39_">
		<line class="st6" x1="977.36" y1="938.87" x2="761.6" y2="938.87"/>
	</g>
	<g id="LINE_40_">
		<line class="st6" x1="1087.26" y1="226.42" x2="761.6" y2="226.42"/>
	</g>
	<g id="LINE_41_">
		<line class="st6" x1="846.43" y1="1035.32" x2="846.43" y2="130.84"/>
	</g>
	<g id="LINE_42_">
		<line class="st6" x1="799.25" y1="1035.32" x2="799.25" y2="130.84"/>
	</g>
	<g id="LINE_43_">
		<line class="st6" x1="871.26" y1="1072.6" x2="871.26" y2="7.4"/>
	</g>
	<g id="LINE_44_">
		<line class="st6" x1="1093.44" y1="967.58" x2="1106.53" y2="980.67"/>
	</g>
	<g id="LINE_45_">
		<line class="st6" x1="1106.53" y1="980.67" x2="1158.35" y2="980.67"/>
	</g>
	<g id="LINE_46_">
		<line class="st6" x1="1081.67" y1="1008.15" x2="1091.2" y2="1017.68"/>
	</g>
	<g id="LINE_47_">
		<line class="st6" x1="1091.2" y1="1017.68" x2="1158.35" y2="1017.68"/>
	</g>
</g>
</svg>
