<?xml version="1.0" encoding="utf-8"?>
<!-- Generator: Adobe Illustrator 25.2.3, SVG Export Plug-In . SVG Version: 6.00 Build 0)  -->
<svg version="1.1" id="A-AREA-BNDY" xmlns="http://www.w3.org/2000/svg" xmlns:xlink="http://www.w3.org/1999/xlink" x="0px"
	 y="0px" viewBox="0 0 880.94 1920" style="enable-background:new 0 0 880.94 1920;" xml:space="preserve">
<style type="text/css">
	.st0{opacity:0.4;}
	.st1{fill:#BA9BC9;stroke:#000000;stroke-width:0.2551;stroke-linecap:round;stroke-linejoin:round;stroke-miterlimit:10;}
	.st2{fill:#65C8D0;stroke:#000000;stroke-width:0.2551;stroke-linecap:round;stroke-linejoin:round;stroke-miterlimit:10;}
	.st3{fill:none;stroke:#000000;stroke-width:0.2551;stroke-linecap:round;stroke-linejoin:round;stroke-miterlimit:10;}
	.st4{font-family:'ArialMT';}
	.st5{font-size:6.8265px;}
	
		.st6{fill:none;stroke:#000000;stroke-width:0.2551;stroke-linecap:round;stroke-linejoin:round;stroke-miterlimit:10;stroke-dasharray:0.0771,0.0193,0.0193,0.0193;}
</style>
<g id="_x30_2.45.01" class="st0">
	<polygon class="st1" points="460.85,346.45 591.01,216.29 586.65,211.93 548.11,173.39 549.54,171.95 570.9,150.59 571.98,149.51 
		556.1,133.63 457.16,232.56 459.44,234.84 437.64,256.64 435.36,254.36 403,286.73 346.39,286.73 346.39,327.84 346.39,331.57 
		372.94,331.57 379.25,331.57 396.5,331.57 402.07,331.57 422.11,331.57 422.11,368.29 403.78,368.29 403.78,376.17 403.78,379.86 
		403.78,387.62 422.11,387.62 422.11,421.95 422.11,424.2 438.38,424.2 453.91,424.2 453.91,427.73 460.85,427.73 460.85,424.83 	
		"/>
</g>
<g id="_x30_2.38.02" class="st0">
	<polygon class="st1" points="374.45,1018.34 374.45,1044.38 380.98,1044.38 380.98,1044.65 374.45,1044.65 374.45,1060.76 
		380.98,1060.76 380.98,1061.03 374.45,1061.03 374.45,1080.23 376.49,1080.23 403.98,1080.23 403.98,1105.88 438.38,1105.88 
		459.49,1105.88 459.49,1019.42 457.95,1019.41 457.95,1018.34 437.81,1018.34 393.77,1018.34 	"/>
</g>
<g id="_x30_2.41.03" class="st0">
	<polygon class="st1" points="393.77,698.11 437.81,698.11 437.81,696.67 458.92,696.67 458.92,655.33 457.95,655.33 457.95,654.59 
		437.81,654.59 437.81,655.57 393.78,655.57 393.78,654.59 374.45,654.59 374.45,672.77 374.45,696.67 393.77,696.67 	"/>
</g>
<g id="LWPOLYLINE_1_" class="st0">
	<polygon class="st2" points="435.62,1039.01 436.15,1039.01 436.15,1043.45 436.15,1048.67 435.62,1048.67 435.62,1044.11 
		394.84,1044.11 394.84,1048.67 394.3,1048.67 394.3,1043.45 394.3,1039.01 394.84,1039.01 394.84,1042.8 435.62,1042.8 	"/>
</g>
<g id="LWPOLYLINE_2_" class="st0">
	<rect x="411.97" y="1097.15" class="st2" width="30.88" height="2.28"/>
</g>
<g id="_x30_2.36.03" class="st0">
	<polygon class="st1" points="393.77,1380.13 437.81,1380.13 437.81,1378.68 458.92,1378.68 458.92,1337.34 457.95,1337.34 
		457.95,1336.6 437.81,1336.6 437.81,1337.58 393.77,1337.58 393.77,1336.6 374.45,1336.6 374.45,1354.78 374.45,1378.68 
		393.77,1378.68 	"/>
</g>
<g id="_x30_2.34.06" class="st0">
	<polygon class="st1" points="277.04,1607.22 277.04,1648.47 281.64,1648.47 307.25,1648.47 307.25,1607.22 	"/>
</g>
<g id="_x30_2.34.04" class="st0">
	<polygon class="st1" points="317.59,1515.76 277.04,1515.76 277.04,1605.57 308.07,1605.57 308.91,1605.57 319.87,1605.57 
		319.87,1599.13 321.82,1599.13 321.82,1605.57 331.42,1605.57 331.42,1599.13 333.36,1599.13 333.36,1605.57 344.78,1605.57 
		344.78,1520.15 344.78,1515.76 319.54,1515.76 319.54,1545.96 317.59,1545.96 	"/>
</g>
<g id="_x30_2.34.05" class="st0">
	<polygon class="st1" points="308.9,1648.63 334.37,1648.63 334.37,1644.77 344.78,1644.77 344.78,1606.88 332.39,1606.88 
		320.84,1606.88 308.9,1606.88 	"/>
</g>
<g id="_x30_2.38.05" class="st0">
	<polygon class="st1" points="344.74,1103.49 344.74,1071.21 328.26,1071.21 328.26,1077.15 326.95,1077.15 326.95,1070.55 
		326.95,1054.06 308.96,1054.06 308.96,1081.38 302.96,1081.38 285.74,1081.38 285.74,1080.07 302.38,1080.07 302.38,1050.8 
		291.48,1050.8 242.61,1050.8 242.61,1110.21 286.81,1110.21 286.81,1097.49 308.96,1097.49 308.96,1105.14 344.74,1105.14 	"/>
</g>
<g id="_x30_2.42.04" class="st0">
	<polygon class="st1" points="318.93,564.43 344.74,564.43 344.74,560.03 344.74,536.91 318.93,536.91 	"/>
</g>
<g id="_x30_2.38.04" class="st0">
	<polygon class="st1" points="276.34,976.49 276.34,1025.19 312.86,1025.19 312.86,1020.83 312.86,1009.63 312.86,1002.54 
		314.8,1002.54 314.8,1008.98 326.42,1008.98 326.42,1002.54 328.36,1002.54 328.36,1008.98 344.74,1008.98 344.74,976.69 
		344.74,973.7 314.8,973.7 314.8,975.33 314.8,975.92 314.8,981.76 312.86,981.76 312.86,976.49 	"/>
</g>
<g id="LWPOLYLINE_11_" class="st0">
	<polygon class="st2" points="450.36,285.3 488.09,247.57 474.92,234.4 476.18,233.14 490.61,247.57 450.36,287.82 435.93,273.39 
		437.19,272.13 	"/>
</g>
<g id="_x30_2.33.01" class="st0">
	<polygon class="st1" points="457.95,1703.33 458.92,1703.33 458.92,1662.9 445.6,1662.9 445.6,1659.44 438.58,1659.44 
		396.46,1659.44 396.46,1662.76 383.57,1662.76 383.57,1665.36 383.57,1685.45 373.91,1685.45 373.91,1726.87 383.57,1726.87 
		383.57,1746.07 452.62,1746.07 452.62,1732.33 457.95,1732.33 	"/>
</g>
<g id="_x30_2.43.02" class="st0">
	<polygon class="st1" points="373.91,380.44 373.91,414.4 379.82,414.4 379.82,421.38 395.93,421.38 395.93,414.4 402.64,414.4 
		402.64,421.38 419.02,421.38 419.02,390.71 402.64,390.71 402.64,397.15 400.69,397.15 400.69,390.72 400.69,389.16 400.69,380.44 
			"/>
</g>
<g id="_x30_2.43.01" class="st0">
	<polygon class="st1" points="373.91,341.64 373.91,375.6 400.69,375.6 400.69,366.74 400.69,365.18 400.69,358.75 402.64,358.75 
		402.64,365.2 419.02,365.2 419.02,334.65 402.64,334.65 402.64,341.64 395.93,341.64 395.93,334.65 379.82,334.65 379.82,341.64 	
		"/>
</g>
<g id="_x30_2.42.05" class="st0">
	<polygon class="st1" points="277.04,564.43 317.62,564.43 317.62,536.34 317.62,532.61 344.74,532.61 344.74,481.06 333.36,481.06 
		333.36,487.79 331.42,487.79 331.42,481.06 321.82,481.06 321.82,487.79 319.87,487.79 319.87,481.06 305.66,481.06 304.82,481.06 
		277.04,481.06 	"/>
</g>
<g id="_x30_2.42.06" class="st0">
	<polygon class="st1" points="344.74,436.99 344.74,435.31 334.34,435.31 334.34,427.53 305.64,427.53 305.64,479.75 320.84,479.75 
		332.39,479.75 344.74,479.75 	"/>
</g>
<g id="_x30_2.42.07" class="st0">
	<polygon class="st1" points="277.04,429.84 277.04,479.41 304,479.41 304,427.69 282.55,427.69 282.55,429.84 	"/>
</g>
<g id="_x30_2.33.02" class="st0">
	<polygon class="st1" points="300.44,1729.55 309.03,1729.55 309.03,1751.4 324.47,1751.4 326.47,1751.4 343.47,1751.4 
		343.47,1745.53 371.59,1745.53 371.59,1746.07 381.63,1746.07 381.63,1728.82 371.96,1728.82 371.96,1683.51 381.63,1683.51 
		381.63,1666.25 371.96,1666.25 371.96,1663.9 353.7,1663.9 353.7,1666.25 300.44,1666.25 	"/>
</g>
<g id="_x30_2.43.03" class="st0">
	<polygon class="st1" points="371.96,341.07 371.96,334.65 343.47,334.65 343.47,328.55 326.65,328.55 325.93,328.55 312.42,328.55 
		300.54,328.55 300.54,387.35 300.54,389.3 300.54,390.33 300.54,419.81 343.47,419.81 343.47,413.93 353.7,413.93 353.7,422.66 
		371.96,422.66 371.96,414.97 371.96,379.86 371.96,376.17 	"/>
</g>
<g id="_x30_2.36.02" class="st0">
	<polygon class="st1" points="393.77,1333.68 393.77,1334.66 437.81,1334.66 437.81,1333.68 458.92,1333.68 458.92,1292.22 
		457.95,1292.22 457.95,1291.14 437.81,1291.14 437.81,1292.11 393.77,1292.11 393.77,1291.14 374.45,1291.14 374.45,1333.68 	"/>
</g>
<g id="_x30_2.36.01" class="st0">
	<polygon class="st1" points="437.81,1245.67 393.77,1245.67 393.77,1247.11 374.45,1247.11 374.45,1271.01 374.45,1289.19 
		393.77,1289.19 393.77,1288.22 437.81,1288.22 437.81,1289.19 457.95,1289.19 457.95,1288.45 458.92,1288.45 458.92,1247.11 
		437.81,1247.11 	"/>
</g>
<g id="_x30_2.37.03" class="st0">
	<polygon class="st1" points="393.77,1243.72 437.81,1243.72 437.81,1242.28 458.92,1242.28 458.92,1200.94 457.95,1200.94 
		457.95,1200.2 437.81,1200.2 437.81,1201.18 393.77,1201.18 393.77,1200.2 374.45,1200.2 374.45,1218.38 374.45,1242.28 
		393.77,1242.28 	"/>
</g>
<g id="_x30_2.37.02" class="st0">
	<polygon class="st1" points="393.77,1197.28 393.77,1198.26 437.81,1198.26 437.81,1197.28 458.92,1197.28 458.92,1155.82 
		457.95,1155.82 457.95,1154.73 437.81,1154.73 437.81,1155.71 393.77,1155.71 393.77,1154.73 374.45,1154.73 374.45,1197.28 	"/>
</g>
<g id="_x30_2.37.01" class="st0">
	<polygon class="st1" points="374.45,1152.79 393.77,1152.79 393.77,1151.81 437.81,1151.81 437.81,1152.79 457.95,1152.79 
		457.95,1152.05 458.92,1152.05 458.92,1110.71 437.81,1110.71 437.81,1109.27 403.33,1109.27 393.77,1109.27 393.77,1110.71 
		375.92,1110.71 374.45,1110.71 374.45,1134.61 	"/>
</g>
<g id="_x30_2.35.01" class="st0">
	<polygon class="st1" points="437.81,1382.07 393.77,1382.07 393.77,1383.52 374.45,1383.52 374.45,1407.41 374.45,1425.59 
		393.77,1425.59 393.77,1424.62 437.81,1424.62 437.81,1425.59 457.95,1425.59 457.95,1424.85 458.92,1424.85 458.92,1383.52 
		437.81,1383.52 	"/>
</g>
<g id="_x30_2.35.02" class="st0">
	<polygon class="st1" points="393.77,1470.09 393.77,1471.06 437.81,1471.06 437.81,1470.09 458.92,1470.09 458.92,1428.62 
		457.95,1428.62 457.95,1427.54 437.81,1427.54 437.81,1428.51 393.77,1428.51 393.77,1427.54 374.45,1427.54 374.45,1470.09 	"/>
</g>
<g id="_x30_2.35.03" class="st0">
	<polygon class="st1" points="393.77,1516.53 437.81,1516.53 437.81,1515.08 458.92,1515.08 458.92,1473.74 457.95,1473.74 
		457.95,1473.01 437.81,1473.01 437.81,1473.98 393.77,1473.98 393.77,1473.01 374.45,1473.01 374.45,1491.19 374.45,1515.08 
		393.77,1515.08 	"/>
</g>
<g id="_x30_2.34.01" class="st0">
	<polygon class="st1" points="437.81,1518.47 393.77,1518.47 393.77,1519.92 374.45,1519.92 374.45,1543.81 374.45,1561.99 
		393.77,1561.99 393.77,1561.02 437.81,1561.02 437.81,1561.99 457.95,1561.99 457.95,1561.26 458.92,1561.26 458.92,1519.92 
		437.81,1519.92 	"/>
</g>
<g id="_x30_2.34.02" class="st0">
	<polygon class="st1" points="393.77,1606.49 393.77,1607.46 437.81,1607.46 437.81,1606.49 458.92,1606.49 458.92,1565.03 
		457.95,1565.03 457.95,1563.94 437.81,1563.94 437.81,1564.91 393.77,1564.91 393.77,1563.94 374.45,1563.94 374.45,1606.49 	"/>
</g>
<g id="_x30_2.34.03" class="st0">
	<polygon class="st1" points="393.71,1654.81 395.89,1654.81 438.01,1654.81 438.01,1651.49 458.92,1651.49 458.92,1610.15 
		457.95,1610.15 457.95,1609.41 437.81,1609.41 437.81,1610.38 393.78,1610.38 393.78,1609.41 374.45,1609.41 374.45,1627.59 
		374.45,1651.49 393.71,1651.49 	"/>
</g>
<g id="_x30_2.40.01" class="st0">
	<polygon class="st1" points="437.81,700.06 393.77,700.06 393.77,701.5 374.45,701.5 374.45,725.4 374.45,743.58 393.77,743.58 
		393.77,742.61 437.81,742.61 437.81,743.58 457.95,743.58 457.95,742.84 458.92,742.84 458.92,701.5 437.81,701.5 	"/>
</g>
<g id="_x30_2.40.02" class="st0">
	<polygon class="st1" points="374.45,789.05 393.77,789.05 393.77,788.08 437.81,788.08 437.81,789.05 457.95,789.05 457.95,787.96 
		458.92,787.96 458.92,746.5 437.81,746.5 437.81,745.53 393.77,745.53 393.77,746.5 374.45,746.5 	"/>
</g>
<g id="_x30_2.40.03" class="st0">
	<polygon class="st1" points="393.77,834.52 437.81,834.52 437.81,833.07 458.92,833.07 458.92,791.73 457.95,791.73 457.95,791 
		437.81,791 437.81,791.97 393.77,791.97 393.77,791 374.45,791 374.45,809.18 374.45,833.07 393.77,833.07 	"/>
</g>
<g id="_x30_2.39.01" class="st0">
	<polygon class="st1" points="437.81,836.46 393.77,836.46 393.77,837.91 374.45,837.91 374.45,861.8 374.45,879.98 393.77,879.98 
		393.77,879.01 437.81,879.01 437.81,879.98 457.95,879.98 457.95,879.25 458.92,879.25 458.92,837.91 437.81,837.91 	"/>
</g>
<g id="_x30_2.39.02" class="st0">
	<polygon class="st1" points="374.45,925.45 393.77,925.45 393.77,924.48 437.81,924.48 437.81,925.45 457.95,925.45 457.95,924.35 
		458.92,924.35 458.92,882.9 437.81,882.9 437.81,881.93 393.77,881.93 393.77,882.9 374.45,882.9 	"/>
</g>
<g id="_x30_2.39.03" class="st0">
	<polygon class="st1" points="393.77,970.92 437.81,970.92 437.81,969.48 458.92,969.48 458.92,928.14 457.95,928.14 457.95,927.4 
		437.81,927.4 437.81,928.37 393.77,928.37 393.77,927.4 374.45,927.4 374.45,945.58 374.45,969.48 393.77,969.48 	"/>
</g>
<g id="_x30_2.38.01" class="st0">
	<polygon class="st1" points="437.81,972.87 393.77,972.87 393.77,974.31 374.45,974.31 374.45,998.21 374.45,998.21 374.45,1016.4 
		393.77,1016.4 393.77,1015.42 437.81,1015.42 437.81,1016.4 457.95,1016.4 457.95,1015.65 458.92,1015.65 458.92,974.31 
		437.81,974.31 	"/>
</g>
<g id="_x30_2.41.02" class="st0">
	<polygon class="st1" points="374.45,652.65 393.77,652.65 393.77,651.67 437.81,651.67 437.81,652.65 457.95,652.65 457.95,651.56 
		458.92,651.56 458.92,610.1 437.81,610.1 437.81,609.13 393.77,609.13 393.77,610.1 374.45,610.1 	"/>
</g>
<g id="_x30_2.41.01" class="st0">
	<polygon class="st1" points="437.81,563.66 393.77,563.66 393.77,565.1 374.45,565.1 374.45,589 374.45,607.18 393.77,607.18 
		393.77,606.21 437.81,606.21 437.81,607.18 457.95,607.18 457.95,606.44 458.92,606.44 458.92,565.1 437.81,565.1 	"/>
</g>
<g id="_x30_2.42.03" class="st0">
	<polygon class="st1" points="393.77,561.71 437.81,561.71 437.81,560.27 458.92,560.27 458.92,518.93 457.95,518.93 457.95,518.19 
		437.81,518.19 437.81,519.16 393.77,519.16 393.77,518.19 374.45,518.19 374.45,536.37 374.45,560.27 393.77,560.27 	"/>
</g>
<g id="_x30_2.42.02" class="st0">
	<polygon class="st1" points="374.45,516.24 393.77,516.24 393.77,515.27 437.81,515.27 437.81,516.24 457.95,516.24 457.95,515.16 
		458.92,515.16 458.92,473.7 437.81,473.7 437.81,472.72 393.77,472.72 393.77,473.7 374.45,473.7 	"/>
</g>
<g id="_x30_2.42.01" class="st0">
	<polygon class="st1" points="374.45,470.78 393.77,470.78 393.77,469.8 437.81,469.8 437.81,470.78 457.95,470.78 457.95,470.04 
		458.92,470.04 458.92,428.7 437.81,428.7 437.81,427.29 420.56,427.29 419,427.29 393.77,427.29 393.77,428.7 374.45,428.7 
		374.45,452.6 	"/>
</g>
<g id="_x30_2.43.04" class="st0">
	<rect x="312.99" y="317.6" class="st1" width="12.96" height="9.63"/>
</g>
<g id="_x30_2.38.03A" class="st0">
	<polygon class="st1" points="371.96,427.54 371.96,422.66 353.7,422.66 353.7,437.56 346.69,437.56 346.69,480.4 346.69,533.18 
		346.69,536.34 346.69,559.46 353.7,559.46 353.7,568.06 346.69,568.06 346.69,693.72 353.7,693.72 353.7,702.31 346.69,702.31 
		346.69,830.12 353.7,830.12 353.7,849.45 346.69,849.45 346.69,957.93 353.7,957.93 353.7,977.26 346.69,977.26 346.69,1009.63 
		346.69,1030.7 346.69,1049.49 346.69,1070.55 346.69,1102.92 353.7,1102.92 353.7,1122.26 346.69,1122.26 346.69,1230.73 
		353.7,1230.73 353.7,1250.07 346.69,1250.07 346.69,1374.92 353.7,1374.92 353.7,1387.27 346.76,1387.27 346.76,1514.28 
		353.7,1514.28 353.7,1520.72 346.72,1520.72 346.72,1606.23 346.72,1645.39 346.72,1647.46 349.34,1647.46 350.41,1647.46 
		351.52,1647.46 352.05,1647.46 353.7,1647.46 353.7,1649.65 353.7,1663.9 371.96,1663.9 371.96,1652.06 371.96,1627.59 
		373.14,1627.59 373.14,1608.44 373.14,1607.06 373.14,1562.97 373.14,1543.81 371.96,1543.81 371.96,1519.35 371.96,1515.65 
		371.96,1491.19 373.14,1491.19 373.14,1472.03 373.14,1470.66 373.14,1426.57 373.14,1407.41 371.96,1407.41 371.96,1382.94 
		371.96,1379.25 371.96,1354.78 373.14,1354.78 373.14,1335.63 373.14,1334.25 373.14,1290.16 373.14,1271.01 371.96,1271.01 
		371.96,1246.54 371.96,1242.85 371.96,1218.38 373.14,1218.38 373.14,1199.23 373.14,1197.85 373.14,1153.76 373.14,1134.61 
		371.96,1134.61 371.96,1110.14 371.96,1109.55 371.96,1080.89 373.14,1080.89 373.14,1060.89 373.14,1044.52 373.14,1018.36 
		373.14,1016.38 373.14,998.21 371.96,998.21 371.96,973.74 371.96,970.05 371.96,945.58 373.14,945.58 373.14,926.42 
		373.14,882.33 373.14,880.96 373.14,861.8 371.96,861.8 371.96,837.34 371.96,833.64 371.96,809.18 373.14,809.18 373.14,790.02 
		373.14,745.93 373.14,744.55 373.14,725.4 371.96,725.4 371.96,700.93 371.96,697.24 371.96,672.77 373.14,672.77 373.14,653.62 
		373.14,609.53 373.14,608.15 373.14,589 371.96,589 371.96,564.53 371.96,560.84 371.96,536.37 373.14,536.37 373.14,517.22 
		373.14,473.13 373.14,471.75 373.14,452.6 371.96,452.6 371.96,428.13 	"/>
</g>
<g id="EL06" class="st0">
	<polygon class="st1" points="298.66,1664.64 273.82,1664.64 273.82,1665.69 273.82,1696.6 298.66,1696.6 	"/>
</g>
<g id="EL05" class="st0">
	<rect x="273.82" y="1696.6" class="st1" width="24.84" height="34.91"/>
</g>
<g id="EL04" class="st0">
	<polygon class="st1" points="307.25,1731.33 299.65,1731.33 299.65,1731.5 297.93,1731.5 273.82,1731.5 273.82,1731.67 
		273.82,1758.69 261.4,1758.69 261.4,1762.75 307.25,1762.75 307.25,1758.17 	"/>
</g>
<g id="ST03" class="st0">
	<polygon class="st1" points="268.49,1795.94 343.47,1795.94 343.47,1764.53 326.47,1764.53 308.14,1764.53 260.83,1764.53 
		242.64,1764.53 242.64,1781.81 268.49,1781.81 	"/>
</g>
<g id="ST05" class="st0">
	<polygon class="st1" points="343.47,315.66 343.47,284.24 268.49,284.24 268.49,298.37 244.89,298.37 244.89,309.95 244.45,309.95 
		244.45,315.66 271.62,315.66 298.74,315.66 299.65,315.66 	"/>
</g>
<g id="EL08" class="st0">
	<polygon class="st1" points="244.89,320.89 274.59,320.89 274.59,355.13 298.76,355.13 298.76,348.58 298.76,335.16 298.76,317.44 
		271.62,317.44 244.45,317.44 244.45,318.88 244.89,318.88 244.89,320.59 	"/>
</g>
<g id="EL07" class="st0">
	<rect x="274.59" y="355.13" class="st1" width="24.17" height="31.42"/>
</g>
<g id="ST04" class="st0">
	<polygon class="st1" points="274.39,1048.95 274.39,973.77 239.05,973.77 239.05,976.95 239.05,980.19 239.05,996.78 
		239.05,1048.95 	"/>
</g>
<g id="ST06" class="st0">
	
		<rect x="557.03" y="137.3" transform="matrix(0.7071 -0.7071 0.7071 0.7071 45.4019 454.7227)" class="st1" width="29.13" height="70.52"/>
</g>
<g id="_x30_2.38.06" class="st0">
	<rect x="314.17" y="1010.29" class="st1" width="12.25" height="9.97"/>
</g>
<g id="_x30_2.33.03" class="st0">
	<polygon class="st1" points="309.03,1752.71 309.03,1761.31 321.75,1761.31 321.75,1758.62 323.9,1758.62 323.9,1752.71 	"/>
</g>
<g id="_x30_2.28.11" class="st0">
	<polygon class="st1" points="377.06,1107.32 393.2,1107.32 402.67,1107.32 402.67,1106.3 402.67,1081.54 377.06,1081.54 	"/>
</g>
<g id="_x30_2.38.03B" class="st0">
	<polygon class="st1" points="346.69,1030.7 344.74,1030.7 344.74,1010.29 328.36,1010.29 328.36,1020.83 328.36,1025.93 
		328.36,1030.7 326.42,1030.7 326.42,1026.5 315.13,1026.5 313.06,1026.5 313.06,1030.7 292.45,1030.7 292.45,1049.49 
		302.96,1049.49 328.26,1049.49 328.26,1053.48 328.26,1069.9 344.74,1069.9 344.74,1049.49 346.69,1049.49 	"/>
</g>
<g id="_x30_2.43.05" class="st0">
	<polygon class="st1" points="298.59,419.81 298.59,389.13 268.82,389.13 268.82,413.9 274.22,413.9 274.22,419.6 275.15,419.6 
		275.5,419.6 275.5,419.81 	"/>
</g>
<g id="S-GRID-IDEN">
	<g id="Circles">
		<g id="CIRCLE_23_">
			<circle class="st3" cx="106.43" cy="199.65" r="6.44"/>
		</g>
		<g id="CIRCLE_24_">
			<circle class="st3" cx="81.4" cy="318.88" r="6.44"/>
		</g>
		<g id="CIRCLE_25_">
			<circle class="st3" cx="81.4" cy="188.39" r="6.44"/>
		</g>
		<g id="CIRCLE_26_">
			<circle class="st3" cx="556.7" cy="36.42" r="6.44"/>
		</g>
		<g id="CIRCLE_27_">
			<circle class="st3" cx="785.1" cy="182.75" r="6.44"/>
		</g>
		<g id="CIRCLE_28_">
			<circle class="st3" cx="81.4" cy="281.83" r="6.44"/>
		</g>
		<g id="CIRCLE_29_">
			<circle class="st3" cx="81.4" cy="1798.36" r="6.44"/>
		</g>
		<g id="CIRCLE_30_">
			<circle class="st3" cx="270.73" cy="246.98" r="6.44"/>
		</g>
		<g id="CIRCLE_31_">
			<circle class="st3" cx="81.4" cy="1660.35" r="6.44"/>
		</g>
		<g id="CIRCLE_32_">
			<circle class="st3" cx="81.4" cy="419.84" r="6.44"/>
		</g>
		<g id="CIRCLE_33_">
			<circle class="st3" cx="235.56" cy="246.98" r="6.44"/>
		</g>
		<g id="CIRCLE_34_">
			<circle class="st3" cx="153.4" cy="246.98" r="6.44"/>
		</g>
		<g id="CIRCLE_35_">
			<circle class="st3" cx="278.79" cy="32.04" r="6.44"/>
		</g>
		<g id="CIRCLE_36_">
			<circle class="st3" cx="785.1" cy="1733.11" r="6.44"/>
		</g>
		<g id="CIRCLE_37_">
			<circle class="st3" cx="785.1" cy="1797.55" r="6.44"/>
		</g>
		<g id="CIRCLE">
			<circle class="st3" cx="785.1" cy="1040.09" r="6.44"/>
		</g>
		<g id="CIRCLE_1_">
			<circle class="st3" cx="81.4" cy="971.89" r="6.44"/>
		</g>
		<g id="CIRCLE_2_">
			<circle class="st3" cx="81.4" cy="1108.29" r="6.44"/>
		</g>
		<g id="CIRCLE_3_">
			<circle class="st3" cx="81.4" cy="1244.7" r="6.44"/>
		</g>
		<g id="CIRCLE_4_">
			<circle class="st3" cx="81.4" cy="1381.1" r="6.44"/>
		</g>
		<g id="CIRCLE_5_">
			<circle class="st3" cx="81.4" cy="1517.5" r="6.44"/>
		</g>
		<g id="CIRCLE_6_">
			<circle class="st3" cx="81.4" cy="835.49" r="6.44"/>
		</g>
		<g id="CIRCLE_7_">
			<circle class="st3" cx="81.4" cy="699.09" r="6.44"/>
		</g>
		<g id="CIRCLE_8_">
			<circle class="st3" cx="81.4" cy="562.69" r="6.44"/>
		</g>
		<g id="CIRCLE_9_">
			<circle class="st3" cx="81.4" cy="426.28" r="6.44"/>
		</g>
		<g id="CIRCLE_10_">
			<circle class="st3" cx="785.1" cy="408.29" r="6.44"/>
		</g>
		<g id="CIRCLE_11_">
			<circle class="st3" cx="785.1" cy="1671.89" r="6.44"/>
		</g>
		<g id="CIRCLE_12_">
			<circle class="st3" cx="688.53" cy="1899.63" r="6.44"/>
		</g>
		<g id="CIRCLE_13_">
			<circle class="st3" cx="81.4" cy="1653.9" r="6.44"/>
		</g>
		<g id="CIRCLE_14_">
			<circle class="st3" cx="688.53" cy="32.04" r="6.44"/>
		</g>
		<g id="CIRCLE_15_">
			<circle class="st3" cx="619.66" cy="1899.14" r="6.44"/>
		</g>
		<g id="CIRCLE_16_">
			<circle class="st3" cx="554.04" cy="1897.74" r="6.44"/>
		</g>
		<g id="CIRCLE_17_">
			<circle class="st3" cx="361.13" cy="1897.74" r="6.44"/>
		</g>
		<g id="CIRCLE_18_">
			<circle class="st3" cx="79.97" cy="1891.5" r="6.44"/>
		</g>
		<g id="CIRCLE_19_">
			<circle class="st3" cx="81.4" cy="1761.31" r="6.44"/>
		</g>
		<g id="CIRCLE_20_">
			<circle class="st3" cx="558.14" cy="32.53" r="6.44"/>
		</g>
		<g id="CIRCLE_21_">
			<circle class="st3" cx="405.52" cy="33.93" r="6.44"/>
		</g>
		<g id="CIRCLE_22_">
			<circle class="st3" cx="212.62" cy="33.93" r="6.44"/>
		</g>
	</g>
	<g id="Numbers">
		<g id="MTEXT_37_">
			<text transform="matrix(1 0 0 1 779.9686 1799.8662)" class="st4 st5">A.6</text>
		</g>
		<g id="MTEXT_36_">
			<text transform="matrix(1 0 0 1 779.9686 1735.4238)" class="st4 st5">A.3</text>
		</g>
		<g id="MTEXT_35_">
			<text transform="matrix(1 0 0 1 275.7801 34.3828)" class="st4 st5">D</text>
		</g>
		<g id="MTEXT_34_">
			<text transform="matrix(1 0 0 1 150.3494 249.3154)" class="st4 st5">G</text>
		</g>
		<g id="MTEXT_33_">
			<text transform="matrix(1 0 0 1 232.8875 249.3154)" class="st4 st5">F</text>
		</g>
		<g id="MTEXT_32_">
			<text transform="matrix(1 0 0 1 74.7225 422.1523)" class="st4 st5">43.1</text>
		</g>
		<g id="MTEXT_31_">
			<text transform="matrix(1 0 0 1 74.5252 1662.6602)" class="st4 st5">33.9</text>
		</g>
		<g id="MTEXT_30_">
			<text transform="matrix(1 0 0 1 267.9149 249.3154)" class="st4 st5">E</text>
		</g>
		<g id="MTEXT_29_">
			<text transform="matrix(1 0 0 1 74.5252 1800.6738)" class="st4 st5">32.7</text>
		</g>
		<g id="MTEXT_28_">
			<text transform="matrix(1 0 0 1 74.7225 284.1396)" class="st4 st5">44.3</text>
		</g>
		<g id="MTEXT_27_">
			<text transform="matrix(1 0 0 1 782.2899 185.0576)" class="st4 st5">B</text>
		</g>
		<g id="MTEXT_26_">
			<text transform="matrix(1 0 0 1 553.8602 38.748)" class="st4 st5">C</text>
		</g>
		<g id="MTEXT_25_">
			<text transform="matrix(1 0 0 1 74.7225 190.6982)" class="st4 st5">45.1</text>
		</g>
		<g id="MTEXT_24_">
			<text transform="matrix(1 0 0 1 77.5389 321.1943)" class="st4 st5">44</text>
		</g>
		<g id="MTEXT_23_">
			<text transform="matrix(1 0 0 1 102.5682 201.9707)" class="st4 st5">45</text>
		</g>
		<g id="MTEXT">
			<text transform="matrix(1 0 0 1 778.8611 1042.4043)" class="st4 st5">EW</text>
		</g>
		<g id="MTEXT_1_">
			<text transform="matrix(1 0 0 1 77.3406 974.2061)" class="st4 st5">39</text>
		</g>
		<g id="MTEXT_2_">
			<text transform="matrix(1 0 0 1 77.3406 1110.6084)" class="st4 st5">38</text>
		</g>
		<g id="MTEXT_3_">
			<text transform="matrix(1 0 0 1 77.3406 1247.0098)" class="st4 st5">37</text>
		</g>
		<g id="MTEXT_4_">
			<text transform="matrix(1 0 0 1 77.3406 1383.4121)" class="st4 st5">36</text>
		</g>
		<g id="MTEXT_5_">
			<text transform="matrix(1 0 0 1 77.3406 1519.8145)" class="st4 st5">35</text>
		</g>
		<g id="MTEXT_6_">
			<text transform="matrix(1 0 0 1 77.5389 837.8037)" class="st4 st5">40</text>
		</g>
		<g id="MTEXT_22_">
			<text transform="matrix(1 0 0 1 205.9383 36.2637)" class="st4 st5">45.4</text>
		</g>
		<g id="MTEXT_21_">
			<text transform="matrix(1 0 0 1 398.8397 36.2637)" class="st4 st5">45.6</text>
		</g>
		<g id="MTEXT_20_">
			<text transform="matrix(1 0 0 1 554.2703 34.8721)" class="st4 st5">46</text>
		</g>
		<g id="MTEXT_19_">
			<text transform="matrix(1 0 0 1 77.3406 1763.6201)" class="st4 st5">33</text>
		</g>
		<g id="MTEXT_18_">
			<text transform="matrix(1 0 0 1 75.9178 1893.8008)" class="st4 st5">32</text>
		</g>
		<g id="MTEXT_17_">
			<text transform="matrix(1 0 0 1 354.2567 1900.0342)" class="st4 st5">31.6</text>
		</g>
		<g id="MTEXT_16_">
			<text transform="matrix(1 0 0 1 547.159 1900.0342)" class="st4 st5">31.4</text>
		</g>
		<g id="MTEXT_15_">
			<text transform="matrix(1 0 0 1 615.5916 1901.4248)" class="st4 st5">31</text>
		</g>
		<g id="MTEXT_14_">
			<text transform="matrix(1 0 0 1 684.6483 34.3828)" class="st4 st5">48</text>
		</g>
		<g id="MTEXT_13_">
			<text transform="matrix(1 0 0 1 77.3406 1656.2158)" class="st4 st5">34</text>
		</g>
		<g id="MTEXT_12_">
			<text transform="matrix(1 0 0 1 684.5389 1901.9131)" class="st4 st5">29</text>
		</g>
		<g id="MTEXT_11_">
			<text transform="matrix(1 0 0 1 782.7859 1674.2041)" class="st4 st5">A</text>
		</g>
		<g id="MTEXT_10_">
			<text transform="matrix(1 0 0 1 782.8377 410.6064)" class="st4 st5">A</text>
		</g>
		<g id="MTEXT_9_">
			<text transform="matrix(1 0 0 1 77.5389 428.5967)" class="st4 st5">43</text>
		</g>
		<g id="MTEXT_8_">
			<text transform="matrix(1 0 0 1 77.5389 564.999)" class="st4 st5">42</text>
		</g>
		<g id="MTEXT_7_">
			<text transform="matrix(1 0 0 1 77.5389 701.4014)" class="st4 st5">41</text>
		</g>
	</g>
</g>
<g id="S-GRID">
	<g id="LINE">
		<line class="st6" x1="87.84" y1="1040.09" x2="778.65" y2="1040.09"/>
	</g>
	<g id="LINE_1_">
		<line class="st6" x1="735.25" y1="971.89" x2="87.84" y2="971.89"/>
	</g>
	<g id="LINE_2_">
		<line class="st6" x1="735.25" y1="1108.29" x2="87.84" y2="1108.29"/>
	</g>
	<g id="LINE_3_">
		<line class="st6" x1="735.25" y1="1244.7" x2="87.84" y2="1244.7"/>
	</g>
	<g id="LINE_4_">
		<line class="st6" x1="735.25" y1="1381.1" x2="87.84" y2="1381.1"/>
	</g>
	<g id="LINE_5_">
		<line class="st6" x1="735.25" y1="1517.5" x2="87.84" y2="1517.5"/>
	</g>
	<g id="LINE_6_">
		<line class="st6" x1="735.25" y1="835.49" x2="87.84" y2="835.49"/>
	</g>
	<g id="LINE_7_">
		<line class="st6" x1="735.25" y1="699.09" x2="87.84" y2="699.09"/>
	</g>
	<g id="LINE_8_">
		<line class="st6" x1="735.25" y1="562.69" x2="87.84" y2="562.69"/>
	</g>
	<g id="LINE_9_">
		<line class="st6" x1="654.87" y1="426.28" x2="87.84" y2="426.28"/>
	</g>
	<g id="LINE_10_">
		<line class="st6" x1="778.65" y1="408.29" x2="713.79" y2="408.29"/>
	</g>
	<g id="LINE_11_">
		<line class="st6" x1="713.79" y1="408.29" x2="683.43" y2="438.65"/>
	</g>
	<g id="LINE_12_">
		<line class="st6" x1="683.43" y1="438.65" x2="683.43" y2="1641.54"/>
	</g>
	<g id="LINE_13_">
		<line class="st6" x1="683.43" y1="1641.54" x2="713.79" y2="1671.89"/>
	</g>
	<g id="LINE_14_">
		<line class="st6" x1="713.79" y1="1671.89" x2="778.65" y2="1671.89"/>
	</g>
	<g id="LINE_15_">
		<line class="st6" x1="349.41" y1="1836.47" x2="349.41" y2="243.71"/>
	</g>
	<g id="LINE_16_">
		<line class="st6" x1="688.53" y1="1732.86" x2="688.53" y2="1893.18"/>
	</g>
	<g id="LINE_17_">
		<line class="st6" x1="653.58" y1="1653.9" x2="87.84" y2="1653.9"/>
	</g>
	<g id="LINE_18_">
		<line class="st6" x1="688.53" y1="347.32" x2="688.53" y2="38.49"/>
	</g>
	<g id="LINE_19_">
		<line class="st6" x1="735.25" y1="1620.07" x2="622.13" y2="1893.18"/>
	</g>
	<g id="LINE_20_">
		<line class="st6" x1="666.59" y1="1785.19" x2="558.59" y2="1893.18"/>
	</g>
	<g id="LINE_21_">
		<line class="st6" x1="570.14" y1="1688.74" x2="365.69" y2="1893.18"/>
	</g>
	<g id="LINE_22_">
		<line class="st6" x1="735.25" y1="1620.07" x2="85.93" y2="1889.03"/>
	</g>
	<g id="LINE_23_">
		<line class="st6" x1="465.83" y1="1761.31" x2="87.84" y2="1761.31"/>
	</g>
	<g id="LINE_24_">
		<line class="st6" x1="735.25" y1="460.12" x2="560.61" y2="38.49"/>
	</g>
	<g id="LINE_25_">
		<line class="st6" x1="666.59" y1="295" x2="410.08" y2="38.49"/>
	</g>
	<g id="LINE_26_">
		<line class="st6" x1="570.14" y1="391.45" x2="217.18" y2="38.49"/>
	</g>
	<g id="LINE_27_">
		<line class="st6" x1="735.25" y1="460.12" x2="112.38" y2="202.11"/>
	</g>
	<g id="LINE_28_">
		<line class="st6" x1="412.1" y1="318.88" x2="87.84" y2="318.88"/>
	</g>
	<g id="LINE_29_">
		<line class="st6" x1="404.74" y1="188.39" x2="87.84" y2="188.39"/>
	</g>
	<g id="LINE_30_">
		<line class="st6" x1="406.12" y1="1893.18" x2="349.41" y2="1836.47"/>
	</g>
	<g id="LINE_31_">
		<line class="st6" x1="349.41" y1="243.71" x2="552.15" y2="40.97"/>
	</g>
	<g id="LINE_32_">
		<line class="st6" x1="616.11" y1="1893.18" x2="457.88" y2="1734.96"/>
	</g>
	<g id="LINE_33_">
		<line class="st6" x1="457.88" y1="1734.96" x2="457.88" y2="345.23"/>
	</g>
	<g id="LINE_34_">
		<line class="st6" x1="457.88" y1="345.23" x2="620.36" y2="182.75"/>
	</g>
	<g id="LINE_35_">
		<line class="st6" x1="620.36" y1="182.75" x2="778.65" y2="182.75"/>
	</g>
	<g id="LINE_36_">
		<line class="st6" x1="412.1" y1="281.83" x2="87.84" y2="281.83"/>
	</g>
	<g id="LINE_37_">
		<line class="st6" x1="465.83" y1="1798.36" x2="87.84" y2="1798.36"/>
	</g>
	<g id="LINE_38_">
		<line class="st6" x1="270.73" y1="1828.28" x2="270.73" y2="253.42"/>
	</g>
	<g id="LINE_39_">
		<line class="st6" x1="463.52" y1="1660.35" x2="87.84" y2="1660.35"/>
	</g>
	<g id="LINE_40_">
		<line class="st6" x1="654.87" y1="419.84" x2="87.84" y2="419.84"/>
	</g>
	<g id="LINE_41_">
		<line class="st6" x1="235.56" y1="1828.28" x2="235.56" y2="253.42"/>
	</g>
	<g id="LINE_42_">
		<line class="st6" x1="153.4" y1="1828.28" x2="153.4" y2="253.42"/>
	</g>
	<g id="LINE_43_">
		<line class="st6" x1="278.79" y1="1893.18" x2="278.79" y2="38.49"/>
	</g>
	<g id="LINE_44_">
		<line class="st6" x1="665.65" y1="1710.33" x2="688.43" y2="1733.11"/>
	</g>
	<g id="LINE_45_">
		<line class="st6" x1="688.43" y1="1733.11" x2="778.65" y2="1733.11"/>
	</g>
	<g id="LINE_46_">
		<line class="st6" x1="645.14" y1="1780.96" x2="661.74" y2="1797.55"/>
	</g>
	<g id="LINE_47_">
		<line class="st6" x1="661.74" y1="1797.55" x2="778.65" y2="1797.55"/>
	</g>
</g>
</svg>
