<?xml version="1.0" encoding="utf-8"?>
<!-- Generator: Adobe Illustrator 25.2.3, SVG Export Plug-In . SVG Version: 6.00 Build 0)  -->
<svg version="1.1" id="A-AREA-BNDY" xmlns="http://www.w3.org/2000/svg" xmlns:xlink="http://www.w3.org/1999/xlink" x="0px"
	 y="0px" viewBox="0 0 2294.1 5000" style="enable-background:new 0 0 2294.1 5000;" xml:space="preserve">
<style type="text/css">
	.st0{fill:#BA9BC9;stroke:#000000;stroke-width:0.2551;stroke-linecap:round;stroke-linejoin:round;stroke-miterlimit:10;}
	.st1{fill:none;stroke:#000000;stroke-width:0.2551;stroke-linecap:round;stroke-linejoin:round;stroke-miterlimit:10;}
	.st2{font-family:'ArialMT';}
	.st3{font-size:17.6749px;}
	
		.st4{fill:none;stroke:#000000;stroke-width:0.2551;stroke-linecap:round;stroke-linejoin:round;stroke-miterlimit:10;stroke-dasharray:7.710000e-02,1.930000e-02,1.930000e-02,1.930000e-02;}
</style>
<polygon id="_x30_2.45.01" class="st0" points="1213.7,898.7 1550.7,561.7 1539.5,550.4 1439.7,450.7 1443.4,446.9 1498.7,391.6 
	1501.5,388.8 1460.4,347.7 1204.2,603.9 1210.1,609.8 1153.6,666.2 1147.7,660.3 1064,744.1 917.4,744.1 917.4,850.5 917.4,860.2 
	986.1,860.2 1002.5,860.2 1047.1,860.2 1061.5,860.2 1113.4,860.2 1113.4,955.3 1066,955.3 1066,975.7 1066,985.2 1066,1005.3 
	1113.4,1005.3 1113.4,1094.2 1113.4,1100 1155.6,1100 1195.8,1100 1195.8,1109.2 1213.7,1109.2 1213.7,1101.7 "/>
<polygon id="_x30_2.38.02" class="st0" points="990,2638.4 990,2705.8 1006.9,2705.8 1006.9,2706.5 990,2706.5 990,2748.2 
	1006.9,2748.2 1006.9,2748.9 990,2748.9 990,2798.6 995.3,2798.6 1066.5,2798.6 1066.5,2865 1155.6,2865 1210.2,2865 1210.2,2641.2 
	1206.2,2641.1 1206.2,2638.4 1154.1,2638.4 1040.1,2638.4 "/>
<polygon id="_x30_2.41.03" class="st0" points="1040.1,1809.2 1154.1,1809.2 1154.1,1805.5 1208.7,1805.5 1208.7,1698.5 
	1206.2,1698.5 1206.2,1696.6 1154.1,1696.6 1154.1,1699.1 1040.1,1699.1 1040.1,1696.6 990,1696.6 990,1743.6 990,1805.5 
	1040.1,1805.5 "/>
<polygon id="_x30_2.36.03" class="st0" points="1040.1,3575.1 1154.1,3575.1 1154.1,3571.3 1208.7,3571.3 1208.7,3464.3 
	1206.2,3464.3 1206.2,3462.4 1154.1,3462.4 1154.1,3464.9 1040.1,3464.9 1040.1,3462.4 990,3462.4 990,3509.5 990,3571.3 
	1040.1,3571.3 "/>
<polygon id="_x30_2.34.06" class="st0" points="737.8,4163.1 737.8,4269.9 749.7,4269.9 816,4269.9 816,4163.1 "/>
<polygon id="_x30_2.34.04" class="st0" points="842.8,3926.3 737.8,3926.3 737.8,4158.8 818.2,4158.8 820.3,4158.8 848.7,4158.8 
	848.7,4142.1 853.8,4142.1 853.8,4158.8 878.6,4158.8 878.6,4142.1 883.6,4142.1 883.6,4158.8 913.2,4158.8 913.2,3937.6 
	913.2,3926.3 847.9,3926.3 847.9,4004.4 842.8,4004.4 "/>
<polygon id="_x30_2.34.05" class="st0" points="820.3,4270.3 886.3,4270.3 886.3,4260.3 913.2,4260.3 913.2,4162.2 881.1,4162.2 
	851.2,4162.2 820.3,4162.2 "/>
<polygon id="_x30_2.38.05" class="st0" points="913.1,2858.8 913.1,2775.2 870.4,2775.2 870.4,2790.6 867.1,2790.6 867.1,2773.5 
	867.1,2730.8 820.5,2730.8 820.5,2801.6 804.9,2801.6 760.4,2801.6 760.4,2798.2 803.4,2798.2 803.4,2722.4 775.2,2722.4 
	648.7,2722.4 648.7,2876.2 763.1,2876.2 763.1,2843.3 820.5,2843.3 820.5,2863.1 913.1,2863.1 "/>
<polygon id="_x30_2.42.04" class="st0" points="846.3,1463.1 913.1,1463.1 913.1,1451.7 913.1,1391.9 846.3,1391.9 "/>
<polygon id="_x30_2.38.04" class="st0" points="736,2530 736,2656.1 830.6,2656.1 830.6,2644.8 830.6,2615.8 830.6,2597.5 
	835.6,2597.5 835.6,2614.1 865.7,2614.1 865.7,2597.5 870.7,2597.5 870.7,2614.1 913.1,2614.1 913.1,2530.5 913.1,2522.8 
	835.6,2522.8 835.6,2527 835.6,2528.5 835.6,2543.6 830.6,2543.6 830.6,2530 "/>
<polygon id="_x30_2.33.01" class="st0" points="1206.2,4411.9 1208.7,4411.9 1208.7,4307.2 1174.3,4307.2 1174.3,4298.3 
	1156.1,4298.3 1047,4298.3 1047,4306.9 1013.7,4306.9 1013.7,4313.6 1013.7,4365.6 988.6,4365.6 988.6,4472.9 1013.7,4472.9 
	1013.7,4522.6 1192.4,4522.6 1192.4,4487 1206.2,4487 "/>
<polygon id="_x30_2.43.02" class="st0" points="988.6,986.7 988.6,1074.7 1003.9,1074.7 1003.9,1092.7 1045.7,1092.7 1045.7,1074.7 
	1063,1074.7 1063,1092.7 1105.4,1092.7 1105.4,1013.3 1063,1013.3 1063,1030 1058,1030 1058,1013.4 1058,1009.3 1058,986.7 "/>
<polygon id="_x30_2.43.01" class="st0" points="988.6,886.3 988.6,974.2 1058,974.2 1058,951.3 1058,947.2 1058,930.6 1063,930.6 
	1063,947.3 1105.4,947.3 1105.4,868.2 1063,868.2 1063,886.3 1045.7,886.3 1045.7,868.2 1003.9,868.2 1003.9,886.3 "/>
<polygon id="_x30_2.42.05" class="st0" points="737.8,1463.1 842.9,1463.1 842.9,1390.4 842.9,1380.7 913.1,1380.7 913.1,1247.3 
	883.6,1247.3 883.6,1264.7 878.6,1264.7 878.6,1247.3 853.8,1247.3 853.8,1264.7 848.7,1264.7 848.7,1247.3 811.9,1247.3 
	809.8,1247.3 737.8,1247.3 "/>
<polygon id="_x30_2.42.06" class="st0" points="913.1,1133.2 913.1,1128.8 886.2,1128.8 886.2,1108.7 811.9,1108.7 811.9,1243.9 
	851.2,1243.9 881.1,1243.9 913.1,1243.9 "/>
<polygon id="_x30_2.42.07" class="st0" points="737.8,1114.6 737.8,1243 807.6,1243 807.6,1109.1 752.1,1109.1 752.1,1114.6 "/>
<polygon id="_x30_2.33.02" class="st0" points="798.4,4479.8 820.7,4479.8 820.7,4536.4 860.6,4536.4 865.8,4536.4 909.8,4536.4 
	909.8,4521.2 982.6,4521.2 982.6,4522.6 1008.6,4522.6 1008.6,4477.9 983.6,4477.9 983.6,4360.6 1008.6,4360.6 1008.6,4315.9 
	983.6,4315.9 983.6,4309.8 936.3,4309.8 936.3,4315.9 798.4,4315.9 "/>
<polygon id="_x30_2.43.03" class="st0" points="983.6,884.8 983.6,868.2 909.8,868.2 909.8,852.4 866.3,852.4 864.4,852.4 
	829.4,852.4 798.7,852.4 798.7,1004.6 798.7,1009.7 798.7,1012.3 798.7,1088.7 909.8,1088.7 909.8,1073.4 936.3,1073.4 
	936.3,1096.1 983.6,1096.1 983.6,1076.1 983.6,985.2 983.6,975.7 "/>
<polygon id="_x30_2.36.02" class="st0" points="1040.1,3454.8 1040.1,3457.4 1154.1,3457.4 1154.1,3454.8 1208.7,3454.8 
	1208.7,3347.5 1206.2,3347.5 1206.2,3344.7 1154.1,3344.7 1154.1,3347.2 1040.1,3347.2 1040.1,3344.7 990,3344.7 990,3454.8 "/>
<polygon id="_x30_2.36.01" class="st0" points="1154.1,3227 1040.1,3227 1040.1,3230.7 990,3230.7 990,3292.6 990,3339.6 
	1040.1,3339.6 1040.1,3337.1 1154.1,3337.1 1154.1,3339.6 1206.2,3339.6 1206.2,3337.7 1208.7,3337.7 1208.7,3230.7 1154.1,3230.7 
	"/>
<polygon id="_x30_2.37.03" class="st0" points="1040.1,3221.9 1154.1,3221.9 1154.1,3218.2 1208.7,3218.2 1208.7,3111.1 
	1206.2,3111.1 1206.2,3109.2 1154.1,3109.2 1154.1,3111.8 1040.1,3111.8 1040.1,3109.2 990,3109.2 990,3156.3 990,3218.2 
	1040.1,3218.2 "/>
<polygon id="_x30_2.37.02" class="st0" points="1040.1,3101.7 1040.1,3104.2 1154.1,3104.2 1154.1,3101.7 1208.7,3101.7 
	1208.7,2994.3 1206.2,2994.3 1206.2,2991.5 1154.1,2991.5 1154.1,2994 1040.1,2994 1040.1,2991.5 990,2991.5 990,3101.7 "/>
<polygon id="_x30_2.37.01" class="st0" points="990,2986.5 1040.1,2986.5 1040.1,2983.9 1154.1,2983.9 1154.1,2986.5 1206.2,2986.5 
	1206.2,2984.6 1208.7,2984.6 1208.7,2877.5 1154.1,2877.5 1154.1,2873.8 1064.8,2873.8 1040.1,2873.8 1040.1,2877.5 993.8,2877.5 
	990,2877.5 990,2939.4 "/>
<polygon id="_x30_2.35.01" class="st0" points="1154.1,3580.1 1040.1,3580.1 1040.1,3583.9 990,3583.9 990,3645.7 990,3692.8 
	1040.1,3692.8 1040.1,3690.3 1154.1,3690.3 1154.1,3692.8 1206.2,3692.8 1206.2,3690.9 1208.7,3690.9 1208.7,3583.9 1154.1,3583.9 
	"/>
<polygon id="_x30_2.35.02" class="st0" points="1040.1,3808 1040.1,3810.5 1154.1,3810.5 1154.1,3808 1208.7,3808 1208.7,3700.6 
	1206.2,3700.6 1206.2,3697.8 1154.1,3697.8 1154.1,3700.4 1040.1,3700.4 1040.1,3697.8 990,3697.8 990,3808 "/>
<polygon id="_x30_2.35.03" class="st0" points="1040.1,3928.3 1154.1,3928.3 1154.1,3924.5 1208.7,3924.5 1208.7,3817.5 
	1206.2,3817.5 1206.2,3815.6 1154.1,3815.6 1154.1,3818.1 1040.1,3818.1 1040.1,3815.6 990,3815.6 990,3862.6 990,3924.5 
	1040.1,3924.5 "/>
<polygon id="_x30_2.34.01" class="st0" points="1154.1,3933.3 1040.1,3933.3 1040.1,3937 990,3937 990,3998.9 990,4046 1040.1,4046 
	1040.1,4043.4 1154.1,4043.4 1154.1,4046 1206.2,4046 1206.2,4044.1 1208.7,4044.1 1208.7,3937 1154.1,3937 "/>
<polygon id="_x30_2.34.02" class="st0" points="1040.1,4161.2 1040.1,4163.7 1154.1,4163.7 1154.1,4161.2 1208.7,4161.2 
	1208.7,4053.8 1206.2,4053.8 1206.2,4051 1154.1,4051 1154.1,4053.5 1040.1,4053.5 1040.1,4051 990,4051 990,4161.2 "/>
<polygon id="_x30_2.34.03" class="st0" points="1039.9,4286.3 1045.5,4286.3 1154.6,4286.3 1154.6,4277.7 1208.7,4277.7 
	1208.7,4170.6 1206.2,4170.6 1206.2,4168.7 1154.1,4168.7 1154.1,4171.2 1040.1,4171.2 1040.1,4168.7 990,4168.7 990,4215.8 
	990,4277.7 1039.9,4277.7 "/>
<polygon id="_x30_2.40.01" class="st0" points="1154.1,1814.3 1040.1,1814.3 1040.1,1818 990,1818 990,1879.9 990,1927 1040.1,1927 
	1040.1,1924.5 1154.1,1924.5 1154.1,1927 1206.2,1927 1206.2,1925 1208.7,1925 1208.7,1818 1154.1,1818 "/>
<polygon id="_x30_2.40.02" class="st0" points="990,2044.7 1040.1,2044.7 1040.1,2042.2 1154.1,2042.2 1154.1,2044.7 1206.2,2044.7 
	1206.2,2041.9 1208.7,2041.9 1208.7,1934.5 1154.1,1934.5 1154.1,1932 1040.1,1932 1040.1,1934.5 990,1934.5 "/>
<polygon id="_x30_2.40.03" class="st0" points="1040.1,2162.4 1154.1,2162.4 1154.1,2158.7 1208.7,2158.7 1208.7,2051.6 
	1206.2,2051.6 1206.2,2049.7 1154.1,2049.7 1154.1,2052.3 1040.1,2052.3 1040.1,2049.7 990,2049.7 990,2096.8 990,2158.7 
	1040.1,2158.7 "/>
<polygon id="_x30_2.39.01" class="st0" points="1154.1,2167.4 1040.1,2167.4 1040.1,2171.2 990,2171.2 990,2233.1 990,2280.1 
	1040.1,2280.1 1040.1,2277.6 1154.1,2277.6 1154.1,2280.1 1206.2,2280.1 1206.2,2278.2 1208.7,2278.2 1208.7,2171.2 1154.1,2171.2 
	"/>
<polygon id="_x30_2.39.02" class="st0" points="990,2397.9 1040.1,2397.9 1040.1,2395.3 1154.1,2395.3 1154.1,2397.9 1206.2,2397.9 
	1206.2,2395 1208.7,2395 1208.7,2287.7 1154.1,2287.7 1154.1,2285.2 1040.1,2285.2 1040.1,2287.7 990,2287.7 "/>
<polygon id="_x30_2.39.03" class="st0" points="1040.1,2515.6 1154.1,2515.6 1154.1,2511.9 1208.7,2511.9 1208.7,2404.8 
	1206.2,2404.8 1206.2,2402.9 1154.1,2402.9 1154.1,2405.4 1040.1,2405.4 1040.1,2402.9 990,2402.9 990,2450 990,2511.9 
	1040.1,2511.9 "/>
<polygon id="_x30_2.38.01" class="st0" points="1154.1,2520.6 1040.1,2520.6 1040.1,2524.4 990,2524.4 990,2586.2 990,2586.2 
	990,2633.3 1040.1,2633.3 1040.1,2630.8 1154.1,2630.8 1154.1,2633.3 1206.2,2633.3 1206.2,2631.4 1208.7,2631.4 1208.7,2524.4 
	1154.1,2524.4 "/>
<polygon id="_x30_2.41.02" class="st0" points="990,1691.5 1040.1,1691.5 1040.1,1689 1154.1,1689 1154.1,1691.5 1206.2,1691.5 
	1206.2,1688.7 1208.7,1688.7 1208.7,1581.4 1154.1,1581.4 1154.1,1578.9 1040.1,1578.9 1040.1,1581.4 990,1581.4 "/>
<polygon id="_x30_2.41.01" class="st0" points="1154.1,1461.1 1040.1,1461.1 1040.1,1464.8 990,1464.8 990,1526.7 990,1573.8 
	1040.1,1573.8 1040.1,1571.3 1154.1,1571.3 1154.1,1573.8 1206.2,1573.8 1206.2,1571.9 1208.7,1571.9 1208.7,1464.8 1154.1,1464.8 
	"/>
<polygon id="_x30_2.42.03" class="st0" points="1040.1,1456.1 1154.1,1456.1 1154.1,1452.3 1208.7,1452.3 1208.7,1345.3 
	1206.2,1345.3 1206.2,1343.4 1154.1,1343.4 1154.1,1345.9 1040.1,1345.9 1040.1,1343.4 990,1343.4 990,1390.5 990,1452.3 
	1040.1,1452.3 "/>
<polygon id="_x30_2.42.02" class="st0" points="990,1338.3 1040.1,1338.3 1040.1,1335.8 1154.1,1335.8 1154.1,1338.3 1206.2,1338.3 
	1206.2,1335.5 1208.7,1335.5 1208.7,1228.2 1154.1,1228.2 1154.1,1225.7 1040.1,1225.7 1040.1,1228.2 990,1228.2 "/>
<polygon id="_x30_2.42.01" class="st0" points="990,1220.6 1040.1,1220.6 1040.1,1218.1 1154.1,1218.1 1154.1,1220.6 1206.2,1220.6 
	1206.2,1218.7 1208.7,1218.7 1208.7,1111.7 1154.1,1111.7 1154.1,1108 1109.4,1108 1105.4,1108 1040.1,1108 1040.1,1111.7 
	990,1111.7 990,1173.6 "/>
<rect id="_x30_2.43.04" x="830.9" y="824" class="st0" width="33.6" height="24.9"/>
<polygon id="_x30_2.38.03A" class="st0" points="983.6,1108.7 983.6,1096.1 936.3,1096.1 936.3,1134.6 918.2,1134.6 918.2,1245.5 
	918.2,1382.2 918.2,1390.4 918.2,1450.2 936.3,1450.2 936.3,1472.5 918.2,1472.5 918.2,1797.9 936.3,1797.9 936.3,1820.1 
	918.2,1820.1 918.2,2151 936.3,2151 936.3,2201.1 918.2,2201.1 918.2,2481.9 936.3,2481.9 936.3,2532 918.2,2532 918.2,2615.8 
	918.2,2670.4 918.2,2719 918.2,2773.5 918.2,2857.3 936.3,2857.3 936.3,2907.4 918.2,2907.4 918.2,3188.3 936.3,3188.3 
	936.3,3238.3 918.2,3238.3 918.2,3561.6 936.3,3561.6 936.3,3593.6 918.3,3593.6 918.3,3922.4 936.3,3922.4 936.3,3939.1 
	918.2,3939.1 918.2,4160.5 918.2,4261.9 918.2,4267.2 925,4267.2 927.8,4267.2 930.7,4267.2 932,4267.2 936.3,4267.2 936.3,4272.9 
	936.3,4309.8 983.6,4309.8 983.6,4279.2 983.6,4215.8 986.6,4215.8 986.6,4166.2 986.6,4162.6 986.6,4048.5 986.6,3998.9 
	983.6,3998.9 983.6,3935.6 983.6,3926 983.6,3862.6 986.6,3862.6 986.6,3813 986.6,3809.5 986.6,3695.3 986.6,3645.7 983.6,3645.7 
	983.6,3582.4 983.6,3572.8 983.6,3509.5 986.6,3509.5 986.6,3459.9 986.6,3456.3 986.6,3342.1 986.6,3292.6 983.6,3292.6 
	983.6,3229.2 983.6,3219.7 983.6,3156.3 986.6,3156.3 986.6,3106.7 986.6,3103.1 986.6,2989 986.6,2939.4 983.6,2939.4 983.6,2876 
	983.6,2874.5 983.6,2800.3 986.6,2800.3 986.6,2748.5 986.6,2706.1 986.6,2638.4 986.6,2633.3 986.6,2586.2 983.6,2586.2 
	983.6,2522.9 983.6,2513.3 983.6,2450 986.6,2450 986.6,2400.4 986.6,2286.2 986.6,2282.7 986.6,2233.1 983.6,2233.1 983.6,2169.7 
	983.6,2160.1 983.6,2096.8 986.6,2096.8 986.6,2047.2 986.6,1933 986.6,1929.5 986.6,1879.9 983.6,1879.9 983.6,1816.5 983.6,1807 
	983.6,1743.6 986.6,1743.6 986.6,1694 986.6,1579.9 986.6,1576.3 986.6,1526.7 983.6,1526.7 983.6,1463.4 983.6,1453.8 
	983.6,1390.5 986.6,1390.5 986.6,1340.9 986.6,1226.7 986.6,1223.2 986.6,1173.6 983.6,1173.6 983.6,1110.2 "/>
<polygon id="EL06_1_" class="st0" points="793.8,4311.7 729.5,4311.7 729.5,4314.4 729.5,4394.5 793.8,4394.5 "/>
<rect id="EL05_1_" x="729.5" y="4394.5" class="st0" width="64.3" height="90.4"/>
<polygon id="EL04_1_" class="st0" points="816,4484.4 796.4,4484.4 796.4,4484.8 791.9,4484.8 729.5,4484.8 729.5,4485.3 
	729.5,4555.2 697.3,4555.2 697.3,4565.8 816,4565.8 816,4553.9 "/>
<polygon id="ST03" class="st0" points="715.7,4651.7 909.8,4651.7 909.8,4570.4 865.8,4570.4 818.4,4570.4 695.9,4570.4 
	648.8,4570.4 648.8,4615.1 715.7,4615.1 "/>
<polygon id="ST05" class="st0" points="909.8,819 909.8,737.7 715.7,737.7 715.7,774.2 654.6,774.2 654.6,804.2 653.4,804.2 
	653.4,819 723.8,819 794,819 796.4,819 "/>
<polygon id="EL08_1_" class="st0" points="654.6,832.6 731.5,832.6 731.5,921.2 794.1,921.2 794.1,904.2 794.1,869.5 794.1,823.6 
	723.8,823.6 653.4,823.6 653.4,827.3 654.6,827.3 654.6,831.8 "/>
<rect id="EL07_1_" x="731.5" y="921.2" class="st0" width="62.6" height="81.4"/>
<polygon id="ST04" class="st0" points="731,2717.6 731,2523 639.5,2523 639.5,2531.2 639.5,2539.6 639.5,2582.5 639.5,2717.6 "/>
<rect id="_x30_2.38.06" x="834" y="2617.5" class="st0" width="31.7" height="25.8"/>
<polygon id="_x30_2.33.03" class="st0" points="820.7,4539.8 820.7,4562 853.6,4562 853.6,4555.1 859.2,4555.1 859.2,4539.8 "/>
<polygon id="_x30_2.28.11" class="st0" points="996.8,2868.7 1038.6,2868.7 1063.1,2868.7 1063.1,2866.1 1063.1,2802 996.8,2802 "/>
<polygon id="_x30_2.38.03B" class="st0" points="918.2,2670.4 913.1,2670.4 913.1,2617.5 870.7,2617.5 870.7,2644.8 870.7,2658 
	870.7,2670.4 865.7,2670.4 865.7,2659.5 836.4,2659.5 831.1,2659.5 831.1,2670.4 777.7,2670.4 777.7,2719 804.9,2719 870.4,2719 
	870.4,2729.3 870.4,2771.9 913.1,2771.9 913.1,2719 918.2,2719 "/>
<polygon id="_x30_2.43.05" class="st0" points="793.6,1088.7 793.6,1009.2 716.5,1009.2 716.5,1073.4 730.5,1073.4 730.5,1088.1 
	732.9,1088.1 733.8,1088.1 733.8,1088.7 "/>
<g id="S-GRID-IDEN">
	<g id="Circles">
		<g id="CIRCLE_23_">
			<circle class="st1" cx="296.1" cy="518.6" r="16.7"/>
		</g>
		<g id="CIRCLE_24_">
			<circle class="st1" cx="231.3" cy="827.3" r="16.7"/>
		</g>
		<g id="CIRCLE_25_">
			<circle class="st1" cx="231.3" cy="489.5" r="16.7"/>
		</g>
		<g id="CIRCLE_26_">
			<circle class="st1" cx="1461.9" cy="96" r="16.7"/>
		</g>
		<g id="CIRCLE_27_">
			<circle class="st1" cx="2053.3" cy="474.9" r="16.7"/>
		</g>
		<g id="CIRCLE_28_">
			<circle class="st1" cx="231.3" cy="731.4" r="16.7"/>
		</g>
		<g id="CIRCLE_29_">
			<circle class="st1" cx="231.3" cy="4658" r="16.7"/>
		</g>
		<g id="CIRCLE_30_">
			<circle class="st1" cx="721.5" cy="641.2" r="16.7"/>
		</g>
		<g id="CIRCLE_31_">
			<circle class="st1" cx="231.3" cy="4300.6" r="16.7"/>
		</g>
		<g id="CIRCLE_32_">
			<circle class="st1" cx="231.3" cy="1088.7" r="16.7"/>
		</g>
		<g id="CIRCLE_33_">
			<circle class="st1" cx="630.4" cy="641.2" r="16.7"/>
		</g>
		<g id="CIRCLE_34_">
			<circle class="st1" cx="417.7" cy="641.2" r="16.7"/>
		</g>
		<g id="CIRCLE_35_">
			<circle class="st1" cx="742.4" cy="84.7" r="16.7"/>
		</g>
		<g id="CIRCLE_36_">
			<circle class="st1" cx="2053.3" cy="4489" r="16.7"/>
		</g>
		<g id="CIRCLE_37_">
			<circle class="st1" cx="2053.3" cy="4655.9" r="16.7"/>
		</g>
		<g id="CIRCLE">
			<circle class="st1" cx="2053.3" cy="2694.7" r="16.7"/>
		</g>
		<g id="CIRCLE_1_">
			<circle class="st1" cx="231.3" cy="2518.1" r="16.7"/>
		</g>
		<g id="CIRCLE_2_">
			<circle class="st1" cx="231.3" cy="2871.3" r="16.7"/>
		</g>
		<g id="CIRCLE_3_">
			<circle class="st1" cx="231.3" cy="3224.4" r="16.7"/>
		</g>
		<g id="CIRCLE_4_">
			<circle class="st1" cx="231.3" cy="3577.6" r="16.7"/>
		</g>
		<g id="CIRCLE_5_">
			<circle class="st1" cx="231.3" cy="3930.8" r="16.7"/>
		</g>
		<g id="CIRCLE_6_">
			<circle class="st1" cx="231.3" cy="2164.9" r="16.7"/>
		</g>
		<g id="CIRCLE_7_">
			<circle class="st1" cx="231.3" cy="1811.8" r="16.7"/>
		</g>
		<g id="CIRCLE_8_">
			<circle class="st1" cx="231.3" cy="1458.6" r="16.7"/>
		</g>
		<g id="CIRCLE_9_">
			<circle class="st1" cx="231.3" cy="1105.4" r="16.7"/>
		</g>
		<g id="CIRCLE_10_">
			<circle class="st1" cx="2053.3" cy="1058.8" r="16.7"/>
		</g>
		<g id="CIRCLE_11_">
			<circle class="st1" cx="2053.3" cy="4330.5" r="16.7"/>
		</g>
		<g id="CIRCLE_12_">
			<circle class="st1" cx="1803.2" cy="4920.2" r="16.7"/>
		</g>
		<g id="CIRCLE_13_">
			<circle class="st1" cx="231.3" cy="4283.9" r="16.7"/>
		</g>
		<g id="CIRCLE_14_">
			<circle class="st1" cx="1803.2" cy="84.7" r="16.7"/>
		</g>
		<g id="CIRCLE_15_">
			<circle class="st1" cx="1624.9" cy="4918.9" r="16.7"/>
		</g>
		<g id="CIRCLE_16_">
			<circle class="st1" cx="1455" cy="4915.3" r="16.7"/>
		</g>
		<g id="CIRCLE_17_">
			<circle class="st1" cx="955.5" cy="4915.3" r="16.7"/>
		</g>
		<g id="CIRCLE_18_">
			<circle class="st1" cx="227.6" cy="4899.1" r="16.7"/>
		</g>
		<g id="CIRCLE_19_">
			<circle class="st1" cx="231.3" cy="4562" r="16.7"/>
		</g>
		<g id="CIRCLE_20_">
			<circle class="st1" cx="1465.6" cy="85.9" r="16.7"/>
		</g>
		<g id="CIRCLE_21_">
			<circle class="st1" cx="1070.5" cy="89.6" r="16.7"/>
		</g>
		<g id="CIRCLE_22_">
			<circle class="st1" cx="571" cy="89.6" r="16.7"/>
		</g>
	</g>
	<g id="Numbers">
		<g id="MTEXT_37_">
			<text transform="matrix(1 0 0 1 2039.9867 4661.8506)" class="st2 st3">A.6</text>
		</g>
		<g id="MTEXT_36_">
			<text transform="matrix(1 0 0 1 2039.9867 4495)" class="st2 st3">A.3</text>
		</g>
		<g id="MTEXT_35_">
			<text transform="matrix(1 0 0 1 734.5638 90.7383)" class="st2 st3">D</text>
		</g>
		<g id="MTEXT_34_">
			<text transform="matrix(1 0 0 1 409.8041 647.2324)" class="st2 st3">G</text>
		</g>
		<g id="MTEXT_33_">
			<text transform="matrix(1 0 0 1 623.5082 647.2324)" class="st2 st3">F</text>
		</g>
		<g id="MTEXT_32_">
			<text transform="matrix(1 0 0 1 213.9945 1094.7334)" class="st2 st3">43.1</text>
		</g>
		<g id="MTEXT_31_">
			<text transform="matrix(1 0 0 1 213.4838 4306.6025)" class="st2 st3">33.9</text>
		</g>
		<g id="MTEXT_30_">
			<text transform="matrix(1 0 0 1 714.1996 647.2324)" class="st2 st3">E</text>
		</g>
		<g id="MTEXT_29_">
			<text transform="matrix(1 0 0 1 213.4838 4663.9424)" class="st2 st3">32.7</text>
		</g>
		<g id="MTEXT_28_">
			<text transform="matrix(1 0 0 1 213.9945 737.3975)" class="st2 st3">44.3</text>
		</g>
		<g id="MTEXT_27_">
			<text transform="matrix(1 0 0 1 2045.9965 480.8584)" class="st2 st3">B</text>
		</g>
		<g id="MTEXT_26_">
			<text transform="matrix(1 0 0 1 1454.556 102.04)" class="st2 st3">C</text>
		</g>
		<g id="MTEXT_25_">
			<text transform="matrix(1 0 0 1 213.9945 495.4629)" class="st2 st3">45.1</text>
		</g>
		<g id="MTEXT_24_">
			<text transform="matrix(1 0 0 1 221.2865 833.3379)" class="st2 st3">44</text>
		</g>
		<g id="MTEXT_23_">
			<text transform="matrix(1 0 0 1 286.0912 524.6494)" class="st2 st3">45</text>
		</g>
		<g id="MTEXT">
			<text transform="matrix(1 0 0 1 2037.1195 2700.6631)" class="st2 st3">EW</text>
		</g>
		<g id="MTEXT_1_">
			<text transform="matrix(1 0 0 1 220.7728 2524.0879)" class="st2 st3">39</text>
		</g>
		<g id="MTEXT_2_">
			<text transform="matrix(1 0 0 1 220.7728 2877.2539)" class="st2 st3">38</text>
		</g>
		<g id="MTEXT_3_">
			<text transform="matrix(1 0 0 1 220.7728 3230.418)" class="st2 st3">37</text>
		</g>
		<g id="MTEXT_4_">
			<text transform="matrix(1 0 0 1 220.7728 3583.585)" class="st2 st3">36</text>
		</g>
		<g id="MTEXT_5_">
			<text transform="matrix(1 0 0 1 220.7728 3936.7529)" class="st2 st3">35</text>
		</g>
		<g id="MTEXT_6_">
			<text transform="matrix(1 0 0 1 221.2865 2170.9199)" class="st2 st3">40</text>
		</g>
		<g id="MTEXT_22_">
			<text transform="matrix(1 0 0 1 553.7328 95.6084)" class="st2 st3">45.4</text>
		</g>
		<g id="MTEXT_21_">
			<text transform="matrix(1 0 0 1 1053.184 95.6084)" class="st2 st3">45.6</text>
		</g>
		<g id="MTEXT_20_">
			<text transform="matrix(1 0 0 1 1455.6176 92.0049)" class="st2 st3">46</text>
		</g>
		<g id="MTEXT_19_">
			<text transform="matrix(1 0 0 1 220.7728 4568.002)" class="st2 st3">33</text>
		</g>
		<g id="MTEXT_18_">
			<text transform="matrix(1 0 0 1 217.0892 4905.0625)" class="st2 st3">32</text>
		</g>
		<g id="MTEXT_17_">
			<text transform="matrix(1 0 0 1 937.7523 4921.2012)" class="st2 st3">31.6</text>
		</g>
		<g id="MTEXT_16_">
			<text transform="matrix(1 0 0 1 1437.2074 4921.2012)" class="st2 st3">31.4</text>
		</g>
		<g id="MTEXT_15_">
			<text transform="matrix(1 0 0 1 1614.389 4924.8018)" class="st2 st3">31</text>
		</g>
		<g id="MTEXT_14_">
			<text transform="matrix(1 0 0 1 1793.1869 90.7383)" class="st2 st3">48</text>
		</g>
		<g id="MTEXT_13_">
			<text transform="matrix(1 0 0 1 220.7728 4289.918)" class="st2 st3">34</text>
		</g>
		<g id="MTEXT_12_">
			<text transform="matrix(1 0 0 1 1792.9037 4926.0654)" class="st2 st3">29</text>
		</g>
		<g id="MTEXT_11_">
			<text transform="matrix(1 0 0 1 2047.2816 4336.4912)" class="st2 st3">A</text>
		</g>
		<g id="MTEXT_10_">
			<text transform="matrix(1 0 0 1 2047.4154 1064.8398)" class="st2 st3">A</text>
		</g>
		<g id="MTEXT_9_">
			<text transform="matrix(1 0 0 1 221.2865 1111.4199)" class="st2 st3">43</text>
		</g>
		<g id="MTEXT_8_">
			<text transform="matrix(1 0 0 1 221.2865 1464.5859)" class="st2 st3">42</text>
		</g>
		<g id="MTEXT_7_">
			<text transform="matrix(1 0 0 1 221.2865 1817.7539)" class="st2 st3">41</text>
		</g>
	</g>
</g>
<g id="S-GRID">
	<g id="LINE">
		<line class="st4" x1="248" y1="2694.7" x2="2036.6" y2="2694.7"/>
	</g>
	<g id="LINE_1_">
		<line class="st4" x1="1924.2" y1="2518.1" x2="248" y2="2518.1"/>
	</g>
	<g id="LINE_2_">
		<line class="st4" x1="1924.2" y1="2871.3" x2="248" y2="2871.3"/>
	</g>
	<g id="LINE_3_">
		<line class="st4" x1="1924.2" y1="3224.4" x2="248" y2="3224.4"/>
	</g>
	<g id="LINE_4_">
		<line class="st4" x1="1924.2" y1="3577.6" x2="248" y2="3577.6"/>
	</g>
	<g id="LINE_5_">
		<line class="st4" x1="1924.2" y1="3930.8" x2="248" y2="3930.8"/>
	</g>
	<g id="LINE_6_">
		<line class="st4" x1="1924.2" y1="2164.9" x2="248" y2="2164.9"/>
	</g>
	<g id="LINE_7_">
		<line class="st4" x1="1924.2" y1="1811.8" x2="248" y2="1811.8"/>
	</g>
	<g id="LINE_8_">
		<line class="st4" x1="1924.2" y1="1458.6" x2="248" y2="1458.6"/>
	</g>
	<g id="LINE_9_">
		<line class="st4" x1="1716.1" y1="1105.4" x2="248" y2="1105.4"/>
	</g>
	<g id="LINE_10_">
		<line class="st4" x1="2036.6" y1="1058.8" x2="1868.6" y2="1058.8"/>
	</g>
	<g id="LINE_11_">
		<line class="st4" x1="1868.6" y1="1058.8" x2="1790" y2="1137.5"/>
	</g>
	<g id="LINE_12_">
		<line class="st4" x1="1790" y1="1137.5" x2="1790" y2="4251.9"/>
	</g>
	<g id="LINE_13_">
		<line class="st4" x1="1790" y1="4251.9" x2="1868.6" y2="4330.5"/>
	</g>
	<g id="LINE_14_">
		<line class="st4" x1="1868.6" y1="4330.5" x2="2036.6" y2="4330.5"/>
	</g>
	<g id="LINE_15_">
		<line class="st4" x1="925.2" y1="4756.6" x2="925.2" y2="632.7"/>
	</g>
	<g id="LINE_16_">
		<line class="st4" x1="1803.2" y1="4488.4" x2="1803.2" y2="4903.5"/>
	</g>
	<g id="LINE_17_">
		<line class="st4" x1="1712.7" y1="4283.9" x2="248" y2="4283.9"/>
	</g>
	<g id="LINE_18_">
		<line class="st4" x1="1803.2" y1="901" x2="1803.2" y2="101.4"/>
	</g>
	<g id="LINE_19_">
		<line class="st4" x1="1924.2" y1="4196.3" x2="1631.3" y2="4903.5"/>
	</g>
	<g id="LINE_20_">
		<line class="st4" x1="1746.4" y1="4623.9" x2="1466.8" y2="4903.5"/>
	</g>
	<g id="LINE_21_">
		<line class="st4" x1="1496.7" y1="4374.1" x2="967.4" y2="4903.5"/>
	</g>
	<g id="LINE_22_">
		<line class="st4" x1="1924.2" y1="4196.3" x2="243" y2="4892.7"/>
	</g>
	<g id="LINE_23_">
		<line class="st4" x1="1226.6" y1="4562" x2="248" y2="4562"/>
	</g>
	<g id="LINE_24_">
		<line class="st4" x1="1924.2" y1="1193" x2="1472" y2="101.4"/>
	</g>
	<g id="LINE_25_">
		<line class="st4" x1="1746.4" y1="765.5" x2="1082.3" y2="101.4"/>
	</g>
	<g id="LINE_26_">
		<line class="st4" x1="1496.7" y1="1015.2" x2="582.8" y2="101.4"/>
	</g>
	<g id="LINE_27_">
		<line class="st4" x1="1924.2" y1="1193" x2="311.5" y2="525"/>
	</g>
	<g id="LINE_28_">
		<line class="st4" x1="1087.5" y1="827.3" x2="248" y2="827.3"/>
	</g>
	<g id="LINE_29_">
		<line class="st4" x1="1068.5" y1="489.5" x2="248" y2="489.5"/>
	</g>
	<g id="LINE_30_">
		<line class="st4" x1="1072" y1="4903.5" x2="925.2" y2="4756.6"/>
	</g>
	<g id="LINE_31_">
		<line class="st4" x1="925.2" y1="632.7" x2="1450.1" y2="107.8"/>
	</g>
	<g id="LINE_32_">
		<line class="st4" x1="1615.7" y1="4903.5" x2="1206.1" y2="4493.8"/>
	</g>
	<g id="LINE_33_">
		<line class="st4" x1="1206.1" y1="4493.8" x2="1206.1" y2="895.6"/>
	</g>
	<g id="LINE_34_">
		<line class="st4" x1="1206.1" y1="895.6" x2="1626.7" y2="474.9"/>
	</g>
	<g id="LINE_35_">
		<line class="st4" x1="1626.7" y1="474.9" x2="2036.6" y2="474.9"/>
	</g>
	<g id="LINE_36_">
		<line class="st4" x1="1087.5" y1="731.4" x2="248" y2="731.4"/>
	</g>
	<g id="LINE_37_">
		<line class="st4" x1="1226.6" y1="4658" x2="248" y2="4658"/>
	</g>
	<g id="LINE_38_">
		<line class="st4" x1="721.5" y1="4735.4" x2="721.5" y2="657.9"/>
	</g>
	<g id="LINE_39_">
		<line class="st4" x1="1220.7" y1="4300.6" x2="248" y2="4300.6"/>
	</g>
	<g id="LINE_40_">
		<line class="st4" x1="1716.1" y1="1088.7" x2="248" y2="1088.7"/>
	</g>
	<g id="LINE_41_">
		<line class="st4" x1="630.4" y1="4735.4" x2="630.4" y2="657.9"/>
	</g>
	<g id="LINE_42_">
		<line class="st4" x1="417.7" y1="4735.4" x2="417.7" y2="657.9"/>
	</g>
	<g id="LINE_43_">
		<line class="st4" x1="742.4" y1="4903.5" x2="742.4" y2="101.4"/>
	</g>
	<g id="LINE_44_">
		<line class="st4" x1="1744" y1="4430" x2="1803" y2="4489"/>
	</g>
	<g id="LINE_45_">
		<line class="st4" x1="1803" y1="4489" x2="2036.6" y2="4489"/>
	</g>
	<g id="LINE_46_">
		<line class="st4" x1="1690.9" y1="4612.9" x2="1733.9" y2="4655.9"/>
	</g>
	<g id="LINE_47_">
		<line class="st4" x1="1733.9" y1="4655.9" x2="2036.6" y2="4655.9"/>
	</g>
</g>
</svg>
