<?xml version="1.0" encoding="utf-8"?>
<!-- Generator: Adobe Illustrator 25.2.3, SVG Export Plug-In . SVG Version: 6.00 Build 0)  -->
<svg version="1.1" id="A-AREA-BNDY" xmlns="http://www.w3.org/2000/svg" xmlns:xlink="http://www.w3.org/1999/xlink" x="0px"
	 y="0px" viewBox="0 0 2294.11 5000" style="enable-background:new 0 0 2294.11 5000;" xml:space="preserve">
<style type="text/css">
	.st0{opacity:0.4;}
	.st1{fill:#BA9BC9;stroke:#000000;stroke-width:0.2551;stroke-linecap:round;stroke-linejoin:round;stroke-miterlimit:10;}
	.st2{fill:#65C8D0;stroke:#000000;stroke-width:0.2551;stroke-linecap:round;stroke-linejoin:round;stroke-miterlimit:10;}
	.st3{fill:#BA9BC9;stroke:#000000;stroke-width:0.2551;stroke-linecap:round;stroke-linejoin:round;stroke-miterlimit:9.9999;}
	.st4{fill:none;stroke:#000000;stroke-width:0.2551;stroke-linecap:round;stroke-linejoin:round;stroke-miterlimit:10;}
	.st5{font-family:'ArialMT';}
	.st6{font-size:17.5691px;}
	
		.st7{fill:none;stroke:#000000;stroke-width:0.2551;stroke-linecap:round;stroke-linejoin:round;stroke-miterlimit:10;stroke-dasharray:0.0771,0.0193,0.0193,0.0193;}
</style>
<g id="_x30_2.45.01" class="st0">
	<polygon class="st1" points="1214.71,904.63 1549.7,569.64 1538.48,558.42 1439.29,459.23 1442.97,455.52 1497.94,400.55 
		1500.72,397.77 1459.85,356.9 1205.22,611.51 1211.08,617.38 1154.98,673.49 1149.11,667.62 1065.83,750.93 920.13,750.93 
		920.13,856.73 920.13,866.33 988.46,866.33 1004.7,866.33 1049.1,866.33 1063.43,866.33 1115.01,866.33 1115.01,960.84 
		1067.83,960.84 1067.83,981.12 1067.83,990.62 1067.83,1010.59 1115.01,1010.59 1115.01,1098.94 1115.01,1104.73 1156.88,1104.73 
		1196.85,1104.73 1196.85,1113.82 1214.71,1113.82 1214.71,1106.35 	"/>
</g>
<g id="_x30_2.38.02" class="st0">
	<polygon class="st1" points="992.35,2633.85 992.35,2700.87 1009.15,2700.87 1009.15,2701.56 992.35,2701.56 992.35,2743.03 
		1009.15,2743.03 1009.15,2743.72 992.35,2743.72 992.35,2793.13 997.6,2793.13 1068.35,2793.13 1068.35,2859.15 1156.88,2859.15 
		1211.21,2859.15 1211.21,2636.63 1207.25,2636.6 1207.25,2633.85 1155.42,2633.85 1042.07,2633.85 	"/>
</g>
<g id="_x30_2.41.03" class="st0">
	<polygon class="st1" points="1042.07,1809.68 1155.42,1809.68 1155.42,1805.98 1209.75,1805.98 1209.75,1699.58 1207.25,1699.58 
		1207.25,1697.68 1155.42,1697.68 1155.42,1700.2 1042.1,1700.2 1042.1,1697.68 992.35,1697.68 992.35,1744.47 992.35,1805.98 
		1042.07,1805.98 	"/>
</g>
<g id="LWPOLYLINE_1_" class="st0">
	<polygon class="st2" points="1149.78,2687.05 1151.14,2687.05 1151.14,2698.47 1151.14,2711.91 1149.78,2711.91 1149.78,2700.17 
		1044.82,2700.17 1044.82,2711.91 1043.43,2711.91 1043.43,2698.47 1043.43,2687.05 1044.82,2687.05 1044.82,2696.8 1149.78,2696.8 
			"/>
</g>
<g id="LWPOLYLINE_2_" class="st0">
	<rect x="1088.91" y="2836.68" class="st2" width="79.47" height="5.87"/>
</g>
<g id="_x30_2.36.03" class="st0">
	<polygon class="st1" points="1042.07,3564.98 1155.42,3564.98 1155.42,3561.25 1209.75,3561.25 1209.75,3454.85 1207.25,3454.85 
		1207.25,3452.95 1155.42,3452.95 1155.42,3455.47 1042.07,3455.47 1042.07,3452.95 992.35,3452.95 992.35,3499.73 992.35,3561.25 
		1042.07,3561.25 	"/>
</g>
<g id="_x30_2.34.06" class="st0">
	<polygon class="st1" points="741.65,4149.43 741.65,4255.59 753.49,4255.59 819.4,4255.59 819.4,4149.43 	"/>
</g>
<g id="_x30_2.34.04" class="st0">
	<polygon class="st1" points="846.01,3914.04 741.65,3914.04 741.65,4145.18 821.51,4145.18 823.67,4145.18 851.88,4145.18 
		851.88,4128.61 856.9,4128.61 856.9,4145.18 881.6,4145.18 881.6,4128.61 886.6,4128.61 886.6,4145.18 915.99,4145.18 
		915.99,3925.34 915.99,3914.04 851.03,3914.04 851.03,3991.77 846.01,3991.77 	"/>
</g>
<g id="_x30_2.34.05" class="st0">
	<polygon class="st1" points="823.64,4256.01 889.2,4256.01 889.2,4246.07 915.99,4246.07 915.99,4148.56 884.1,4148.56 
		854.37,4148.56 823.64,4148.56 	"/>
</g>
<g id="_x30_2.38.05" class="st0">
	<polygon class="st1" points="915.88,2853 915.88,2769.92 873.47,2769.92 873.47,2785.21 870.1,2785.21 870.1,2768.22 
		870.1,2725.78 823.8,2725.78 823.8,2796.09 808.36,2796.09 764.04,2796.09 764.04,2792.72 806.86,2792.72 806.86,2717.39 
		778.81,2717.39 653.04,2717.39 653.04,2870.29 766.79,2870.29 766.79,2837.56 823.8,2837.56 823.8,2857.24 915.88,2857.24 	"/>
</g>
<g id="_x30_2.42.04" class="st0">
	<polygon class="st1" points="849.46,1465.64 915.88,1465.64 915.88,1454.31 915.88,1394.81 849.46,1394.81 	"/>
</g>
<g id="_x30_2.38.04" class="st0">
	<polygon class="st1" points="739.85,2526.14 739.85,2651.48 833.84,2651.48 833.84,2640.26 833.84,2611.43 833.84,2593.19 
		838.83,2593.19 838.83,2609.76 868.73,2609.76 868.73,2593.19 873.73,2593.19 873.73,2609.76 915.88,2609.76 915.88,2526.66 
		915.88,2518.96 838.83,2518.96 838.83,2523.16 838.83,2524.68 838.83,2539.71 833.84,2539.71 833.84,2526.14 	"/>
</g>
<g id="LWPOLYLINE_11_" class="st0">
	<polygon class="st2" points="1187.71,747.25 1284.82,650.14 1250.92,616.25 1254.17,613.01 1291.3,650.14 1187.71,753.73 
		1150.58,716.6 1153.82,713.35 	"/>
</g>
<g id="_x30_2.33.01" class="st0">
	<polygon class="st1" points="1207.25,4396.79 1209.75,4396.79 1209.75,4292.73 1175.46,4292.73 1175.46,4283.83 1157.4,4283.83 
		1048.99,4283.83 1048.99,4292.37 1015.82,4292.37 1015.82,4299.06 1015.82,4350.77 990.96,4350.77 990.96,4457.37 1015.82,4457.37 
		1015.82,4506.78 1193.53,4506.78 1193.53,4471.42 1207.25,4471.42 	"/>
</g>
<g id="_x30_2.43.02" class="st0">
	<polygon class="st1" points="990.96,992.11 990.96,1079.51 1006.17,1079.51 1006.17,1097.47 1047.63,1097.47 1047.63,1079.51 
		1064.9,1079.51 1064.9,1097.47 1107.06,1097.47 1107.06,1018.54 1064.9,1018.54 1064.9,1035.11 1059.88,1035.11 1059.88,1018.57 
		1059.88,1014.55 1059.88,992.11 	"/>
</g>
<g id="_x30_2.43.01" class="st0">
	<polygon class="st1" points="990.96,892.25 990.96,979.65 1059.88,979.65 1059.88,956.85 1059.88,952.83 1059.88,936.29 
		1064.9,936.29 1064.9,952.89 1107.06,952.89 1107.06,874.26 1064.9,874.26 1064.9,892.25 1047.63,892.25 1047.63,874.26 
		1006.17,874.26 1006.17,892.25 	"/>
</g>
<g id="_x30_2.42.05" class="st0">
	<polygon class="st1" points="741.65,1465.64 846.09,1465.64 846.09,1393.34 846.09,1383.74 915.88,1383.74 915.88,1251.07 
		886.6,1251.07 886.6,1268.39 881.6,1268.39 881.6,1251.07 856.9,1251.07 856.9,1268.39 851.88,1268.39 851.88,1251.07 
		815.31,1251.07 813.14,1251.07 741.65,1251.07 	"/>
</g>
<g id="_x30_2.42.06" class="st0">
	<polygon class="st1" points="915.88,1137.65 915.88,1133.33 889.12,1133.33 889.12,1113.3 815.25,1113.3 815.25,1247.7 
		854.37,1247.7 884.1,1247.7 915.88,1247.7 	"/>
</g>
<g id="_x30_2.42.07" class="st0">
	<polygon class="st1" points="741.65,1119.25 741.65,1246.82 811.03,1246.82 811.03,1113.71 755.83,1113.71 755.83,1119.25 	"/>
</g>
<g id="_x30_2.33.02" class="st0">
	<polygon class="st1" points="801.87,4464.27 823.98,4464.27 823.98,4520.5 863.72,4520.5 868.86,4520.5 912.62,4520.5 
		912.62,4505.4 984.99,4505.4 984.99,4506.78 1010.83,4506.78 1010.83,4462.39 985.94,4462.39 985.94,4345.78 1010.83,4345.78 
		1010.83,4301.35 985.94,4301.35 985.94,4295.31 938.94,4295.31 938.94,4301.35 801.87,4301.35 	"/>
</g>
<g id="_x30_2.43.03" class="st0">
	<polygon class="st1" points="985.94,890.78 985.94,874.26 912.62,874.26 912.62,858.56 869.33,858.56 867.47,858.56 832.7,858.56 
		802.13,858.56 802.13,1009.89 802.13,1014.91 802.13,1017.56 802.13,1093.43 912.62,1093.43 912.62,1078.3 938.94,1078.3 
		938.94,1100.77 985.94,1100.77 985.94,1080.98 985.94,990.62 985.94,981.12 	"/>
</g>
<g id="_x30_2.36.02" class="st0">
	<polygon class="st1" points="1042.07,3445.43 1042.07,3447.95 1155.42,3447.95 1155.42,3445.43 1209.75,3445.43 1209.75,3338.73 
		1207.25,3338.73 1207.25,3335.95 1155.42,3335.95 1155.42,3338.44 1042.07,3338.44 1042.07,3335.95 992.35,3335.95 992.35,3445.43 
			"/>
</g>
<g id="_x30_2.36.01" class="st0">
	<polygon class="st1" points="1155.42,3218.92 1042.07,3218.92 1042.07,3222.63 992.35,3222.63 992.35,3284.14 992.35,3330.93 
		1042.07,3330.93 1042.07,3328.43 1155.42,3328.43 1155.42,3330.93 1207.25,3330.93 1207.25,3329.02 1209.75,3329.02 
		1209.75,3222.63 1155.42,3222.63 	"/>
</g>
<g id="_x30_2.37.03" class="st0">
	<polygon class="st1" points="1042.07,3213.9 1155.42,3213.9 1155.42,3210.2 1209.75,3210.2 1209.75,3103.8 1207.25,3103.8 
		1207.25,3101.9 1155.42,3101.9 1155.42,3104.42 1042.07,3104.42 1042.07,3101.9 992.35,3101.9 992.35,3148.69 992.35,3210.2 
		1042.07,3210.2 	"/>
</g>
<g id="_x30_2.37.02" class="st0">
	<polygon class="st1" points="1042.07,3094.38 1042.07,3096.9 1155.42,3096.9 1155.42,3094.38 1209.75,3094.38 1209.75,2987.68 
		1207.25,2987.68 1207.25,2984.87 1155.42,2984.87 1155.42,2987.39 1042.07,2987.39 1042.07,2984.87 992.35,2984.87 992.35,3094.38 
			"/>
</g>
<g id="_x30_2.37.01" class="st0">
	<polygon class="st1" points="992.35,2979.88 1042.07,2979.88 1042.07,2977.36 1155.42,2977.36 1155.42,2979.88 1207.25,2979.88 
		1207.25,2977.98 1209.75,2977.98 1209.75,2871.58 1155.42,2871.58 1155.42,2867.87 1066.68,2867.87 1042.07,2867.87 
		1042.07,2871.58 996.13,2871.58 992.35,2871.58 992.35,2933.09 	"/>
</g>
<g id="_x30_2.35.01" class="st0">
	<polygon class="st1" points="1155.42,3569.97 1042.07,3569.97 1042.07,3573.7 992.35,3573.7 992.35,3635.19 992.35,3681.98 
		1042.07,3681.98 1042.07,3679.48 1155.42,3679.48 1155.42,3681.98 1207.25,3681.98 1207.25,3680.07 1209.75,3680.07 
		1209.75,3573.7 1155.42,3573.7 	"/>
</g>
<g id="_x30_2.35.02" class="st0">
	<polygon class="st1" points="1042.07,3796.5 1042.07,3799 1155.42,3799 1155.42,3796.5 1209.75,3796.5 1209.75,3689.77 
		1207.25,3689.77 1207.25,3686.99 1155.42,3686.99 1155.42,3689.49 1042.07,3689.49 1042.07,3686.99 992.35,3686.99 992.35,3796.5 	
		"/>
</g>
<g id="_x30_2.35.03" class="st0">
	<polygon class="st1" points="1042.07,3916.03 1155.42,3916.03 1155.42,3912.29 1209.75,3912.29 1209.75,3805.9 1207.25,3805.9 
		1207.25,3804.02 1155.42,3804.02 1155.42,3806.52 1042.07,3806.52 1042.07,3804.02 992.35,3804.02 992.35,3850.81 992.35,3912.29 
		1042.07,3912.29 	"/>
</g>
<g id="_x30_2.34.01" class="st0">
	<polygon class="st1" points="1155.42,3921.02 1042.07,3921.02 1042.07,3924.75 992.35,3924.75 992.35,3986.24 992.35,4033.02 
		1042.07,4033.02 1042.07,4030.53 1155.42,4030.53 1155.42,4033.02 1207.25,4033.02 1207.25,4031.15 1209.75,4031.15 
		1209.75,3924.75 1155.42,3924.75 	"/>
</g>
<g id="_x30_2.34.02" class="st0">
	<polygon class="st1" points="1042.07,4147.55 1042.07,4150.05 1155.42,4150.05 1155.42,4147.55 1209.75,4147.55 1209.75,4040.85 
		1207.25,4040.85 1207.25,4038.04 1155.42,4038.04 1155.42,4040.54 1042.07,4040.54 1042.07,4038.04 992.35,4038.04 992.35,4147.55 
			"/>
</g>
<g id="_x30_2.34.03" class="st0">
	<polygon class="st1" points="1041.92,4271.91 1047.53,4271.91 1155.93,4271.91 1155.93,4263.37 1209.75,4263.37 1209.75,4156.97 
		1207.25,4156.97 1207.25,4155.07 1155.42,4155.07 1155.42,4157.56 1042.1,4157.56 1042.1,4155.07 992.35,4155.07 992.35,4201.86 
		992.35,4263.37 1041.92,4263.37 	"/>
</g>
<g id="_x30_2.40.01" class="st0">
	<polygon class="st1" points="1155.42,1814.7 1042.07,1814.7 1042.07,1818.41 992.35,1818.41 992.35,1879.92 992.35,1926.71 
		1042.07,1926.71 1042.07,1924.21 1155.42,1924.21 1155.42,1926.71 1207.25,1926.71 1207.25,1924.8 1209.75,1924.8 1209.75,1818.41 
		1155.42,1818.41 	"/>
</g>
<g id="_x30_2.40.02" class="st0">
	<polygon class="st1" points="992.35,2043.73 1042.07,2043.73 1042.07,2041.24 1155.42,2041.24 1155.42,2043.73 1207.25,2043.73 
		1207.25,2040.93 1209.75,2040.93 1209.75,1934.22 1155.42,1934.22 1155.42,1931.73 1042.07,1931.73 1042.07,1934.22 
		992.35,1934.22 	"/>
</g>
<g id="_x30_2.40.03" class="st0">
	<polygon class="st1" points="1042.07,2160.76 1155.42,2160.76 1155.42,2157.03 1209.75,2157.03 1209.75,2050.63 1207.25,2050.63 
		1207.25,2048.75 1155.42,2048.75 1155.42,2051.25 1042.07,2051.25 1042.07,2048.75 992.35,2048.75 992.35,2095.54 992.35,2157.03 
		1042.07,2157.03 	"/>
</g>
<g id="_x30_2.39.01" class="st0">
	<polygon class="st1" points="1155.42,2165.75 1042.07,2165.75 1042.07,2169.48 992.35,2169.48 992.35,2230.97 992.35,2277.76 
		1042.07,2277.76 1042.07,2275.26 1155.42,2275.26 1155.42,2277.76 1207.25,2277.76 1207.25,2275.88 1209.75,2275.88 
		1209.75,2169.48 1155.42,2169.48 	"/>
</g>
<g id="_x30_2.39.02" class="st0">
	<polygon class="st1" points="992.35,2394.78 1042.07,2394.78 1042.07,2392.29 1155.42,2392.29 1155.42,2394.78 1207.25,2394.78 
		1207.25,2391.95 1209.75,2391.95 1209.75,2285.27 1155.42,2285.27 1155.42,2282.78 1042.07,2282.78 1042.07,2285.27 
		992.35,2285.27 	"/>
</g>
<g id="_x30_2.39.03" class="st0">
	<polygon class="st1" points="1042.07,2511.81 1155.42,2511.81 1155.42,2508.1 1209.75,2508.1 1209.75,2401.71 1207.25,2401.71 
		1207.25,2399.8 1155.42,2399.8 1155.42,2402.3 1042.07,2402.3 1042.07,2399.8 992.35,2399.8 992.35,2446.59 992.35,2508.1 
		1042.07,2508.1 	"/>
</g>
<g id="_x30_2.38.01" class="st0">
	<polygon class="st1" points="1155.42,2516.83 1042.07,2516.83 1042.07,2520.53 992.35,2520.53 992.35,2582.04 992.35,2582.04 
		992.35,2628.86 1042.07,2628.86 1042.07,2626.33 1155.42,2626.33 1155.42,2628.86 1207.25,2628.86 1207.25,2626.93 
		1209.75,2626.93 1209.75,2520.53 1155.42,2520.53 	"/>
</g>
<g id="_x30_2.41.02" class="st0">
	<polygon class="st1" points="992.35,1692.69 1042.07,1692.69 1042.07,1690.16 1155.42,1690.16 1155.42,1692.69 1207.25,1692.69 
		1207.25,1689.88 1209.75,1689.88 1209.75,1583.18 1155.42,1583.18 1155.42,1580.68 1042.07,1580.68 1042.07,1583.18 
		992.35,1583.18 	"/>
</g>
<g id="_x30_2.41.01" class="st0">
	<polygon class="st1" points="1155.42,1463.66 1042.07,1463.66 1042.07,1467.36 992.35,1467.36 992.35,1528.87 992.35,1575.66 
		1042.07,1575.66 1042.07,1573.16 1155.42,1573.16 1155.42,1575.66 1207.25,1575.66 1207.25,1573.76 1209.75,1573.76 
		1209.75,1467.36 1155.42,1467.36 	"/>
</g>
<g id="_x30_2.42.03" class="st0">
	<polygon class="st1" points="1042.07,1458.64 1155.42,1458.64 1155.42,1454.93 1209.75,1454.93 1209.75,1348.54 1207.25,1348.54 
		1207.25,1346.63 1155.42,1346.63 1155.42,1349.13 1042.07,1349.13 1042.07,1346.63 992.35,1346.63 992.35,1393.42 992.35,1454.93 
		1042.07,1454.93 	"/>
</g>
<g id="_x30_2.42.02" class="st0">
	<polygon class="st1" points="992.35,1341.61 1042.07,1341.61 1042.07,1339.12 1155.42,1339.12 1155.42,1341.61 1207.25,1341.61 
		1207.25,1338.83 1209.75,1338.83 1209.75,1232.13 1155.42,1232.13 1155.42,1229.61 1042.07,1229.61 1042.07,1232.13 
		992.35,1232.13 	"/>
</g>
<g id="_x30_2.42.01" class="st0">
	<polygon class="st1" points="992.35,1224.61 1042.07,1224.61 1042.07,1222.09 1155.42,1222.09 1155.42,1224.61 1207.25,1224.61 
		1207.25,1222.71 1209.75,1222.71 1209.75,1116.31 1155.42,1116.31 1155.42,1112.68 1111.02,1112.68 1107,1112.68 1042.07,1112.68 
		1042.07,1116.31 992.35,1116.31 992.35,1177.82 	"/>
</g>
<g id="_x30_2.43.04" class="st0">
	<rect x="834.17" y="830.38" class="st1" width="33.35" height="24.78"/>
</g>
<g id="_x30_2.38.03A" class="st0">
	<polygon class="st1" points="985.94,1113.33 985.94,1100.77 938.94,1100.77 938.94,1139.12 920.9,1139.12 920.9,1249.37 
		920.9,1385.21 920.9,1393.34 920.9,1452.85 938.94,1452.85 938.94,1474.98 920.9,1474.98 920.9,1798.39 938.94,1798.39 
		938.94,1820.49 920.9,1820.49 920.9,2149.43 938.94,2149.43 938.94,2199.18 920.9,2199.18 920.9,2478.38 938.94,2478.38 
		938.94,2528.12 920.9,2528.12 920.9,2611.43 920.9,2665.66 920.9,2714.02 920.9,2768.22 920.9,2851.53 938.94,2851.53 
		938.94,2901.31 920.9,2901.31 920.9,3180.47 938.94,3180.47 938.94,3230.25 920.9,3230.25 920.9,3551.57 938.94,3551.57 
		938.94,3583.35 921.08,3583.35 921.08,3910.23 938.94,3910.23 938.94,3926.81 920.98,3926.81 920.98,4146.88 920.98,4247.67 
		920.98,4253 927.72,4253 930.48,4253 933.33,4253 934.7,4253 938.94,4253 938.94,4258.63 938.94,4295.31 985.94,4295.31 
		985.94,4264.83 985.94,4201.86 988.98,4201.86 988.98,4152.57 988.98,4149.02 988.98,4035.55 988.98,3986.24 985.94,3986.24 
		985.94,3923.28 985.94,3913.76 985.94,3850.81 988.98,3850.81 988.98,3801.5 988.98,3797.97 988.98,3684.5 988.98,3635.19 
		985.94,3635.19 985.94,3572.21 985.94,3562.71 985.94,3499.73 988.98,3499.73 988.98,3450.45 988.98,3446.9 988.98,3333.42 
		988.98,3284.14 985.94,3284.14 985.94,3221.16 985.94,3211.66 985.94,3148.69 988.98,3148.69 988.98,3099.4 988.98,3095.85 
		988.98,2982.38 988.98,2933.09 985.94,2933.09 985.94,2870.11 985.94,2868.59 985.94,2794.83 988.98,2794.83 988.98,2743.36 
		988.98,2701.23 988.98,2633.9 988.98,2628.81 988.98,2582.04 985.94,2582.04 985.94,2519.06 985.94,2509.57 985.94,2446.59 
		988.98,2446.59 988.98,2397.28 988.98,2283.81 988.98,2280.28 988.98,2230.97 985.94,2230.97 985.94,2168.02 985.94,2158.49 
		985.94,2095.54 988.98,2095.54 988.98,2046.23 988.98,1932.76 988.98,1929.21 988.98,1879.92 985.94,1879.92 985.94,1816.94 
		985.94,1807.45 985.94,1744.47 988.98,1744.47 988.98,1695.18 988.98,1581.71 988.98,1578.16 988.98,1528.87 985.94,1528.87 
		985.94,1465.89 985.94,1456.4 985.94,1393.42 988.98,1393.42 988.98,1344.13 988.98,1230.66 988.98,1227.11 988.98,1177.82 
		985.94,1177.82 985.94,1114.85 	"/>
</g>
<g id="EL06" class="st0">
	<polygon class="st1" points="797.29,4297.21 733.36,4297.21 733.36,4299.91 733.36,4379.47 797.29,4379.47 	"/>
</g>
<g id="EL05" class="st0">
	<rect x="733.36" y="4379.47" class="st1" width="63.93" height="89.85"/>
</g>
<g id="EL04" class="st0">
	<polygon class="st1" points="819.4,4468.85 799.84,4468.85 799.84,4469.29 795.41,4469.29 733.36,4469.29 733.36,4469.72 
		733.36,4539.26 701.39,4539.26 701.39,4549.71 819.4,4549.71 819.4,4537.93 	"/>
</g>
<g id="ST03" class="st0">
	<polygon class="st1" points="719.64,4635.13 912.62,4635.13 912.62,4554.29 868.86,4554.29 821.69,4554.29 699.93,4554.29 
		653.11,4554.29 653.11,4598.77 719.64,4598.77 	"/>
</g>
<g id="ST05" class="st0">
	<polygon class="st1" points="912.62,825.39 912.62,744.52 719.64,744.52 719.64,780.89 658.9,780.89 658.9,810.69 657.77,810.69 
		657.77,825.39 727.7,825.39 797.5,825.39 799.84,825.39 	"/>
</g>
<g id="EL08" class="st0">
	<polygon class="st1" points="658.9,838.85 735.34,838.85 735.34,926.97 797.55,926.97 797.55,910.11 797.55,875.57 797.55,829.97 
		727.7,829.97 657.77,829.97 657.77,833.67 658.9,833.67 658.9,838.07 	"/>
</g>
<g id="EL07" class="st0">
	<rect x="735.34" y="926.97" class="st1" width="62.21" height="80.86"/>
</g>
<g id="ST04" class="st0">
	<polygon class="st1" points="734.83,2712.63 734.83,2519.14 643.87,2519.14 643.87,2527.33 643.87,2535.66 643.87,2578.36 
		643.87,2712.63 	"/>
</g>
<g id="ST06" class="st0">
	
		<rect x="1462.25" y="366.36" transform="matrix(0.7071 -0.7071 0.7071 0.7071 116.0374 1194.3531)" class="st3" width="74.97" height="181.49"/>
</g>
<g id="_x30_2.38.06" class="st0">
	<rect x="837.21" y="2613.13" class="st1" width="31.53" height="25.66"/>
</g>
<g id="_x30_2.33.03" class="st0">
	<polygon class="st1" points="823.98,4523.87 823.98,4546.01 856.72,4546.01 856.72,4539.08 862.25,4539.08 862.25,4523.87 	"/>
</g>
<g id="_x30_2.28.11" class="st0">
	<polygon class="st1" points="999.06,2862.85 1040.6,2862.85 1064.98,2862.85 1064.98,2860.23 1064.98,2796.51 999.06,2796.51 	"/>
</g>
<g id="_x30_2.38.03B" class="st0">
	<polygon class="st1" points="920.9,2665.66 915.88,2665.66 915.88,2613.13 873.73,2613.13 873.73,2640.26 873.73,2653.38 
		873.73,2665.66 868.73,2665.66 868.73,2654.85 839.68,2654.85 834.35,2654.85 834.35,2665.66 781.31,2665.66 781.31,2714.02 
		808.36,2714.02 873.47,2714.02 873.47,2724.29 873.47,2766.55 915.88,2766.55 915.88,2714.02 920.9,2714.02 	"/>
</g>
<g id="_x30_2.43.05" class="st0">
	<polygon class="st1" points="797.11,1093.43 797.11,1014.47 720.49,1014.47 720.49,1078.22 734.39,1078.22 734.39,1092.89 
		736.78,1092.89 737.68,1092.89 737.68,1093.43 	"/>
</g>
<g id="S-GRID-IDEN">
	<g id="Circles">
		<g id="CIRCLE_23_">
			<circle class="st4" cx="302.55" cy="526.81" r="16.57"/>
		</g>
		<g id="CIRCLE_24_">
			<circle class="st4" cx="238.13" cy="833.67" r="16.57"/>
		</g>
		<g id="CIRCLE_25_">
			<circle class="st4" cx="238.13" cy="497.84" r="16.57"/>
		</g>
		<g id="CIRCLE_26_">
			<circle class="st4" cx="1461.4" cy="106.71" r="16.57"/>
		</g>
		<g id="CIRCLE_27_">
			<circle class="st4" cx="2049.22" cy="483.32" r="16.57"/>
		</g>
		<g id="CIRCLE_28_">
			<circle class="st4" cx="238.13" cy="738.32" r="16.57"/>
		</g>
		<g id="CIRCLE_29_">
			<circle class="st4" cx="238.13" cy="4641.36" r="16.57"/>
		</g>
		<g id="CIRCLE_30_">
			<circle class="st4" cx="725.41" cy="648.63" r="16.57"/>
		</g>
		<g id="CIRCLE_31_">
			<circle class="st4" cx="238.13" cy="4286.17" r="16.57"/>
		</g>
		<g id="CIRCLE_32_">
			<circle class="st4" cx="238.13" cy="1093.51" r="16.57"/>
		</g>
		<g id="CIRCLE_33_">
			<circle class="st4" cx="634.89" cy="648.63" r="16.57"/>
		</g>
		<g id="CIRCLE_34_">
			<circle class="st4" cx="423.44" cy="648.63" r="16.57"/>
		</g>
		<g id="CIRCLE_35_">
			<circle class="st4" cx="746.15" cy="95.44" r="16.57"/>
		</g>
		<g id="CIRCLE_36_">
			<circle class="st4" cx="2049.22" cy="4473.43" r="16.57"/>
		</g>
		<g id="CIRCLE_37_">
			<circle class="st4" cx="2049.22" cy="4639.28" r="16.57"/>
		</g>
		<g id="CIRCLE">
			<circle class="st4" cx="2049.22" cy="2689.83" r="16.57"/>
		</g>
		<g id="CIRCLE_1_">
			<circle class="st4" cx="238.13" cy="2514.3" r="16.57"/>
		</g>
		<g id="CIRCLE_2_">
			<circle class="st4" cx="238.13" cy="2865.35" r="16.57"/>
		</g>
		<g id="CIRCLE_3_">
			<circle class="st4" cx="238.13" cy="3216.43" r="16.57"/>
		</g>
		<g id="CIRCLE_4_">
			<circle class="st4" cx="238.13" cy="3567.47" r="16.57"/>
		</g>
		<g id="CIRCLE_5_">
			<circle class="st4" cx="238.13" cy="3918.52" r="16.57"/>
		</g>
		<g id="CIRCLE_6_">
			<circle class="st4" cx="238.13" cy="2163.26" r="16.57"/>
		</g>
		<g id="CIRCLE_7_">
			<circle class="st4" cx="238.13" cy="1812.21" r="16.57"/>
		</g>
		<g id="CIRCLE_8_">
			<circle class="st4" cx="238.13" cy="1461.16" r="16.57"/>
		</g>
		<g id="CIRCLE_9_">
			<circle class="st4" cx="238.13" cy="1110.08" r="16.57"/>
		</g>
		<g id="CIRCLE_10_">
			<circle class="st4" cx="2049.22" cy="1063.78" r="16.57"/>
		</g>
		<g id="CIRCLE_11_">
			<circle class="st4" cx="2049.22" cy="4315.87" r="16.57"/>
		</g>
		<g id="CIRCLE_12_">
			<circle class="st4" cx="1800.69" cy="4902" r="16.57"/>
		</g>
		<g id="CIRCLE_13_">
			<circle class="st4" cx="238.13" cy="4269.57" r="16.57"/>
		</g>
		<g id="CIRCLE_14_">
			<circle class="st4" cx="1800.69" cy="95.44" r="16.57"/>
		</g>
		<g id="CIRCLE_15_">
			<circle class="st4" cx="1623.44" cy="4900.74" r="16.57"/>
		</g>
		<g id="CIRCLE_16_">
			<circle class="st4" cx="1454.55" cy="4897.13" r="16.57"/>
		</g>
		<g id="CIRCLE_17_">
			<circle class="st4" cx="958.07" cy="4897.13" r="16.57"/>
		</g>
		<g id="CIRCLE_18_">
			<circle class="st4" cx="234.45" cy="4881.07" r="16.57"/>
		</g>
		<g id="CIRCLE_19_">
			<circle class="st4" cx="238.13" cy="4546.01" r="16.57"/>
		</g>
		<g id="CIRCLE_20_">
			<circle class="st4" cx="1465.1" cy="96.7" r="16.57"/>
		</g>
		<g id="CIRCLE_21_">
			<circle class="st4" cx="1072.31" cy="100.31" r="16.57"/>
		</g>
		<g id="CIRCLE_22_">
			<circle class="st4" cx="575.85" cy="100.31" r="16.57"/>
		</g>
	</g>
	<g id="Numbers">
		<g id="MTEXT_37_">
			<text transform="matrix(1 0 0 1 2036.0189 4645.2393)" class="st5 st6">A.6</text>
		</g>
		<g id="MTEXT_36_">
			<text transform="matrix(1 0 0 1 2036.0189 4479.3857)" class="st5 st6">A.3</text>
		</g>
		<g id="MTEXT_35_">
			<text transform="matrix(1 0 0 1 738.4052 101.4727)" class="st5 st6">D</text>
		</g>
		<g id="MTEXT_34_">
			<text transform="matrix(1 0 0 1 415.5878 654.6377)" class="st5 st6">G</text>
		</g>
		<g id="MTEXT_33_">
			<text transform="matrix(1 0 0 1 628.0135 654.6377)" class="st5 st6">F</text>
		</g>
		<g id="MTEXT_32_">
			<text transform="matrix(1 0 0 1 220.9501 1099.4629)" class="st5 st6">43.1</text>
		</g>
		<g id="MTEXT_31_">
			<text transform="matrix(1 0 0 1 220.4423 4292.1162)" class="st5 st6">33.9</text>
		</g>
		<g id="MTEXT_30_">
			<text transform="matrix(1 0 0 1 718.162 654.6377)" class="st5 st6">E</text>
		</g>
		<g id="MTEXT_29_">
			<text transform="matrix(1 0 0 1 220.4423 4647.3184)" class="st5 st6">32.7</text>
		</g>
		<g id="MTEXT_28_">
			<text transform="matrix(1 0 0 1 220.9501 744.2646)" class="st5 st6">44.3</text>
		</g>
		<g id="MTEXT_27_">
			<text transform="matrix(1 0 0 1 2041.9916 489.2598)" class="st5 st6">B</text>
		</g>
		<g id="MTEXT_26_">
			<text transform="matrix(1 0 0 1 1454.0912 112.708)" class="st5 st6">C</text>
		</g>
		<g id="MTEXT_25_">
			<text transform="matrix(1 0 0 1 220.9501 503.7764)" class="st5 st6">45.1</text>
		</g>
		<g id="MTEXT_24_">
			<text transform="matrix(1 0 0 1 228.1981 839.6309)" class="st5 st6">44</text>
		</g>
		<g id="MTEXT_23_">
			<text transform="matrix(1 0 0 1 292.6151 532.7881)" class="st5 st6">45</text>
		</g>
		<g id="MTEXT">
			<text transform="matrix(1 0 0 1 2033.1674 2695.7842)" class="st5 st6">EW</text>
		</g>
		<g id="MTEXT_1_">
			<text transform="matrix(1 0 0 1 227.6874 2520.2646)" class="st5 st6">39</text>
		</g>
		<g id="MTEXT_2_">
			<text transform="matrix(1 0 0 1 227.6874 2871.3184)" class="st5 st6">38</text>
		</g>
		<g id="MTEXT_3_">
			<text transform="matrix(1 0 0 1 227.6874 3222.3701)" class="st5 st6">37</text>
		</g>
		<g id="MTEXT_4_">
			<text transform="matrix(1 0 0 1 227.6874 3573.4248)" class="st5 st6">36</text>
		</g>
		<g id="MTEXT_5_">
			<text transform="matrix(1 0 0 1 227.6874 3924.4785)" class="st5 st6">35</text>
		</g>
		<g id="MTEXT_6_">
			<text transform="matrix(1 0 0 1 228.1981 2169.2109)" class="st5 st6">40</text>
		</g>
		<g id="MTEXT_22_">
			<text transform="matrix(1 0 0 1 558.6561 106.3135)" class="st5 st6">45.4</text>
		</g>
		<g id="MTEXT_21_">
			<text transform="matrix(1 0 0 1 1055.12 106.3135)" class="st5 st6">45.6</text>
		</g>
		<g id="MTEXT_20_">
			<text transform="matrix(1 0 0 1 1455.1459 102.7324)" class="st5 st6">46</text>
		</g>
		<g id="MTEXT_19_">
			<text transform="matrix(1 0 0 1 227.6874 4551.9551)" class="st5 st6">33</text>
		</g>
		<g id="MTEXT_18_">
			<text transform="matrix(1 0 0 1 224.0263 4886.9961)" class="st5 st6">32</text>
		</g>
		<g id="MTEXT_17_">
			<text transform="matrix(1 0 0 1 940.3778 4903.0381)" class="st5 st6">31.6</text>
		</g>
		<g id="MTEXT_16_">
			<text transform="matrix(1 0 0 1 1436.8431 4903.0381)" class="st5 st6">31.4</text>
		</g>
		<g id="MTEXT_15_">
			<text transform="matrix(1 0 0 1 1612.9681 4906.6172)" class="st5 st6">31</text>
		</g>
		<g id="MTEXT_14_">
			<text transform="matrix(1 0 0 1 1790.6947 101.4727)" class="st5 st6">48</text>
		</g>
		<g id="MTEXT_13_">
			<text transform="matrix(1 0 0 1 227.6874 4275.5312)" class="st5 st6">34</text>
		</g>
		<g id="MTEXT_12_">
			<text transform="matrix(1 0 0 1 1790.4135 4907.873)" class="st5 st6">29</text>
		</g>
		<g id="MTEXT_11_">
			<text transform="matrix(1 0 0 1 2043.2689 4321.8271)" class="st5 st6">A</text>
		</g>
		<g id="MTEXT_10_">
			<text transform="matrix(1 0 0 1 2043.4017 1069.7471)" class="st5 st6">A</text>
		</g>
		<g id="MTEXT_9_">
			<text transform="matrix(1 0 0 1 228.1981 1116.0479)" class="st5 st6">43</text>
		</g>
		<g id="MTEXT_8_">
			<text transform="matrix(1 0 0 1 228.1981 1467.1016)" class="st5 st6">42</text>
		</g>
		<g id="MTEXT_7_">
			<text transform="matrix(1 0 0 1 228.1981 1818.1572)" class="st5 st6">41</text>
		</g>
	</g>
</g>
<g id="S-GRID">
	<g id="LINE">
		<line class="st7" x1="254.71" y1="2689.83" x2="2032.62" y2="2689.83"/>
	</g>
	<g id="LINE_1_">
		<line class="st7" x1="1920.93" y1="2514.3" x2="254.71" y2="2514.3"/>
	</g>
	<g id="LINE_2_">
		<line class="st7" x1="1920.93" y1="2865.35" x2="254.71" y2="2865.35"/>
	</g>
	<g id="LINE_3_">
		<line class="st7" x1="1920.93" y1="3216.43" x2="254.71" y2="3216.43"/>
	</g>
	<g id="LINE_4_">
		<line class="st7" x1="1920.93" y1="3567.47" x2="254.71" y2="3567.47"/>
	</g>
	<g id="LINE_5_">
		<line class="st7" x1="1920.93" y1="3918.52" x2="254.71" y2="3918.52"/>
	</g>
	<g id="LINE_6_">
		<line class="st7" x1="1920.93" y1="2163.26" x2="254.71" y2="2163.26"/>
	</g>
	<g id="LINE_7_">
		<line class="st7" x1="1920.93" y1="1812.21" x2="254.71" y2="1812.21"/>
	</g>
	<g id="LINE_8_">
		<line class="st7" x1="1920.93" y1="1461.16" x2="254.71" y2="1461.16"/>
	</g>
	<g id="LINE_9_">
		<line class="st7" x1="1714.06" y1="1110.08" x2="254.71" y2="1110.08"/>
	</g>
	<g id="LINE_10_">
		<line class="st7" x1="2032.62" y1="1063.78" x2="1865.7" y2="1063.78"/>
	</g>
	<g id="LINE_11_">
		<line class="st7" x1="1865.7" y1="1063.78" x2="1787.56" y2="1141.92"/>
	</g>
	<g id="LINE_12_">
		<line class="st7" x1="1787.56" y1="1141.92" x2="1787.56" y2="4237.76"/>
	</g>
	<g id="LINE_13_">
		<line class="st7" x1="1787.56" y1="4237.76" x2="1865.7" y2="4315.87"/>
	</g>
	<g id="LINE_14_">
		<line class="st7" x1="1865.7" y1="4315.87" x2="2032.62" y2="4315.87"/>
	</g>
	<g id="LINE_15_">
		<line class="st7" x1="927.9" y1="4739.44" x2="927.9" y2="640.21"/>
	</g>
	<g id="LINE_16_">
		<line class="st7" x1="1800.69" y1="4472.79" x2="1800.69" y2="4885.4"/>
	</g>
	<g id="LINE_17_">
		<line class="st7" x1="1710.74" y1="4269.57" x2="254.71" y2="4269.57"/>
	</g>
	<g id="LINE_18_">
		<line class="st7" x1="1800.69" y1="906.87" x2="1800.69" y2="112.04"/>
	</g>
	<g id="LINE_19_">
		<line class="st7" x1="1920.93" y1="4182.5" x2="1629.79" y2="4885.4"/>
	</g>
	<g id="LINE_20_">
		<line class="st7" x1="1744.22" y1="4607.47" x2="1466.26" y2="4885.4"/>
	</g>
	<g id="LINE_21_">
		<line class="st7" x1="1495.99" y1="4359.24" x2="969.8" y2="4885.4"/>
	</g>
	<g id="LINE_22_">
		<line class="st7" x1="1920.93" y1="4182.5" x2="249.79" y2="4874.72"/>
	</g>
	<g id="LINE_23_">
		<line class="st7" x1="1227.53" y1="4546.01" x2="254.71" y2="4546.01"/>
	</g>
	<g id="LINE_24_">
		<line class="st7" x1="1920.93" y1="1197.18" x2="1471.46" y2="112.04"/>
	</g>
	<g id="LINE_25_">
		<line class="st7" x1="1744.22" y1="772.21" x2="1084.05" y2="112.04"/>
	</g>
	<g id="LINE_26_">
		<line class="st7" x1="1495.99" y1="1020.44" x2="587.59" y2="112.04"/>
	</g>
	<g id="LINE_27_">
		<line class="st7" x1="1920.93" y1="1197.18" x2="317.87" y2="533.15"/>
	</g>
	<g id="LINE_28_">
		<line class="st7" x1="1089.25" y1="833.67" x2="254.71" y2="833.67"/>
	</g>
	<g id="LINE_29_">
		<line class="st7" x1="1070.3" y1="497.84" x2="254.71" y2="497.84"/>
	</g>
	<g id="LINE_30_">
		<line class="st7" x1="1073.86" y1="4885.4" x2="927.9" y2="4739.44"/>
	</g>
	<g id="LINE_31_">
		<line class="st7" x1="927.9" y1="640.21" x2="1449.69" y2="118.43"/>
	</g>
	<g id="LINE_32_">
		<line class="st7" x1="1614.3" y1="4885.4" x2="1207.07" y2="4478.19"/>
	</g>
	<g id="LINE_33_">
		<line class="st7" x1="1207.07" y1="4478.19" x2="1207.07" y2="901.49"/>
	</g>
	<g id="LINE_34_">
		<line class="st7" x1="1207.07" y1="901.49" x2="1625.24" y2="483.32"/>
	</g>
	<g id="LINE_35_">
		<line class="st7" x1="1625.24" y1="483.32" x2="2032.62" y2="483.32"/>
	</g>
	<g id="LINE_36_">
		<line class="st7" x1="1089.25" y1="738.32" x2="254.71" y2="738.32"/>
	</g>
	<g id="LINE_37_">
		<line class="st7" x1="1227.53" y1="4641.36" x2="254.71" y2="4641.36"/>
	</g>
	<g id="LINE_38_">
		<line class="st7" x1="725.41" y1="4718.37" x2="725.41" y2="665.2"/>
	</g>
	<g id="LINE_39_">
		<line class="st7" x1="1221.58" y1="4286.17" x2="254.71" y2="4286.17"/>
	</g>
	<g id="LINE_40_">
		<line class="st7" x1="1714.06" y1="1093.51" x2="254.71" y2="1093.51"/>
	</g>
	<g id="LINE_41_">
		<line class="st7" x1="634.89" y1="4718.37" x2="634.89" y2="665.2"/>
	</g>
	<g id="LINE_42_">
		<line class="st7" x1="423.44" y1="4718.37" x2="423.44" y2="665.2"/>
	</g>
	<g id="LINE_43_">
		<line class="st7" x1="746.15" y1="4885.4" x2="746.15" y2="112.04"/>
	</g>
	<g id="LINE_44_">
		<line class="st7" x1="1741.8" y1="4414.8" x2="1800.43" y2="4473.43"/>
	</g>
	<g id="LINE_45_">
		<line class="st7" x1="1800.43" y1="4473.43" x2="2032.62" y2="4473.43"/>
	</g>
	<g id="LINE_46_">
		<line class="st7" x1="1689.01" y1="4596.58" x2="1731.74" y2="4639.28"/>
	</g>
	<g id="LINE_47_">
		<line class="st7" x1="1731.74" y1="4639.28" x2="2032.62" y2="4639.28"/>
	</g>
</g>
</svg>
